G04 #@! TF.GenerationSoftware,KiCad,Pcbnew,(5.0.2)-1*
G04 #@! TF.CreationDate,2019-02-17T23:09:41+09:00*
G04 #@! TF.ProjectId,LrE-6_panel,4c72452d-365f-4706-916e-656c2e6b6963,rev?*
G04 #@! TF.SameCoordinates,Original*
G04 #@! TF.FileFunction,Drawing*
%FSLAX46Y46*%
G04 Gerber Fmt 4.6, Leading zero omitted, Abs format (unit mm)*
G04 Created by KiCad (PCBNEW (5.0.2)-1) date 2019/02/17 23:09:41*
%MOMM*%
%LPD*%
G01*
G04 APERTURE LIST*
%ADD10C,0.300000*%
%ADD11C,0.200000*%
G04 APERTURE END LIST*
D10*
X130314285Y-158978571D02*
X129457142Y-158978571D01*
X129885714Y-158978571D02*
X129885714Y-157478571D01*
X129742857Y-157692857D01*
X129600000Y-157835714D01*
X129457142Y-157907142D01*
X131671428Y-157478571D02*
X130957142Y-157478571D01*
X130885714Y-158192857D01*
X130957142Y-158121428D01*
X131100000Y-158050000D01*
X131457142Y-158050000D01*
X131600000Y-158121428D01*
X131671428Y-158192857D01*
X131742857Y-158335714D01*
X131742857Y-158692857D01*
X131671428Y-158835714D01*
X131600000Y-158907142D01*
X131457142Y-158978571D01*
X131100000Y-158978571D01*
X130957142Y-158907142D01*
X130885714Y-158835714D01*
X115514285Y-158978571D02*
X114657142Y-158978571D01*
X115085714Y-158978571D02*
X115085714Y-157478571D01*
X114942857Y-157692857D01*
X114800000Y-157835714D01*
X114657142Y-157907142D01*
X116871428Y-157478571D02*
X116157142Y-157478571D01*
X116085714Y-158192857D01*
X116157142Y-158121428D01*
X116300000Y-158050000D01*
X116657142Y-158050000D01*
X116800000Y-158121428D01*
X116871428Y-158192857D01*
X116942857Y-158335714D01*
X116942857Y-158692857D01*
X116871428Y-158835714D01*
X116800000Y-158907142D01*
X116657142Y-158978571D01*
X116300000Y-158978571D01*
X116157142Y-158907142D01*
X116085714Y-158835714D01*
X100214285Y-158978571D02*
X99357142Y-158978571D01*
X99785714Y-158978571D02*
X99785714Y-157478571D01*
X99642857Y-157692857D01*
X99500000Y-157835714D01*
X99357142Y-157907142D01*
X101571428Y-157478571D02*
X100857142Y-157478571D01*
X100785714Y-158192857D01*
X100857142Y-158121428D01*
X101000000Y-158050000D01*
X101357142Y-158050000D01*
X101500000Y-158121428D01*
X101571428Y-158192857D01*
X101642857Y-158335714D01*
X101642857Y-158692857D01*
X101571428Y-158835714D01*
X101500000Y-158907142D01*
X101357142Y-158978571D01*
X101000000Y-158978571D01*
X100857142Y-158907142D01*
X100785714Y-158835714D01*
X86014285Y-158978571D02*
X85157142Y-158978571D01*
X85585714Y-158978571D02*
X85585714Y-157478571D01*
X85442857Y-157692857D01*
X85300000Y-157835714D01*
X85157142Y-157907142D01*
X87371428Y-157478571D02*
X86657142Y-157478571D01*
X86585714Y-158192857D01*
X86657142Y-158121428D01*
X86800000Y-158050000D01*
X87157142Y-158050000D01*
X87300000Y-158121428D01*
X87371428Y-158192857D01*
X87442857Y-158335714D01*
X87442857Y-158692857D01*
X87371428Y-158835714D01*
X87300000Y-158907142D01*
X87157142Y-158978571D01*
X86800000Y-158978571D01*
X86657142Y-158907142D01*
X86585714Y-158835714D01*
X62171428Y-157721428D02*
X62242857Y-157650000D01*
X62385714Y-157578571D01*
X62742857Y-157578571D01*
X62885714Y-157650000D01*
X62957142Y-157721428D01*
X63028571Y-157864285D01*
X63028571Y-158007142D01*
X62957142Y-158221428D01*
X62100000Y-159078571D01*
X63028571Y-159078571D01*
X63885714Y-158221428D02*
X63742857Y-158150000D01*
X63671428Y-158078571D01*
X63600000Y-157935714D01*
X63600000Y-157864285D01*
X63671428Y-157721428D01*
X63742857Y-157650000D01*
X63885714Y-157578571D01*
X64171428Y-157578571D01*
X64314285Y-157650000D01*
X64385714Y-157721428D01*
X64457142Y-157864285D01*
X64457142Y-157935714D01*
X64385714Y-158078571D01*
X64314285Y-158150000D01*
X64171428Y-158221428D01*
X63885714Y-158221428D01*
X63742857Y-158292857D01*
X63671428Y-158364285D01*
X63600000Y-158507142D01*
X63600000Y-158792857D01*
X63671428Y-158935714D01*
X63742857Y-159007142D01*
X63885714Y-159078571D01*
X64171428Y-159078571D01*
X64314285Y-159007142D01*
X64385714Y-158935714D01*
X64457142Y-158792857D01*
X64457142Y-158507142D01*
X64385714Y-158364285D01*
X64314285Y-158292857D01*
X64171428Y-158221428D01*
X65100000Y-158935714D02*
X65171428Y-159007142D01*
X65100000Y-159078571D01*
X65028571Y-159007142D01*
X65100000Y-158935714D01*
X65100000Y-159078571D01*
X65742857Y-157721428D02*
X65814285Y-157650000D01*
X65957142Y-157578571D01*
X66314285Y-157578571D01*
X66457142Y-157650000D01*
X66528571Y-157721428D01*
X66600000Y-157864285D01*
X66600000Y-158007142D01*
X66528571Y-158221428D01*
X65671428Y-159078571D01*
X66600000Y-159078571D01*
X67957142Y-157578571D02*
X67242857Y-157578571D01*
X67171428Y-158292857D01*
X67242857Y-158221428D01*
X67385714Y-158150000D01*
X67742857Y-158150000D01*
X67885714Y-158221428D01*
X67957142Y-158292857D01*
X68028571Y-158435714D01*
X68028571Y-158792857D01*
X67957142Y-158935714D01*
X67885714Y-159007142D01*
X67742857Y-159078571D01*
X67385714Y-159078571D01*
X67242857Y-159007142D01*
X67171428Y-158935714D01*
D11*
X50200000Y-160000000D02*
X138250000Y-160000000D01*
X123250000Y-155000000D02*
X123250000Y-165000000D01*
X108250000Y-155000000D02*
X108250000Y-165000000D01*
X93500000Y-155000000D02*
X93500000Y-165000000D01*
X78250000Y-155000000D02*
X78250000Y-165000000D01*
X138250000Y-155000000D02*
X138250000Y-165000000D01*
X50000000Y-155000000D02*
X50000000Y-165000000D01*
D10*
X158278571Y-129985714D02*
X158278571Y-130842857D01*
X158278571Y-130414285D02*
X156778571Y-130414285D01*
X156992857Y-130557142D01*
X157135714Y-130700000D01*
X157207142Y-130842857D01*
X156778571Y-128628571D02*
X156778571Y-129342857D01*
X157492857Y-129414285D01*
X157421428Y-129342857D01*
X157350000Y-129200000D01*
X157350000Y-128842857D01*
X157421428Y-128700000D01*
X157492857Y-128628571D01*
X157635714Y-128557142D01*
X157992857Y-128557142D01*
X158135714Y-128628571D01*
X158207142Y-128700000D01*
X158278571Y-128842857D01*
X158278571Y-129200000D01*
X158207142Y-129342857D01*
X158135714Y-129414285D01*
X157778571Y-145471428D02*
X157778571Y-146328571D01*
X157778571Y-145900000D02*
X156278571Y-145900000D01*
X156492857Y-146042857D01*
X156635714Y-146185714D01*
X156707142Y-146328571D01*
X156421428Y-144900000D02*
X156350000Y-144828571D01*
X156278571Y-144685714D01*
X156278571Y-144328571D01*
X156350000Y-144185714D01*
X156421428Y-144114285D01*
X156564285Y-144042857D01*
X156707142Y-144042857D01*
X156921428Y-144114285D01*
X157778571Y-144971428D01*
X157778571Y-144042857D01*
X157635714Y-143400000D02*
X157707142Y-143328571D01*
X157778571Y-143400000D01*
X157707142Y-143471428D01*
X157635714Y-143400000D01*
X157778571Y-143400000D01*
X156278571Y-142828571D02*
X156278571Y-141828571D01*
X157778571Y-142471428D01*
X156278571Y-140542857D02*
X156278571Y-141257142D01*
X156992857Y-141328571D01*
X156921428Y-141257142D01*
X156850000Y-141114285D01*
X156850000Y-140757142D01*
X156921428Y-140614285D01*
X156992857Y-140542857D01*
X157135714Y-140471428D01*
X157492857Y-140471428D01*
X157635714Y-140542857D01*
X157707142Y-140614285D01*
X157778571Y-140757142D01*
X157778571Y-141114285D01*
X157707142Y-141257142D01*
X157635714Y-141328571D01*
D11*
X160000000Y-120000000D02*
X160000000Y-150000000D01*
X155000000Y-150000000D02*
X165000000Y-150000000D01*
D10*
X27678571Y-102100000D02*
X27678571Y-102957142D01*
X27678571Y-102528571D02*
X26178571Y-102528571D01*
X26392857Y-102671428D01*
X26535714Y-102814285D01*
X26607142Y-102957142D01*
X26178571Y-101171428D02*
X26178571Y-101028571D01*
X26250000Y-100885714D01*
X26321428Y-100814285D01*
X26464285Y-100742857D01*
X26750000Y-100671428D01*
X27107142Y-100671428D01*
X27392857Y-100742857D01*
X27535714Y-100814285D01*
X27607142Y-100885714D01*
X27678571Y-101028571D01*
X27678571Y-101171428D01*
X27607142Y-101314285D01*
X27535714Y-101385714D01*
X27392857Y-101457142D01*
X27107142Y-101528571D01*
X26750000Y-101528571D01*
X26464285Y-101457142D01*
X26321428Y-101385714D01*
X26250000Y-101314285D01*
X26178571Y-101171428D01*
X26178571Y-99742857D02*
X26178571Y-99600000D01*
X26250000Y-99457142D01*
X26321428Y-99385714D01*
X26464285Y-99314285D01*
X26750000Y-99242857D01*
X27107142Y-99242857D01*
X27392857Y-99314285D01*
X27535714Y-99385714D01*
X27607142Y-99457142D01*
X27678571Y-99600000D01*
X27678571Y-99742857D01*
X27607142Y-99885714D01*
X27535714Y-99957142D01*
X27392857Y-100028571D01*
X27107142Y-100100000D01*
X26750000Y-100100000D01*
X26464285Y-100028571D01*
X26321428Y-99957142D01*
X26250000Y-99885714D01*
X26178571Y-99742857D01*
D11*
X30000000Y-50000000D02*
X30000000Y-150000000D01*
X25000000Y-150000000D02*
X45000000Y-150000000D01*
D10*
X96700000Y-29278571D02*
X95842857Y-29278571D01*
X96271428Y-29278571D02*
X96271428Y-27778571D01*
X96128571Y-27992857D01*
X95985714Y-28135714D01*
X95842857Y-28207142D01*
X97628571Y-27778571D02*
X97771428Y-27778571D01*
X97914285Y-27850000D01*
X97985714Y-27921428D01*
X98057142Y-28064285D01*
X98128571Y-28350000D01*
X98128571Y-28707142D01*
X98057142Y-28992857D01*
X97985714Y-29135714D01*
X97914285Y-29207142D01*
X97771428Y-29278571D01*
X97628571Y-29278571D01*
X97485714Y-29207142D01*
X97414285Y-29135714D01*
X97342857Y-28992857D01*
X97271428Y-28707142D01*
X97271428Y-28350000D01*
X97342857Y-28064285D01*
X97414285Y-27921428D01*
X97485714Y-27850000D01*
X97628571Y-27778571D01*
X99057142Y-27778571D02*
X99200000Y-27778571D01*
X99342857Y-27850000D01*
X99414285Y-27921428D01*
X99485714Y-28064285D01*
X99557142Y-28350000D01*
X99557142Y-28707142D01*
X99485714Y-28992857D01*
X99414285Y-29135714D01*
X99342857Y-29207142D01*
X99200000Y-29278571D01*
X99057142Y-29278571D01*
X98914285Y-29207142D01*
X98842857Y-29135714D01*
X98771428Y-28992857D01*
X98700000Y-28707142D01*
X98700000Y-28350000D01*
X98771428Y-28064285D01*
X98842857Y-27921428D01*
X98914285Y-27850000D01*
X99057142Y-27778571D01*
D11*
X50000000Y-30000000D02*
X150000000Y-30000000D01*
X150000000Y-25000000D02*
X150000000Y-45000000D01*
D10*
X34278571Y-113314285D02*
X34278571Y-112385714D01*
X34850000Y-112885714D01*
X34850000Y-112671428D01*
X34921428Y-112528571D01*
X34992857Y-112457142D01*
X35135714Y-112385714D01*
X35492857Y-112385714D01*
X35635714Y-112457142D01*
X35707142Y-112528571D01*
X35778571Y-112671428D01*
X35778571Y-113100000D01*
X35707142Y-113242857D01*
X35635714Y-113314285D01*
X34278571Y-111457142D02*
X34278571Y-111314285D01*
X34350000Y-111171428D01*
X34421428Y-111100000D01*
X34564285Y-111028571D01*
X34850000Y-110957142D01*
X35207142Y-110957142D01*
X35492857Y-111028571D01*
X35635714Y-111100000D01*
X35707142Y-111171428D01*
X35778571Y-111314285D01*
X35778571Y-111457142D01*
X35707142Y-111600000D01*
X35635714Y-111671428D01*
X35492857Y-111742857D01*
X35207142Y-111814285D01*
X34850000Y-111814285D01*
X34564285Y-111742857D01*
X34421428Y-111671428D01*
X34350000Y-111600000D01*
X34278571Y-111457142D01*
X128957142Y-38821428D02*
X129028571Y-38750000D01*
X129171428Y-38678571D01*
X129528571Y-38678571D01*
X129671428Y-38750000D01*
X129742857Y-38821428D01*
X129814285Y-38964285D01*
X129814285Y-39107142D01*
X129742857Y-39321428D01*
X128885714Y-40178571D01*
X129814285Y-40178571D01*
X130742857Y-38678571D02*
X130885714Y-38678571D01*
X131028571Y-38750000D01*
X131100000Y-38821428D01*
X131171428Y-38964285D01*
X131242857Y-39250000D01*
X131242857Y-39607142D01*
X131171428Y-39892857D01*
X131100000Y-40035714D01*
X131028571Y-40107142D01*
X130885714Y-40178571D01*
X130742857Y-40178571D01*
X130600000Y-40107142D01*
X130528571Y-40035714D01*
X130457142Y-39892857D01*
X130385714Y-39607142D01*
X130385714Y-39250000D01*
X130457142Y-38964285D01*
X130528571Y-38821428D01*
X130600000Y-38750000D01*
X130742857Y-38678571D01*
X109057142Y-38421428D02*
X109128571Y-38350000D01*
X109271428Y-38278571D01*
X109628571Y-38278571D01*
X109771428Y-38350000D01*
X109842857Y-38421428D01*
X109914285Y-38564285D01*
X109914285Y-38707142D01*
X109842857Y-38921428D01*
X108985714Y-39778571D01*
X109914285Y-39778571D01*
X110842857Y-38278571D02*
X110985714Y-38278571D01*
X111128571Y-38350000D01*
X111200000Y-38421428D01*
X111271428Y-38564285D01*
X111342857Y-38850000D01*
X111342857Y-39207142D01*
X111271428Y-39492857D01*
X111200000Y-39635714D01*
X111128571Y-39707142D01*
X110985714Y-39778571D01*
X110842857Y-39778571D01*
X110700000Y-39707142D01*
X110628571Y-39635714D01*
X110557142Y-39492857D01*
X110485714Y-39207142D01*
X110485714Y-38850000D01*
X110557142Y-38564285D01*
X110628571Y-38421428D01*
X110700000Y-38350000D01*
X110842857Y-38278571D01*
X89357142Y-38421428D02*
X89428571Y-38350000D01*
X89571428Y-38278571D01*
X89928571Y-38278571D01*
X90071428Y-38350000D01*
X90142857Y-38421428D01*
X90214285Y-38564285D01*
X90214285Y-38707142D01*
X90142857Y-38921428D01*
X89285714Y-39778571D01*
X90214285Y-39778571D01*
X91142857Y-38278571D02*
X91285714Y-38278571D01*
X91428571Y-38350000D01*
X91500000Y-38421428D01*
X91571428Y-38564285D01*
X91642857Y-38850000D01*
X91642857Y-39207142D01*
X91571428Y-39492857D01*
X91500000Y-39635714D01*
X91428571Y-39707142D01*
X91285714Y-39778571D01*
X91142857Y-39778571D01*
X91000000Y-39707142D01*
X90928571Y-39635714D01*
X90857142Y-39492857D01*
X90785714Y-39207142D01*
X90785714Y-38850000D01*
X90857142Y-38564285D01*
X90928571Y-38421428D01*
X91000000Y-38350000D01*
X91142857Y-38278571D01*
X69357142Y-38221428D02*
X69428571Y-38150000D01*
X69571428Y-38078571D01*
X69928571Y-38078571D01*
X70071428Y-38150000D01*
X70142857Y-38221428D01*
X70214285Y-38364285D01*
X70214285Y-38507142D01*
X70142857Y-38721428D01*
X69285714Y-39578571D01*
X70214285Y-39578571D01*
X71142857Y-38078571D02*
X71285714Y-38078571D01*
X71428571Y-38150000D01*
X71500000Y-38221428D01*
X71571428Y-38364285D01*
X71642857Y-38650000D01*
X71642857Y-39007142D01*
X71571428Y-39292857D01*
X71500000Y-39435714D01*
X71428571Y-39507142D01*
X71285714Y-39578571D01*
X71142857Y-39578571D01*
X71000000Y-39507142D01*
X70928571Y-39435714D01*
X70857142Y-39292857D01*
X70785714Y-39007142D01*
X70785714Y-38650000D01*
X70857142Y-38364285D01*
X70928571Y-38221428D01*
X71000000Y-38150000D01*
X71142857Y-38078571D01*
X54714285Y-39778571D02*
X53857142Y-39778571D01*
X54285714Y-39778571D02*
X54285714Y-38278571D01*
X54142857Y-38492857D01*
X54000000Y-38635714D01*
X53857142Y-38707142D01*
X55642857Y-38278571D02*
X55785714Y-38278571D01*
X55928571Y-38350000D01*
X56000000Y-38421428D01*
X56071428Y-38564285D01*
X56142857Y-38850000D01*
X56142857Y-39207142D01*
X56071428Y-39492857D01*
X56000000Y-39635714D01*
X55928571Y-39707142D01*
X55785714Y-39778571D01*
X55642857Y-39778571D01*
X55500000Y-39707142D01*
X55428571Y-39635714D01*
X55357142Y-39492857D01*
X55285714Y-39207142D01*
X55285714Y-38850000D01*
X55357142Y-38564285D01*
X55428571Y-38421428D01*
X55500000Y-38350000D01*
X55642857Y-38278571D01*
D11*
X50000000Y-41000000D02*
X140000000Y-41000000D01*
X50000000Y-25000000D02*
X50000000Y-45000000D01*
D10*
X148057142Y-155678571D02*
X147342857Y-155678571D01*
X147271428Y-156392857D01*
X147342857Y-156321428D01*
X147485714Y-156250000D01*
X147842857Y-156250000D01*
X147985714Y-156321428D01*
X148057142Y-156392857D01*
X148128571Y-156535714D01*
X148128571Y-156892857D01*
X148057142Y-157035714D01*
X147985714Y-157107142D01*
X147842857Y-157178571D01*
X147485714Y-157178571D01*
X147342857Y-157107142D01*
X147271428Y-157035714D01*
D11*
X145000000Y-158100000D02*
X150000000Y-158100000D01*
D10*
X34578571Y-80800000D02*
X35578571Y-80800000D01*
X34007142Y-81157142D02*
X35078571Y-81514285D01*
X35078571Y-80585714D01*
X34078571Y-80157142D02*
X34078571Y-79157142D01*
X35578571Y-79800000D01*
X35435714Y-78585714D02*
X35507142Y-78514285D01*
X35578571Y-78585714D01*
X35507142Y-78657142D01*
X35435714Y-78585714D01*
X35578571Y-78585714D01*
X34078571Y-77157142D02*
X34078571Y-77871428D01*
X34792857Y-77942857D01*
X34721428Y-77871428D01*
X34650000Y-77728571D01*
X34650000Y-77371428D01*
X34721428Y-77228571D01*
X34792857Y-77157142D01*
X34935714Y-77085714D01*
X35292857Y-77085714D01*
X35435714Y-77157142D01*
X35507142Y-77228571D01*
X35578571Y-77371428D01*
X35578571Y-77728571D01*
X35507142Y-77871428D01*
X35435714Y-77942857D01*
X40878571Y-52342857D02*
X40878571Y-53057142D01*
X41592857Y-53128571D01*
X41521428Y-53057142D01*
X41450000Y-52914285D01*
X41450000Y-52557142D01*
X41521428Y-52414285D01*
X41592857Y-52342857D01*
X41735714Y-52271428D01*
X42092857Y-52271428D01*
X42235714Y-52342857D01*
X42307142Y-52414285D01*
X42378571Y-52557142D01*
X42378571Y-52914285D01*
X42307142Y-53057142D01*
X42235714Y-53128571D01*
D11*
X37500000Y-97500000D02*
X37500000Y-127100000D01*
X43800000Y-50000000D02*
X43800000Y-54900000D01*
X37500000Y-50000000D02*
X37500000Y-97500000D01*
X150000000Y-155000000D02*
X150000000Y-160000000D01*
X145000000Y-155000000D02*
X145000000Y-160000000D01*
X25000000Y-50000000D02*
X45000000Y-50000000D01*
X40000000Y-55000000D02*
X45000000Y-55000000D01*
D10*
X154807142Y-45178571D02*
X154807142Y-46178571D01*
X154450000Y-44607142D02*
X154092857Y-45678571D01*
X155021428Y-45678571D01*
X155450000Y-46178571D02*
X156235714Y-45178571D01*
X155450000Y-45178571D02*
X156235714Y-46178571D01*
X156664285Y-44678571D02*
X157592857Y-44678571D01*
X157092857Y-45250000D01*
X157307142Y-45250000D01*
X157450000Y-45321428D01*
X157521428Y-45392857D01*
X157592857Y-45535714D01*
X157592857Y-45892857D01*
X157521428Y-46035714D01*
X157450000Y-46107142D01*
X157307142Y-46178571D01*
X156878571Y-46178571D01*
X156735714Y-46107142D01*
X156664285Y-46035714D01*
X158235714Y-46035714D02*
X158307142Y-46107142D01*
X158235714Y-46178571D01*
X158164285Y-46107142D01*
X158235714Y-46035714D01*
X158235714Y-46178571D01*
X158878571Y-44821428D02*
X158950000Y-44750000D01*
X159092857Y-44678571D01*
X159450000Y-44678571D01*
X159592857Y-44750000D01*
X159664285Y-44821428D01*
X159735714Y-44964285D01*
X159735714Y-45107142D01*
X159664285Y-45321428D01*
X158807142Y-46178571D01*
X159735714Y-46178571D01*
X160807142Y-46178571D02*
X160807142Y-44678571D01*
X160664285Y-44892857D02*
X160950000Y-44892857D01*
X161164285Y-44964285D01*
X161307142Y-45107142D01*
X161378571Y-45250000D01*
X161378571Y-45535714D01*
X161307142Y-45678571D01*
X161164285Y-45821428D01*
X160950000Y-45892857D01*
X160664285Y-45892857D01*
X160450000Y-45821428D01*
X160307142Y-45678571D01*
X160235714Y-45535714D01*
X160235714Y-45250000D01*
X160307142Y-45107142D01*
X160450000Y-44964285D01*
X160664285Y-44892857D01*
D11*
X154000000Y-47400000D02*
X145200000Y-54600000D01*
X162500000Y-47400000D02*
X154000000Y-47400000D01*
X155000000Y-122250000D02*
X165000000Y-122250000D01*
X155000000Y-137250000D02*
X165000000Y-137250000D01*
X45000000Y-127250000D02*
X35000000Y-127250000D01*
X35000000Y-97500000D02*
X45000000Y-97500000D01*
X140000000Y-35000000D02*
X140000000Y-45000000D01*
X120000000Y-35000000D02*
X120000000Y-45000000D01*
X100000000Y-35000000D02*
X100000000Y-45000000D01*
X80000000Y-35000000D02*
X80000000Y-45000000D01*
X60000000Y-35000000D02*
X60000000Y-45000000D01*
D10*
X158735714Y-107478571D02*
X157878571Y-107478571D01*
X158307142Y-107478571D02*
X158307142Y-105978571D01*
X158164285Y-106192857D01*
X158021428Y-106335714D01*
X157878571Y-106407142D01*
X159664285Y-105978571D02*
X159807142Y-105978571D01*
X159950000Y-106050000D01*
X160021428Y-106121428D01*
X160092857Y-106264285D01*
X160164285Y-106550000D01*
X160164285Y-106907142D01*
X160092857Y-107192857D01*
X160021428Y-107335714D01*
X159950000Y-107407142D01*
X159807142Y-107478571D01*
X159664285Y-107478571D01*
X159521428Y-107407142D01*
X159450000Y-107335714D01*
X159378571Y-107192857D01*
X159307142Y-106907142D01*
X159307142Y-106550000D01*
X159378571Y-106264285D01*
X159450000Y-106121428D01*
X159521428Y-106050000D01*
X159664285Y-105978571D01*
X160664285Y-107478571D02*
X161450000Y-106478571D01*
X160664285Y-106478571D02*
X161450000Y-107478571D01*
X161878571Y-105978571D02*
X162807142Y-105978571D01*
X162307142Y-106550000D01*
X162521428Y-106550000D01*
X162664285Y-106621428D01*
X162735714Y-106692857D01*
X162807142Y-106835714D01*
X162807142Y-107192857D01*
X162735714Y-107335714D01*
X162664285Y-107407142D01*
X162521428Y-107478571D01*
X162092857Y-107478571D01*
X161950000Y-107407142D01*
X161878571Y-107335714D01*
X163450000Y-107335714D02*
X163521428Y-107407142D01*
X163450000Y-107478571D01*
X163378571Y-107407142D01*
X163450000Y-107335714D01*
X163450000Y-107478571D01*
X164378571Y-106621428D02*
X164235714Y-106550000D01*
X164164285Y-106478571D01*
X164092857Y-106335714D01*
X164092857Y-106264285D01*
X164164285Y-106121428D01*
X164235714Y-106050000D01*
X164378571Y-105978571D01*
X164664285Y-105978571D01*
X164807142Y-106050000D01*
X164878571Y-106121428D01*
X164950000Y-106264285D01*
X164950000Y-106335714D01*
X164878571Y-106478571D01*
X164807142Y-106550000D01*
X164664285Y-106621428D01*
X164378571Y-106621428D01*
X164235714Y-106692857D01*
X164164285Y-106764285D01*
X164092857Y-106907142D01*
X164092857Y-107192857D01*
X164164285Y-107335714D01*
X164235714Y-107407142D01*
X164378571Y-107478571D01*
X164664285Y-107478571D01*
X164807142Y-107407142D01*
X164878571Y-107335714D01*
X164950000Y-107192857D01*
X164950000Y-106907142D01*
X164878571Y-106764285D01*
X164807142Y-106692857D01*
X164664285Y-106621428D01*
X166021428Y-107478571D02*
X166021428Y-105978571D01*
X165878571Y-106192857D02*
X166164285Y-106192857D01*
X166378571Y-106264285D01*
X166521428Y-106407142D01*
X166592857Y-106550000D01*
X166592857Y-106835714D01*
X166521428Y-106978571D01*
X166378571Y-107121428D01*
X166164285Y-107192857D01*
X165878571Y-107192857D01*
X165664285Y-107121428D01*
X165521428Y-106978571D01*
X165450000Y-106835714D01*
X165450000Y-106550000D01*
X165521428Y-106407142D01*
X165664285Y-106264285D01*
X165878571Y-106192857D01*
D11*
X154600000Y-108700000D02*
X139500000Y-121200000D01*
X172200000Y-108700000D02*
X154600000Y-108700000D01*
D10*
X158178571Y-80478571D02*
X157892857Y-80478571D01*
X157750000Y-80550000D01*
X157678571Y-80621428D01*
X157535714Y-80835714D01*
X157464285Y-81121428D01*
X157464285Y-81692857D01*
X157535714Y-81835714D01*
X157607142Y-81907142D01*
X157750000Y-81978571D01*
X158035714Y-81978571D01*
X158178571Y-81907142D01*
X158250000Y-81835714D01*
X158321428Y-81692857D01*
X158321428Y-81335714D01*
X158250000Y-81192857D01*
X158178571Y-81121428D01*
X158035714Y-81050000D01*
X157750000Y-81050000D01*
X157607142Y-81121428D01*
X157535714Y-81192857D01*
X157464285Y-81335714D01*
X158821428Y-81978571D02*
X159607142Y-80978571D01*
X158821428Y-80978571D02*
X159607142Y-81978571D01*
X160392857Y-81121428D02*
X160250000Y-81050000D01*
X160178571Y-80978571D01*
X160107142Y-80835714D01*
X160107142Y-80764285D01*
X160178571Y-80621428D01*
X160250000Y-80550000D01*
X160392857Y-80478571D01*
X160678571Y-80478571D01*
X160821428Y-80550000D01*
X160892857Y-80621428D01*
X160964285Y-80764285D01*
X160964285Y-80835714D01*
X160892857Y-80978571D01*
X160821428Y-81050000D01*
X160678571Y-81121428D01*
X160392857Y-81121428D01*
X160250000Y-81192857D01*
X160178571Y-81264285D01*
X160107142Y-81407142D01*
X160107142Y-81692857D01*
X160178571Y-81835714D01*
X160250000Y-81907142D01*
X160392857Y-81978571D01*
X160678571Y-81978571D01*
X160821428Y-81907142D01*
X160892857Y-81835714D01*
X160964285Y-81692857D01*
X160964285Y-81407142D01*
X160892857Y-81264285D01*
X160821428Y-81192857D01*
X160678571Y-81121428D01*
X162035714Y-81978571D02*
X162035714Y-80478571D01*
X161892857Y-80692857D02*
X162178571Y-80692857D01*
X162392857Y-80764285D01*
X162535714Y-80907142D01*
X162607142Y-81050000D01*
X162607142Y-81335714D01*
X162535714Y-81478571D01*
X162392857Y-81621428D01*
X162178571Y-81692857D01*
X161892857Y-81692857D01*
X161678571Y-81621428D01*
X161535714Y-81478571D01*
X161464285Y-81335714D01*
X161464285Y-81050000D01*
X161535714Y-80907142D01*
X161678571Y-80764285D01*
X161892857Y-80692857D01*
D11*
X154200000Y-83000000D02*
X142700000Y-94600000D01*
X168900000Y-83000000D02*
X154200000Y-83000000D01*
X140150000Y-137250000D02*
G75*
G03X140150000Y-137250000I-1900000J0D01*
G01*
X140150000Y-122250000D02*
G75*
G03X140150000Y-122250000I-1900000J0D01*
G01*
X125150000Y-137250000D02*
G75*
G03X125150000Y-137250000I-1900000J0D01*
G01*
X125250000Y-122250000D02*
G75*
G03X125250000Y-122250000I-1900000J0D01*
G01*
X110150000Y-137250000D02*
G75*
G03X110150000Y-137250000I-1900000J0D01*
G01*
X110150000Y-122250000D02*
G75*
G03X110150000Y-122250000I-1900000J0D01*
G01*
X95150000Y-137250000D02*
G75*
G03X95150000Y-137250000I-1900000J0D01*
G01*
X95050000Y-122250000D02*
G75*
G03X95050000Y-122250000I-1900000J0D01*
G01*
X80150000Y-137250000D02*
G75*
G03X80150000Y-137250000I-1900000J0D01*
G01*
X80150000Y-122250000D02*
G75*
G03X80150000Y-122250000I-1900000J0D01*
G01*
X64000000Y-127500000D02*
G75*
G03X64000000Y-127500000I-4000000J0D01*
G01*
X144000000Y-97500000D02*
G75*
G03X144000000Y-97500000I-4000000J0D01*
G01*
X124000000Y-97500000D02*
G75*
G03X124000000Y-97500000I-4000000J0D01*
G01*
X104000000Y-97500000D02*
G75*
G03X104000000Y-97500000I-4000000J0D01*
G01*
X84000000Y-97500000D02*
G75*
G03X84000000Y-97500000I-4000000J0D01*
G01*
X64000000Y-97500000D02*
G75*
G03X64000000Y-97500000I-4000000J0D01*
G01*
X138250000Y-115000000D02*
X138250000Y-145000000D01*
X123250000Y-115000000D02*
X123250000Y-145000000D01*
X108250000Y-115000000D02*
X108250000Y-145000000D01*
X93250000Y-115000000D02*
X93250000Y-145000000D01*
X78250000Y-115000000D02*
X78250000Y-145000000D01*
X60000000Y-100000000D02*
X60000000Y-132500000D01*
X55000000Y-127500000D02*
X65000000Y-127500000D01*
X70000000Y-122250000D02*
X145000000Y-122250000D01*
X70000000Y-137250000D02*
X145000000Y-137250000D01*
X140000000Y-92500000D02*
X140000000Y-102500000D01*
X120000000Y-92500000D02*
X120000000Y-102500000D01*
X100000000Y-92500000D02*
X100000000Y-102500000D01*
X80000000Y-92500000D02*
X80000000Y-102500000D01*
X60000000Y-92500000D02*
X60000000Y-102500000D01*
X55000000Y-97500000D02*
X145000000Y-97500000D01*
X56600000Y-145000000D02*
G75*
G03X56600000Y-145000000I-1600000J0D01*
G01*
X146600000Y-145000000D02*
G75*
G03X146600000Y-145000000I-1600000J0D01*
G01*
X146523155Y-55000000D02*
G75*
G03X146523155Y-55000000I-1523155J0D01*
G01*
X56600000Y-55000000D02*
G75*
G03X56600000Y-55000000I-1600000J0D01*
G01*
X50000000Y-50000000D02*
X50000000Y-150000000D01*
X50000000Y-150000000D02*
X150000000Y-150000000D01*
X150000000Y-50000000D02*
X150000000Y-150000000D01*
X50000000Y-50000000D02*
X150000000Y-50000000D01*
M02*
