M48
; DRILL file {KiCad (5.1.2)-1} date 2019/08/13 23:38:27
; FORMAT={-:-/ absolute / inch / decimal}
; #@! TF.CreationDate,2019-08-13T23:38:27+09:00
; #@! TF.GenerationSoftware,Kicad,Pcbnew,(5.1.2)-1
; #@! TF.FileFunction,NonPlated,1,2,NPTH
FMAT,2
INCH
T1C0.0256
T2C0.0630
T3C0.0827
T4C0.1260
%
G90
G05
T1
X4.4488Y-2.3043
X4.6063Y-2.3043
T3
X2.9528Y-5.2165
X5.315Y-4.0354
X4.5276Y-4.0354
X3.7402Y-4.0354
X6.1024Y-4.0354
X2.9528Y-4.0354
T4
X2.7559Y-5.9055
X6.2992Y-5.9055
X2.7559Y-2.3622
X6.2992Y-2.3622
T2
G00X6.1024Y-4.2244
M15
G01X6.1024Y-4.2008
M16
G05
G00X2.9528Y-4.2244
M15
G01X2.9528Y-4.2008
M16
G05
G00X2.9528Y-5.4055
M15
G01X2.9528Y-5.3819
M16
G05
G00X5.315Y-4.2244
M15
G01X5.315Y-4.2008
M16
G05
G00X4.5276Y-4.2244
M15
G01X4.5276Y-4.2008
M16
G05
G00X3.7402Y-4.2244
M15
G01X3.7402Y-4.2008
M16
G05
T0
M30
