G04 #@! TF.GenerationSoftware,KiCad,Pcbnew,(5.1.2)-1*
G04 #@! TF.CreationDate,2019-08-13T23:38:33+09:00*
G04 #@! TF.ProjectId,LrE-6,4c72452d-362e-46b6-9963-61645f706362,rev?*
G04 #@! TF.SameCoordinates,Original*
G04 #@! TF.FileFunction,Soldermask,Bot*
G04 #@! TF.FilePolarity,Negative*
%FSLAX46Y46*%
G04 Gerber Fmt 4.6, Leading zero omitted, Abs format (unit mm)*
G04 Created by KiCad (PCBNEW (5.1.2)-1) date 2019-08-13 23:38:33*
%MOMM*%
%LPD*%
G04 APERTURE LIST*
%ADD10C,0.100000*%
G04 APERTURE END LIST*
D10*
G36*
X160375256Y-148391298D02*
G01*
X160481579Y-148412447D01*
X160782042Y-148536903D01*
X161052451Y-148717585D01*
X161282415Y-148947549D01*
X161463097Y-149217958D01*
X161587553Y-149518421D01*
X161651000Y-149837391D01*
X161651000Y-150162609D01*
X161587553Y-150481579D01*
X161463097Y-150782042D01*
X161282415Y-151052451D01*
X161052451Y-151282415D01*
X160782042Y-151463097D01*
X160481579Y-151587553D01*
X160375256Y-151608702D01*
X160162611Y-151651000D01*
X159837389Y-151651000D01*
X159624744Y-151608702D01*
X159518421Y-151587553D01*
X159217958Y-151463097D01*
X158947549Y-151282415D01*
X158717585Y-151052451D01*
X158536903Y-150782042D01*
X158412447Y-150481579D01*
X158349000Y-150162609D01*
X158349000Y-149837391D01*
X158412447Y-149518421D01*
X158536903Y-149217958D01*
X158717585Y-148947549D01*
X158947549Y-148717585D01*
X159217958Y-148536903D01*
X159518421Y-148412447D01*
X159624744Y-148391298D01*
X159837389Y-148349000D01*
X160162611Y-148349000D01*
X160375256Y-148391298D01*
X160375256Y-148391298D01*
G37*
G36*
X70375256Y-148391298D02*
G01*
X70481579Y-148412447D01*
X70782042Y-148536903D01*
X71052451Y-148717585D01*
X71282415Y-148947549D01*
X71463097Y-149217958D01*
X71587553Y-149518421D01*
X71651000Y-149837391D01*
X71651000Y-150162609D01*
X71587553Y-150481579D01*
X71463097Y-150782042D01*
X71282415Y-151052451D01*
X71052451Y-151282415D01*
X70782042Y-151463097D01*
X70481579Y-151587553D01*
X70375256Y-151608702D01*
X70162611Y-151651000D01*
X69837389Y-151651000D01*
X69624744Y-151608702D01*
X69518421Y-151587553D01*
X69217958Y-151463097D01*
X68947549Y-151282415D01*
X68717585Y-151052451D01*
X68536903Y-150782042D01*
X68412447Y-150481579D01*
X68349000Y-150162609D01*
X68349000Y-149837391D01*
X68412447Y-149518421D01*
X68536903Y-149217958D01*
X68717585Y-148947549D01*
X68947549Y-148717585D01*
X69217958Y-148536903D01*
X69518421Y-148412447D01*
X69624744Y-148391298D01*
X69837389Y-148349000D01*
X70162611Y-148349000D01*
X70375256Y-148391298D01*
X70375256Y-148391298D01*
G37*
G36*
X153801000Y-148021000D02*
G01*
X152799000Y-148021000D01*
X152799000Y-146719000D01*
X153801000Y-146719000D01*
X153801000Y-148021000D01*
X153801000Y-148021000D01*
G37*
G36*
X150501000Y-148021000D02*
G01*
X149499000Y-148021000D01*
X149499000Y-146719000D01*
X150501000Y-146719000D01*
X150501000Y-148021000D01*
X150501000Y-148021000D01*
G37*
G36*
X93711000Y-148001000D02*
G01*
X92709000Y-148001000D01*
X92709000Y-146699000D01*
X93711000Y-146699000D01*
X93711000Y-148001000D01*
X93711000Y-148001000D01*
G37*
G36*
X97011000Y-148001000D02*
G01*
X96009000Y-148001000D01*
X96009000Y-146699000D01*
X97011000Y-146699000D01*
X97011000Y-148001000D01*
X97011000Y-148001000D01*
G37*
G36*
X123801000Y-147971000D02*
G01*
X122799000Y-147971000D01*
X122799000Y-146669000D01*
X123801000Y-146669000D01*
X123801000Y-147971000D01*
X123801000Y-147971000D01*
G37*
G36*
X127101000Y-147971000D02*
G01*
X126099000Y-147971000D01*
X126099000Y-146669000D01*
X127101000Y-146669000D01*
X127101000Y-147971000D01*
X127101000Y-147971000D01*
G37*
G36*
X112001000Y-147951000D02*
G01*
X110999000Y-147951000D01*
X110999000Y-146649000D01*
X112001000Y-146649000D01*
X112001000Y-147951000D01*
X112001000Y-147951000D01*
G37*
G36*
X108701000Y-147951000D02*
G01*
X107699000Y-147951000D01*
X107699000Y-146649000D01*
X108701000Y-146649000D01*
X108701000Y-147951000D01*
X108701000Y-147951000D01*
G37*
G36*
X142061000Y-147921000D02*
G01*
X141059000Y-147921000D01*
X141059000Y-146619000D01*
X142061000Y-146619000D01*
X142061000Y-147921000D01*
X142061000Y-147921000D01*
G37*
G36*
X138761000Y-147921000D02*
G01*
X137759000Y-147921000D01*
X137759000Y-146619000D01*
X138761000Y-146619000D01*
X138761000Y-147921000D01*
X138761000Y-147921000D01*
G37*
G36*
X105306564Y-143489389D02*
G01*
X105497833Y-143568615D01*
X105497835Y-143568616D01*
X105669973Y-143683635D01*
X105816365Y-143830027D01*
X105931385Y-144002167D01*
X106010611Y-144193436D01*
X106051000Y-144396484D01*
X106051000Y-144603516D01*
X106010611Y-144806564D01*
X105931385Y-144997833D01*
X105931384Y-144997835D01*
X105816365Y-145169973D01*
X105669973Y-145316365D01*
X105497835Y-145431384D01*
X105497834Y-145431385D01*
X105497833Y-145431385D01*
X105306564Y-145510611D01*
X105103516Y-145551000D01*
X104896484Y-145551000D01*
X104693436Y-145510611D01*
X104502167Y-145431385D01*
X104502166Y-145431385D01*
X104502165Y-145431384D01*
X104330027Y-145316365D01*
X104183635Y-145169973D01*
X104068616Y-144997835D01*
X104068615Y-144997833D01*
X103989389Y-144806564D01*
X103949000Y-144603516D01*
X103949000Y-144396484D01*
X103989389Y-144193436D01*
X104068615Y-144002167D01*
X104183635Y-143830027D01*
X104330027Y-143683635D01*
X104502165Y-143568616D01*
X104502167Y-143568615D01*
X104693436Y-143489389D01*
X104896484Y-143449000D01*
X105103516Y-143449000D01*
X105306564Y-143489389D01*
X105306564Y-143489389D01*
G37*
G36*
X96806564Y-143489389D02*
G01*
X96997833Y-143568615D01*
X96997835Y-143568616D01*
X97169973Y-143683635D01*
X97316365Y-143830027D01*
X97431385Y-144002167D01*
X97510611Y-144193436D01*
X97551000Y-144396484D01*
X97551000Y-144603516D01*
X97510611Y-144806564D01*
X97431385Y-144997833D01*
X97431384Y-144997835D01*
X97316365Y-145169973D01*
X97169973Y-145316365D01*
X96997835Y-145431384D01*
X96997834Y-145431385D01*
X96997833Y-145431385D01*
X96806564Y-145510611D01*
X96603516Y-145551000D01*
X96396484Y-145551000D01*
X96193436Y-145510611D01*
X96002167Y-145431385D01*
X96002166Y-145431385D01*
X96002165Y-145431384D01*
X95830027Y-145316365D01*
X95683635Y-145169973D01*
X95568616Y-144997835D01*
X95568615Y-144997833D01*
X95489389Y-144806564D01*
X95449000Y-144603516D01*
X95449000Y-144396484D01*
X95489389Y-144193436D01*
X95568615Y-144002167D01*
X95683635Y-143830027D01*
X95830027Y-143683635D01*
X96002165Y-143568616D01*
X96002167Y-143568615D01*
X96193436Y-143489389D01*
X96396484Y-143449000D01*
X96603516Y-143449000D01*
X96806564Y-143489389D01*
X96806564Y-143489389D01*
G37*
G36*
X90306564Y-143489389D02*
G01*
X90497833Y-143568615D01*
X90497835Y-143568616D01*
X90669973Y-143683635D01*
X90816365Y-143830027D01*
X90931385Y-144002167D01*
X91010611Y-144193436D01*
X91051000Y-144396484D01*
X91051000Y-144603516D01*
X91010611Y-144806564D01*
X90931385Y-144997833D01*
X90931384Y-144997835D01*
X90816365Y-145169973D01*
X90669973Y-145316365D01*
X90497835Y-145431384D01*
X90497834Y-145431385D01*
X90497833Y-145431385D01*
X90306564Y-145510611D01*
X90103516Y-145551000D01*
X89896484Y-145551000D01*
X89693436Y-145510611D01*
X89502167Y-145431385D01*
X89502166Y-145431385D01*
X89502165Y-145431384D01*
X89330027Y-145316365D01*
X89183635Y-145169973D01*
X89068616Y-144997835D01*
X89068615Y-144997833D01*
X88989389Y-144806564D01*
X88949000Y-144603516D01*
X88949000Y-144396484D01*
X88989389Y-144193436D01*
X89068615Y-144002167D01*
X89183635Y-143830027D01*
X89330027Y-143683635D01*
X89502165Y-143568616D01*
X89502167Y-143568615D01*
X89693436Y-143489389D01*
X89896484Y-143449000D01*
X90103516Y-143449000D01*
X90306564Y-143489389D01*
X90306564Y-143489389D01*
G37*
G36*
X111806564Y-143489389D02*
G01*
X111997833Y-143568615D01*
X111997835Y-143568616D01*
X112169973Y-143683635D01*
X112316365Y-143830027D01*
X112431385Y-144002167D01*
X112510611Y-144193436D01*
X112551000Y-144396484D01*
X112551000Y-144603516D01*
X112510611Y-144806564D01*
X112431385Y-144997833D01*
X112431384Y-144997835D01*
X112316365Y-145169973D01*
X112169973Y-145316365D01*
X111997835Y-145431384D01*
X111997834Y-145431385D01*
X111997833Y-145431385D01*
X111806564Y-145510611D01*
X111603516Y-145551000D01*
X111396484Y-145551000D01*
X111193436Y-145510611D01*
X111002167Y-145431385D01*
X111002166Y-145431385D01*
X111002165Y-145431384D01*
X110830027Y-145316365D01*
X110683635Y-145169973D01*
X110568616Y-144997835D01*
X110568615Y-144997833D01*
X110489389Y-144806564D01*
X110449000Y-144603516D01*
X110449000Y-144396484D01*
X110489389Y-144193436D01*
X110568615Y-144002167D01*
X110683635Y-143830027D01*
X110830027Y-143683635D01*
X111002165Y-143568616D01*
X111002167Y-143568615D01*
X111193436Y-143489389D01*
X111396484Y-143449000D01*
X111603516Y-143449000D01*
X111806564Y-143489389D01*
X111806564Y-143489389D01*
G37*
G36*
X150306564Y-143489389D02*
G01*
X150497833Y-143568615D01*
X150497835Y-143568616D01*
X150669973Y-143683635D01*
X150816365Y-143830027D01*
X150931385Y-144002167D01*
X151010611Y-144193436D01*
X151051000Y-144396484D01*
X151051000Y-144603516D01*
X151010611Y-144806564D01*
X150931385Y-144997833D01*
X150931384Y-144997835D01*
X150816365Y-145169973D01*
X150669973Y-145316365D01*
X150497835Y-145431384D01*
X150497834Y-145431385D01*
X150497833Y-145431385D01*
X150306564Y-145510611D01*
X150103516Y-145551000D01*
X149896484Y-145551000D01*
X149693436Y-145510611D01*
X149502167Y-145431385D01*
X149502166Y-145431385D01*
X149502165Y-145431384D01*
X149330027Y-145316365D01*
X149183635Y-145169973D01*
X149068616Y-144997835D01*
X149068615Y-144997833D01*
X148989389Y-144806564D01*
X148949000Y-144603516D01*
X148949000Y-144396484D01*
X148989389Y-144193436D01*
X149068615Y-144002167D01*
X149183635Y-143830027D01*
X149330027Y-143683635D01*
X149502165Y-143568616D01*
X149502167Y-143568615D01*
X149693436Y-143489389D01*
X149896484Y-143449000D01*
X150103516Y-143449000D01*
X150306564Y-143489389D01*
X150306564Y-143489389D01*
G37*
G36*
X141806564Y-143489389D02*
G01*
X141997833Y-143568615D01*
X141997835Y-143568616D01*
X142169973Y-143683635D01*
X142316365Y-143830027D01*
X142431385Y-144002167D01*
X142510611Y-144193436D01*
X142551000Y-144396484D01*
X142551000Y-144603516D01*
X142510611Y-144806564D01*
X142431385Y-144997833D01*
X142431384Y-144997835D01*
X142316365Y-145169973D01*
X142169973Y-145316365D01*
X141997835Y-145431384D01*
X141997834Y-145431385D01*
X141997833Y-145431385D01*
X141806564Y-145510611D01*
X141603516Y-145551000D01*
X141396484Y-145551000D01*
X141193436Y-145510611D01*
X141002167Y-145431385D01*
X141002166Y-145431385D01*
X141002165Y-145431384D01*
X140830027Y-145316365D01*
X140683635Y-145169973D01*
X140568616Y-144997835D01*
X140568615Y-144997833D01*
X140489389Y-144806564D01*
X140449000Y-144603516D01*
X140449000Y-144396484D01*
X140489389Y-144193436D01*
X140568615Y-144002167D01*
X140683635Y-143830027D01*
X140830027Y-143683635D01*
X141002165Y-143568616D01*
X141002167Y-143568615D01*
X141193436Y-143489389D01*
X141396484Y-143449000D01*
X141603516Y-143449000D01*
X141806564Y-143489389D01*
X141806564Y-143489389D01*
G37*
G36*
X135306564Y-143489389D02*
G01*
X135497833Y-143568615D01*
X135497835Y-143568616D01*
X135669973Y-143683635D01*
X135816365Y-143830027D01*
X135931385Y-144002167D01*
X136010611Y-144193436D01*
X136051000Y-144396484D01*
X136051000Y-144603516D01*
X136010611Y-144806564D01*
X135931385Y-144997833D01*
X135931384Y-144997835D01*
X135816365Y-145169973D01*
X135669973Y-145316365D01*
X135497835Y-145431384D01*
X135497834Y-145431385D01*
X135497833Y-145431385D01*
X135306564Y-145510611D01*
X135103516Y-145551000D01*
X134896484Y-145551000D01*
X134693436Y-145510611D01*
X134502167Y-145431385D01*
X134502166Y-145431385D01*
X134502165Y-145431384D01*
X134330027Y-145316365D01*
X134183635Y-145169973D01*
X134068616Y-144997835D01*
X134068615Y-144997833D01*
X133989389Y-144806564D01*
X133949000Y-144603516D01*
X133949000Y-144396484D01*
X133989389Y-144193436D01*
X134068615Y-144002167D01*
X134183635Y-143830027D01*
X134330027Y-143683635D01*
X134502165Y-143568616D01*
X134502167Y-143568615D01*
X134693436Y-143489389D01*
X134896484Y-143449000D01*
X135103516Y-143449000D01*
X135306564Y-143489389D01*
X135306564Y-143489389D01*
G37*
G36*
X120306564Y-143489389D02*
G01*
X120497833Y-143568615D01*
X120497835Y-143568616D01*
X120669973Y-143683635D01*
X120816365Y-143830027D01*
X120931385Y-144002167D01*
X121010611Y-144193436D01*
X121051000Y-144396484D01*
X121051000Y-144603516D01*
X121010611Y-144806564D01*
X120931385Y-144997833D01*
X120931384Y-144997835D01*
X120816365Y-145169973D01*
X120669973Y-145316365D01*
X120497835Y-145431384D01*
X120497834Y-145431385D01*
X120497833Y-145431385D01*
X120306564Y-145510611D01*
X120103516Y-145551000D01*
X119896484Y-145551000D01*
X119693436Y-145510611D01*
X119502167Y-145431385D01*
X119502166Y-145431385D01*
X119502165Y-145431384D01*
X119330027Y-145316365D01*
X119183635Y-145169973D01*
X119068616Y-144997835D01*
X119068615Y-144997833D01*
X118989389Y-144806564D01*
X118949000Y-144603516D01*
X118949000Y-144396484D01*
X118989389Y-144193436D01*
X119068615Y-144002167D01*
X119183635Y-143830027D01*
X119330027Y-143683635D01*
X119502165Y-143568616D01*
X119502167Y-143568615D01*
X119693436Y-143489389D01*
X119896484Y-143449000D01*
X120103516Y-143449000D01*
X120306564Y-143489389D01*
X120306564Y-143489389D01*
G37*
G36*
X126806564Y-143489389D02*
G01*
X126997833Y-143568615D01*
X126997835Y-143568616D01*
X127169973Y-143683635D01*
X127316365Y-143830027D01*
X127431385Y-144002167D01*
X127510611Y-144193436D01*
X127551000Y-144396484D01*
X127551000Y-144603516D01*
X127510611Y-144806564D01*
X127431385Y-144997833D01*
X127431384Y-144997835D01*
X127316365Y-145169973D01*
X127169973Y-145316365D01*
X126997835Y-145431384D01*
X126997834Y-145431385D01*
X126997833Y-145431385D01*
X126806564Y-145510611D01*
X126603516Y-145551000D01*
X126396484Y-145551000D01*
X126193436Y-145510611D01*
X126002167Y-145431385D01*
X126002166Y-145431385D01*
X126002165Y-145431384D01*
X125830027Y-145316365D01*
X125683635Y-145169973D01*
X125568616Y-144997835D01*
X125568615Y-144997833D01*
X125489389Y-144806564D01*
X125449000Y-144603516D01*
X125449000Y-144396484D01*
X125489389Y-144193436D01*
X125568615Y-144002167D01*
X125683635Y-143830027D01*
X125830027Y-143683635D01*
X126002165Y-143568616D01*
X126002167Y-143568615D01*
X126193436Y-143489389D01*
X126396484Y-143449000D01*
X126603516Y-143449000D01*
X126806564Y-143489389D01*
X126806564Y-143489389D01*
G37*
G36*
X156806564Y-143489389D02*
G01*
X156997833Y-143568615D01*
X156997835Y-143568616D01*
X157169973Y-143683635D01*
X157316365Y-143830027D01*
X157431385Y-144002167D01*
X157510611Y-144193436D01*
X157551000Y-144396484D01*
X157551000Y-144603516D01*
X157510611Y-144806564D01*
X157431385Y-144997833D01*
X157431384Y-144997835D01*
X157316365Y-145169973D01*
X157169973Y-145316365D01*
X156997835Y-145431384D01*
X156997834Y-145431385D01*
X156997833Y-145431385D01*
X156806564Y-145510611D01*
X156603516Y-145551000D01*
X156396484Y-145551000D01*
X156193436Y-145510611D01*
X156002167Y-145431385D01*
X156002166Y-145431385D01*
X156002165Y-145431384D01*
X155830027Y-145316365D01*
X155683635Y-145169973D01*
X155568616Y-144997835D01*
X155568615Y-144997833D01*
X155489389Y-144806564D01*
X155449000Y-144603516D01*
X155449000Y-144396484D01*
X155489389Y-144193436D01*
X155568615Y-144002167D01*
X155683635Y-143830027D01*
X155830027Y-143683635D01*
X156002165Y-143568616D01*
X156002167Y-143568615D01*
X156193436Y-143489389D01*
X156396484Y-143449000D01*
X156603516Y-143449000D01*
X156806564Y-143489389D01*
X156806564Y-143489389D01*
G37*
G36*
X126806564Y-138989389D02*
G01*
X126997833Y-139068615D01*
X126997835Y-139068616D01*
X127169973Y-139183635D01*
X127316365Y-139330027D01*
X127431385Y-139502167D01*
X127510611Y-139693436D01*
X127551000Y-139896484D01*
X127551000Y-140103516D01*
X127510611Y-140306564D01*
X127431385Y-140497833D01*
X127431384Y-140497835D01*
X127316365Y-140669973D01*
X127169973Y-140816365D01*
X126997835Y-140931384D01*
X126997834Y-140931385D01*
X126997833Y-140931385D01*
X126806564Y-141010611D01*
X126603516Y-141051000D01*
X126396484Y-141051000D01*
X126193436Y-141010611D01*
X126002167Y-140931385D01*
X126002166Y-140931385D01*
X126002165Y-140931384D01*
X125830027Y-140816365D01*
X125683635Y-140669973D01*
X125568616Y-140497835D01*
X125568615Y-140497833D01*
X125489389Y-140306564D01*
X125449000Y-140103516D01*
X125449000Y-139896484D01*
X125489389Y-139693436D01*
X125568615Y-139502167D01*
X125683635Y-139330027D01*
X125830027Y-139183635D01*
X126002165Y-139068616D01*
X126002167Y-139068615D01*
X126193436Y-138989389D01*
X126396484Y-138949000D01*
X126603516Y-138949000D01*
X126806564Y-138989389D01*
X126806564Y-138989389D01*
G37*
G36*
X105306564Y-138989389D02*
G01*
X105497833Y-139068615D01*
X105497835Y-139068616D01*
X105669973Y-139183635D01*
X105816365Y-139330027D01*
X105931385Y-139502167D01*
X106010611Y-139693436D01*
X106051000Y-139896484D01*
X106051000Y-140103516D01*
X106010611Y-140306564D01*
X105931385Y-140497833D01*
X105931384Y-140497835D01*
X105816365Y-140669973D01*
X105669973Y-140816365D01*
X105497835Y-140931384D01*
X105497834Y-140931385D01*
X105497833Y-140931385D01*
X105306564Y-141010611D01*
X105103516Y-141051000D01*
X104896484Y-141051000D01*
X104693436Y-141010611D01*
X104502167Y-140931385D01*
X104502166Y-140931385D01*
X104502165Y-140931384D01*
X104330027Y-140816365D01*
X104183635Y-140669973D01*
X104068616Y-140497835D01*
X104068615Y-140497833D01*
X103989389Y-140306564D01*
X103949000Y-140103516D01*
X103949000Y-139896484D01*
X103989389Y-139693436D01*
X104068615Y-139502167D01*
X104183635Y-139330027D01*
X104330027Y-139183635D01*
X104502165Y-139068616D01*
X104502167Y-139068615D01*
X104693436Y-138989389D01*
X104896484Y-138949000D01*
X105103516Y-138949000D01*
X105306564Y-138989389D01*
X105306564Y-138989389D01*
G37*
G36*
X111806564Y-138989389D02*
G01*
X111997833Y-139068615D01*
X111997835Y-139068616D01*
X112169973Y-139183635D01*
X112316365Y-139330027D01*
X112431385Y-139502167D01*
X112510611Y-139693436D01*
X112551000Y-139896484D01*
X112551000Y-140103516D01*
X112510611Y-140306564D01*
X112431385Y-140497833D01*
X112431384Y-140497835D01*
X112316365Y-140669973D01*
X112169973Y-140816365D01*
X111997835Y-140931384D01*
X111997834Y-140931385D01*
X111997833Y-140931385D01*
X111806564Y-141010611D01*
X111603516Y-141051000D01*
X111396484Y-141051000D01*
X111193436Y-141010611D01*
X111002167Y-140931385D01*
X111002166Y-140931385D01*
X111002165Y-140931384D01*
X110830027Y-140816365D01*
X110683635Y-140669973D01*
X110568616Y-140497835D01*
X110568615Y-140497833D01*
X110489389Y-140306564D01*
X110449000Y-140103516D01*
X110449000Y-139896484D01*
X110489389Y-139693436D01*
X110568615Y-139502167D01*
X110683635Y-139330027D01*
X110830027Y-139183635D01*
X111002165Y-139068616D01*
X111002167Y-139068615D01*
X111193436Y-138989389D01*
X111396484Y-138949000D01*
X111603516Y-138949000D01*
X111806564Y-138989389D01*
X111806564Y-138989389D01*
G37*
G36*
X90306564Y-138989389D02*
G01*
X90497833Y-139068615D01*
X90497835Y-139068616D01*
X90669973Y-139183635D01*
X90816365Y-139330027D01*
X90931385Y-139502167D01*
X91010611Y-139693436D01*
X91051000Y-139896484D01*
X91051000Y-140103516D01*
X91010611Y-140306564D01*
X90931385Y-140497833D01*
X90931384Y-140497835D01*
X90816365Y-140669973D01*
X90669973Y-140816365D01*
X90497835Y-140931384D01*
X90497834Y-140931385D01*
X90497833Y-140931385D01*
X90306564Y-141010611D01*
X90103516Y-141051000D01*
X89896484Y-141051000D01*
X89693436Y-141010611D01*
X89502167Y-140931385D01*
X89502166Y-140931385D01*
X89502165Y-140931384D01*
X89330027Y-140816365D01*
X89183635Y-140669973D01*
X89068616Y-140497835D01*
X89068615Y-140497833D01*
X88989389Y-140306564D01*
X88949000Y-140103516D01*
X88949000Y-139896484D01*
X88989389Y-139693436D01*
X89068615Y-139502167D01*
X89183635Y-139330027D01*
X89330027Y-139183635D01*
X89502165Y-139068616D01*
X89502167Y-139068615D01*
X89693436Y-138989389D01*
X89896484Y-138949000D01*
X90103516Y-138949000D01*
X90306564Y-138989389D01*
X90306564Y-138989389D01*
G37*
G36*
X96806564Y-138989389D02*
G01*
X96997833Y-139068615D01*
X96997835Y-139068616D01*
X97169973Y-139183635D01*
X97316365Y-139330027D01*
X97431385Y-139502167D01*
X97510611Y-139693436D01*
X97551000Y-139896484D01*
X97551000Y-140103516D01*
X97510611Y-140306564D01*
X97431385Y-140497833D01*
X97431384Y-140497835D01*
X97316365Y-140669973D01*
X97169973Y-140816365D01*
X96997835Y-140931384D01*
X96997834Y-140931385D01*
X96997833Y-140931385D01*
X96806564Y-141010611D01*
X96603516Y-141051000D01*
X96396484Y-141051000D01*
X96193436Y-141010611D01*
X96002167Y-140931385D01*
X96002166Y-140931385D01*
X96002165Y-140931384D01*
X95830027Y-140816365D01*
X95683635Y-140669973D01*
X95568616Y-140497835D01*
X95568615Y-140497833D01*
X95489389Y-140306564D01*
X95449000Y-140103516D01*
X95449000Y-139896484D01*
X95489389Y-139693436D01*
X95568615Y-139502167D01*
X95683635Y-139330027D01*
X95830027Y-139183635D01*
X96002165Y-139068616D01*
X96002167Y-139068615D01*
X96193436Y-138989389D01*
X96396484Y-138949000D01*
X96603516Y-138949000D01*
X96806564Y-138989389D01*
X96806564Y-138989389D01*
G37*
G36*
X135306564Y-138989389D02*
G01*
X135497833Y-139068615D01*
X135497835Y-139068616D01*
X135669973Y-139183635D01*
X135816365Y-139330027D01*
X135931385Y-139502167D01*
X136010611Y-139693436D01*
X136051000Y-139896484D01*
X136051000Y-140103516D01*
X136010611Y-140306564D01*
X135931385Y-140497833D01*
X135931384Y-140497835D01*
X135816365Y-140669973D01*
X135669973Y-140816365D01*
X135497835Y-140931384D01*
X135497834Y-140931385D01*
X135497833Y-140931385D01*
X135306564Y-141010611D01*
X135103516Y-141051000D01*
X134896484Y-141051000D01*
X134693436Y-141010611D01*
X134502167Y-140931385D01*
X134502166Y-140931385D01*
X134502165Y-140931384D01*
X134330027Y-140816365D01*
X134183635Y-140669973D01*
X134068616Y-140497835D01*
X134068615Y-140497833D01*
X133989389Y-140306564D01*
X133949000Y-140103516D01*
X133949000Y-139896484D01*
X133989389Y-139693436D01*
X134068615Y-139502167D01*
X134183635Y-139330027D01*
X134330027Y-139183635D01*
X134502165Y-139068616D01*
X134502167Y-139068615D01*
X134693436Y-138989389D01*
X134896484Y-138949000D01*
X135103516Y-138949000D01*
X135306564Y-138989389D01*
X135306564Y-138989389D01*
G37*
G36*
X141806564Y-138989389D02*
G01*
X141997833Y-139068615D01*
X141997835Y-139068616D01*
X142169973Y-139183635D01*
X142316365Y-139330027D01*
X142431385Y-139502167D01*
X142510611Y-139693436D01*
X142551000Y-139896484D01*
X142551000Y-140103516D01*
X142510611Y-140306564D01*
X142431385Y-140497833D01*
X142431384Y-140497835D01*
X142316365Y-140669973D01*
X142169973Y-140816365D01*
X141997835Y-140931384D01*
X141997834Y-140931385D01*
X141997833Y-140931385D01*
X141806564Y-141010611D01*
X141603516Y-141051000D01*
X141396484Y-141051000D01*
X141193436Y-141010611D01*
X141002167Y-140931385D01*
X141002166Y-140931385D01*
X141002165Y-140931384D01*
X140830027Y-140816365D01*
X140683635Y-140669973D01*
X140568616Y-140497835D01*
X140568615Y-140497833D01*
X140489389Y-140306564D01*
X140449000Y-140103516D01*
X140449000Y-139896484D01*
X140489389Y-139693436D01*
X140568615Y-139502167D01*
X140683635Y-139330027D01*
X140830027Y-139183635D01*
X141002165Y-139068616D01*
X141002167Y-139068615D01*
X141193436Y-138989389D01*
X141396484Y-138949000D01*
X141603516Y-138949000D01*
X141806564Y-138989389D01*
X141806564Y-138989389D01*
G37*
G36*
X150306564Y-138989389D02*
G01*
X150497833Y-139068615D01*
X150497835Y-139068616D01*
X150669973Y-139183635D01*
X150816365Y-139330027D01*
X150931385Y-139502167D01*
X151010611Y-139693436D01*
X151051000Y-139896484D01*
X151051000Y-140103516D01*
X151010611Y-140306564D01*
X150931385Y-140497833D01*
X150931384Y-140497835D01*
X150816365Y-140669973D01*
X150669973Y-140816365D01*
X150497835Y-140931384D01*
X150497834Y-140931385D01*
X150497833Y-140931385D01*
X150306564Y-141010611D01*
X150103516Y-141051000D01*
X149896484Y-141051000D01*
X149693436Y-141010611D01*
X149502167Y-140931385D01*
X149502166Y-140931385D01*
X149502165Y-140931384D01*
X149330027Y-140816365D01*
X149183635Y-140669973D01*
X149068616Y-140497835D01*
X149068615Y-140497833D01*
X148989389Y-140306564D01*
X148949000Y-140103516D01*
X148949000Y-139896484D01*
X148989389Y-139693436D01*
X149068615Y-139502167D01*
X149183635Y-139330027D01*
X149330027Y-139183635D01*
X149502165Y-139068616D01*
X149502167Y-139068615D01*
X149693436Y-138989389D01*
X149896484Y-138949000D01*
X150103516Y-138949000D01*
X150306564Y-138989389D01*
X150306564Y-138989389D01*
G37*
G36*
X156806564Y-138989389D02*
G01*
X156997833Y-139068615D01*
X156997835Y-139068616D01*
X157169973Y-139183635D01*
X157316365Y-139330027D01*
X157431385Y-139502167D01*
X157510611Y-139693436D01*
X157551000Y-139896484D01*
X157551000Y-140103516D01*
X157510611Y-140306564D01*
X157431385Y-140497833D01*
X157431384Y-140497835D01*
X157316365Y-140669973D01*
X157169973Y-140816365D01*
X156997835Y-140931384D01*
X156997834Y-140931385D01*
X156997833Y-140931385D01*
X156806564Y-141010611D01*
X156603516Y-141051000D01*
X156396484Y-141051000D01*
X156193436Y-141010611D01*
X156002167Y-140931385D01*
X156002166Y-140931385D01*
X156002165Y-140931384D01*
X155830027Y-140816365D01*
X155683635Y-140669973D01*
X155568616Y-140497835D01*
X155568615Y-140497833D01*
X155489389Y-140306564D01*
X155449000Y-140103516D01*
X155449000Y-139896484D01*
X155489389Y-139693436D01*
X155568615Y-139502167D01*
X155683635Y-139330027D01*
X155830027Y-139183635D01*
X156002165Y-139068616D01*
X156002167Y-139068615D01*
X156193436Y-138989389D01*
X156396484Y-138949000D01*
X156603516Y-138949000D01*
X156806564Y-138989389D01*
X156806564Y-138989389D01*
G37*
G36*
X120306564Y-138989389D02*
G01*
X120497833Y-139068615D01*
X120497835Y-139068616D01*
X120669973Y-139183635D01*
X120816365Y-139330027D01*
X120931385Y-139502167D01*
X121010611Y-139693436D01*
X121051000Y-139896484D01*
X121051000Y-140103516D01*
X121010611Y-140306564D01*
X120931385Y-140497833D01*
X120931384Y-140497835D01*
X120816365Y-140669973D01*
X120669973Y-140816365D01*
X120497835Y-140931384D01*
X120497834Y-140931385D01*
X120497833Y-140931385D01*
X120306564Y-141010611D01*
X120103516Y-141051000D01*
X119896484Y-141051000D01*
X119693436Y-141010611D01*
X119502167Y-140931385D01*
X119502166Y-140931385D01*
X119502165Y-140931384D01*
X119330027Y-140816365D01*
X119183635Y-140669973D01*
X119068616Y-140497835D01*
X119068615Y-140497833D01*
X118989389Y-140306564D01*
X118949000Y-140103516D01*
X118949000Y-139896484D01*
X118989389Y-139693436D01*
X119068615Y-139502167D01*
X119183635Y-139330027D01*
X119330027Y-139183635D01*
X119502165Y-139068616D01*
X119502167Y-139068615D01*
X119693436Y-138989389D01*
X119896484Y-138949000D01*
X120103516Y-138949000D01*
X120306564Y-138989389D01*
X120306564Y-138989389D01*
G37*
G36*
X75166822Y-135861313D02*
G01*
X75327241Y-135909976D01*
X75475077Y-135988995D01*
X75604659Y-136095341D01*
X75711004Y-136224922D01*
X75711005Y-136224924D01*
X75790024Y-136372758D01*
X75838687Y-136533177D01*
X75851000Y-136658196D01*
X75851000Y-137341803D01*
X75838687Y-137466822D01*
X75790024Y-137627242D01*
X75719114Y-137759906D01*
X75711004Y-137775078D01*
X75604659Y-137904659D01*
X75475078Y-138011004D01*
X75475076Y-138011005D01*
X75327242Y-138090024D01*
X75166823Y-138138687D01*
X75000000Y-138155117D01*
X74833178Y-138138687D01*
X74672759Y-138090024D01*
X74524925Y-138011005D01*
X74524923Y-138011004D01*
X74395342Y-137904659D01*
X74288997Y-137775078D01*
X74209975Y-137627239D01*
X74161313Y-137466826D01*
X74149000Y-137341804D01*
X74149000Y-136658197D01*
X74161313Y-136533178D01*
X74209976Y-136372759D01*
X74288995Y-136224923D01*
X74395341Y-136095341D01*
X74524922Y-135988996D01*
X74540094Y-135980886D01*
X74672758Y-135909976D01*
X74833177Y-135861313D01*
X75000000Y-135844883D01*
X75166822Y-135861313D01*
X75166822Y-135861313D01*
G37*
G36*
X75214795Y-131420156D02*
G01*
X75321150Y-131441311D01*
X75521520Y-131524307D01*
X75701844Y-131644795D01*
X75855205Y-131798156D01*
X75975693Y-131978480D01*
X76058689Y-132178851D01*
X76101000Y-132391560D01*
X76101000Y-132608440D01*
X76058689Y-132821149D01*
X75975693Y-133021520D01*
X75855205Y-133201844D01*
X75701844Y-133355205D01*
X75521520Y-133475693D01*
X75421334Y-133517191D01*
X75321150Y-133558689D01*
X75214794Y-133579845D01*
X75108440Y-133601000D01*
X74891560Y-133601000D01*
X74785206Y-133579845D01*
X74678850Y-133558689D01*
X74578666Y-133517191D01*
X74478480Y-133475693D01*
X74298156Y-133355205D01*
X74144795Y-133201844D01*
X74024307Y-133021520D01*
X73941311Y-132821149D01*
X73899000Y-132608440D01*
X73899000Y-132391560D01*
X73941311Y-132178851D01*
X74024307Y-131978480D01*
X74144795Y-131798156D01*
X74298156Y-131644795D01*
X74478480Y-131524307D01*
X74678850Y-131441311D01*
X74785205Y-131420156D01*
X74891560Y-131399000D01*
X75108440Y-131399000D01*
X75214795Y-131420156D01*
X75214795Y-131420156D01*
G37*
G36*
X138716000Y-133010000D02*
G01*
X137714000Y-133010000D01*
X137714000Y-131708000D01*
X138716000Y-131708000D01*
X138716000Y-133010000D01*
X138716000Y-133010000D01*
G37*
G36*
X142016000Y-133010000D02*
G01*
X141014000Y-133010000D01*
X141014000Y-131708000D01*
X142016000Y-131708000D01*
X142016000Y-133010000D01*
X142016000Y-133010000D01*
G37*
G36*
X93751000Y-132951000D02*
G01*
X92749000Y-132951000D01*
X92749000Y-131649000D01*
X93751000Y-131649000D01*
X93751000Y-132951000D01*
X93751000Y-132951000D01*
G37*
G36*
X97051000Y-132951000D02*
G01*
X96049000Y-132951000D01*
X96049000Y-131649000D01*
X97051000Y-131649000D01*
X97051000Y-132951000D01*
X97051000Y-132951000D01*
G37*
G36*
X126992000Y-132909000D02*
G01*
X125990000Y-132909000D01*
X125990000Y-131607000D01*
X126992000Y-131607000D01*
X126992000Y-132909000D01*
X126992000Y-132909000D01*
G37*
G36*
X123692000Y-132909000D02*
G01*
X122690000Y-132909000D01*
X122690000Y-131607000D01*
X123692000Y-131607000D01*
X123692000Y-132909000D01*
X123692000Y-132909000D01*
G37*
G36*
X112019000Y-132896000D02*
G01*
X111017000Y-132896000D01*
X111017000Y-131594000D01*
X112019000Y-131594000D01*
X112019000Y-132896000D01*
X112019000Y-132896000D01*
G37*
G36*
X153715000Y-132896000D02*
G01*
X152713000Y-132896000D01*
X152713000Y-131594000D01*
X153715000Y-131594000D01*
X153715000Y-132896000D01*
X153715000Y-132896000D01*
G37*
G36*
X157015000Y-132896000D02*
G01*
X156013000Y-132896000D01*
X156013000Y-131594000D01*
X157015000Y-131594000D01*
X157015000Y-132896000D01*
X157015000Y-132896000D01*
G37*
G36*
X108719000Y-132896000D02*
G01*
X107717000Y-132896000D01*
X107717000Y-131594000D01*
X108719000Y-131594000D01*
X108719000Y-132896000D01*
X108719000Y-132896000D01*
G37*
G36*
X135306564Y-128489389D02*
G01*
X135466467Y-128555623D01*
X135497835Y-128568616D01*
X135539469Y-128596435D01*
X135669973Y-128683635D01*
X135816365Y-128830027D01*
X135931385Y-129002167D01*
X136010611Y-129193436D01*
X136051000Y-129396484D01*
X136051000Y-129603516D01*
X136010611Y-129806564D01*
X135931385Y-129997833D01*
X135931384Y-129997835D01*
X135816365Y-130169973D01*
X135669973Y-130316365D01*
X135497835Y-130431384D01*
X135497834Y-130431385D01*
X135497833Y-130431385D01*
X135306564Y-130510611D01*
X135103516Y-130551000D01*
X134896484Y-130551000D01*
X134693436Y-130510611D01*
X134502167Y-130431385D01*
X134502166Y-130431385D01*
X134502165Y-130431384D01*
X134330027Y-130316365D01*
X134183635Y-130169973D01*
X134068616Y-129997835D01*
X134068615Y-129997833D01*
X133989389Y-129806564D01*
X133949000Y-129603516D01*
X133949000Y-129396484D01*
X133989389Y-129193436D01*
X134068615Y-129002167D01*
X134183635Y-128830027D01*
X134330027Y-128683635D01*
X134460531Y-128596435D01*
X134502165Y-128568616D01*
X134533533Y-128555623D01*
X134693436Y-128489389D01*
X134896484Y-128449000D01*
X135103516Y-128449000D01*
X135306564Y-128489389D01*
X135306564Y-128489389D01*
G37*
G36*
X96806564Y-128489389D02*
G01*
X96966467Y-128555623D01*
X96997835Y-128568616D01*
X97039469Y-128596435D01*
X97169973Y-128683635D01*
X97316365Y-128830027D01*
X97431385Y-129002167D01*
X97510611Y-129193436D01*
X97551000Y-129396484D01*
X97551000Y-129603516D01*
X97510611Y-129806564D01*
X97431385Y-129997833D01*
X97431384Y-129997835D01*
X97316365Y-130169973D01*
X97169973Y-130316365D01*
X96997835Y-130431384D01*
X96997834Y-130431385D01*
X96997833Y-130431385D01*
X96806564Y-130510611D01*
X96603516Y-130551000D01*
X96396484Y-130551000D01*
X96193436Y-130510611D01*
X96002167Y-130431385D01*
X96002166Y-130431385D01*
X96002165Y-130431384D01*
X95830027Y-130316365D01*
X95683635Y-130169973D01*
X95568616Y-129997835D01*
X95568615Y-129997833D01*
X95489389Y-129806564D01*
X95449000Y-129603516D01*
X95449000Y-129396484D01*
X95489389Y-129193436D01*
X95568615Y-129002167D01*
X95683635Y-128830027D01*
X95830027Y-128683635D01*
X95960531Y-128596435D01*
X96002165Y-128568616D01*
X96033533Y-128555623D01*
X96193436Y-128489389D01*
X96396484Y-128449000D01*
X96603516Y-128449000D01*
X96806564Y-128489389D01*
X96806564Y-128489389D01*
G37*
G36*
X90306564Y-128489389D02*
G01*
X90466467Y-128555623D01*
X90497835Y-128568616D01*
X90539469Y-128596435D01*
X90669973Y-128683635D01*
X90816365Y-128830027D01*
X90931385Y-129002167D01*
X91010611Y-129193436D01*
X91051000Y-129396484D01*
X91051000Y-129603516D01*
X91010611Y-129806564D01*
X90931385Y-129997833D01*
X90931384Y-129997835D01*
X90816365Y-130169973D01*
X90669973Y-130316365D01*
X90497835Y-130431384D01*
X90497834Y-130431385D01*
X90497833Y-130431385D01*
X90306564Y-130510611D01*
X90103516Y-130551000D01*
X89896484Y-130551000D01*
X89693436Y-130510611D01*
X89502167Y-130431385D01*
X89502166Y-130431385D01*
X89502165Y-130431384D01*
X89330027Y-130316365D01*
X89183635Y-130169973D01*
X89068616Y-129997835D01*
X89068615Y-129997833D01*
X88989389Y-129806564D01*
X88949000Y-129603516D01*
X88949000Y-129396484D01*
X88989389Y-129193436D01*
X89068615Y-129002167D01*
X89183635Y-128830027D01*
X89330027Y-128683635D01*
X89460531Y-128596435D01*
X89502165Y-128568616D01*
X89533533Y-128555623D01*
X89693436Y-128489389D01*
X89896484Y-128449000D01*
X90103516Y-128449000D01*
X90306564Y-128489389D01*
X90306564Y-128489389D01*
G37*
G36*
X105306564Y-128489389D02*
G01*
X105466467Y-128555623D01*
X105497835Y-128568616D01*
X105539469Y-128596435D01*
X105669973Y-128683635D01*
X105816365Y-128830027D01*
X105931385Y-129002167D01*
X106010611Y-129193436D01*
X106051000Y-129396484D01*
X106051000Y-129603516D01*
X106010611Y-129806564D01*
X105931385Y-129997833D01*
X105931384Y-129997835D01*
X105816365Y-130169973D01*
X105669973Y-130316365D01*
X105497835Y-130431384D01*
X105497834Y-130431385D01*
X105497833Y-130431385D01*
X105306564Y-130510611D01*
X105103516Y-130551000D01*
X104896484Y-130551000D01*
X104693436Y-130510611D01*
X104502167Y-130431385D01*
X104502166Y-130431385D01*
X104502165Y-130431384D01*
X104330027Y-130316365D01*
X104183635Y-130169973D01*
X104068616Y-129997835D01*
X104068615Y-129997833D01*
X103989389Y-129806564D01*
X103949000Y-129603516D01*
X103949000Y-129396484D01*
X103989389Y-129193436D01*
X104068615Y-129002167D01*
X104183635Y-128830027D01*
X104330027Y-128683635D01*
X104460531Y-128596435D01*
X104502165Y-128568616D01*
X104533533Y-128555623D01*
X104693436Y-128489389D01*
X104896484Y-128449000D01*
X105103516Y-128449000D01*
X105306564Y-128489389D01*
X105306564Y-128489389D01*
G37*
G36*
X156806564Y-128489389D02*
G01*
X156966467Y-128555623D01*
X156997835Y-128568616D01*
X157039469Y-128596435D01*
X157169973Y-128683635D01*
X157316365Y-128830027D01*
X157431385Y-129002167D01*
X157510611Y-129193436D01*
X157551000Y-129396484D01*
X157551000Y-129603516D01*
X157510611Y-129806564D01*
X157431385Y-129997833D01*
X157431384Y-129997835D01*
X157316365Y-130169973D01*
X157169973Y-130316365D01*
X156997835Y-130431384D01*
X156997834Y-130431385D01*
X156997833Y-130431385D01*
X156806564Y-130510611D01*
X156603516Y-130551000D01*
X156396484Y-130551000D01*
X156193436Y-130510611D01*
X156002167Y-130431385D01*
X156002166Y-130431385D01*
X156002165Y-130431384D01*
X155830027Y-130316365D01*
X155683635Y-130169973D01*
X155568616Y-129997835D01*
X155568615Y-129997833D01*
X155489389Y-129806564D01*
X155449000Y-129603516D01*
X155449000Y-129396484D01*
X155489389Y-129193436D01*
X155568615Y-129002167D01*
X155683635Y-128830027D01*
X155830027Y-128683635D01*
X155960531Y-128596435D01*
X156002165Y-128568616D01*
X156033533Y-128555623D01*
X156193436Y-128489389D01*
X156396484Y-128449000D01*
X156603516Y-128449000D01*
X156806564Y-128489389D01*
X156806564Y-128489389D01*
G37*
G36*
X141806564Y-128489389D02*
G01*
X141966467Y-128555623D01*
X141997835Y-128568616D01*
X142039469Y-128596435D01*
X142169973Y-128683635D01*
X142316365Y-128830027D01*
X142431385Y-129002167D01*
X142510611Y-129193436D01*
X142551000Y-129396484D01*
X142551000Y-129603516D01*
X142510611Y-129806564D01*
X142431385Y-129997833D01*
X142431384Y-129997835D01*
X142316365Y-130169973D01*
X142169973Y-130316365D01*
X141997835Y-130431384D01*
X141997834Y-130431385D01*
X141997833Y-130431385D01*
X141806564Y-130510611D01*
X141603516Y-130551000D01*
X141396484Y-130551000D01*
X141193436Y-130510611D01*
X141002167Y-130431385D01*
X141002166Y-130431385D01*
X141002165Y-130431384D01*
X140830027Y-130316365D01*
X140683635Y-130169973D01*
X140568616Y-129997835D01*
X140568615Y-129997833D01*
X140489389Y-129806564D01*
X140449000Y-129603516D01*
X140449000Y-129396484D01*
X140489389Y-129193436D01*
X140568615Y-129002167D01*
X140683635Y-128830027D01*
X140830027Y-128683635D01*
X140960531Y-128596435D01*
X141002165Y-128568616D01*
X141033533Y-128555623D01*
X141193436Y-128489389D01*
X141396484Y-128449000D01*
X141603516Y-128449000D01*
X141806564Y-128489389D01*
X141806564Y-128489389D01*
G37*
G36*
X111806564Y-128489389D02*
G01*
X111966467Y-128555623D01*
X111997835Y-128568616D01*
X112039469Y-128596435D01*
X112169973Y-128683635D01*
X112316365Y-128830027D01*
X112431385Y-129002167D01*
X112510611Y-129193436D01*
X112551000Y-129396484D01*
X112551000Y-129603516D01*
X112510611Y-129806564D01*
X112431385Y-129997833D01*
X112431384Y-129997835D01*
X112316365Y-130169973D01*
X112169973Y-130316365D01*
X111997835Y-130431384D01*
X111997834Y-130431385D01*
X111997833Y-130431385D01*
X111806564Y-130510611D01*
X111603516Y-130551000D01*
X111396484Y-130551000D01*
X111193436Y-130510611D01*
X111002167Y-130431385D01*
X111002166Y-130431385D01*
X111002165Y-130431384D01*
X110830027Y-130316365D01*
X110683635Y-130169973D01*
X110568616Y-129997835D01*
X110568615Y-129997833D01*
X110489389Y-129806564D01*
X110449000Y-129603516D01*
X110449000Y-129396484D01*
X110489389Y-129193436D01*
X110568615Y-129002167D01*
X110683635Y-128830027D01*
X110830027Y-128683635D01*
X110960531Y-128596435D01*
X111002165Y-128568616D01*
X111033533Y-128555623D01*
X111193436Y-128489389D01*
X111396484Y-128449000D01*
X111603516Y-128449000D01*
X111806564Y-128489389D01*
X111806564Y-128489389D01*
G37*
G36*
X150306564Y-128489389D02*
G01*
X150466467Y-128555623D01*
X150497835Y-128568616D01*
X150539469Y-128596435D01*
X150669973Y-128683635D01*
X150816365Y-128830027D01*
X150931385Y-129002167D01*
X151010611Y-129193436D01*
X151051000Y-129396484D01*
X151051000Y-129603516D01*
X151010611Y-129806564D01*
X150931385Y-129997833D01*
X150931384Y-129997835D01*
X150816365Y-130169973D01*
X150669973Y-130316365D01*
X150497835Y-130431384D01*
X150497834Y-130431385D01*
X150497833Y-130431385D01*
X150306564Y-130510611D01*
X150103516Y-130551000D01*
X149896484Y-130551000D01*
X149693436Y-130510611D01*
X149502167Y-130431385D01*
X149502166Y-130431385D01*
X149502165Y-130431384D01*
X149330027Y-130316365D01*
X149183635Y-130169973D01*
X149068616Y-129997835D01*
X149068615Y-129997833D01*
X148989389Y-129806564D01*
X148949000Y-129603516D01*
X148949000Y-129396484D01*
X148989389Y-129193436D01*
X149068615Y-129002167D01*
X149183635Y-128830027D01*
X149330027Y-128683635D01*
X149460531Y-128596435D01*
X149502165Y-128568616D01*
X149533533Y-128555623D01*
X149693436Y-128489389D01*
X149896484Y-128449000D01*
X150103516Y-128449000D01*
X150306564Y-128489389D01*
X150306564Y-128489389D01*
G37*
G36*
X120306564Y-128489389D02*
G01*
X120466467Y-128555623D01*
X120497835Y-128568616D01*
X120539469Y-128596435D01*
X120669973Y-128683635D01*
X120816365Y-128830027D01*
X120931385Y-129002167D01*
X121010611Y-129193436D01*
X121051000Y-129396484D01*
X121051000Y-129603516D01*
X121010611Y-129806564D01*
X120931385Y-129997833D01*
X120931384Y-129997835D01*
X120816365Y-130169973D01*
X120669973Y-130316365D01*
X120497835Y-130431384D01*
X120497834Y-130431385D01*
X120497833Y-130431385D01*
X120306564Y-130510611D01*
X120103516Y-130551000D01*
X119896484Y-130551000D01*
X119693436Y-130510611D01*
X119502167Y-130431385D01*
X119502166Y-130431385D01*
X119502165Y-130431384D01*
X119330027Y-130316365D01*
X119183635Y-130169973D01*
X119068616Y-129997835D01*
X119068615Y-129997833D01*
X118989389Y-129806564D01*
X118949000Y-129603516D01*
X118949000Y-129396484D01*
X118989389Y-129193436D01*
X119068615Y-129002167D01*
X119183635Y-128830027D01*
X119330027Y-128683635D01*
X119460531Y-128596435D01*
X119502165Y-128568616D01*
X119533533Y-128555623D01*
X119693436Y-128489389D01*
X119896484Y-128449000D01*
X120103516Y-128449000D01*
X120306564Y-128489389D01*
X120306564Y-128489389D01*
G37*
G36*
X126806564Y-128489389D02*
G01*
X126966467Y-128555623D01*
X126997835Y-128568616D01*
X127039469Y-128596435D01*
X127169973Y-128683635D01*
X127316365Y-128830027D01*
X127431385Y-129002167D01*
X127510611Y-129193436D01*
X127551000Y-129396484D01*
X127551000Y-129603516D01*
X127510611Y-129806564D01*
X127431385Y-129997833D01*
X127431384Y-129997835D01*
X127316365Y-130169973D01*
X127169973Y-130316365D01*
X126997835Y-130431384D01*
X126997834Y-130431385D01*
X126997833Y-130431385D01*
X126806564Y-130510611D01*
X126603516Y-130551000D01*
X126396484Y-130551000D01*
X126193436Y-130510611D01*
X126002167Y-130431385D01*
X126002166Y-130431385D01*
X126002165Y-130431384D01*
X125830027Y-130316365D01*
X125683635Y-130169973D01*
X125568616Y-129997835D01*
X125568615Y-129997833D01*
X125489389Y-129806564D01*
X125449000Y-129603516D01*
X125449000Y-129396484D01*
X125489389Y-129193436D01*
X125568615Y-129002167D01*
X125683635Y-128830027D01*
X125830027Y-128683635D01*
X125960531Y-128596435D01*
X126002165Y-128568616D01*
X126033533Y-128555623D01*
X126193436Y-128489389D01*
X126396484Y-128449000D01*
X126603516Y-128449000D01*
X126806564Y-128489389D01*
X126806564Y-128489389D01*
G37*
G36*
X93834468Y-129403565D02*
G01*
X93873138Y-129415296D01*
X93908777Y-129434346D01*
X93940017Y-129459983D01*
X93965654Y-129491223D01*
X93984704Y-129526862D01*
X93996435Y-129565532D01*
X94001000Y-129611888D01*
X94001000Y-130263112D01*
X93996435Y-130309468D01*
X93984704Y-130348138D01*
X93965654Y-130383777D01*
X93940017Y-130415017D01*
X93908777Y-130440654D01*
X93873138Y-130459704D01*
X93834468Y-130471435D01*
X93788112Y-130476000D01*
X92711888Y-130476000D01*
X92665532Y-130471435D01*
X92626862Y-130459704D01*
X92591223Y-130440654D01*
X92559983Y-130415017D01*
X92534346Y-130383777D01*
X92515296Y-130348138D01*
X92503565Y-130309468D01*
X92499000Y-130263112D01*
X92499000Y-129611888D01*
X92503565Y-129565532D01*
X92515296Y-129526862D01*
X92534346Y-129491223D01*
X92559983Y-129459983D01*
X92591223Y-129434346D01*
X92626862Y-129415296D01*
X92665532Y-129403565D01*
X92711888Y-129399000D01*
X93788112Y-129399000D01*
X93834468Y-129403565D01*
X93834468Y-129403565D01*
G37*
G36*
X123784468Y-129403565D02*
G01*
X123823138Y-129415296D01*
X123858777Y-129434346D01*
X123890017Y-129459983D01*
X123915654Y-129491223D01*
X123934704Y-129526862D01*
X123946435Y-129565532D01*
X123951000Y-129611888D01*
X123951000Y-130263112D01*
X123946435Y-130309468D01*
X123934704Y-130348138D01*
X123915654Y-130383777D01*
X123890017Y-130415017D01*
X123858777Y-130440654D01*
X123823138Y-130459704D01*
X123784468Y-130471435D01*
X123738112Y-130476000D01*
X122661888Y-130476000D01*
X122615532Y-130471435D01*
X122576862Y-130459704D01*
X122541223Y-130440654D01*
X122509983Y-130415017D01*
X122484346Y-130383777D01*
X122465296Y-130348138D01*
X122453565Y-130309468D01*
X122449000Y-130263112D01*
X122449000Y-129611888D01*
X122453565Y-129565532D01*
X122465296Y-129526862D01*
X122484346Y-129491223D01*
X122509983Y-129459983D01*
X122541223Y-129434346D01*
X122576862Y-129415296D01*
X122615532Y-129403565D01*
X122661888Y-129399000D01*
X123738112Y-129399000D01*
X123784468Y-129403565D01*
X123784468Y-129403565D01*
G37*
G36*
X108784468Y-129403565D02*
G01*
X108823138Y-129415296D01*
X108858777Y-129434346D01*
X108890017Y-129459983D01*
X108915654Y-129491223D01*
X108934704Y-129526862D01*
X108946435Y-129565532D01*
X108951000Y-129611888D01*
X108951000Y-130263112D01*
X108946435Y-130309468D01*
X108934704Y-130348138D01*
X108915654Y-130383777D01*
X108890017Y-130415017D01*
X108858777Y-130440654D01*
X108823138Y-130459704D01*
X108784468Y-130471435D01*
X108738112Y-130476000D01*
X107661888Y-130476000D01*
X107615532Y-130471435D01*
X107576862Y-130459704D01*
X107541223Y-130440654D01*
X107509983Y-130415017D01*
X107484346Y-130383777D01*
X107465296Y-130348138D01*
X107453565Y-130309468D01*
X107449000Y-130263112D01*
X107449000Y-129611888D01*
X107453565Y-129565532D01*
X107465296Y-129526862D01*
X107484346Y-129491223D01*
X107509983Y-129459983D01*
X107541223Y-129434346D01*
X107576862Y-129415296D01*
X107615532Y-129403565D01*
X107661888Y-129399000D01*
X108738112Y-129399000D01*
X108784468Y-129403565D01*
X108784468Y-129403565D01*
G37*
G36*
X138784468Y-129403565D02*
G01*
X138823138Y-129415296D01*
X138858777Y-129434346D01*
X138890017Y-129459983D01*
X138915654Y-129491223D01*
X138934704Y-129526862D01*
X138946435Y-129565532D01*
X138951000Y-129611888D01*
X138951000Y-130263112D01*
X138946435Y-130309468D01*
X138934704Y-130348138D01*
X138915654Y-130383777D01*
X138890017Y-130415017D01*
X138858777Y-130440654D01*
X138823138Y-130459704D01*
X138784468Y-130471435D01*
X138738112Y-130476000D01*
X137661888Y-130476000D01*
X137615532Y-130471435D01*
X137576862Y-130459704D01*
X137541223Y-130440654D01*
X137509983Y-130415017D01*
X137484346Y-130383777D01*
X137465296Y-130348138D01*
X137453565Y-130309468D01*
X137449000Y-130263112D01*
X137449000Y-129611888D01*
X137453565Y-129565532D01*
X137465296Y-129526862D01*
X137484346Y-129491223D01*
X137509983Y-129459983D01*
X137541223Y-129434346D01*
X137576862Y-129415296D01*
X137615532Y-129403565D01*
X137661888Y-129399000D01*
X138738112Y-129399000D01*
X138784468Y-129403565D01*
X138784468Y-129403565D01*
G37*
G36*
X93834468Y-127528565D02*
G01*
X93873138Y-127540296D01*
X93908777Y-127559346D01*
X93940017Y-127584983D01*
X93965654Y-127616223D01*
X93984704Y-127651862D01*
X93996435Y-127690532D01*
X94001000Y-127736888D01*
X94001000Y-128388112D01*
X93996435Y-128434468D01*
X93984704Y-128473138D01*
X93965654Y-128508777D01*
X93940017Y-128540017D01*
X93908777Y-128565654D01*
X93873138Y-128584704D01*
X93834468Y-128596435D01*
X93788112Y-128601000D01*
X92711888Y-128601000D01*
X92665532Y-128596435D01*
X92626862Y-128584704D01*
X92591223Y-128565654D01*
X92559983Y-128540017D01*
X92534346Y-128508777D01*
X92515296Y-128473138D01*
X92503565Y-128434468D01*
X92499000Y-128388112D01*
X92499000Y-127736888D01*
X92503565Y-127690532D01*
X92515296Y-127651862D01*
X92534346Y-127616223D01*
X92559983Y-127584983D01*
X92591223Y-127559346D01*
X92626862Y-127540296D01*
X92665532Y-127528565D01*
X92711888Y-127524000D01*
X93788112Y-127524000D01*
X93834468Y-127528565D01*
X93834468Y-127528565D01*
G37*
G36*
X123784468Y-127528565D02*
G01*
X123823138Y-127540296D01*
X123858777Y-127559346D01*
X123890017Y-127584983D01*
X123915654Y-127616223D01*
X123934704Y-127651862D01*
X123946435Y-127690532D01*
X123951000Y-127736888D01*
X123951000Y-128388112D01*
X123946435Y-128434468D01*
X123934704Y-128473138D01*
X123915654Y-128508777D01*
X123890017Y-128540017D01*
X123858777Y-128565654D01*
X123823138Y-128584704D01*
X123784468Y-128596435D01*
X123738112Y-128601000D01*
X122661888Y-128601000D01*
X122615532Y-128596435D01*
X122576862Y-128584704D01*
X122541223Y-128565654D01*
X122509983Y-128540017D01*
X122484346Y-128508777D01*
X122465296Y-128473138D01*
X122453565Y-128434468D01*
X122449000Y-128388112D01*
X122449000Y-127736888D01*
X122453565Y-127690532D01*
X122465296Y-127651862D01*
X122484346Y-127616223D01*
X122509983Y-127584983D01*
X122541223Y-127559346D01*
X122576862Y-127540296D01*
X122615532Y-127528565D01*
X122661888Y-127524000D01*
X123738112Y-127524000D01*
X123784468Y-127528565D01*
X123784468Y-127528565D01*
G37*
G36*
X108784468Y-127528565D02*
G01*
X108823138Y-127540296D01*
X108858777Y-127559346D01*
X108890017Y-127584983D01*
X108915654Y-127616223D01*
X108934704Y-127651862D01*
X108946435Y-127690532D01*
X108951000Y-127736888D01*
X108951000Y-128388112D01*
X108946435Y-128434468D01*
X108934704Y-128473138D01*
X108915654Y-128508777D01*
X108890017Y-128540017D01*
X108858777Y-128565654D01*
X108823138Y-128584704D01*
X108784468Y-128596435D01*
X108738112Y-128601000D01*
X107661888Y-128601000D01*
X107615532Y-128596435D01*
X107576862Y-128584704D01*
X107541223Y-128565654D01*
X107509983Y-128540017D01*
X107484346Y-128508777D01*
X107465296Y-128473138D01*
X107453565Y-128434468D01*
X107449000Y-128388112D01*
X107449000Y-127736888D01*
X107453565Y-127690532D01*
X107465296Y-127651862D01*
X107484346Y-127616223D01*
X107509983Y-127584983D01*
X107541223Y-127559346D01*
X107576862Y-127540296D01*
X107615532Y-127528565D01*
X107661888Y-127524000D01*
X108738112Y-127524000D01*
X108784468Y-127528565D01*
X108784468Y-127528565D01*
G37*
G36*
X138784468Y-127528565D02*
G01*
X138823138Y-127540296D01*
X138858777Y-127559346D01*
X138890017Y-127584983D01*
X138915654Y-127616223D01*
X138934704Y-127651862D01*
X138946435Y-127690532D01*
X138951000Y-127736888D01*
X138951000Y-128388112D01*
X138946435Y-128434468D01*
X138934704Y-128473138D01*
X138915654Y-128508777D01*
X138890017Y-128540017D01*
X138858777Y-128565654D01*
X138823138Y-128584704D01*
X138784468Y-128596435D01*
X138738112Y-128601000D01*
X137661888Y-128601000D01*
X137615532Y-128596435D01*
X137576862Y-128584704D01*
X137541223Y-128565654D01*
X137509983Y-128540017D01*
X137484346Y-128508777D01*
X137465296Y-128473138D01*
X137453565Y-128434468D01*
X137449000Y-128388112D01*
X137449000Y-127736888D01*
X137453565Y-127690532D01*
X137465296Y-127651862D01*
X137484346Y-127616223D01*
X137509983Y-127584983D01*
X137541223Y-127559346D01*
X137576862Y-127540296D01*
X137615532Y-127528565D01*
X137661888Y-127524000D01*
X138738112Y-127524000D01*
X138784468Y-127528565D01*
X138784468Y-127528565D01*
G37*
G36*
X156806564Y-123989389D02*
G01*
X156997833Y-124068615D01*
X156997835Y-124068616D01*
X157169973Y-124183635D01*
X157316365Y-124330027D01*
X157431385Y-124502167D01*
X157510611Y-124693436D01*
X157551000Y-124896484D01*
X157551000Y-125103516D01*
X157510611Y-125306564D01*
X157431385Y-125497833D01*
X157431384Y-125497835D01*
X157316365Y-125669973D01*
X157169973Y-125816365D01*
X156997835Y-125931384D01*
X156997834Y-125931385D01*
X156997833Y-125931385D01*
X156806564Y-126010611D01*
X156603516Y-126051000D01*
X156396484Y-126051000D01*
X156193436Y-126010611D01*
X156002167Y-125931385D01*
X156002166Y-125931385D01*
X156002165Y-125931384D01*
X155830027Y-125816365D01*
X155683635Y-125669973D01*
X155568616Y-125497835D01*
X155568615Y-125497833D01*
X155489389Y-125306564D01*
X155449000Y-125103516D01*
X155449000Y-124896484D01*
X155489389Y-124693436D01*
X155568615Y-124502167D01*
X155683635Y-124330027D01*
X155830027Y-124183635D01*
X156002165Y-124068616D01*
X156002167Y-124068615D01*
X156193436Y-123989389D01*
X156396484Y-123949000D01*
X156603516Y-123949000D01*
X156806564Y-123989389D01*
X156806564Y-123989389D01*
G37*
G36*
X150306564Y-123989389D02*
G01*
X150497833Y-124068615D01*
X150497835Y-124068616D01*
X150669973Y-124183635D01*
X150816365Y-124330027D01*
X150931385Y-124502167D01*
X151010611Y-124693436D01*
X151051000Y-124896484D01*
X151051000Y-125103516D01*
X151010611Y-125306564D01*
X150931385Y-125497833D01*
X150931384Y-125497835D01*
X150816365Y-125669973D01*
X150669973Y-125816365D01*
X150497835Y-125931384D01*
X150497834Y-125931385D01*
X150497833Y-125931385D01*
X150306564Y-126010611D01*
X150103516Y-126051000D01*
X149896484Y-126051000D01*
X149693436Y-126010611D01*
X149502167Y-125931385D01*
X149502166Y-125931385D01*
X149502165Y-125931384D01*
X149330027Y-125816365D01*
X149183635Y-125669973D01*
X149068616Y-125497835D01*
X149068615Y-125497833D01*
X148989389Y-125306564D01*
X148949000Y-125103516D01*
X148949000Y-124896484D01*
X148989389Y-124693436D01*
X149068615Y-124502167D01*
X149183635Y-124330027D01*
X149330027Y-124183635D01*
X149502165Y-124068616D01*
X149502167Y-124068615D01*
X149693436Y-123989389D01*
X149896484Y-123949000D01*
X150103516Y-123949000D01*
X150306564Y-123989389D01*
X150306564Y-123989389D01*
G37*
G36*
X141806564Y-123989389D02*
G01*
X141997833Y-124068615D01*
X141997835Y-124068616D01*
X142169973Y-124183635D01*
X142316365Y-124330027D01*
X142431385Y-124502167D01*
X142510611Y-124693436D01*
X142551000Y-124896484D01*
X142551000Y-125103516D01*
X142510611Y-125306564D01*
X142431385Y-125497833D01*
X142431384Y-125497835D01*
X142316365Y-125669973D01*
X142169973Y-125816365D01*
X141997835Y-125931384D01*
X141997834Y-125931385D01*
X141997833Y-125931385D01*
X141806564Y-126010611D01*
X141603516Y-126051000D01*
X141396484Y-126051000D01*
X141193436Y-126010611D01*
X141002167Y-125931385D01*
X141002166Y-125931385D01*
X141002165Y-125931384D01*
X140830027Y-125816365D01*
X140683635Y-125669973D01*
X140568616Y-125497835D01*
X140568615Y-125497833D01*
X140489389Y-125306564D01*
X140449000Y-125103516D01*
X140449000Y-124896484D01*
X140489389Y-124693436D01*
X140568615Y-124502167D01*
X140683635Y-124330027D01*
X140830027Y-124183635D01*
X141002165Y-124068616D01*
X141002167Y-124068615D01*
X141193436Y-123989389D01*
X141396484Y-123949000D01*
X141603516Y-123949000D01*
X141806564Y-123989389D01*
X141806564Y-123989389D01*
G37*
G36*
X120306564Y-123989389D02*
G01*
X120497833Y-124068615D01*
X120497835Y-124068616D01*
X120669973Y-124183635D01*
X120816365Y-124330027D01*
X120931385Y-124502167D01*
X121010611Y-124693436D01*
X121051000Y-124896484D01*
X121051000Y-125103516D01*
X121010611Y-125306564D01*
X120931385Y-125497833D01*
X120931384Y-125497835D01*
X120816365Y-125669973D01*
X120669973Y-125816365D01*
X120497835Y-125931384D01*
X120497834Y-125931385D01*
X120497833Y-125931385D01*
X120306564Y-126010611D01*
X120103516Y-126051000D01*
X119896484Y-126051000D01*
X119693436Y-126010611D01*
X119502167Y-125931385D01*
X119502166Y-125931385D01*
X119502165Y-125931384D01*
X119330027Y-125816365D01*
X119183635Y-125669973D01*
X119068616Y-125497835D01*
X119068615Y-125497833D01*
X118989389Y-125306564D01*
X118949000Y-125103516D01*
X118949000Y-124896484D01*
X118989389Y-124693436D01*
X119068615Y-124502167D01*
X119183635Y-124330027D01*
X119330027Y-124183635D01*
X119502165Y-124068616D01*
X119502167Y-124068615D01*
X119693436Y-123989389D01*
X119896484Y-123949000D01*
X120103516Y-123949000D01*
X120306564Y-123989389D01*
X120306564Y-123989389D01*
G37*
G36*
X135306564Y-123989389D02*
G01*
X135497833Y-124068615D01*
X135497835Y-124068616D01*
X135669973Y-124183635D01*
X135816365Y-124330027D01*
X135931385Y-124502167D01*
X136010611Y-124693436D01*
X136051000Y-124896484D01*
X136051000Y-125103516D01*
X136010611Y-125306564D01*
X135931385Y-125497833D01*
X135931384Y-125497835D01*
X135816365Y-125669973D01*
X135669973Y-125816365D01*
X135497835Y-125931384D01*
X135497834Y-125931385D01*
X135497833Y-125931385D01*
X135306564Y-126010611D01*
X135103516Y-126051000D01*
X134896484Y-126051000D01*
X134693436Y-126010611D01*
X134502167Y-125931385D01*
X134502166Y-125931385D01*
X134502165Y-125931384D01*
X134330027Y-125816365D01*
X134183635Y-125669973D01*
X134068616Y-125497835D01*
X134068615Y-125497833D01*
X133989389Y-125306564D01*
X133949000Y-125103516D01*
X133949000Y-124896484D01*
X133989389Y-124693436D01*
X134068615Y-124502167D01*
X134183635Y-124330027D01*
X134330027Y-124183635D01*
X134502165Y-124068616D01*
X134502167Y-124068615D01*
X134693436Y-123989389D01*
X134896484Y-123949000D01*
X135103516Y-123949000D01*
X135306564Y-123989389D01*
X135306564Y-123989389D01*
G37*
G36*
X90306564Y-123989389D02*
G01*
X90497833Y-124068615D01*
X90497835Y-124068616D01*
X90669973Y-124183635D01*
X90816365Y-124330027D01*
X90931385Y-124502167D01*
X91010611Y-124693436D01*
X91051000Y-124896484D01*
X91051000Y-125103516D01*
X91010611Y-125306564D01*
X90931385Y-125497833D01*
X90931384Y-125497835D01*
X90816365Y-125669973D01*
X90669973Y-125816365D01*
X90497835Y-125931384D01*
X90497834Y-125931385D01*
X90497833Y-125931385D01*
X90306564Y-126010611D01*
X90103516Y-126051000D01*
X89896484Y-126051000D01*
X89693436Y-126010611D01*
X89502167Y-125931385D01*
X89502166Y-125931385D01*
X89502165Y-125931384D01*
X89330027Y-125816365D01*
X89183635Y-125669973D01*
X89068616Y-125497835D01*
X89068615Y-125497833D01*
X88989389Y-125306564D01*
X88949000Y-125103516D01*
X88949000Y-124896484D01*
X88989389Y-124693436D01*
X89068615Y-124502167D01*
X89183635Y-124330027D01*
X89330027Y-124183635D01*
X89502165Y-124068616D01*
X89502167Y-124068615D01*
X89693436Y-123989389D01*
X89896484Y-123949000D01*
X90103516Y-123949000D01*
X90306564Y-123989389D01*
X90306564Y-123989389D01*
G37*
G36*
X96806564Y-123989389D02*
G01*
X96997833Y-124068615D01*
X96997835Y-124068616D01*
X97169973Y-124183635D01*
X97316365Y-124330027D01*
X97431385Y-124502167D01*
X97510611Y-124693436D01*
X97551000Y-124896484D01*
X97551000Y-125103516D01*
X97510611Y-125306564D01*
X97431385Y-125497833D01*
X97431384Y-125497835D01*
X97316365Y-125669973D01*
X97169973Y-125816365D01*
X96997835Y-125931384D01*
X96997834Y-125931385D01*
X96997833Y-125931385D01*
X96806564Y-126010611D01*
X96603516Y-126051000D01*
X96396484Y-126051000D01*
X96193436Y-126010611D01*
X96002167Y-125931385D01*
X96002166Y-125931385D01*
X96002165Y-125931384D01*
X95830027Y-125816365D01*
X95683635Y-125669973D01*
X95568616Y-125497835D01*
X95568615Y-125497833D01*
X95489389Y-125306564D01*
X95449000Y-125103516D01*
X95449000Y-124896484D01*
X95489389Y-124693436D01*
X95568615Y-124502167D01*
X95683635Y-124330027D01*
X95830027Y-124183635D01*
X96002165Y-124068616D01*
X96002167Y-124068615D01*
X96193436Y-123989389D01*
X96396484Y-123949000D01*
X96603516Y-123949000D01*
X96806564Y-123989389D01*
X96806564Y-123989389D01*
G37*
G36*
X105306564Y-123989389D02*
G01*
X105497833Y-124068615D01*
X105497835Y-124068616D01*
X105669973Y-124183635D01*
X105816365Y-124330027D01*
X105931385Y-124502167D01*
X106010611Y-124693436D01*
X106051000Y-124896484D01*
X106051000Y-125103516D01*
X106010611Y-125306564D01*
X105931385Y-125497833D01*
X105931384Y-125497835D01*
X105816365Y-125669973D01*
X105669973Y-125816365D01*
X105497835Y-125931384D01*
X105497834Y-125931385D01*
X105497833Y-125931385D01*
X105306564Y-126010611D01*
X105103516Y-126051000D01*
X104896484Y-126051000D01*
X104693436Y-126010611D01*
X104502167Y-125931385D01*
X104502166Y-125931385D01*
X104502165Y-125931384D01*
X104330027Y-125816365D01*
X104183635Y-125669973D01*
X104068616Y-125497835D01*
X104068615Y-125497833D01*
X103989389Y-125306564D01*
X103949000Y-125103516D01*
X103949000Y-124896484D01*
X103989389Y-124693436D01*
X104068615Y-124502167D01*
X104183635Y-124330027D01*
X104330027Y-124183635D01*
X104502165Y-124068616D01*
X104502167Y-124068615D01*
X104693436Y-123989389D01*
X104896484Y-123949000D01*
X105103516Y-123949000D01*
X105306564Y-123989389D01*
X105306564Y-123989389D01*
G37*
G36*
X111806564Y-123989389D02*
G01*
X111997833Y-124068615D01*
X111997835Y-124068616D01*
X112169973Y-124183635D01*
X112316365Y-124330027D01*
X112431385Y-124502167D01*
X112510611Y-124693436D01*
X112551000Y-124896484D01*
X112551000Y-125103516D01*
X112510611Y-125306564D01*
X112431385Y-125497833D01*
X112431384Y-125497835D01*
X112316365Y-125669973D01*
X112169973Y-125816365D01*
X111997835Y-125931384D01*
X111997834Y-125931385D01*
X111997833Y-125931385D01*
X111806564Y-126010611D01*
X111603516Y-126051000D01*
X111396484Y-126051000D01*
X111193436Y-126010611D01*
X111002167Y-125931385D01*
X111002166Y-125931385D01*
X111002165Y-125931384D01*
X110830027Y-125816365D01*
X110683635Y-125669973D01*
X110568616Y-125497835D01*
X110568615Y-125497833D01*
X110489389Y-125306564D01*
X110449000Y-125103516D01*
X110449000Y-124896484D01*
X110489389Y-124693436D01*
X110568615Y-124502167D01*
X110683635Y-124330027D01*
X110830027Y-124183635D01*
X111002165Y-124068616D01*
X111002167Y-124068615D01*
X111193436Y-123989389D01*
X111396484Y-123949000D01*
X111603516Y-123949000D01*
X111806564Y-123989389D01*
X111806564Y-123989389D01*
G37*
G36*
X126806564Y-123989389D02*
G01*
X126997833Y-124068615D01*
X126997835Y-124068616D01*
X127169973Y-124183635D01*
X127316365Y-124330027D01*
X127431385Y-124502167D01*
X127510611Y-124693436D01*
X127551000Y-124896484D01*
X127551000Y-125103516D01*
X127510611Y-125306564D01*
X127431385Y-125497833D01*
X127431384Y-125497835D01*
X127316365Y-125669973D01*
X127169973Y-125816365D01*
X126997835Y-125931384D01*
X126997834Y-125931385D01*
X126997833Y-125931385D01*
X126806564Y-126010611D01*
X126603516Y-126051000D01*
X126396484Y-126051000D01*
X126193436Y-126010611D01*
X126002167Y-125931385D01*
X126002166Y-125931385D01*
X126002165Y-125931384D01*
X125830027Y-125816365D01*
X125683635Y-125669973D01*
X125568616Y-125497835D01*
X125568615Y-125497833D01*
X125489389Y-125306564D01*
X125449000Y-125103516D01*
X125449000Y-124896484D01*
X125489389Y-124693436D01*
X125568615Y-124502167D01*
X125683635Y-124330027D01*
X125830027Y-124183635D01*
X126002165Y-124068616D01*
X126002167Y-124068615D01*
X126193436Y-123989389D01*
X126396484Y-123949000D01*
X126603516Y-123949000D01*
X126806564Y-123989389D01*
X126806564Y-123989389D01*
G37*
G36*
X75166822Y-105861313D02*
G01*
X75327241Y-105909976D01*
X75475077Y-105988995D01*
X75604659Y-106095341D01*
X75711004Y-106224922D01*
X75711005Y-106224924D01*
X75790024Y-106372758D01*
X75838687Y-106533177D01*
X75851000Y-106658196D01*
X75851000Y-107341803D01*
X75838687Y-107466822D01*
X75790024Y-107627242D01*
X75719114Y-107759906D01*
X75711004Y-107775078D01*
X75604659Y-107904659D01*
X75475078Y-108011004D01*
X75475076Y-108011005D01*
X75327242Y-108090024D01*
X75166823Y-108138687D01*
X75000000Y-108155117D01*
X74833178Y-108138687D01*
X74672759Y-108090024D01*
X74524925Y-108011005D01*
X74524923Y-108011004D01*
X74395342Y-107904659D01*
X74288997Y-107775078D01*
X74209975Y-107627239D01*
X74161313Y-107466826D01*
X74149000Y-107341804D01*
X74149000Y-106658197D01*
X74161313Y-106533178D01*
X74209976Y-106372759D01*
X74288995Y-106224923D01*
X74395341Y-106095341D01*
X74524922Y-105988996D01*
X74540094Y-105980886D01*
X74672758Y-105909976D01*
X74833177Y-105861313D01*
X75000000Y-105844883D01*
X75166822Y-105861313D01*
X75166822Y-105861313D01*
G37*
G36*
X95166822Y-105861313D02*
G01*
X95327241Y-105909976D01*
X95475077Y-105988995D01*
X95604659Y-106095341D01*
X95711004Y-106224922D01*
X95711005Y-106224924D01*
X95790024Y-106372758D01*
X95838687Y-106533177D01*
X95851000Y-106658196D01*
X95851000Y-107341803D01*
X95838687Y-107466822D01*
X95790024Y-107627242D01*
X95719114Y-107759906D01*
X95711004Y-107775078D01*
X95604659Y-107904659D01*
X95475078Y-108011004D01*
X95475076Y-108011005D01*
X95327242Y-108090024D01*
X95166823Y-108138687D01*
X95000000Y-108155117D01*
X94833178Y-108138687D01*
X94672759Y-108090024D01*
X94524925Y-108011005D01*
X94524923Y-108011004D01*
X94395342Y-107904659D01*
X94288997Y-107775078D01*
X94209975Y-107627239D01*
X94161313Y-107466826D01*
X94149000Y-107341804D01*
X94149000Y-106658197D01*
X94161313Y-106533178D01*
X94209976Y-106372759D01*
X94288995Y-106224923D01*
X94395341Y-106095341D01*
X94524922Y-105988996D01*
X94540094Y-105980886D01*
X94672758Y-105909976D01*
X94833177Y-105861313D01*
X95000000Y-105844883D01*
X95166822Y-105861313D01*
X95166822Y-105861313D01*
G37*
G36*
X115166822Y-105861313D02*
G01*
X115327241Y-105909976D01*
X115475077Y-105988995D01*
X115604659Y-106095341D01*
X115711004Y-106224922D01*
X115711005Y-106224924D01*
X115790024Y-106372758D01*
X115838687Y-106533177D01*
X115851000Y-106658196D01*
X115851000Y-107341803D01*
X115838687Y-107466822D01*
X115790024Y-107627242D01*
X115719114Y-107759906D01*
X115711004Y-107775078D01*
X115604659Y-107904659D01*
X115475078Y-108011004D01*
X115475076Y-108011005D01*
X115327242Y-108090024D01*
X115166823Y-108138687D01*
X115000000Y-108155117D01*
X114833178Y-108138687D01*
X114672759Y-108090024D01*
X114524925Y-108011005D01*
X114524923Y-108011004D01*
X114395342Y-107904659D01*
X114288997Y-107775078D01*
X114209975Y-107627239D01*
X114161313Y-107466826D01*
X114149000Y-107341804D01*
X114149000Y-106658197D01*
X114161313Y-106533178D01*
X114209976Y-106372759D01*
X114288995Y-106224923D01*
X114395341Y-106095341D01*
X114524922Y-105988996D01*
X114540094Y-105980886D01*
X114672758Y-105909976D01*
X114833177Y-105861313D01*
X115000000Y-105844883D01*
X115166822Y-105861313D01*
X115166822Y-105861313D01*
G37*
G36*
X155166822Y-105861313D02*
G01*
X155327241Y-105909976D01*
X155475077Y-105988995D01*
X155604659Y-106095341D01*
X155711004Y-106224922D01*
X155711005Y-106224924D01*
X155790024Y-106372758D01*
X155838687Y-106533177D01*
X155851000Y-106658196D01*
X155851000Y-107341803D01*
X155838687Y-107466822D01*
X155790024Y-107627242D01*
X155719114Y-107759906D01*
X155711004Y-107775078D01*
X155604659Y-107904659D01*
X155475078Y-108011004D01*
X155475076Y-108011005D01*
X155327242Y-108090024D01*
X155166823Y-108138687D01*
X155000000Y-108155117D01*
X154833178Y-108138687D01*
X154672759Y-108090024D01*
X154524925Y-108011005D01*
X154524923Y-108011004D01*
X154395342Y-107904659D01*
X154288997Y-107775078D01*
X154209975Y-107627239D01*
X154161313Y-107466826D01*
X154149000Y-107341804D01*
X154149000Y-106658197D01*
X154161313Y-106533178D01*
X154209976Y-106372759D01*
X154288995Y-106224923D01*
X154395341Y-106095341D01*
X154524922Y-105988996D01*
X154540094Y-105980886D01*
X154672758Y-105909976D01*
X154833177Y-105861313D01*
X155000000Y-105844883D01*
X155166822Y-105861313D01*
X155166822Y-105861313D01*
G37*
G36*
X135166822Y-105861313D02*
G01*
X135327241Y-105909976D01*
X135475077Y-105988995D01*
X135604659Y-106095341D01*
X135711004Y-106224922D01*
X135711005Y-106224924D01*
X135790024Y-106372758D01*
X135838687Y-106533177D01*
X135851000Y-106658196D01*
X135851000Y-107341803D01*
X135838687Y-107466822D01*
X135790024Y-107627242D01*
X135719114Y-107759906D01*
X135711004Y-107775078D01*
X135604659Y-107904659D01*
X135475078Y-108011004D01*
X135475076Y-108011005D01*
X135327242Y-108090024D01*
X135166823Y-108138687D01*
X135000000Y-108155117D01*
X134833178Y-108138687D01*
X134672759Y-108090024D01*
X134524925Y-108011005D01*
X134524923Y-108011004D01*
X134395342Y-107904659D01*
X134288997Y-107775078D01*
X134209975Y-107627239D01*
X134161313Y-107466826D01*
X134149000Y-107341804D01*
X134149000Y-106658197D01*
X134161313Y-106533178D01*
X134209976Y-106372759D01*
X134288995Y-106224923D01*
X134395341Y-106095341D01*
X134524922Y-105988996D01*
X134540094Y-105980886D01*
X134672758Y-105909976D01*
X134833177Y-105861313D01*
X135000000Y-105844883D01*
X135166822Y-105861313D01*
X135166822Y-105861313D01*
G37*
G36*
X75214794Y-101420155D02*
G01*
X75321150Y-101441311D01*
X75521520Y-101524307D01*
X75701844Y-101644795D01*
X75855205Y-101798156D01*
X75975693Y-101978480D01*
X76058689Y-102178851D01*
X76101000Y-102391560D01*
X76101000Y-102608440D01*
X76058689Y-102821149D01*
X75975693Y-103021520D01*
X75855205Y-103201844D01*
X75701844Y-103355205D01*
X75521520Y-103475693D01*
X75321150Y-103558689D01*
X75214795Y-103579844D01*
X75108440Y-103601000D01*
X74891560Y-103601000D01*
X74785205Y-103579844D01*
X74678850Y-103558689D01*
X74578666Y-103517191D01*
X74478480Y-103475693D01*
X74298156Y-103355205D01*
X74144795Y-103201844D01*
X74024307Y-103021520D01*
X73941311Y-102821149D01*
X73899000Y-102608440D01*
X73899000Y-102391560D01*
X73941311Y-102178851D01*
X74024307Y-101978480D01*
X74144795Y-101798156D01*
X74298156Y-101644795D01*
X74478480Y-101524307D01*
X74578666Y-101482809D01*
X74678850Y-101441311D01*
X74785205Y-101420156D01*
X74891560Y-101399000D01*
X75108440Y-101399000D01*
X75214794Y-101420155D01*
X75214794Y-101420155D01*
G37*
G36*
X155214794Y-101420155D02*
G01*
X155321150Y-101441311D01*
X155521520Y-101524307D01*
X155701844Y-101644795D01*
X155855205Y-101798156D01*
X155975693Y-101978480D01*
X156058689Y-102178851D01*
X156101000Y-102391560D01*
X156101000Y-102608440D01*
X156058689Y-102821149D01*
X155975693Y-103021520D01*
X155855205Y-103201844D01*
X155701844Y-103355205D01*
X155521520Y-103475693D01*
X155321150Y-103558689D01*
X155214795Y-103579844D01*
X155108440Y-103601000D01*
X154891560Y-103601000D01*
X154785205Y-103579844D01*
X154678850Y-103558689D01*
X154578666Y-103517191D01*
X154478480Y-103475693D01*
X154298156Y-103355205D01*
X154144795Y-103201844D01*
X154024307Y-103021520D01*
X153941311Y-102821149D01*
X153899000Y-102608440D01*
X153899000Y-102391560D01*
X153941311Y-102178851D01*
X154024307Y-101978480D01*
X154144795Y-101798156D01*
X154298156Y-101644795D01*
X154478480Y-101524307D01*
X154578666Y-101482809D01*
X154678850Y-101441311D01*
X154785205Y-101420156D01*
X154891560Y-101399000D01*
X155108440Y-101399000D01*
X155214794Y-101420155D01*
X155214794Y-101420155D01*
G37*
G36*
X95214794Y-101420155D02*
G01*
X95321150Y-101441311D01*
X95521520Y-101524307D01*
X95701844Y-101644795D01*
X95855205Y-101798156D01*
X95975693Y-101978480D01*
X96058689Y-102178851D01*
X96101000Y-102391560D01*
X96101000Y-102608440D01*
X96058689Y-102821149D01*
X95975693Y-103021520D01*
X95855205Y-103201844D01*
X95701844Y-103355205D01*
X95521520Y-103475693D01*
X95321150Y-103558689D01*
X95214795Y-103579844D01*
X95108440Y-103601000D01*
X94891560Y-103601000D01*
X94785205Y-103579844D01*
X94678850Y-103558689D01*
X94578666Y-103517191D01*
X94478480Y-103475693D01*
X94298156Y-103355205D01*
X94144795Y-103201844D01*
X94024307Y-103021520D01*
X93941311Y-102821149D01*
X93899000Y-102608440D01*
X93899000Y-102391560D01*
X93941311Y-102178851D01*
X94024307Y-101978480D01*
X94144795Y-101798156D01*
X94298156Y-101644795D01*
X94478480Y-101524307D01*
X94578666Y-101482809D01*
X94678850Y-101441311D01*
X94785205Y-101420156D01*
X94891560Y-101399000D01*
X95108440Y-101399000D01*
X95214794Y-101420155D01*
X95214794Y-101420155D01*
G37*
G36*
X135214794Y-101420155D02*
G01*
X135321150Y-101441311D01*
X135521520Y-101524307D01*
X135701844Y-101644795D01*
X135855205Y-101798156D01*
X135975693Y-101978480D01*
X136058689Y-102178851D01*
X136101000Y-102391560D01*
X136101000Y-102608440D01*
X136058689Y-102821149D01*
X135975693Y-103021520D01*
X135855205Y-103201844D01*
X135701844Y-103355205D01*
X135521520Y-103475693D01*
X135321150Y-103558689D01*
X135214795Y-103579844D01*
X135108440Y-103601000D01*
X134891560Y-103601000D01*
X134785205Y-103579844D01*
X134678850Y-103558689D01*
X134578666Y-103517191D01*
X134478480Y-103475693D01*
X134298156Y-103355205D01*
X134144795Y-103201844D01*
X134024307Y-103021520D01*
X133941311Y-102821149D01*
X133899000Y-102608440D01*
X133899000Y-102391560D01*
X133941311Y-102178851D01*
X134024307Y-101978480D01*
X134144795Y-101798156D01*
X134298156Y-101644795D01*
X134478480Y-101524307D01*
X134578666Y-101482809D01*
X134678850Y-101441311D01*
X134785205Y-101420156D01*
X134891560Y-101399000D01*
X135108440Y-101399000D01*
X135214794Y-101420155D01*
X135214794Y-101420155D01*
G37*
G36*
X115214794Y-101420155D02*
G01*
X115321150Y-101441311D01*
X115521520Y-101524307D01*
X115701844Y-101644795D01*
X115855205Y-101798156D01*
X115975693Y-101978480D01*
X116058689Y-102178851D01*
X116101000Y-102391560D01*
X116101000Y-102608440D01*
X116058689Y-102821149D01*
X115975693Y-103021520D01*
X115855205Y-103201844D01*
X115701844Y-103355205D01*
X115521520Y-103475693D01*
X115321150Y-103558689D01*
X115214795Y-103579844D01*
X115108440Y-103601000D01*
X114891560Y-103601000D01*
X114785205Y-103579844D01*
X114678850Y-103558689D01*
X114578666Y-103517191D01*
X114478480Y-103475693D01*
X114298156Y-103355205D01*
X114144795Y-103201844D01*
X114024307Y-103021520D01*
X113941311Y-102821149D01*
X113899000Y-102608440D01*
X113899000Y-102391560D01*
X113941311Y-102178851D01*
X114024307Y-101978480D01*
X114144795Y-101798156D01*
X114298156Y-101644795D01*
X114478480Y-101524307D01*
X114578666Y-101482809D01*
X114678850Y-101441311D01*
X114785205Y-101420156D01*
X114891560Y-101399000D01*
X115108440Y-101399000D01*
X115214794Y-101420155D01*
X115214794Y-101420155D01*
G37*
G36*
X91879591Y-85926485D02*
G01*
X91913569Y-85936793D01*
X91944890Y-85953534D01*
X91972339Y-85976061D01*
X91994866Y-86003510D01*
X92011607Y-86034831D01*
X92021915Y-86068809D01*
X92026000Y-86110290D01*
X92026000Y-86711510D01*
X92021915Y-86752991D01*
X92011607Y-86786969D01*
X91994866Y-86818290D01*
X91972339Y-86845739D01*
X91944890Y-86868266D01*
X91913569Y-86885007D01*
X91879591Y-86895315D01*
X91838110Y-86899400D01*
X91161890Y-86899400D01*
X91120409Y-86895315D01*
X91086431Y-86885007D01*
X91055110Y-86868266D01*
X91027661Y-86845739D01*
X91005134Y-86818290D01*
X90988393Y-86786969D01*
X90978085Y-86752991D01*
X90974000Y-86711510D01*
X90974000Y-86110290D01*
X90978085Y-86068809D01*
X90988393Y-86034831D01*
X91005134Y-86003510D01*
X91027661Y-85976061D01*
X91055110Y-85953534D01*
X91086431Y-85936793D01*
X91120409Y-85926485D01*
X91161890Y-85922400D01*
X91838110Y-85922400D01*
X91879591Y-85926485D01*
X91879591Y-85926485D01*
G37*
G36*
X93379591Y-85923085D02*
G01*
X93413569Y-85933393D01*
X93444890Y-85950134D01*
X93472339Y-85972661D01*
X93494866Y-86000110D01*
X93511607Y-86031431D01*
X93521915Y-86065409D01*
X93526000Y-86106890D01*
X93526000Y-86708110D01*
X93521915Y-86749591D01*
X93511607Y-86783569D01*
X93494866Y-86814890D01*
X93472339Y-86842339D01*
X93444890Y-86864866D01*
X93413569Y-86881607D01*
X93379591Y-86891915D01*
X93338110Y-86896000D01*
X92661890Y-86896000D01*
X92620409Y-86891915D01*
X92586431Y-86881607D01*
X92555110Y-86864866D01*
X92527661Y-86842339D01*
X92505134Y-86814890D01*
X92488393Y-86783569D01*
X92478085Y-86749591D01*
X92474000Y-86708110D01*
X92474000Y-86106890D01*
X92478085Y-86065409D01*
X92488393Y-86031431D01*
X92505134Y-86000110D01*
X92527661Y-85972661D01*
X92555110Y-85950134D01*
X92586431Y-85933393D01*
X92620409Y-85923085D01*
X92661890Y-85919000D01*
X93338110Y-85919000D01*
X93379591Y-85923085D01*
X93379591Y-85923085D01*
G37*
G36*
X85870891Y-85890885D02*
G01*
X85904869Y-85901193D01*
X85936190Y-85917934D01*
X85963639Y-85940461D01*
X85986166Y-85967910D01*
X86002907Y-85999231D01*
X86013215Y-86033209D01*
X86017300Y-86074690D01*
X86017300Y-86675910D01*
X86013215Y-86717391D01*
X86002907Y-86751369D01*
X85986166Y-86782690D01*
X85963639Y-86810139D01*
X85936190Y-86832666D01*
X85904869Y-86849407D01*
X85870891Y-86859715D01*
X85829410Y-86863800D01*
X85153190Y-86863800D01*
X85111709Y-86859715D01*
X85077731Y-86849407D01*
X85046410Y-86832666D01*
X85018961Y-86810139D01*
X84996434Y-86782690D01*
X84979693Y-86751369D01*
X84969385Y-86717391D01*
X84965300Y-86675910D01*
X84965300Y-86074690D01*
X84969385Y-86033209D01*
X84979693Y-85999231D01*
X84996434Y-85967910D01*
X85018961Y-85940461D01*
X85046410Y-85917934D01*
X85077731Y-85901193D01*
X85111709Y-85890885D01*
X85153190Y-85886800D01*
X85829410Y-85886800D01*
X85870891Y-85890885D01*
X85870891Y-85890885D01*
G37*
G36*
X94867591Y-85875585D02*
G01*
X94901569Y-85885893D01*
X94932890Y-85902634D01*
X94960339Y-85925161D01*
X94982866Y-85952610D01*
X94999607Y-85983931D01*
X95009915Y-86017909D01*
X95014000Y-86059390D01*
X95014000Y-86660610D01*
X95009915Y-86702091D01*
X94999607Y-86736069D01*
X94982866Y-86767390D01*
X94960339Y-86794839D01*
X94932890Y-86817366D01*
X94901569Y-86834107D01*
X94867591Y-86844415D01*
X94826110Y-86848500D01*
X94149890Y-86848500D01*
X94108409Y-86844415D01*
X94074431Y-86834107D01*
X94043110Y-86817366D01*
X94015661Y-86794839D01*
X93993134Y-86767390D01*
X93976393Y-86736069D01*
X93966085Y-86702091D01*
X93962000Y-86660610D01*
X93962000Y-86059390D01*
X93966085Y-86017909D01*
X93976393Y-85983931D01*
X93993134Y-85952610D01*
X94015661Y-85925161D01*
X94043110Y-85902634D01*
X94074431Y-85885893D01*
X94108409Y-85875585D01*
X94149890Y-85871500D01*
X94826110Y-85871500D01*
X94867591Y-85875585D01*
X94867591Y-85875585D01*
G37*
G36*
X155883642Y-85079781D02*
G01*
X156029414Y-85140162D01*
X156029416Y-85140163D01*
X156160608Y-85227822D01*
X156272178Y-85339392D01*
X156359837Y-85470584D01*
X156359838Y-85470586D01*
X156420219Y-85616358D01*
X156451000Y-85771107D01*
X156451000Y-85928893D01*
X156420219Y-86083642D01*
X156359838Y-86229414D01*
X156359837Y-86229416D01*
X156272178Y-86360608D01*
X156160608Y-86472178D01*
X156029416Y-86559837D01*
X156029415Y-86559838D01*
X156029414Y-86559838D01*
X155883642Y-86620219D01*
X155728893Y-86651000D01*
X155571107Y-86651000D01*
X155416358Y-86620219D01*
X155270586Y-86559838D01*
X155270585Y-86559838D01*
X155270584Y-86559837D01*
X155139392Y-86472178D01*
X155027822Y-86360608D01*
X154940163Y-86229416D01*
X154940162Y-86229414D01*
X154879781Y-86083642D01*
X154849000Y-85928893D01*
X154849000Y-85771107D01*
X154879781Y-85616358D01*
X154940162Y-85470586D01*
X154940163Y-85470584D01*
X155027822Y-85339392D01*
X155139392Y-85227822D01*
X155270584Y-85140163D01*
X155270586Y-85140162D01*
X155416358Y-85079781D01*
X155571107Y-85049000D01*
X155728893Y-85049000D01*
X155883642Y-85079781D01*
X155883642Y-85079781D01*
G37*
G36*
X91879591Y-84351485D02*
G01*
X91913569Y-84361793D01*
X91944890Y-84378534D01*
X91972339Y-84401061D01*
X91994866Y-84428510D01*
X92011607Y-84459831D01*
X92021915Y-84493809D01*
X92026000Y-84535290D01*
X92026000Y-85136510D01*
X92021915Y-85177991D01*
X92011607Y-85211969D01*
X91994866Y-85243290D01*
X91972339Y-85270739D01*
X91944890Y-85293266D01*
X91913569Y-85310007D01*
X91879591Y-85320315D01*
X91838110Y-85324400D01*
X91161890Y-85324400D01*
X91120409Y-85320315D01*
X91086431Y-85310007D01*
X91055110Y-85293266D01*
X91027661Y-85270739D01*
X91005134Y-85243290D01*
X90988393Y-85211969D01*
X90978085Y-85177991D01*
X90974000Y-85136510D01*
X90974000Y-84535290D01*
X90978085Y-84493809D01*
X90988393Y-84459831D01*
X91005134Y-84428510D01*
X91027661Y-84401061D01*
X91055110Y-84378534D01*
X91086431Y-84361793D01*
X91120409Y-84351485D01*
X91161890Y-84347400D01*
X91838110Y-84347400D01*
X91879591Y-84351485D01*
X91879591Y-84351485D01*
G37*
G36*
X93379591Y-84348085D02*
G01*
X93413569Y-84358393D01*
X93444890Y-84375134D01*
X93472339Y-84397661D01*
X93494866Y-84425110D01*
X93511607Y-84456431D01*
X93521915Y-84490409D01*
X93526000Y-84531890D01*
X93526000Y-85133110D01*
X93521915Y-85174591D01*
X93511607Y-85208569D01*
X93494866Y-85239890D01*
X93472339Y-85267339D01*
X93444890Y-85289866D01*
X93413569Y-85306607D01*
X93379591Y-85316915D01*
X93338110Y-85321000D01*
X92661890Y-85321000D01*
X92620409Y-85316915D01*
X92586431Y-85306607D01*
X92555110Y-85289866D01*
X92527661Y-85267339D01*
X92505134Y-85239890D01*
X92488393Y-85208569D01*
X92478085Y-85174591D01*
X92474000Y-85133110D01*
X92474000Y-84531890D01*
X92478085Y-84490409D01*
X92488393Y-84456431D01*
X92505134Y-84425110D01*
X92527661Y-84397661D01*
X92555110Y-84375134D01*
X92586431Y-84358393D01*
X92620409Y-84348085D01*
X92661890Y-84344000D01*
X93338110Y-84344000D01*
X93379591Y-84348085D01*
X93379591Y-84348085D01*
G37*
G36*
X85870891Y-84315885D02*
G01*
X85904869Y-84326193D01*
X85936190Y-84342934D01*
X85963639Y-84365461D01*
X85986166Y-84392910D01*
X86002907Y-84424231D01*
X86013215Y-84458209D01*
X86017300Y-84499690D01*
X86017300Y-85100910D01*
X86013215Y-85142391D01*
X86002907Y-85176369D01*
X85986166Y-85207690D01*
X85963639Y-85235139D01*
X85936190Y-85257666D01*
X85904869Y-85274407D01*
X85870891Y-85284715D01*
X85829410Y-85288800D01*
X85153190Y-85288800D01*
X85111709Y-85284715D01*
X85077731Y-85274407D01*
X85046410Y-85257666D01*
X85018961Y-85235139D01*
X84996434Y-85207690D01*
X84979693Y-85176369D01*
X84969385Y-85142391D01*
X84965300Y-85100910D01*
X84965300Y-84499690D01*
X84969385Y-84458209D01*
X84979693Y-84424231D01*
X84996434Y-84392910D01*
X85018961Y-84365461D01*
X85046410Y-84342934D01*
X85077731Y-84326193D01*
X85111709Y-84315885D01*
X85153190Y-84311800D01*
X85829410Y-84311800D01*
X85870891Y-84315885D01*
X85870891Y-84315885D01*
G37*
G36*
X94867591Y-84300585D02*
G01*
X94901569Y-84310893D01*
X94932890Y-84327634D01*
X94960339Y-84350161D01*
X94982866Y-84377610D01*
X94999607Y-84408931D01*
X95009915Y-84442909D01*
X95014000Y-84484390D01*
X95014000Y-85085610D01*
X95009915Y-85127091D01*
X94999607Y-85161069D01*
X94982866Y-85192390D01*
X94960339Y-85219839D01*
X94932890Y-85242366D01*
X94901569Y-85259107D01*
X94867591Y-85269415D01*
X94826110Y-85273500D01*
X94149890Y-85273500D01*
X94108409Y-85269415D01*
X94074431Y-85259107D01*
X94043110Y-85242366D01*
X94015661Y-85219839D01*
X93993134Y-85192390D01*
X93976393Y-85161069D01*
X93966085Y-85127091D01*
X93962000Y-85085610D01*
X93962000Y-84484390D01*
X93966085Y-84442909D01*
X93976393Y-84408931D01*
X93993134Y-84377610D01*
X94015661Y-84350161D01*
X94043110Y-84327634D01*
X94074431Y-84310893D01*
X94108409Y-84300585D01*
X94149890Y-84296500D01*
X94826110Y-84296500D01*
X94867591Y-84300585D01*
X94867591Y-84300585D01*
G37*
G36*
X88879591Y-84078085D02*
G01*
X88913569Y-84088393D01*
X88944890Y-84105134D01*
X88972339Y-84127661D01*
X88994866Y-84155110D01*
X89011607Y-84186431D01*
X89021915Y-84220409D01*
X89026000Y-84261890D01*
X89026000Y-84938110D01*
X89021915Y-84979591D01*
X89011607Y-85013569D01*
X88994866Y-85044890D01*
X88972339Y-85072339D01*
X88944890Y-85094866D01*
X88913569Y-85111607D01*
X88879591Y-85121915D01*
X88838110Y-85126000D01*
X88236890Y-85126000D01*
X88195409Y-85121915D01*
X88161431Y-85111607D01*
X88130110Y-85094866D01*
X88102661Y-85072339D01*
X88080134Y-85044890D01*
X88063393Y-85013569D01*
X88053085Y-84979591D01*
X88049000Y-84938110D01*
X88049000Y-84261890D01*
X88053085Y-84220409D01*
X88063393Y-84186431D01*
X88080134Y-84155110D01*
X88102661Y-84127661D01*
X88130110Y-84105134D01*
X88161431Y-84088393D01*
X88195409Y-84078085D01*
X88236890Y-84074000D01*
X88838110Y-84074000D01*
X88879591Y-84078085D01*
X88879591Y-84078085D01*
G37*
G36*
X87304591Y-84078085D02*
G01*
X87338569Y-84088393D01*
X87369890Y-84105134D01*
X87397339Y-84127661D01*
X87419866Y-84155110D01*
X87436607Y-84186431D01*
X87446915Y-84220409D01*
X87451000Y-84261890D01*
X87451000Y-84938110D01*
X87446915Y-84979591D01*
X87436607Y-85013569D01*
X87419866Y-85044890D01*
X87397339Y-85072339D01*
X87369890Y-85094866D01*
X87338569Y-85111607D01*
X87304591Y-85121915D01*
X87263110Y-85126000D01*
X86661890Y-85126000D01*
X86620409Y-85121915D01*
X86586431Y-85111607D01*
X86555110Y-85094866D01*
X86527661Y-85072339D01*
X86505134Y-85044890D01*
X86488393Y-85013569D01*
X86478085Y-84979591D01*
X86474000Y-84938110D01*
X86474000Y-84261890D01*
X86478085Y-84220409D01*
X86488393Y-84186431D01*
X86505134Y-84155110D01*
X86527661Y-84127661D01*
X86555110Y-84105134D01*
X86586431Y-84088393D01*
X86620409Y-84078085D01*
X86661890Y-84074000D01*
X87263110Y-84074000D01*
X87304591Y-84078085D01*
X87304591Y-84078085D01*
G37*
G36*
X94608014Y-81456973D02*
G01*
X94711878Y-81488479D01*
X94755907Y-81512013D01*
X94807599Y-81539643D01*
X94807601Y-81539644D01*
X94807600Y-81539644D01*
X94891501Y-81608499D01*
X94960356Y-81692400D01*
X95011521Y-81788121D01*
X95043027Y-81891985D01*
X95051000Y-81972933D01*
X95051000Y-83027067D01*
X95043027Y-83108015D01*
X95011521Y-83211879D01*
X95011519Y-83211882D01*
X94960357Y-83307600D01*
X94891501Y-83391501D01*
X94807600Y-83460357D01*
X94739055Y-83496995D01*
X94711879Y-83511521D01*
X94608015Y-83543027D01*
X94500000Y-83553666D01*
X94391986Y-83543027D01*
X94288122Y-83511521D01*
X94260946Y-83496995D01*
X94192401Y-83460357D01*
X94108500Y-83391501D01*
X94039644Y-83307600D01*
X93988482Y-83211882D01*
X93988480Y-83211879D01*
X93956974Y-83108015D01*
X93949001Y-83027067D01*
X93949000Y-81972934D01*
X93956973Y-81891986D01*
X93988479Y-81788122D01*
X94039644Y-81692400D01*
X94108499Y-81608499D01*
X94192400Y-81539644D01*
X94192399Y-81539644D01*
X94192401Y-81539643D01*
X94244093Y-81512013D01*
X94288121Y-81488479D01*
X94391985Y-81456973D01*
X94500000Y-81446334D01*
X94608014Y-81456973D01*
X94608014Y-81456973D01*
G37*
G36*
X87108014Y-81456973D02*
G01*
X87211878Y-81488479D01*
X87255907Y-81512013D01*
X87307599Y-81539643D01*
X87307601Y-81539644D01*
X87307600Y-81539644D01*
X87391501Y-81608499D01*
X87460356Y-81692400D01*
X87511521Y-81788121D01*
X87543027Y-81891985D01*
X87551000Y-81972933D01*
X87551000Y-83027067D01*
X87543027Y-83108015D01*
X87511521Y-83211879D01*
X87511519Y-83211882D01*
X87460357Y-83307600D01*
X87391501Y-83391501D01*
X87307600Y-83460357D01*
X87239055Y-83496995D01*
X87211879Y-83511521D01*
X87108015Y-83543027D01*
X87000000Y-83553666D01*
X86891986Y-83543027D01*
X86788122Y-83511521D01*
X86760946Y-83496995D01*
X86692401Y-83460357D01*
X86608500Y-83391501D01*
X86539644Y-83307600D01*
X86488482Y-83211882D01*
X86488480Y-83211879D01*
X86456974Y-83108015D01*
X86449001Y-83027067D01*
X86449000Y-81972934D01*
X86456973Y-81891986D01*
X86488479Y-81788122D01*
X86539644Y-81692400D01*
X86608499Y-81608499D01*
X86692400Y-81539644D01*
X86692399Y-81539644D01*
X86692401Y-81539643D01*
X86744093Y-81512013D01*
X86788121Y-81488479D01*
X86891985Y-81456973D01*
X87000000Y-81446334D01*
X87108014Y-81456973D01*
X87108014Y-81456973D01*
G37*
G36*
X96108014Y-81456973D02*
G01*
X96211878Y-81488479D01*
X96255907Y-81512013D01*
X96307599Y-81539643D01*
X96307601Y-81539644D01*
X96307600Y-81539644D01*
X96391501Y-81608499D01*
X96460356Y-81692400D01*
X96511521Y-81788121D01*
X96543027Y-81891985D01*
X96551000Y-81972933D01*
X96551000Y-83027067D01*
X96543027Y-83108015D01*
X96511521Y-83211879D01*
X96511519Y-83211882D01*
X96460357Y-83307600D01*
X96391501Y-83391501D01*
X96307600Y-83460357D01*
X96239055Y-83496995D01*
X96211879Y-83511521D01*
X96108015Y-83543027D01*
X96000000Y-83553666D01*
X95891986Y-83543027D01*
X95788122Y-83511521D01*
X95760946Y-83496995D01*
X95692401Y-83460357D01*
X95608500Y-83391501D01*
X95539644Y-83307600D01*
X95488482Y-83211882D01*
X95488480Y-83211879D01*
X95456974Y-83108015D01*
X95449001Y-83027067D01*
X95449000Y-81972934D01*
X95456973Y-81891986D01*
X95488479Y-81788122D01*
X95539644Y-81692400D01*
X95608499Y-81608499D01*
X95692400Y-81539644D01*
X95692399Y-81539644D01*
X95692401Y-81539643D01*
X95744093Y-81512013D01*
X95788121Y-81488479D01*
X95891985Y-81456973D01*
X96000000Y-81446334D01*
X96108014Y-81456973D01*
X96108014Y-81456973D01*
G37*
G36*
X93108014Y-81456973D02*
G01*
X93211878Y-81488479D01*
X93255907Y-81512013D01*
X93307599Y-81539643D01*
X93307601Y-81539644D01*
X93307600Y-81539644D01*
X93391501Y-81608499D01*
X93460356Y-81692400D01*
X93511521Y-81788121D01*
X93543027Y-81891985D01*
X93551000Y-81972933D01*
X93551000Y-83027067D01*
X93543027Y-83108015D01*
X93511521Y-83211879D01*
X93511519Y-83211882D01*
X93460357Y-83307600D01*
X93391501Y-83391501D01*
X93307600Y-83460357D01*
X93239055Y-83496995D01*
X93211879Y-83511521D01*
X93108015Y-83543027D01*
X93000000Y-83553666D01*
X92891986Y-83543027D01*
X92788122Y-83511521D01*
X92760946Y-83496995D01*
X92692401Y-83460357D01*
X92608500Y-83391501D01*
X92539644Y-83307600D01*
X92488482Y-83211882D01*
X92488480Y-83211879D01*
X92456974Y-83108015D01*
X92449001Y-83027067D01*
X92449000Y-81972934D01*
X92456973Y-81891986D01*
X92488479Y-81788122D01*
X92539644Y-81692400D01*
X92608499Y-81608499D01*
X92692400Y-81539644D01*
X92692399Y-81539644D01*
X92692401Y-81539643D01*
X92744093Y-81512013D01*
X92788121Y-81488479D01*
X92891985Y-81456973D01*
X93000000Y-81446334D01*
X93108014Y-81456973D01*
X93108014Y-81456973D01*
G37*
G36*
X91608014Y-81456973D02*
G01*
X91711878Y-81488479D01*
X91755907Y-81512013D01*
X91807599Y-81539643D01*
X91807601Y-81539644D01*
X91807600Y-81539644D01*
X91891501Y-81608499D01*
X91960356Y-81692400D01*
X92011521Y-81788121D01*
X92043027Y-81891985D01*
X92051000Y-81972933D01*
X92051000Y-83027067D01*
X92043027Y-83108015D01*
X92011521Y-83211879D01*
X92011519Y-83211882D01*
X91960357Y-83307600D01*
X91891501Y-83391501D01*
X91807600Y-83460357D01*
X91739055Y-83496995D01*
X91711879Y-83511521D01*
X91608015Y-83543027D01*
X91500000Y-83553666D01*
X91391986Y-83543027D01*
X91288122Y-83511521D01*
X91260946Y-83496995D01*
X91192401Y-83460357D01*
X91108500Y-83391501D01*
X91039644Y-83307600D01*
X90988482Y-83211882D01*
X90988480Y-83211879D01*
X90956974Y-83108015D01*
X90949001Y-83027067D01*
X90949000Y-81972934D01*
X90956973Y-81891986D01*
X90988479Y-81788122D01*
X91039644Y-81692400D01*
X91108499Y-81608499D01*
X91192400Y-81539644D01*
X91192399Y-81539644D01*
X91192401Y-81539643D01*
X91244093Y-81512013D01*
X91288121Y-81488479D01*
X91391985Y-81456973D01*
X91500000Y-81446334D01*
X91608014Y-81456973D01*
X91608014Y-81456973D01*
G37*
G36*
X90108014Y-81456973D02*
G01*
X90211878Y-81488479D01*
X90255907Y-81512013D01*
X90307599Y-81539643D01*
X90307601Y-81539644D01*
X90307600Y-81539644D01*
X90391501Y-81608499D01*
X90460356Y-81692400D01*
X90511521Y-81788121D01*
X90543027Y-81891985D01*
X90551000Y-81972933D01*
X90551000Y-83027067D01*
X90543027Y-83108015D01*
X90511521Y-83211879D01*
X90511519Y-83211882D01*
X90460357Y-83307600D01*
X90391501Y-83391501D01*
X90307600Y-83460357D01*
X90239055Y-83496995D01*
X90211879Y-83511521D01*
X90108015Y-83543027D01*
X90000000Y-83553666D01*
X89891986Y-83543027D01*
X89788122Y-83511521D01*
X89760946Y-83496995D01*
X89692401Y-83460357D01*
X89608500Y-83391501D01*
X89539644Y-83307600D01*
X89488482Y-83211882D01*
X89488480Y-83211879D01*
X89456974Y-83108015D01*
X89449001Y-83027067D01*
X89449000Y-81972934D01*
X89456973Y-81891986D01*
X89488479Y-81788122D01*
X89539644Y-81692400D01*
X89608499Y-81608499D01*
X89692400Y-81539644D01*
X89692399Y-81539644D01*
X89692401Y-81539643D01*
X89744093Y-81512013D01*
X89788121Y-81488479D01*
X89891985Y-81456973D01*
X90000000Y-81446334D01*
X90108014Y-81456973D01*
X90108014Y-81456973D01*
G37*
G36*
X85608014Y-81456973D02*
G01*
X85711878Y-81488479D01*
X85755907Y-81512013D01*
X85807599Y-81539643D01*
X85807601Y-81539644D01*
X85807600Y-81539644D01*
X85891501Y-81608499D01*
X85960356Y-81692400D01*
X86011521Y-81788121D01*
X86043027Y-81891985D01*
X86051000Y-81972933D01*
X86051000Y-83027067D01*
X86043027Y-83108015D01*
X86011521Y-83211879D01*
X86011519Y-83211882D01*
X85960357Y-83307600D01*
X85891501Y-83391501D01*
X85807600Y-83460357D01*
X85739055Y-83496995D01*
X85711879Y-83511521D01*
X85608015Y-83543027D01*
X85500000Y-83553666D01*
X85391986Y-83543027D01*
X85288122Y-83511521D01*
X85260946Y-83496995D01*
X85192401Y-83460357D01*
X85108500Y-83391501D01*
X85039644Y-83307600D01*
X84988482Y-83211882D01*
X84988480Y-83211879D01*
X84956974Y-83108015D01*
X84949001Y-83027067D01*
X84949000Y-81972934D01*
X84956973Y-81891986D01*
X84988479Y-81788122D01*
X85039644Y-81692400D01*
X85108499Y-81608499D01*
X85192400Y-81539644D01*
X85192399Y-81539644D01*
X85192401Y-81539643D01*
X85244093Y-81512013D01*
X85288121Y-81488479D01*
X85391985Y-81456973D01*
X85500000Y-81446334D01*
X85608014Y-81456973D01*
X85608014Y-81456973D01*
G37*
G36*
X88608014Y-81456973D02*
G01*
X88711878Y-81488479D01*
X88755907Y-81512013D01*
X88807599Y-81539643D01*
X88807601Y-81539644D01*
X88807600Y-81539644D01*
X88891501Y-81608499D01*
X88960356Y-81692400D01*
X89011521Y-81788121D01*
X89043027Y-81891985D01*
X89051000Y-81972933D01*
X89051000Y-83027067D01*
X89043027Y-83108015D01*
X89011521Y-83211879D01*
X89011519Y-83211882D01*
X88960357Y-83307600D01*
X88891501Y-83391501D01*
X88807600Y-83460357D01*
X88739055Y-83496995D01*
X88711879Y-83511521D01*
X88608015Y-83543027D01*
X88500000Y-83553666D01*
X88391986Y-83543027D01*
X88288122Y-83511521D01*
X88260946Y-83496995D01*
X88192401Y-83460357D01*
X88108500Y-83391501D01*
X88039644Y-83307600D01*
X87988482Y-83211882D01*
X87988480Y-83211879D01*
X87956974Y-83108015D01*
X87949001Y-83027067D01*
X87949000Y-81972934D01*
X87956973Y-81891986D01*
X87988479Y-81788122D01*
X88039644Y-81692400D01*
X88108499Y-81608499D01*
X88192400Y-81539644D01*
X88192399Y-81539644D01*
X88192401Y-81539643D01*
X88244093Y-81512013D01*
X88288121Y-81488479D01*
X88391985Y-81456973D01*
X88500000Y-81446334D01*
X88608014Y-81456973D01*
X88608014Y-81456973D01*
G37*
G36*
X84551000Y-83551000D02*
G01*
X83449000Y-83551000D01*
X83449000Y-81449000D01*
X84551000Y-81449000D01*
X84551000Y-83551000D01*
X84551000Y-83551000D01*
G37*
G36*
X102601000Y-81817400D02*
G01*
X101599000Y-81817400D01*
X101599000Y-80915400D01*
X102601000Y-80915400D01*
X102601000Y-81817400D01*
X102601000Y-81817400D01*
G37*
G36*
X80354268Y-79669965D02*
G01*
X80392938Y-79681696D01*
X80428577Y-79700746D01*
X80459817Y-79726383D01*
X80485454Y-79757623D01*
X80504504Y-79793262D01*
X80516235Y-79831932D01*
X80520800Y-79878288D01*
X80520800Y-80954512D01*
X80516235Y-81000868D01*
X80504504Y-81039538D01*
X80485454Y-81075177D01*
X80459817Y-81106417D01*
X80428577Y-81132054D01*
X80392938Y-81151104D01*
X80354268Y-81162835D01*
X80307912Y-81167400D01*
X79656688Y-81167400D01*
X79610332Y-81162835D01*
X79571662Y-81151104D01*
X79536023Y-81132054D01*
X79504783Y-81106417D01*
X79479146Y-81075177D01*
X79460096Y-81039538D01*
X79448365Y-81000868D01*
X79443800Y-80954512D01*
X79443800Y-79878288D01*
X79448365Y-79831932D01*
X79460096Y-79793262D01*
X79479146Y-79757623D01*
X79504783Y-79726383D01*
X79536023Y-79700746D01*
X79571662Y-79681696D01*
X79610332Y-79669965D01*
X79656688Y-79665400D01*
X80307912Y-79665400D01*
X80354268Y-79669965D01*
X80354268Y-79669965D01*
G37*
G36*
X78479268Y-79669965D02*
G01*
X78517938Y-79681696D01*
X78553577Y-79700746D01*
X78584817Y-79726383D01*
X78610454Y-79757623D01*
X78629504Y-79793262D01*
X78641235Y-79831932D01*
X78645800Y-79878288D01*
X78645800Y-80954512D01*
X78641235Y-81000868D01*
X78629504Y-81039538D01*
X78610454Y-81075177D01*
X78584817Y-81106417D01*
X78553577Y-81132054D01*
X78517938Y-81151104D01*
X78479268Y-81162835D01*
X78432912Y-81167400D01*
X77781688Y-81167400D01*
X77735332Y-81162835D01*
X77696662Y-81151104D01*
X77661023Y-81132054D01*
X77629783Y-81106417D01*
X77604146Y-81075177D01*
X77585096Y-81039538D01*
X77573365Y-81000868D01*
X77568800Y-80954512D01*
X77568800Y-79878288D01*
X77573365Y-79831932D01*
X77585096Y-79793262D01*
X77604146Y-79757623D01*
X77629783Y-79726383D01*
X77661023Y-79700746D01*
X77696662Y-79681696D01*
X77735332Y-79669965D01*
X77781688Y-79665400D01*
X78432912Y-79665400D01*
X78479268Y-79669965D01*
X78479268Y-79669965D01*
G37*
G36*
X82508015Y-79856973D02*
G01*
X82611879Y-79888479D01*
X82639055Y-79903005D01*
X82707600Y-79939643D01*
X82791501Y-80008499D01*
X82860357Y-80092400D01*
X82896995Y-80160945D01*
X82911521Y-80188121D01*
X82943027Y-80291985D01*
X82953666Y-80400000D01*
X82943027Y-80508015D01*
X82911521Y-80611879D01*
X82911519Y-80611882D01*
X82860357Y-80707600D01*
X82791501Y-80791501D01*
X82707600Y-80860357D01*
X82639055Y-80896995D01*
X82611879Y-80911521D01*
X82508015Y-80943027D01*
X82427067Y-80951000D01*
X81572933Y-80951000D01*
X81491985Y-80943027D01*
X81388121Y-80911521D01*
X81360945Y-80896995D01*
X81292400Y-80860357D01*
X81208499Y-80791501D01*
X81139643Y-80707600D01*
X81088481Y-80611882D01*
X81088479Y-80611879D01*
X81056973Y-80508015D01*
X81046334Y-80400000D01*
X81056973Y-80291985D01*
X81088479Y-80188121D01*
X81103005Y-80160945D01*
X81139643Y-80092400D01*
X81208499Y-80008499D01*
X81292400Y-79939643D01*
X81360945Y-79903005D01*
X81388121Y-79888479D01*
X81491985Y-79856973D01*
X81572933Y-79849000D01*
X82427067Y-79849000D01*
X82508015Y-79856973D01*
X82508015Y-79856973D01*
G37*
G36*
X98508015Y-79856973D02*
G01*
X98611879Y-79888479D01*
X98639055Y-79903005D01*
X98707600Y-79939643D01*
X98791501Y-80008499D01*
X98860357Y-80092400D01*
X98896995Y-80160945D01*
X98911521Y-80188121D01*
X98943027Y-80291985D01*
X98953666Y-80400000D01*
X98943027Y-80508015D01*
X98911521Y-80611879D01*
X98911519Y-80611882D01*
X98860357Y-80707600D01*
X98791501Y-80791501D01*
X98707600Y-80860357D01*
X98639055Y-80896995D01*
X98611879Y-80911521D01*
X98508015Y-80943027D01*
X98427067Y-80951000D01*
X97572933Y-80951000D01*
X97491985Y-80943027D01*
X97388121Y-80911521D01*
X97360945Y-80896995D01*
X97292400Y-80860357D01*
X97208499Y-80791501D01*
X97139643Y-80707600D01*
X97088481Y-80611882D01*
X97088479Y-80611879D01*
X97056973Y-80508015D01*
X97046334Y-80400000D01*
X97056973Y-80291985D01*
X97088479Y-80188121D01*
X97103005Y-80160945D01*
X97139643Y-80092400D01*
X97208499Y-80008499D01*
X97292400Y-79939643D01*
X97360945Y-79903005D01*
X97388121Y-79888479D01*
X97491985Y-79856973D01*
X97572933Y-79849000D01*
X98427067Y-79849000D01*
X98508015Y-79856973D01*
X98508015Y-79856973D01*
G37*
G36*
X100601000Y-80867400D02*
G01*
X99599000Y-80867400D01*
X99599000Y-79965400D01*
X100601000Y-79965400D01*
X100601000Y-80867400D01*
X100601000Y-80867400D01*
G37*
G36*
X131360442Y-78955518D02*
G01*
X131426627Y-78962037D01*
X131596466Y-79013557D01*
X131752991Y-79097222D01*
X131779145Y-79118686D01*
X131890186Y-79209814D01*
X131973448Y-79311271D01*
X132002778Y-79347009D01*
X132086443Y-79503534D01*
X132137963Y-79673373D01*
X132155359Y-79850000D01*
X132137963Y-80026627D01*
X132086443Y-80196466D01*
X132002778Y-80352991D01*
X131973448Y-80388729D01*
X131890186Y-80490186D01*
X131793579Y-80569468D01*
X131752991Y-80602778D01*
X131596466Y-80686443D01*
X131426627Y-80737963D01*
X131360442Y-80744482D01*
X131294260Y-80751000D01*
X131205740Y-80751000D01*
X131139558Y-80744482D01*
X131073373Y-80737963D01*
X130903534Y-80686443D01*
X130747009Y-80602778D01*
X130706421Y-80569468D01*
X130609814Y-80490186D01*
X130526552Y-80388729D01*
X130497222Y-80352991D01*
X130413557Y-80196466D01*
X130362037Y-80026627D01*
X130344641Y-79850000D01*
X130362037Y-79673373D01*
X130413557Y-79503534D01*
X130497222Y-79347009D01*
X130526552Y-79311271D01*
X130609814Y-79209814D01*
X130720855Y-79118686D01*
X130747009Y-79097222D01*
X130903534Y-79013557D01*
X131073373Y-78962037D01*
X131139558Y-78955518D01*
X131205740Y-78949000D01*
X131294260Y-78949000D01*
X131360442Y-78955518D01*
X131360442Y-78955518D01*
G37*
G36*
X129611000Y-80751000D02*
G01*
X127809000Y-80751000D01*
X127809000Y-78949000D01*
X129611000Y-78949000D01*
X129611000Y-80751000D01*
X129611000Y-80751000D01*
G37*
G36*
X161614468Y-79663565D02*
G01*
X161653138Y-79675296D01*
X161688777Y-79694346D01*
X161720017Y-79719983D01*
X161745654Y-79751223D01*
X161764704Y-79786862D01*
X161776435Y-79825532D01*
X161781000Y-79871888D01*
X161781000Y-80523112D01*
X161776435Y-80569468D01*
X161764704Y-80608138D01*
X161745654Y-80643777D01*
X161720017Y-80675017D01*
X161688777Y-80700654D01*
X161653138Y-80719704D01*
X161614468Y-80731435D01*
X161568112Y-80736000D01*
X160491888Y-80736000D01*
X160445532Y-80731435D01*
X160406862Y-80719704D01*
X160371223Y-80700654D01*
X160339983Y-80675017D01*
X160314346Y-80643777D01*
X160295296Y-80608138D01*
X160283565Y-80569468D01*
X160279000Y-80523112D01*
X160279000Y-79871888D01*
X160283565Y-79825532D01*
X160295296Y-79786862D01*
X160314346Y-79751223D01*
X160339983Y-79719983D01*
X160371223Y-79694346D01*
X160406862Y-79675296D01*
X160445532Y-79663565D01*
X160491888Y-79659000D01*
X161568112Y-79659000D01*
X161614468Y-79663565D01*
X161614468Y-79663565D01*
G37*
G36*
X102601000Y-79917400D02*
G01*
X101599000Y-79917400D01*
X101599000Y-79015400D01*
X102601000Y-79015400D01*
X102601000Y-79917400D01*
X102601000Y-79917400D01*
G37*
G36*
X155816823Y-77441313D02*
G01*
X155977242Y-77489976D01*
X156109906Y-77560886D01*
X156125078Y-77568996D01*
X156254659Y-77675341D01*
X156361004Y-77804922D01*
X156361005Y-77804924D01*
X156440024Y-77952758D01*
X156488687Y-78113177D01*
X156505117Y-78280000D01*
X156488687Y-78446823D01*
X156488686Y-78446825D01*
X156444724Y-78591750D01*
X156440024Y-78607242D01*
X156372731Y-78733138D01*
X156361004Y-78755078D01*
X156254659Y-78884659D01*
X156125078Y-78991004D01*
X156125076Y-78991005D01*
X155977242Y-79070024D01*
X155816823Y-79118687D01*
X155691804Y-79131000D01*
X155608196Y-79131000D01*
X155483177Y-79118687D01*
X155322758Y-79070024D01*
X155174924Y-78991005D01*
X155174922Y-78991004D01*
X155045341Y-78884659D01*
X154938996Y-78755078D01*
X154927269Y-78733138D01*
X154859976Y-78607242D01*
X154855277Y-78591750D01*
X154811314Y-78446825D01*
X154811313Y-78446823D01*
X154794883Y-78280000D01*
X154811313Y-78113177D01*
X154859976Y-77952758D01*
X154938995Y-77804924D01*
X154938996Y-77804922D01*
X155045341Y-77675341D01*
X155174922Y-77568996D01*
X155190094Y-77560886D01*
X155322758Y-77489976D01*
X155483177Y-77441313D01*
X155608196Y-77429000D01*
X155691804Y-77429000D01*
X155816823Y-77441313D01*
X155816823Y-77441313D01*
G37*
G36*
X158356823Y-77441313D02*
G01*
X158517242Y-77489976D01*
X158649906Y-77560886D01*
X158665078Y-77568996D01*
X158794659Y-77675341D01*
X158901004Y-77804922D01*
X158901005Y-77804924D01*
X158980024Y-77952758D01*
X159028687Y-78113177D01*
X159045117Y-78280000D01*
X159028687Y-78446823D01*
X159028686Y-78446825D01*
X158984724Y-78591750D01*
X158980024Y-78607242D01*
X158912731Y-78733138D01*
X158901004Y-78755078D01*
X158794659Y-78884659D01*
X158665078Y-78991004D01*
X158665076Y-78991005D01*
X158517242Y-79070024D01*
X158356823Y-79118687D01*
X158231804Y-79131000D01*
X158148196Y-79131000D01*
X158023177Y-79118687D01*
X157862758Y-79070024D01*
X157714924Y-78991005D01*
X157714922Y-78991004D01*
X157585341Y-78884659D01*
X157478996Y-78755078D01*
X157467269Y-78733138D01*
X157399976Y-78607242D01*
X157395277Y-78591750D01*
X157351314Y-78446825D01*
X157351313Y-78446823D01*
X157334883Y-78280000D01*
X157351313Y-78113177D01*
X157399976Y-77952758D01*
X157478995Y-77804924D01*
X157478996Y-77804922D01*
X157585341Y-77675341D01*
X157714922Y-77568996D01*
X157730094Y-77560886D01*
X157862758Y-77489976D01*
X158023177Y-77441313D01*
X158148196Y-77429000D01*
X158231804Y-77429000D01*
X158356823Y-77441313D01*
X158356823Y-77441313D01*
G37*
G36*
X161614468Y-77788565D02*
G01*
X161653138Y-77800296D01*
X161688777Y-77819346D01*
X161720017Y-77844983D01*
X161745654Y-77876223D01*
X161764704Y-77911862D01*
X161776435Y-77950532D01*
X161781000Y-77996888D01*
X161781000Y-78648112D01*
X161776435Y-78694468D01*
X161764704Y-78733138D01*
X161745654Y-78768777D01*
X161720017Y-78800017D01*
X161688777Y-78825654D01*
X161653138Y-78844704D01*
X161614468Y-78856435D01*
X161568112Y-78861000D01*
X160491888Y-78861000D01*
X160445532Y-78856435D01*
X160406862Y-78844704D01*
X160371223Y-78825654D01*
X160339983Y-78800017D01*
X160314346Y-78768777D01*
X160295296Y-78733138D01*
X160283565Y-78694468D01*
X160279000Y-78648112D01*
X160279000Y-77996888D01*
X160283565Y-77950532D01*
X160295296Y-77911862D01*
X160314346Y-77876223D01*
X160339983Y-77844983D01*
X160371223Y-77819346D01*
X160406862Y-77800296D01*
X160445532Y-77788565D01*
X160491888Y-77784000D01*
X161568112Y-77784000D01*
X161614468Y-77788565D01*
X161614468Y-77788565D01*
G37*
G36*
X87617091Y-75578085D02*
G01*
X87651069Y-75588393D01*
X87682390Y-75605134D01*
X87709839Y-75627661D01*
X87732366Y-75655110D01*
X87749107Y-75686431D01*
X87759415Y-75720409D01*
X87763500Y-75761890D01*
X87763500Y-76438110D01*
X87759415Y-76479591D01*
X87749107Y-76513569D01*
X87732366Y-76544890D01*
X87709839Y-76572339D01*
X87682390Y-76594866D01*
X87651069Y-76611607D01*
X87617091Y-76621915D01*
X87575610Y-76626000D01*
X86974390Y-76626000D01*
X86932909Y-76621915D01*
X86898931Y-76611607D01*
X86867610Y-76594866D01*
X86840161Y-76572339D01*
X86817634Y-76544890D01*
X86800893Y-76513569D01*
X86790585Y-76479591D01*
X86786500Y-76438110D01*
X86786500Y-75761890D01*
X86790585Y-75720409D01*
X86800893Y-75686431D01*
X86817634Y-75655110D01*
X86840161Y-75627661D01*
X86867610Y-75605134D01*
X86898931Y-75588393D01*
X86932909Y-75578085D01*
X86974390Y-75574000D01*
X87575610Y-75574000D01*
X87617091Y-75578085D01*
X87617091Y-75578085D01*
G37*
G36*
X89192091Y-75578085D02*
G01*
X89226069Y-75588393D01*
X89257390Y-75605134D01*
X89284839Y-75627661D01*
X89307366Y-75655110D01*
X89324107Y-75686431D01*
X89334415Y-75720409D01*
X89338500Y-75761890D01*
X89338500Y-76438110D01*
X89334415Y-76479591D01*
X89324107Y-76513569D01*
X89307366Y-76544890D01*
X89284839Y-76572339D01*
X89257390Y-76594866D01*
X89226069Y-76611607D01*
X89192091Y-76621915D01*
X89150610Y-76626000D01*
X88549390Y-76626000D01*
X88507909Y-76621915D01*
X88473931Y-76611607D01*
X88442610Y-76594866D01*
X88415161Y-76572339D01*
X88392634Y-76544890D01*
X88375893Y-76513569D01*
X88365585Y-76479591D01*
X88361500Y-76438110D01*
X88361500Y-75761890D01*
X88365585Y-75720409D01*
X88375893Y-75686431D01*
X88392634Y-75655110D01*
X88415161Y-75627661D01*
X88442610Y-75605134D01*
X88473931Y-75588393D01*
X88507909Y-75578085D01*
X88549390Y-75574000D01*
X89150610Y-75574000D01*
X89192091Y-75578085D01*
X89192091Y-75578085D01*
G37*
G36*
X155816823Y-74901313D02*
G01*
X155977242Y-74949976D01*
X156109906Y-75020886D01*
X156125078Y-75028996D01*
X156254659Y-75135341D01*
X156361004Y-75264922D01*
X156361005Y-75264924D01*
X156440024Y-75412758D01*
X156488687Y-75573177D01*
X156505117Y-75740000D01*
X156488687Y-75906823D01*
X156440024Y-76067242D01*
X156369114Y-76199906D01*
X156361004Y-76215078D01*
X156254659Y-76344659D01*
X156125078Y-76451004D01*
X156125076Y-76451005D01*
X155977242Y-76530024D01*
X155816823Y-76578687D01*
X155691804Y-76591000D01*
X155608196Y-76591000D01*
X155483177Y-76578687D01*
X155322758Y-76530024D01*
X155174924Y-76451005D01*
X155174922Y-76451004D01*
X155045341Y-76344659D01*
X154938996Y-76215078D01*
X154930886Y-76199906D01*
X154859976Y-76067242D01*
X154811313Y-75906823D01*
X154794883Y-75740000D01*
X154811313Y-75573177D01*
X154859976Y-75412758D01*
X154938995Y-75264924D01*
X154938996Y-75264922D01*
X155045341Y-75135341D01*
X155174922Y-75028996D01*
X155190094Y-75020886D01*
X155322758Y-74949976D01*
X155483177Y-74901313D01*
X155608196Y-74889000D01*
X155691804Y-74889000D01*
X155816823Y-74901313D01*
X155816823Y-74901313D01*
G37*
G36*
X158356823Y-74901313D02*
G01*
X158517242Y-74949976D01*
X158649906Y-75020886D01*
X158665078Y-75028996D01*
X158794659Y-75135341D01*
X158901004Y-75264922D01*
X158901005Y-75264924D01*
X158980024Y-75412758D01*
X159028687Y-75573177D01*
X159045117Y-75740000D01*
X159028687Y-75906823D01*
X158980024Y-76067242D01*
X158909114Y-76199906D01*
X158901004Y-76215078D01*
X158794659Y-76344659D01*
X158665078Y-76451004D01*
X158665076Y-76451005D01*
X158517242Y-76530024D01*
X158356823Y-76578687D01*
X158231804Y-76591000D01*
X158148196Y-76591000D01*
X158023177Y-76578687D01*
X157862758Y-76530024D01*
X157714924Y-76451005D01*
X157714922Y-76451004D01*
X157585341Y-76344659D01*
X157478996Y-76215078D01*
X157470886Y-76199906D01*
X157399976Y-76067242D01*
X157351313Y-75906823D01*
X157334883Y-75740000D01*
X157351313Y-75573177D01*
X157399976Y-75412758D01*
X157478995Y-75264924D01*
X157478996Y-75264922D01*
X157585341Y-75135341D01*
X157714922Y-75028996D01*
X157730094Y-75020886D01*
X157862758Y-74949976D01*
X158023177Y-74901313D01*
X158148196Y-74889000D01*
X158231804Y-74889000D01*
X158356823Y-74901313D01*
X158356823Y-74901313D01*
G37*
G36*
X158356823Y-72361313D02*
G01*
X158517242Y-72409976D01*
X158614362Y-72461888D01*
X158665078Y-72488996D01*
X158794659Y-72595341D01*
X158901004Y-72724922D01*
X158901005Y-72724924D01*
X158980024Y-72872758D01*
X159028687Y-73033177D01*
X159045117Y-73200000D01*
X159028687Y-73366823D01*
X158980024Y-73527242D01*
X158949436Y-73584468D01*
X158901004Y-73675078D01*
X158794659Y-73804659D01*
X158665078Y-73911004D01*
X158665076Y-73911005D01*
X158517242Y-73990024D01*
X158356823Y-74038687D01*
X158231804Y-74051000D01*
X158148196Y-74051000D01*
X158023177Y-74038687D01*
X157862758Y-73990024D01*
X157714924Y-73911005D01*
X157714922Y-73911004D01*
X157585341Y-73804659D01*
X157478996Y-73675078D01*
X157430564Y-73584468D01*
X157399976Y-73527242D01*
X157351313Y-73366823D01*
X157334883Y-73200000D01*
X157351313Y-73033177D01*
X157399976Y-72872758D01*
X157478995Y-72724924D01*
X157478996Y-72724922D01*
X157585341Y-72595341D01*
X157714922Y-72488996D01*
X157765638Y-72461888D01*
X157862758Y-72409976D01*
X158023177Y-72361313D01*
X158148196Y-72349000D01*
X158231804Y-72349000D01*
X158356823Y-72361313D01*
X158356823Y-72361313D01*
G37*
G36*
X156501000Y-74051000D02*
G01*
X154799000Y-74051000D01*
X154799000Y-72349000D01*
X156501000Y-72349000D01*
X156501000Y-74051000D01*
X156501000Y-74051000D01*
G37*
G36*
X97934468Y-72253565D02*
G01*
X97973138Y-72265296D01*
X98008777Y-72284346D01*
X98040017Y-72309983D01*
X98065654Y-72341223D01*
X98084704Y-72376862D01*
X98096435Y-72415532D01*
X98101000Y-72461888D01*
X98101000Y-73538112D01*
X98096435Y-73584468D01*
X98084704Y-73623138D01*
X98065654Y-73658777D01*
X98040017Y-73690017D01*
X98008777Y-73715654D01*
X97973138Y-73734704D01*
X97934468Y-73746435D01*
X97888112Y-73751000D01*
X97236888Y-73751000D01*
X97190532Y-73746435D01*
X97151862Y-73734704D01*
X97116223Y-73715654D01*
X97084983Y-73690017D01*
X97059346Y-73658777D01*
X97040296Y-73623138D01*
X97028565Y-73584468D01*
X97024000Y-73538112D01*
X97024000Y-72461888D01*
X97028565Y-72415532D01*
X97040296Y-72376862D01*
X97059346Y-72341223D01*
X97084983Y-72309983D01*
X97116223Y-72284346D01*
X97151862Y-72265296D01*
X97190532Y-72253565D01*
X97236888Y-72249000D01*
X97888112Y-72249000D01*
X97934468Y-72253565D01*
X97934468Y-72253565D01*
G37*
G36*
X99809468Y-72253565D02*
G01*
X99848138Y-72265296D01*
X99883777Y-72284346D01*
X99915017Y-72309983D01*
X99940654Y-72341223D01*
X99959704Y-72376862D01*
X99971435Y-72415532D01*
X99976000Y-72461888D01*
X99976000Y-73538112D01*
X99971435Y-73584468D01*
X99959704Y-73623138D01*
X99940654Y-73658777D01*
X99915017Y-73690017D01*
X99883777Y-73715654D01*
X99848138Y-73734704D01*
X99809468Y-73746435D01*
X99763112Y-73751000D01*
X99111888Y-73751000D01*
X99065532Y-73746435D01*
X99026862Y-73734704D01*
X98991223Y-73715654D01*
X98959983Y-73690017D01*
X98934346Y-73658777D01*
X98915296Y-73623138D01*
X98903565Y-73584468D01*
X98899000Y-73538112D01*
X98899000Y-72461888D01*
X98903565Y-72415532D01*
X98915296Y-72376862D01*
X98934346Y-72341223D01*
X98959983Y-72309983D01*
X98991223Y-72284346D01*
X99026862Y-72265296D01*
X99065532Y-72253565D01*
X99111888Y-72249000D01*
X99763112Y-72249000D01*
X99809468Y-72253565D01*
X99809468Y-72253565D01*
G37*
G36*
X92926000Y-73051000D02*
G01*
X87074000Y-73051000D01*
X87074000Y-71649000D01*
X92926000Y-71649000D01*
X92926000Y-73051000D01*
X92926000Y-73051000D01*
G37*
G36*
X136091968Y-70753565D02*
G01*
X136130638Y-70765296D01*
X136166277Y-70784346D01*
X136197517Y-70809983D01*
X136223154Y-70841223D01*
X136242204Y-70876862D01*
X136253935Y-70915532D01*
X136258500Y-70961888D01*
X136258500Y-72038112D01*
X136253935Y-72084468D01*
X136242204Y-72123138D01*
X136223154Y-72158777D01*
X136197517Y-72190017D01*
X136166277Y-72215654D01*
X136130638Y-72234704D01*
X136091968Y-72246435D01*
X136045612Y-72251000D01*
X135394388Y-72251000D01*
X135348032Y-72246435D01*
X135309362Y-72234704D01*
X135273723Y-72215654D01*
X135242483Y-72190017D01*
X135216846Y-72158777D01*
X135197796Y-72123138D01*
X135186065Y-72084468D01*
X135181500Y-72038112D01*
X135181500Y-70961888D01*
X135186065Y-70915532D01*
X135197796Y-70876862D01*
X135216846Y-70841223D01*
X135242483Y-70809983D01*
X135273723Y-70784346D01*
X135309362Y-70765296D01*
X135348032Y-70753565D01*
X135394388Y-70749000D01*
X136045612Y-70749000D01*
X136091968Y-70753565D01*
X136091968Y-70753565D01*
G37*
G36*
X134216968Y-70753565D02*
G01*
X134255638Y-70765296D01*
X134291277Y-70784346D01*
X134322517Y-70809983D01*
X134348154Y-70841223D01*
X134367204Y-70876862D01*
X134378935Y-70915532D01*
X134383500Y-70961888D01*
X134383500Y-72038112D01*
X134378935Y-72084468D01*
X134367204Y-72123138D01*
X134348154Y-72158777D01*
X134322517Y-72190017D01*
X134291277Y-72215654D01*
X134255638Y-72234704D01*
X134216968Y-72246435D01*
X134170612Y-72251000D01*
X133519388Y-72251000D01*
X133473032Y-72246435D01*
X133434362Y-72234704D01*
X133398723Y-72215654D01*
X133367483Y-72190017D01*
X133341846Y-72158777D01*
X133322796Y-72123138D01*
X133311065Y-72084468D01*
X133306500Y-72038112D01*
X133306500Y-70961888D01*
X133311065Y-70915532D01*
X133322796Y-70876862D01*
X133341846Y-70841223D01*
X133367483Y-70809983D01*
X133398723Y-70784346D01*
X133434362Y-70765296D01*
X133473032Y-70753565D01*
X133519388Y-70749000D01*
X134170612Y-70749000D01*
X134216968Y-70753565D01*
X134216968Y-70753565D01*
G37*
G36*
X98054591Y-70228085D02*
G01*
X98088569Y-70238393D01*
X98119890Y-70255134D01*
X98147339Y-70277661D01*
X98169866Y-70305110D01*
X98186607Y-70336431D01*
X98196915Y-70370409D01*
X98201000Y-70411890D01*
X98201000Y-71088110D01*
X98196915Y-71129591D01*
X98186607Y-71163569D01*
X98169866Y-71194890D01*
X98147339Y-71222339D01*
X98119890Y-71244866D01*
X98088569Y-71261607D01*
X98054591Y-71271915D01*
X98013110Y-71276000D01*
X97411890Y-71276000D01*
X97370409Y-71271915D01*
X97336431Y-71261607D01*
X97305110Y-71244866D01*
X97277661Y-71222339D01*
X97255134Y-71194890D01*
X97238393Y-71163569D01*
X97228085Y-71129591D01*
X97224000Y-71088110D01*
X97224000Y-70411890D01*
X97228085Y-70370409D01*
X97238393Y-70336431D01*
X97255134Y-70305110D01*
X97277661Y-70277661D01*
X97305110Y-70255134D01*
X97336431Y-70238393D01*
X97370409Y-70228085D01*
X97411890Y-70224000D01*
X98013110Y-70224000D01*
X98054591Y-70228085D01*
X98054591Y-70228085D01*
G37*
G36*
X99629591Y-70228085D02*
G01*
X99663569Y-70238393D01*
X99694890Y-70255134D01*
X99722339Y-70277661D01*
X99744866Y-70305110D01*
X99761607Y-70336431D01*
X99771915Y-70370409D01*
X99776000Y-70411890D01*
X99776000Y-71088110D01*
X99771915Y-71129591D01*
X99761607Y-71163569D01*
X99744866Y-71194890D01*
X99722339Y-71222339D01*
X99694890Y-71244866D01*
X99663569Y-71261607D01*
X99629591Y-71271915D01*
X99588110Y-71276000D01*
X98986890Y-71276000D01*
X98945409Y-71271915D01*
X98911431Y-71261607D01*
X98880110Y-71244866D01*
X98852661Y-71222339D01*
X98830134Y-71194890D01*
X98813393Y-71163569D01*
X98803085Y-71129591D01*
X98799000Y-71088110D01*
X98799000Y-70411890D01*
X98803085Y-70370409D01*
X98813393Y-70336431D01*
X98830134Y-70305110D01*
X98852661Y-70277661D01*
X98880110Y-70255134D01*
X98911431Y-70238393D01*
X98945409Y-70228085D01*
X98986890Y-70224000D01*
X99588110Y-70224000D01*
X99629591Y-70228085D01*
X99629591Y-70228085D01*
G37*
G36*
X79779591Y-70153085D02*
G01*
X79813569Y-70163393D01*
X79844890Y-70180134D01*
X79872339Y-70202661D01*
X79894866Y-70230110D01*
X79911607Y-70261431D01*
X79921915Y-70295409D01*
X79926000Y-70336890D01*
X79926000Y-70938110D01*
X79921915Y-70979591D01*
X79911607Y-71013569D01*
X79894866Y-71044890D01*
X79872339Y-71072339D01*
X79844890Y-71094866D01*
X79813569Y-71111607D01*
X79779591Y-71121915D01*
X79738110Y-71126000D01*
X79061890Y-71126000D01*
X79020409Y-71121915D01*
X78986431Y-71111607D01*
X78955110Y-71094866D01*
X78927661Y-71072339D01*
X78905134Y-71044890D01*
X78888393Y-71013569D01*
X78878085Y-70979591D01*
X78874000Y-70938110D01*
X78874000Y-70336890D01*
X78878085Y-70295409D01*
X78888393Y-70261431D01*
X78905134Y-70230110D01*
X78927661Y-70202661D01*
X78955110Y-70180134D01*
X78986431Y-70163393D01*
X79020409Y-70153085D01*
X79061890Y-70149000D01*
X79738110Y-70149000D01*
X79779591Y-70153085D01*
X79779591Y-70153085D01*
G37*
G36*
X81329591Y-70140585D02*
G01*
X81363569Y-70150893D01*
X81394890Y-70167634D01*
X81422339Y-70190161D01*
X81444866Y-70217610D01*
X81461607Y-70248931D01*
X81471915Y-70282909D01*
X81476000Y-70324390D01*
X81476000Y-70925610D01*
X81471915Y-70967091D01*
X81461607Y-71001069D01*
X81444866Y-71032390D01*
X81422339Y-71059839D01*
X81394890Y-71082366D01*
X81363569Y-71099107D01*
X81329591Y-71109415D01*
X81288110Y-71113500D01*
X80611890Y-71113500D01*
X80570409Y-71109415D01*
X80536431Y-71099107D01*
X80505110Y-71082366D01*
X80477661Y-71059839D01*
X80455134Y-71032390D01*
X80438393Y-71001069D01*
X80428085Y-70967091D01*
X80424000Y-70925610D01*
X80424000Y-70324390D01*
X80428085Y-70282909D01*
X80438393Y-70248931D01*
X80455134Y-70217610D01*
X80477661Y-70190161D01*
X80505110Y-70167634D01*
X80536431Y-70150893D01*
X80570409Y-70140585D01*
X80611890Y-70136500D01*
X81288110Y-70136500D01*
X81329591Y-70140585D01*
X81329591Y-70140585D01*
G37*
G36*
X95051000Y-70926000D02*
G01*
X93649000Y-70926000D01*
X93649000Y-65074000D01*
X95051000Y-65074000D01*
X95051000Y-70926000D01*
X95051000Y-70926000D01*
G37*
G36*
X86351000Y-70926000D02*
G01*
X84949000Y-70926000D01*
X84949000Y-65074000D01*
X86351000Y-65074000D01*
X86351000Y-70926000D01*
X86351000Y-70926000D01*
G37*
G36*
X79779591Y-68578085D02*
G01*
X79813569Y-68588393D01*
X79844890Y-68605134D01*
X79872339Y-68627661D01*
X79894866Y-68655110D01*
X79911607Y-68686431D01*
X79921915Y-68720409D01*
X79926000Y-68761890D01*
X79926000Y-69363110D01*
X79921915Y-69404591D01*
X79911607Y-69438569D01*
X79894866Y-69469890D01*
X79872339Y-69497339D01*
X79844890Y-69519866D01*
X79813569Y-69536607D01*
X79779591Y-69546915D01*
X79738110Y-69551000D01*
X79061890Y-69551000D01*
X79020409Y-69546915D01*
X78986431Y-69536607D01*
X78955110Y-69519866D01*
X78927661Y-69497339D01*
X78905134Y-69469890D01*
X78888393Y-69438569D01*
X78878085Y-69404591D01*
X78874000Y-69363110D01*
X78874000Y-68761890D01*
X78878085Y-68720409D01*
X78888393Y-68686431D01*
X78905134Y-68655110D01*
X78927661Y-68627661D01*
X78955110Y-68605134D01*
X78986431Y-68588393D01*
X79020409Y-68578085D01*
X79061890Y-68574000D01*
X79738110Y-68574000D01*
X79779591Y-68578085D01*
X79779591Y-68578085D01*
G37*
G36*
X81329591Y-68565585D02*
G01*
X81363569Y-68575893D01*
X81394890Y-68592634D01*
X81422339Y-68615161D01*
X81444866Y-68642610D01*
X81461607Y-68673931D01*
X81471915Y-68707909D01*
X81476000Y-68749390D01*
X81476000Y-69350610D01*
X81471915Y-69392091D01*
X81461607Y-69426069D01*
X81444866Y-69457390D01*
X81422339Y-69484839D01*
X81394890Y-69507366D01*
X81363569Y-69524107D01*
X81329591Y-69534415D01*
X81288110Y-69538500D01*
X80611890Y-69538500D01*
X80570409Y-69534415D01*
X80536431Y-69524107D01*
X80505110Y-69507366D01*
X80477661Y-69484839D01*
X80455134Y-69457390D01*
X80438393Y-69426069D01*
X80428085Y-69392091D01*
X80424000Y-69350610D01*
X80424000Y-68749390D01*
X80428085Y-68707909D01*
X80438393Y-68673931D01*
X80455134Y-68642610D01*
X80477661Y-68615161D01*
X80505110Y-68592634D01*
X80536431Y-68575893D01*
X80570409Y-68565585D01*
X80611890Y-68561500D01*
X81288110Y-68561500D01*
X81329591Y-68565585D01*
X81329591Y-68565585D01*
G37*
G36*
X92926000Y-64351000D02*
G01*
X87074000Y-64351000D01*
X87074000Y-62949000D01*
X92926000Y-62949000D01*
X92926000Y-64351000D01*
X92926000Y-64351000D01*
G37*
G36*
X160345680Y-58385415D02*
G01*
X160481579Y-58412447D01*
X160694037Y-58500450D01*
X160761913Y-58528565D01*
X160782042Y-58536903D01*
X161052451Y-58717585D01*
X161282415Y-58947549D01*
X161463097Y-59217958D01*
X161587553Y-59518421D01*
X161591849Y-59540017D01*
X161651000Y-59837389D01*
X161651000Y-60162611D01*
X161623870Y-60299000D01*
X161587553Y-60481579D01*
X161569787Y-60524469D01*
X161473824Y-60756146D01*
X161463097Y-60782042D01*
X161282415Y-61052451D01*
X161052451Y-61282415D01*
X160782042Y-61463097D01*
X160782041Y-61463098D01*
X160782040Y-61463098D01*
X160694037Y-61499550D01*
X160481579Y-61587553D01*
X160375256Y-61608702D01*
X160162611Y-61651000D01*
X159837389Y-61651000D01*
X159624744Y-61608702D01*
X159518421Y-61587553D01*
X159305963Y-61499550D01*
X159217960Y-61463098D01*
X159217959Y-61463098D01*
X159217958Y-61463097D01*
X158947549Y-61282415D01*
X158717585Y-61052451D01*
X158536903Y-60782042D01*
X158526177Y-60756146D01*
X158430213Y-60524469D01*
X158412447Y-60481579D01*
X158376130Y-60299000D01*
X158349000Y-60162611D01*
X158349000Y-59837389D01*
X158408151Y-59540017D01*
X158412447Y-59518421D01*
X158536903Y-59217958D01*
X158717585Y-58947549D01*
X158947549Y-58717585D01*
X159217958Y-58536903D01*
X159238088Y-58528565D01*
X159305963Y-58500450D01*
X159518421Y-58412447D01*
X159654320Y-58385415D01*
X159837389Y-58349000D01*
X160162611Y-58349000D01*
X160345680Y-58385415D01*
X160345680Y-58385415D01*
G37*
G36*
X70345680Y-58385415D02*
G01*
X70481579Y-58412447D01*
X70694037Y-58500450D01*
X70761913Y-58528565D01*
X70782042Y-58536903D01*
X71052451Y-58717585D01*
X71282415Y-58947549D01*
X71463097Y-59217958D01*
X71587553Y-59518421D01*
X71591849Y-59540017D01*
X71651000Y-59837389D01*
X71651000Y-60162611D01*
X71623870Y-60299000D01*
X71587553Y-60481579D01*
X71569787Y-60524469D01*
X71473824Y-60756146D01*
X71463097Y-60782042D01*
X71282415Y-61052451D01*
X71052451Y-61282415D01*
X70782042Y-61463097D01*
X70782041Y-61463098D01*
X70782040Y-61463098D01*
X70694037Y-61499550D01*
X70481579Y-61587553D01*
X70375256Y-61608702D01*
X70162611Y-61651000D01*
X69837389Y-61651000D01*
X69624744Y-61608702D01*
X69518421Y-61587553D01*
X69305963Y-61499550D01*
X69217960Y-61463098D01*
X69217959Y-61463098D01*
X69217958Y-61463097D01*
X68947549Y-61282415D01*
X68717585Y-61052451D01*
X68536903Y-60782042D01*
X68526177Y-60756146D01*
X68430213Y-60524469D01*
X68412447Y-60481579D01*
X68376130Y-60299000D01*
X68349000Y-60162611D01*
X68349000Y-59837389D01*
X68408151Y-59540017D01*
X68412447Y-59518421D01*
X68536903Y-59217958D01*
X68717585Y-58947549D01*
X68947549Y-58717585D01*
X69217958Y-58536903D01*
X69238088Y-58528565D01*
X69305963Y-58500450D01*
X69518421Y-58412447D01*
X69654320Y-58385415D01*
X69837389Y-58349000D01*
X70162611Y-58349000D01*
X70345680Y-58385415D01*
X70345680Y-58385415D01*
G37*
G36*
X95584468Y-60403565D02*
G01*
X95623138Y-60415296D01*
X95658777Y-60434346D01*
X95690017Y-60459983D01*
X95715654Y-60491223D01*
X95734704Y-60526862D01*
X95746435Y-60565532D01*
X95751000Y-60611888D01*
X95751000Y-61263112D01*
X95746435Y-61309468D01*
X95734704Y-61348138D01*
X95715654Y-61383777D01*
X95690017Y-61415017D01*
X95658777Y-61440654D01*
X95623138Y-61459704D01*
X95584468Y-61471435D01*
X95538112Y-61476000D01*
X94461888Y-61476000D01*
X94415532Y-61471435D01*
X94376862Y-61459704D01*
X94341223Y-61440654D01*
X94309983Y-61415017D01*
X94284346Y-61383777D01*
X94265296Y-61348138D01*
X94253565Y-61309468D01*
X94249000Y-61263112D01*
X94249000Y-60611888D01*
X94253565Y-60565532D01*
X94265296Y-60526862D01*
X94284346Y-60491223D01*
X94309983Y-60459983D01*
X94341223Y-60434346D01*
X94376862Y-60415296D01*
X94415532Y-60403565D01*
X94461888Y-60399000D01*
X95538112Y-60399000D01*
X95584468Y-60403565D01*
X95584468Y-60403565D01*
G37*
G36*
X93129591Y-60303085D02*
G01*
X93163569Y-60313393D01*
X93194890Y-60330134D01*
X93222339Y-60352661D01*
X93244866Y-60380110D01*
X93261607Y-60411431D01*
X93271915Y-60445409D01*
X93276000Y-60486890D01*
X93276000Y-61088110D01*
X93271915Y-61129591D01*
X93261607Y-61163569D01*
X93244866Y-61194890D01*
X93222339Y-61222339D01*
X93194890Y-61244866D01*
X93163569Y-61261607D01*
X93129591Y-61271915D01*
X93088110Y-61276000D01*
X92411890Y-61276000D01*
X92370409Y-61271915D01*
X92336431Y-61261607D01*
X92305110Y-61244866D01*
X92277661Y-61222339D01*
X92255134Y-61194890D01*
X92238393Y-61163569D01*
X92228085Y-61129591D01*
X92224000Y-61088110D01*
X92224000Y-60486890D01*
X92228085Y-60445409D01*
X92238393Y-60411431D01*
X92255134Y-60380110D01*
X92277661Y-60352661D01*
X92305110Y-60330134D01*
X92336431Y-60313393D01*
X92370409Y-60303085D01*
X92411890Y-60299000D01*
X93088110Y-60299000D01*
X93129591Y-60303085D01*
X93129591Y-60303085D01*
G37*
G36*
X111547715Y-58908058D02*
G01*
X111665722Y-58943855D01*
X111774468Y-59001981D01*
X111869790Y-59080210D01*
X111948019Y-59175532D01*
X112006145Y-59284278D01*
X112041942Y-59402285D01*
X112051000Y-59494254D01*
X112051000Y-60205746D01*
X112041942Y-60297715D01*
X112006145Y-60415722D01*
X111948019Y-60524468D01*
X111869790Y-60619790D01*
X111774468Y-60698019D01*
X111665721Y-60756145D01*
X111547714Y-60791942D01*
X111425000Y-60804028D01*
X111302285Y-60791942D01*
X111184278Y-60756145D01*
X111075532Y-60698019D01*
X110980210Y-60619790D01*
X110901981Y-60524468D01*
X110843855Y-60415721D01*
X110840168Y-60403565D01*
X110820935Y-60340164D01*
X110808058Y-60297714D01*
X110799000Y-60205745D01*
X110799000Y-59494254D01*
X110808058Y-59402285D01*
X110843855Y-59284279D01*
X110901982Y-59175532D01*
X110980211Y-59080210D01*
X111075533Y-59001981D01*
X111184279Y-58943855D01*
X111302286Y-58908058D01*
X111425000Y-58895972D01*
X111547715Y-58908058D01*
X111547715Y-58908058D01*
G37*
G36*
X118697715Y-58908058D02*
G01*
X118815722Y-58943855D01*
X118924468Y-59001981D01*
X119019790Y-59080210D01*
X119098019Y-59175532D01*
X119156145Y-59284278D01*
X119191942Y-59402285D01*
X119201000Y-59494254D01*
X119201000Y-60205746D01*
X119191942Y-60297715D01*
X119156145Y-60415722D01*
X119098019Y-60524468D01*
X119019790Y-60619790D01*
X118924468Y-60698019D01*
X118815721Y-60756145D01*
X118697714Y-60791942D01*
X118575000Y-60804028D01*
X118452285Y-60791942D01*
X118334278Y-60756145D01*
X118225532Y-60698019D01*
X118130210Y-60619790D01*
X118051981Y-60524468D01*
X117993855Y-60415721D01*
X117990168Y-60403565D01*
X117970935Y-60340164D01*
X117958058Y-60297714D01*
X117949000Y-60205745D01*
X117949000Y-59494254D01*
X117958058Y-59402285D01*
X117993855Y-59284279D01*
X118051982Y-59175532D01*
X118130211Y-59080210D01*
X118225533Y-59001981D01*
X118334279Y-58943855D01*
X118452286Y-58908058D01*
X118575000Y-58895972D01*
X118697715Y-58908058D01*
X118697715Y-58908058D01*
G37*
G36*
X106984468Y-58866065D02*
G01*
X107023138Y-58877796D01*
X107058777Y-58896846D01*
X107090017Y-58922483D01*
X107115654Y-58953723D01*
X107134704Y-58989362D01*
X107146435Y-59028032D01*
X107151000Y-59074388D01*
X107151000Y-59725612D01*
X107146435Y-59771968D01*
X107134704Y-59810638D01*
X107115654Y-59846277D01*
X107090017Y-59877517D01*
X107058777Y-59903154D01*
X107023138Y-59922204D01*
X106984468Y-59933935D01*
X106938112Y-59938500D01*
X105861888Y-59938500D01*
X105815532Y-59933935D01*
X105776862Y-59922204D01*
X105741223Y-59903154D01*
X105709983Y-59877517D01*
X105684346Y-59846277D01*
X105665296Y-59810638D01*
X105653565Y-59771968D01*
X105649000Y-59725612D01*
X105649000Y-59074388D01*
X105653565Y-59028032D01*
X105665296Y-58989362D01*
X105684346Y-58953723D01*
X105709983Y-58922483D01*
X105741223Y-58896846D01*
X105776862Y-58877796D01*
X105815532Y-58866065D01*
X105861888Y-58861500D01*
X106938112Y-58861500D01*
X106984468Y-58866065D01*
X106984468Y-58866065D01*
G37*
G36*
X93129591Y-58728085D02*
G01*
X93163569Y-58738393D01*
X93194890Y-58755134D01*
X93222339Y-58777661D01*
X93244866Y-58805110D01*
X93261607Y-58836431D01*
X93271915Y-58870409D01*
X93276000Y-58911890D01*
X93276000Y-59513110D01*
X93271915Y-59554591D01*
X93261607Y-59588569D01*
X93244866Y-59619890D01*
X93222339Y-59647339D01*
X93194890Y-59669866D01*
X93163569Y-59686607D01*
X93129591Y-59696915D01*
X93088110Y-59701000D01*
X92411890Y-59701000D01*
X92370409Y-59696915D01*
X92336431Y-59686607D01*
X92305110Y-59669866D01*
X92277661Y-59647339D01*
X92255134Y-59619890D01*
X92238393Y-59588569D01*
X92228085Y-59554591D01*
X92224000Y-59513110D01*
X92224000Y-58911890D01*
X92228085Y-58870409D01*
X92238393Y-58836431D01*
X92255134Y-58805110D01*
X92277661Y-58777661D01*
X92305110Y-58755134D01*
X92336431Y-58738393D01*
X92370409Y-58728085D01*
X92411890Y-58724000D01*
X93088110Y-58724000D01*
X93129591Y-58728085D01*
X93129591Y-58728085D01*
G37*
G36*
X95584468Y-58528565D02*
G01*
X95623138Y-58540296D01*
X95658777Y-58559346D01*
X95690017Y-58584983D01*
X95715654Y-58616223D01*
X95734704Y-58651862D01*
X95746435Y-58690532D01*
X95751000Y-58736888D01*
X95751000Y-59388112D01*
X95746435Y-59434468D01*
X95734704Y-59473138D01*
X95715654Y-59508777D01*
X95690017Y-59540017D01*
X95658777Y-59565654D01*
X95623138Y-59584704D01*
X95584468Y-59596435D01*
X95538112Y-59601000D01*
X94461888Y-59601000D01*
X94415532Y-59596435D01*
X94376862Y-59584704D01*
X94341223Y-59565654D01*
X94309983Y-59540017D01*
X94284346Y-59508777D01*
X94265296Y-59473138D01*
X94253565Y-59434468D01*
X94249000Y-59388112D01*
X94249000Y-58736888D01*
X94253565Y-58690532D01*
X94265296Y-58651862D01*
X94284346Y-58616223D01*
X94309983Y-58584983D01*
X94341223Y-58559346D01*
X94376862Y-58540296D01*
X94415532Y-58528565D01*
X94461888Y-58524000D01*
X95538112Y-58524000D01*
X95584468Y-58528565D01*
X95584468Y-58528565D01*
G37*
G36*
X117073710Y-58159440D02*
G01*
X117144585Y-58180940D01*
X117209904Y-58215854D01*
X117267159Y-58262841D01*
X117314146Y-58320096D01*
X117349060Y-58385415D01*
X117370560Y-58456290D01*
X117377819Y-58530000D01*
X117370560Y-58603710D01*
X117349060Y-58674585D01*
X117314146Y-58739904D01*
X117267159Y-58797159D01*
X117209904Y-58844146D01*
X117144585Y-58879060D01*
X117073710Y-58900560D01*
X117018472Y-58906000D01*
X116981528Y-58906000D01*
X116926290Y-58900560D01*
X116855415Y-58879060D01*
X116790096Y-58844146D01*
X116732841Y-58797159D01*
X116685854Y-58739904D01*
X116650940Y-58674585D01*
X116629440Y-58603710D01*
X116622181Y-58530000D01*
X116629440Y-58456290D01*
X116650940Y-58385415D01*
X116685854Y-58320096D01*
X116732841Y-58262841D01*
X116790096Y-58215854D01*
X116855415Y-58180940D01*
X116926290Y-58159440D01*
X116981528Y-58154000D01*
X117018472Y-58154000D01*
X117073710Y-58159440D01*
X117073710Y-58159440D01*
G37*
G36*
X113073710Y-58159440D02*
G01*
X113144585Y-58180940D01*
X113209904Y-58215854D01*
X113267159Y-58262841D01*
X113314146Y-58320096D01*
X113349060Y-58385415D01*
X113370560Y-58456290D01*
X113377819Y-58530000D01*
X113370560Y-58603710D01*
X113349060Y-58674585D01*
X113314146Y-58739904D01*
X113267159Y-58797159D01*
X113209904Y-58844146D01*
X113144585Y-58879060D01*
X113073710Y-58900560D01*
X113018472Y-58906000D01*
X112981528Y-58906000D01*
X112926290Y-58900560D01*
X112855415Y-58879060D01*
X112790096Y-58844146D01*
X112732841Y-58797159D01*
X112685854Y-58739904D01*
X112650940Y-58674585D01*
X112629440Y-58603710D01*
X112622181Y-58530000D01*
X112629440Y-58456290D01*
X112650940Y-58385415D01*
X112685854Y-58320096D01*
X112732841Y-58262841D01*
X112790096Y-58215854D01*
X112855415Y-58180940D01*
X112926290Y-58159440D01*
X112981528Y-58154000D01*
X113018472Y-58154000D01*
X113073710Y-58159440D01*
X113073710Y-58159440D01*
G37*
G36*
X102796468Y-56753565D02*
G01*
X102835138Y-56765296D01*
X102870777Y-56784346D01*
X102902017Y-56809983D01*
X102927654Y-56841223D01*
X102946704Y-56876862D01*
X102958435Y-56915532D01*
X102963000Y-56961888D01*
X102963000Y-58038112D01*
X102958435Y-58084468D01*
X102946704Y-58123138D01*
X102927654Y-58158777D01*
X102902017Y-58190017D01*
X102870777Y-58215654D01*
X102835138Y-58234704D01*
X102796468Y-58246435D01*
X102750112Y-58251000D01*
X102098888Y-58251000D01*
X102052532Y-58246435D01*
X102013862Y-58234704D01*
X101978223Y-58215654D01*
X101946983Y-58190017D01*
X101921346Y-58158777D01*
X101902296Y-58123138D01*
X101890565Y-58084468D01*
X101886000Y-58038112D01*
X101886000Y-56961888D01*
X101890565Y-56915532D01*
X101902296Y-56876862D01*
X101921346Y-56841223D01*
X101946983Y-56809983D01*
X101978223Y-56784346D01*
X102013862Y-56765296D01*
X102052532Y-56753565D01*
X102098888Y-56749000D01*
X102750112Y-56749000D01*
X102796468Y-56753565D01*
X102796468Y-56753565D01*
G37*
G36*
X124371468Y-56753565D02*
G01*
X124410138Y-56765296D01*
X124445777Y-56784346D01*
X124477017Y-56809983D01*
X124502654Y-56841223D01*
X124521704Y-56876862D01*
X124533435Y-56915532D01*
X124538000Y-56961888D01*
X124538000Y-58038112D01*
X124533435Y-58084468D01*
X124521704Y-58123138D01*
X124502654Y-58158777D01*
X124477017Y-58190017D01*
X124445777Y-58215654D01*
X124410138Y-58234704D01*
X124371468Y-58246435D01*
X124325112Y-58251000D01*
X123673888Y-58251000D01*
X123627532Y-58246435D01*
X123588862Y-58234704D01*
X123553223Y-58215654D01*
X123521983Y-58190017D01*
X123496346Y-58158777D01*
X123477296Y-58123138D01*
X123465565Y-58084468D01*
X123461000Y-58038112D01*
X123461000Y-56961888D01*
X123465565Y-56915532D01*
X123477296Y-56876862D01*
X123496346Y-56841223D01*
X123521983Y-56809983D01*
X123553223Y-56784346D01*
X123588862Y-56765296D01*
X123627532Y-56753565D01*
X123673888Y-56749000D01*
X124325112Y-56749000D01*
X124371468Y-56753565D01*
X124371468Y-56753565D01*
G37*
G36*
X122496468Y-56753565D02*
G01*
X122535138Y-56765296D01*
X122570777Y-56784346D01*
X122602017Y-56809983D01*
X122627654Y-56841223D01*
X122646704Y-56876862D01*
X122658435Y-56915532D01*
X122663000Y-56961888D01*
X122663000Y-58038112D01*
X122658435Y-58084468D01*
X122646704Y-58123138D01*
X122627654Y-58158777D01*
X122602017Y-58190017D01*
X122570777Y-58215654D01*
X122535138Y-58234704D01*
X122496468Y-58246435D01*
X122450112Y-58251000D01*
X121798888Y-58251000D01*
X121752532Y-58246435D01*
X121713862Y-58234704D01*
X121678223Y-58215654D01*
X121646983Y-58190017D01*
X121621346Y-58158777D01*
X121602296Y-58123138D01*
X121590565Y-58084468D01*
X121586000Y-58038112D01*
X121586000Y-56961888D01*
X121590565Y-56915532D01*
X121602296Y-56876862D01*
X121621346Y-56841223D01*
X121646983Y-56809983D01*
X121678223Y-56784346D01*
X121713862Y-56765296D01*
X121752532Y-56753565D01*
X121798888Y-56749000D01*
X122450112Y-56749000D01*
X122496468Y-56753565D01*
X122496468Y-56753565D01*
G37*
G36*
X104671468Y-56753565D02*
G01*
X104710138Y-56765296D01*
X104745777Y-56784346D01*
X104777017Y-56809983D01*
X104802654Y-56841223D01*
X104821704Y-56876862D01*
X104833435Y-56915532D01*
X104838000Y-56961888D01*
X104838000Y-58038112D01*
X104833435Y-58084468D01*
X104821704Y-58123138D01*
X104802654Y-58158777D01*
X104777017Y-58190017D01*
X104745777Y-58215654D01*
X104710138Y-58234704D01*
X104671468Y-58246435D01*
X104625112Y-58251000D01*
X103973888Y-58251000D01*
X103927532Y-58246435D01*
X103888862Y-58234704D01*
X103853223Y-58215654D01*
X103821983Y-58190017D01*
X103796346Y-58158777D01*
X103777296Y-58123138D01*
X103765565Y-58084468D01*
X103761000Y-58038112D01*
X103761000Y-56961888D01*
X103765565Y-56915532D01*
X103777296Y-56876862D01*
X103796346Y-56841223D01*
X103821983Y-56809983D01*
X103853223Y-56784346D01*
X103888862Y-56765296D01*
X103927532Y-56753565D01*
X103973888Y-56749000D01*
X104625112Y-56749000D01*
X104671468Y-56753565D01*
X104671468Y-56753565D01*
G37*
G36*
X106984468Y-56991065D02*
G01*
X107023138Y-57002796D01*
X107058777Y-57021846D01*
X107090017Y-57047483D01*
X107115654Y-57078723D01*
X107134704Y-57114362D01*
X107146435Y-57153032D01*
X107151000Y-57199388D01*
X107151000Y-57850612D01*
X107146435Y-57896968D01*
X107134704Y-57935638D01*
X107115654Y-57971277D01*
X107090017Y-58002517D01*
X107058777Y-58028154D01*
X107023138Y-58047204D01*
X106984468Y-58058935D01*
X106938112Y-58063500D01*
X105861888Y-58063500D01*
X105815532Y-58058935D01*
X105776862Y-58047204D01*
X105741223Y-58028154D01*
X105709983Y-58002517D01*
X105684346Y-57971277D01*
X105665296Y-57935638D01*
X105653565Y-57896968D01*
X105649000Y-57850612D01*
X105649000Y-57199388D01*
X105653565Y-57153032D01*
X105665296Y-57114362D01*
X105684346Y-57078723D01*
X105709983Y-57047483D01*
X105741223Y-57021846D01*
X105776862Y-57002796D01*
X105815532Y-56991065D01*
X105861888Y-56986500D01*
X106938112Y-56986500D01*
X106984468Y-56991065D01*
X106984468Y-56991065D01*
G37*
G36*
X111547715Y-55458058D02*
G01*
X111665722Y-55493855D01*
X111774468Y-55551981D01*
X111869790Y-55630210D01*
X111948019Y-55725532D01*
X112006145Y-55834278D01*
X112041942Y-55952285D01*
X112051000Y-56044254D01*
X112051000Y-56755746D01*
X112041942Y-56847715D01*
X112006145Y-56965722D01*
X111948019Y-57074468D01*
X111869790Y-57169790D01*
X111774468Y-57248019D01*
X111665721Y-57306145D01*
X111547714Y-57341942D01*
X111425000Y-57354028D01*
X111302285Y-57341942D01*
X111184278Y-57306145D01*
X111075532Y-57248019D01*
X110980210Y-57169790D01*
X110901981Y-57074468D01*
X110843855Y-56965721D01*
X110808058Y-56847714D01*
X110799000Y-56755745D01*
X110799000Y-56044254D01*
X110808058Y-55952285D01*
X110843855Y-55834279D01*
X110901982Y-55725532D01*
X110980211Y-55630210D01*
X111075533Y-55551981D01*
X111184279Y-55493855D01*
X111302286Y-55458058D01*
X111425000Y-55445972D01*
X111547715Y-55458058D01*
X111547715Y-55458058D01*
G37*
G36*
X118697715Y-55458058D02*
G01*
X118815722Y-55493855D01*
X118924468Y-55551981D01*
X119019790Y-55630210D01*
X119098019Y-55725532D01*
X119156145Y-55834278D01*
X119191942Y-55952285D01*
X119201000Y-56044254D01*
X119201000Y-56755746D01*
X119191942Y-56847715D01*
X119156145Y-56965722D01*
X119098019Y-57074468D01*
X119019790Y-57169790D01*
X118924468Y-57248019D01*
X118815721Y-57306145D01*
X118697714Y-57341942D01*
X118575000Y-57354028D01*
X118452285Y-57341942D01*
X118334278Y-57306145D01*
X118225532Y-57248019D01*
X118130210Y-57169790D01*
X118051981Y-57074468D01*
X117993855Y-56965721D01*
X117958058Y-56847714D01*
X117949000Y-56755745D01*
X117949000Y-56044254D01*
X117958058Y-55952285D01*
X117993855Y-55834279D01*
X118051982Y-55725532D01*
X118130211Y-55630210D01*
X118225533Y-55551981D01*
X118334279Y-55493855D01*
X118452286Y-55458058D01*
X118575000Y-55445972D01*
X118697715Y-55458058D01*
X118697715Y-55458058D01*
G37*
M02*
