G04 #@! TF.GenerationSoftware,KiCad,Pcbnew,(5.1.0)-1*
G04 #@! TF.CreationDate,2019-03-31T10:15:11+09:00*
G04 #@! TF.ProjectId,LrE-6,4c72452d-362e-46b6-9963-61645f706362,rev?*
G04 #@! TF.SameCoordinates,Original*
G04 #@! TF.FileFunction,Legend,Top*
G04 #@! TF.FilePolarity,Positive*
%FSLAX46Y46*%
G04 Gerber Fmt 4.6, Leading zero omitted, Abs format (unit mm)*
G04 Created by KiCad (PCBNEW (5.1.0)-1) date 2019-03-31 10:15:11*
%MOMM*%
%LPD*%
G04 APERTURE LIST*
%ADD10C,0.150000*%
%ADD11C,0.120000*%
%ADD12C,0.200000*%
%ADD13C,0.300000*%
%ADD14C,0.100000*%
%ADD15C,0.010000*%
G04 APERTURE END LIST*
D10*
X144128095Y-85950000D02*
X144032857Y-85902380D01*
X143890000Y-85902380D01*
X143747142Y-85950000D01*
X143651904Y-86045238D01*
X143604285Y-86140476D01*
X143556666Y-86330952D01*
X143556666Y-86473809D01*
X143604285Y-86664285D01*
X143651904Y-86759523D01*
X143747142Y-86854761D01*
X143890000Y-86902380D01*
X143985238Y-86902380D01*
X144128095Y-86854761D01*
X144175714Y-86807142D01*
X144175714Y-86473809D01*
X143985238Y-86473809D01*
X144604285Y-86902380D02*
X144604285Y-85902380D01*
X145175714Y-86902380D01*
X145175714Y-85902380D01*
X145651904Y-86902380D02*
X145651904Y-85902380D01*
X145890000Y-85902380D01*
X146032857Y-85950000D01*
X146128095Y-86045238D01*
X146175714Y-86140476D01*
X146223333Y-86330952D01*
X146223333Y-86473809D01*
X146175714Y-86664285D01*
X146128095Y-86759523D01*
X146032857Y-86854761D01*
X145890000Y-86902380D01*
X145651904Y-86902380D01*
X143070000Y-87440000D02*
X146770000Y-87440000D01*
X146770000Y-85440000D02*
X143070000Y-85440000D01*
X146770000Y-87440000D02*
X146770000Y-85440000D01*
X143070000Y-85440000D02*
X143070000Y-87440000D01*
X98950000Y-61800000D02*
X96250000Y-61800000D01*
X99000000Y-63150000D02*
X99000000Y-61800000D01*
X96200000Y-63250000D02*
X99000000Y-63250000D01*
X96200000Y-61800000D02*
X96200000Y-63250000D01*
D11*
X160340476Y-78000000D02*
X160264285Y-77961904D01*
X160150000Y-77961904D01*
X160035714Y-78000000D01*
X159959523Y-78076190D01*
X159921428Y-78152380D01*
X159883333Y-78304761D01*
X159883333Y-78419047D01*
X159921428Y-78571428D01*
X159959523Y-78647619D01*
X160035714Y-78723809D01*
X160150000Y-78761904D01*
X160226190Y-78761904D01*
X160340476Y-78723809D01*
X160378571Y-78685714D01*
X160378571Y-78419047D01*
X160226190Y-78419047D01*
X160721428Y-78761904D02*
X160721428Y-77961904D01*
X161178571Y-78761904D01*
X161178571Y-77961904D01*
X161559523Y-78761904D02*
X161559523Y-77961904D01*
X161750000Y-77961904D01*
X161864285Y-78000000D01*
X161940476Y-78076190D01*
X161978571Y-78152380D01*
X162016666Y-78304761D01*
X162016666Y-78419047D01*
X161978571Y-78571428D01*
X161940476Y-78647619D01*
X161864285Y-78723809D01*
X161750000Y-78761904D01*
X161559523Y-78761904D01*
D10*
X164050000Y-81200000D02*
X158600000Y-81200000D01*
X164050000Y-82750000D02*
X164050000Y-81200000D01*
X158600000Y-82750000D02*
X164050000Y-82750000D01*
X158600000Y-81200000D02*
X158600000Y-82750000D01*
X155200000Y-81200000D02*
X150350000Y-81200000D01*
X155200000Y-82650000D02*
X155200000Y-81200000D01*
X150350000Y-82650000D02*
X155200000Y-82650000D01*
X150350000Y-81200000D02*
X150350000Y-82650000D01*
D11*
X150997619Y-82273809D02*
X151111904Y-82311904D01*
X151302380Y-82311904D01*
X151378571Y-82273809D01*
X151416666Y-82235714D01*
X151454761Y-82159523D01*
X151454761Y-82083333D01*
X151416666Y-82007142D01*
X151378571Y-81969047D01*
X151302380Y-81930952D01*
X151150000Y-81892857D01*
X151073809Y-81854761D01*
X151035714Y-81816666D01*
X150997619Y-81740476D01*
X150997619Y-81664285D01*
X151035714Y-81588095D01*
X151073809Y-81550000D01*
X151150000Y-81511904D01*
X151340476Y-81511904D01*
X151454761Y-81550000D01*
X151683333Y-81511904D02*
X152140476Y-81511904D01*
X151911904Y-82311904D02*
X151911904Y-81511904D01*
X152407142Y-82311904D02*
X152407142Y-81511904D01*
X152673809Y-82083333D01*
X152940476Y-81511904D01*
X152940476Y-82311904D01*
X153245238Y-81511904D02*
X153740476Y-81511904D01*
X153473809Y-81816666D01*
X153588095Y-81816666D01*
X153664285Y-81854761D01*
X153702380Y-81892857D01*
X153740476Y-81969047D01*
X153740476Y-82159523D01*
X153702380Y-82235714D01*
X153664285Y-82273809D01*
X153588095Y-82311904D01*
X153359523Y-82311904D01*
X153283333Y-82273809D01*
X153245238Y-82235714D01*
X154045238Y-81588095D02*
X154083333Y-81550000D01*
X154159523Y-81511904D01*
X154350000Y-81511904D01*
X154426190Y-81550000D01*
X154464285Y-81588095D01*
X154502380Y-81664285D01*
X154502380Y-81740476D01*
X154464285Y-81854761D01*
X154007142Y-82311904D01*
X154502380Y-82311904D01*
X159302904Y-81561904D02*
X159493380Y-82361904D01*
X159645761Y-81790476D01*
X159798142Y-82361904D01*
X159988619Y-81561904D01*
X160750523Y-82361904D02*
X160483857Y-81980952D01*
X160293380Y-82361904D02*
X160293380Y-81561904D01*
X160598142Y-81561904D01*
X160674333Y-81600000D01*
X160712428Y-81638095D01*
X160750523Y-81714285D01*
X160750523Y-81828571D01*
X160712428Y-81904761D01*
X160674333Y-81942857D01*
X160598142Y-81980952D01*
X160293380Y-81980952D01*
X161245761Y-81561904D02*
X161398142Y-81561904D01*
X161474333Y-81600000D01*
X161550523Y-81676190D01*
X161588619Y-81828571D01*
X161588619Y-82095238D01*
X161550523Y-82247619D01*
X161474333Y-82323809D01*
X161398142Y-82361904D01*
X161245761Y-82361904D01*
X161169571Y-82323809D01*
X161093380Y-82247619D01*
X161055285Y-82095238D01*
X161055285Y-81828571D01*
X161093380Y-81676190D01*
X161169571Y-81600000D01*
X161245761Y-81561904D01*
X162083857Y-81561904D02*
X162236238Y-81561904D01*
X162312428Y-81600000D01*
X162388619Y-81676190D01*
X162426714Y-81828571D01*
X162426714Y-82095238D01*
X162388619Y-82247619D01*
X162312428Y-82323809D01*
X162236238Y-82361904D01*
X162083857Y-82361904D01*
X162007666Y-82323809D01*
X161931476Y-82247619D01*
X161893380Y-82095238D01*
X161893380Y-81828571D01*
X161931476Y-81676190D01*
X162007666Y-81600000D01*
X162083857Y-81561904D01*
X162769571Y-82361904D02*
X162769571Y-81561904D01*
X163036238Y-82133333D01*
X163302904Y-81561904D01*
X163302904Y-82361904D01*
X160366666Y-76111904D02*
X160100000Y-75730952D01*
X159909523Y-76111904D02*
X159909523Y-75311904D01*
X160214285Y-75311904D01*
X160290476Y-75350000D01*
X160328571Y-75388095D01*
X160366666Y-75464285D01*
X160366666Y-75578571D01*
X160328571Y-75654761D01*
X160290476Y-75692857D01*
X160214285Y-75730952D01*
X159909523Y-75730952D01*
X160633333Y-75311904D02*
X161166666Y-76111904D01*
X161166666Y-75311904D02*
X160633333Y-76111904D01*
X159890476Y-72811904D02*
X160347619Y-72811904D01*
X160119047Y-73611904D02*
X160119047Y-72811904D01*
X160538095Y-72811904D02*
X161071428Y-73611904D01*
X161071428Y-72811904D02*
X160538095Y-73611904D01*
X152390476Y-75311904D02*
X152847619Y-75311904D01*
X152619047Y-76111904D02*
X152619047Y-75311904D01*
X153038095Y-75311904D02*
X153571428Y-76111904D01*
X153571428Y-75311904D02*
X153038095Y-76111904D01*
X96514285Y-62873809D02*
X96628571Y-62911904D01*
X96819047Y-62911904D01*
X96895238Y-62873809D01*
X96933333Y-62835714D01*
X96971428Y-62759523D01*
X96971428Y-62683333D01*
X96933333Y-62607142D01*
X96895238Y-62569047D01*
X96819047Y-62530952D01*
X96666666Y-62492857D01*
X96590476Y-62454761D01*
X96552380Y-62416666D01*
X96514285Y-62340476D01*
X96514285Y-62264285D01*
X96552380Y-62188095D01*
X96590476Y-62150000D01*
X96666666Y-62111904D01*
X96857142Y-62111904D01*
X96971428Y-62150000D01*
X97238095Y-62111904D02*
X97428571Y-62911904D01*
X97580952Y-62340476D01*
X97733333Y-62911904D01*
X97923809Y-62111904D01*
X98228571Y-62911904D02*
X98228571Y-62111904D01*
X98419047Y-62111904D01*
X98533333Y-62150000D01*
X98609523Y-62226190D01*
X98647619Y-62302380D01*
X98685714Y-62454761D01*
X98685714Y-62569047D01*
X98647619Y-62721428D01*
X98609523Y-62797619D01*
X98533333Y-62873809D01*
X98419047Y-62911904D01*
X98228571Y-62911904D01*
D10*
X152866666Y-73611904D02*
X152600000Y-73230952D01*
X152409523Y-73611904D02*
X152409523Y-72811904D01*
X152714285Y-72811904D01*
X152790476Y-72850000D01*
X152828571Y-72888095D01*
X152866666Y-72964285D01*
X152866666Y-73078571D01*
X152828571Y-73154761D01*
X152790476Y-73192857D01*
X152714285Y-73230952D01*
X152409523Y-73230952D01*
X153133333Y-72811904D02*
X153666666Y-73611904D01*
X153666666Y-72811904D02*
X153133333Y-73611904D01*
X126250000Y-78100000D02*
X121750000Y-78100000D01*
X126238000Y-81000000D02*
X126238000Y-78100000D01*
X121750000Y-81000000D02*
X126200000Y-81000000D01*
X121750000Y-78100000D02*
X121750000Y-81000000D01*
X122675809Y-78515904D02*
X122675809Y-79163523D01*
X122713904Y-79239714D01*
X122752000Y-79277809D01*
X122828190Y-79315904D01*
X122980571Y-79315904D01*
X123056761Y-79277809D01*
X123094857Y-79239714D01*
X123132952Y-79163523D01*
X123132952Y-78515904D01*
X123475809Y-79087333D02*
X123856761Y-79087333D01*
X123399619Y-79315904D02*
X123666285Y-78515904D01*
X123932952Y-79315904D01*
X124656761Y-79315904D02*
X124390095Y-78934952D01*
X124199619Y-79315904D02*
X124199619Y-78515904D01*
X124504380Y-78515904D01*
X124580571Y-78554000D01*
X124618666Y-78592095D01*
X124656761Y-78668285D01*
X124656761Y-78782571D01*
X124618666Y-78858761D01*
X124580571Y-78896857D01*
X124504380Y-78934952D01*
X124199619Y-78934952D01*
X124885333Y-78515904D02*
X125342476Y-78515904D01*
X125113904Y-79315904D02*
X125113904Y-78515904D01*
X123418666Y-80665904D02*
X123418666Y-79865904D01*
X123609142Y-79865904D01*
X123723428Y-79904000D01*
X123799619Y-79980190D01*
X123837714Y-80056380D01*
X123875809Y-80208761D01*
X123875809Y-80323047D01*
X123837714Y-80475428D01*
X123799619Y-80551619D01*
X123723428Y-80627809D01*
X123609142Y-80665904D01*
X123418666Y-80665904D01*
X124599619Y-80665904D02*
X124218666Y-80665904D01*
X124218666Y-79865904D01*
D12*
X154800000Y-146600000D02*
X148400000Y-146600000D01*
X154800000Y-149200000D02*
X154800000Y-146600000D01*
X148400000Y-149200000D02*
X154800000Y-149200000D01*
X148400000Y-146600000D02*
X148400000Y-149200000D01*
X149020000Y-148628571D02*
X149020000Y-147128571D01*
X149520000Y-148200000D01*
X150020000Y-147128571D01*
X150020000Y-148628571D01*
X150948571Y-148628571D02*
X150805714Y-148557142D01*
X150734285Y-148485714D01*
X150662857Y-148342857D01*
X150662857Y-147914285D01*
X150734285Y-147771428D01*
X150805714Y-147700000D01*
X150948571Y-147628571D01*
X151162857Y-147628571D01*
X151305714Y-147700000D01*
X151377142Y-147771428D01*
X151448571Y-147914285D01*
X151448571Y-148342857D01*
X151377142Y-148485714D01*
X151305714Y-148557142D01*
X151162857Y-148628571D01*
X150948571Y-148628571D01*
X152734285Y-148628571D02*
X152734285Y-147128571D01*
X152734285Y-148557142D02*
X152591428Y-148628571D01*
X152305714Y-148628571D01*
X152162857Y-148557142D01*
X152091428Y-148485714D01*
X152020000Y-148342857D01*
X152020000Y-147914285D01*
X152091428Y-147771428D01*
X152162857Y-147700000D01*
X152305714Y-147628571D01*
X152591428Y-147628571D01*
X152734285Y-147700000D01*
X154020000Y-148557142D02*
X153877142Y-148628571D01*
X153591428Y-148628571D01*
X153448571Y-148557142D01*
X153377142Y-148414285D01*
X153377142Y-147842857D01*
X153448571Y-147700000D01*
X153591428Y-147628571D01*
X153877142Y-147628571D01*
X154020000Y-147700000D01*
X154091428Y-147842857D01*
X154091428Y-147985714D01*
X153377142Y-148128571D01*
D10*
X154546666Y-67002380D02*
X154784761Y-68002380D01*
X154975238Y-67288095D01*
X155165714Y-68002380D01*
X155403809Y-67002380D01*
X155784761Y-68002380D02*
X155784761Y-67335714D01*
X155784761Y-67002380D02*
X155737142Y-67050000D01*
X155784761Y-67097619D01*
X155832380Y-67050000D01*
X155784761Y-67002380D01*
X155784761Y-67097619D01*
X156594285Y-67478571D02*
X156260952Y-67478571D01*
X156260952Y-68002380D02*
X156260952Y-67002380D01*
X156737142Y-67002380D01*
X157118095Y-68002380D02*
X157118095Y-67335714D01*
X157118095Y-67002380D02*
X157070476Y-67050000D01*
X157118095Y-67097619D01*
X157165714Y-67050000D01*
X157118095Y-67002380D01*
X157118095Y-67097619D01*
X157760000Y-66540000D02*
X154060000Y-66540000D01*
X157760000Y-68540000D02*
X157760000Y-66540000D01*
X154060000Y-68540000D02*
X157760000Y-68540000D01*
X154060000Y-66540000D02*
X154060000Y-68540000D01*
X108598095Y-62042380D02*
X108598095Y-62851904D01*
X108645714Y-62947142D01*
X108693333Y-62994761D01*
X108788571Y-63042380D01*
X108979047Y-63042380D01*
X109074285Y-62994761D01*
X109121904Y-62947142D01*
X109169523Y-62851904D01*
X109169523Y-62042380D01*
X109598095Y-62994761D02*
X109740952Y-63042380D01*
X109979047Y-63042380D01*
X110074285Y-62994761D01*
X110121904Y-62947142D01*
X110169523Y-62851904D01*
X110169523Y-62756666D01*
X110121904Y-62661428D01*
X110074285Y-62613809D01*
X109979047Y-62566190D01*
X109788571Y-62518571D01*
X109693333Y-62470952D01*
X109645714Y-62423333D01*
X109598095Y-62328095D01*
X109598095Y-62232857D01*
X109645714Y-62137619D01*
X109693333Y-62090000D01*
X109788571Y-62042380D01*
X110026666Y-62042380D01*
X110169523Y-62090000D01*
X110931428Y-62518571D02*
X111074285Y-62566190D01*
X111121904Y-62613809D01*
X111169523Y-62709047D01*
X111169523Y-62851904D01*
X111121904Y-62947142D01*
X111074285Y-62994761D01*
X110979047Y-63042380D01*
X110598095Y-63042380D01*
X110598095Y-62042380D01*
X110931428Y-62042380D01*
X111026666Y-62090000D01*
X111074285Y-62137619D01*
X111121904Y-62232857D01*
X111121904Y-62328095D01*
X111074285Y-62423333D01*
X111026666Y-62470952D01*
X110931428Y-62518571D01*
X110598095Y-62518571D01*
X111850000Y-61580000D02*
X107850000Y-61580000D01*
X111850000Y-63580000D02*
X111850000Y-61580000D01*
X107850000Y-63580000D02*
X111850000Y-63580000D01*
X107850000Y-61580000D02*
X107850000Y-63580000D01*
X129700000Y-59000000D02*
X124800000Y-59000000D01*
X129730000Y-61000000D02*
X129730000Y-59000000D01*
X124840000Y-61000000D02*
X129720000Y-61000000D01*
X124800000Y-59000000D02*
X124800000Y-61000000D01*
X125253809Y-60452380D02*
X125253809Y-59452380D01*
X125634761Y-59452380D01*
X125730000Y-59500000D01*
X125777619Y-59547619D01*
X125825238Y-59642857D01*
X125825238Y-59785714D01*
X125777619Y-59880952D01*
X125730000Y-59928571D01*
X125634761Y-59976190D01*
X125253809Y-59976190D01*
X126396666Y-60452380D02*
X126301428Y-60404761D01*
X126253809Y-60357142D01*
X126206190Y-60261904D01*
X126206190Y-59976190D01*
X126253809Y-59880952D01*
X126301428Y-59833333D01*
X126396666Y-59785714D01*
X126539523Y-59785714D01*
X126634761Y-59833333D01*
X126682380Y-59880952D01*
X126730000Y-59976190D01*
X126730000Y-60261904D01*
X126682380Y-60357142D01*
X126634761Y-60404761D01*
X126539523Y-60452380D01*
X126396666Y-60452380D01*
X127063333Y-59785714D02*
X127253809Y-60452380D01*
X127444285Y-59976190D01*
X127634761Y-60452380D01*
X127825238Y-59785714D01*
X128587142Y-60404761D02*
X128491904Y-60452380D01*
X128301428Y-60452380D01*
X128206190Y-60404761D01*
X128158571Y-60309523D01*
X128158571Y-59928571D01*
X128206190Y-59833333D01*
X128301428Y-59785714D01*
X128491904Y-59785714D01*
X128587142Y-59833333D01*
X128634761Y-59928571D01*
X128634761Y-60023809D01*
X128158571Y-60119047D01*
X129063333Y-60452380D02*
X129063333Y-59785714D01*
X129063333Y-59976190D02*
X129110952Y-59880952D01*
X129158571Y-59833333D01*
X129253809Y-59785714D01*
X129349047Y-59785714D01*
D13*
X127285714Y-152630952D02*
X126619047Y-151440476D01*
X126142857Y-152630952D02*
X126142857Y-150130952D01*
X126904761Y-150130952D01*
X127095238Y-150250000D01*
X127190476Y-150369047D01*
X127285714Y-150607142D01*
X127285714Y-150964285D01*
X127190476Y-151202380D01*
X127095238Y-151321428D01*
X126904761Y-151440476D01*
X126142857Y-151440476D01*
X129190476Y-152630952D02*
X128047619Y-152630952D01*
X128619047Y-152630952D02*
X128619047Y-150130952D01*
X128428571Y-150488095D01*
X128238095Y-150726190D01*
X128047619Y-150845238D01*
X130047619Y-152392857D02*
X130142857Y-152511904D01*
X130047619Y-152630952D01*
X129952380Y-152511904D01*
X130047619Y-152392857D01*
X130047619Y-152630952D01*
X132047619Y-152630952D02*
X130904761Y-152630952D01*
X131476190Y-152630952D02*
X131476190Y-150130952D01*
X131285714Y-150488095D01*
X131095238Y-150726190D01*
X130904761Y-150845238D01*
X133952380Y-152630952D02*
X132809523Y-152630952D01*
X133380952Y-152630952D02*
X133380952Y-150130952D01*
X133190476Y-150488095D01*
X133000000Y-150726190D01*
X132809523Y-150845238D01*
D14*
X130880000Y-76800000D02*
X130880000Y-77020000D01*
X130880000Y-77020000D02*
X131900000Y-77020000D01*
X149120000Y-76700000D02*
X149120000Y-77000000D01*
X148000000Y-77020000D02*
X149120000Y-77020000D01*
X130880000Y-56780000D02*
X149120000Y-56780000D01*
X149120000Y-56780000D02*
X149120000Y-63300000D01*
X130880000Y-56780000D02*
X130880000Y-63100000D01*
X130880000Y-63100000D02*
X129000000Y-63100000D01*
D11*
X122200000Y-60735000D02*
X124485000Y-60735000D01*
X124485000Y-60735000D02*
X124485000Y-59265000D01*
X124485000Y-59265000D02*
X122200000Y-59265000D01*
X145900000Y-83300000D02*
G75*
G03X145900000Y-83300000I-950000J0D01*
G01*
X154117500Y-70950000D02*
X156802500Y-70950000D01*
X154117500Y-69030000D02*
X154117500Y-70950000D01*
X156802500Y-69030000D02*
X154117500Y-69030000D01*
X128658578Y-70310000D02*
X128141422Y-70310000D01*
X128658578Y-68890000D02*
X128141422Y-68890000D01*
X132580000Y-81180000D02*
X132580000Y-78520000D01*
X129980000Y-81180000D02*
X132580000Y-81180000D01*
X129980000Y-78520000D02*
X132580000Y-78520000D01*
X129980000Y-81180000D02*
X129980000Y-78520000D01*
X128710000Y-81180000D02*
X127380000Y-81180000D01*
X127380000Y-81180000D02*
X127380000Y-79850000D01*
X154320000Y-79610000D02*
X159520000Y-79610000D01*
X154320000Y-74470000D02*
X154320000Y-79610000D01*
X159520000Y-71870000D02*
X159520000Y-79610000D01*
X154320000Y-74470000D02*
X156920000Y-74470000D01*
X156920000Y-74470000D02*
X156920000Y-71870000D01*
X156920000Y-71870000D02*
X159520000Y-71870000D01*
X154320000Y-73200000D02*
X154320000Y-71870000D01*
X154320000Y-71870000D02*
X155650000Y-71870000D01*
X74360000Y-116301078D02*
X74360000Y-115783922D01*
X75780000Y-116301078D02*
X75780000Y-115783922D01*
X158983922Y-69270000D02*
X159501078Y-69270000D01*
X158983922Y-70690000D02*
X159501078Y-70690000D01*
X96000000Y-89040000D02*
X93315000Y-89040000D01*
X93315000Y-89040000D02*
X93315000Y-90960000D01*
X93315000Y-90960000D02*
X96000000Y-90960000D01*
X153815000Y-90960000D02*
X156500000Y-90960000D01*
X153815000Y-89040000D02*
X153815000Y-90960000D01*
X156500000Y-89040000D02*
X153815000Y-89040000D01*
X116000000Y-89040000D02*
X113315000Y-89040000D01*
X113315000Y-89040000D02*
X113315000Y-90960000D01*
X113315000Y-90960000D02*
X116000000Y-90960000D01*
X133315000Y-90960000D02*
X136000000Y-90960000D01*
X133315000Y-89040000D02*
X133315000Y-90960000D01*
X136000000Y-89040000D02*
X133315000Y-89040000D01*
X76000000Y-89040000D02*
X73315000Y-89040000D01*
X73315000Y-89040000D02*
X73315000Y-90960000D01*
X73315000Y-90960000D02*
X76000000Y-90960000D01*
X152510000Y-91580000D02*
X152510000Y-90650000D01*
X152510000Y-88420000D02*
X152510000Y-89350000D01*
X152510000Y-88420000D02*
X150350000Y-88420000D01*
X152510000Y-91580000D02*
X151050000Y-91580000D01*
X159508578Y-89290000D02*
X158991422Y-89290000D01*
X159508578Y-90710000D02*
X158991422Y-90710000D01*
X139008578Y-90710000D02*
X138491422Y-90710000D01*
X139008578Y-89290000D02*
X138491422Y-89290000D01*
X99008578Y-89290000D02*
X98491422Y-89290000D01*
X99008578Y-90710000D02*
X98491422Y-90710000D01*
X78946078Y-90710000D02*
X78428922Y-90710000D01*
X78946078Y-89290000D02*
X78428922Y-89290000D01*
X119008578Y-89290000D02*
X118491422Y-89290000D01*
X119008578Y-90710000D02*
X118491422Y-90710000D01*
X128241422Y-65790000D02*
X128758578Y-65790000D01*
X128241422Y-67210000D02*
X128758578Y-67210000D01*
X151000000Y-130500000D02*
X155500000Y-130500000D01*
X149750000Y-126500000D02*
X149750000Y-128000000D01*
X155500000Y-124000000D02*
X151000000Y-124000000D01*
X156750000Y-128000000D02*
X156750000Y-126500000D01*
X96750000Y-143000000D02*
X96750000Y-141500000D01*
X95500000Y-139000000D02*
X91000000Y-139000000D01*
X89750000Y-141500000D02*
X89750000Y-143000000D01*
X91000000Y-145500000D02*
X95500000Y-145500000D01*
X106000000Y-145500000D02*
X110500000Y-145500000D01*
X104750000Y-141500000D02*
X104750000Y-143000000D01*
X110500000Y-139000000D02*
X106000000Y-139000000D01*
X111750000Y-143000000D02*
X111750000Y-141500000D01*
X78000000Y-102500000D02*
G75*
G03X78000000Y-102500000I-3000000J0D01*
G01*
X69100000Y-100500000D02*
X69100000Y-96400000D01*
X80900000Y-96400000D02*
X80900000Y-100500000D01*
X80900000Y-104500000D02*
X80900000Y-108600000D01*
X69100000Y-104500000D02*
X69100000Y-108600000D01*
X69100000Y-108600000D02*
X80900000Y-108600000D01*
X71200000Y-110000000D02*
X70900000Y-110300000D01*
X70900000Y-110300000D02*
X70900000Y-109700000D01*
X70900000Y-109700000D02*
X71200000Y-110000000D01*
X69100000Y-96400000D02*
X71500000Y-96400000D01*
X73700000Y-96400000D02*
X76300000Y-96400000D01*
X78500000Y-96400000D02*
X80900000Y-96400000D01*
X74500000Y-102500000D02*
X75500000Y-102500000D01*
X75000000Y-103000000D02*
X75000000Y-102000000D01*
X98000000Y-102500000D02*
G75*
G03X98000000Y-102500000I-3000000J0D01*
G01*
X89100000Y-100500000D02*
X89100000Y-96400000D01*
X100900000Y-96400000D02*
X100900000Y-100500000D01*
X100900000Y-104500000D02*
X100900000Y-108600000D01*
X89100000Y-104500000D02*
X89100000Y-108600000D01*
X89100000Y-108600000D02*
X100900000Y-108600000D01*
X91200000Y-110000000D02*
X90900000Y-110300000D01*
X90900000Y-110300000D02*
X90900000Y-109700000D01*
X90900000Y-109700000D02*
X91200000Y-110000000D01*
X89100000Y-96400000D02*
X91500000Y-96400000D01*
X93700000Y-96400000D02*
X96300000Y-96400000D01*
X98500000Y-96400000D02*
X100900000Y-96400000D01*
X94500000Y-102500000D02*
X95500000Y-102500000D01*
X95000000Y-103000000D02*
X95000000Y-102000000D01*
X118000000Y-102500000D02*
G75*
G03X118000000Y-102500000I-3000000J0D01*
G01*
X109100000Y-100500000D02*
X109100000Y-96400000D01*
X120900000Y-96400000D02*
X120900000Y-100500000D01*
X120900000Y-104500000D02*
X120900000Y-108600000D01*
X109100000Y-104500000D02*
X109100000Y-108600000D01*
X109100000Y-108600000D02*
X120900000Y-108600000D01*
X111200000Y-110000000D02*
X110900000Y-110300000D01*
X110900000Y-110300000D02*
X110900000Y-109700000D01*
X110900000Y-109700000D02*
X111200000Y-110000000D01*
X109100000Y-96400000D02*
X111500000Y-96400000D01*
X113700000Y-96400000D02*
X116300000Y-96400000D01*
X118500000Y-96400000D02*
X120900000Y-96400000D01*
X114500000Y-102500000D02*
X115500000Y-102500000D01*
X115000000Y-103000000D02*
X115000000Y-102000000D01*
X96750000Y-128000000D02*
X96750000Y-126500000D01*
X95500000Y-124000000D02*
X91000000Y-124000000D01*
X89750000Y-126500000D02*
X89750000Y-128000000D01*
X91000000Y-130500000D02*
X95500000Y-130500000D01*
X106000000Y-130500000D02*
X110500000Y-130500000D01*
X104750000Y-126500000D02*
X104750000Y-128000000D01*
X110500000Y-124000000D02*
X106000000Y-124000000D01*
X111750000Y-128000000D02*
X111750000Y-126500000D01*
X126750000Y-128000000D02*
X126750000Y-126500000D01*
X125500000Y-124000000D02*
X121000000Y-124000000D01*
X119750000Y-126500000D02*
X119750000Y-128000000D01*
X121000000Y-130500000D02*
X125500000Y-130500000D01*
X136000000Y-130500000D02*
X140500000Y-130500000D01*
X134750000Y-126500000D02*
X134750000Y-128000000D01*
X140500000Y-124000000D02*
X136000000Y-124000000D01*
X141750000Y-128000000D02*
X141750000Y-126500000D01*
X151000000Y-145500000D02*
X155500000Y-145500000D01*
X149750000Y-141500000D02*
X149750000Y-143000000D01*
X155500000Y-139000000D02*
X151000000Y-139000000D01*
X156750000Y-143000000D02*
X156750000Y-141500000D01*
X141750000Y-143000000D02*
X141750000Y-141500000D01*
X140500000Y-139000000D02*
X136000000Y-139000000D01*
X134750000Y-141500000D02*
X134750000Y-143000000D01*
X136000000Y-145500000D02*
X140500000Y-145500000D01*
X121000000Y-145500000D02*
X125500000Y-145500000D01*
X119750000Y-141500000D02*
X119750000Y-143000000D01*
X125500000Y-139000000D02*
X121000000Y-139000000D01*
X126750000Y-143000000D02*
X126750000Y-141500000D01*
X117179422Y-62290000D02*
X117696578Y-62290000D01*
X117179422Y-63710000D02*
X117696578Y-63710000D01*
X126241422Y-65210000D02*
X126758578Y-65210000D01*
X126241422Y-63790000D02*
X126758578Y-63790000D01*
X113820578Y-69290000D02*
X113303422Y-69290000D01*
X113820578Y-70710000D02*
X113303422Y-70710000D01*
X117179422Y-69290000D02*
X117696578Y-69290000D01*
X117179422Y-70710000D02*
X117696578Y-70710000D01*
X104794000Y-55481000D02*
X98914000Y-55481000D01*
X97744000Y-59951000D02*
X98794000Y-59951000D01*
X97744000Y-57451000D02*
X97744000Y-59951000D01*
X104914000Y-59951000D02*
X104914000Y-60941000D01*
X105964000Y-59951000D02*
X104914000Y-59951000D01*
X105964000Y-57451000D02*
X105964000Y-59951000D01*
X72500000Y-119300000D02*
X72500000Y-118500000D01*
X72499956Y-118500000D02*
X76950000Y-118500000D01*
X73050000Y-121500000D02*
X76950000Y-121500000D01*
D10*
X75000000Y-64000000D02*
X105000000Y-64000000D01*
X105000000Y-64000000D02*
X105000000Y-81500000D01*
X82380000Y-81500000D02*
X75000000Y-81500000D01*
X75000000Y-81500000D02*
X75000000Y-64000000D01*
X97620000Y-81500000D02*
X105000000Y-81500000D01*
X113200000Y-60400000D02*
X112200000Y-60400000D01*
X116800000Y-60400000D02*
X117800000Y-60400000D01*
X116800000Y-60825000D02*
X116800000Y-60400000D01*
X116075000Y-60825000D02*
X116800000Y-60825000D01*
X110850000Y-57250000D02*
X110850000Y-58650000D01*
X110850000Y-54700000D02*
X110850000Y-54850000D01*
X111150000Y-54700000D02*
X110850000Y-54700000D01*
X111150000Y-54250000D02*
X111150000Y-54700000D01*
X118850000Y-54700000D02*
X118850000Y-54250000D01*
X119150000Y-54700000D02*
X118850000Y-54700000D01*
X119150000Y-54850000D02*
X119150000Y-54700000D01*
X119150000Y-58650000D02*
X119150000Y-57250000D01*
D11*
X92010000Y-91580000D02*
X90550000Y-91580000D01*
X92010000Y-88420000D02*
X89850000Y-88420000D01*
X92010000Y-88420000D02*
X92010000Y-89350000D01*
X92010000Y-91580000D02*
X92010000Y-90650000D01*
X72010000Y-91580000D02*
X72010000Y-90650000D01*
X72010000Y-88420000D02*
X72010000Y-89350000D01*
X72010000Y-88420000D02*
X69850000Y-88420000D01*
X72010000Y-91580000D02*
X70550000Y-91580000D01*
X132010000Y-91580000D02*
X130550000Y-91580000D01*
X132010000Y-88420000D02*
X129850000Y-88420000D01*
X132010000Y-88420000D02*
X132010000Y-89350000D01*
X132010000Y-91580000D02*
X132010000Y-90650000D01*
X112010000Y-91580000D02*
X112010000Y-90650000D01*
X112010000Y-88420000D02*
X112010000Y-89350000D01*
X112010000Y-88420000D02*
X109850000Y-88420000D01*
X112010000Y-91580000D02*
X110550000Y-91580000D01*
X113890000Y-65800000D02*
X113890000Y-67600000D01*
X117110000Y-67600000D02*
X117110000Y-65150000D01*
X70911078Y-120040000D02*
X70393922Y-120040000D01*
X70911078Y-121460000D02*
X70393922Y-121460000D01*
X75831078Y-122000000D02*
X75313922Y-122000000D01*
X75831078Y-123420000D02*
X75313922Y-123420000D01*
X155000000Y-103000000D02*
X155000000Y-102000000D01*
X154500000Y-102500000D02*
X155500000Y-102500000D01*
X158500000Y-96400000D02*
X160900000Y-96400000D01*
X153700000Y-96400000D02*
X156300000Y-96400000D01*
X149100000Y-96400000D02*
X151500000Y-96400000D01*
X150900000Y-109700000D02*
X151200000Y-110000000D01*
X150900000Y-110300000D02*
X150900000Y-109700000D01*
X151200000Y-110000000D02*
X150900000Y-110300000D01*
X149100000Y-108600000D02*
X160900000Y-108600000D01*
X149100000Y-104500000D02*
X149100000Y-108600000D01*
X160900000Y-104500000D02*
X160900000Y-108600000D01*
X160900000Y-96400000D02*
X160900000Y-100500000D01*
X149100000Y-100500000D02*
X149100000Y-96400000D01*
X158000000Y-102500000D02*
G75*
G03X158000000Y-102500000I-3000000J0D01*
G01*
X78000000Y-132500000D02*
G75*
G03X78000000Y-132500000I-3000000J0D01*
G01*
X69100000Y-130500000D02*
X69100000Y-126400000D01*
X80900000Y-126400000D02*
X80900000Y-130500000D01*
X80900000Y-134500000D02*
X80900000Y-138600000D01*
X69100000Y-134500000D02*
X69100000Y-138600000D01*
X69100000Y-138600000D02*
X80900000Y-138600000D01*
X71200000Y-140000000D02*
X70900000Y-140300000D01*
X70900000Y-140300000D02*
X70900000Y-139700000D01*
X70900000Y-139700000D02*
X71200000Y-140000000D01*
X69100000Y-126400000D02*
X71500000Y-126400000D01*
X73700000Y-126400000D02*
X76300000Y-126400000D01*
X78500000Y-126400000D02*
X80900000Y-126400000D01*
X74500000Y-132500000D02*
X75500000Y-132500000D01*
X75000000Y-133000000D02*
X75000000Y-132000000D01*
X138000000Y-102500000D02*
G75*
G03X138000000Y-102500000I-3000000J0D01*
G01*
X129100000Y-100500000D02*
X129100000Y-96400000D01*
X140900000Y-96400000D02*
X140900000Y-100500000D01*
X140900000Y-104500000D02*
X140900000Y-108600000D01*
X129100000Y-104500000D02*
X129100000Y-108600000D01*
X129100000Y-108600000D02*
X140900000Y-108600000D01*
X131200000Y-110000000D02*
X130900000Y-110300000D01*
X130900000Y-110300000D02*
X130900000Y-109700000D01*
X130900000Y-109700000D02*
X131200000Y-110000000D01*
X129100000Y-96400000D02*
X131500000Y-96400000D01*
X133700000Y-96400000D02*
X136300000Y-96400000D01*
X138500000Y-96400000D02*
X140900000Y-96400000D01*
X134500000Y-102500000D02*
X135500000Y-102500000D01*
X135000000Y-103000000D02*
X135000000Y-102000000D01*
D15*
G36*
X120662617Y-149347808D02*
G01*
X120845967Y-149362458D01*
X120981496Y-149382936D01*
X121026930Y-149396114D01*
X121089676Y-149427615D01*
X121126264Y-149470620D01*
X121143731Y-149547115D01*
X121149114Y-149679087D01*
X121149474Y-149779002D01*
X121149474Y-150110034D01*
X120926189Y-150025193D01*
X120619614Y-149948953D01*
X120333155Y-149955873D01*
X120073479Y-150041010D01*
X119847253Y-150199420D01*
X119661145Y-150426161D01*
X119521821Y-150716291D01*
X119435948Y-151064865D01*
X119426234Y-151137226D01*
X119397987Y-151377563D01*
X119594169Y-151181655D01*
X119826361Y-151007544D01*
X120087232Y-150908252D01*
X120361231Y-150881225D01*
X120632810Y-150923907D01*
X120886417Y-151033746D01*
X121106504Y-151208185D01*
X121277519Y-151444670D01*
X121285212Y-151459465D01*
X121375335Y-151713585D01*
X121420043Y-152013880D01*
X121418667Y-152329455D01*
X121370543Y-152629410D01*
X121314145Y-152800730D01*
X121190222Y-153010590D01*
X121007839Y-153213544D01*
X120795146Y-153381682D01*
X120647135Y-153462073D01*
X120401770Y-153538184D01*
X120126690Y-153576184D01*
X119858301Y-153573490D01*
X119648832Y-153532929D01*
X119356380Y-153401153D01*
X119118930Y-153211252D01*
X118928308Y-152954691D01*
X118776340Y-152622937D01*
X118775823Y-152621515D01*
X118720844Y-152408359D01*
X118702028Y-152273146D01*
X119460129Y-152273146D01*
X119505849Y-152500090D01*
X119596143Y-152702395D01*
X119724684Y-152858771D01*
X119857193Y-152938913D01*
X120025043Y-152966212D01*
X120211118Y-152947360D01*
X120347433Y-152896558D01*
X120508657Y-152750669D01*
X120612973Y-152539998D01*
X120657714Y-152270481D01*
X120659298Y-152202365D01*
X120628489Y-151932538D01*
X120537753Y-151725306D01*
X120389628Y-151583654D01*
X120186650Y-151510567D01*
X120062979Y-151500657D01*
X119852877Y-151540288D01*
X119668499Y-151649809D01*
X119536615Y-151812723D01*
X119527727Y-151830507D01*
X119465312Y-152042855D01*
X119460129Y-152273146D01*
X118702028Y-152273146D01*
X118682569Y-152133320D01*
X118661897Y-151822227D01*
X118659728Y-151500905D01*
X118676960Y-151195183D01*
X118714494Y-150930889D01*
X118716607Y-150920702D01*
X118843339Y-150490269D01*
X119027995Y-150118976D01*
X119267140Y-149811768D01*
X119557339Y-149573594D01*
X119713777Y-149485234D01*
X119858226Y-149417311D01*
X119976202Y-149374577D01*
X120096687Y-149351435D01*
X120248663Y-149342288D01*
X120457835Y-149341515D01*
X120662617Y-149347808D01*
X120662617Y-149347808D01*
G37*
X120662617Y-149347808D02*
X120845967Y-149362458D01*
X120981496Y-149382936D01*
X121026930Y-149396114D01*
X121089676Y-149427615D01*
X121126264Y-149470620D01*
X121143731Y-149547115D01*
X121149114Y-149679087D01*
X121149474Y-149779002D01*
X121149474Y-150110034D01*
X120926189Y-150025193D01*
X120619614Y-149948953D01*
X120333155Y-149955873D01*
X120073479Y-150041010D01*
X119847253Y-150199420D01*
X119661145Y-150426161D01*
X119521821Y-150716291D01*
X119435948Y-151064865D01*
X119426234Y-151137226D01*
X119397987Y-151377563D01*
X119594169Y-151181655D01*
X119826361Y-151007544D01*
X120087232Y-150908252D01*
X120361231Y-150881225D01*
X120632810Y-150923907D01*
X120886417Y-151033746D01*
X121106504Y-151208185D01*
X121277519Y-151444670D01*
X121285212Y-151459465D01*
X121375335Y-151713585D01*
X121420043Y-152013880D01*
X121418667Y-152329455D01*
X121370543Y-152629410D01*
X121314145Y-152800730D01*
X121190222Y-153010590D01*
X121007839Y-153213544D01*
X120795146Y-153381682D01*
X120647135Y-153462073D01*
X120401770Y-153538184D01*
X120126690Y-153576184D01*
X119858301Y-153573490D01*
X119648832Y-153532929D01*
X119356380Y-153401153D01*
X119118930Y-153211252D01*
X118928308Y-152954691D01*
X118776340Y-152622937D01*
X118775823Y-152621515D01*
X118720844Y-152408359D01*
X118702028Y-152273146D01*
X119460129Y-152273146D01*
X119505849Y-152500090D01*
X119596143Y-152702395D01*
X119724684Y-152858771D01*
X119857193Y-152938913D01*
X120025043Y-152966212D01*
X120211118Y-152947360D01*
X120347433Y-152896558D01*
X120508657Y-152750669D01*
X120612973Y-152539998D01*
X120657714Y-152270481D01*
X120659298Y-152202365D01*
X120628489Y-151932538D01*
X120537753Y-151725306D01*
X120389628Y-151583654D01*
X120186650Y-151510567D01*
X120062979Y-151500657D01*
X119852877Y-151540288D01*
X119668499Y-151649809D01*
X119536615Y-151812723D01*
X119527727Y-151830507D01*
X119465312Y-152042855D01*
X119460129Y-152273146D01*
X118702028Y-152273146D01*
X118682569Y-152133320D01*
X118661897Y-151822227D01*
X118659728Y-151500905D01*
X118676960Y-151195183D01*
X118714494Y-150930889D01*
X118716607Y-150920702D01*
X118843339Y-150490269D01*
X119027995Y-150118976D01*
X119267140Y-149811768D01*
X119557339Y-149573594D01*
X119713777Y-149485234D01*
X119858226Y-149417311D01*
X119976202Y-149374577D01*
X120096687Y-149351435D01*
X120248663Y-149342288D01*
X120457835Y-149341515D01*
X120662617Y-149347808D01*
G36*
X109028772Y-152836842D02*
G01*
X110588421Y-152836842D01*
X110588421Y-153505263D01*
X108226667Y-153505263D01*
X108226667Y-149405614D01*
X109028772Y-149405614D01*
X109028772Y-152836842D01*
X109028772Y-152836842D01*
G37*
X109028772Y-152836842D02*
X110588421Y-152836842D01*
X110588421Y-153505263D01*
X108226667Y-153505263D01*
X108226667Y-149405614D01*
X109028772Y-149405614D01*
X109028772Y-152836842D01*
G36*
X112838772Y-150497369D02*
G01*
X112851756Y-150867555D01*
X112856975Y-151047559D01*
X112854679Y-151153933D01*
X112841287Y-151202084D01*
X112813220Y-151207418D01*
X112776703Y-151190625D01*
X112620965Y-151148402D01*
X112432914Y-151154713D01*
X112252931Y-151206533D01*
X112201181Y-151233719D01*
X112103042Y-151303253D01*
X112026986Y-151385396D01*
X111970290Y-151491822D01*
X111930231Y-151634203D01*
X111904083Y-151824211D01*
X111889124Y-152073520D01*
X111882630Y-152393803D01*
X111881681Y-152602895D01*
X111880702Y-153505263D01*
X111078597Y-153505263D01*
X111078597Y-150564211D01*
X111880702Y-150564211D01*
X111882168Y-151032105D01*
X111981882Y-150853860D01*
X112125696Y-150679973D01*
X112322919Y-150552808D01*
X112544377Y-150488235D01*
X112660526Y-150484738D01*
X112838772Y-150497369D01*
X112838772Y-150497369D01*
G37*
X112838772Y-150497369D02*
X112851756Y-150867555D01*
X112856975Y-151047559D01*
X112854679Y-151153933D01*
X112841287Y-151202084D01*
X112813220Y-151207418D01*
X112776703Y-151190625D01*
X112620965Y-151148402D01*
X112432914Y-151154713D01*
X112252931Y-151206533D01*
X112201181Y-151233719D01*
X112103042Y-151303253D01*
X112026986Y-151385396D01*
X111970290Y-151491822D01*
X111930231Y-151634203D01*
X111904083Y-151824211D01*
X111889124Y-152073520D01*
X111882630Y-152393803D01*
X111881681Y-152602895D01*
X111880702Y-153505263D01*
X111078597Y-153505263D01*
X111078597Y-150564211D01*
X111880702Y-150564211D01*
X111882168Y-151032105D01*
X111981882Y-150853860D01*
X112125696Y-150679973D01*
X112322919Y-150552808D01*
X112544377Y-150488235D01*
X112660526Y-150484738D01*
X112838772Y-150497369D01*
G36*
X115668421Y-150074035D02*
G01*
X114197895Y-150074035D01*
X114197895Y-151098947D01*
X115579298Y-151098947D01*
X115579298Y-151767369D01*
X114197895Y-151767369D01*
X114197895Y-152836842D01*
X115757544Y-152836842D01*
X115757544Y-153505263D01*
X113395790Y-153505263D01*
X113395790Y-149405614D01*
X115668421Y-149405614D01*
X115668421Y-150074035D01*
X115668421Y-150074035D01*
G37*
X115668421Y-150074035D02*
X114197895Y-150074035D01*
X114197895Y-151098947D01*
X115579298Y-151098947D01*
X115579298Y-151767369D01*
X114197895Y-151767369D01*
X114197895Y-152836842D01*
X115757544Y-152836842D01*
X115757544Y-153505263D01*
X113395790Y-153505263D01*
X113395790Y-149405614D01*
X115668421Y-149405614D01*
X115668421Y-150074035D01*
G36*
X117941053Y-152168421D02*
G01*
X116381404Y-152168421D01*
X116381404Y-151633684D01*
X117941053Y-151633684D01*
X117941053Y-152168421D01*
X117941053Y-152168421D01*
G37*
X117941053Y-152168421D02*
X116381404Y-152168421D01*
X116381404Y-151633684D01*
X117941053Y-151633684D01*
X117941053Y-152168421D01*
D10*
X139638095Y-78052380D02*
X139638095Y-78861904D01*
X139685714Y-78957142D01*
X139733333Y-79004761D01*
X139828571Y-79052380D01*
X140019047Y-79052380D01*
X140114285Y-79004761D01*
X140161904Y-78957142D01*
X140209523Y-78861904D01*
X140209523Y-78052380D01*
X140638095Y-78147619D02*
X140685714Y-78100000D01*
X140780952Y-78052380D01*
X141019047Y-78052380D01*
X141114285Y-78100000D01*
X141161904Y-78147619D01*
X141209523Y-78242857D01*
X141209523Y-78338095D01*
X141161904Y-78480952D01*
X140590476Y-79052380D01*
X141209523Y-79052380D01*
X121785714Y-61882380D02*
X121785714Y-60882380D01*
X122023809Y-60882380D01*
X122166666Y-60930000D01*
X122261904Y-61025238D01*
X122309523Y-61120476D01*
X122357142Y-61310952D01*
X122357142Y-61453809D01*
X122309523Y-61644285D01*
X122261904Y-61739523D01*
X122166666Y-61834761D01*
X122023809Y-61882380D01*
X121785714Y-61882380D01*
X123309523Y-61882380D02*
X122738095Y-61882380D01*
X123023809Y-61882380D02*
X123023809Y-60882380D01*
X122928571Y-61025238D01*
X122833333Y-61120476D01*
X122738095Y-61168095D01*
X123880952Y-61310952D02*
X123785714Y-61263333D01*
X123738095Y-61215714D01*
X123690476Y-61120476D01*
X123690476Y-61072857D01*
X123738095Y-60977619D01*
X123785714Y-60930000D01*
X123880952Y-60882380D01*
X124071428Y-60882380D01*
X124166666Y-60930000D01*
X124214285Y-60977619D01*
X124261904Y-61072857D01*
X124261904Y-61120476D01*
X124214285Y-61215714D01*
X124166666Y-61263333D01*
X124071428Y-61310952D01*
X123880952Y-61310952D01*
X123785714Y-61358571D01*
X123738095Y-61406190D01*
X123690476Y-61501428D01*
X123690476Y-61691904D01*
X123738095Y-61787142D01*
X123785714Y-61834761D01*
X123880952Y-61882380D01*
X124071428Y-61882380D01*
X124166666Y-61834761D01*
X124214285Y-61787142D01*
X124261904Y-61691904D01*
X124261904Y-61501428D01*
X124214285Y-61406190D01*
X124166666Y-61358571D01*
X124071428Y-61310952D01*
X143688095Y-81104380D02*
X144259523Y-81104380D01*
X143973809Y-82104380D02*
X143973809Y-81104380D01*
X144592857Y-82104380D02*
X144592857Y-81104380D01*
X144973809Y-81104380D01*
X145069047Y-81152000D01*
X145116666Y-81199619D01*
X145164285Y-81294857D01*
X145164285Y-81437714D01*
X145116666Y-81532952D01*
X145069047Y-81580571D01*
X144973809Y-81628190D01*
X144592857Y-81628190D01*
X146116666Y-82104380D02*
X145545238Y-82104380D01*
X145830952Y-82104380D02*
X145830952Y-81104380D01*
X145735714Y-81247238D01*
X145640476Y-81342476D01*
X145545238Y-81390095D01*
X151255714Y-70492380D02*
X151255714Y-69492380D01*
X151493809Y-69492380D01*
X151636666Y-69540000D01*
X151731904Y-69635238D01*
X151779523Y-69730476D01*
X151827142Y-69920952D01*
X151827142Y-70063809D01*
X151779523Y-70254285D01*
X151731904Y-70349523D01*
X151636666Y-70444761D01*
X151493809Y-70492380D01*
X151255714Y-70492380D01*
X152779523Y-70492380D02*
X152208095Y-70492380D01*
X152493809Y-70492380D02*
X152493809Y-69492380D01*
X152398571Y-69635238D01*
X152303333Y-69730476D01*
X152208095Y-69778095D01*
X153255714Y-70492380D02*
X153446190Y-70492380D01*
X153541428Y-70444761D01*
X153589047Y-70397142D01*
X153684285Y-70254285D01*
X153731904Y-70063809D01*
X153731904Y-69682857D01*
X153684285Y-69587619D01*
X153636666Y-69540000D01*
X153541428Y-69492380D01*
X153350952Y-69492380D01*
X153255714Y-69540000D01*
X153208095Y-69587619D01*
X153160476Y-69682857D01*
X153160476Y-69920952D01*
X153208095Y-70016190D01*
X153255714Y-70063809D01*
X153350952Y-70111428D01*
X153541428Y-70111428D01*
X153636666Y-70063809D01*
X153684285Y-70016190D01*
X153731904Y-69920952D01*
X124227142Y-69947142D02*
X124179523Y-69994761D01*
X124036666Y-70042380D01*
X123941428Y-70042380D01*
X123798571Y-69994761D01*
X123703333Y-69899523D01*
X123655714Y-69804285D01*
X123608095Y-69613809D01*
X123608095Y-69470952D01*
X123655714Y-69280476D01*
X123703333Y-69185238D01*
X123798571Y-69090000D01*
X123941428Y-69042380D01*
X124036666Y-69042380D01*
X124179523Y-69090000D01*
X124227142Y-69137619D01*
X124608095Y-69137619D02*
X124655714Y-69090000D01*
X124750952Y-69042380D01*
X124989047Y-69042380D01*
X125084285Y-69090000D01*
X125131904Y-69137619D01*
X125179523Y-69232857D01*
X125179523Y-69328095D01*
X125131904Y-69470952D01*
X124560476Y-70042380D01*
X125179523Y-70042380D01*
X125750952Y-69470952D02*
X125655714Y-69423333D01*
X125608095Y-69375714D01*
X125560476Y-69280476D01*
X125560476Y-69232857D01*
X125608095Y-69137619D01*
X125655714Y-69090000D01*
X125750952Y-69042380D01*
X125941428Y-69042380D01*
X126036666Y-69090000D01*
X126084285Y-69137619D01*
X126131904Y-69232857D01*
X126131904Y-69280476D01*
X126084285Y-69375714D01*
X126036666Y-69423333D01*
X125941428Y-69470952D01*
X125750952Y-69470952D01*
X125655714Y-69518571D01*
X125608095Y-69566190D01*
X125560476Y-69661428D01*
X125560476Y-69851904D01*
X125608095Y-69947142D01*
X125655714Y-69994761D01*
X125750952Y-70042380D01*
X125941428Y-70042380D01*
X126036666Y-69994761D01*
X126084285Y-69947142D01*
X126131904Y-69851904D01*
X126131904Y-69661428D01*
X126084285Y-69566190D01*
X126036666Y-69518571D01*
X125941428Y-69470952D01*
X129416666Y-82152380D02*
X129416666Y-82866666D01*
X129369047Y-83009523D01*
X129273809Y-83104761D01*
X129130952Y-83152380D01*
X129035714Y-83152380D01*
X130321428Y-82485714D02*
X130321428Y-83152380D01*
X130083333Y-82104761D02*
X129845238Y-82819047D01*
X130464285Y-82819047D01*
X156566666Y-80152380D02*
X156566666Y-80866666D01*
X156519047Y-81009523D01*
X156423809Y-81104761D01*
X156280952Y-81152380D01*
X156185714Y-81152380D01*
X156947619Y-80152380D02*
X157566666Y-80152380D01*
X157233333Y-80533333D01*
X157376190Y-80533333D01*
X157471428Y-80580952D01*
X157519047Y-80628571D01*
X157566666Y-80723809D01*
X157566666Y-80961904D01*
X157519047Y-81057142D01*
X157471428Y-81104761D01*
X157376190Y-81152380D01*
X157090476Y-81152380D01*
X156995238Y-81104761D01*
X156947619Y-81057142D01*
X77092380Y-116845357D02*
X76616190Y-117178690D01*
X77092380Y-117416785D02*
X76092380Y-117416785D01*
X76092380Y-117035833D01*
X76140000Y-116940595D01*
X76187619Y-116892976D01*
X76282857Y-116845357D01*
X76425714Y-116845357D01*
X76520952Y-116892976D01*
X76568571Y-116940595D01*
X76616190Y-117035833D01*
X76616190Y-117416785D01*
X76187619Y-116464404D02*
X76140000Y-116416785D01*
X76092380Y-116321547D01*
X76092380Y-116083452D01*
X76140000Y-115988214D01*
X76187619Y-115940595D01*
X76282857Y-115892976D01*
X76378095Y-115892976D01*
X76520952Y-115940595D01*
X77092380Y-116512023D01*
X77092380Y-115892976D01*
X77092380Y-114940595D02*
X77092380Y-115512023D01*
X77092380Y-115226309D02*
X76092380Y-115226309D01*
X76235238Y-115321547D01*
X76330476Y-115416785D01*
X76378095Y-115512023D01*
X161837142Y-70632380D02*
X161503809Y-70156190D01*
X161265714Y-70632380D02*
X161265714Y-69632380D01*
X161646666Y-69632380D01*
X161741904Y-69680000D01*
X161789523Y-69727619D01*
X161837142Y-69822857D01*
X161837142Y-69965714D01*
X161789523Y-70060952D01*
X161741904Y-70108571D01*
X161646666Y-70156190D01*
X161265714Y-70156190D01*
X162170476Y-69632380D02*
X162789523Y-69632380D01*
X162456190Y-70013333D01*
X162599047Y-70013333D01*
X162694285Y-70060952D01*
X162741904Y-70108571D01*
X162789523Y-70203809D01*
X162789523Y-70441904D01*
X162741904Y-70537142D01*
X162694285Y-70584761D01*
X162599047Y-70632380D01*
X162313333Y-70632380D01*
X162218095Y-70584761D01*
X162170476Y-70537142D01*
X163741904Y-70632380D02*
X163170476Y-70632380D01*
X163456190Y-70632380D02*
X163456190Y-69632380D01*
X163360952Y-69775238D01*
X163265714Y-69870476D01*
X163170476Y-69918095D01*
X93785714Y-92452380D02*
X93785714Y-91452380D01*
X94023809Y-91452380D01*
X94166666Y-91500000D01*
X94261904Y-91595238D01*
X94309523Y-91690476D01*
X94357142Y-91880952D01*
X94357142Y-92023809D01*
X94309523Y-92214285D01*
X94261904Y-92309523D01*
X94166666Y-92404761D01*
X94023809Y-92452380D01*
X93785714Y-92452380D01*
X94738095Y-91547619D02*
X94785714Y-91500000D01*
X94880952Y-91452380D01*
X95119047Y-91452380D01*
X95214285Y-91500000D01*
X95261904Y-91547619D01*
X95309523Y-91642857D01*
X95309523Y-91738095D01*
X95261904Y-91880952D01*
X94690476Y-92452380D01*
X95309523Y-92452380D01*
X95690476Y-91547619D02*
X95738095Y-91500000D01*
X95833333Y-91452380D01*
X96071428Y-91452380D01*
X96166666Y-91500000D01*
X96214285Y-91547619D01*
X96261904Y-91642857D01*
X96261904Y-91738095D01*
X96214285Y-91880952D01*
X95642857Y-92452380D01*
X96261904Y-92452380D01*
X154285714Y-88802380D02*
X154285714Y-87802380D01*
X154523809Y-87802380D01*
X154666666Y-87850000D01*
X154761904Y-87945238D01*
X154809523Y-88040476D01*
X154857142Y-88230952D01*
X154857142Y-88373809D01*
X154809523Y-88564285D01*
X154761904Y-88659523D01*
X154666666Y-88754761D01*
X154523809Y-88802380D01*
X154285714Y-88802380D01*
X155238095Y-87897619D02*
X155285714Y-87850000D01*
X155380952Y-87802380D01*
X155619047Y-87802380D01*
X155714285Y-87850000D01*
X155761904Y-87897619D01*
X155809523Y-87992857D01*
X155809523Y-88088095D01*
X155761904Y-88230952D01*
X155190476Y-88802380D01*
X155809523Y-88802380D01*
X156714285Y-87802380D02*
X156238095Y-87802380D01*
X156190476Y-88278571D01*
X156238095Y-88230952D01*
X156333333Y-88183333D01*
X156571428Y-88183333D01*
X156666666Y-88230952D01*
X156714285Y-88278571D01*
X156761904Y-88373809D01*
X156761904Y-88611904D01*
X156714285Y-88707142D01*
X156666666Y-88754761D01*
X156571428Y-88802380D01*
X156333333Y-88802380D01*
X156238095Y-88754761D01*
X156190476Y-88707142D01*
X113785714Y-88802380D02*
X113785714Y-87802380D01*
X114023809Y-87802380D01*
X114166666Y-87850000D01*
X114261904Y-87945238D01*
X114309523Y-88040476D01*
X114357142Y-88230952D01*
X114357142Y-88373809D01*
X114309523Y-88564285D01*
X114261904Y-88659523D01*
X114166666Y-88754761D01*
X114023809Y-88802380D01*
X113785714Y-88802380D01*
X114738095Y-87897619D02*
X114785714Y-87850000D01*
X114880952Y-87802380D01*
X115119047Y-87802380D01*
X115214285Y-87850000D01*
X115261904Y-87897619D01*
X115309523Y-87992857D01*
X115309523Y-88088095D01*
X115261904Y-88230952D01*
X114690476Y-88802380D01*
X115309523Y-88802380D01*
X115642857Y-87802380D02*
X116261904Y-87802380D01*
X115928571Y-88183333D01*
X116071428Y-88183333D01*
X116166666Y-88230952D01*
X116214285Y-88278571D01*
X116261904Y-88373809D01*
X116261904Y-88611904D01*
X116214285Y-88707142D01*
X116166666Y-88754761D01*
X116071428Y-88802380D01*
X115785714Y-88802380D01*
X115690476Y-88754761D01*
X115642857Y-88707142D01*
X133785714Y-88802380D02*
X133785714Y-87802380D01*
X134023809Y-87802380D01*
X134166666Y-87850000D01*
X134261904Y-87945238D01*
X134309523Y-88040476D01*
X134357142Y-88230952D01*
X134357142Y-88373809D01*
X134309523Y-88564285D01*
X134261904Y-88659523D01*
X134166666Y-88754761D01*
X134023809Y-88802380D01*
X133785714Y-88802380D01*
X134738095Y-87897619D02*
X134785714Y-87850000D01*
X134880952Y-87802380D01*
X135119047Y-87802380D01*
X135214285Y-87850000D01*
X135261904Y-87897619D01*
X135309523Y-87992857D01*
X135309523Y-88088095D01*
X135261904Y-88230952D01*
X134690476Y-88802380D01*
X135309523Y-88802380D01*
X136166666Y-88135714D02*
X136166666Y-88802380D01*
X135928571Y-87754761D02*
X135690476Y-88469047D01*
X136309523Y-88469047D01*
X73785714Y-88802380D02*
X73785714Y-87802380D01*
X74023809Y-87802380D01*
X74166666Y-87850000D01*
X74261904Y-87945238D01*
X74309523Y-88040476D01*
X74357142Y-88230952D01*
X74357142Y-88373809D01*
X74309523Y-88564285D01*
X74261904Y-88659523D01*
X74166666Y-88754761D01*
X74023809Y-88802380D01*
X73785714Y-88802380D01*
X74738095Y-87897619D02*
X74785714Y-87850000D01*
X74880952Y-87802380D01*
X75119047Y-87802380D01*
X75214285Y-87850000D01*
X75261904Y-87897619D01*
X75309523Y-87992857D01*
X75309523Y-88088095D01*
X75261904Y-88230952D01*
X74690476Y-88802380D01*
X75309523Y-88802380D01*
X76261904Y-88802380D02*
X75690476Y-88802380D01*
X75976190Y-88802380D02*
X75976190Y-87802380D01*
X75880952Y-87945238D01*
X75785714Y-88040476D01*
X75690476Y-88088095D01*
X151654761Y-88047619D02*
X151559523Y-88000000D01*
X151464285Y-87904761D01*
X151321428Y-87761904D01*
X151226190Y-87714285D01*
X151130952Y-87714285D01*
X151178571Y-87952380D02*
X151083333Y-87904761D01*
X150988095Y-87809523D01*
X150940476Y-87619047D01*
X150940476Y-87285714D01*
X150988095Y-87095238D01*
X151083333Y-87000000D01*
X151178571Y-86952380D01*
X151369047Y-86952380D01*
X151464285Y-87000000D01*
X151559523Y-87095238D01*
X151607142Y-87285714D01*
X151607142Y-87619047D01*
X151559523Y-87809523D01*
X151464285Y-87904761D01*
X151369047Y-87952380D01*
X151178571Y-87952380D01*
X152511904Y-86952380D02*
X152035714Y-86952380D01*
X151988095Y-87428571D01*
X152035714Y-87380952D01*
X152130952Y-87333333D01*
X152369047Y-87333333D01*
X152464285Y-87380952D01*
X152511904Y-87428571D01*
X152559523Y-87523809D01*
X152559523Y-87761904D01*
X152511904Y-87857142D01*
X152464285Y-87904761D01*
X152369047Y-87952380D01*
X152130952Y-87952380D01*
X152035714Y-87904761D01*
X151988095Y-87857142D01*
X158607142Y-92102380D02*
X158273809Y-91626190D01*
X158035714Y-92102380D02*
X158035714Y-91102380D01*
X158416666Y-91102380D01*
X158511904Y-91150000D01*
X158559523Y-91197619D01*
X158607142Y-91292857D01*
X158607142Y-91435714D01*
X158559523Y-91530952D01*
X158511904Y-91578571D01*
X158416666Y-91626190D01*
X158035714Y-91626190D01*
X158988095Y-91197619D02*
X159035714Y-91150000D01*
X159130952Y-91102380D01*
X159369047Y-91102380D01*
X159464285Y-91150000D01*
X159511904Y-91197619D01*
X159559523Y-91292857D01*
X159559523Y-91388095D01*
X159511904Y-91530952D01*
X158940476Y-92102380D01*
X159559523Y-92102380D01*
X160035714Y-92102380D02*
X160226190Y-92102380D01*
X160321428Y-92054761D01*
X160369047Y-92007142D01*
X160464285Y-91864285D01*
X160511904Y-91673809D01*
X160511904Y-91292857D01*
X160464285Y-91197619D01*
X160416666Y-91150000D01*
X160321428Y-91102380D01*
X160130952Y-91102380D01*
X160035714Y-91150000D01*
X159988095Y-91197619D01*
X159940476Y-91292857D01*
X159940476Y-91530952D01*
X159988095Y-91626190D01*
X160035714Y-91673809D01*
X160130952Y-91721428D01*
X160321428Y-91721428D01*
X160416666Y-91673809D01*
X160464285Y-91626190D01*
X160511904Y-91530952D01*
X138107142Y-92102380D02*
X137773809Y-91626190D01*
X137535714Y-92102380D02*
X137535714Y-91102380D01*
X137916666Y-91102380D01*
X138011904Y-91150000D01*
X138059523Y-91197619D01*
X138107142Y-91292857D01*
X138107142Y-91435714D01*
X138059523Y-91530952D01*
X138011904Y-91578571D01*
X137916666Y-91626190D01*
X137535714Y-91626190D01*
X138488095Y-91197619D02*
X138535714Y-91150000D01*
X138630952Y-91102380D01*
X138869047Y-91102380D01*
X138964285Y-91150000D01*
X139011904Y-91197619D01*
X139059523Y-91292857D01*
X139059523Y-91388095D01*
X139011904Y-91530952D01*
X138440476Y-92102380D01*
X139059523Y-92102380D01*
X139630952Y-91530952D02*
X139535714Y-91483333D01*
X139488095Y-91435714D01*
X139440476Y-91340476D01*
X139440476Y-91292857D01*
X139488095Y-91197619D01*
X139535714Y-91150000D01*
X139630952Y-91102380D01*
X139821428Y-91102380D01*
X139916666Y-91150000D01*
X139964285Y-91197619D01*
X140011904Y-91292857D01*
X140011904Y-91340476D01*
X139964285Y-91435714D01*
X139916666Y-91483333D01*
X139821428Y-91530952D01*
X139630952Y-91530952D01*
X139535714Y-91578571D01*
X139488095Y-91626190D01*
X139440476Y-91721428D01*
X139440476Y-91911904D01*
X139488095Y-92007142D01*
X139535714Y-92054761D01*
X139630952Y-92102380D01*
X139821428Y-92102380D01*
X139916666Y-92054761D01*
X139964285Y-92007142D01*
X140011904Y-91911904D01*
X140011904Y-91721428D01*
X139964285Y-91626190D01*
X139916666Y-91578571D01*
X139821428Y-91530952D01*
X98107142Y-88702380D02*
X97773809Y-88226190D01*
X97535714Y-88702380D02*
X97535714Y-87702380D01*
X97916666Y-87702380D01*
X98011904Y-87750000D01*
X98059523Y-87797619D01*
X98107142Y-87892857D01*
X98107142Y-88035714D01*
X98059523Y-88130952D01*
X98011904Y-88178571D01*
X97916666Y-88226190D01*
X97535714Y-88226190D01*
X98488095Y-87797619D02*
X98535714Y-87750000D01*
X98630952Y-87702380D01*
X98869047Y-87702380D01*
X98964285Y-87750000D01*
X99011904Y-87797619D01*
X99059523Y-87892857D01*
X99059523Y-87988095D01*
X99011904Y-88130952D01*
X98440476Y-88702380D01*
X99059523Y-88702380D01*
X99916666Y-87702380D02*
X99726190Y-87702380D01*
X99630952Y-87750000D01*
X99583333Y-87797619D01*
X99488095Y-87940476D01*
X99440476Y-88130952D01*
X99440476Y-88511904D01*
X99488095Y-88607142D01*
X99535714Y-88654761D01*
X99630952Y-88702380D01*
X99821428Y-88702380D01*
X99916666Y-88654761D01*
X99964285Y-88607142D01*
X100011904Y-88511904D01*
X100011904Y-88273809D01*
X99964285Y-88178571D01*
X99916666Y-88130952D01*
X99821428Y-88083333D01*
X99630952Y-88083333D01*
X99535714Y-88130952D01*
X99488095Y-88178571D01*
X99440476Y-88273809D01*
X78044642Y-92102380D02*
X77711309Y-91626190D01*
X77473214Y-92102380D02*
X77473214Y-91102380D01*
X77854166Y-91102380D01*
X77949404Y-91150000D01*
X77997023Y-91197619D01*
X78044642Y-91292857D01*
X78044642Y-91435714D01*
X77997023Y-91530952D01*
X77949404Y-91578571D01*
X77854166Y-91626190D01*
X77473214Y-91626190D01*
X78425595Y-91197619D02*
X78473214Y-91150000D01*
X78568452Y-91102380D01*
X78806547Y-91102380D01*
X78901785Y-91150000D01*
X78949404Y-91197619D01*
X78997023Y-91292857D01*
X78997023Y-91388095D01*
X78949404Y-91530952D01*
X78377976Y-92102380D01*
X78997023Y-92102380D01*
X79901785Y-91102380D02*
X79425595Y-91102380D01*
X79377976Y-91578571D01*
X79425595Y-91530952D01*
X79520833Y-91483333D01*
X79758928Y-91483333D01*
X79854166Y-91530952D01*
X79901785Y-91578571D01*
X79949404Y-91673809D01*
X79949404Y-91911904D01*
X79901785Y-92007142D01*
X79854166Y-92054761D01*
X79758928Y-92102380D01*
X79520833Y-92102380D01*
X79425595Y-92054761D01*
X79377976Y-92007142D01*
X118107142Y-92102380D02*
X117773809Y-91626190D01*
X117535714Y-92102380D02*
X117535714Y-91102380D01*
X117916666Y-91102380D01*
X118011904Y-91150000D01*
X118059523Y-91197619D01*
X118107142Y-91292857D01*
X118107142Y-91435714D01*
X118059523Y-91530952D01*
X118011904Y-91578571D01*
X117916666Y-91626190D01*
X117535714Y-91626190D01*
X118488095Y-91197619D02*
X118535714Y-91150000D01*
X118630952Y-91102380D01*
X118869047Y-91102380D01*
X118964285Y-91150000D01*
X119011904Y-91197619D01*
X119059523Y-91292857D01*
X119059523Y-91388095D01*
X119011904Y-91530952D01*
X118440476Y-92102380D01*
X119059523Y-92102380D01*
X119392857Y-91102380D02*
X120059523Y-91102380D01*
X119630952Y-92102380D01*
X124357142Y-66952380D02*
X124023809Y-66476190D01*
X123785714Y-66952380D02*
X123785714Y-65952380D01*
X124166666Y-65952380D01*
X124261904Y-66000000D01*
X124309523Y-66047619D01*
X124357142Y-66142857D01*
X124357142Y-66285714D01*
X124309523Y-66380952D01*
X124261904Y-66428571D01*
X124166666Y-66476190D01*
X123785714Y-66476190D01*
X124690476Y-65952380D02*
X125309523Y-65952380D01*
X124976190Y-66333333D01*
X125119047Y-66333333D01*
X125214285Y-66380952D01*
X125261904Y-66428571D01*
X125309523Y-66523809D01*
X125309523Y-66761904D01*
X125261904Y-66857142D01*
X125214285Y-66904761D01*
X125119047Y-66952380D01*
X124833333Y-66952380D01*
X124738095Y-66904761D01*
X124690476Y-66857142D01*
X125928571Y-65952380D02*
X126023809Y-65952380D01*
X126119047Y-66000000D01*
X126166666Y-66047619D01*
X126214285Y-66142857D01*
X126261904Y-66333333D01*
X126261904Y-66571428D01*
X126214285Y-66761904D01*
X126166666Y-66857142D01*
X126119047Y-66904761D01*
X126023809Y-66952380D01*
X125928571Y-66952380D01*
X125833333Y-66904761D01*
X125785714Y-66857142D01*
X125738095Y-66761904D01*
X125690476Y-66571428D01*
X125690476Y-66333333D01*
X125738095Y-66142857D01*
X125785714Y-66047619D01*
X125833333Y-66000000D01*
X125928571Y-65952380D01*
X151916666Y-123404761D02*
X152059523Y-123452380D01*
X152297619Y-123452380D01*
X152392857Y-123404761D01*
X152440476Y-123357142D01*
X152488095Y-123261904D01*
X152488095Y-123166666D01*
X152440476Y-123071428D01*
X152392857Y-123023809D01*
X152297619Y-122976190D01*
X152107142Y-122928571D01*
X152011904Y-122880952D01*
X151964285Y-122833333D01*
X151916666Y-122738095D01*
X151916666Y-122642857D01*
X151964285Y-122547619D01*
X152011904Y-122500000D01*
X152107142Y-122452380D01*
X152345238Y-122452380D01*
X152488095Y-122500000D01*
X152821428Y-122452380D02*
X153059523Y-123452380D01*
X153250000Y-122738095D01*
X153440476Y-123452380D01*
X153678571Y-122452380D01*
X154535714Y-122452380D02*
X154059523Y-122452380D01*
X154011904Y-122928571D01*
X154059523Y-122880952D01*
X154154761Y-122833333D01*
X154392857Y-122833333D01*
X154488095Y-122880952D01*
X154535714Y-122928571D01*
X154583333Y-123023809D01*
X154583333Y-123261904D01*
X154535714Y-123357142D01*
X154488095Y-123404761D01*
X154392857Y-123452380D01*
X154154761Y-123452380D01*
X154059523Y-123404761D01*
X154011904Y-123357142D01*
X91966666Y-137764761D02*
X92109523Y-137812380D01*
X92347619Y-137812380D01*
X92442857Y-137764761D01*
X92490476Y-137717142D01*
X92538095Y-137621904D01*
X92538095Y-137526666D01*
X92490476Y-137431428D01*
X92442857Y-137383809D01*
X92347619Y-137336190D01*
X92157142Y-137288571D01*
X92061904Y-137240952D01*
X92014285Y-137193333D01*
X91966666Y-137098095D01*
X91966666Y-137002857D01*
X92014285Y-136907619D01*
X92061904Y-136860000D01*
X92157142Y-136812380D01*
X92395238Y-136812380D01*
X92538095Y-136860000D01*
X92871428Y-136812380D02*
X93109523Y-137812380D01*
X93300000Y-137098095D01*
X93490476Y-137812380D01*
X93728571Y-136812380D01*
X94538095Y-136812380D02*
X94347619Y-136812380D01*
X94252380Y-136860000D01*
X94204761Y-136907619D01*
X94109523Y-137050476D01*
X94061904Y-137240952D01*
X94061904Y-137621904D01*
X94109523Y-137717142D01*
X94157142Y-137764761D01*
X94252380Y-137812380D01*
X94442857Y-137812380D01*
X94538095Y-137764761D01*
X94585714Y-137717142D01*
X94633333Y-137621904D01*
X94633333Y-137383809D01*
X94585714Y-137288571D01*
X94538095Y-137240952D01*
X94442857Y-137193333D01*
X94252380Y-137193333D01*
X94157142Y-137240952D01*
X94109523Y-137288571D01*
X94061904Y-137383809D01*
X107056666Y-137984761D02*
X107199523Y-138032380D01*
X107437619Y-138032380D01*
X107532857Y-137984761D01*
X107580476Y-137937142D01*
X107628095Y-137841904D01*
X107628095Y-137746666D01*
X107580476Y-137651428D01*
X107532857Y-137603809D01*
X107437619Y-137556190D01*
X107247142Y-137508571D01*
X107151904Y-137460952D01*
X107104285Y-137413333D01*
X107056666Y-137318095D01*
X107056666Y-137222857D01*
X107104285Y-137127619D01*
X107151904Y-137080000D01*
X107247142Y-137032380D01*
X107485238Y-137032380D01*
X107628095Y-137080000D01*
X107961428Y-137032380D02*
X108199523Y-138032380D01*
X108390000Y-137318095D01*
X108580476Y-138032380D01*
X108818571Y-137032380D01*
X109104285Y-137032380D02*
X109770952Y-137032380D01*
X109342380Y-138032380D01*
X67454761Y-108889523D02*
X67502380Y-108746666D01*
X67502380Y-108508571D01*
X67454761Y-108413333D01*
X67407142Y-108365714D01*
X67311904Y-108318095D01*
X67216666Y-108318095D01*
X67121428Y-108365714D01*
X67073809Y-108413333D01*
X67026190Y-108508571D01*
X66978571Y-108699047D01*
X66930952Y-108794285D01*
X66883333Y-108841904D01*
X66788095Y-108889523D01*
X66692857Y-108889523D01*
X66597619Y-108841904D01*
X66550000Y-108794285D01*
X66502380Y-108699047D01*
X66502380Y-108460952D01*
X66550000Y-108318095D01*
X66502380Y-107984761D02*
X67502380Y-107746666D01*
X66788095Y-107556190D01*
X67502380Y-107365714D01*
X66502380Y-107127619D01*
X67502380Y-106222857D02*
X67502380Y-106794285D01*
X67502380Y-106508571D02*
X66502380Y-106508571D01*
X66645238Y-106603809D01*
X66740476Y-106699047D01*
X66788095Y-106794285D01*
X67502380Y-105270476D02*
X67502380Y-105841904D01*
X67502380Y-105556190D02*
X66502380Y-105556190D01*
X66645238Y-105651428D01*
X66740476Y-105746666D01*
X66788095Y-105841904D01*
X87384761Y-108669523D02*
X87432380Y-108526666D01*
X87432380Y-108288571D01*
X87384761Y-108193333D01*
X87337142Y-108145714D01*
X87241904Y-108098095D01*
X87146666Y-108098095D01*
X87051428Y-108145714D01*
X87003809Y-108193333D01*
X86956190Y-108288571D01*
X86908571Y-108479047D01*
X86860952Y-108574285D01*
X86813333Y-108621904D01*
X86718095Y-108669523D01*
X86622857Y-108669523D01*
X86527619Y-108621904D01*
X86480000Y-108574285D01*
X86432380Y-108479047D01*
X86432380Y-108240952D01*
X86480000Y-108098095D01*
X86432380Y-107764761D02*
X87432380Y-107526666D01*
X86718095Y-107336190D01*
X87432380Y-107145714D01*
X86432380Y-106907619D01*
X87432380Y-106002857D02*
X87432380Y-106574285D01*
X87432380Y-106288571D02*
X86432380Y-106288571D01*
X86575238Y-106383809D01*
X86670476Y-106479047D01*
X86718095Y-106574285D01*
X86527619Y-105621904D02*
X86480000Y-105574285D01*
X86432380Y-105479047D01*
X86432380Y-105240952D01*
X86480000Y-105145714D01*
X86527619Y-105098095D01*
X86622857Y-105050476D01*
X86718095Y-105050476D01*
X86860952Y-105098095D01*
X87432380Y-105669523D01*
X87432380Y-105050476D01*
X107374761Y-108599523D02*
X107422380Y-108456666D01*
X107422380Y-108218571D01*
X107374761Y-108123333D01*
X107327142Y-108075714D01*
X107231904Y-108028095D01*
X107136666Y-108028095D01*
X107041428Y-108075714D01*
X106993809Y-108123333D01*
X106946190Y-108218571D01*
X106898571Y-108409047D01*
X106850952Y-108504285D01*
X106803333Y-108551904D01*
X106708095Y-108599523D01*
X106612857Y-108599523D01*
X106517619Y-108551904D01*
X106470000Y-108504285D01*
X106422380Y-108409047D01*
X106422380Y-108170952D01*
X106470000Y-108028095D01*
X106422380Y-107694761D02*
X107422380Y-107456666D01*
X106708095Y-107266190D01*
X107422380Y-107075714D01*
X106422380Y-106837619D01*
X107422380Y-105932857D02*
X107422380Y-106504285D01*
X107422380Y-106218571D02*
X106422380Y-106218571D01*
X106565238Y-106313809D01*
X106660476Y-106409047D01*
X106708095Y-106504285D01*
X106422380Y-105599523D02*
X106422380Y-104980476D01*
X106803333Y-105313809D01*
X106803333Y-105170952D01*
X106850952Y-105075714D01*
X106898571Y-105028095D01*
X106993809Y-104980476D01*
X107231904Y-104980476D01*
X107327142Y-105028095D01*
X107374761Y-105075714D01*
X107422380Y-105170952D01*
X107422380Y-105456666D01*
X107374761Y-105551904D01*
X107327142Y-105599523D01*
X92296666Y-122784761D02*
X92439523Y-122832380D01*
X92677619Y-122832380D01*
X92772857Y-122784761D01*
X92820476Y-122737142D01*
X92868095Y-122641904D01*
X92868095Y-122546666D01*
X92820476Y-122451428D01*
X92772857Y-122403809D01*
X92677619Y-122356190D01*
X92487142Y-122308571D01*
X92391904Y-122260952D01*
X92344285Y-122213333D01*
X92296666Y-122118095D01*
X92296666Y-122022857D01*
X92344285Y-121927619D01*
X92391904Y-121880000D01*
X92487142Y-121832380D01*
X92725238Y-121832380D01*
X92868095Y-121880000D01*
X93201428Y-121832380D02*
X93439523Y-122832380D01*
X93630000Y-122118095D01*
X93820476Y-122832380D01*
X94058571Y-121832380D01*
X94963333Y-122832380D02*
X94391904Y-122832380D01*
X94677619Y-122832380D02*
X94677619Y-121832380D01*
X94582380Y-121975238D01*
X94487142Y-122070476D01*
X94391904Y-122118095D01*
X106906666Y-122934761D02*
X107049523Y-122982380D01*
X107287619Y-122982380D01*
X107382857Y-122934761D01*
X107430476Y-122887142D01*
X107478095Y-122791904D01*
X107478095Y-122696666D01*
X107430476Y-122601428D01*
X107382857Y-122553809D01*
X107287619Y-122506190D01*
X107097142Y-122458571D01*
X107001904Y-122410952D01*
X106954285Y-122363333D01*
X106906666Y-122268095D01*
X106906666Y-122172857D01*
X106954285Y-122077619D01*
X107001904Y-122030000D01*
X107097142Y-121982380D01*
X107335238Y-121982380D01*
X107478095Y-122030000D01*
X107811428Y-121982380D02*
X108049523Y-122982380D01*
X108240000Y-122268095D01*
X108430476Y-122982380D01*
X108668571Y-121982380D01*
X109001904Y-122077619D02*
X109049523Y-122030000D01*
X109144761Y-121982380D01*
X109382857Y-121982380D01*
X109478095Y-122030000D01*
X109525714Y-122077619D01*
X109573333Y-122172857D01*
X109573333Y-122268095D01*
X109525714Y-122410952D01*
X108954285Y-122982380D01*
X109573333Y-122982380D01*
X121596666Y-122854761D02*
X121739523Y-122902380D01*
X121977619Y-122902380D01*
X122072857Y-122854761D01*
X122120476Y-122807142D01*
X122168095Y-122711904D01*
X122168095Y-122616666D01*
X122120476Y-122521428D01*
X122072857Y-122473809D01*
X121977619Y-122426190D01*
X121787142Y-122378571D01*
X121691904Y-122330952D01*
X121644285Y-122283333D01*
X121596666Y-122188095D01*
X121596666Y-122092857D01*
X121644285Y-121997619D01*
X121691904Y-121950000D01*
X121787142Y-121902380D01*
X122025238Y-121902380D01*
X122168095Y-121950000D01*
X122501428Y-121902380D02*
X122739523Y-122902380D01*
X122930000Y-122188095D01*
X123120476Y-122902380D01*
X123358571Y-121902380D01*
X123644285Y-121902380D02*
X124263333Y-121902380D01*
X123930000Y-122283333D01*
X124072857Y-122283333D01*
X124168095Y-122330952D01*
X124215714Y-122378571D01*
X124263333Y-122473809D01*
X124263333Y-122711904D01*
X124215714Y-122807142D01*
X124168095Y-122854761D01*
X124072857Y-122902380D01*
X123787142Y-122902380D01*
X123691904Y-122854761D01*
X123644285Y-122807142D01*
X137166666Y-123074761D02*
X137309523Y-123122380D01*
X137547619Y-123122380D01*
X137642857Y-123074761D01*
X137690476Y-123027142D01*
X137738095Y-122931904D01*
X137738095Y-122836666D01*
X137690476Y-122741428D01*
X137642857Y-122693809D01*
X137547619Y-122646190D01*
X137357142Y-122598571D01*
X137261904Y-122550952D01*
X137214285Y-122503333D01*
X137166666Y-122408095D01*
X137166666Y-122312857D01*
X137214285Y-122217619D01*
X137261904Y-122170000D01*
X137357142Y-122122380D01*
X137595238Y-122122380D01*
X137738095Y-122170000D01*
X138071428Y-122122380D02*
X138309523Y-123122380D01*
X138500000Y-122408095D01*
X138690476Y-123122380D01*
X138928571Y-122122380D01*
X139738095Y-122455714D02*
X139738095Y-123122380D01*
X139500000Y-122074761D02*
X139261904Y-122789047D01*
X139880952Y-122789047D01*
X151440476Y-138404761D02*
X151583333Y-138452380D01*
X151821428Y-138452380D01*
X151916666Y-138404761D01*
X151964285Y-138357142D01*
X152011904Y-138261904D01*
X152011904Y-138166666D01*
X151964285Y-138071428D01*
X151916666Y-138023809D01*
X151821428Y-137976190D01*
X151630952Y-137928571D01*
X151535714Y-137880952D01*
X151488095Y-137833333D01*
X151440476Y-137738095D01*
X151440476Y-137642857D01*
X151488095Y-137547619D01*
X151535714Y-137500000D01*
X151630952Y-137452380D01*
X151869047Y-137452380D01*
X152011904Y-137500000D01*
X152345238Y-137452380D02*
X152583333Y-138452380D01*
X152773809Y-137738095D01*
X152964285Y-138452380D01*
X153202380Y-137452380D01*
X154107142Y-138452380D02*
X153535714Y-138452380D01*
X153821428Y-138452380D02*
X153821428Y-137452380D01*
X153726190Y-137595238D01*
X153630952Y-137690476D01*
X153535714Y-137738095D01*
X154726190Y-137452380D02*
X154821428Y-137452380D01*
X154916666Y-137500000D01*
X154964285Y-137547619D01*
X155011904Y-137642857D01*
X155059523Y-137833333D01*
X155059523Y-138071428D01*
X155011904Y-138261904D01*
X154964285Y-138357142D01*
X154916666Y-138404761D01*
X154821428Y-138452380D01*
X154726190Y-138452380D01*
X154630952Y-138404761D01*
X154583333Y-138357142D01*
X154535714Y-138261904D01*
X154488095Y-138071428D01*
X154488095Y-137833333D01*
X154535714Y-137642857D01*
X154583333Y-137547619D01*
X154630952Y-137500000D01*
X154726190Y-137452380D01*
X136866666Y-138134761D02*
X137009523Y-138182380D01*
X137247619Y-138182380D01*
X137342857Y-138134761D01*
X137390476Y-138087142D01*
X137438095Y-137991904D01*
X137438095Y-137896666D01*
X137390476Y-137801428D01*
X137342857Y-137753809D01*
X137247619Y-137706190D01*
X137057142Y-137658571D01*
X136961904Y-137610952D01*
X136914285Y-137563333D01*
X136866666Y-137468095D01*
X136866666Y-137372857D01*
X136914285Y-137277619D01*
X136961904Y-137230000D01*
X137057142Y-137182380D01*
X137295238Y-137182380D01*
X137438095Y-137230000D01*
X137771428Y-137182380D02*
X138009523Y-138182380D01*
X138200000Y-137468095D01*
X138390476Y-138182380D01*
X138628571Y-137182380D01*
X139057142Y-138182380D02*
X139247619Y-138182380D01*
X139342857Y-138134761D01*
X139390476Y-138087142D01*
X139485714Y-137944285D01*
X139533333Y-137753809D01*
X139533333Y-137372857D01*
X139485714Y-137277619D01*
X139438095Y-137230000D01*
X139342857Y-137182380D01*
X139152380Y-137182380D01*
X139057142Y-137230000D01*
X139009523Y-137277619D01*
X138961904Y-137372857D01*
X138961904Y-137610952D01*
X139009523Y-137706190D01*
X139057142Y-137753809D01*
X139152380Y-137801428D01*
X139342857Y-137801428D01*
X139438095Y-137753809D01*
X139485714Y-137706190D01*
X139533333Y-137610952D01*
X121966666Y-138064761D02*
X122109523Y-138112380D01*
X122347619Y-138112380D01*
X122442857Y-138064761D01*
X122490476Y-138017142D01*
X122538095Y-137921904D01*
X122538095Y-137826666D01*
X122490476Y-137731428D01*
X122442857Y-137683809D01*
X122347619Y-137636190D01*
X122157142Y-137588571D01*
X122061904Y-137540952D01*
X122014285Y-137493333D01*
X121966666Y-137398095D01*
X121966666Y-137302857D01*
X122014285Y-137207619D01*
X122061904Y-137160000D01*
X122157142Y-137112380D01*
X122395238Y-137112380D01*
X122538095Y-137160000D01*
X122871428Y-137112380D02*
X123109523Y-138112380D01*
X123300000Y-137398095D01*
X123490476Y-138112380D01*
X123728571Y-137112380D01*
X124252380Y-137540952D02*
X124157142Y-137493333D01*
X124109523Y-137445714D01*
X124061904Y-137350476D01*
X124061904Y-137302857D01*
X124109523Y-137207619D01*
X124157142Y-137160000D01*
X124252380Y-137112380D01*
X124442857Y-137112380D01*
X124538095Y-137160000D01*
X124585714Y-137207619D01*
X124633333Y-137302857D01*
X124633333Y-137350476D01*
X124585714Y-137445714D01*
X124538095Y-137493333D01*
X124442857Y-137540952D01*
X124252380Y-137540952D01*
X124157142Y-137588571D01*
X124109523Y-137636190D01*
X124061904Y-137731428D01*
X124061904Y-137921904D01*
X124109523Y-138017142D01*
X124157142Y-138064761D01*
X124252380Y-138112380D01*
X124442857Y-138112380D01*
X124538095Y-138064761D01*
X124585714Y-138017142D01*
X124633333Y-137921904D01*
X124633333Y-137731428D01*
X124585714Y-137636190D01*
X124538095Y-137588571D01*
X124442857Y-137540952D01*
X120232642Y-63357142D02*
X120185023Y-63404761D01*
X120042166Y-63452380D01*
X119946928Y-63452380D01*
X119804071Y-63404761D01*
X119708833Y-63309523D01*
X119661214Y-63214285D01*
X119613595Y-63023809D01*
X119613595Y-62880952D01*
X119661214Y-62690476D01*
X119708833Y-62595238D01*
X119804071Y-62500000D01*
X119946928Y-62452380D01*
X120042166Y-62452380D01*
X120185023Y-62500000D01*
X120232642Y-62547619D01*
X120613595Y-62547619D02*
X120661214Y-62500000D01*
X120756452Y-62452380D01*
X120994547Y-62452380D01*
X121089785Y-62500000D01*
X121137404Y-62547619D01*
X121185023Y-62642857D01*
X121185023Y-62738095D01*
X121137404Y-62880952D01*
X120565976Y-63452380D01*
X121185023Y-63452380D01*
X121565976Y-62547619D02*
X121613595Y-62500000D01*
X121708833Y-62452380D01*
X121946928Y-62452380D01*
X122042166Y-62500000D01*
X122089785Y-62547619D01*
X122137404Y-62642857D01*
X122137404Y-62738095D01*
X122089785Y-62880952D01*
X121518357Y-63452380D01*
X122137404Y-63452380D01*
X122419642Y-64857142D02*
X122372023Y-64904761D01*
X122229166Y-64952380D01*
X122133928Y-64952380D01*
X121991071Y-64904761D01*
X121895833Y-64809523D01*
X121848214Y-64714285D01*
X121800595Y-64523809D01*
X121800595Y-64380952D01*
X121848214Y-64190476D01*
X121895833Y-64095238D01*
X121991071Y-64000000D01*
X122133928Y-63952380D01*
X122229166Y-63952380D01*
X122372023Y-64000000D01*
X122419642Y-64047619D01*
X122800595Y-64047619D02*
X122848214Y-64000000D01*
X122943452Y-63952380D01*
X123181547Y-63952380D01*
X123276785Y-64000000D01*
X123324404Y-64047619D01*
X123372023Y-64142857D01*
X123372023Y-64238095D01*
X123324404Y-64380952D01*
X122752976Y-64952380D01*
X123372023Y-64952380D01*
X123991071Y-63952380D02*
X124086309Y-63952380D01*
X124181547Y-64000000D01*
X124229166Y-64047619D01*
X124276785Y-64142857D01*
X124324404Y-64333333D01*
X124324404Y-64571428D01*
X124276785Y-64761904D01*
X124229166Y-64857142D01*
X124181547Y-64904761D01*
X124086309Y-64952380D01*
X123991071Y-64952380D01*
X123895833Y-64904761D01*
X123848214Y-64857142D01*
X123800595Y-64761904D01*
X123752976Y-64571428D01*
X123752976Y-64333333D01*
X123800595Y-64142857D01*
X123848214Y-64047619D01*
X123895833Y-64000000D01*
X123991071Y-63952380D01*
X112919142Y-72007142D02*
X112871523Y-72054761D01*
X112728666Y-72102380D01*
X112633428Y-72102380D01*
X112490571Y-72054761D01*
X112395333Y-71959523D01*
X112347714Y-71864285D01*
X112300095Y-71673809D01*
X112300095Y-71530952D01*
X112347714Y-71340476D01*
X112395333Y-71245238D01*
X112490571Y-71150000D01*
X112633428Y-71102380D01*
X112728666Y-71102380D01*
X112871523Y-71150000D01*
X112919142Y-71197619D01*
X113300095Y-71197619D02*
X113347714Y-71150000D01*
X113442952Y-71102380D01*
X113681047Y-71102380D01*
X113776285Y-71150000D01*
X113823904Y-71197619D01*
X113871523Y-71292857D01*
X113871523Y-71388095D01*
X113823904Y-71530952D01*
X113252476Y-72102380D01*
X113871523Y-72102380D01*
X114776285Y-71102380D02*
X114300095Y-71102380D01*
X114252476Y-71578571D01*
X114300095Y-71530952D01*
X114395333Y-71483333D01*
X114633428Y-71483333D01*
X114728666Y-71530952D01*
X114776285Y-71578571D01*
X114823904Y-71673809D01*
X114823904Y-71911904D01*
X114776285Y-72007142D01*
X114728666Y-72054761D01*
X114633428Y-72102380D01*
X114395333Y-72102380D01*
X114300095Y-72054761D01*
X114252476Y-72007142D01*
X116857142Y-72007142D02*
X116809523Y-72054761D01*
X116666666Y-72102380D01*
X116571428Y-72102380D01*
X116428571Y-72054761D01*
X116333333Y-71959523D01*
X116285714Y-71864285D01*
X116238095Y-71673809D01*
X116238095Y-71530952D01*
X116285714Y-71340476D01*
X116333333Y-71245238D01*
X116428571Y-71150000D01*
X116571428Y-71102380D01*
X116666666Y-71102380D01*
X116809523Y-71150000D01*
X116857142Y-71197619D01*
X117238095Y-71197619D02*
X117285714Y-71150000D01*
X117380952Y-71102380D01*
X117619047Y-71102380D01*
X117714285Y-71150000D01*
X117761904Y-71197619D01*
X117809523Y-71292857D01*
X117809523Y-71388095D01*
X117761904Y-71530952D01*
X117190476Y-72102380D01*
X117809523Y-72102380D01*
X118666666Y-71102380D02*
X118476190Y-71102380D01*
X118380952Y-71150000D01*
X118333333Y-71197619D01*
X118238095Y-71340476D01*
X118190476Y-71530952D01*
X118190476Y-71911904D01*
X118238095Y-72007142D01*
X118285714Y-72054761D01*
X118380952Y-72102380D01*
X118571428Y-72102380D01*
X118666666Y-72054761D01*
X118714285Y-72007142D01*
X118761904Y-71911904D01*
X118761904Y-71673809D01*
X118714285Y-71578571D01*
X118666666Y-71530952D01*
X118571428Y-71483333D01*
X118380952Y-71483333D01*
X118285714Y-71530952D01*
X118238095Y-71578571D01*
X118190476Y-71673809D01*
X101546666Y-62062380D02*
X101546666Y-62776666D01*
X101499047Y-62919523D01*
X101403809Y-63014761D01*
X101260952Y-63062380D01*
X101165714Y-63062380D01*
X101975238Y-62157619D02*
X102022857Y-62110000D01*
X102118095Y-62062380D01*
X102356190Y-62062380D01*
X102451428Y-62110000D01*
X102499047Y-62157619D01*
X102546666Y-62252857D01*
X102546666Y-62348095D01*
X102499047Y-62490952D01*
X101927619Y-63062380D01*
X102546666Y-63062380D01*
X77825714Y-120652380D02*
X77825714Y-119652380D01*
X78063809Y-119652380D01*
X78206666Y-119700000D01*
X78301904Y-119795238D01*
X78349523Y-119890476D01*
X78397142Y-120080952D01*
X78397142Y-120223809D01*
X78349523Y-120414285D01*
X78301904Y-120509523D01*
X78206666Y-120604761D01*
X78063809Y-120652380D01*
X77825714Y-120652380D01*
X79349523Y-120652380D02*
X78778095Y-120652380D01*
X79063809Y-120652380D02*
X79063809Y-119652380D01*
X78968571Y-119795238D01*
X78873333Y-119890476D01*
X78778095Y-119938095D01*
X79682857Y-119652380D02*
X80349523Y-119652380D01*
X79920952Y-120652380D01*
X75590495Y-62190380D02*
X75590495Y-62999904D01*
X75638114Y-63095142D01*
X75685733Y-63142761D01*
X75780971Y-63190380D01*
X75971447Y-63190380D01*
X76066685Y-63142761D01*
X76114304Y-63095142D01*
X76161923Y-62999904D01*
X76161923Y-62190380D01*
X76542876Y-62190380D02*
X77161923Y-62190380D01*
X76828590Y-62571333D01*
X76971447Y-62571333D01*
X77066685Y-62618952D01*
X77114304Y-62666571D01*
X77161923Y-62761809D01*
X77161923Y-62999904D01*
X77114304Y-63095142D01*
X77066685Y-63142761D01*
X76971447Y-63190380D01*
X76685733Y-63190380D01*
X76590495Y-63142761D01*
X76542876Y-63095142D01*
X81760904Y-79066666D02*
X82237095Y-79066666D01*
X81665666Y-79352380D02*
X81999000Y-78352380D01*
X82332333Y-79352380D01*
X97866095Y-79402380D02*
X97866095Y-78402380D01*
X98437523Y-79402380D02*
X98008952Y-78830952D01*
X98437523Y-78402380D02*
X97866095Y-78973809D01*
X108386666Y-55982380D02*
X108386666Y-56696666D01*
X108339047Y-56839523D01*
X108243809Y-56934761D01*
X108100952Y-56982380D01*
X108005714Y-56982380D01*
X109386666Y-56982380D02*
X108815238Y-56982380D01*
X109100952Y-56982380D02*
X109100952Y-55982380D01*
X109005714Y-56125238D01*
X108910476Y-56220476D01*
X108815238Y-56268095D01*
X65238095Y-156452380D02*
X65238095Y-155452380D01*
X65238095Y-155928571D02*
X65809523Y-155928571D01*
X65809523Y-156452380D02*
X65809523Y-155452380D01*
X66809523Y-156452380D02*
X66238095Y-156452380D01*
X66523809Y-156452380D02*
X66523809Y-155452380D01*
X66428571Y-155595238D01*
X66333333Y-155690476D01*
X66238095Y-155738095D01*
X67818095Y-52522380D02*
X67818095Y-51522380D01*
X67818095Y-51998571D02*
X68389523Y-51998571D01*
X68389523Y-52522380D02*
X68389523Y-51522380D01*
X68818095Y-51617619D02*
X68865714Y-51570000D01*
X68960952Y-51522380D01*
X69199047Y-51522380D01*
X69294285Y-51570000D01*
X69341904Y-51617619D01*
X69389523Y-51712857D01*
X69389523Y-51808095D01*
X69341904Y-51950952D01*
X68770476Y-52522380D01*
X69389523Y-52522380D01*
X163238095Y-156452380D02*
X163238095Y-155452380D01*
X163238095Y-155928571D02*
X163809523Y-155928571D01*
X163809523Y-156452380D02*
X163809523Y-155452380D01*
X164190476Y-155452380D02*
X164809523Y-155452380D01*
X164476190Y-155833333D01*
X164619047Y-155833333D01*
X164714285Y-155880952D01*
X164761904Y-155928571D01*
X164809523Y-156023809D01*
X164809523Y-156261904D01*
X164761904Y-156357142D01*
X164714285Y-156404761D01*
X164619047Y-156452380D01*
X164333333Y-156452380D01*
X164238095Y-156404761D01*
X164190476Y-156357142D01*
X160528095Y-51252380D02*
X160528095Y-50252380D01*
X160528095Y-50728571D02*
X161099523Y-50728571D01*
X161099523Y-51252380D02*
X161099523Y-50252380D01*
X162004285Y-50585714D02*
X162004285Y-51252380D01*
X161766190Y-50204761D02*
X161528095Y-50919047D01*
X162147142Y-50919047D01*
X87904761Y-90547619D02*
X87809523Y-90500000D01*
X87714285Y-90404761D01*
X87571428Y-90261904D01*
X87476190Y-90214285D01*
X87380952Y-90214285D01*
X87428571Y-90452380D02*
X87333333Y-90404761D01*
X87238095Y-90309523D01*
X87190476Y-90119047D01*
X87190476Y-89785714D01*
X87238095Y-89595238D01*
X87333333Y-89500000D01*
X87428571Y-89452380D01*
X87619047Y-89452380D01*
X87714285Y-89500000D01*
X87809523Y-89595238D01*
X87857142Y-89785714D01*
X87857142Y-90119047D01*
X87809523Y-90309523D01*
X87714285Y-90404761D01*
X87619047Y-90452380D01*
X87428571Y-90452380D01*
X88238095Y-89547619D02*
X88285714Y-89500000D01*
X88380952Y-89452380D01*
X88619047Y-89452380D01*
X88714285Y-89500000D01*
X88761904Y-89547619D01*
X88809523Y-89642857D01*
X88809523Y-89738095D01*
X88761904Y-89880952D01*
X88190476Y-90452380D01*
X88809523Y-90452380D01*
X71154761Y-88047619D02*
X71059523Y-88000000D01*
X70964285Y-87904761D01*
X70821428Y-87761904D01*
X70726190Y-87714285D01*
X70630952Y-87714285D01*
X70678571Y-87952380D02*
X70583333Y-87904761D01*
X70488095Y-87809523D01*
X70440476Y-87619047D01*
X70440476Y-87285714D01*
X70488095Y-87095238D01*
X70583333Y-87000000D01*
X70678571Y-86952380D01*
X70869047Y-86952380D01*
X70964285Y-87000000D01*
X71059523Y-87095238D01*
X71107142Y-87285714D01*
X71107142Y-87619047D01*
X71059523Y-87809523D01*
X70964285Y-87904761D01*
X70869047Y-87952380D01*
X70678571Y-87952380D01*
X72059523Y-87952380D02*
X71488095Y-87952380D01*
X71773809Y-87952380D02*
X71773809Y-86952380D01*
X71678571Y-87095238D01*
X71583333Y-87190476D01*
X71488095Y-87238095D01*
X131154761Y-88047619D02*
X131059523Y-88000000D01*
X130964285Y-87904761D01*
X130821428Y-87761904D01*
X130726190Y-87714285D01*
X130630952Y-87714285D01*
X130678571Y-87952380D02*
X130583333Y-87904761D01*
X130488095Y-87809523D01*
X130440476Y-87619047D01*
X130440476Y-87285714D01*
X130488095Y-87095238D01*
X130583333Y-87000000D01*
X130678571Y-86952380D01*
X130869047Y-86952380D01*
X130964285Y-87000000D01*
X131059523Y-87095238D01*
X131107142Y-87285714D01*
X131107142Y-87619047D01*
X131059523Y-87809523D01*
X130964285Y-87904761D01*
X130869047Y-87952380D01*
X130678571Y-87952380D01*
X131964285Y-87285714D02*
X131964285Y-87952380D01*
X131726190Y-86904761D02*
X131488095Y-87619047D01*
X132107142Y-87619047D01*
X111154761Y-88047619D02*
X111059523Y-88000000D01*
X110964285Y-87904761D01*
X110821428Y-87761904D01*
X110726190Y-87714285D01*
X110630952Y-87714285D01*
X110678571Y-87952380D02*
X110583333Y-87904761D01*
X110488095Y-87809523D01*
X110440476Y-87619047D01*
X110440476Y-87285714D01*
X110488095Y-87095238D01*
X110583333Y-87000000D01*
X110678571Y-86952380D01*
X110869047Y-86952380D01*
X110964285Y-87000000D01*
X111059523Y-87095238D01*
X111107142Y-87285714D01*
X111107142Y-87619047D01*
X111059523Y-87809523D01*
X110964285Y-87904761D01*
X110869047Y-87952380D01*
X110678571Y-87952380D01*
X111440476Y-86952380D02*
X112059523Y-86952380D01*
X111726190Y-87333333D01*
X111869047Y-87333333D01*
X111964285Y-87380952D01*
X112011904Y-87428571D01*
X112059523Y-87523809D01*
X112059523Y-87761904D01*
X112011904Y-87857142D01*
X111964285Y-87904761D01*
X111869047Y-87952380D01*
X111583333Y-87952380D01*
X111488095Y-87904761D01*
X111440476Y-87857142D01*
X117852380Y-67461904D02*
X118661904Y-67461904D01*
X118757142Y-67414285D01*
X118804761Y-67366666D01*
X118852380Y-67271428D01*
X118852380Y-67080952D01*
X118804761Y-66985714D01*
X118757142Y-66938095D01*
X118661904Y-66890476D01*
X117852380Y-66890476D01*
X118185714Y-65985714D02*
X118852380Y-65985714D01*
X117804761Y-66223809D02*
X118519047Y-66461904D01*
X118519047Y-65842857D01*
X69947142Y-123202380D02*
X69613809Y-122726190D01*
X69375714Y-123202380D02*
X69375714Y-122202380D01*
X69756666Y-122202380D01*
X69851904Y-122250000D01*
X69899523Y-122297619D01*
X69947142Y-122392857D01*
X69947142Y-122535714D01*
X69899523Y-122630952D01*
X69851904Y-122678571D01*
X69756666Y-122726190D01*
X69375714Y-122726190D01*
X70328095Y-122297619D02*
X70375714Y-122250000D01*
X70470952Y-122202380D01*
X70709047Y-122202380D01*
X70804285Y-122250000D01*
X70851904Y-122297619D01*
X70899523Y-122392857D01*
X70899523Y-122488095D01*
X70851904Y-122630952D01*
X70280476Y-123202380D01*
X70899523Y-123202380D01*
X71280476Y-122297619D02*
X71328095Y-122250000D01*
X71423333Y-122202380D01*
X71661428Y-122202380D01*
X71756666Y-122250000D01*
X71804285Y-122297619D01*
X71851904Y-122392857D01*
X71851904Y-122488095D01*
X71804285Y-122630952D01*
X71232857Y-123202380D01*
X71851904Y-123202380D01*
X78119642Y-123302380D02*
X77786309Y-122826190D01*
X77548214Y-123302380D02*
X77548214Y-122302380D01*
X77929166Y-122302380D01*
X78024404Y-122350000D01*
X78072023Y-122397619D01*
X78119642Y-122492857D01*
X78119642Y-122635714D01*
X78072023Y-122730952D01*
X78024404Y-122778571D01*
X77929166Y-122826190D01*
X77548214Y-122826190D01*
X78500595Y-122397619D02*
X78548214Y-122350000D01*
X78643452Y-122302380D01*
X78881547Y-122302380D01*
X78976785Y-122350000D01*
X79024404Y-122397619D01*
X79072023Y-122492857D01*
X79072023Y-122588095D01*
X79024404Y-122730952D01*
X78452976Y-123302380D01*
X79072023Y-123302380D01*
X79405357Y-122302380D02*
X80024404Y-122302380D01*
X79691071Y-122683333D01*
X79833928Y-122683333D01*
X79929166Y-122730952D01*
X79976785Y-122778571D01*
X80024404Y-122873809D01*
X80024404Y-123111904D01*
X79976785Y-123207142D01*
X79929166Y-123254761D01*
X79833928Y-123302380D01*
X79548214Y-123302380D01*
X79452976Y-123254761D01*
X79405357Y-123207142D01*
X147314761Y-108529523D02*
X147362380Y-108386666D01*
X147362380Y-108148571D01*
X147314761Y-108053333D01*
X147267142Y-108005714D01*
X147171904Y-107958095D01*
X147076666Y-107958095D01*
X146981428Y-108005714D01*
X146933809Y-108053333D01*
X146886190Y-108148571D01*
X146838571Y-108339047D01*
X146790952Y-108434285D01*
X146743333Y-108481904D01*
X146648095Y-108529523D01*
X146552857Y-108529523D01*
X146457619Y-108481904D01*
X146410000Y-108434285D01*
X146362380Y-108339047D01*
X146362380Y-108100952D01*
X146410000Y-107958095D01*
X146362380Y-107624761D02*
X147362380Y-107386666D01*
X146648095Y-107196190D01*
X147362380Y-107005714D01*
X146362380Y-106767619D01*
X147362380Y-105862857D02*
X147362380Y-106434285D01*
X147362380Y-106148571D02*
X146362380Y-106148571D01*
X146505238Y-106243809D01*
X146600476Y-106339047D01*
X146648095Y-106434285D01*
X146362380Y-104958095D02*
X146362380Y-105434285D01*
X146838571Y-105481904D01*
X146790952Y-105434285D01*
X146743333Y-105339047D01*
X146743333Y-105100952D01*
X146790952Y-105005714D01*
X146838571Y-104958095D01*
X146933809Y-104910476D01*
X147171904Y-104910476D01*
X147267142Y-104958095D01*
X147314761Y-105005714D01*
X147362380Y-105100952D01*
X147362380Y-105339047D01*
X147314761Y-105434285D01*
X147267142Y-105481904D01*
X67524761Y-138819523D02*
X67572380Y-138676666D01*
X67572380Y-138438571D01*
X67524761Y-138343333D01*
X67477142Y-138295714D01*
X67381904Y-138248095D01*
X67286666Y-138248095D01*
X67191428Y-138295714D01*
X67143809Y-138343333D01*
X67096190Y-138438571D01*
X67048571Y-138629047D01*
X67000952Y-138724285D01*
X66953333Y-138771904D01*
X66858095Y-138819523D01*
X66762857Y-138819523D01*
X66667619Y-138771904D01*
X66620000Y-138724285D01*
X66572380Y-138629047D01*
X66572380Y-138390952D01*
X66620000Y-138248095D01*
X66572380Y-137914761D02*
X67572380Y-137676666D01*
X66858095Y-137486190D01*
X67572380Y-137295714D01*
X66572380Y-137057619D01*
X67572380Y-136152857D02*
X67572380Y-136724285D01*
X67572380Y-136438571D02*
X66572380Y-136438571D01*
X66715238Y-136533809D01*
X66810476Y-136629047D01*
X66858095Y-136724285D01*
X66572380Y-135295714D02*
X66572380Y-135486190D01*
X66620000Y-135581428D01*
X66667619Y-135629047D01*
X66810476Y-135724285D01*
X67000952Y-135771904D01*
X67381904Y-135771904D01*
X67477142Y-135724285D01*
X67524761Y-135676666D01*
X67572380Y-135581428D01*
X67572380Y-135390952D01*
X67524761Y-135295714D01*
X67477142Y-135248095D01*
X67381904Y-135200476D01*
X67143809Y-135200476D01*
X67048571Y-135248095D01*
X67000952Y-135295714D01*
X66953333Y-135390952D01*
X66953333Y-135581428D01*
X67000952Y-135676666D01*
X67048571Y-135724285D01*
X67143809Y-135771904D01*
X127524761Y-108459523D02*
X127572380Y-108316666D01*
X127572380Y-108078571D01*
X127524761Y-107983333D01*
X127477142Y-107935714D01*
X127381904Y-107888095D01*
X127286666Y-107888095D01*
X127191428Y-107935714D01*
X127143809Y-107983333D01*
X127096190Y-108078571D01*
X127048571Y-108269047D01*
X127000952Y-108364285D01*
X126953333Y-108411904D01*
X126858095Y-108459523D01*
X126762857Y-108459523D01*
X126667619Y-108411904D01*
X126620000Y-108364285D01*
X126572380Y-108269047D01*
X126572380Y-108030952D01*
X126620000Y-107888095D01*
X126572380Y-107554761D02*
X127572380Y-107316666D01*
X126858095Y-107126190D01*
X127572380Y-106935714D01*
X126572380Y-106697619D01*
X127572380Y-105792857D02*
X127572380Y-106364285D01*
X127572380Y-106078571D02*
X126572380Y-106078571D01*
X126715238Y-106173809D01*
X126810476Y-106269047D01*
X126858095Y-106364285D01*
X126905714Y-104935714D02*
X127572380Y-104935714D01*
X126524761Y-105173809D02*
X127239047Y-105411904D01*
X127239047Y-104792857D01*
M02*
