G04 #@! TF.GenerationSoftware,KiCad,Pcbnew,(5.1.2)-1*
G04 #@! TF.CreationDate,2019-08-13T23:38:33+09:00*
G04 #@! TF.ProjectId,LrE-6,4c72452d-362e-46b6-9963-61645f706362,rev?*
G04 #@! TF.SameCoordinates,Original*
G04 #@! TF.FileFunction,Legend,Top*
G04 #@! TF.FilePolarity,Positive*
%FSLAX46Y46*%
G04 Gerber Fmt 4.6, Leading zero omitted, Abs format (unit mm)*
G04 Created by KiCad (PCBNEW (5.1.2)-1) date 2019-08-13 23:38:33*
%MOMM*%
%LPD*%
G04 APERTURE LIST*
%ADD10C,0.150000*%
%ADD11C,0.200000*%
%ADD12C,0.120000*%
%ADD13C,0.300000*%
%ADD14C,0.100000*%
%ADD15C,0.010000*%
G04 APERTURE END LIST*
D10*
X85610000Y-123800000D02*
X79000000Y-123800000D01*
X85700000Y-126000000D02*
X85700000Y-123840000D01*
X79000000Y-126000000D02*
X85700000Y-126000000D01*
X79000000Y-123910000D02*
X79000000Y-125920000D01*
D11*
X79777142Y-125325714D02*
X79948571Y-125382857D01*
X80234285Y-125382857D01*
X80348571Y-125325714D01*
X80405714Y-125268571D01*
X80462857Y-125154285D01*
X80462857Y-125040000D01*
X80405714Y-124925714D01*
X80348571Y-124868571D01*
X80234285Y-124811428D01*
X80005714Y-124754285D01*
X79891428Y-124697142D01*
X79834285Y-124640000D01*
X79777142Y-124525714D01*
X79777142Y-124411428D01*
X79834285Y-124297142D01*
X79891428Y-124240000D01*
X80005714Y-124182857D01*
X80291428Y-124182857D01*
X80462857Y-124240000D01*
X81434285Y-125325714D02*
X81320000Y-125382857D01*
X81091428Y-125382857D01*
X80977142Y-125325714D01*
X80920000Y-125211428D01*
X80920000Y-124754285D01*
X80977142Y-124640000D01*
X81091428Y-124582857D01*
X81320000Y-124582857D01*
X81434285Y-124640000D01*
X81491428Y-124754285D01*
X81491428Y-124868571D01*
X80920000Y-124982857D01*
X82177142Y-125382857D02*
X82062857Y-125325714D01*
X82005714Y-125211428D01*
X82005714Y-124182857D01*
X83091428Y-125325714D02*
X82977142Y-125382857D01*
X82748571Y-125382857D01*
X82634285Y-125325714D01*
X82577142Y-125211428D01*
X82577142Y-124754285D01*
X82634285Y-124640000D01*
X82748571Y-124582857D01*
X82977142Y-124582857D01*
X83091428Y-124640000D01*
X83148571Y-124754285D01*
X83148571Y-124868571D01*
X82577142Y-124982857D01*
X84177142Y-125325714D02*
X84062857Y-125382857D01*
X83834285Y-125382857D01*
X83720000Y-125325714D01*
X83662857Y-125268571D01*
X83605714Y-125154285D01*
X83605714Y-124811428D01*
X83662857Y-124697142D01*
X83720000Y-124640000D01*
X83834285Y-124582857D01*
X84062857Y-124582857D01*
X84177142Y-124640000D01*
X84520000Y-124582857D02*
X84977142Y-124582857D01*
X84691428Y-124182857D02*
X84691428Y-125211428D01*
X84748571Y-125325714D01*
X84862857Y-125382857D01*
X84977142Y-125382857D01*
D10*
X158328095Y-87000000D02*
X158232857Y-86952380D01*
X158090000Y-86952380D01*
X157947142Y-87000000D01*
X157851904Y-87095238D01*
X157804285Y-87190476D01*
X157756666Y-87380952D01*
X157756666Y-87523809D01*
X157804285Y-87714285D01*
X157851904Y-87809523D01*
X157947142Y-87904761D01*
X158090000Y-87952380D01*
X158185238Y-87952380D01*
X158328095Y-87904761D01*
X158375714Y-87857142D01*
X158375714Y-87523809D01*
X158185238Y-87523809D01*
X158804285Y-87952380D02*
X158804285Y-86952380D01*
X159375714Y-87952380D01*
X159375714Y-86952380D01*
X159851904Y-87952380D02*
X159851904Y-86952380D01*
X160090000Y-86952380D01*
X160232857Y-87000000D01*
X160328095Y-87095238D01*
X160375714Y-87190476D01*
X160423333Y-87380952D01*
X160423333Y-87523809D01*
X160375714Y-87714285D01*
X160328095Y-87809523D01*
X160232857Y-87904761D01*
X160090000Y-87952380D01*
X159851904Y-87952380D01*
X157270000Y-88490000D02*
X160970000Y-88490000D01*
X160970000Y-86490000D02*
X157270000Y-86490000D01*
X160970000Y-88490000D02*
X160970000Y-86490000D01*
X157270000Y-86490000D02*
X157270000Y-88490000D01*
X98950000Y-61800000D02*
X96250000Y-61800000D01*
X99000000Y-63150000D02*
X99000000Y-61800000D01*
X96200000Y-63250000D02*
X99000000Y-63250000D01*
X96200000Y-61800000D02*
X96200000Y-63250000D01*
X160688095Y-77825000D02*
X160592857Y-77777380D01*
X160450000Y-77777380D01*
X160307142Y-77825000D01*
X160211904Y-77920238D01*
X160164285Y-78015476D01*
X160116666Y-78205952D01*
X160116666Y-78348809D01*
X160164285Y-78539285D01*
X160211904Y-78634523D01*
X160307142Y-78729761D01*
X160450000Y-78777380D01*
X160545238Y-78777380D01*
X160688095Y-78729761D01*
X160735714Y-78682142D01*
X160735714Y-78348809D01*
X160545238Y-78348809D01*
X161164285Y-78777380D02*
X161164285Y-77777380D01*
X161735714Y-78777380D01*
X161735714Y-77777380D01*
X162211904Y-78777380D02*
X162211904Y-77777380D01*
X162450000Y-77777380D01*
X162592857Y-77825000D01*
X162688095Y-77920238D01*
X162735714Y-78015476D01*
X162783333Y-78205952D01*
X162783333Y-78348809D01*
X162735714Y-78539285D01*
X162688095Y-78634523D01*
X162592857Y-78729761D01*
X162450000Y-78777380D01*
X162211904Y-78777380D01*
X164050000Y-81200000D02*
X158600000Y-81200000D01*
X164050000Y-82750000D02*
X164050000Y-81200000D01*
X158600000Y-82750000D02*
X164050000Y-82750000D01*
X158600000Y-81200000D02*
X158600000Y-82750000D01*
X155200000Y-81200000D02*
X150350000Y-81200000D01*
X155200000Y-82650000D02*
X155200000Y-81200000D01*
X150350000Y-82650000D02*
X155200000Y-82650000D01*
X150350000Y-81200000D02*
X150350000Y-82650000D01*
D12*
X150997619Y-82273809D02*
X151111904Y-82311904D01*
X151302380Y-82311904D01*
X151378571Y-82273809D01*
X151416666Y-82235714D01*
X151454761Y-82159523D01*
X151454761Y-82083333D01*
X151416666Y-82007142D01*
X151378571Y-81969047D01*
X151302380Y-81930952D01*
X151150000Y-81892857D01*
X151073809Y-81854761D01*
X151035714Y-81816666D01*
X150997619Y-81740476D01*
X150997619Y-81664285D01*
X151035714Y-81588095D01*
X151073809Y-81550000D01*
X151150000Y-81511904D01*
X151340476Y-81511904D01*
X151454761Y-81550000D01*
X151683333Y-81511904D02*
X152140476Y-81511904D01*
X151911904Y-82311904D02*
X151911904Y-81511904D01*
X152407142Y-82311904D02*
X152407142Y-81511904D01*
X152673809Y-82083333D01*
X152940476Y-81511904D01*
X152940476Y-82311904D01*
X153245238Y-81511904D02*
X153740476Y-81511904D01*
X153473809Y-81816666D01*
X153588095Y-81816666D01*
X153664285Y-81854761D01*
X153702380Y-81892857D01*
X153740476Y-81969047D01*
X153740476Y-82159523D01*
X153702380Y-82235714D01*
X153664285Y-82273809D01*
X153588095Y-82311904D01*
X153359523Y-82311904D01*
X153283333Y-82273809D01*
X153245238Y-82235714D01*
X154045238Y-81588095D02*
X154083333Y-81550000D01*
X154159523Y-81511904D01*
X154350000Y-81511904D01*
X154426190Y-81550000D01*
X154464285Y-81588095D01*
X154502380Y-81664285D01*
X154502380Y-81740476D01*
X154464285Y-81854761D01*
X154007142Y-82311904D01*
X154502380Y-82311904D01*
X159302904Y-81561904D02*
X159493380Y-82361904D01*
X159645761Y-81790476D01*
X159798142Y-82361904D01*
X159988619Y-81561904D01*
X160750523Y-82361904D02*
X160483857Y-81980952D01*
X160293380Y-82361904D02*
X160293380Y-81561904D01*
X160598142Y-81561904D01*
X160674333Y-81600000D01*
X160712428Y-81638095D01*
X160750523Y-81714285D01*
X160750523Y-81828571D01*
X160712428Y-81904761D01*
X160674333Y-81942857D01*
X160598142Y-81980952D01*
X160293380Y-81980952D01*
X161245761Y-81561904D02*
X161398142Y-81561904D01*
X161474333Y-81600000D01*
X161550523Y-81676190D01*
X161588619Y-81828571D01*
X161588619Y-82095238D01*
X161550523Y-82247619D01*
X161474333Y-82323809D01*
X161398142Y-82361904D01*
X161245761Y-82361904D01*
X161169571Y-82323809D01*
X161093380Y-82247619D01*
X161055285Y-82095238D01*
X161055285Y-81828571D01*
X161093380Y-81676190D01*
X161169571Y-81600000D01*
X161245761Y-81561904D01*
X162083857Y-81561904D02*
X162236238Y-81561904D01*
X162312428Y-81600000D01*
X162388619Y-81676190D01*
X162426714Y-81828571D01*
X162426714Y-82095238D01*
X162388619Y-82247619D01*
X162312428Y-82323809D01*
X162236238Y-82361904D01*
X162083857Y-82361904D01*
X162007666Y-82323809D01*
X161931476Y-82247619D01*
X161893380Y-82095238D01*
X161893380Y-81828571D01*
X161931476Y-81676190D01*
X162007666Y-81600000D01*
X162083857Y-81561904D01*
X162769571Y-82361904D02*
X162769571Y-81561904D01*
X163036238Y-82133333D01*
X163302904Y-81561904D01*
X163302904Y-82361904D01*
D10*
X160683333Y-73552380D02*
X160350000Y-73076190D01*
X160111904Y-73552380D02*
X160111904Y-72552380D01*
X160492857Y-72552380D01*
X160588095Y-72600000D01*
X160635714Y-72647619D01*
X160683333Y-72742857D01*
X160683333Y-72885714D01*
X160635714Y-72980952D01*
X160588095Y-73028571D01*
X160492857Y-73076190D01*
X160111904Y-73076190D01*
X161016666Y-72552380D02*
X161683333Y-73552380D01*
X161683333Y-72552380D02*
X161016666Y-73552380D01*
X160188095Y-75302380D02*
X160759523Y-75302380D01*
X160473809Y-76302380D02*
X160473809Y-75302380D01*
X160997619Y-75302380D02*
X161664285Y-76302380D01*
X161664285Y-75302380D02*
X160997619Y-76302380D01*
X152313095Y-72602380D02*
X152884523Y-72602380D01*
X152598809Y-73602380D02*
X152598809Y-72602380D01*
X153122619Y-72602380D02*
X153789285Y-73602380D01*
X153789285Y-72602380D02*
X153122619Y-73602380D01*
D12*
X96514285Y-62873809D02*
X96628571Y-62911904D01*
X96819047Y-62911904D01*
X96895238Y-62873809D01*
X96933333Y-62835714D01*
X96971428Y-62759523D01*
X96971428Y-62683333D01*
X96933333Y-62607142D01*
X96895238Y-62569047D01*
X96819047Y-62530952D01*
X96666666Y-62492857D01*
X96590476Y-62454761D01*
X96552380Y-62416666D01*
X96514285Y-62340476D01*
X96514285Y-62264285D01*
X96552380Y-62188095D01*
X96590476Y-62150000D01*
X96666666Y-62111904D01*
X96857142Y-62111904D01*
X96971428Y-62150000D01*
X97238095Y-62111904D02*
X97428571Y-62911904D01*
X97580952Y-62340476D01*
X97733333Y-62911904D01*
X97923809Y-62111904D01*
X98228571Y-62911904D02*
X98228571Y-62111904D01*
X98419047Y-62111904D01*
X98533333Y-62150000D01*
X98609523Y-62226190D01*
X98647619Y-62302380D01*
X98685714Y-62454761D01*
X98685714Y-62569047D01*
X98647619Y-62721428D01*
X98609523Y-62797619D01*
X98533333Y-62873809D01*
X98419047Y-62911904D01*
X98228571Y-62911904D01*
D10*
X152908333Y-76152380D02*
X152575000Y-75676190D01*
X152336904Y-76152380D02*
X152336904Y-75152380D01*
X152717857Y-75152380D01*
X152813095Y-75200000D01*
X152860714Y-75247619D01*
X152908333Y-75342857D01*
X152908333Y-75485714D01*
X152860714Y-75580952D01*
X152813095Y-75628571D01*
X152717857Y-75676190D01*
X152336904Y-75676190D01*
X153241666Y-75152380D02*
X153908333Y-76152380D01*
X153908333Y-75152380D02*
X153241666Y-76152380D01*
X126250000Y-78100000D02*
X121750000Y-78100000D01*
X126238000Y-81000000D02*
X126238000Y-78100000D01*
X121750000Y-81000000D02*
X126200000Y-81000000D01*
X121750000Y-78100000D02*
X121750000Y-81000000D01*
X122675809Y-78515904D02*
X122675809Y-79163523D01*
X122713904Y-79239714D01*
X122752000Y-79277809D01*
X122828190Y-79315904D01*
X122980571Y-79315904D01*
X123056761Y-79277809D01*
X123094857Y-79239714D01*
X123132952Y-79163523D01*
X123132952Y-78515904D01*
X123475809Y-79087333D02*
X123856761Y-79087333D01*
X123399619Y-79315904D02*
X123666285Y-78515904D01*
X123932952Y-79315904D01*
X124656761Y-79315904D02*
X124390095Y-78934952D01*
X124199619Y-79315904D02*
X124199619Y-78515904D01*
X124504380Y-78515904D01*
X124580571Y-78554000D01*
X124618666Y-78592095D01*
X124656761Y-78668285D01*
X124656761Y-78782571D01*
X124618666Y-78858761D01*
X124580571Y-78896857D01*
X124504380Y-78934952D01*
X124199619Y-78934952D01*
X124885333Y-78515904D02*
X125342476Y-78515904D01*
X125113904Y-79315904D02*
X125113904Y-78515904D01*
X123418666Y-80665904D02*
X123418666Y-79865904D01*
X123609142Y-79865904D01*
X123723428Y-79904000D01*
X123799619Y-79980190D01*
X123837714Y-80056380D01*
X123875809Y-80208761D01*
X123875809Y-80323047D01*
X123837714Y-80475428D01*
X123799619Y-80551619D01*
X123723428Y-80627809D01*
X123609142Y-80665904D01*
X123418666Y-80665904D01*
X124599619Y-80665904D02*
X124218666Y-80665904D01*
X124218666Y-79865904D01*
D11*
X154800000Y-146600000D02*
X148400000Y-146600000D01*
X154800000Y-149200000D02*
X154800000Y-146600000D01*
X148400000Y-149200000D02*
X154800000Y-149200000D01*
X148400000Y-146600000D02*
X148400000Y-149200000D01*
X149020000Y-148628571D02*
X149020000Y-147128571D01*
X149520000Y-148200000D01*
X150020000Y-147128571D01*
X150020000Y-148628571D01*
X150948571Y-148628571D02*
X150805714Y-148557142D01*
X150734285Y-148485714D01*
X150662857Y-148342857D01*
X150662857Y-147914285D01*
X150734285Y-147771428D01*
X150805714Y-147700000D01*
X150948571Y-147628571D01*
X151162857Y-147628571D01*
X151305714Y-147700000D01*
X151377142Y-147771428D01*
X151448571Y-147914285D01*
X151448571Y-148342857D01*
X151377142Y-148485714D01*
X151305714Y-148557142D01*
X151162857Y-148628571D01*
X150948571Y-148628571D01*
X152734285Y-148628571D02*
X152734285Y-147128571D01*
X152734285Y-148557142D02*
X152591428Y-148628571D01*
X152305714Y-148628571D01*
X152162857Y-148557142D01*
X152091428Y-148485714D01*
X152020000Y-148342857D01*
X152020000Y-147914285D01*
X152091428Y-147771428D01*
X152162857Y-147700000D01*
X152305714Y-147628571D01*
X152591428Y-147628571D01*
X152734285Y-147700000D01*
X154020000Y-148557142D02*
X153877142Y-148628571D01*
X153591428Y-148628571D01*
X153448571Y-148557142D01*
X153377142Y-148414285D01*
X153377142Y-147842857D01*
X153448571Y-147700000D01*
X153591428Y-147628571D01*
X153877142Y-147628571D01*
X154020000Y-147700000D01*
X154091428Y-147842857D01*
X154091428Y-147985714D01*
X153377142Y-148128571D01*
D10*
X108598095Y-62042380D02*
X108598095Y-62851904D01*
X108645714Y-62947142D01*
X108693333Y-62994761D01*
X108788571Y-63042380D01*
X108979047Y-63042380D01*
X109074285Y-62994761D01*
X109121904Y-62947142D01*
X109169523Y-62851904D01*
X109169523Y-62042380D01*
X109598095Y-62994761D02*
X109740952Y-63042380D01*
X109979047Y-63042380D01*
X110074285Y-62994761D01*
X110121904Y-62947142D01*
X110169523Y-62851904D01*
X110169523Y-62756666D01*
X110121904Y-62661428D01*
X110074285Y-62613809D01*
X109979047Y-62566190D01*
X109788571Y-62518571D01*
X109693333Y-62470952D01*
X109645714Y-62423333D01*
X109598095Y-62328095D01*
X109598095Y-62232857D01*
X109645714Y-62137619D01*
X109693333Y-62090000D01*
X109788571Y-62042380D01*
X110026666Y-62042380D01*
X110169523Y-62090000D01*
X110931428Y-62518571D02*
X111074285Y-62566190D01*
X111121904Y-62613809D01*
X111169523Y-62709047D01*
X111169523Y-62851904D01*
X111121904Y-62947142D01*
X111074285Y-62994761D01*
X110979047Y-63042380D01*
X110598095Y-63042380D01*
X110598095Y-62042380D01*
X110931428Y-62042380D01*
X111026666Y-62090000D01*
X111074285Y-62137619D01*
X111121904Y-62232857D01*
X111121904Y-62328095D01*
X111074285Y-62423333D01*
X111026666Y-62470952D01*
X110931428Y-62518571D01*
X110598095Y-62518571D01*
X111850000Y-61580000D02*
X107850000Y-61580000D01*
X111850000Y-63580000D02*
X111850000Y-61580000D01*
X107850000Y-63580000D02*
X111850000Y-63580000D01*
X107850000Y-61580000D02*
X107850000Y-63580000D01*
X129700000Y-59000000D02*
X124800000Y-59000000D01*
X129730000Y-61000000D02*
X129730000Y-59000000D01*
X124840000Y-61000000D02*
X129720000Y-61000000D01*
X124800000Y-59000000D02*
X124800000Y-61000000D01*
X125253809Y-60452380D02*
X125253809Y-59452380D01*
X125634761Y-59452380D01*
X125730000Y-59500000D01*
X125777619Y-59547619D01*
X125825238Y-59642857D01*
X125825238Y-59785714D01*
X125777619Y-59880952D01*
X125730000Y-59928571D01*
X125634761Y-59976190D01*
X125253809Y-59976190D01*
X126396666Y-60452380D02*
X126301428Y-60404761D01*
X126253809Y-60357142D01*
X126206190Y-60261904D01*
X126206190Y-59976190D01*
X126253809Y-59880952D01*
X126301428Y-59833333D01*
X126396666Y-59785714D01*
X126539523Y-59785714D01*
X126634761Y-59833333D01*
X126682380Y-59880952D01*
X126730000Y-59976190D01*
X126730000Y-60261904D01*
X126682380Y-60357142D01*
X126634761Y-60404761D01*
X126539523Y-60452380D01*
X126396666Y-60452380D01*
X127063333Y-59785714D02*
X127253809Y-60452380D01*
X127444285Y-59976190D01*
X127634761Y-60452380D01*
X127825238Y-59785714D01*
X128587142Y-60404761D02*
X128491904Y-60452380D01*
X128301428Y-60452380D01*
X128206190Y-60404761D01*
X128158571Y-60309523D01*
X128158571Y-59928571D01*
X128206190Y-59833333D01*
X128301428Y-59785714D01*
X128491904Y-59785714D01*
X128587142Y-59833333D01*
X128634761Y-59928571D01*
X128634761Y-60023809D01*
X128158571Y-60119047D01*
X129063333Y-60452380D02*
X129063333Y-59785714D01*
X129063333Y-59976190D02*
X129110952Y-59880952D01*
X129158571Y-59833333D01*
X129253809Y-59785714D01*
X129349047Y-59785714D01*
D13*
X127285714Y-152630952D02*
X126619047Y-151440476D01*
X126142857Y-152630952D02*
X126142857Y-150130952D01*
X126904761Y-150130952D01*
X127095238Y-150250000D01*
X127190476Y-150369047D01*
X127285714Y-150607142D01*
X127285714Y-150964285D01*
X127190476Y-151202380D01*
X127095238Y-151321428D01*
X126904761Y-151440476D01*
X126142857Y-151440476D01*
X128047619Y-150369047D02*
X128142857Y-150250000D01*
X128333333Y-150130952D01*
X128809523Y-150130952D01*
X129000000Y-150250000D01*
X129095238Y-150369047D01*
X129190476Y-150607142D01*
X129190476Y-150845238D01*
X129095238Y-151202380D01*
X127952380Y-152630952D01*
X129190476Y-152630952D01*
X130047619Y-152392857D02*
X130142857Y-152511904D01*
X130047619Y-152630952D01*
X129952380Y-152511904D01*
X130047619Y-152392857D01*
X130047619Y-152630952D01*
X131380952Y-150130952D02*
X131571428Y-150130952D01*
X131761904Y-150250000D01*
X131857142Y-150369047D01*
X131952380Y-150607142D01*
X132047619Y-151083333D01*
X132047619Y-151678571D01*
X131952380Y-152154761D01*
X131857142Y-152392857D01*
X131761904Y-152511904D01*
X131571428Y-152630952D01*
X131380952Y-152630952D01*
X131190476Y-152511904D01*
X131095238Y-152392857D01*
X131000000Y-152154761D01*
X130904761Y-151678571D01*
X130904761Y-151083333D01*
X131000000Y-150607142D01*
X131095238Y-150369047D01*
X131190476Y-150250000D01*
X131380952Y-150130952D01*
X133952380Y-152630952D02*
X132809523Y-152630952D01*
X133380952Y-152630952D02*
X133380952Y-150130952D01*
X133190476Y-150488095D01*
X133000000Y-150726190D01*
X132809523Y-150845238D01*
D12*
X115000000Y-103000000D02*
X115000000Y-102000000D01*
X114500000Y-102500000D02*
X115500000Y-102500000D01*
X118500000Y-96500000D02*
X120900000Y-96500000D01*
X113700000Y-96500000D02*
X116300000Y-96500000D01*
X109100000Y-96500000D02*
X111500000Y-96500000D01*
X109100000Y-108500000D02*
X120900000Y-108500000D01*
X109100000Y-105000000D02*
X109100000Y-108500000D01*
X120900000Y-105000000D02*
X120900000Y-108500000D01*
X120900000Y-96500000D02*
X120900000Y-100500000D01*
X109100000Y-100500000D02*
X109100000Y-96500000D01*
X118000000Y-102500000D02*
G75*
G03X118000000Y-102500000I-3000000J0D01*
G01*
X75000000Y-103000000D02*
X75000000Y-102000000D01*
X74500000Y-102500000D02*
X75500000Y-102500000D01*
X78500000Y-96500000D02*
X80900000Y-96500000D01*
X73700000Y-96500000D02*
X76300000Y-96500000D01*
X69100000Y-96500000D02*
X71500000Y-96500000D01*
X69100000Y-108500000D02*
X80900000Y-108500000D01*
X69100000Y-105000000D02*
X69100000Y-108500000D01*
X80900000Y-105000000D02*
X80900000Y-108500000D01*
X80900000Y-96500000D02*
X80900000Y-100500000D01*
X69100000Y-100500000D02*
X69100000Y-96500000D01*
X78000000Y-102500000D02*
G75*
G03X78000000Y-102500000I-3000000J0D01*
G01*
X155000000Y-103000000D02*
X155000000Y-102000000D01*
X154500000Y-102500000D02*
X155500000Y-102500000D01*
X158500000Y-96500000D02*
X160900000Y-96500000D01*
X153700000Y-96500000D02*
X156300000Y-96500000D01*
X149100000Y-96500000D02*
X151500000Y-96500000D01*
X149100000Y-108500000D02*
X160900000Y-108500000D01*
X149100000Y-105000000D02*
X149100000Y-108500000D01*
X160900000Y-105000000D02*
X160900000Y-108500000D01*
X160900000Y-96500000D02*
X160900000Y-100500000D01*
X149100000Y-100500000D02*
X149100000Y-96500000D01*
X158000000Y-102500000D02*
G75*
G03X158000000Y-102500000I-3000000J0D01*
G01*
X135000000Y-103000000D02*
X135000000Y-102000000D01*
X134500000Y-102500000D02*
X135500000Y-102500000D01*
X138500000Y-96500000D02*
X140900000Y-96500000D01*
X133700000Y-96500000D02*
X136300000Y-96500000D01*
X129100000Y-96500000D02*
X131500000Y-96500000D01*
X129100000Y-108500000D02*
X140900000Y-108500000D01*
X129100000Y-105000000D02*
X129100000Y-108500000D01*
X140900000Y-105000000D02*
X140900000Y-108500000D01*
X140900000Y-96500000D02*
X140900000Y-100500000D01*
X129100000Y-100500000D02*
X129100000Y-96500000D01*
X138000000Y-102500000D02*
G75*
G03X138000000Y-102500000I-3000000J0D01*
G01*
X95000000Y-103000000D02*
X95000000Y-102000000D01*
X94500000Y-102500000D02*
X95500000Y-102500000D01*
X98500000Y-96500000D02*
X100900000Y-96500000D01*
X93700000Y-96500000D02*
X96300000Y-96500000D01*
X89100000Y-96500000D02*
X91500000Y-96500000D01*
X89100000Y-108500000D02*
X100900000Y-108500000D01*
X89100000Y-105000000D02*
X89100000Y-108500000D01*
X100900000Y-105000000D02*
X100900000Y-108500000D01*
X100900000Y-96500000D02*
X100900000Y-100500000D01*
X89100000Y-100500000D02*
X89100000Y-96500000D01*
X98000000Y-102500000D02*
G75*
G03X98000000Y-102500000I-3000000J0D01*
G01*
X75000000Y-133000000D02*
X75000000Y-132000000D01*
X74500000Y-132500000D02*
X75500000Y-132500000D01*
X78500000Y-126500000D02*
X80900000Y-126500000D01*
X73700000Y-126500000D02*
X76300000Y-126500000D01*
X69100000Y-126500000D02*
X71500000Y-126500000D01*
X69100000Y-138500000D02*
X80900000Y-138500000D01*
X69100000Y-135000000D02*
X69100000Y-138500000D01*
X80900000Y-135000000D02*
X80900000Y-138500000D01*
X80900000Y-126500000D02*
X80900000Y-130500000D01*
X69100000Y-130500000D02*
X69100000Y-126500000D01*
X78000000Y-132500000D02*
G75*
G03X78000000Y-132500000I-3000000J0D01*
G01*
D13*
X154850000Y-92100000D02*
X154850000Y-91100000D01*
X127950000Y-94000000D02*
X127950000Y-95000000D01*
X87800000Y-94000000D02*
X87800000Y-95000000D01*
X70550000Y-92150000D02*
X69550000Y-92150000D01*
X114875000Y-92425000D02*
X114875000Y-91425000D01*
X70690000Y-122160000D02*
X69690000Y-122160000D01*
D12*
X89341422Y-109790000D02*
X89858578Y-109790000D01*
X89341422Y-111210000D02*
X89858578Y-111210000D01*
D14*
X130880000Y-76800000D02*
X130880000Y-77020000D01*
X130880000Y-77020000D02*
X131900000Y-77020000D01*
X149120000Y-76700000D02*
X149120000Y-77000000D01*
X148000000Y-77020000D02*
X149120000Y-77020000D01*
X130880000Y-56780000D02*
X149120000Y-56780000D01*
X149120000Y-56780000D02*
X149120000Y-63300000D01*
X130880000Y-56780000D02*
X130880000Y-63100000D01*
X130880000Y-63100000D02*
X129000000Y-63100000D01*
D12*
X128383578Y-70365000D02*
X127866422Y-70365000D01*
X128383578Y-71785000D02*
X127866422Y-71785000D01*
X127866422Y-69860000D02*
X128383578Y-69860000D01*
X127866422Y-68440000D02*
X128383578Y-68440000D01*
D10*
X75000000Y-64000000D02*
X105000000Y-64000000D01*
X105000000Y-64000000D02*
X105000000Y-81500000D01*
X82380000Y-81500000D02*
X75000000Y-81500000D01*
X75000000Y-81500000D02*
X75000000Y-64000000D01*
X97620000Y-81500000D02*
X105000000Y-81500000D01*
D12*
X84841422Y-150910000D02*
X85358578Y-150910000D01*
X84841422Y-149490000D02*
X85358578Y-149490000D01*
X84420000Y-147860000D02*
X84420000Y-146400000D01*
X87580000Y-147860000D02*
X87580000Y-145700000D01*
X87580000Y-147860000D02*
X86650000Y-147860000D01*
X84420000Y-147860000D02*
X85350000Y-147860000D01*
D10*
X156850000Y-115600000D02*
G75*
G03X156850000Y-115600000I-100000J0D01*
G01*
X154090000Y-116120000D02*
X156000000Y-116120000D01*
X154090000Y-113900000D02*
X155940000Y-113900000D01*
D14*
G36*
X155270000Y-114150000D02*
G01*
X155270000Y-115850000D01*
X155420000Y-115850000D01*
X155420000Y-114150000D01*
X155270000Y-114150000D01*
G37*
X155270000Y-114150000D02*
X155270000Y-115850000D01*
X155420000Y-115850000D01*
X155420000Y-114150000D01*
X155270000Y-114150000D01*
D10*
X136850000Y-116100000D02*
G75*
G03X136850000Y-116100000I-100000J0D01*
G01*
X134090000Y-116620000D02*
X136000000Y-116620000D01*
X134090000Y-114400000D02*
X135940000Y-114400000D01*
D14*
G36*
X135270000Y-114650000D02*
G01*
X135270000Y-116350000D01*
X135420000Y-116350000D01*
X135420000Y-114650000D01*
X135270000Y-114650000D01*
G37*
X135270000Y-114650000D02*
X135270000Y-116350000D01*
X135420000Y-116350000D01*
X135420000Y-114650000D01*
X135270000Y-114650000D01*
D10*
X116850000Y-116100000D02*
G75*
G03X116850000Y-116100000I-100000J0D01*
G01*
X114090000Y-116620000D02*
X116000000Y-116620000D01*
X114090000Y-114400000D02*
X115940000Y-114400000D01*
D14*
G36*
X115270000Y-114650000D02*
G01*
X115270000Y-116350000D01*
X115420000Y-116350000D01*
X115420000Y-114650000D01*
X115270000Y-114650000D01*
G37*
X115270000Y-114650000D02*
X115270000Y-116350000D01*
X115420000Y-116350000D01*
X115420000Y-114650000D01*
X115270000Y-114650000D01*
D10*
X96850000Y-116100000D02*
G75*
G03X96850000Y-116100000I-100000J0D01*
G01*
X94090000Y-116620000D02*
X96000000Y-116620000D01*
X94090000Y-114400000D02*
X95940000Y-114400000D01*
D14*
G36*
X95270000Y-114650000D02*
G01*
X95270000Y-116350000D01*
X95420000Y-116350000D01*
X95420000Y-114650000D01*
X95270000Y-114650000D01*
G37*
X95270000Y-114650000D02*
X95270000Y-116350000D01*
X95420000Y-116350000D01*
X95420000Y-114650000D01*
X95270000Y-114650000D01*
D10*
X76850000Y-116100000D02*
G75*
G03X76850000Y-116100000I-100000J0D01*
G01*
X74090000Y-116620000D02*
X76000000Y-116620000D01*
X74090000Y-114400000D02*
X75940000Y-114400000D01*
D14*
G36*
X75270000Y-114650000D02*
G01*
X75270000Y-116350000D01*
X75420000Y-116350000D01*
X75420000Y-114650000D01*
X75270000Y-114650000D01*
G37*
X75270000Y-114650000D02*
X75270000Y-116350000D01*
X75420000Y-116350000D01*
X75420000Y-114650000D01*
X75270000Y-114650000D01*
D10*
X76850000Y-145100000D02*
G75*
G03X76850000Y-145100000I-100000J0D01*
G01*
X74090000Y-145620000D02*
X76000000Y-145620000D01*
X74090000Y-143400000D02*
X75940000Y-143400000D01*
D14*
G36*
X75270000Y-143650000D02*
G01*
X75270000Y-145350000D01*
X75420000Y-145350000D01*
X75420000Y-143650000D01*
X75270000Y-143650000D01*
G37*
X75270000Y-143650000D02*
X75270000Y-145350000D01*
X75420000Y-145350000D01*
X75420000Y-143650000D01*
X75270000Y-143650000D01*
D12*
X154691422Y-118060000D02*
X155208578Y-118060000D01*
X154691422Y-116640000D02*
X155208578Y-116640000D01*
X134666422Y-118485000D02*
X135183578Y-118485000D01*
X134666422Y-117065000D02*
X135183578Y-117065000D01*
X114691422Y-118635000D02*
X115208578Y-118635000D01*
X114691422Y-117215000D02*
X115208578Y-117215000D01*
X94666422Y-118785000D02*
X95183578Y-118785000D01*
X94666422Y-117365000D02*
X95183578Y-117365000D01*
X74716422Y-118535000D02*
X75233578Y-118535000D01*
X74716422Y-117115000D02*
X75233578Y-117115000D01*
X74666422Y-147635000D02*
X75183578Y-147635000D01*
X74666422Y-146215000D02*
X75183578Y-146215000D01*
X80558578Y-111210000D02*
X80041422Y-111210000D01*
X80558578Y-109790000D02*
X80041422Y-109790000D01*
X140558578Y-109790000D02*
X140041422Y-109790000D01*
X140558578Y-111210000D02*
X140041422Y-111210000D01*
X100558578Y-109790000D02*
X100041422Y-109790000D01*
X100558578Y-111210000D02*
X100041422Y-111210000D01*
X109291422Y-109790000D02*
X109808578Y-109790000D01*
X109291422Y-111210000D02*
X109808578Y-111210000D01*
X120583578Y-109790000D02*
X120066422Y-109790000D01*
X120583578Y-111210000D02*
X120066422Y-111210000D01*
X129441422Y-109790000D02*
X129958578Y-109790000D01*
X129441422Y-111210000D02*
X129958578Y-111210000D01*
X160558578Y-109790000D02*
X160041422Y-109790000D01*
X160558578Y-111210000D02*
X160041422Y-111210000D01*
X149441422Y-109790000D02*
X149958578Y-109790000D01*
X149441422Y-111210000D02*
X149958578Y-111210000D01*
X80558578Y-139790000D02*
X80041422Y-139790000D01*
X80558578Y-141210000D02*
X80041422Y-141210000D01*
X69441422Y-139815000D02*
X69958578Y-139815000D01*
X69441422Y-141235000D02*
X69958578Y-141235000D01*
X69441422Y-109790000D02*
X69958578Y-109790000D01*
X69441422Y-111210000D02*
X69958578Y-111210000D01*
X127866422Y-73685000D02*
X128383578Y-73685000D01*
X127866422Y-72265000D02*
X128383578Y-72265000D01*
X122200000Y-60735000D02*
X124485000Y-60735000D01*
X124485000Y-60735000D02*
X124485000Y-59265000D01*
X124485000Y-59265000D02*
X122200000Y-59265000D01*
X156600000Y-85850000D02*
G75*
G03X156600000Y-85850000I-950000J0D01*
G01*
X125991422Y-65790000D02*
X126508578Y-65790000D01*
X125991422Y-67210000D02*
X126508578Y-67210000D01*
X132580000Y-81180000D02*
X132580000Y-78520000D01*
X129980000Y-81180000D02*
X132580000Y-81180000D01*
X129980000Y-78520000D02*
X132580000Y-78520000D01*
X129980000Y-81180000D02*
X129980000Y-78520000D01*
X128710000Y-81180000D02*
X127380000Y-81180000D01*
X127380000Y-81180000D02*
X127380000Y-79850000D01*
X154320000Y-79610000D02*
X159520000Y-79610000D01*
X154320000Y-74470000D02*
X154320000Y-79610000D01*
X159520000Y-71870000D02*
X159520000Y-79610000D01*
X154320000Y-74470000D02*
X156920000Y-74470000D01*
X156920000Y-74470000D02*
X156920000Y-71870000D01*
X156920000Y-71870000D02*
X159520000Y-71870000D01*
X154320000Y-73200000D02*
X154320000Y-71870000D01*
X154320000Y-71870000D02*
X155650000Y-71870000D01*
X151000000Y-130500000D02*
X155500000Y-130500000D01*
X149750000Y-126500000D02*
X149750000Y-128000000D01*
X155500000Y-124000000D02*
X151000000Y-124000000D01*
X156750000Y-128000000D02*
X156750000Y-126500000D01*
X96750000Y-143000000D02*
X96750000Y-141500000D01*
X95500000Y-139000000D02*
X91000000Y-139000000D01*
X89750000Y-141500000D02*
X89750000Y-143000000D01*
X91000000Y-145500000D02*
X95500000Y-145500000D01*
X106000000Y-145500000D02*
X110500000Y-145500000D01*
X104750000Y-141500000D02*
X104750000Y-143000000D01*
X110500000Y-139000000D02*
X106000000Y-139000000D01*
X111750000Y-143000000D02*
X111750000Y-141500000D01*
X96750000Y-128000000D02*
X96750000Y-126500000D01*
X95500000Y-124000000D02*
X91000000Y-124000000D01*
X89750000Y-126500000D02*
X89750000Y-128000000D01*
X91000000Y-130500000D02*
X95500000Y-130500000D01*
X106000000Y-130500000D02*
X110500000Y-130500000D01*
X104750000Y-126500000D02*
X104750000Y-128000000D01*
X110500000Y-124000000D02*
X106000000Y-124000000D01*
X111750000Y-128000000D02*
X111750000Y-126500000D01*
X126750000Y-128000000D02*
X126750000Y-126500000D01*
X125500000Y-124000000D02*
X121000000Y-124000000D01*
X119750000Y-126500000D02*
X119750000Y-128000000D01*
X121000000Y-130500000D02*
X125500000Y-130500000D01*
X136000000Y-130500000D02*
X140500000Y-130500000D01*
X134750000Y-126500000D02*
X134750000Y-128000000D01*
X140500000Y-124000000D02*
X136000000Y-124000000D01*
X141750000Y-128000000D02*
X141750000Y-126500000D01*
X151000000Y-145500000D02*
X155500000Y-145500000D01*
X149750000Y-141500000D02*
X149750000Y-143000000D01*
X155500000Y-139000000D02*
X151000000Y-139000000D01*
X156750000Y-143000000D02*
X156750000Y-141500000D01*
X141750000Y-143000000D02*
X141750000Y-141500000D01*
X140500000Y-139000000D02*
X136000000Y-139000000D01*
X134750000Y-141500000D02*
X134750000Y-143000000D01*
X136000000Y-145500000D02*
X140500000Y-145500000D01*
X121000000Y-145500000D02*
X125500000Y-145500000D01*
X119750000Y-141500000D02*
X119750000Y-143000000D01*
X125500000Y-139000000D02*
X121000000Y-139000000D01*
X126750000Y-143000000D02*
X126750000Y-141500000D01*
X117179422Y-62290000D02*
X117696578Y-62290000D01*
X117179422Y-63710000D02*
X117696578Y-63710000D01*
X80041422Y-113310000D02*
X80558578Y-113310000D01*
X80041422Y-111890000D02*
X80558578Y-111890000D01*
X125991422Y-65210000D02*
X126508578Y-65210000D01*
X125991422Y-63790000D02*
X126508578Y-63790000D01*
X113820578Y-69290000D02*
X113303422Y-69290000D01*
X113820578Y-70710000D02*
X113303422Y-70710000D01*
X117179422Y-69290000D02*
X117696578Y-69290000D01*
X117179422Y-70710000D02*
X117696578Y-70710000D01*
X69958578Y-113310000D02*
X69441422Y-113310000D01*
X69958578Y-111890000D02*
X69441422Y-111890000D01*
X140041422Y-111790000D02*
X140558578Y-111790000D01*
X140041422Y-113210000D02*
X140558578Y-113210000D01*
X89858578Y-113210000D02*
X89341422Y-113210000D01*
X89858578Y-111790000D02*
X89341422Y-111790000D01*
X100041422Y-113210000D02*
X100558578Y-113210000D01*
X100041422Y-111790000D02*
X100558578Y-111790000D01*
X109808578Y-113210000D02*
X109291422Y-113210000D01*
X109808578Y-111790000D02*
X109291422Y-111790000D01*
X120066422Y-113210000D02*
X120583578Y-113210000D01*
X120066422Y-111790000D02*
X120583578Y-111790000D01*
X129958578Y-113210000D02*
X129441422Y-113210000D01*
X129958578Y-111790000D02*
X129441422Y-111790000D01*
X149958578Y-111790000D02*
X149441422Y-111790000D01*
X149958578Y-113210000D02*
X149441422Y-113210000D01*
X160041422Y-111790000D02*
X160558578Y-111790000D01*
X160041422Y-113210000D02*
X160558578Y-113210000D01*
X69958578Y-141790000D02*
X69441422Y-141790000D01*
X69958578Y-143210000D02*
X69441422Y-143210000D01*
X80041422Y-141790000D02*
X80558578Y-141790000D01*
X80041422Y-143210000D02*
X80558578Y-143210000D01*
X104794000Y-55481000D02*
X98914000Y-55481000D01*
X97744000Y-59951000D02*
X98794000Y-59951000D01*
X97744000Y-57451000D02*
X97744000Y-59951000D01*
X104914000Y-59951000D02*
X104914000Y-60941000D01*
X105964000Y-59951000D02*
X104914000Y-59951000D01*
X105964000Y-57451000D02*
X105964000Y-59951000D01*
D10*
X113200000Y-60400000D02*
X112200000Y-60400000D01*
X116800000Y-60400000D02*
X117800000Y-60400000D01*
X116800000Y-60825000D02*
X116800000Y-60400000D01*
X116075000Y-60825000D02*
X116800000Y-60825000D01*
X110850000Y-57250000D02*
X110850000Y-58650000D01*
X110850000Y-54700000D02*
X110850000Y-54850000D01*
X111150000Y-54700000D02*
X110850000Y-54700000D01*
X111150000Y-54250000D02*
X111150000Y-54700000D01*
X118850000Y-54700000D02*
X118850000Y-54250000D01*
X119150000Y-54700000D02*
X118850000Y-54700000D01*
X119150000Y-54850000D02*
X119150000Y-54700000D01*
X119150000Y-58650000D02*
X119150000Y-57250000D01*
D12*
X113890000Y-65800000D02*
X113890000Y-67600000D01*
X117110000Y-67600000D02*
X117110000Y-65150000D01*
D15*
G36*
X120662617Y-149347808D02*
G01*
X120845967Y-149362458D01*
X120981496Y-149382936D01*
X121026930Y-149396114D01*
X121089676Y-149427615D01*
X121126264Y-149470620D01*
X121143731Y-149547115D01*
X121149114Y-149679087D01*
X121149474Y-149779002D01*
X121149474Y-150110034D01*
X120926189Y-150025193D01*
X120619614Y-149948953D01*
X120333155Y-149955873D01*
X120073479Y-150041010D01*
X119847253Y-150199420D01*
X119661145Y-150426161D01*
X119521821Y-150716291D01*
X119435948Y-151064865D01*
X119426234Y-151137226D01*
X119397987Y-151377563D01*
X119594169Y-151181655D01*
X119826361Y-151007544D01*
X120087232Y-150908252D01*
X120361231Y-150881225D01*
X120632810Y-150923907D01*
X120886417Y-151033746D01*
X121106504Y-151208185D01*
X121277519Y-151444670D01*
X121285212Y-151459465D01*
X121375335Y-151713585D01*
X121420043Y-152013880D01*
X121418667Y-152329455D01*
X121370543Y-152629410D01*
X121314145Y-152800730D01*
X121190222Y-153010590D01*
X121007839Y-153213544D01*
X120795146Y-153381682D01*
X120647135Y-153462073D01*
X120401770Y-153538184D01*
X120126690Y-153576184D01*
X119858301Y-153573490D01*
X119648832Y-153532929D01*
X119356380Y-153401153D01*
X119118930Y-153211252D01*
X118928308Y-152954691D01*
X118776340Y-152622937D01*
X118775823Y-152621515D01*
X118720844Y-152408359D01*
X118702028Y-152273146D01*
X119460129Y-152273146D01*
X119505849Y-152500090D01*
X119596143Y-152702395D01*
X119724684Y-152858771D01*
X119857193Y-152938913D01*
X120025043Y-152966212D01*
X120211118Y-152947360D01*
X120347433Y-152896558D01*
X120508657Y-152750669D01*
X120612973Y-152539998D01*
X120657714Y-152270481D01*
X120659298Y-152202365D01*
X120628489Y-151932538D01*
X120537753Y-151725306D01*
X120389628Y-151583654D01*
X120186650Y-151510567D01*
X120062979Y-151500657D01*
X119852877Y-151540288D01*
X119668499Y-151649809D01*
X119536615Y-151812723D01*
X119527727Y-151830507D01*
X119465312Y-152042855D01*
X119460129Y-152273146D01*
X118702028Y-152273146D01*
X118682569Y-152133320D01*
X118661897Y-151822227D01*
X118659728Y-151500905D01*
X118676960Y-151195183D01*
X118714494Y-150930889D01*
X118716607Y-150920702D01*
X118843339Y-150490269D01*
X119027995Y-150118976D01*
X119267140Y-149811768D01*
X119557339Y-149573594D01*
X119713777Y-149485234D01*
X119858226Y-149417311D01*
X119976202Y-149374577D01*
X120096687Y-149351435D01*
X120248663Y-149342288D01*
X120457835Y-149341515D01*
X120662617Y-149347808D01*
X120662617Y-149347808D01*
G37*
X120662617Y-149347808D02*
X120845967Y-149362458D01*
X120981496Y-149382936D01*
X121026930Y-149396114D01*
X121089676Y-149427615D01*
X121126264Y-149470620D01*
X121143731Y-149547115D01*
X121149114Y-149679087D01*
X121149474Y-149779002D01*
X121149474Y-150110034D01*
X120926189Y-150025193D01*
X120619614Y-149948953D01*
X120333155Y-149955873D01*
X120073479Y-150041010D01*
X119847253Y-150199420D01*
X119661145Y-150426161D01*
X119521821Y-150716291D01*
X119435948Y-151064865D01*
X119426234Y-151137226D01*
X119397987Y-151377563D01*
X119594169Y-151181655D01*
X119826361Y-151007544D01*
X120087232Y-150908252D01*
X120361231Y-150881225D01*
X120632810Y-150923907D01*
X120886417Y-151033746D01*
X121106504Y-151208185D01*
X121277519Y-151444670D01*
X121285212Y-151459465D01*
X121375335Y-151713585D01*
X121420043Y-152013880D01*
X121418667Y-152329455D01*
X121370543Y-152629410D01*
X121314145Y-152800730D01*
X121190222Y-153010590D01*
X121007839Y-153213544D01*
X120795146Y-153381682D01*
X120647135Y-153462073D01*
X120401770Y-153538184D01*
X120126690Y-153576184D01*
X119858301Y-153573490D01*
X119648832Y-153532929D01*
X119356380Y-153401153D01*
X119118930Y-153211252D01*
X118928308Y-152954691D01*
X118776340Y-152622937D01*
X118775823Y-152621515D01*
X118720844Y-152408359D01*
X118702028Y-152273146D01*
X119460129Y-152273146D01*
X119505849Y-152500090D01*
X119596143Y-152702395D01*
X119724684Y-152858771D01*
X119857193Y-152938913D01*
X120025043Y-152966212D01*
X120211118Y-152947360D01*
X120347433Y-152896558D01*
X120508657Y-152750669D01*
X120612973Y-152539998D01*
X120657714Y-152270481D01*
X120659298Y-152202365D01*
X120628489Y-151932538D01*
X120537753Y-151725306D01*
X120389628Y-151583654D01*
X120186650Y-151510567D01*
X120062979Y-151500657D01*
X119852877Y-151540288D01*
X119668499Y-151649809D01*
X119536615Y-151812723D01*
X119527727Y-151830507D01*
X119465312Y-152042855D01*
X119460129Y-152273146D01*
X118702028Y-152273146D01*
X118682569Y-152133320D01*
X118661897Y-151822227D01*
X118659728Y-151500905D01*
X118676960Y-151195183D01*
X118714494Y-150930889D01*
X118716607Y-150920702D01*
X118843339Y-150490269D01*
X119027995Y-150118976D01*
X119267140Y-149811768D01*
X119557339Y-149573594D01*
X119713777Y-149485234D01*
X119858226Y-149417311D01*
X119976202Y-149374577D01*
X120096687Y-149351435D01*
X120248663Y-149342288D01*
X120457835Y-149341515D01*
X120662617Y-149347808D01*
G36*
X109028772Y-152836842D02*
G01*
X110588421Y-152836842D01*
X110588421Y-153505263D01*
X108226667Y-153505263D01*
X108226667Y-149405614D01*
X109028772Y-149405614D01*
X109028772Y-152836842D01*
X109028772Y-152836842D01*
G37*
X109028772Y-152836842D02*
X110588421Y-152836842D01*
X110588421Y-153505263D01*
X108226667Y-153505263D01*
X108226667Y-149405614D01*
X109028772Y-149405614D01*
X109028772Y-152836842D01*
G36*
X112838772Y-150497369D02*
G01*
X112851756Y-150867555D01*
X112856975Y-151047559D01*
X112854679Y-151153933D01*
X112841287Y-151202084D01*
X112813220Y-151207418D01*
X112776703Y-151190625D01*
X112620965Y-151148402D01*
X112432914Y-151154713D01*
X112252931Y-151206533D01*
X112201181Y-151233719D01*
X112103042Y-151303253D01*
X112026986Y-151385396D01*
X111970290Y-151491822D01*
X111930231Y-151634203D01*
X111904083Y-151824211D01*
X111889124Y-152073520D01*
X111882630Y-152393803D01*
X111881681Y-152602895D01*
X111880702Y-153505263D01*
X111078597Y-153505263D01*
X111078597Y-150564211D01*
X111880702Y-150564211D01*
X111882168Y-151032105D01*
X111981882Y-150853860D01*
X112125696Y-150679973D01*
X112322919Y-150552808D01*
X112544377Y-150488235D01*
X112660526Y-150484738D01*
X112838772Y-150497369D01*
X112838772Y-150497369D01*
G37*
X112838772Y-150497369D02*
X112851756Y-150867555D01*
X112856975Y-151047559D01*
X112854679Y-151153933D01*
X112841287Y-151202084D01*
X112813220Y-151207418D01*
X112776703Y-151190625D01*
X112620965Y-151148402D01*
X112432914Y-151154713D01*
X112252931Y-151206533D01*
X112201181Y-151233719D01*
X112103042Y-151303253D01*
X112026986Y-151385396D01*
X111970290Y-151491822D01*
X111930231Y-151634203D01*
X111904083Y-151824211D01*
X111889124Y-152073520D01*
X111882630Y-152393803D01*
X111881681Y-152602895D01*
X111880702Y-153505263D01*
X111078597Y-153505263D01*
X111078597Y-150564211D01*
X111880702Y-150564211D01*
X111882168Y-151032105D01*
X111981882Y-150853860D01*
X112125696Y-150679973D01*
X112322919Y-150552808D01*
X112544377Y-150488235D01*
X112660526Y-150484738D01*
X112838772Y-150497369D01*
G36*
X115668421Y-150074035D02*
G01*
X114197895Y-150074035D01*
X114197895Y-151098947D01*
X115579298Y-151098947D01*
X115579298Y-151767369D01*
X114197895Y-151767369D01*
X114197895Y-152836842D01*
X115757544Y-152836842D01*
X115757544Y-153505263D01*
X113395790Y-153505263D01*
X113395790Y-149405614D01*
X115668421Y-149405614D01*
X115668421Y-150074035D01*
X115668421Y-150074035D01*
G37*
X115668421Y-150074035D02*
X114197895Y-150074035D01*
X114197895Y-151098947D01*
X115579298Y-151098947D01*
X115579298Y-151767369D01*
X114197895Y-151767369D01*
X114197895Y-152836842D01*
X115757544Y-152836842D01*
X115757544Y-153505263D01*
X113395790Y-153505263D01*
X113395790Y-149405614D01*
X115668421Y-149405614D01*
X115668421Y-150074035D01*
G36*
X117941053Y-152168421D02*
G01*
X116381404Y-152168421D01*
X116381404Y-151633684D01*
X117941053Y-151633684D01*
X117941053Y-152168421D01*
X117941053Y-152168421D01*
G37*
X117941053Y-152168421D02*
X116381404Y-152168421D01*
X116381404Y-151633684D01*
X117941053Y-151633684D01*
X117941053Y-152168421D01*
D10*
X108579761Y-108459523D02*
X108627380Y-108316666D01*
X108627380Y-108078571D01*
X108579761Y-107983333D01*
X108532142Y-107935714D01*
X108436904Y-107888095D01*
X108341666Y-107888095D01*
X108246428Y-107935714D01*
X108198809Y-107983333D01*
X108151190Y-108078571D01*
X108103571Y-108269047D01*
X108055952Y-108364285D01*
X108008333Y-108411904D01*
X107913095Y-108459523D01*
X107817857Y-108459523D01*
X107722619Y-108411904D01*
X107675000Y-108364285D01*
X107627380Y-108269047D01*
X107627380Y-108030952D01*
X107675000Y-107888095D01*
X107627380Y-107554761D02*
X108627380Y-107316666D01*
X107913095Y-107126190D01*
X108627380Y-106935714D01*
X107627380Y-106697619D01*
X108627380Y-105792857D02*
X108627380Y-106364285D01*
X108627380Y-106078571D02*
X107627380Y-106078571D01*
X107770238Y-106173809D01*
X107865476Y-106269047D01*
X107913095Y-106364285D01*
X107627380Y-105459523D02*
X107627380Y-104840476D01*
X108008333Y-105173809D01*
X108008333Y-105030952D01*
X108055952Y-104935714D01*
X108103571Y-104888095D01*
X108198809Y-104840476D01*
X108436904Y-104840476D01*
X108532142Y-104888095D01*
X108579761Y-104935714D01*
X108627380Y-105030952D01*
X108627380Y-105316666D01*
X108579761Y-105411904D01*
X108532142Y-105459523D01*
X68504761Y-108359523D02*
X68552380Y-108216666D01*
X68552380Y-107978571D01*
X68504761Y-107883333D01*
X68457142Y-107835714D01*
X68361904Y-107788095D01*
X68266666Y-107788095D01*
X68171428Y-107835714D01*
X68123809Y-107883333D01*
X68076190Y-107978571D01*
X68028571Y-108169047D01*
X67980952Y-108264285D01*
X67933333Y-108311904D01*
X67838095Y-108359523D01*
X67742857Y-108359523D01*
X67647619Y-108311904D01*
X67600000Y-108264285D01*
X67552380Y-108169047D01*
X67552380Y-107930952D01*
X67600000Y-107788095D01*
X67552380Y-107454761D02*
X68552380Y-107216666D01*
X67838095Y-107026190D01*
X68552380Y-106835714D01*
X67552380Y-106597619D01*
X68552380Y-105692857D02*
X68552380Y-106264285D01*
X68552380Y-105978571D02*
X67552380Y-105978571D01*
X67695238Y-106073809D01*
X67790476Y-106169047D01*
X67838095Y-106264285D01*
X68552380Y-104740476D02*
X68552380Y-105311904D01*
X68552380Y-105026190D02*
X67552380Y-105026190D01*
X67695238Y-105121428D01*
X67790476Y-105216666D01*
X67838095Y-105311904D01*
X148524761Y-108409523D02*
X148572380Y-108266666D01*
X148572380Y-108028571D01*
X148524761Y-107933333D01*
X148477142Y-107885714D01*
X148381904Y-107838095D01*
X148286666Y-107838095D01*
X148191428Y-107885714D01*
X148143809Y-107933333D01*
X148096190Y-108028571D01*
X148048571Y-108219047D01*
X148000952Y-108314285D01*
X147953333Y-108361904D01*
X147858095Y-108409523D01*
X147762857Y-108409523D01*
X147667619Y-108361904D01*
X147620000Y-108314285D01*
X147572380Y-108219047D01*
X147572380Y-107980952D01*
X147620000Y-107838095D01*
X147572380Y-107504761D02*
X148572380Y-107266666D01*
X147858095Y-107076190D01*
X148572380Y-106885714D01*
X147572380Y-106647619D01*
X148572380Y-105742857D02*
X148572380Y-106314285D01*
X148572380Y-106028571D02*
X147572380Y-106028571D01*
X147715238Y-106123809D01*
X147810476Y-106219047D01*
X147858095Y-106314285D01*
X147572380Y-104838095D02*
X147572380Y-105314285D01*
X148048571Y-105361904D01*
X148000952Y-105314285D01*
X147953333Y-105219047D01*
X147953333Y-104980952D01*
X148000952Y-104885714D01*
X148048571Y-104838095D01*
X148143809Y-104790476D01*
X148381904Y-104790476D01*
X148477142Y-104838095D01*
X148524761Y-104885714D01*
X148572380Y-104980952D01*
X148572380Y-105219047D01*
X148524761Y-105314285D01*
X148477142Y-105361904D01*
X128494761Y-108329523D02*
X128542380Y-108186666D01*
X128542380Y-107948571D01*
X128494761Y-107853333D01*
X128447142Y-107805714D01*
X128351904Y-107758095D01*
X128256666Y-107758095D01*
X128161428Y-107805714D01*
X128113809Y-107853333D01*
X128066190Y-107948571D01*
X128018571Y-108139047D01*
X127970952Y-108234285D01*
X127923333Y-108281904D01*
X127828095Y-108329523D01*
X127732857Y-108329523D01*
X127637619Y-108281904D01*
X127590000Y-108234285D01*
X127542380Y-108139047D01*
X127542380Y-107900952D01*
X127590000Y-107758095D01*
X127542380Y-107424761D02*
X128542380Y-107186666D01*
X127828095Y-106996190D01*
X128542380Y-106805714D01*
X127542380Y-106567619D01*
X128542380Y-105662857D02*
X128542380Y-106234285D01*
X128542380Y-105948571D02*
X127542380Y-105948571D01*
X127685238Y-106043809D01*
X127780476Y-106139047D01*
X127828095Y-106234285D01*
X127875714Y-104805714D02*
X128542380Y-104805714D01*
X127494761Y-105043809D02*
X128209047Y-105281904D01*
X128209047Y-104662857D01*
X88529761Y-108459523D02*
X88577380Y-108316666D01*
X88577380Y-108078571D01*
X88529761Y-107983333D01*
X88482142Y-107935714D01*
X88386904Y-107888095D01*
X88291666Y-107888095D01*
X88196428Y-107935714D01*
X88148809Y-107983333D01*
X88101190Y-108078571D01*
X88053571Y-108269047D01*
X88005952Y-108364285D01*
X87958333Y-108411904D01*
X87863095Y-108459523D01*
X87767857Y-108459523D01*
X87672619Y-108411904D01*
X87625000Y-108364285D01*
X87577380Y-108269047D01*
X87577380Y-108030952D01*
X87625000Y-107888095D01*
X87577380Y-107554761D02*
X88577380Y-107316666D01*
X87863095Y-107126190D01*
X88577380Y-106935714D01*
X87577380Y-106697619D01*
X88577380Y-105792857D02*
X88577380Y-106364285D01*
X88577380Y-106078571D02*
X87577380Y-106078571D01*
X87720238Y-106173809D01*
X87815476Y-106269047D01*
X87863095Y-106364285D01*
X87672619Y-105411904D02*
X87625000Y-105364285D01*
X87577380Y-105269047D01*
X87577380Y-105030952D01*
X87625000Y-104935714D01*
X87672619Y-104888095D01*
X87767857Y-104840476D01*
X87863095Y-104840476D01*
X88005952Y-104888095D01*
X88577380Y-105459523D01*
X88577380Y-104840476D01*
X68529761Y-138709523D02*
X68577380Y-138566666D01*
X68577380Y-138328571D01*
X68529761Y-138233333D01*
X68482142Y-138185714D01*
X68386904Y-138138095D01*
X68291666Y-138138095D01*
X68196428Y-138185714D01*
X68148809Y-138233333D01*
X68101190Y-138328571D01*
X68053571Y-138519047D01*
X68005952Y-138614285D01*
X67958333Y-138661904D01*
X67863095Y-138709523D01*
X67767857Y-138709523D01*
X67672619Y-138661904D01*
X67625000Y-138614285D01*
X67577380Y-138519047D01*
X67577380Y-138280952D01*
X67625000Y-138138095D01*
X67577380Y-137804761D02*
X68577380Y-137566666D01*
X67863095Y-137376190D01*
X68577380Y-137185714D01*
X67577380Y-136947619D01*
X68577380Y-136042857D02*
X68577380Y-136614285D01*
X68577380Y-136328571D02*
X67577380Y-136328571D01*
X67720238Y-136423809D01*
X67815476Y-136519047D01*
X67863095Y-136614285D01*
X67577380Y-135185714D02*
X67577380Y-135376190D01*
X67625000Y-135471428D01*
X67672619Y-135519047D01*
X67815476Y-135614285D01*
X68005952Y-135661904D01*
X68386904Y-135661904D01*
X68482142Y-135614285D01*
X68529761Y-135566666D01*
X68577380Y-135471428D01*
X68577380Y-135280952D01*
X68529761Y-135185714D01*
X68482142Y-135138095D01*
X68386904Y-135090476D01*
X68148809Y-135090476D01*
X68053571Y-135138095D01*
X68005952Y-135185714D01*
X67958333Y-135280952D01*
X67958333Y-135471428D01*
X68005952Y-135566666D01*
X68053571Y-135614285D01*
X68148809Y-135661904D01*
X157035714Y-92002380D02*
X157035714Y-91002380D01*
X157273809Y-91002380D01*
X157416666Y-91050000D01*
X157511904Y-91145238D01*
X157559523Y-91240476D01*
X157607142Y-91430952D01*
X157607142Y-91573809D01*
X157559523Y-91764285D01*
X157511904Y-91859523D01*
X157416666Y-91954761D01*
X157273809Y-92002380D01*
X157035714Y-92002380D01*
X158559523Y-92002380D02*
X157988095Y-92002380D01*
X158273809Y-92002380D02*
X158273809Y-91002380D01*
X158178571Y-91145238D01*
X158083333Y-91240476D01*
X157988095Y-91288095D01*
X159464285Y-91002380D02*
X158988095Y-91002380D01*
X158940476Y-91478571D01*
X158988095Y-91430952D01*
X159083333Y-91383333D01*
X159321428Y-91383333D01*
X159416666Y-91430952D01*
X159464285Y-91478571D01*
X159511904Y-91573809D01*
X159511904Y-91811904D01*
X159464285Y-91907142D01*
X159416666Y-91954761D01*
X159321428Y-92002380D01*
X159083333Y-92002380D01*
X158988095Y-91954761D01*
X158940476Y-91907142D01*
X123435714Y-95102380D02*
X123435714Y-94102380D01*
X123673809Y-94102380D01*
X123816666Y-94150000D01*
X123911904Y-94245238D01*
X123959523Y-94340476D01*
X124007142Y-94530952D01*
X124007142Y-94673809D01*
X123959523Y-94864285D01*
X123911904Y-94959523D01*
X123816666Y-95054761D01*
X123673809Y-95102380D01*
X123435714Y-95102380D01*
X124959523Y-95102380D02*
X124388095Y-95102380D01*
X124673809Y-95102380D02*
X124673809Y-94102380D01*
X124578571Y-94245238D01*
X124483333Y-94340476D01*
X124388095Y-94388095D01*
X125816666Y-94435714D02*
X125816666Y-95102380D01*
X125578571Y-94054761D02*
X125340476Y-94769047D01*
X125959523Y-94769047D01*
X87285714Y-92852380D02*
X87285714Y-91852380D01*
X87523809Y-91852380D01*
X87666666Y-91900000D01*
X87761904Y-91995238D01*
X87809523Y-92090476D01*
X87857142Y-92280952D01*
X87857142Y-92423809D01*
X87809523Y-92614285D01*
X87761904Y-92709523D01*
X87666666Y-92804761D01*
X87523809Y-92852380D01*
X87285714Y-92852380D01*
X88809523Y-92852380D02*
X88238095Y-92852380D01*
X88523809Y-92852380D02*
X88523809Y-91852380D01*
X88428571Y-91995238D01*
X88333333Y-92090476D01*
X88238095Y-92138095D01*
X89190476Y-91947619D02*
X89238095Y-91900000D01*
X89333333Y-91852380D01*
X89571428Y-91852380D01*
X89666666Y-91900000D01*
X89714285Y-91947619D01*
X89761904Y-92042857D01*
X89761904Y-92138095D01*
X89714285Y-92280952D01*
X89142857Y-92852380D01*
X89761904Y-92852380D01*
X68452380Y-94014285D02*
X67452380Y-94014285D01*
X67452380Y-93776190D01*
X67500000Y-93633333D01*
X67595238Y-93538095D01*
X67690476Y-93490476D01*
X67880952Y-93442857D01*
X68023809Y-93442857D01*
X68214285Y-93490476D01*
X68309523Y-93538095D01*
X68404761Y-93633333D01*
X68452380Y-93776190D01*
X68452380Y-94014285D01*
X68452380Y-92490476D02*
X68452380Y-93061904D01*
X68452380Y-92776190D02*
X67452380Y-92776190D01*
X67595238Y-92871428D01*
X67690476Y-92966666D01*
X67738095Y-93061904D01*
X68452380Y-91538095D02*
X68452380Y-92109523D01*
X68452380Y-91823809D02*
X67452380Y-91823809D01*
X67595238Y-91919047D01*
X67690476Y-92014285D01*
X67738095Y-92109523D01*
X108810714Y-92577380D02*
X108810714Y-91577380D01*
X109048809Y-91577380D01*
X109191666Y-91625000D01*
X109286904Y-91720238D01*
X109334523Y-91815476D01*
X109382142Y-92005952D01*
X109382142Y-92148809D01*
X109334523Y-92339285D01*
X109286904Y-92434523D01*
X109191666Y-92529761D01*
X109048809Y-92577380D01*
X108810714Y-92577380D01*
X110334523Y-92577380D02*
X109763095Y-92577380D01*
X110048809Y-92577380D02*
X110048809Y-91577380D01*
X109953571Y-91720238D01*
X109858333Y-91815476D01*
X109763095Y-91863095D01*
X110667857Y-91577380D02*
X111286904Y-91577380D01*
X110953571Y-91958333D01*
X111096428Y-91958333D01*
X111191666Y-92005952D01*
X111239285Y-92053571D01*
X111286904Y-92148809D01*
X111286904Y-92386904D01*
X111239285Y-92482142D01*
X111191666Y-92529761D01*
X111096428Y-92577380D01*
X110810714Y-92577380D01*
X110715476Y-92529761D01*
X110667857Y-92482142D01*
X68612380Y-124164285D02*
X67612380Y-124164285D01*
X67612380Y-123926190D01*
X67660000Y-123783333D01*
X67755238Y-123688095D01*
X67850476Y-123640476D01*
X68040952Y-123592857D01*
X68183809Y-123592857D01*
X68374285Y-123640476D01*
X68469523Y-123688095D01*
X68564761Y-123783333D01*
X68612380Y-123926190D01*
X68612380Y-124164285D01*
X68612380Y-122640476D02*
X68612380Y-123211904D01*
X68612380Y-122926190D02*
X67612380Y-122926190D01*
X67755238Y-123021428D01*
X67850476Y-123116666D01*
X67898095Y-123211904D01*
X67612380Y-121783333D02*
X67612380Y-121973809D01*
X67660000Y-122069047D01*
X67707619Y-122116666D01*
X67850476Y-122211904D01*
X68040952Y-122259523D01*
X68421904Y-122259523D01*
X68517142Y-122211904D01*
X68564761Y-122164285D01*
X68612380Y-122069047D01*
X68612380Y-121878571D01*
X68564761Y-121783333D01*
X68517142Y-121735714D01*
X68421904Y-121688095D01*
X68183809Y-121688095D01*
X68088571Y-121735714D01*
X68040952Y-121783333D01*
X67993333Y-121878571D01*
X67993333Y-122069047D01*
X68040952Y-122164285D01*
X68088571Y-122211904D01*
X68183809Y-122259523D01*
X86458333Y-110952380D02*
X86125000Y-110476190D01*
X85886904Y-110952380D02*
X85886904Y-109952380D01*
X86267857Y-109952380D01*
X86363095Y-110000000D01*
X86410714Y-110047619D01*
X86458333Y-110142857D01*
X86458333Y-110285714D01*
X86410714Y-110380952D01*
X86363095Y-110428571D01*
X86267857Y-110476190D01*
X85886904Y-110476190D01*
X86791666Y-109952380D02*
X87458333Y-109952380D01*
X87029761Y-110952380D01*
X139638095Y-78052380D02*
X139638095Y-78861904D01*
X139685714Y-78957142D01*
X139733333Y-79004761D01*
X139828571Y-79052380D01*
X140019047Y-79052380D01*
X140114285Y-79004761D01*
X140161904Y-78957142D01*
X140209523Y-78861904D01*
X140209523Y-78052380D01*
X140638095Y-78147619D02*
X140685714Y-78100000D01*
X140780952Y-78052380D01*
X141019047Y-78052380D01*
X141114285Y-78100000D01*
X141161904Y-78147619D01*
X141209523Y-78242857D01*
X141209523Y-78338095D01*
X141161904Y-78480952D01*
X140590476Y-79052380D01*
X141209523Y-79052380D01*
X124007142Y-71577380D02*
X123673809Y-71101190D01*
X123435714Y-71577380D02*
X123435714Y-70577380D01*
X123816666Y-70577380D01*
X123911904Y-70625000D01*
X123959523Y-70672619D01*
X124007142Y-70767857D01*
X124007142Y-70910714D01*
X123959523Y-71005952D01*
X123911904Y-71053571D01*
X123816666Y-71101190D01*
X123435714Y-71101190D01*
X124340476Y-70577380D02*
X124959523Y-70577380D01*
X124626190Y-70958333D01*
X124769047Y-70958333D01*
X124864285Y-71005952D01*
X124911904Y-71053571D01*
X124959523Y-71148809D01*
X124959523Y-71386904D01*
X124911904Y-71482142D01*
X124864285Y-71529761D01*
X124769047Y-71577380D01*
X124483333Y-71577380D01*
X124388095Y-71529761D01*
X124340476Y-71482142D01*
X125292857Y-70577380D02*
X125959523Y-70577380D01*
X125530952Y-71577380D01*
X124032142Y-69802380D02*
X123698809Y-69326190D01*
X123460714Y-69802380D02*
X123460714Y-68802380D01*
X123841666Y-68802380D01*
X123936904Y-68850000D01*
X123984523Y-68897619D01*
X124032142Y-68992857D01*
X124032142Y-69135714D01*
X123984523Y-69230952D01*
X123936904Y-69278571D01*
X123841666Y-69326190D01*
X123460714Y-69326190D01*
X124365476Y-68802380D02*
X124984523Y-68802380D01*
X124651190Y-69183333D01*
X124794047Y-69183333D01*
X124889285Y-69230952D01*
X124936904Y-69278571D01*
X124984523Y-69373809D01*
X124984523Y-69611904D01*
X124936904Y-69707142D01*
X124889285Y-69754761D01*
X124794047Y-69802380D01*
X124508333Y-69802380D01*
X124413095Y-69754761D01*
X124365476Y-69707142D01*
X125841666Y-68802380D02*
X125651190Y-68802380D01*
X125555952Y-68850000D01*
X125508333Y-68897619D01*
X125413095Y-69040476D01*
X125365476Y-69230952D01*
X125365476Y-69611904D01*
X125413095Y-69707142D01*
X125460714Y-69754761D01*
X125555952Y-69802380D01*
X125746428Y-69802380D01*
X125841666Y-69754761D01*
X125889285Y-69707142D01*
X125936904Y-69611904D01*
X125936904Y-69373809D01*
X125889285Y-69278571D01*
X125841666Y-69230952D01*
X125746428Y-69183333D01*
X125555952Y-69183333D01*
X125460714Y-69230952D01*
X125413095Y-69278571D01*
X125365476Y-69373809D01*
X75590495Y-62190380D02*
X75590495Y-62999904D01*
X75638114Y-63095142D01*
X75685733Y-63142761D01*
X75780971Y-63190380D01*
X75971447Y-63190380D01*
X76066685Y-63142761D01*
X76114304Y-63095142D01*
X76161923Y-62999904D01*
X76161923Y-62190380D01*
X76542876Y-62190380D02*
X77161923Y-62190380D01*
X76828590Y-62571333D01*
X76971447Y-62571333D01*
X77066685Y-62618952D01*
X77114304Y-62666571D01*
X77161923Y-62761809D01*
X77161923Y-62999904D01*
X77114304Y-63095142D01*
X77066685Y-63142761D01*
X76971447Y-63190380D01*
X76685733Y-63190380D01*
X76590495Y-63142761D01*
X76542876Y-63095142D01*
X84557142Y-152652380D02*
X84223809Y-152176190D01*
X83985714Y-152652380D02*
X83985714Y-151652380D01*
X84366666Y-151652380D01*
X84461904Y-151700000D01*
X84509523Y-151747619D01*
X84557142Y-151842857D01*
X84557142Y-151985714D01*
X84509523Y-152080952D01*
X84461904Y-152128571D01*
X84366666Y-152176190D01*
X83985714Y-152176190D01*
X84938095Y-151747619D02*
X84985714Y-151700000D01*
X85080952Y-151652380D01*
X85319047Y-151652380D01*
X85414285Y-151700000D01*
X85461904Y-151747619D01*
X85509523Y-151842857D01*
X85509523Y-151938095D01*
X85461904Y-152080952D01*
X84890476Y-152652380D01*
X85509523Y-152652380D01*
X86461904Y-152652380D02*
X85890476Y-152652380D01*
X86176190Y-152652380D02*
X86176190Y-151652380D01*
X86080952Y-151795238D01*
X85985714Y-151890476D01*
X85890476Y-151938095D01*
X89047619Y-147195238D02*
X89000000Y-147290476D01*
X88904761Y-147385714D01*
X88761904Y-147528571D01*
X88714285Y-147623809D01*
X88714285Y-147719047D01*
X88952380Y-147671428D02*
X88904761Y-147766666D01*
X88809523Y-147861904D01*
X88619047Y-147909523D01*
X88285714Y-147909523D01*
X88095238Y-147861904D01*
X88000000Y-147766666D01*
X87952380Y-147671428D01*
X87952380Y-147480952D01*
X88000000Y-147385714D01*
X88095238Y-147290476D01*
X88285714Y-147242857D01*
X88619047Y-147242857D01*
X88809523Y-147290476D01*
X88904761Y-147385714D01*
X88952380Y-147480952D01*
X88952380Y-147671428D01*
X88952380Y-146290476D02*
X88952380Y-146861904D01*
X88952380Y-146576190D02*
X87952380Y-146576190D01*
X88095238Y-146671428D01*
X88190476Y-146766666D01*
X88238095Y-146861904D01*
X153835714Y-113327380D02*
X153835714Y-112327380D01*
X154073809Y-112327380D01*
X154216666Y-112375000D01*
X154311904Y-112470238D01*
X154359523Y-112565476D01*
X154407142Y-112755952D01*
X154407142Y-112898809D01*
X154359523Y-113089285D01*
X154311904Y-113184523D01*
X154216666Y-113279761D01*
X154073809Y-113327380D01*
X153835714Y-113327380D01*
X154740476Y-112327380D02*
X155359523Y-112327380D01*
X155026190Y-112708333D01*
X155169047Y-112708333D01*
X155264285Y-112755952D01*
X155311904Y-112803571D01*
X155359523Y-112898809D01*
X155359523Y-113136904D01*
X155311904Y-113232142D01*
X155264285Y-113279761D01*
X155169047Y-113327380D01*
X154883333Y-113327380D01*
X154788095Y-113279761D01*
X154740476Y-113232142D01*
X156216666Y-112327380D02*
X156026190Y-112327380D01*
X155930952Y-112375000D01*
X155883333Y-112422619D01*
X155788095Y-112565476D01*
X155740476Y-112755952D01*
X155740476Y-113136904D01*
X155788095Y-113232142D01*
X155835714Y-113279761D01*
X155930952Y-113327380D01*
X156121428Y-113327380D01*
X156216666Y-113279761D01*
X156264285Y-113232142D01*
X156311904Y-113136904D01*
X156311904Y-112898809D01*
X156264285Y-112803571D01*
X156216666Y-112755952D01*
X156121428Y-112708333D01*
X155930952Y-112708333D01*
X155835714Y-112755952D01*
X155788095Y-112803571D01*
X155740476Y-112898809D01*
X133935714Y-113752380D02*
X133935714Y-112752380D01*
X134173809Y-112752380D01*
X134316666Y-112800000D01*
X134411904Y-112895238D01*
X134459523Y-112990476D01*
X134507142Y-113180952D01*
X134507142Y-113323809D01*
X134459523Y-113514285D01*
X134411904Y-113609523D01*
X134316666Y-113704761D01*
X134173809Y-113752380D01*
X133935714Y-113752380D01*
X134840476Y-112752380D02*
X135459523Y-112752380D01*
X135126190Y-113133333D01*
X135269047Y-113133333D01*
X135364285Y-113180952D01*
X135411904Y-113228571D01*
X135459523Y-113323809D01*
X135459523Y-113561904D01*
X135411904Y-113657142D01*
X135364285Y-113704761D01*
X135269047Y-113752380D01*
X134983333Y-113752380D01*
X134888095Y-113704761D01*
X134840476Y-113657142D01*
X136364285Y-112752380D02*
X135888095Y-112752380D01*
X135840476Y-113228571D01*
X135888095Y-113180952D01*
X135983333Y-113133333D01*
X136221428Y-113133333D01*
X136316666Y-113180952D01*
X136364285Y-113228571D01*
X136411904Y-113323809D01*
X136411904Y-113561904D01*
X136364285Y-113657142D01*
X136316666Y-113704761D01*
X136221428Y-113752380D01*
X135983333Y-113752380D01*
X135888095Y-113704761D01*
X135840476Y-113657142D01*
X113860714Y-113752380D02*
X113860714Y-112752380D01*
X114098809Y-112752380D01*
X114241666Y-112800000D01*
X114336904Y-112895238D01*
X114384523Y-112990476D01*
X114432142Y-113180952D01*
X114432142Y-113323809D01*
X114384523Y-113514285D01*
X114336904Y-113609523D01*
X114241666Y-113704761D01*
X114098809Y-113752380D01*
X113860714Y-113752380D01*
X114765476Y-112752380D02*
X115384523Y-112752380D01*
X115051190Y-113133333D01*
X115194047Y-113133333D01*
X115289285Y-113180952D01*
X115336904Y-113228571D01*
X115384523Y-113323809D01*
X115384523Y-113561904D01*
X115336904Y-113657142D01*
X115289285Y-113704761D01*
X115194047Y-113752380D01*
X114908333Y-113752380D01*
X114813095Y-113704761D01*
X114765476Y-113657142D01*
X116241666Y-113085714D02*
X116241666Y-113752380D01*
X116003571Y-112704761D02*
X115765476Y-113419047D01*
X116384523Y-113419047D01*
X93810714Y-114027380D02*
X93810714Y-113027380D01*
X94048809Y-113027380D01*
X94191666Y-113075000D01*
X94286904Y-113170238D01*
X94334523Y-113265476D01*
X94382142Y-113455952D01*
X94382142Y-113598809D01*
X94334523Y-113789285D01*
X94286904Y-113884523D01*
X94191666Y-113979761D01*
X94048809Y-114027380D01*
X93810714Y-114027380D01*
X94715476Y-113027380D02*
X95334523Y-113027380D01*
X95001190Y-113408333D01*
X95144047Y-113408333D01*
X95239285Y-113455952D01*
X95286904Y-113503571D01*
X95334523Y-113598809D01*
X95334523Y-113836904D01*
X95286904Y-113932142D01*
X95239285Y-113979761D01*
X95144047Y-114027380D01*
X94858333Y-114027380D01*
X94763095Y-113979761D01*
X94715476Y-113932142D01*
X95667857Y-113027380D02*
X96286904Y-113027380D01*
X95953571Y-113408333D01*
X96096428Y-113408333D01*
X96191666Y-113455952D01*
X96239285Y-113503571D01*
X96286904Y-113598809D01*
X96286904Y-113836904D01*
X96239285Y-113932142D01*
X96191666Y-113979761D01*
X96096428Y-114027380D01*
X95810714Y-114027380D01*
X95715476Y-113979761D01*
X95667857Y-113932142D01*
X73860714Y-114052380D02*
X73860714Y-113052380D01*
X74098809Y-113052380D01*
X74241666Y-113100000D01*
X74336904Y-113195238D01*
X74384523Y-113290476D01*
X74432142Y-113480952D01*
X74432142Y-113623809D01*
X74384523Y-113814285D01*
X74336904Y-113909523D01*
X74241666Y-114004761D01*
X74098809Y-114052380D01*
X73860714Y-114052380D01*
X74765476Y-113052380D02*
X75384523Y-113052380D01*
X75051190Y-113433333D01*
X75194047Y-113433333D01*
X75289285Y-113480952D01*
X75336904Y-113528571D01*
X75384523Y-113623809D01*
X75384523Y-113861904D01*
X75336904Y-113957142D01*
X75289285Y-114004761D01*
X75194047Y-114052380D01*
X74908333Y-114052380D01*
X74813095Y-114004761D01*
X74765476Y-113957142D01*
X75765476Y-113147619D02*
X75813095Y-113100000D01*
X75908333Y-113052380D01*
X76146428Y-113052380D01*
X76241666Y-113100000D01*
X76289285Y-113147619D01*
X76336904Y-113242857D01*
X76336904Y-113338095D01*
X76289285Y-113480952D01*
X75717857Y-114052380D01*
X76336904Y-114052380D01*
X74035714Y-142877380D02*
X74035714Y-141877380D01*
X74273809Y-141877380D01*
X74416666Y-141925000D01*
X74511904Y-142020238D01*
X74559523Y-142115476D01*
X74607142Y-142305952D01*
X74607142Y-142448809D01*
X74559523Y-142639285D01*
X74511904Y-142734523D01*
X74416666Y-142829761D01*
X74273809Y-142877380D01*
X74035714Y-142877380D01*
X74940476Y-141877380D02*
X75559523Y-141877380D01*
X75226190Y-142258333D01*
X75369047Y-142258333D01*
X75464285Y-142305952D01*
X75511904Y-142353571D01*
X75559523Y-142448809D01*
X75559523Y-142686904D01*
X75511904Y-142782142D01*
X75464285Y-142829761D01*
X75369047Y-142877380D01*
X75083333Y-142877380D01*
X74988095Y-142829761D01*
X74940476Y-142782142D01*
X76511904Y-142877380D02*
X75940476Y-142877380D01*
X76226190Y-142877380D02*
X76226190Y-141877380D01*
X76130952Y-142020238D01*
X76035714Y-142115476D01*
X75940476Y-142163095D01*
X157637242Y-117692442D02*
X157589623Y-117740061D01*
X157446766Y-117787680D01*
X157351528Y-117787680D01*
X157208671Y-117740061D01*
X157113433Y-117644823D01*
X157065814Y-117549585D01*
X157018195Y-117359109D01*
X157018195Y-117216252D01*
X157065814Y-117025776D01*
X157113433Y-116930538D01*
X157208671Y-116835300D01*
X157351528Y-116787680D01*
X157446766Y-116787680D01*
X157589623Y-116835300D01*
X157637242Y-116882919D01*
X157970576Y-116787680D02*
X158589623Y-116787680D01*
X158256290Y-117168633D01*
X158399147Y-117168633D01*
X158494385Y-117216252D01*
X158542004Y-117263871D01*
X158589623Y-117359109D01*
X158589623Y-117597204D01*
X158542004Y-117692442D01*
X158494385Y-117740061D01*
X158399147Y-117787680D01*
X158113433Y-117787680D01*
X158018195Y-117740061D01*
X157970576Y-117692442D01*
X159446766Y-116787680D02*
X159256290Y-116787680D01*
X159161052Y-116835300D01*
X159113433Y-116882919D01*
X159018195Y-117025776D01*
X158970576Y-117216252D01*
X158970576Y-117597204D01*
X159018195Y-117692442D01*
X159065814Y-117740061D01*
X159161052Y-117787680D01*
X159351528Y-117787680D01*
X159446766Y-117740061D01*
X159494385Y-117692442D01*
X159542004Y-117597204D01*
X159542004Y-117359109D01*
X159494385Y-117263871D01*
X159446766Y-117216252D01*
X159351528Y-117168633D01*
X159161052Y-117168633D01*
X159065814Y-117216252D01*
X159018195Y-117263871D01*
X158970576Y-117359109D01*
X137457142Y-118257142D02*
X137409523Y-118304761D01*
X137266666Y-118352380D01*
X137171428Y-118352380D01*
X137028571Y-118304761D01*
X136933333Y-118209523D01*
X136885714Y-118114285D01*
X136838095Y-117923809D01*
X136838095Y-117780952D01*
X136885714Y-117590476D01*
X136933333Y-117495238D01*
X137028571Y-117400000D01*
X137171428Y-117352380D01*
X137266666Y-117352380D01*
X137409523Y-117400000D01*
X137457142Y-117447619D01*
X137790476Y-117352380D02*
X138409523Y-117352380D01*
X138076190Y-117733333D01*
X138219047Y-117733333D01*
X138314285Y-117780952D01*
X138361904Y-117828571D01*
X138409523Y-117923809D01*
X138409523Y-118161904D01*
X138361904Y-118257142D01*
X138314285Y-118304761D01*
X138219047Y-118352380D01*
X137933333Y-118352380D01*
X137838095Y-118304761D01*
X137790476Y-118257142D01*
X139314285Y-117352380D02*
X138838095Y-117352380D01*
X138790476Y-117828571D01*
X138838095Y-117780952D01*
X138933333Y-117733333D01*
X139171428Y-117733333D01*
X139266666Y-117780952D01*
X139314285Y-117828571D01*
X139361904Y-117923809D01*
X139361904Y-118161904D01*
X139314285Y-118257142D01*
X139266666Y-118304761D01*
X139171428Y-118352380D01*
X138933333Y-118352380D01*
X138838095Y-118304761D01*
X138790476Y-118257142D01*
X117407142Y-118282142D02*
X117359523Y-118329761D01*
X117216666Y-118377380D01*
X117121428Y-118377380D01*
X116978571Y-118329761D01*
X116883333Y-118234523D01*
X116835714Y-118139285D01*
X116788095Y-117948809D01*
X116788095Y-117805952D01*
X116835714Y-117615476D01*
X116883333Y-117520238D01*
X116978571Y-117425000D01*
X117121428Y-117377380D01*
X117216666Y-117377380D01*
X117359523Y-117425000D01*
X117407142Y-117472619D01*
X117740476Y-117377380D02*
X118359523Y-117377380D01*
X118026190Y-117758333D01*
X118169047Y-117758333D01*
X118264285Y-117805952D01*
X118311904Y-117853571D01*
X118359523Y-117948809D01*
X118359523Y-118186904D01*
X118311904Y-118282142D01*
X118264285Y-118329761D01*
X118169047Y-118377380D01*
X117883333Y-118377380D01*
X117788095Y-118329761D01*
X117740476Y-118282142D01*
X119216666Y-117710714D02*
X119216666Y-118377380D01*
X118978571Y-117329761D02*
X118740476Y-118044047D01*
X119359523Y-118044047D01*
X97657142Y-118457142D02*
X97609523Y-118504761D01*
X97466666Y-118552380D01*
X97371428Y-118552380D01*
X97228571Y-118504761D01*
X97133333Y-118409523D01*
X97085714Y-118314285D01*
X97038095Y-118123809D01*
X97038095Y-117980952D01*
X97085714Y-117790476D01*
X97133333Y-117695238D01*
X97228571Y-117600000D01*
X97371428Y-117552380D01*
X97466666Y-117552380D01*
X97609523Y-117600000D01*
X97657142Y-117647619D01*
X97990476Y-117552380D02*
X98609523Y-117552380D01*
X98276190Y-117933333D01*
X98419047Y-117933333D01*
X98514285Y-117980952D01*
X98561904Y-118028571D01*
X98609523Y-118123809D01*
X98609523Y-118361904D01*
X98561904Y-118457142D01*
X98514285Y-118504761D01*
X98419047Y-118552380D01*
X98133333Y-118552380D01*
X98038095Y-118504761D01*
X97990476Y-118457142D01*
X98942857Y-117552380D02*
X99561904Y-117552380D01*
X99228571Y-117933333D01*
X99371428Y-117933333D01*
X99466666Y-117980952D01*
X99514285Y-118028571D01*
X99561904Y-118123809D01*
X99561904Y-118361904D01*
X99514285Y-118457142D01*
X99466666Y-118504761D01*
X99371428Y-118552380D01*
X99085714Y-118552380D01*
X98990476Y-118504761D01*
X98942857Y-118457142D01*
X77507142Y-118207142D02*
X77459523Y-118254761D01*
X77316666Y-118302380D01*
X77221428Y-118302380D01*
X77078571Y-118254761D01*
X76983333Y-118159523D01*
X76935714Y-118064285D01*
X76888095Y-117873809D01*
X76888095Y-117730952D01*
X76935714Y-117540476D01*
X76983333Y-117445238D01*
X77078571Y-117350000D01*
X77221428Y-117302380D01*
X77316666Y-117302380D01*
X77459523Y-117350000D01*
X77507142Y-117397619D01*
X77840476Y-117302380D02*
X78459523Y-117302380D01*
X78126190Y-117683333D01*
X78269047Y-117683333D01*
X78364285Y-117730952D01*
X78411904Y-117778571D01*
X78459523Y-117873809D01*
X78459523Y-118111904D01*
X78411904Y-118207142D01*
X78364285Y-118254761D01*
X78269047Y-118302380D01*
X77983333Y-118302380D01*
X77888095Y-118254761D01*
X77840476Y-118207142D01*
X78840476Y-117397619D02*
X78888095Y-117350000D01*
X78983333Y-117302380D01*
X79221428Y-117302380D01*
X79316666Y-117350000D01*
X79364285Y-117397619D01*
X79411904Y-117492857D01*
X79411904Y-117588095D01*
X79364285Y-117730952D01*
X78792857Y-118302380D01*
X79411904Y-118302380D01*
X77657142Y-147357142D02*
X77609523Y-147404761D01*
X77466666Y-147452380D01*
X77371428Y-147452380D01*
X77228571Y-147404761D01*
X77133333Y-147309523D01*
X77085714Y-147214285D01*
X77038095Y-147023809D01*
X77038095Y-146880952D01*
X77085714Y-146690476D01*
X77133333Y-146595238D01*
X77228571Y-146500000D01*
X77371428Y-146452380D01*
X77466666Y-146452380D01*
X77609523Y-146500000D01*
X77657142Y-146547619D01*
X77990476Y-146452380D02*
X78609523Y-146452380D01*
X78276190Y-146833333D01*
X78419047Y-146833333D01*
X78514285Y-146880952D01*
X78561904Y-146928571D01*
X78609523Y-147023809D01*
X78609523Y-147261904D01*
X78561904Y-147357142D01*
X78514285Y-147404761D01*
X78419047Y-147452380D01*
X78133333Y-147452380D01*
X78038095Y-147404761D01*
X77990476Y-147357142D01*
X79561904Y-147452380D02*
X78990476Y-147452380D01*
X79276190Y-147452380D02*
X79276190Y-146452380D01*
X79180952Y-146595238D01*
X79085714Y-146690476D01*
X78990476Y-146738095D01*
X82983333Y-111002380D02*
X82650000Y-110526190D01*
X82411904Y-111002380D02*
X82411904Y-110002380D01*
X82792857Y-110002380D01*
X82888095Y-110050000D01*
X82935714Y-110097619D01*
X82983333Y-110192857D01*
X82983333Y-110335714D01*
X82935714Y-110430952D01*
X82888095Y-110478571D01*
X82792857Y-110526190D01*
X82411904Y-110526190D01*
X83840476Y-110002380D02*
X83650000Y-110002380D01*
X83554761Y-110050000D01*
X83507142Y-110097619D01*
X83411904Y-110240476D01*
X83364285Y-110430952D01*
X83364285Y-110811904D01*
X83411904Y-110907142D01*
X83459523Y-110954761D01*
X83554761Y-111002380D01*
X83745238Y-111002380D01*
X83840476Y-110954761D01*
X83888095Y-110907142D01*
X83935714Y-110811904D01*
X83935714Y-110573809D01*
X83888095Y-110478571D01*
X83840476Y-110430952D01*
X83745238Y-110383333D01*
X83554761Y-110383333D01*
X83459523Y-110430952D01*
X83411904Y-110478571D01*
X83364285Y-110573809D01*
X142655714Y-110982380D02*
X142389047Y-110506190D01*
X142198571Y-110982380D02*
X142198571Y-109982380D01*
X142503333Y-109982380D01*
X142579523Y-110030000D01*
X142617619Y-110077619D01*
X142655714Y-110172857D01*
X142655714Y-110315714D01*
X142617619Y-110410952D01*
X142579523Y-110458571D01*
X142503333Y-110506190D01*
X142198571Y-110506190D01*
X143417619Y-110982380D02*
X142960476Y-110982380D01*
X143189047Y-110982380D02*
X143189047Y-109982380D01*
X143112857Y-110125238D01*
X143036666Y-110220476D01*
X142960476Y-110268095D01*
X143722380Y-110077619D02*
X143760476Y-110030000D01*
X143836666Y-109982380D01*
X144027142Y-109982380D01*
X144103333Y-110030000D01*
X144141428Y-110077619D01*
X144179523Y-110172857D01*
X144179523Y-110268095D01*
X144141428Y-110410952D01*
X143684285Y-110982380D01*
X144179523Y-110982380D01*
X102953333Y-111102380D02*
X102620000Y-110626190D01*
X102381904Y-111102380D02*
X102381904Y-110102380D01*
X102762857Y-110102380D01*
X102858095Y-110150000D01*
X102905714Y-110197619D01*
X102953333Y-110292857D01*
X102953333Y-110435714D01*
X102905714Y-110530952D01*
X102858095Y-110578571D01*
X102762857Y-110626190D01*
X102381904Y-110626190D01*
X103524761Y-110530952D02*
X103429523Y-110483333D01*
X103381904Y-110435714D01*
X103334285Y-110340476D01*
X103334285Y-110292857D01*
X103381904Y-110197619D01*
X103429523Y-110150000D01*
X103524761Y-110102380D01*
X103715238Y-110102380D01*
X103810476Y-110150000D01*
X103858095Y-110197619D01*
X103905714Y-110292857D01*
X103905714Y-110340476D01*
X103858095Y-110435714D01*
X103810476Y-110483333D01*
X103715238Y-110530952D01*
X103524761Y-110530952D01*
X103429523Y-110578571D01*
X103381904Y-110626190D01*
X103334285Y-110721428D01*
X103334285Y-110911904D01*
X103381904Y-111007142D01*
X103429523Y-111054761D01*
X103524761Y-111102380D01*
X103715238Y-111102380D01*
X103810476Y-111054761D01*
X103858095Y-111007142D01*
X103905714Y-110911904D01*
X103905714Y-110721428D01*
X103858095Y-110626190D01*
X103810476Y-110578571D01*
X103715238Y-110530952D01*
X106658333Y-111052380D02*
X106325000Y-110576190D01*
X106086904Y-111052380D02*
X106086904Y-110052380D01*
X106467857Y-110052380D01*
X106563095Y-110100000D01*
X106610714Y-110147619D01*
X106658333Y-110242857D01*
X106658333Y-110385714D01*
X106610714Y-110480952D01*
X106563095Y-110528571D01*
X106467857Y-110576190D01*
X106086904Y-110576190D01*
X107134523Y-111052380D02*
X107325000Y-111052380D01*
X107420238Y-111004761D01*
X107467857Y-110957142D01*
X107563095Y-110814285D01*
X107610714Y-110623809D01*
X107610714Y-110242857D01*
X107563095Y-110147619D01*
X107515476Y-110100000D01*
X107420238Y-110052380D01*
X107229761Y-110052380D01*
X107134523Y-110100000D01*
X107086904Y-110147619D01*
X107039285Y-110242857D01*
X107039285Y-110480952D01*
X107086904Y-110576190D01*
X107134523Y-110623809D01*
X107229761Y-110671428D01*
X107420238Y-110671428D01*
X107515476Y-110623809D01*
X107563095Y-110576190D01*
X107610714Y-110480952D01*
X122715714Y-111082380D02*
X122449047Y-110606190D01*
X122258571Y-111082380D02*
X122258571Y-110082380D01*
X122563333Y-110082380D01*
X122639523Y-110130000D01*
X122677619Y-110177619D01*
X122715714Y-110272857D01*
X122715714Y-110415714D01*
X122677619Y-110510952D01*
X122639523Y-110558571D01*
X122563333Y-110606190D01*
X122258571Y-110606190D01*
X123477619Y-111082380D02*
X123020476Y-111082380D01*
X123249047Y-111082380D02*
X123249047Y-110082380D01*
X123172857Y-110225238D01*
X123096666Y-110320476D01*
X123020476Y-110368095D01*
X123972857Y-110082380D02*
X124049047Y-110082380D01*
X124125238Y-110130000D01*
X124163333Y-110177619D01*
X124201428Y-110272857D01*
X124239523Y-110463333D01*
X124239523Y-110701428D01*
X124201428Y-110891904D01*
X124163333Y-110987142D01*
X124125238Y-111034761D01*
X124049047Y-111082380D01*
X123972857Y-111082380D01*
X123896666Y-111034761D01*
X123858571Y-110987142D01*
X123820476Y-110891904D01*
X123782380Y-110701428D01*
X123782380Y-110463333D01*
X123820476Y-110272857D01*
X123858571Y-110177619D01*
X123896666Y-110130000D01*
X123972857Y-110082380D01*
X126265714Y-111002380D02*
X125999047Y-110526190D01*
X125808571Y-111002380D02*
X125808571Y-110002380D01*
X126113333Y-110002380D01*
X126189523Y-110050000D01*
X126227619Y-110097619D01*
X126265714Y-110192857D01*
X126265714Y-110335714D01*
X126227619Y-110430952D01*
X126189523Y-110478571D01*
X126113333Y-110526190D01*
X125808571Y-110526190D01*
X127027619Y-111002380D02*
X126570476Y-111002380D01*
X126799047Y-111002380D02*
X126799047Y-110002380D01*
X126722857Y-110145238D01*
X126646666Y-110240476D01*
X126570476Y-110288095D01*
X127789523Y-111002380D02*
X127332380Y-111002380D01*
X127560952Y-111002380D02*
X127560952Y-110002380D01*
X127484761Y-110145238D01*
X127408571Y-110240476D01*
X127332380Y-110288095D01*
X162875714Y-111022380D02*
X162609047Y-110546190D01*
X162418571Y-111022380D02*
X162418571Y-110022380D01*
X162723333Y-110022380D01*
X162799523Y-110070000D01*
X162837619Y-110117619D01*
X162875714Y-110212857D01*
X162875714Y-110355714D01*
X162837619Y-110450952D01*
X162799523Y-110498571D01*
X162723333Y-110546190D01*
X162418571Y-110546190D01*
X163637619Y-111022380D02*
X163180476Y-111022380D01*
X163409047Y-111022380D02*
X163409047Y-110022380D01*
X163332857Y-110165238D01*
X163256666Y-110260476D01*
X163180476Y-110308095D01*
X164323333Y-110355714D02*
X164323333Y-111022380D01*
X164132857Y-109974761D02*
X163942380Y-110689047D01*
X164437619Y-110689047D01*
X146215714Y-111142380D02*
X145949047Y-110666190D01*
X145758571Y-111142380D02*
X145758571Y-110142380D01*
X146063333Y-110142380D01*
X146139523Y-110190000D01*
X146177619Y-110237619D01*
X146215714Y-110332857D01*
X146215714Y-110475714D01*
X146177619Y-110570952D01*
X146139523Y-110618571D01*
X146063333Y-110666190D01*
X145758571Y-110666190D01*
X146977619Y-111142380D02*
X146520476Y-111142380D01*
X146749047Y-111142380D02*
X146749047Y-110142380D01*
X146672857Y-110285238D01*
X146596666Y-110380476D01*
X146520476Y-110428095D01*
X147244285Y-110142380D02*
X147739523Y-110142380D01*
X147472857Y-110523333D01*
X147587142Y-110523333D01*
X147663333Y-110570952D01*
X147701428Y-110618571D01*
X147739523Y-110713809D01*
X147739523Y-110951904D01*
X147701428Y-111047142D01*
X147663333Y-111094761D01*
X147587142Y-111142380D01*
X147358571Y-111142380D01*
X147282380Y-111094761D01*
X147244285Y-111047142D01*
X82907142Y-141102380D02*
X82573809Y-140626190D01*
X82335714Y-141102380D02*
X82335714Y-140102380D01*
X82716666Y-140102380D01*
X82811904Y-140150000D01*
X82859523Y-140197619D01*
X82907142Y-140292857D01*
X82907142Y-140435714D01*
X82859523Y-140530952D01*
X82811904Y-140578571D01*
X82716666Y-140626190D01*
X82335714Y-140626190D01*
X83859523Y-141102380D02*
X83288095Y-141102380D01*
X83573809Y-141102380D02*
X83573809Y-140102380D01*
X83478571Y-140245238D01*
X83383333Y-140340476D01*
X83288095Y-140388095D01*
X84716666Y-140102380D02*
X84526190Y-140102380D01*
X84430952Y-140150000D01*
X84383333Y-140197619D01*
X84288095Y-140340476D01*
X84240476Y-140530952D01*
X84240476Y-140911904D01*
X84288095Y-141007142D01*
X84335714Y-141054761D01*
X84430952Y-141102380D01*
X84621428Y-141102380D01*
X84716666Y-141054761D01*
X84764285Y-141007142D01*
X84811904Y-140911904D01*
X84811904Y-140673809D01*
X84764285Y-140578571D01*
X84716666Y-140530952D01*
X84621428Y-140483333D01*
X84430952Y-140483333D01*
X84335714Y-140530952D01*
X84288095Y-140578571D01*
X84240476Y-140673809D01*
X65557142Y-141002380D02*
X65223809Y-140526190D01*
X64985714Y-141002380D02*
X64985714Y-140002380D01*
X65366666Y-140002380D01*
X65461904Y-140050000D01*
X65509523Y-140097619D01*
X65557142Y-140192857D01*
X65557142Y-140335714D01*
X65509523Y-140430952D01*
X65461904Y-140478571D01*
X65366666Y-140526190D01*
X64985714Y-140526190D01*
X66509523Y-141002380D02*
X65938095Y-141002380D01*
X66223809Y-141002380D02*
X66223809Y-140002380D01*
X66128571Y-140145238D01*
X66033333Y-140240476D01*
X65938095Y-140288095D01*
X67414285Y-140002380D02*
X66938095Y-140002380D01*
X66890476Y-140478571D01*
X66938095Y-140430952D01*
X67033333Y-140383333D01*
X67271428Y-140383333D01*
X67366666Y-140430952D01*
X67414285Y-140478571D01*
X67461904Y-140573809D01*
X67461904Y-140811904D01*
X67414285Y-140907142D01*
X67366666Y-140954761D01*
X67271428Y-141002380D01*
X67033333Y-141002380D01*
X66938095Y-140954761D01*
X66890476Y-140907142D01*
X66633333Y-111002380D02*
X66300000Y-110526190D01*
X66061904Y-111002380D02*
X66061904Y-110002380D01*
X66442857Y-110002380D01*
X66538095Y-110050000D01*
X66585714Y-110097619D01*
X66633333Y-110192857D01*
X66633333Y-110335714D01*
X66585714Y-110430952D01*
X66538095Y-110478571D01*
X66442857Y-110526190D01*
X66061904Y-110526190D01*
X67538095Y-110002380D02*
X67061904Y-110002380D01*
X67014285Y-110478571D01*
X67061904Y-110430952D01*
X67157142Y-110383333D01*
X67395238Y-110383333D01*
X67490476Y-110430952D01*
X67538095Y-110478571D01*
X67585714Y-110573809D01*
X67585714Y-110811904D01*
X67538095Y-110907142D01*
X67490476Y-110954761D01*
X67395238Y-111002380D01*
X67157142Y-111002380D01*
X67061904Y-110954761D01*
X67014285Y-110907142D01*
X124019642Y-73527380D02*
X123686309Y-73051190D01*
X123448214Y-73527380D02*
X123448214Y-72527380D01*
X123829166Y-72527380D01*
X123924404Y-72575000D01*
X123972023Y-72622619D01*
X124019642Y-72717857D01*
X124019642Y-72860714D01*
X123972023Y-72955952D01*
X123924404Y-73003571D01*
X123829166Y-73051190D01*
X123448214Y-73051190D01*
X124352976Y-72527380D02*
X124972023Y-72527380D01*
X124638690Y-72908333D01*
X124781547Y-72908333D01*
X124876785Y-72955952D01*
X124924404Y-73003571D01*
X124972023Y-73098809D01*
X124972023Y-73336904D01*
X124924404Y-73432142D01*
X124876785Y-73479761D01*
X124781547Y-73527380D01*
X124495833Y-73527380D01*
X124400595Y-73479761D01*
X124352976Y-73432142D01*
X125305357Y-72527380D02*
X125924404Y-72527380D01*
X125591071Y-72908333D01*
X125733928Y-72908333D01*
X125829166Y-72955952D01*
X125876785Y-73003571D01*
X125924404Y-73098809D01*
X125924404Y-73336904D01*
X125876785Y-73432142D01*
X125829166Y-73479761D01*
X125733928Y-73527380D01*
X125448214Y-73527380D01*
X125352976Y-73479761D01*
X125305357Y-73432142D01*
X121785714Y-61882380D02*
X121785714Y-60882380D01*
X122023809Y-60882380D01*
X122166666Y-60930000D01*
X122261904Y-61025238D01*
X122309523Y-61120476D01*
X122357142Y-61310952D01*
X122357142Y-61453809D01*
X122309523Y-61644285D01*
X122261904Y-61739523D01*
X122166666Y-61834761D01*
X122023809Y-61882380D01*
X121785714Y-61882380D01*
X123309523Y-61882380D02*
X122738095Y-61882380D01*
X123023809Y-61882380D02*
X123023809Y-60882380D01*
X122928571Y-61025238D01*
X122833333Y-61120476D01*
X122738095Y-61168095D01*
X123880952Y-61310952D02*
X123785714Y-61263333D01*
X123738095Y-61215714D01*
X123690476Y-61120476D01*
X123690476Y-61072857D01*
X123738095Y-60977619D01*
X123785714Y-60930000D01*
X123880952Y-60882380D01*
X124071428Y-60882380D01*
X124166666Y-60930000D01*
X124214285Y-60977619D01*
X124261904Y-61072857D01*
X124261904Y-61120476D01*
X124214285Y-61215714D01*
X124166666Y-61263333D01*
X124071428Y-61310952D01*
X123880952Y-61310952D01*
X123785714Y-61358571D01*
X123738095Y-61406190D01*
X123690476Y-61501428D01*
X123690476Y-61691904D01*
X123738095Y-61787142D01*
X123785714Y-61834761D01*
X123880952Y-61882380D01*
X124071428Y-61882380D01*
X124166666Y-61834761D01*
X124214285Y-61787142D01*
X124261904Y-61691904D01*
X124261904Y-61501428D01*
X124214285Y-61406190D01*
X124166666Y-61358571D01*
X124071428Y-61310952D01*
X154288095Y-87502380D02*
X154859523Y-87502380D01*
X154573809Y-88502380D02*
X154573809Y-87502380D01*
X155192857Y-88502380D02*
X155192857Y-87502380D01*
X155573809Y-87502380D01*
X155669047Y-87550000D01*
X155716666Y-87597619D01*
X155764285Y-87692857D01*
X155764285Y-87835714D01*
X155716666Y-87930952D01*
X155669047Y-87978571D01*
X155573809Y-88026190D01*
X155192857Y-88026190D01*
X156716666Y-88502380D02*
X156145238Y-88502380D01*
X156430952Y-88502380D02*
X156430952Y-87502380D01*
X156335714Y-87645238D01*
X156240476Y-87740476D01*
X156145238Y-87788095D01*
X122257142Y-66932142D02*
X122209523Y-66979761D01*
X122066666Y-67027380D01*
X121971428Y-67027380D01*
X121828571Y-66979761D01*
X121733333Y-66884523D01*
X121685714Y-66789285D01*
X121638095Y-66598809D01*
X121638095Y-66455952D01*
X121685714Y-66265476D01*
X121733333Y-66170238D01*
X121828571Y-66075000D01*
X121971428Y-66027380D01*
X122066666Y-66027380D01*
X122209523Y-66075000D01*
X122257142Y-66122619D01*
X122638095Y-66122619D02*
X122685714Y-66075000D01*
X122780952Y-66027380D01*
X123019047Y-66027380D01*
X123114285Y-66075000D01*
X123161904Y-66122619D01*
X123209523Y-66217857D01*
X123209523Y-66313095D01*
X123161904Y-66455952D01*
X122590476Y-67027380D01*
X123209523Y-67027380D01*
X123780952Y-66455952D02*
X123685714Y-66408333D01*
X123638095Y-66360714D01*
X123590476Y-66265476D01*
X123590476Y-66217857D01*
X123638095Y-66122619D01*
X123685714Y-66075000D01*
X123780952Y-66027380D01*
X123971428Y-66027380D01*
X124066666Y-66075000D01*
X124114285Y-66122619D01*
X124161904Y-66217857D01*
X124161904Y-66265476D01*
X124114285Y-66360714D01*
X124066666Y-66408333D01*
X123971428Y-66455952D01*
X123780952Y-66455952D01*
X123685714Y-66503571D01*
X123638095Y-66551190D01*
X123590476Y-66646428D01*
X123590476Y-66836904D01*
X123638095Y-66932142D01*
X123685714Y-66979761D01*
X123780952Y-67027380D01*
X123971428Y-67027380D01*
X124066666Y-66979761D01*
X124114285Y-66932142D01*
X124161904Y-66836904D01*
X124161904Y-66646428D01*
X124114285Y-66551190D01*
X124066666Y-66503571D01*
X123971428Y-66455952D01*
X129416666Y-82152380D02*
X129416666Y-82866666D01*
X129369047Y-83009523D01*
X129273809Y-83104761D01*
X129130952Y-83152380D01*
X129035714Y-83152380D01*
X130321428Y-82485714D02*
X130321428Y-83152380D01*
X130083333Y-82104761D02*
X129845238Y-82819047D01*
X130464285Y-82819047D01*
X156566666Y-80152380D02*
X156566666Y-80866666D01*
X156519047Y-81009523D01*
X156423809Y-81104761D01*
X156280952Y-81152380D01*
X156185714Y-81152380D01*
X156947619Y-80152380D02*
X157566666Y-80152380D01*
X157233333Y-80533333D01*
X157376190Y-80533333D01*
X157471428Y-80580952D01*
X157519047Y-80628571D01*
X157566666Y-80723809D01*
X157566666Y-80961904D01*
X157519047Y-81057142D01*
X157471428Y-81104761D01*
X157376190Y-81152380D01*
X157090476Y-81152380D01*
X156995238Y-81104761D01*
X156947619Y-81057142D01*
X151916666Y-123404761D02*
X152059523Y-123452380D01*
X152297619Y-123452380D01*
X152392857Y-123404761D01*
X152440476Y-123357142D01*
X152488095Y-123261904D01*
X152488095Y-123166666D01*
X152440476Y-123071428D01*
X152392857Y-123023809D01*
X152297619Y-122976190D01*
X152107142Y-122928571D01*
X152011904Y-122880952D01*
X151964285Y-122833333D01*
X151916666Y-122738095D01*
X151916666Y-122642857D01*
X151964285Y-122547619D01*
X152011904Y-122500000D01*
X152107142Y-122452380D01*
X152345238Y-122452380D01*
X152488095Y-122500000D01*
X152821428Y-122452380D02*
X153059523Y-123452380D01*
X153250000Y-122738095D01*
X153440476Y-123452380D01*
X153678571Y-122452380D01*
X154535714Y-122452380D02*
X154059523Y-122452380D01*
X154011904Y-122928571D01*
X154059523Y-122880952D01*
X154154761Y-122833333D01*
X154392857Y-122833333D01*
X154488095Y-122880952D01*
X154535714Y-122928571D01*
X154583333Y-123023809D01*
X154583333Y-123261904D01*
X154535714Y-123357142D01*
X154488095Y-123404761D01*
X154392857Y-123452380D01*
X154154761Y-123452380D01*
X154059523Y-123404761D01*
X154011904Y-123357142D01*
X91966666Y-137764761D02*
X92109523Y-137812380D01*
X92347619Y-137812380D01*
X92442857Y-137764761D01*
X92490476Y-137717142D01*
X92538095Y-137621904D01*
X92538095Y-137526666D01*
X92490476Y-137431428D01*
X92442857Y-137383809D01*
X92347619Y-137336190D01*
X92157142Y-137288571D01*
X92061904Y-137240952D01*
X92014285Y-137193333D01*
X91966666Y-137098095D01*
X91966666Y-137002857D01*
X92014285Y-136907619D01*
X92061904Y-136860000D01*
X92157142Y-136812380D01*
X92395238Y-136812380D01*
X92538095Y-136860000D01*
X92871428Y-136812380D02*
X93109523Y-137812380D01*
X93300000Y-137098095D01*
X93490476Y-137812380D01*
X93728571Y-136812380D01*
X94538095Y-136812380D02*
X94347619Y-136812380D01*
X94252380Y-136860000D01*
X94204761Y-136907619D01*
X94109523Y-137050476D01*
X94061904Y-137240952D01*
X94061904Y-137621904D01*
X94109523Y-137717142D01*
X94157142Y-137764761D01*
X94252380Y-137812380D01*
X94442857Y-137812380D01*
X94538095Y-137764761D01*
X94585714Y-137717142D01*
X94633333Y-137621904D01*
X94633333Y-137383809D01*
X94585714Y-137288571D01*
X94538095Y-137240952D01*
X94442857Y-137193333D01*
X94252380Y-137193333D01*
X94157142Y-137240952D01*
X94109523Y-137288571D01*
X94061904Y-137383809D01*
X107056666Y-137984761D02*
X107199523Y-138032380D01*
X107437619Y-138032380D01*
X107532857Y-137984761D01*
X107580476Y-137937142D01*
X107628095Y-137841904D01*
X107628095Y-137746666D01*
X107580476Y-137651428D01*
X107532857Y-137603809D01*
X107437619Y-137556190D01*
X107247142Y-137508571D01*
X107151904Y-137460952D01*
X107104285Y-137413333D01*
X107056666Y-137318095D01*
X107056666Y-137222857D01*
X107104285Y-137127619D01*
X107151904Y-137080000D01*
X107247142Y-137032380D01*
X107485238Y-137032380D01*
X107628095Y-137080000D01*
X107961428Y-137032380D02*
X108199523Y-138032380D01*
X108390000Y-137318095D01*
X108580476Y-138032380D01*
X108818571Y-137032380D01*
X109104285Y-137032380D02*
X109770952Y-137032380D01*
X109342380Y-138032380D01*
X92296666Y-122784761D02*
X92439523Y-122832380D01*
X92677619Y-122832380D01*
X92772857Y-122784761D01*
X92820476Y-122737142D01*
X92868095Y-122641904D01*
X92868095Y-122546666D01*
X92820476Y-122451428D01*
X92772857Y-122403809D01*
X92677619Y-122356190D01*
X92487142Y-122308571D01*
X92391904Y-122260952D01*
X92344285Y-122213333D01*
X92296666Y-122118095D01*
X92296666Y-122022857D01*
X92344285Y-121927619D01*
X92391904Y-121880000D01*
X92487142Y-121832380D01*
X92725238Y-121832380D01*
X92868095Y-121880000D01*
X93201428Y-121832380D02*
X93439523Y-122832380D01*
X93630000Y-122118095D01*
X93820476Y-122832380D01*
X94058571Y-121832380D01*
X94963333Y-122832380D02*
X94391904Y-122832380D01*
X94677619Y-122832380D02*
X94677619Y-121832380D01*
X94582380Y-121975238D01*
X94487142Y-122070476D01*
X94391904Y-122118095D01*
X106906666Y-122934761D02*
X107049523Y-122982380D01*
X107287619Y-122982380D01*
X107382857Y-122934761D01*
X107430476Y-122887142D01*
X107478095Y-122791904D01*
X107478095Y-122696666D01*
X107430476Y-122601428D01*
X107382857Y-122553809D01*
X107287619Y-122506190D01*
X107097142Y-122458571D01*
X107001904Y-122410952D01*
X106954285Y-122363333D01*
X106906666Y-122268095D01*
X106906666Y-122172857D01*
X106954285Y-122077619D01*
X107001904Y-122030000D01*
X107097142Y-121982380D01*
X107335238Y-121982380D01*
X107478095Y-122030000D01*
X107811428Y-121982380D02*
X108049523Y-122982380D01*
X108240000Y-122268095D01*
X108430476Y-122982380D01*
X108668571Y-121982380D01*
X109001904Y-122077619D02*
X109049523Y-122030000D01*
X109144761Y-121982380D01*
X109382857Y-121982380D01*
X109478095Y-122030000D01*
X109525714Y-122077619D01*
X109573333Y-122172857D01*
X109573333Y-122268095D01*
X109525714Y-122410952D01*
X108954285Y-122982380D01*
X109573333Y-122982380D01*
X121596666Y-122854761D02*
X121739523Y-122902380D01*
X121977619Y-122902380D01*
X122072857Y-122854761D01*
X122120476Y-122807142D01*
X122168095Y-122711904D01*
X122168095Y-122616666D01*
X122120476Y-122521428D01*
X122072857Y-122473809D01*
X121977619Y-122426190D01*
X121787142Y-122378571D01*
X121691904Y-122330952D01*
X121644285Y-122283333D01*
X121596666Y-122188095D01*
X121596666Y-122092857D01*
X121644285Y-121997619D01*
X121691904Y-121950000D01*
X121787142Y-121902380D01*
X122025238Y-121902380D01*
X122168095Y-121950000D01*
X122501428Y-121902380D02*
X122739523Y-122902380D01*
X122930000Y-122188095D01*
X123120476Y-122902380D01*
X123358571Y-121902380D01*
X123644285Y-121902380D02*
X124263333Y-121902380D01*
X123930000Y-122283333D01*
X124072857Y-122283333D01*
X124168095Y-122330952D01*
X124215714Y-122378571D01*
X124263333Y-122473809D01*
X124263333Y-122711904D01*
X124215714Y-122807142D01*
X124168095Y-122854761D01*
X124072857Y-122902380D01*
X123787142Y-122902380D01*
X123691904Y-122854761D01*
X123644285Y-122807142D01*
X137166666Y-123074761D02*
X137309523Y-123122380D01*
X137547619Y-123122380D01*
X137642857Y-123074761D01*
X137690476Y-123027142D01*
X137738095Y-122931904D01*
X137738095Y-122836666D01*
X137690476Y-122741428D01*
X137642857Y-122693809D01*
X137547619Y-122646190D01*
X137357142Y-122598571D01*
X137261904Y-122550952D01*
X137214285Y-122503333D01*
X137166666Y-122408095D01*
X137166666Y-122312857D01*
X137214285Y-122217619D01*
X137261904Y-122170000D01*
X137357142Y-122122380D01*
X137595238Y-122122380D01*
X137738095Y-122170000D01*
X138071428Y-122122380D02*
X138309523Y-123122380D01*
X138500000Y-122408095D01*
X138690476Y-123122380D01*
X138928571Y-122122380D01*
X139738095Y-122455714D02*
X139738095Y-123122380D01*
X139500000Y-122074761D02*
X139261904Y-122789047D01*
X139880952Y-122789047D01*
X151440476Y-138404761D02*
X151583333Y-138452380D01*
X151821428Y-138452380D01*
X151916666Y-138404761D01*
X151964285Y-138357142D01*
X152011904Y-138261904D01*
X152011904Y-138166666D01*
X151964285Y-138071428D01*
X151916666Y-138023809D01*
X151821428Y-137976190D01*
X151630952Y-137928571D01*
X151535714Y-137880952D01*
X151488095Y-137833333D01*
X151440476Y-137738095D01*
X151440476Y-137642857D01*
X151488095Y-137547619D01*
X151535714Y-137500000D01*
X151630952Y-137452380D01*
X151869047Y-137452380D01*
X152011904Y-137500000D01*
X152345238Y-137452380D02*
X152583333Y-138452380D01*
X152773809Y-137738095D01*
X152964285Y-138452380D01*
X153202380Y-137452380D01*
X154107142Y-138452380D02*
X153535714Y-138452380D01*
X153821428Y-138452380D02*
X153821428Y-137452380D01*
X153726190Y-137595238D01*
X153630952Y-137690476D01*
X153535714Y-137738095D01*
X154726190Y-137452380D02*
X154821428Y-137452380D01*
X154916666Y-137500000D01*
X154964285Y-137547619D01*
X155011904Y-137642857D01*
X155059523Y-137833333D01*
X155059523Y-138071428D01*
X155011904Y-138261904D01*
X154964285Y-138357142D01*
X154916666Y-138404761D01*
X154821428Y-138452380D01*
X154726190Y-138452380D01*
X154630952Y-138404761D01*
X154583333Y-138357142D01*
X154535714Y-138261904D01*
X154488095Y-138071428D01*
X154488095Y-137833333D01*
X154535714Y-137642857D01*
X154583333Y-137547619D01*
X154630952Y-137500000D01*
X154726190Y-137452380D01*
X136866666Y-138134761D02*
X137009523Y-138182380D01*
X137247619Y-138182380D01*
X137342857Y-138134761D01*
X137390476Y-138087142D01*
X137438095Y-137991904D01*
X137438095Y-137896666D01*
X137390476Y-137801428D01*
X137342857Y-137753809D01*
X137247619Y-137706190D01*
X137057142Y-137658571D01*
X136961904Y-137610952D01*
X136914285Y-137563333D01*
X136866666Y-137468095D01*
X136866666Y-137372857D01*
X136914285Y-137277619D01*
X136961904Y-137230000D01*
X137057142Y-137182380D01*
X137295238Y-137182380D01*
X137438095Y-137230000D01*
X137771428Y-137182380D02*
X138009523Y-138182380D01*
X138200000Y-137468095D01*
X138390476Y-138182380D01*
X138628571Y-137182380D01*
X139057142Y-138182380D02*
X139247619Y-138182380D01*
X139342857Y-138134761D01*
X139390476Y-138087142D01*
X139485714Y-137944285D01*
X139533333Y-137753809D01*
X139533333Y-137372857D01*
X139485714Y-137277619D01*
X139438095Y-137230000D01*
X139342857Y-137182380D01*
X139152380Y-137182380D01*
X139057142Y-137230000D01*
X139009523Y-137277619D01*
X138961904Y-137372857D01*
X138961904Y-137610952D01*
X139009523Y-137706190D01*
X139057142Y-137753809D01*
X139152380Y-137801428D01*
X139342857Y-137801428D01*
X139438095Y-137753809D01*
X139485714Y-137706190D01*
X139533333Y-137610952D01*
X121966666Y-138064761D02*
X122109523Y-138112380D01*
X122347619Y-138112380D01*
X122442857Y-138064761D01*
X122490476Y-138017142D01*
X122538095Y-137921904D01*
X122538095Y-137826666D01*
X122490476Y-137731428D01*
X122442857Y-137683809D01*
X122347619Y-137636190D01*
X122157142Y-137588571D01*
X122061904Y-137540952D01*
X122014285Y-137493333D01*
X121966666Y-137398095D01*
X121966666Y-137302857D01*
X122014285Y-137207619D01*
X122061904Y-137160000D01*
X122157142Y-137112380D01*
X122395238Y-137112380D01*
X122538095Y-137160000D01*
X122871428Y-137112380D02*
X123109523Y-138112380D01*
X123300000Y-137398095D01*
X123490476Y-138112380D01*
X123728571Y-137112380D01*
X124252380Y-137540952D02*
X124157142Y-137493333D01*
X124109523Y-137445714D01*
X124061904Y-137350476D01*
X124061904Y-137302857D01*
X124109523Y-137207619D01*
X124157142Y-137160000D01*
X124252380Y-137112380D01*
X124442857Y-137112380D01*
X124538095Y-137160000D01*
X124585714Y-137207619D01*
X124633333Y-137302857D01*
X124633333Y-137350476D01*
X124585714Y-137445714D01*
X124538095Y-137493333D01*
X124442857Y-137540952D01*
X124252380Y-137540952D01*
X124157142Y-137588571D01*
X124109523Y-137636190D01*
X124061904Y-137731428D01*
X124061904Y-137921904D01*
X124109523Y-138017142D01*
X124157142Y-138064761D01*
X124252380Y-138112380D01*
X124442857Y-138112380D01*
X124538095Y-138064761D01*
X124585714Y-138017142D01*
X124633333Y-137921904D01*
X124633333Y-137731428D01*
X124585714Y-137636190D01*
X124538095Y-137588571D01*
X124442857Y-137540952D01*
X120232642Y-63357142D02*
X120185023Y-63404761D01*
X120042166Y-63452380D01*
X119946928Y-63452380D01*
X119804071Y-63404761D01*
X119708833Y-63309523D01*
X119661214Y-63214285D01*
X119613595Y-63023809D01*
X119613595Y-62880952D01*
X119661214Y-62690476D01*
X119708833Y-62595238D01*
X119804071Y-62500000D01*
X119946928Y-62452380D01*
X120042166Y-62452380D01*
X120185023Y-62500000D01*
X120232642Y-62547619D01*
X120613595Y-62547619D02*
X120661214Y-62500000D01*
X120756452Y-62452380D01*
X120994547Y-62452380D01*
X121089785Y-62500000D01*
X121137404Y-62547619D01*
X121185023Y-62642857D01*
X121185023Y-62738095D01*
X121137404Y-62880952D01*
X120565976Y-63452380D01*
X121185023Y-63452380D01*
X121565976Y-62547619D02*
X121613595Y-62500000D01*
X121708833Y-62452380D01*
X121946928Y-62452380D01*
X122042166Y-62500000D01*
X122089785Y-62547619D01*
X122137404Y-62642857D01*
X122137404Y-62738095D01*
X122089785Y-62880952D01*
X121518357Y-63452380D01*
X122137404Y-63452380D01*
X82983333Y-113082142D02*
X82935714Y-113129761D01*
X82792857Y-113177380D01*
X82697619Y-113177380D01*
X82554761Y-113129761D01*
X82459523Y-113034523D01*
X82411904Y-112939285D01*
X82364285Y-112748809D01*
X82364285Y-112605952D01*
X82411904Y-112415476D01*
X82459523Y-112320238D01*
X82554761Y-112225000D01*
X82697619Y-112177380D01*
X82792857Y-112177380D01*
X82935714Y-112225000D01*
X82983333Y-112272619D01*
X83364285Y-112272619D02*
X83411904Y-112225000D01*
X83507142Y-112177380D01*
X83745238Y-112177380D01*
X83840476Y-112225000D01*
X83888095Y-112272619D01*
X83935714Y-112367857D01*
X83935714Y-112463095D01*
X83888095Y-112605952D01*
X83316666Y-113177380D01*
X83935714Y-113177380D01*
X122257142Y-64982142D02*
X122209523Y-65029761D01*
X122066666Y-65077380D01*
X121971428Y-65077380D01*
X121828571Y-65029761D01*
X121733333Y-64934523D01*
X121685714Y-64839285D01*
X121638095Y-64648809D01*
X121638095Y-64505952D01*
X121685714Y-64315476D01*
X121733333Y-64220238D01*
X121828571Y-64125000D01*
X121971428Y-64077380D01*
X122066666Y-64077380D01*
X122209523Y-64125000D01*
X122257142Y-64172619D01*
X122638095Y-64172619D02*
X122685714Y-64125000D01*
X122780952Y-64077380D01*
X123019047Y-64077380D01*
X123114285Y-64125000D01*
X123161904Y-64172619D01*
X123209523Y-64267857D01*
X123209523Y-64363095D01*
X123161904Y-64505952D01*
X122590476Y-65077380D01*
X123209523Y-65077380D01*
X123828571Y-64077380D02*
X123923809Y-64077380D01*
X124019047Y-64125000D01*
X124066666Y-64172619D01*
X124114285Y-64267857D01*
X124161904Y-64458333D01*
X124161904Y-64696428D01*
X124114285Y-64886904D01*
X124066666Y-64982142D01*
X124019047Y-65029761D01*
X123923809Y-65077380D01*
X123828571Y-65077380D01*
X123733333Y-65029761D01*
X123685714Y-64982142D01*
X123638095Y-64886904D01*
X123590476Y-64696428D01*
X123590476Y-64458333D01*
X123638095Y-64267857D01*
X123685714Y-64172619D01*
X123733333Y-64125000D01*
X123828571Y-64077380D01*
X112919142Y-72007142D02*
X112871523Y-72054761D01*
X112728666Y-72102380D01*
X112633428Y-72102380D01*
X112490571Y-72054761D01*
X112395333Y-71959523D01*
X112347714Y-71864285D01*
X112300095Y-71673809D01*
X112300095Y-71530952D01*
X112347714Y-71340476D01*
X112395333Y-71245238D01*
X112490571Y-71150000D01*
X112633428Y-71102380D01*
X112728666Y-71102380D01*
X112871523Y-71150000D01*
X112919142Y-71197619D01*
X113300095Y-71197619D02*
X113347714Y-71150000D01*
X113442952Y-71102380D01*
X113681047Y-71102380D01*
X113776285Y-71150000D01*
X113823904Y-71197619D01*
X113871523Y-71292857D01*
X113871523Y-71388095D01*
X113823904Y-71530952D01*
X113252476Y-72102380D01*
X113871523Y-72102380D01*
X114776285Y-71102380D02*
X114300095Y-71102380D01*
X114252476Y-71578571D01*
X114300095Y-71530952D01*
X114395333Y-71483333D01*
X114633428Y-71483333D01*
X114728666Y-71530952D01*
X114776285Y-71578571D01*
X114823904Y-71673809D01*
X114823904Y-71911904D01*
X114776285Y-72007142D01*
X114728666Y-72054761D01*
X114633428Y-72102380D01*
X114395333Y-72102380D01*
X114300095Y-72054761D01*
X114252476Y-72007142D01*
X116857142Y-72007142D02*
X116809523Y-72054761D01*
X116666666Y-72102380D01*
X116571428Y-72102380D01*
X116428571Y-72054761D01*
X116333333Y-71959523D01*
X116285714Y-71864285D01*
X116238095Y-71673809D01*
X116238095Y-71530952D01*
X116285714Y-71340476D01*
X116333333Y-71245238D01*
X116428571Y-71150000D01*
X116571428Y-71102380D01*
X116666666Y-71102380D01*
X116809523Y-71150000D01*
X116857142Y-71197619D01*
X117238095Y-71197619D02*
X117285714Y-71150000D01*
X117380952Y-71102380D01*
X117619047Y-71102380D01*
X117714285Y-71150000D01*
X117761904Y-71197619D01*
X117809523Y-71292857D01*
X117809523Y-71388095D01*
X117761904Y-71530952D01*
X117190476Y-72102380D01*
X117809523Y-72102380D01*
X118666666Y-71102380D02*
X118476190Y-71102380D01*
X118380952Y-71150000D01*
X118333333Y-71197619D01*
X118238095Y-71340476D01*
X118190476Y-71530952D01*
X118190476Y-71911904D01*
X118238095Y-72007142D01*
X118285714Y-72054761D01*
X118380952Y-72102380D01*
X118571428Y-72102380D01*
X118666666Y-72054761D01*
X118714285Y-72007142D01*
X118761904Y-71911904D01*
X118761904Y-71673809D01*
X118714285Y-71578571D01*
X118666666Y-71530952D01*
X118571428Y-71483333D01*
X118380952Y-71483333D01*
X118285714Y-71530952D01*
X118238095Y-71578571D01*
X118190476Y-71673809D01*
X66733333Y-113157142D02*
X66685714Y-113204761D01*
X66542857Y-113252380D01*
X66447619Y-113252380D01*
X66304761Y-113204761D01*
X66209523Y-113109523D01*
X66161904Y-113014285D01*
X66114285Y-112823809D01*
X66114285Y-112680952D01*
X66161904Y-112490476D01*
X66209523Y-112395238D01*
X66304761Y-112300000D01*
X66447619Y-112252380D01*
X66542857Y-112252380D01*
X66685714Y-112300000D01*
X66733333Y-112347619D01*
X67685714Y-113252380D02*
X67114285Y-113252380D01*
X67400000Y-113252380D02*
X67400000Y-112252380D01*
X67304761Y-112395238D01*
X67209523Y-112490476D01*
X67114285Y-112538095D01*
X142958333Y-112957142D02*
X142910714Y-113004761D01*
X142767857Y-113052380D01*
X142672619Y-113052380D01*
X142529761Y-113004761D01*
X142434523Y-112909523D01*
X142386904Y-112814285D01*
X142339285Y-112623809D01*
X142339285Y-112480952D01*
X142386904Y-112290476D01*
X142434523Y-112195238D01*
X142529761Y-112100000D01*
X142672619Y-112052380D01*
X142767857Y-112052380D01*
X142910714Y-112100000D01*
X142958333Y-112147619D01*
X143529761Y-112480952D02*
X143434523Y-112433333D01*
X143386904Y-112385714D01*
X143339285Y-112290476D01*
X143339285Y-112242857D01*
X143386904Y-112147619D01*
X143434523Y-112100000D01*
X143529761Y-112052380D01*
X143720238Y-112052380D01*
X143815476Y-112100000D01*
X143863095Y-112147619D01*
X143910714Y-112242857D01*
X143910714Y-112290476D01*
X143863095Y-112385714D01*
X143815476Y-112433333D01*
X143720238Y-112480952D01*
X143529761Y-112480952D01*
X143434523Y-112528571D01*
X143386904Y-112576190D01*
X143339285Y-112671428D01*
X143339285Y-112861904D01*
X143386904Y-112957142D01*
X143434523Y-113004761D01*
X143529761Y-113052380D01*
X143720238Y-113052380D01*
X143815476Y-113004761D01*
X143863095Y-112957142D01*
X143910714Y-112861904D01*
X143910714Y-112671428D01*
X143863095Y-112576190D01*
X143815476Y-112528571D01*
X143720238Y-112480952D01*
X86333333Y-112782142D02*
X86285714Y-112829761D01*
X86142857Y-112877380D01*
X86047619Y-112877380D01*
X85904761Y-112829761D01*
X85809523Y-112734523D01*
X85761904Y-112639285D01*
X85714285Y-112448809D01*
X85714285Y-112305952D01*
X85761904Y-112115476D01*
X85809523Y-112020238D01*
X85904761Y-111925000D01*
X86047619Y-111877380D01*
X86142857Y-111877380D01*
X86285714Y-111925000D01*
X86333333Y-111972619D01*
X86666666Y-111877380D02*
X87285714Y-111877380D01*
X86952380Y-112258333D01*
X87095238Y-112258333D01*
X87190476Y-112305952D01*
X87238095Y-112353571D01*
X87285714Y-112448809D01*
X87285714Y-112686904D01*
X87238095Y-112782142D01*
X87190476Y-112829761D01*
X87095238Y-112877380D01*
X86809523Y-112877380D01*
X86714285Y-112829761D01*
X86666666Y-112782142D01*
X102833333Y-112932142D02*
X102785714Y-112979761D01*
X102642857Y-113027380D01*
X102547619Y-113027380D01*
X102404761Y-112979761D01*
X102309523Y-112884523D01*
X102261904Y-112789285D01*
X102214285Y-112598809D01*
X102214285Y-112455952D01*
X102261904Y-112265476D01*
X102309523Y-112170238D01*
X102404761Y-112075000D01*
X102547619Y-112027380D01*
X102642857Y-112027380D01*
X102785714Y-112075000D01*
X102833333Y-112122619D01*
X103690476Y-112360714D02*
X103690476Y-113027380D01*
X103452380Y-111979761D02*
X103214285Y-112694047D01*
X103833333Y-112694047D01*
X106658333Y-112982142D02*
X106610714Y-113029761D01*
X106467857Y-113077380D01*
X106372619Y-113077380D01*
X106229761Y-113029761D01*
X106134523Y-112934523D01*
X106086904Y-112839285D01*
X106039285Y-112648809D01*
X106039285Y-112505952D01*
X106086904Y-112315476D01*
X106134523Y-112220238D01*
X106229761Y-112125000D01*
X106372619Y-112077380D01*
X106467857Y-112077380D01*
X106610714Y-112125000D01*
X106658333Y-112172619D01*
X107563095Y-112077380D02*
X107086904Y-112077380D01*
X107039285Y-112553571D01*
X107086904Y-112505952D01*
X107182142Y-112458333D01*
X107420238Y-112458333D01*
X107515476Y-112505952D01*
X107563095Y-112553571D01*
X107610714Y-112648809D01*
X107610714Y-112886904D01*
X107563095Y-112982142D01*
X107515476Y-113029761D01*
X107420238Y-113077380D01*
X107182142Y-113077380D01*
X107086904Y-113029761D01*
X107039285Y-112982142D01*
X122883333Y-112832142D02*
X122835714Y-112879761D01*
X122692857Y-112927380D01*
X122597619Y-112927380D01*
X122454761Y-112879761D01*
X122359523Y-112784523D01*
X122311904Y-112689285D01*
X122264285Y-112498809D01*
X122264285Y-112355952D01*
X122311904Y-112165476D01*
X122359523Y-112070238D01*
X122454761Y-111975000D01*
X122597619Y-111927380D01*
X122692857Y-111927380D01*
X122835714Y-111975000D01*
X122883333Y-112022619D01*
X123740476Y-111927380D02*
X123550000Y-111927380D01*
X123454761Y-111975000D01*
X123407142Y-112022619D01*
X123311904Y-112165476D01*
X123264285Y-112355952D01*
X123264285Y-112736904D01*
X123311904Y-112832142D01*
X123359523Y-112879761D01*
X123454761Y-112927380D01*
X123645238Y-112927380D01*
X123740476Y-112879761D01*
X123788095Y-112832142D01*
X123835714Y-112736904D01*
X123835714Y-112498809D01*
X123788095Y-112403571D01*
X123740476Y-112355952D01*
X123645238Y-112308333D01*
X123454761Y-112308333D01*
X123359523Y-112355952D01*
X123311904Y-112403571D01*
X123264285Y-112498809D01*
X126583333Y-112882142D02*
X126535714Y-112929761D01*
X126392857Y-112977380D01*
X126297619Y-112977380D01*
X126154761Y-112929761D01*
X126059523Y-112834523D01*
X126011904Y-112739285D01*
X125964285Y-112548809D01*
X125964285Y-112405952D01*
X126011904Y-112215476D01*
X126059523Y-112120238D01*
X126154761Y-112025000D01*
X126297619Y-111977380D01*
X126392857Y-111977380D01*
X126535714Y-112025000D01*
X126583333Y-112072619D01*
X126916666Y-111977380D02*
X127583333Y-111977380D01*
X127154761Y-112977380D01*
X146773333Y-112857142D02*
X146725714Y-112904761D01*
X146582857Y-112952380D01*
X146487619Y-112952380D01*
X146344761Y-112904761D01*
X146249523Y-112809523D01*
X146201904Y-112714285D01*
X146154285Y-112523809D01*
X146154285Y-112380952D01*
X146201904Y-112190476D01*
X146249523Y-112095238D01*
X146344761Y-112000000D01*
X146487619Y-111952380D01*
X146582857Y-111952380D01*
X146725714Y-112000000D01*
X146773333Y-112047619D01*
X147249523Y-112952380D02*
X147440000Y-112952380D01*
X147535238Y-112904761D01*
X147582857Y-112857142D01*
X147678095Y-112714285D01*
X147725714Y-112523809D01*
X147725714Y-112142857D01*
X147678095Y-112047619D01*
X147630476Y-112000000D01*
X147535238Y-111952380D01*
X147344761Y-111952380D01*
X147249523Y-112000000D01*
X147201904Y-112047619D01*
X147154285Y-112142857D01*
X147154285Y-112380952D01*
X147201904Y-112476190D01*
X147249523Y-112523809D01*
X147344761Y-112571428D01*
X147535238Y-112571428D01*
X147630476Y-112523809D01*
X147678095Y-112476190D01*
X147725714Y-112380952D01*
X162855714Y-112897142D02*
X162817619Y-112944761D01*
X162703333Y-112992380D01*
X162627142Y-112992380D01*
X162512857Y-112944761D01*
X162436666Y-112849523D01*
X162398571Y-112754285D01*
X162360476Y-112563809D01*
X162360476Y-112420952D01*
X162398571Y-112230476D01*
X162436666Y-112135238D01*
X162512857Y-112040000D01*
X162627142Y-111992380D01*
X162703333Y-111992380D01*
X162817619Y-112040000D01*
X162855714Y-112087619D01*
X163617619Y-112992380D02*
X163160476Y-112992380D01*
X163389047Y-112992380D02*
X163389047Y-111992380D01*
X163312857Y-112135238D01*
X163236666Y-112230476D01*
X163160476Y-112278095D01*
X164112857Y-111992380D02*
X164189047Y-111992380D01*
X164265238Y-112040000D01*
X164303333Y-112087619D01*
X164341428Y-112182857D01*
X164379523Y-112373333D01*
X164379523Y-112611428D01*
X164341428Y-112801904D01*
X164303333Y-112897142D01*
X164265238Y-112944761D01*
X164189047Y-112992380D01*
X164112857Y-112992380D01*
X164036666Y-112944761D01*
X163998571Y-112897142D01*
X163960476Y-112801904D01*
X163922380Y-112611428D01*
X163922380Y-112373333D01*
X163960476Y-112182857D01*
X163998571Y-112087619D01*
X164036666Y-112040000D01*
X164112857Y-111992380D01*
X65807142Y-142807142D02*
X65759523Y-142854761D01*
X65616666Y-142902380D01*
X65521428Y-142902380D01*
X65378571Y-142854761D01*
X65283333Y-142759523D01*
X65235714Y-142664285D01*
X65188095Y-142473809D01*
X65188095Y-142330952D01*
X65235714Y-142140476D01*
X65283333Y-142045238D01*
X65378571Y-141950000D01*
X65521428Y-141902380D01*
X65616666Y-141902380D01*
X65759523Y-141950000D01*
X65807142Y-141997619D01*
X66759523Y-142902380D02*
X66188095Y-142902380D01*
X66473809Y-142902380D02*
X66473809Y-141902380D01*
X66378571Y-142045238D01*
X66283333Y-142140476D01*
X66188095Y-142188095D01*
X67711904Y-142902380D02*
X67140476Y-142902380D01*
X67426190Y-142902380D02*
X67426190Y-141902380D01*
X67330952Y-142045238D01*
X67235714Y-142140476D01*
X67140476Y-142188095D01*
X82907142Y-143057142D02*
X82859523Y-143104761D01*
X82716666Y-143152380D01*
X82621428Y-143152380D01*
X82478571Y-143104761D01*
X82383333Y-143009523D01*
X82335714Y-142914285D01*
X82288095Y-142723809D01*
X82288095Y-142580952D01*
X82335714Y-142390476D01*
X82383333Y-142295238D01*
X82478571Y-142200000D01*
X82621428Y-142152380D01*
X82716666Y-142152380D01*
X82859523Y-142200000D01*
X82907142Y-142247619D01*
X83859523Y-143152380D02*
X83288095Y-143152380D01*
X83573809Y-143152380D02*
X83573809Y-142152380D01*
X83478571Y-142295238D01*
X83383333Y-142390476D01*
X83288095Y-142438095D01*
X84240476Y-142247619D02*
X84288095Y-142200000D01*
X84383333Y-142152380D01*
X84621428Y-142152380D01*
X84716666Y-142200000D01*
X84764285Y-142247619D01*
X84811904Y-142342857D01*
X84811904Y-142438095D01*
X84764285Y-142580952D01*
X84192857Y-143152380D01*
X84811904Y-143152380D01*
X101546666Y-62062380D02*
X101546666Y-62776666D01*
X101499047Y-62919523D01*
X101403809Y-63014761D01*
X101260952Y-63062380D01*
X101165714Y-63062380D01*
X101975238Y-62157619D02*
X102022857Y-62110000D01*
X102118095Y-62062380D01*
X102356190Y-62062380D01*
X102451428Y-62110000D01*
X102499047Y-62157619D01*
X102546666Y-62252857D01*
X102546666Y-62348095D01*
X102499047Y-62490952D01*
X101927619Y-63062380D01*
X102546666Y-63062380D01*
X108386666Y-55982380D02*
X108386666Y-56696666D01*
X108339047Y-56839523D01*
X108243809Y-56934761D01*
X108100952Y-56982380D01*
X108005714Y-56982380D01*
X109386666Y-56982380D02*
X108815238Y-56982380D01*
X109100952Y-56982380D02*
X109100952Y-55982380D01*
X109005714Y-56125238D01*
X108910476Y-56220476D01*
X108815238Y-56268095D01*
X65238095Y-156452380D02*
X65238095Y-155452380D01*
X65238095Y-155928571D02*
X65809523Y-155928571D01*
X65809523Y-156452380D02*
X65809523Y-155452380D01*
X66809523Y-156452380D02*
X66238095Y-156452380D01*
X66523809Y-156452380D02*
X66523809Y-155452380D01*
X66428571Y-155595238D01*
X66333333Y-155690476D01*
X66238095Y-155738095D01*
X67818095Y-52522380D02*
X67818095Y-51522380D01*
X67818095Y-51998571D02*
X68389523Y-51998571D01*
X68389523Y-52522380D02*
X68389523Y-51522380D01*
X68818095Y-51617619D02*
X68865714Y-51570000D01*
X68960952Y-51522380D01*
X69199047Y-51522380D01*
X69294285Y-51570000D01*
X69341904Y-51617619D01*
X69389523Y-51712857D01*
X69389523Y-51808095D01*
X69341904Y-51950952D01*
X68770476Y-52522380D01*
X69389523Y-52522380D01*
X163238095Y-156452380D02*
X163238095Y-155452380D01*
X163238095Y-155928571D02*
X163809523Y-155928571D01*
X163809523Y-156452380D02*
X163809523Y-155452380D01*
X164190476Y-155452380D02*
X164809523Y-155452380D01*
X164476190Y-155833333D01*
X164619047Y-155833333D01*
X164714285Y-155880952D01*
X164761904Y-155928571D01*
X164809523Y-156023809D01*
X164809523Y-156261904D01*
X164761904Y-156357142D01*
X164714285Y-156404761D01*
X164619047Y-156452380D01*
X164333333Y-156452380D01*
X164238095Y-156404761D01*
X164190476Y-156357142D01*
X160528095Y-51252380D02*
X160528095Y-50252380D01*
X160528095Y-50728571D02*
X161099523Y-50728571D01*
X161099523Y-51252380D02*
X161099523Y-50252380D01*
X162004285Y-50585714D02*
X162004285Y-51252380D01*
X161766190Y-50204761D02*
X161528095Y-50919047D01*
X162147142Y-50919047D01*
X117852380Y-67461904D02*
X118661904Y-67461904D01*
X118757142Y-67414285D01*
X118804761Y-67366666D01*
X118852380Y-67271428D01*
X118852380Y-67080952D01*
X118804761Y-66985714D01*
X118757142Y-66938095D01*
X118661904Y-66890476D01*
X117852380Y-66890476D01*
X118185714Y-65985714D02*
X118852380Y-65985714D01*
X117804761Y-66223809D02*
X118519047Y-66461904D01*
X118519047Y-65842857D01*
M02*
