G04 #@! TF.GenerationSoftware,KiCad,Pcbnew,(5.1.2)-1*
G04 #@! TF.CreationDate,2019-06-20T04:44:42+09:00*
G04 #@! TF.ProjectId,LrE-6,4c72452d-362e-46b6-9963-61645f706362,rev?*
G04 #@! TF.SameCoordinates,Original*
G04 #@! TF.FileFunction,Soldermask,Top*
G04 #@! TF.FilePolarity,Negative*
%FSLAX46Y46*%
G04 Gerber Fmt 4.6, Leading zero omitted, Abs format (unit mm)*
G04 Created by KiCad (PCBNEW (5.1.2)-1) date 2019-06-20 04:44:42*
%MOMM*%
%LPD*%
G04 APERTURE LIST*
%ADD10C,0.100000*%
G04 APERTURE END LIST*
D10*
G36*
X160375256Y-148391298D02*
G01*
X160481579Y-148412447D01*
X160782042Y-148536903D01*
X161052451Y-148717585D01*
X161282415Y-148947549D01*
X161463097Y-149217958D01*
X161587553Y-149518421D01*
X161597547Y-149568663D01*
X161651000Y-149837389D01*
X161651000Y-150162611D01*
X161587553Y-150481578D01*
X161481294Y-150738112D01*
X161463097Y-150782042D01*
X161282415Y-151052451D01*
X161052451Y-151282415D01*
X160782042Y-151463097D01*
X160481579Y-151587553D01*
X160375256Y-151608702D01*
X160162611Y-151651000D01*
X159837389Y-151651000D01*
X159624744Y-151608702D01*
X159518421Y-151587553D01*
X159217958Y-151463097D01*
X158947549Y-151282415D01*
X158717585Y-151052451D01*
X158536903Y-150782042D01*
X158518707Y-150738112D01*
X158412447Y-150481578D01*
X158349000Y-150162611D01*
X158349000Y-149837389D01*
X158402453Y-149568663D01*
X158412447Y-149518421D01*
X158536903Y-149217958D01*
X158717585Y-148947549D01*
X158947549Y-148717585D01*
X159217958Y-148536903D01*
X159518421Y-148412447D01*
X159624744Y-148391298D01*
X159837389Y-148349000D01*
X160162611Y-148349000D01*
X160375256Y-148391298D01*
X160375256Y-148391298D01*
G37*
G36*
X70375256Y-148391298D02*
G01*
X70481579Y-148412447D01*
X70782042Y-148536903D01*
X71052451Y-148717585D01*
X71282415Y-148947549D01*
X71463097Y-149217958D01*
X71587553Y-149518421D01*
X71597547Y-149568663D01*
X71651000Y-149837389D01*
X71651000Y-150162611D01*
X71587553Y-150481578D01*
X71481294Y-150738112D01*
X71463097Y-150782042D01*
X71282415Y-151052451D01*
X71052451Y-151282415D01*
X70782042Y-151463097D01*
X70481579Y-151587553D01*
X70375256Y-151608702D01*
X70162611Y-151651000D01*
X69837389Y-151651000D01*
X69624744Y-151608702D01*
X69518421Y-151587553D01*
X69217958Y-151463097D01*
X68947549Y-151282415D01*
X68717585Y-151052451D01*
X68536903Y-150782042D01*
X68518707Y-150738112D01*
X68412447Y-150481578D01*
X68349000Y-150162611D01*
X68349000Y-149837389D01*
X68402453Y-149568663D01*
X68412447Y-149518421D01*
X68536903Y-149217958D01*
X68717585Y-148947549D01*
X68947549Y-148717585D01*
X69217958Y-148536903D01*
X69518421Y-148412447D01*
X69624744Y-148391298D01*
X69837389Y-148349000D01*
X70162611Y-148349000D01*
X70375256Y-148391298D01*
X70375256Y-148391298D01*
G37*
G36*
X86409468Y-149453565D02*
G01*
X86448138Y-149465296D01*
X86483777Y-149484346D01*
X86515017Y-149509983D01*
X86540654Y-149541223D01*
X86559704Y-149576862D01*
X86571435Y-149615532D01*
X86576000Y-149661888D01*
X86576000Y-150738112D01*
X86571435Y-150784468D01*
X86559704Y-150823138D01*
X86540654Y-150858777D01*
X86515017Y-150890017D01*
X86483777Y-150915654D01*
X86448138Y-150934704D01*
X86409468Y-150946435D01*
X86363112Y-150951000D01*
X85711888Y-150951000D01*
X85665532Y-150946435D01*
X85626862Y-150934704D01*
X85591223Y-150915654D01*
X85559983Y-150890017D01*
X85534346Y-150858777D01*
X85515296Y-150823138D01*
X85503565Y-150784468D01*
X85499000Y-150738112D01*
X85499000Y-149661888D01*
X85503565Y-149615532D01*
X85515296Y-149576862D01*
X85534346Y-149541223D01*
X85559983Y-149509983D01*
X85591223Y-149484346D01*
X85626862Y-149465296D01*
X85665532Y-149453565D01*
X85711888Y-149449000D01*
X86363112Y-149449000D01*
X86409468Y-149453565D01*
X86409468Y-149453565D01*
G37*
G36*
X84534468Y-149453565D02*
G01*
X84573138Y-149465296D01*
X84608777Y-149484346D01*
X84640017Y-149509983D01*
X84665654Y-149541223D01*
X84684704Y-149576862D01*
X84696435Y-149615532D01*
X84701000Y-149661888D01*
X84701000Y-150738112D01*
X84696435Y-150784468D01*
X84684704Y-150823138D01*
X84665654Y-150858777D01*
X84640017Y-150890017D01*
X84608777Y-150915654D01*
X84573138Y-150934704D01*
X84534468Y-150946435D01*
X84488112Y-150951000D01*
X83836888Y-150951000D01*
X83790532Y-150946435D01*
X83751862Y-150934704D01*
X83716223Y-150915654D01*
X83684983Y-150890017D01*
X83659346Y-150858777D01*
X83640296Y-150823138D01*
X83628565Y-150784468D01*
X83624000Y-150738112D01*
X83624000Y-149661888D01*
X83628565Y-149615532D01*
X83640296Y-149576862D01*
X83659346Y-149541223D01*
X83684983Y-149509983D01*
X83716223Y-149484346D01*
X83751862Y-149465296D01*
X83790532Y-149453565D01*
X83836888Y-149449000D01*
X84488112Y-149449000D01*
X84534468Y-149453565D01*
X84534468Y-149453565D01*
G37*
G36*
X86451000Y-148601000D02*
G01*
X85549000Y-148601000D01*
X85549000Y-147599000D01*
X86451000Y-147599000D01*
X86451000Y-148601000D01*
X86451000Y-148601000D01*
G37*
G36*
X76234468Y-146178565D02*
G01*
X76273138Y-146190296D01*
X76308777Y-146209346D01*
X76340017Y-146234983D01*
X76365654Y-146266223D01*
X76384704Y-146301862D01*
X76396435Y-146340532D01*
X76401000Y-146386888D01*
X76401000Y-147463112D01*
X76396435Y-147509468D01*
X76384704Y-147548138D01*
X76365654Y-147583777D01*
X76340017Y-147615017D01*
X76308777Y-147640654D01*
X76273138Y-147659704D01*
X76234468Y-147671435D01*
X76188112Y-147676000D01*
X75536888Y-147676000D01*
X75490532Y-147671435D01*
X75451862Y-147659704D01*
X75416223Y-147640654D01*
X75384983Y-147615017D01*
X75359346Y-147583777D01*
X75340296Y-147548138D01*
X75328565Y-147509468D01*
X75324000Y-147463112D01*
X75324000Y-146386888D01*
X75328565Y-146340532D01*
X75340296Y-146301862D01*
X75359346Y-146266223D01*
X75384983Y-146234983D01*
X75416223Y-146209346D01*
X75451862Y-146190296D01*
X75490532Y-146178565D01*
X75536888Y-146174000D01*
X76188112Y-146174000D01*
X76234468Y-146178565D01*
X76234468Y-146178565D01*
G37*
G36*
X74359468Y-146178565D02*
G01*
X74398138Y-146190296D01*
X74433777Y-146209346D01*
X74465017Y-146234983D01*
X74490654Y-146266223D01*
X74509704Y-146301862D01*
X74521435Y-146340532D01*
X74526000Y-146386888D01*
X74526000Y-147463112D01*
X74521435Y-147509468D01*
X74509704Y-147548138D01*
X74490654Y-147583777D01*
X74465017Y-147615017D01*
X74433777Y-147640654D01*
X74398138Y-147659704D01*
X74359468Y-147671435D01*
X74313112Y-147676000D01*
X73661888Y-147676000D01*
X73615532Y-147671435D01*
X73576862Y-147659704D01*
X73541223Y-147640654D01*
X73509983Y-147615017D01*
X73484346Y-147583777D01*
X73465296Y-147548138D01*
X73453565Y-147509468D01*
X73449000Y-147463112D01*
X73449000Y-146386888D01*
X73453565Y-146340532D01*
X73465296Y-146301862D01*
X73484346Y-146266223D01*
X73509983Y-146234983D01*
X73541223Y-146209346D01*
X73576862Y-146190296D01*
X73615532Y-146178565D01*
X73661888Y-146174000D01*
X74313112Y-146174000D01*
X74359468Y-146178565D01*
X74359468Y-146178565D01*
G37*
G36*
X85501000Y-146601000D02*
G01*
X84599000Y-146601000D01*
X84599000Y-145599000D01*
X85501000Y-145599000D01*
X85501000Y-146601000D01*
X85501000Y-146601000D01*
G37*
G36*
X87401000Y-146601000D02*
G01*
X86499000Y-146601000D01*
X86499000Y-145599000D01*
X87401000Y-145599000D01*
X87401000Y-146601000D01*
X87401000Y-146601000D01*
G37*
G36*
X111806564Y-143489389D02*
G01*
X111997833Y-143568615D01*
X111997835Y-143568616D01*
X112169973Y-143683635D01*
X112316365Y-143830027D01*
X112431385Y-144002167D01*
X112510611Y-144193436D01*
X112551000Y-144396484D01*
X112551000Y-144603516D01*
X112510611Y-144806564D01*
X112431385Y-144997833D01*
X112431384Y-144997835D01*
X112316365Y-145169973D01*
X112169973Y-145316365D01*
X111997835Y-145431384D01*
X111997834Y-145431385D01*
X111997833Y-145431385D01*
X111806564Y-145510611D01*
X111603516Y-145551000D01*
X111396484Y-145551000D01*
X111193436Y-145510611D01*
X111002167Y-145431385D01*
X111002166Y-145431385D01*
X111002165Y-145431384D01*
X110830027Y-145316365D01*
X110683635Y-145169973D01*
X110568616Y-144997835D01*
X110568615Y-144997833D01*
X110489389Y-144806564D01*
X110449000Y-144603516D01*
X110449000Y-144396484D01*
X110489389Y-144193436D01*
X110568615Y-144002167D01*
X110683635Y-143830027D01*
X110830027Y-143683635D01*
X111002165Y-143568616D01*
X111002167Y-143568615D01*
X111193436Y-143489389D01*
X111396484Y-143449000D01*
X111603516Y-143449000D01*
X111806564Y-143489389D01*
X111806564Y-143489389D01*
G37*
G36*
X141806564Y-143489389D02*
G01*
X141997833Y-143568615D01*
X141997835Y-143568616D01*
X142169973Y-143683635D01*
X142316365Y-143830027D01*
X142431385Y-144002167D01*
X142510611Y-144193436D01*
X142551000Y-144396484D01*
X142551000Y-144603516D01*
X142510611Y-144806564D01*
X142431385Y-144997833D01*
X142431384Y-144997835D01*
X142316365Y-145169973D01*
X142169973Y-145316365D01*
X141997835Y-145431384D01*
X141997834Y-145431385D01*
X141997833Y-145431385D01*
X141806564Y-145510611D01*
X141603516Y-145551000D01*
X141396484Y-145551000D01*
X141193436Y-145510611D01*
X141002167Y-145431385D01*
X141002166Y-145431385D01*
X141002165Y-145431384D01*
X140830027Y-145316365D01*
X140683635Y-145169973D01*
X140568616Y-144997835D01*
X140568615Y-144997833D01*
X140489389Y-144806564D01*
X140449000Y-144603516D01*
X140449000Y-144396484D01*
X140489389Y-144193436D01*
X140568615Y-144002167D01*
X140683635Y-143830027D01*
X140830027Y-143683635D01*
X141002165Y-143568616D01*
X141002167Y-143568615D01*
X141193436Y-143489389D01*
X141396484Y-143449000D01*
X141603516Y-143449000D01*
X141806564Y-143489389D01*
X141806564Y-143489389D01*
G37*
G36*
X135306564Y-143489389D02*
G01*
X135497833Y-143568615D01*
X135497835Y-143568616D01*
X135669973Y-143683635D01*
X135816365Y-143830027D01*
X135931385Y-144002167D01*
X136010611Y-144193436D01*
X136051000Y-144396484D01*
X136051000Y-144603516D01*
X136010611Y-144806564D01*
X135931385Y-144997833D01*
X135931384Y-144997835D01*
X135816365Y-145169973D01*
X135669973Y-145316365D01*
X135497835Y-145431384D01*
X135497834Y-145431385D01*
X135497833Y-145431385D01*
X135306564Y-145510611D01*
X135103516Y-145551000D01*
X134896484Y-145551000D01*
X134693436Y-145510611D01*
X134502167Y-145431385D01*
X134502166Y-145431385D01*
X134502165Y-145431384D01*
X134330027Y-145316365D01*
X134183635Y-145169973D01*
X134068616Y-144997835D01*
X134068615Y-144997833D01*
X133989389Y-144806564D01*
X133949000Y-144603516D01*
X133949000Y-144396484D01*
X133989389Y-144193436D01*
X134068615Y-144002167D01*
X134183635Y-143830027D01*
X134330027Y-143683635D01*
X134502165Y-143568616D01*
X134502167Y-143568615D01*
X134693436Y-143489389D01*
X134896484Y-143449000D01*
X135103516Y-143449000D01*
X135306564Y-143489389D01*
X135306564Y-143489389D01*
G37*
G36*
X150306564Y-143489389D02*
G01*
X150497833Y-143568615D01*
X150497835Y-143568616D01*
X150669973Y-143683635D01*
X150816365Y-143830027D01*
X150931385Y-144002167D01*
X151010611Y-144193436D01*
X151051000Y-144396484D01*
X151051000Y-144603516D01*
X151010611Y-144806564D01*
X150931385Y-144997833D01*
X150931384Y-144997835D01*
X150816365Y-145169973D01*
X150669973Y-145316365D01*
X150497835Y-145431384D01*
X150497834Y-145431385D01*
X150497833Y-145431385D01*
X150306564Y-145510611D01*
X150103516Y-145551000D01*
X149896484Y-145551000D01*
X149693436Y-145510611D01*
X149502167Y-145431385D01*
X149502166Y-145431385D01*
X149502165Y-145431384D01*
X149330027Y-145316365D01*
X149183635Y-145169973D01*
X149068616Y-144997835D01*
X149068615Y-144997833D01*
X148989389Y-144806564D01*
X148949000Y-144603516D01*
X148949000Y-144396484D01*
X148989389Y-144193436D01*
X149068615Y-144002167D01*
X149183635Y-143830027D01*
X149330027Y-143683635D01*
X149502165Y-143568616D01*
X149502167Y-143568615D01*
X149693436Y-143489389D01*
X149896484Y-143449000D01*
X150103516Y-143449000D01*
X150306564Y-143489389D01*
X150306564Y-143489389D01*
G37*
G36*
X120306564Y-143489389D02*
G01*
X120497833Y-143568615D01*
X120497835Y-143568616D01*
X120669973Y-143683635D01*
X120816365Y-143830027D01*
X120931385Y-144002167D01*
X121010611Y-144193436D01*
X121051000Y-144396484D01*
X121051000Y-144603516D01*
X121010611Y-144806564D01*
X120931385Y-144997833D01*
X120931384Y-144997835D01*
X120816365Y-145169973D01*
X120669973Y-145316365D01*
X120497835Y-145431384D01*
X120497834Y-145431385D01*
X120497833Y-145431385D01*
X120306564Y-145510611D01*
X120103516Y-145551000D01*
X119896484Y-145551000D01*
X119693436Y-145510611D01*
X119502167Y-145431385D01*
X119502166Y-145431385D01*
X119502165Y-145431384D01*
X119330027Y-145316365D01*
X119183635Y-145169973D01*
X119068616Y-144997835D01*
X119068615Y-144997833D01*
X118989389Y-144806564D01*
X118949000Y-144603516D01*
X118949000Y-144396484D01*
X118989389Y-144193436D01*
X119068615Y-144002167D01*
X119183635Y-143830027D01*
X119330027Y-143683635D01*
X119502165Y-143568616D01*
X119502167Y-143568615D01*
X119693436Y-143489389D01*
X119896484Y-143449000D01*
X120103516Y-143449000D01*
X120306564Y-143489389D01*
X120306564Y-143489389D01*
G37*
G36*
X90306564Y-143489389D02*
G01*
X90497833Y-143568615D01*
X90497835Y-143568616D01*
X90669973Y-143683635D01*
X90816365Y-143830027D01*
X90931385Y-144002167D01*
X91010611Y-144193436D01*
X91051000Y-144396484D01*
X91051000Y-144603516D01*
X91010611Y-144806564D01*
X90931385Y-144997833D01*
X90931384Y-144997835D01*
X90816365Y-145169973D01*
X90669973Y-145316365D01*
X90497835Y-145431384D01*
X90497834Y-145431385D01*
X90497833Y-145431385D01*
X90306564Y-145510611D01*
X90103516Y-145551000D01*
X89896484Y-145551000D01*
X89693436Y-145510611D01*
X89502167Y-145431385D01*
X89502166Y-145431385D01*
X89502165Y-145431384D01*
X89330027Y-145316365D01*
X89183635Y-145169973D01*
X89068616Y-144997835D01*
X89068615Y-144997833D01*
X88989389Y-144806564D01*
X88949000Y-144603516D01*
X88949000Y-144396484D01*
X88989389Y-144193436D01*
X89068615Y-144002167D01*
X89183635Y-143830027D01*
X89330027Y-143683635D01*
X89502165Y-143568616D01*
X89502167Y-143568615D01*
X89693436Y-143489389D01*
X89896484Y-143449000D01*
X90103516Y-143449000D01*
X90306564Y-143489389D01*
X90306564Y-143489389D01*
G37*
G36*
X96806564Y-143489389D02*
G01*
X96997833Y-143568615D01*
X96997835Y-143568616D01*
X97169973Y-143683635D01*
X97316365Y-143830027D01*
X97431385Y-144002167D01*
X97510611Y-144193436D01*
X97551000Y-144396484D01*
X97551000Y-144603516D01*
X97510611Y-144806564D01*
X97431385Y-144997833D01*
X97431384Y-144997835D01*
X97316365Y-145169973D01*
X97169973Y-145316365D01*
X96997835Y-145431384D01*
X96997834Y-145431385D01*
X96997833Y-145431385D01*
X96806564Y-145510611D01*
X96603516Y-145551000D01*
X96396484Y-145551000D01*
X96193436Y-145510611D01*
X96002167Y-145431385D01*
X96002166Y-145431385D01*
X96002165Y-145431384D01*
X95830027Y-145316365D01*
X95683635Y-145169973D01*
X95568616Y-144997835D01*
X95568615Y-144997833D01*
X95489389Y-144806564D01*
X95449000Y-144603516D01*
X95449000Y-144396484D01*
X95489389Y-144193436D01*
X95568615Y-144002167D01*
X95683635Y-143830027D01*
X95830027Y-143683635D01*
X96002165Y-143568616D01*
X96002167Y-143568615D01*
X96193436Y-143489389D01*
X96396484Y-143449000D01*
X96603516Y-143449000D01*
X96806564Y-143489389D01*
X96806564Y-143489389D01*
G37*
G36*
X126806564Y-143489389D02*
G01*
X126997833Y-143568615D01*
X126997835Y-143568616D01*
X127169973Y-143683635D01*
X127316365Y-143830027D01*
X127431385Y-144002167D01*
X127510611Y-144193436D01*
X127551000Y-144396484D01*
X127551000Y-144603516D01*
X127510611Y-144806564D01*
X127431385Y-144997833D01*
X127431384Y-144997835D01*
X127316365Y-145169973D01*
X127169973Y-145316365D01*
X126997835Y-145431384D01*
X126997834Y-145431385D01*
X126997833Y-145431385D01*
X126806564Y-145510611D01*
X126603516Y-145551000D01*
X126396484Y-145551000D01*
X126193436Y-145510611D01*
X126002167Y-145431385D01*
X126002166Y-145431385D01*
X126002165Y-145431384D01*
X125830027Y-145316365D01*
X125683635Y-145169973D01*
X125568616Y-144997835D01*
X125568615Y-144997833D01*
X125489389Y-144806564D01*
X125449000Y-144603516D01*
X125449000Y-144396484D01*
X125489389Y-144193436D01*
X125568615Y-144002167D01*
X125683635Y-143830027D01*
X125830027Y-143683635D01*
X126002165Y-143568616D01*
X126002167Y-143568615D01*
X126193436Y-143489389D01*
X126396484Y-143449000D01*
X126603516Y-143449000D01*
X126806564Y-143489389D01*
X126806564Y-143489389D01*
G37*
G36*
X156806564Y-143489389D02*
G01*
X156997833Y-143568615D01*
X156997835Y-143568616D01*
X157169973Y-143683635D01*
X157316365Y-143830027D01*
X157431385Y-144002167D01*
X157510611Y-144193436D01*
X157551000Y-144396484D01*
X157551000Y-144603516D01*
X157510611Y-144806564D01*
X157431385Y-144997833D01*
X157431384Y-144997835D01*
X157316365Y-145169973D01*
X157169973Y-145316365D01*
X156997835Y-145431384D01*
X156997834Y-145431385D01*
X156997833Y-145431385D01*
X156806564Y-145510611D01*
X156603516Y-145551000D01*
X156396484Y-145551000D01*
X156193436Y-145510611D01*
X156002167Y-145431385D01*
X156002166Y-145431385D01*
X156002165Y-145431384D01*
X155830027Y-145316365D01*
X155683635Y-145169973D01*
X155568616Y-144997835D01*
X155568615Y-144997833D01*
X155489389Y-144806564D01*
X155449000Y-144603516D01*
X155449000Y-144396484D01*
X155489389Y-144193436D01*
X155568615Y-144002167D01*
X155683635Y-143830027D01*
X155830027Y-143683635D01*
X156002165Y-143568616D01*
X156002167Y-143568615D01*
X156193436Y-143489389D01*
X156396484Y-143449000D01*
X156603516Y-143449000D01*
X156806564Y-143489389D01*
X156806564Y-143489389D01*
G37*
G36*
X105306564Y-143489389D02*
G01*
X105497833Y-143568615D01*
X105497835Y-143568616D01*
X105669973Y-143683635D01*
X105816365Y-143830027D01*
X105931385Y-144002167D01*
X106010611Y-144193436D01*
X106051000Y-144396484D01*
X106051000Y-144603516D01*
X106010611Y-144806564D01*
X105931385Y-144997833D01*
X105931384Y-144997835D01*
X105816365Y-145169973D01*
X105669973Y-145316365D01*
X105497835Y-145431384D01*
X105497834Y-145431385D01*
X105497833Y-145431385D01*
X105306564Y-145510611D01*
X105103516Y-145551000D01*
X104896484Y-145551000D01*
X104693436Y-145510611D01*
X104502167Y-145431385D01*
X104502166Y-145431385D01*
X104502165Y-145431384D01*
X104330027Y-145316365D01*
X104183635Y-145169973D01*
X104068616Y-144997835D01*
X104068615Y-144997833D01*
X103989389Y-144806564D01*
X103949000Y-144603516D01*
X103949000Y-144396484D01*
X103989389Y-144193436D01*
X104068615Y-144002167D01*
X104183635Y-143830027D01*
X104330027Y-143683635D01*
X104502165Y-143568616D01*
X104502167Y-143568615D01*
X104693436Y-143489389D01*
X104896484Y-143449000D01*
X105103516Y-143449000D01*
X105306564Y-143489389D01*
X105306564Y-143489389D01*
G37*
G36*
X76466000Y-145486000D02*
G01*
X75564000Y-145486000D01*
X75564000Y-144684000D01*
X76466000Y-144684000D01*
X76466000Y-145486000D01*
X76466000Y-145486000D01*
G37*
G36*
X74436000Y-145486000D02*
G01*
X73534000Y-145486000D01*
X73534000Y-144684000D01*
X74436000Y-144684000D01*
X74436000Y-145486000D01*
X74436000Y-145486000D01*
G37*
G36*
X76466000Y-144316000D02*
G01*
X75564000Y-144316000D01*
X75564000Y-143514000D01*
X76466000Y-143514000D01*
X76466000Y-144316000D01*
X76466000Y-144316000D01*
G37*
G36*
X74436000Y-144316000D02*
G01*
X73534000Y-144316000D01*
X73534000Y-143514000D01*
X74436000Y-143514000D01*
X74436000Y-144316000D01*
X74436000Y-144316000D01*
G37*
G36*
X135306564Y-138989389D02*
G01*
X135497833Y-139068615D01*
X135497835Y-139068616D01*
X135669973Y-139183635D01*
X135816365Y-139330027D01*
X135880256Y-139425646D01*
X135931385Y-139502167D01*
X136010611Y-139693436D01*
X136051000Y-139896484D01*
X136051000Y-140103516D01*
X136010611Y-140306564D01*
X135960815Y-140426782D01*
X135931384Y-140497835D01*
X135816365Y-140669973D01*
X135669973Y-140816365D01*
X135497835Y-140931384D01*
X135497834Y-140931385D01*
X135497833Y-140931385D01*
X135306564Y-141010611D01*
X135103516Y-141051000D01*
X134896484Y-141051000D01*
X134693436Y-141010611D01*
X134502167Y-140931385D01*
X134502166Y-140931385D01*
X134502165Y-140931384D01*
X134330027Y-140816365D01*
X134183635Y-140669973D01*
X134068616Y-140497835D01*
X134039185Y-140426782D01*
X133989389Y-140306564D01*
X133949000Y-140103516D01*
X133949000Y-139896484D01*
X133989389Y-139693436D01*
X134068615Y-139502167D01*
X134119745Y-139425646D01*
X134183635Y-139330027D01*
X134330027Y-139183635D01*
X134502165Y-139068616D01*
X134502167Y-139068615D01*
X134693436Y-138989389D01*
X134896484Y-138949000D01*
X135103516Y-138949000D01*
X135306564Y-138989389D01*
X135306564Y-138989389D01*
G37*
G36*
X96806564Y-138989389D02*
G01*
X96997833Y-139068615D01*
X96997835Y-139068616D01*
X97169973Y-139183635D01*
X97316365Y-139330027D01*
X97380256Y-139425646D01*
X97431385Y-139502167D01*
X97510611Y-139693436D01*
X97551000Y-139896484D01*
X97551000Y-140103516D01*
X97510611Y-140306564D01*
X97460815Y-140426782D01*
X97431384Y-140497835D01*
X97316365Y-140669973D01*
X97169973Y-140816365D01*
X96997835Y-140931384D01*
X96997834Y-140931385D01*
X96997833Y-140931385D01*
X96806564Y-141010611D01*
X96603516Y-141051000D01*
X96396484Y-141051000D01*
X96193436Y-141010611D01*
X96002167Y-140931385D01*
X96002166Y-140931385D01*
X96002165Y-140931384D01*
X95830027Y-140816365D01*
X95683635Y-140669973D01*
X95568616Y-140497835D01*
X95539185Y-140426782D01*
X95489389Y-140306564D01*
X95449000Y-140103516D01*
X95449000Y-139896484D01*
X95489389Y-139693436D01*
X95568615Y-139502167D01*
X95619745Y-139425646D01*
X95683635Y-139330027D01*
X95830027Y-139183635D01*
X96002165Y-139068616D01*
X96002167Y-139068615D01*
X96193436Y-138989389D01*
X96396484Y-138949000D01*
X96603516Y-138949000D01*
X96806564Y-138989389D01*
X96806564Y-138989389D01*
G37*
G36*
X90306564Y-138989389D02*
G01*
X90497833Y-139068615D01*
X90497835Y-139068616D01*
X90669973Y-139183635D01*
X90816365Y-139330027D01*
X90880256Y-139425646D01*
X90931385Y-139502167D01*
X91010611Y-139693436D01*
X91051000Y-139896484D01*
X91051000Y-140103516D01*
X91010611Y-140306564D01*
X90960815Y-140426782D01*
X90931384Y-140497835D01*
X90816365Y-140669973D01*
X90669973Y-140816365D01*
X90497835Y-140931384D01*
X90497834Y-140931385D01*
X90497833Y-140931385D01*
X90306564Y-141010611D01*
X90103516Y-141051000D01*
X89896484Y-141051000D01*
X89693436Y-141010611D01*
X89502167Y-140931385D01*
X89502166Y-140931385D01*
X89502165Y-140931384D01*
X89330027Y-140816365D01*
X89183635Y-140669973D01*
X89068616Y-140497835D01*
X89039185Y-140426782D01*
X88989389Y-140306564D01*
X88949000Y-140103516D01*
X88949000Y-139896484D01*
X88989389Y-139693436D01*
X89068615Y-139502167D01*
X89119745Y-139425646D01*
X89183635Y-139330027D01*
X89330027Y-139183635D01*
X89502165Y-139068616D01*
X89502167Y-139068615D01*
X89693436Y-138989389D01*
X89896484Y-138949000D01*
X90103516Y-138949000D01*
X90306564Y-138989389D01*
X90306564Y-138989389D01*
G37*
G36*
X105306564Y-138989389D02*
G01*
X105497833Y-139068615D01*
X105497835Y-139068616D01*
X105669973Y-139183635D01*
X105816365Y-139330027D01*
X105880256Y-139425646D01*
X105931385Y-139502167D01*
X106010611Y-139693436D01*
X106051000Y-139896484D01*
X106051000Y-140103516D01*
X106010611Y-140306564D01*
X105960815Y-140426782D01*
X105931384Y-140497835D01*
X105816365Y-140669973D01*
X105669973Y-140816365D01*
X105497835Y-140931384D01*
X105497834Y-140931385D01*
X105497833Y-140931385D01*
X105306564Y-141010611D01*
X105103516Y-141051000D01*
X104896484Y-141051000D01*
X104693436Y-141010611D01*
X104502167Y-140931385D01*
X104502166Y-140931385D01*
X104502165Y-140931384D01*
X104330027Y-140816365D01*
X104183635Y-140669973D01*
X104068616Y-140497835D01*
X104039185Y-140426782D01*
X103989389Y-140306564D01*
X103949000Y-140103516D01*
X103949000Y-139896484D01*
X103989389Y-139693436D01*
X104068615Y-139502167D01*
X104119745Y-139425646D01*
X104183635Y-139330027D01*
X104330027Y-139183635D01*
X104502165Y-139068616D01*
X104502167Y-139068615D01*
X104693436Y-138989389D01*
X104896484Y-138949000D01*
X105103516Y-138949000D01*
X105306564Y-138989389D01*
X105306564Y-138989389D01*
G37*
G36*
X111806564Y-138989389D02*
G01*
X111997833Y-139068615D01*
X111997835Y-139068616D01*
X112169973Y-139183635D01*
X112316365Y-139330027D01*
X112380256Y-139425646D01*
X112431385Y-139502167D01*
X112510611Y-139693436D01*
X112551000Y-139896484D01*
X112551000Y-140103516D01*
X112510611Y-140306564D01*
X112460815Y-140426782D01*
X112431384Y-140497835D01*
X112316365Y-140669973D01*
X112169973Y-140816365D01*
X111997835Y-140931384D01*
X111997834Y-140931385D01*
X111997833Y-140931385D01*
X111806564Y-141010611D01*
X111603516Y-141051000D01*
X111396484Y-141051000D01*
X111193436Y-141010611D01*
X111002167Y-140931385D01*
X111002166Y-140931385D01*
X111002165Y-140931384D01*
X110830027Y-140816365D01*
X110683635Y-140669973D01*
X110568616Y-140497835D01*
X110539185Y-140426782D01*
X110489389Y-140306564D01*
X110449000Y-140103516D01*
X110449000Y-139896484D01*
X110489389Y-139693436D01*
X110568615Y-139502167D01*
X110619745Y-139425646D01*
X110683635Y-139330027D01*
X110830027Y-139183635D01*
X111002165Y-139068616D01*
X111002167Y-139068615D01*
X111193436Y-138989389D01*
X111396484Y-138949000D01*
X111603516Y-138949000D01*
X111806564Y-138989389D01*
X111806564Y-138989389D01*
G37*
G36*
X156806564Y-138989389D02*
G01*
X156997833Y-139068615D01*
X156997835Y-139068616D01*
X157169973Y-139183635D01*
X157316365Y-139330027D01*
X157380256Y-139425646D01*
X157431385Y-139502167D01*
X157510611Y-139693436D01*
X157551000Y-139896484D01*
X157551000Y-140103516D01*
X157510611Y-140306564D01*
X157460815Y-140426782D01*
X157431384Y-140497835D01*
X157316365Y-140669973D01*
X157169973Y-140816365D01*
X156997835Y-140931384D01*
X156997834Y-140931385D01*
X156997833Y-140931385D01*
X156806564Y-141010611D01*
X156603516Y-141051000D01*
X156396484Y-141051000D01*
X156193436Y-141010611D01*
X156002167Y-140931385D01*
X156002166Y-140931385D01*
X156002165Y-140931384D01*
X155830027Y-140816365D01*
X155683635Y-140669973D01*
X155568616Y-140497835D01*
X155539185Y-140426782D01*
X155489389Y-140306564D01*
X155449000Y-140103516D01*
X155449000Y-139896484D01*
X155489389Y-139693436D01*
X155568615Y-139502167D01*
X155619745Y-139425646D01*
X155683635Y-139330027D01*
X155830027Y-139183635D01*
X156002165Y-139068616D01*
X156002167Y-139068615D01*
X156193436Y-138989389D01*
X156396484Y-138949000D01*
X156603516Y-138949000D01*
X156806564Y-138989389D01*
X156806564Y-138989389D01*
G37*
G36*
X141806564Y-138989389D02*
G01*
X141997833Y-139068615D01*
X141997835Y-139068616D01*
X142169973Y-139183635D01*
X142316365Y-139330027D01*
X142380256Y-139425646D01*
X142431385Y-139502167D01*
X142510611Y-139693436D01*
X142551000Y-139896484D01*
X142551000Y-140103516D01*
X142510611Y-140306564D01*
X142460815Y-140426782D01*
X142431384Y-140497835D01*
X142316365Y-140669973D01*
X142169973Y-140816365D01*
X141997835Y-140931384D01*
X141997834Y-140931385D01*
X141997833Y-140931385D01*
X141806564Y-141010611D01*
X141603516Y-141051000D01*
X141396484Y-141051000D01*
X141193436Y-141010611D01*
X141002167Y-140931385D01*
X141002166Y-140931385D01*
X141002165Y-140931384D01*
X140830027Y-140816365D01*
X140683635Y-140669973D01*
X140568616Y-140497835D01*
X140539185Y-140426782D01*
X140489389Y-140306564D01*
X140449000Y-140103516D01*
X140449000Y-139896484D01*
X140489389Y-139693436D01*
X140568615Y-139502167D01*
X140619745Y-139425646D01*
X140683635Y-139330027D01*
X140830027Y-139183635D01*
X141002165Y-139068616D01*
X141002167Y-139068615D01*
X141193436Y-138989389D01*
X141396484Y-138949000D01*
X141603516Y-138949000D01*
X141806564Y-138989389D01*
X141806564Y-138989389D01*
G37*
G36*
X126806564Y-138989389D02*
G01*
X126997833Y-139068615D01*
X126997835Y-139068616D01*
X127169973Y-139183635D01*
X127316365Y-139330027D01*
X127380256Y-139425646D01*
X127431385Y-139502167D01*
X127510611Y-139693436D01*
X127551000Y-139896484D01*
X127551000Y-140103516D01*
X127510611Y-140306564D01*
X127460815Y-140426782D01*
X127431384Y-140497835D01*
X127316365Y-140669973D01*
X127169973Y-140816365D01*
X126997835Y-140931384D01*
X126997834Y-140931385D01*
X126997833Y-140931385D01*
X126806564Y-141010611D01*
X126603516Y-141051000D01*
X126396484Y-141051000D01*
X126193436Y-141010611D01*
X126002167Y-140931385D01*
X126002166Y-140931385D01*
X126002165Y-140931384D01*
X125830027Y-140816365D01*
X125683635Y-140669973D01*
X125568616Y-140497835D01*
X125539185Y-140426782D01*
X125489389Y-140306564D01*
X125449000Y-140103516D01*
X125449000Y-139896484D01*
X125489389Y-139693436D01*
X125568615Y-139502167D01*
X125619745Y-139425646D01*
X125683635Y-139330027D01*
X125830027Y-139183635D01*
X126002165Y-139068616D01*
X126002167Y-139068615D01*
X126193436Y-138989389D01*
X126396484Y-138949000D01*
X126603516Y-138949000D01*
X126806564Y-138989389D01*
X126806564Y-138989389D01*
G37*
G36*
X120306564Y-138989389D02*
G01*
X120497833Y-139068615D01*
X120497835Y-139068616D01*
X120669973Y-139183635D01*
X120816365Y-139330027D01*
X120880256Y-139425646D01*
X120931385Y-139502167D01*
X121010611Y-139693436D01*
X121051000Y-139896484D01*
X121051000Y-140103516D01*
X121010611Y-140306564D01*
X120960815Y-140426782D01*
X120931384Y-140497835D01*
X120816365Y-140669973D01*
X120669973Y-140816365D01*
X120497835Y-140931384D01*
X120497834Y-140931385D01*
X120497833Y-140931385D01*
X120306564Y-141010611D01*
X120103516Y-141051000D01*
X119896484Y-141051000D01*
X119693436Y-141010611D01*
X119502167Y-140931385D01*
X119502166Y-140931385D01*
X119502165Y-140931384D01*
X119330027Y-140816365D01*
X119183635Y-140669973D01*
X119068616Y-140497835D01*
X119039185Y-140426782D01*
X118989389Y-140306564D01*
X118949000Y-140103516D01*
X118949000Y-139896484D01*
X118989389Y-139693436D01*
X119068615Y-139502167D01*
X119119745Y-139425646D01*
X119183635Y-139330027D01*
X119330027Y-139183635D01*
X119502165Y-139068616D01*
X119502167Y-139068615D01*
X119693436Y-138989389D01*
X119896484Y-138949000D01*
X120103516Y-138949000D01*
X120306564Y-138989389D01*
X120306564Y-138989389D01*
G37*
G36*
X150306564Y-138989389D02*
G01*
X150497833Y-139068615D01*
X150497835Y-139068616D01*
X150669973Y-139183635D01*
X150816365Y-139330027D01*
X150880256Y-139425646D01*
X150931385Y-139502167D01*
X151010611Y-139693436D01*
X151051000Y-139896484D01*
X151051000Y-140103516D01*
X151010611Y-140306564D01*
X150960815Y-140426782D01*
X150931384Y-140497835D01*
X150816365Y-140669973D01*
X150669973Y-140816365D01*
X150497835Y-140931384D01*
X150497834Y-140931385D01*
X150497833Y-140931385D01*
X150306564Y-141010611D01*
X150103516Y-141051000D01*
X149896484Y-141051000D01*
X149693436Y-141010611D01*
X149502167Y-140931385D01*
X149502166Y-140931385D01*
X149502165Y-140931384D01*
X149330027Y-140816365D01*
X149183635Y-140669973D01*
X149068616Y-140497835D01*
X149039185Y-140426782D01*
X148989389Y-140306564D01*
X148949000Y-140103516D01*
X148949000Y-139896484D01*
X148989389Y-139693436D01*
X149068615Y-139502167D01*
X149119745Y-139425646D01*
X149183635Y-139330027D01*
X149330027Y-139183635D01*
X149502165Y-139068616D01*
X149502167Y-139068615D01*
X149693436Y-138989389D01*
X149896484Y-138949000D01*
X150103516Y-138949000D01*
X150306564Y-138989389D01*
X150306564Y-138989389D01*
G37*
G36*
X73451000Y-140951000D02*
G01*
X71549000Y-140951000D01*
X71549000Y-139049000D01*
X73451000Y-139049000D01*
X73451000Y-140951000D01*
X73451000Y-140951000D01*
G37*
G36*
X75113512Y-139103927D02*
G01*
X75262812Y-139133624D01*
X75426784Y-139201544D01*
X75574354Y-139300147D01*
X75699853Y-139425646D01*
X75798456Y-139573216D01*
X75866376Y-139737188D01*
X75901000Y-139911259D01*
X75901000Y-140088741D01*
X75866376Y-140262812D01*
X75798456Y-140426784D01*
X75699853Y-140574354D01*
X75574354Y-140699853D01*
X75426784Y-140798456D01*
X75262812Y-140866376D01*
X75113512Y-140896073D01*
X75088742Y-140901000D01*
X74911258Y-140901000D01*
X74886488Y-140896073D01*
X74737188Y-140866376D01*
X74573216Y-140798456D01*
X74425646Y-140699853D01*
X74300147Y-140574354D01*
X74201544Y-140426784D01*
X74133624Y-140262812D01*
X74099000Y-140088741D01*
X74099000Y-139911259D01*
X74133624Y-139737188D01*
X74201544Y-139573216D01*
X74300147Y-139425646D01*
X74425646Y-139300147D01*
X74573216Y-139201544D01*
X74737188Y-139133624D01*
X74886488Y-139103927D01*
X74911258Y-139099000D01*
X75088742Y-139099000D01*
X75113512Y-139103927D01*
X75113512Y-139103927D01*
G37*
G36*
X77613512Y-139103927D02*
G01*
X77762812Y-139133624D01*
X77926784Y-139201544D01*
X78074354Y-139300147D01*
X78199853Y-139425646D01*
X78298456Y-139573216D01*
X78366376Y-139737188D01*
X78401000Y-139911259D01*
X78401000Y-140088741D01*
X78366376Y-140262812D01*
X78298456Y-140426784D01*
X78199853Y-140574354D01*
X78074354Y-140699853D01*
X77926784Y-140798456D01*
X77762812Y-140866376D01*
X77613512Y-140896073D01*
X77588742Y-140901000D01*
X77411258Y-140901000D01*
X77386488Y-140896073D01*
X77237188Y-140866376D01*
X77073216Y-140798456D01*
X76925646Y-140699853D01*
X76800147Y-140574354D01*
X76701544Y-140426784D01*
X76633624Y-140262812D01*
X76599000Y-140088741D01*
X76599000Y-139911259D01*
X76633624Y-139737188D01*
X76701544Y-139573216D01*
X76800147Y-139425646D01*
X76925646Y-139300147D01*
X77073216Y-139201544D01*
X77237188Y-139133624D01*
X77386488Y-139103927D01*
X77411258Y-139099000D01*
X77588742Y-139099000D01*
X77613512Y-139103927D01*
X77613512Y-139103927D01*
G37*
G36*
X81651000Y-134151000D02*
G01*
X79549000Y-134151000D01*
X79549000Y-130849000D01*
X81651000Y-130849000D01*
X81651000Y-134151000D01*
X81651000Y-134151000D01*
G37*
G36*
X70451000Y-134151000D02*
G01*
X68349000Y-134151000D01*
X68349000Y-130849000D01*
X70451000Y-130849000D01*
X70451000Y-134151000D01*
X70451000Y-134151000D01*
G37*
G36*
X105306564Y-128489389D02*
G01*
X105497833Y-128568615D01*
X105497835Y-128568616D01*
X105669973Y-128683635D01*
X105816365Y-128830027D01*
X105931385Y-129002167D01*
X106010611Y-129193436D01*
X106051000Y-129396484D01*
X106051000Y-129603516D01*
X106010611Y-129806564D01*
X105931385Y-129997833D01*
X105931384Y-129997835D01*
X105816365Y-130169973D01*
X105669973Y-130316365D01*
X105497835Y-130431384D01*
X105497834Y-130431385D01*
X105497833Y-130431385D01*
X105306564Y-130510611D01*
X105103516Y-130551000D01*
X104896484Y-130551000D01*
X104693436Y-130510611D01*
X104502167Y-130431385D01*
X104502166Y-130431385D01*
X104502165Y-130431384D01*
X104330027Y-130316365D01*
X104183635Y-130169973D01*
X104068616Y-129997835D01*
X104068615Y-129997833D01*
X103989389Y-129806564D01*
X103949000Y-129603516D01*
X103949000Y-129396484D01*
X103989389Y-129193436D01*
X104068615Y-129002167D01*
X104183635Y-128830027D01*
X104330027Y-128683635D01*
X104502165Y-128568616D01*
X104502167Y-128568615D01*
X104693436Y-128489389D01*
X104896484Y-128449000D01*
X105103516Y-128449000D01*
X105306564Y-128489389D01*
X105306564Y-128489389D01*
G37*
G36*
X156806564Y-128489389D02*
G01*
X156997833Y-128568615D01*
X156997835Y-128568616D01*
X157169973Y-128683635D01*
X157316365Y-128830027D01*
X157431385Y-129002167D01*
X157510611Y-129193436D01*
X157551000Y-129396484D01*
X157551000Y-129603516D01*
X157510611Y-129806564D01*
X157431385Y-129997833D01*
X157431384Y-129997835D01*
X157316365Y-130169973D01*
X157169973Y-130316365D01*
X156997835Y-130431384D01*
X156997834Y-130431385D01*
X156997833Y-130431385D01*
X156806564Y-130510611D01*
X156603516Y-130551000D01*
X156396484Y-130551000D01*
X156193436Y-130510611D01*
X156002167Y-130431385D01*
X156002166Y-130431385D01*
X156002165Y-130431384D01*
X155830027Y-130316365D01*
X155683635Y-130169973D01*
X155568616Y-129997835D01*
X155568615Y-129997833D01*
X155489389Y-129806564D01*
X155449000Y-129603516D01*
X155449000Y-129396484D01*
X155489389Y-129193436D01*
X155568615Y-129002167D01*
X155683635Y-128830027D01*
X155830027Y-128683635D01*
X156002165Y-128568616D01*
X156002167Y-128568615D01*
X156193436Y-128489389D01*
X156396484Y-128449000D01*
X156603516Y-128449000D01*
X156806564Y-128489389D01*
X156806564Y-128489389D01*
G37*
G36*
X150306564Y-128489389D02*
G01*
X150497833Y-128568615D01*
X150497835Y-128568616D01*
X150669973Y-128683635D01*
X150816365Y-128830027D01*
X150931385Y-129002167D01*
X151010611Y-129193436D01*
X151051000Y-129396484D01*
X151051000Y-129603516D01*
X151010611Y-129806564D01*
X150931385Y-129997833D01*
X150931384Y-129997835D01*
X150816365Y-130169973D01*
X150669973Y-130316365D01*
X150497835Y-130431384D01*
X150497834Y-130431385D01*
X150497833Y-130431385D01*
X150306564Y-130510611D01*
X150103516Y-130551000D01*
X149896484Y-130551000D01*
X149693436Y-130510611D01*
X149502167Y-130431385D01*
X149502166Y-130431385D01*
X149502165Y-130431384D01*
X149330027Y-130316365D01*
X149183635Y-130169973D01*
X149068616Y-129997835D01*
X149068615Y-129997833D01*
X148989389Y-129806564D01*
X148949000Y-129603516D01*
X148949000Y-129396484D01*
X148989389Y-129193436D01*
X149068615Y-129002167D01*
X149183635Y-128830027D01*
X149330027Y-128683635D01*
X149502165Y-128568616D01*
X149502167Y-128568615D01*
X149693436Y-128489389D01*
X149896484Y-128449000D01*
X150103516Y-128449000D01*
X150306564Y-128489389D01*
X150306564Y-128489389D01*
G37*
G36*
X96806564Y-128489389D02*
G01*
X96997833Y-128568615D01*
X96997835Y-128568616D01*
X97169973Y-128683635D01*
X97316365Y-128830027D01*
X97431385Y-129002167D01*
X97510611Y-129193436D01*
X97551000Y-129396484D01*
X97551000Y-129603516D01*
X97510611Y-129806564D01*
X97431385Y-129997833D01*
X97431384Y-129997835D01*
X97316365Y-130169973D01*
X97169973Y-130316365D01*
X96997835Y-130431384D01*
X96997834Y-130431385D01*
X96997833Y-130431385D01*
X96806564Y-130510611D01*
X96603516Y-130551000D01*
X96396484Y-130551000D01*
X96193436Y-130510611D01*
X96002167Y-130431385D01*
X96002166Y-130431385D01*
X96002165Y-130431384D01*
X95830027Y-130316365D01*
X95683635Y-130169973D01*
X95568616Y-129997835D01*
X95568615Y-129997833D01*
X95489389Y-129806564D01*
X95449000Y-129603516D01*
X95449000Y-129396484D01*
X95489389Y-129193436D01*
X95568615Y-129002167D01*
X95683635Y-128830027D01*
X95830027Y-128683635D01*
X96002165Y-128568616D01*
X96002167Y-128568615D01*
X96193436Y-128489389D01*
X96396484Y-128449000D01*
X96603516Y-128449000D01*
X96806564Y-128489389D01*
X96806564Y-128489389D01*
G37*
G36*
X90306564Y-128489389D02*
G01*
X90497833Y-128568615D01*
X90497835Y-128568616D01*
X90669973Y-128683635D01*
X90816365Y-128830027D01*
X90931385Y-129002167D01*
X91010611Y-129193436D01*
X91051000Y-129396484D01*
X91051000Y-129603516D01*
X91010611Y-129806564D01*
X90931385Y-129997833D01*
X90931384Y-129997835D01*
X90816365Y-130169973D01*
X90669973Y-130316365D01*
X90497835Y-130431384D01*
X90497834Y-130431385D01*
X90497833Y-130431385D01*
X90306564Y-130510611D01*
X90103516Y-130551000D01*
X89896484Y-130551000D01*
X89693436Y-130510611D01*
X89502167Y-130431385D01*
X89502166Y-130431385D01*
X89502165Y-130431384D01*
X89330027Y-130316365D01*
X89183635Y-130169973D01*
X89068616Y-129997835D01*
X89068615Y-129997833D01*
X88989389Y-129806564D01*
X88949000Y-129603516D01*
X88949000Y-129396484D01*
X88989389Y-129193436D01*
X89068615Y-129002167D01*
X89183635Y-128830027D01*
X89330027Y-128683635D01*
X89502165Y-128568616D01*
X89502167Y-128568615D01*
X89693436Y-128489389D01*
X89896484Y-128449000D01*
X90103516Y-128449000D01*
X90306564Y-128489389D01*
X90306564Y-128489389D01*
G37*
G36*
X141806564Y-128489389D02*
G01*
X141997833Y-128568615D01*
X141997835Y-128568616D01*
X142169973Y-128683635D01*
X142316365Y-128830027D01*
X142431385Y-129002167D01*
X142510611Y-129193436D01*
X142551000Y-129396484D01*
X142551000Y-129603516D01*
X142510611Y-129806564D01*
X142431385Y-129997833D01*
X142431384Y-129997835D01*
X142316365Y-130169973D01*
X142169973Y-130316365D01*
X141997835Y-130431384D01*
X141997834Y-130431385D01*
X141997833Y-130431385D01*
X141806564Y-130510611D01*
X141603516Y-130551000D01*
X141396484Y-130551000D01*
X141193436Y-130510611D01*
X141002167Y-130431385D01*
X141002166Y-130431385D01*
X141002165Y-130431384D01*
X140830027Y-130316365D01*
X140683635Y-130169973D01*
X140568616Y-129997835D01*
X140568615Y-129997833D01*
X140489389Y-129806564D01*
X140449000Y-129603516D01*
X140449000Y-129396484D01*
X140489389Y-129193436D01*
X140568615Y-129002167D01*
X140683635Y-128830027D01*
X140830027Y-128683635D01*
X141002165Y-128568616D01*
X141002167Y-128568615D01*
X141193436Y-128489389D01*
X141396484Y-128449000D01*
X141603516Y-128449000D01*
X141806564Y-128489389D01*
X141806564Y-128489389D01*
G37*
G36*
X135306564Y-128489389D02*
G01*
X135497833Y-128568615D01*
X135497835Y-128568616D01*
X135669973Y-128683635D01*
X135816365Y-128830027D01*
X135931385Y-129002167D01*
X136010611Y-129193436D01*
X136051000Y-129396484D01*
X136051000Y-129603516D01*
X136010611Y-129806564D01*
X135931385Y-129997833D01*
X135931384Y-129997835D01*
X135816365Y-130169973D01*
X135669973Y-130316365D01*
X135497835Y-130431384D01*
X135497834Y-130431385D01*
X135497833Y-130431385D01*
X135306564Y-130510611D01*
X135103516Y-130551000D01*
X134896484Y-130551000D01*
X134693436Y-130510611D01*
X134502167Y-130431385D01*
X134502166Y-130431385D01*
X134502165Y-130431384D01*
X134330027Y-130316365D01*
X134183635Y-130169973D01*
X134068616Y-129997835D01*
X134068615Y-129997833D01*
X133989389Y-129806564D01*
X133949000Y-129603516D01*
X133949000Y-129396484D01*
X133989389Y-129193436D01*
X134068615Y-129002167D01*
X134183635Y-128830027D01*
X134330027Y-128683635D01*
X134502165Y-128568616D01*
X134502167Y-128568615D01*
X134693436Y-128489389D01*
X134896484Y-128449000D01*
X135103516Y-128449000D01*
X135306564Y-128489389D01*
X135306564Y-128489389D01*
G37*
G36*
X120306564Y-128489389D02*
G01*
X120497833Y-128568615D01*
X120497835Y-128568616D01*
X120669973Y-128683635D01*
X120816365Y-128830027D01*
X120931385Y-129002167D01*
X121010611Y-129193436D01*
X121051000Y-129396484D01*
X121051000Y-129603516D01*
X121010611Y-129806564D01*
X120931385Y-129997833D01*
X120931384Y-129997835D01*
X120816365Y-130169973D01*
X120669973Y-130316365D01*
X120497835Y-130431384D01*
X120497834Y-130431385D01*
X120497833Y-130431385D01*
X120306564Y-130510611D01*
X120103516Y-130551000D01*
X119896484Y-130551000D01*
X119693436Y-130510611D01*
X119502167Y-130431385D01*
X119502166Y-130431385D01*
X119502165Y-130431384D01*
X119330027Y-130316365D01*
X119183635Y-130169973D01*
X119068616Y-129997835D01*
X119068615Y-129997833D01*
X118989389Y-129806564D01*
X118949000Y-129603516D01*
X118949000Y-129396484D01*
X118989389Y-129193436D01*
X119068615Y-129002167D01*
X119183635Y-128830027D01*
X119330027Y-128683635D01*
X119502165Y-128568616D01*
X119502167Y-128568615D01*
X119693436Y-128489389D01*
X119896484Y-128449000D01*
X120103516Y-128449000D01*
X120306564Y-128489389D01*
X120306564Y-128489389D01*
G37*
G36*
X126806564Y-128489389D02*
G01*
X126997833Y-128568615D01*
X126997835Y-128568616D01*
X127169973Y-128683635D01*
X127316365Y-128830027D01*
X127431385Y-129002167D01*
X127510611Y-129193436D01*
X127551000Y-129396484D01*
X127551000Y-129603516D01*
X127510611Y-129806564D01*
X127431385Y-129997833D01*
X127431384Y-129997835D01*
X127316365Y-130169973D01*
X127169973Y-130316365D01*
X126997835Y-130431384D01*
X126997834Y-130431385D01*
X126997833Y-130431385D01*
X126806564Y-130510611D01*
X126603516Y-130551000D01*
X126396484Y-130551000D01*
X126193436Y-130510611D01*
X126002167Y-130431385D01*
X126002166Y-130431385D01*
X126002165Y-130431384D01*
X125830027Y-130316365D01*
X125683635Y-130169973D01*
X125568616Y-129997835D01*
X125568615Y-129997833D01*
X125489389Y-129806564D01*
X125449000Y-129603516D01*
X125449000Y-129396484D01*
X125489389Y-129193436D01*
X125568615Y-129002167D01*
X125683635Y-128830027D01*
X125830027Y-128683635D01*
X126002165Y-128568616D01*
X126002167Y-128568615D01*
X126193436Y-128489389D01*
X126396484Y-128449000D01*
X126603516Y-128449000D01*
X126806564Y-128489389D01*
X126806564Y-128489389D01*
G37*
G36*
X111806564Y-128489389D02*
G01*
X111997833Y-128568615D01*
X111997835Y-128568616D01*
X112169973Y-128683635D01*
X112316365Y-128830027D01*
X112431385Y-129002167D01*
X112510611Y-129193436D01*
X112551000Y-129396484D01*
X112551000Y-129603516D01*
X112510611Y-129806564D01*
X112431385Y-129997833D01*
X112431384Y-129997835D01*
X112316365Y-130169973D01*
X112169973Y-130316365D01*
X111997835Y-130431384D01*
X111997834Y-130431385D01*
X111997833Y-130431385D01*
X111806564Y-130510611D01*
X111603516Y-130551000D01*
X111396484Y-130551000D01*
X111193436Y-130510611D01*
X111002167Y-130431385D01*
X111002166Y-130431385D01*
X111002165Y-130431384D01*
X110830027Y-130316365D01*
X110683635Y-130169973D01*
X110568616Y-129997835D01*
X110568615Y-129997833D01*
X110489389Y-129806564D01*
X110449000Y-129603516D01*
X110449000Y-129396484D01*
X110489389Y-129193436D01*
X110568615Y-129002167D01*
X110683635Y-128830027D01*
X110830027Y-128683635D01*
X111002165Y-128568616D01*
X111002167Y-128568615D01*
X111193436Y-128489389D01*
X111396484Y-128449000D01*
X111603516Y-128449000D01*
X111806564Y-128489389D01*
X111806564Y-128489389D01*
G37*
G36*
X77613512Y-124603927D02*
G01*
X77762812Y-124633624D01*
X77926784Y-124701544D01*
X78074354Y-124800147D01*
X78199853Y-124925646D01*
X78298456Y-125073216D01*
X78366376Y-125237188D01*
X78401000Y-125411259D01*
X78401000Y-125588741D01*
X78366376Y-125762812D01*
X78298456Y-125926784D01*
X78199853Y-126074354D01*
X78074354Y-126199853D01*
X77926784Y-126298456D01*
X77762812Y-126366376D01*
X77613512Y-126396073D01*
X77588742Y-126401000D01*
X77411258Y-126401000D01*
X77386488Y-126396073D01*
X77237188Y-126366376D01*
X77073216Y-126298456D01*
X76925646Y-126199853D01*
X76800147Y-126074354D01*
X76701544Y-125926784D01*
X76633624Y-125762812D01*
X76599000Y-125588741D01*
X76599000Y-125411259D01*
X76633624Y-125237188D01*
X76701544Y-125073216D01*
X76800147Y-124925646D01*
X76925646Y-124800147D01*
X77073216Y-124701544D01*
X77237188Y-124633624D01*
X77386488Y-124603927D01*
X77411258Y-124599000D01*
X77588742Y-124599000D01*
X77613512Y-124603927D01*
X77613512Y-124603927D01*
G37*
G36*
X72613512Y-124603927D02*
G01*
X72762812Y-124633624D01*
X72926784Y-124701544D01*
X73074354Y-124800147D01*
X73199853Y-124925646D01*
X73298456Y-125073216D01*
X73366376Y-125237188D01*
X73401000Y-125411259D01*
X73401000Y-125588741D01*
X73366376Y-125762812D01*
X73298456Y-125926784D01*
X73199853Y-126074354D01*
X73074354Y-126199853D01*
X72926784Y-126298456D01*
X72762812Y-126366376D01*
X72613512Y-126396073D01*
X72588742Y-126401000D01*
X72411258Y-126401000D01*
X72386488Y-126396073D01*
X72237188Y-126366376D01*
X72073216Y-126298456D01*
X71925646Y-126199853D01*
X71800147Y-126074354D01*
X71701544Y-125926784D01*
X71633624Y-125762812D01*
X71599000Y-125588741D01*
X71599000Y-125411259D01*
X71633624Y-125237188D01*
X71701544Y-125073216D01*
X71800147Y-124925646D01*
X71925646Y-124800147D01*
X72073216Y-124701544D01*
X72237188Y-124633624D01*
X72386488Y-124603927D01*
X72411258Y-124599000D01*
X72588742Y-124599000D01*
X72613512Y-124603927D01*
X72613512Y-124603927D01*
G37*
G36*
X141806564Y-123989389D02*
G01*
X141997833Y-124068615D01*
X141997835Y-124068616D01*
X142169973Y-124183635D01*
X142316365Y-124330027D01*
X142431385Y-124502167D01*
X142510611Y-124693436D01*
X142551000Y-124896484D01*
X142551000Y-125103516D01*
X142510611Y-125306564D01*
X142467245Y-125411258D01*
X142431384Y-125497835D01*
X142316365Y-125669973D01*
X142169973Y-125816365D01*
X141997835Y-125931384D01*
X141997834Y-125931385D01*
X141997833Y-125931385D01*
X141806564Y-126010611D01*
X141603516Y-126051000D01*
X141396484Y-126051000D01*
X141193436Y-126010611D01*
X141002167Y-125931385D01*
X141002166Y-125931385D01*
X141002165Y-125931384D01*
X140830027Y-125816365D01*
X140683635Y-125669973D01*
X140568616Y-125497835D01*
X140532755Y-125411258D01*
X140489389Y-125306564D01*
X140449000Y-125103516D01*
X140449000Y-124896484D01*
X140489389Y-124693436D01*
X140568615Y-124502167D01*
X140683635Y-124330027D01*
X140830027Y-124183635D01*
X141002165Y-124068616D01*
X141002167Y-124068615D01*
X141193436Y-123989389D01*
X141396484Y-123949000D01*
X141603516Y-123949000D01*
X141806564Y-123989389D01*
X141806564Y-123989389D01*
G37*
G36*
X150306564Y-123989389D02*
G01*
X150497833Y-124068615D01*
X150497835Y-124068616D01*
X150669973Y-124183635D01*
X150816365Y-124330027D01*
X150931385Y-124502167D01*
X151010611Y-124693436D01*
X151051000Y-124896484D01*
X151051000Y-125103516D01*
X151010611Y-125306564D01*
X150967245Y-125411258D01*
X150931384Y-125497835D01*
X150816365Y-125669973D01*
X150669973Y-125816365D01*
X150497835Y-125931384D01*
X150497834Y-125931385D01*
X150497833Y-125931385D01*
X150306564Y-126010611D01*
X150103516Y-126051000D01*
X149896484Y-126051000D01*
X149693436Y-126010611D01*
X149502167Y-125931385D01*
X149502166Y-125931385D01*
X149502165Y-125931384D01*
X149330027Y-125816365D01*
X149183635Y-125669973D01*
X149068616Y-125497835D01*
X149032755Y-125411258D01*
X148989389Y-125306564D01*
X148949000Y-125103516D01*
X148949000Y-124896484D01*
X148989389Y-124693436D01*
X149068615Y-124502167D01*
X149183635Y-124330027D01*
X149330027Y-124183635D01*
X149502165Y-124068616D01*
X149502167Y-124068615D01*
X149693436Y-123989389D01*
X149896484Y-123949000D01*
X150103516Y-123949000D01*
X150306564Y-123989389D01*
X150306564Y-123989389D01*
G37*
G36*
X156806564Y-123989389D02*
G01*
X156997833Y-124068615D01*
X156997835Y-124068616D01*
X157169973Y-124183635D01*
X157316365Y-124330027D01*
X157431385Y-124502167D01*
X157510611Y-124693436D01*
X157551000Y-124896484D01*
X157551000Y-125103516D01*
X157510611Y-125306564D01*
X157467245Y-125411258D01*
X157431384Y-125497835D01*
X157316365Y-125669973D01*
X157169973Y-125816365D01*
X156997835Y-125931384D01*
X156997834Y-125931385D01*
X156997833Y-125931385D01*
X156806564Y-126010611D01*
X156603516Y-126051000D01*
X156396484Y-126051000D01*
X156193436Y-126010611D01*
X156002167Y-125931385D01*
X156002166Y-125931385D01*
X156002165Y-125931384D01*
X155830027Y-125816365D01*
X155683635Y-125669973D01*
X155568616Y-125497835D01*
X155532755Y-125411258D01*
X155489389Y-125306564D01*
X155449000Y-125103516D01*
X155449000Y-124896484D01*
X155489389Y-124693436D01*
X155568615Y-124502167D01*
X155683635Y-124330027D01*
X155830027Y-124183635D01*
X156002165Y-124068616D01*
X156002167Y-124068615D01*
X156193436Y-123989389D01*
X156396484Y-123949000D01*
X156603516Y-123949000D01*
X156806564Y-123989389D01*
X156806564Y-123989389D01*
G37*
G36*
X120306564Y-123989389D02*
G01*
X120497833Y-124068615D01*
X120497835Y-124068616D01*
X120669973Y-124183635D01*
X120816365Y-124330027D01*
X120931385Y-124502167D01*
X121010611Y-124693436D01*
X121051000Y-124896484D01*
X121051000Y-125103516D01*
X121010611Y-125306564D01*
X120967245Y-125411258D01*
X120931384Y-125497835D01*
X120816365Y-125669973D01*
X120669973Y-125816365D01*
X120497835Y-125931384D01*
X120497834Y-125931385D01*
X120497833Y-125931385D01*
X120306564Y-126010611D01*
X120103516Y-126051000D01*
X119896484Y-126051000D01*
X119693436Y-126010611D01*
X119502167Y-125931385D01*
X119502166Y-125931385D01*
X119502165Y-125931384D01*
X119330027Y-125816365D01*
X119183635Y-125669973D01*
X119068616Y-125497835D01*
X119032755Y-125411258D01*
X118989389Y-125306564D01*
X118949000Y-125103516D01*
X118949000Y-124896484D01*
X118989389Y-124693436D01*
X119068615Y-124502167D01*
X119183635Y-124330027D01*
X119330027Y-124183635D01*
X119502165Y-124068616D01*
X119502167Y-124068615D01*
X119693436Y-123989389D01*
X119896484Y-123949000D01*
X120103516Y-123949000D01*
X120306564Y-123989389D01*
X120306564Y-123989389D01*
G37*
G36*
X135306564Y-123989389D02*
G01*
X135497833Y-124068615D01*
X135497835Y-124068616D01*
X135669973Y-124183635D01*
X135816365Y-124330027D01*
X135931385Y-124502167D01*
X136010611Y-124693436D01*
X136051000Y-124896484D01*
X136051000Y-125103516D01*
X136010611Y-125306564D01*
X135967245Y-125411258D01*
X135931384Y-125497835D01*
X135816365Y-125669973D01*
X135669973Y-125816365D01*
X135497835Y-125931384D01*
X135497834Y-125931385D01*
X135497833Y-125931385D01*
X135306564Y-126010611D01*
X135103516Y-126051000D01*
X134896484Y-126051000D01*
X134693436Y-126010611D01*
X134502167Y-125931385D01*
X134502166Y-125931385D01*
X134502165Y-125931384D01*
X134330027Y-125816365D01*
X134183635Y-125669973D01*
X134068616Y-125497835D01*
X134032755Y-125411258D01*
X133989389Y-125306564D01*
X133949000Y-125103516D01*
X133949000Y-124896484D01*
X133989389Y-124693436D01*
X134068615Y-124502167D01*
X134183635Y-124330027D01*
X134330027Y-124183635D01*
X134502165Y-124068616D01*
X134502167Y-124068615D01*
X134693436Y-123989389D01*
X134896484Y-123949000D01*
X135103516Y-123949000D01*
X135306564Y-123989389D01*
X135306564Y-123989389D01*
G37*
G36*
X126806564Y-123989389D02*
G01*
X126997833Y-124068615D01*
X126997835Y-124068616D01*
X127169973Y-124183635D01*
X127316365Y-124330027D01*
X127431385Y-124502167D01*
X127510611Y-124693436D01*
X127551000Y-124896484D01*
X127551000Y-125103516D01*
X127510611Y-125306564D01*
X127467245Y-125411258D01*
X127431384Y-125497835D01*
X127316365Y-125669973D01*
X127169973Y-125816365D01*
X126997835Y-125931384D01*
X126997834Y-125931385D01*
X126997833Y-125931385D01*
X126806564Y-126010611D01*
X126603516Y-126051000D01*
X126396484Y-126051000D01*
X126193436Y-126010611D01*
X126002167Y-125931385D01*
X126002166Y-125931385D01*
X126002165Y-125931384D01*
X125830027Y-125816365D01*
X125683635Y-125669973D01*
X125568616Y-125497835D01*
X125532755Y-125411258D01*
X125489389Y-125306564D01*
X125449000Y-125103516D01*
X125449000Y-124896484D01*
X125489389Y-124693436D01*
X125568615Y-124502167D01*
X125683635Y-124330027D01*
X125830027Y-124183635D01*
X126002165Y-124068616D01*
X126002167Y-124068615D01*
X126193436Y-123989389D01*
X126396484Y-123949000D01*
X126603516Y-123949000D01*
X126806564Y-123989389D01*
X126806564Y-123989389D01*
G37*
G36*
X90306564Y-123989389D02*
G01*
X90497833Y-124068615D01*
X90497835Y-124068616D01*
X90669973Y-124183635D01*
X90816365Y-124330027D01*
X90931385Y-124502167D01*
X91010611Y-124693436D01*
X91051000Y-124896484D01*
X91051000Y-125103516D01*
X91010611Y-125306564D01*
X90967245Y-125411258D01*
X90931384Y-125497835D01*
X90816365Y-125669973D01*
X90669973Y-125816365D01*
X90497835Y-125931384D01*
X90497834Y-125931385D01*
X90497833Y-125931385D01*
X90306564Y-126010611D01*
X90103516Y-126051000D01*
X89896484Y-126051000D01*
X89693436Y-126010611D01*
X89502167Y-125931385D01*
X89502166Y-125931385D01*
X89502165Y-125931384D01*
X89330027Y-125816365D01*
X89183635Y-125669973D01*
X89068616Y-125497835D01*
X89032755Y-125411258D01*
X88989389Y-125306564D01*
X88949000Y-125103516D01*
X88949000Y-124896484D01*
X88989389Y-124693436D01*
X89068615Y-124502167D01*
X89183635Y-124330027D01*
X89330027Y-124183635D01*
X89502165Y-124068616D01*
X89502167Y-124068615D01*
X89693436Y-123989389D01*
X89896484Y-123949000D01*
X90103516Y-123949000D01*
X90306564Y-123989389D01*
X90306564Y-123989389D01*
G37*
G36*
X105306564Y-123989389D02*
G01*
X105497833Y-124068615D01*
X105497835Y-124068616D01*
X105669973Y-124183635D01*
X105816365Y-124330027D01*
X105931385Y-124502167D01*
X106010611Y-124693436D01*
X106051000Y-124896484D01*
X106051000Y-125103516D01*
X106010611Y-125306564D01*
X105967245Y-125411258D01*
X105931384Y-125497835D01*
X105816365Y-125669973D01*
X105669973Y-125816365D01*
X105497835Y-125931384D01*
X105497834Y-125931385D01*
X105497833Y-125931385D01*
X105306564Y-126010611D01*
X105103516Y-126051000D01*
X104896484Y-126051000D01*
X104693436Y-126010611D01*
X104502167Y-125931385D01*
X104502166Y-125931385D01*
X104502165Y-125931384D01*
X104330027Y-125816365D01*
X104183635Y-125669973D01*
X104068616Y-125497835D01*
X104032755Y-125411258D01*
X103989389Y-125306564D01*
X103949000Y-125103516D01*
X103949000Y-124896484D01*
X103989389Y-124693436D01*
X104068615Y-124502167D01*
X104183635Y-124330027D01*
X104330027Y-124183635D01*
X104502165Y-124068616D01*
X104502167Y-124068615D01*
X104693436Y-123989389D01*
X104896484Y-123949000D01*
X105103516Y-123949000D01*
X105306564Y-123989389D01*
X105306564Y-123989389D01*
G37*
G36*
X111806564Y-123989389D02*
G01*
X111997833Y-124068615D01*
X111997835Y-124068616D01*
X112169973Y-124183635D01*
X112316365Y-124330027D01*
X112431385Y-124502167D01*
X112510611Y-124693436D01*
X112551000Y-124896484D01*
X112551000Y-125103516D01*
X112510611Y-125306564D01*
X112467245Y-125411258D01*
X112431384Y-125497835D01*
X112316365Y-125669973D01*
X112169973Y-125816365D01*
X111997835Y-125931384D01*
X111997834Y-125931385D01*
X111997833Y-125931385D01*
X111806564Y-126010611D01*
X111603516Y-126051000D01*
X111396484Y-126051000D01*
X111193436Y-126010611D01*
X111002167Y-125931385D01*
X111002166Y-125931385D01*
X111002165Y-125931384D01*
X110830027Y-125816365D01*
X110683635Y-125669973D01*
X110568616Y-125497835D01*
X110532755Y-125411258D01*
X110489389Y-125306564D01*
X110449000Y-125103516D01*
X110449000Y-124896484D01*
X110489389Y-124693436D01*
X110568615Y-124502167D01*
X110683635Y-124330027D01*
X110830027Y-124183635D01*
X111002165Y-124068616D01*
X111002167Y-124068615D01*
X111193436Y-123989389D01*
X111396484Y-123949000D01*
X111603516Y-123949000D01*
X111806564Y-123989389D01*
X111806564Y-123989389D01*
G37*
G36*
X96806564Y-123989389D02*
G01*
X96997833Y-124068615D01*
X96997835Y-124068616D01*
X97169973Y-124183635D01*
X97316365Y-124330027D01*
X97431385Y-124502167D01*
X97510611Y-124693436D01*
X97551000Y-124896484D01*
X97551000Y-125103516D01*
X97510611Y-125306564D01*
X97467245Y-125411258D01*
X97431384Y-125497835D01*
X97316365Y-125669973D01*
X97169973Y-125816365D01*
X96997835Y-125931384D01*
X96997834Y-125931385D01*
X96997833Y-125931385D01*
X96806564Y-126010611D01*
X96603516Y-126051000D01*
X96396484Y-126051000D01*
X96193436Y-126010611D01*
X96002167Y-125931385D01*
X96002166Y-125931385D01*
X96002165Y-125931384D01*
X95830027Y-125816365D01*
X95683635Y-125669973D01*
X95568616Y-125497835D01*
X95532755Y-125411258D01*
X95489389Y-125306564D01*
X95449000Y-125103516D01*
X95449000Y-124896484D01*
X95489389Y-124693436D01*
X95568615Y-124502167D01*
X95683635Y-124330027D01*
X95830027Y-124183635D01*
X96002165Y-124068616D01*
X96002167Y-124068615D01*
X96193436Y-123989389D01*
X96396484Y-123949000D01*
X96603516Y-123949000D01*
X96806564Y-123989389D01*
X96806564Y-123989389D01*
G37*
G36*
X94359468Y-117328565D02*
G01*
X94398138Y-117340296D01*
X94433777Y-117359346D01*
X94465017Y-117384983D01*
X94490654Y-117416223D01*
X94509704Y-117451862D01*
X94521435Y-117490532D01*
X94526000Y-117536888D01*
X94526000Y-118613112D01*
X94521435Y-118659468D01*
X94509704Y-118698138D01*
X94490654Y-118733777D01*
X94465017Y-118765017D01*
X94433777Y-118790654D01*
X94398138Y-118809704D01*
X94359468Y-118821435D01*
X94313112Y-118826000D01*
X93661888Y-118826000D01*
X93615532Y-118821435D01*
X93576862Y-118809704D01*
X93541223Y-118790654D01*
X93509983Y-118765017D01*
X93484346Y-118733777D01*
X93465296Y-118698138D01*
X93453565Y-118659468D01*
X93449000Y-118613112D01*
X93449000Y-117536888D01*
X93453565Y-117490532D01*
X93465296Y-117451862D01*
X93484346Y-117416223D01*
X93509983Y-117384983D01*
X93541223Y-117359346D01*
X93576862Y-117340296D01*
X93615532Y-117328565D01*
X93661888Y-117324000D01*
X94313112Y-117324000D01*
X94359468Y-117328565D01*
X94359468Y-117328565D01*
G37*
G36*
X96234468Y-117328565D02*
G01*
X96273138Y-117340296D01*
X96308777Y-117359346D01*
X96340017Y-117384983D01*
X96365654Y-117416223D01*
X96384704Y-117451862D01*
X96396435Y-117490532D01*
X96401000Y-117536888D01*
X96401000Y-118613112D01*
X96396435Y-118659468D01*
X96384704Y-118698138D01*
X96365654Y-118733777D01*
X96340017Y-118765017D01*
X96308777Y-118790654D01*
X96273138Y-118809704D01*
X96234468Y-118821435D01*
X96188112Y-118826000D01*
X95536888Y-118826000D01*
X95490532Y-118821435D01*
X95451862Y-118809704D01*
X95416223Y-118790654D01*
X95384983Y-118765017D01*
X95359346Y-118733777D01*
X95340296Y-118698138D01*
X95328565Y-118659468D01*
X95324000Y-118613112D01*
X95324000Y-117536888D01*
X95328565Y-117490532D01*
X95340296Y-117451862D01*
X95359346Y-117416223D01*
X95384983Y-117384983D01*
X95416223Y-117359346D01*
X95451862Y-117340296D01*
X95490532Y-117328565D01*
X95536888Y-117324000D01*
X96188112Y-117324000D01*
X96234468Y-117328565D01*
X96234468Y-117328565D01*
G37*
G36*
X116259468Y-117178565D02*
G01*
X116298138Y-117190296D01*
X116333777Y-117209346D01*
X116365017Y-117234983D01*
X116390654Y-117266223D01*
X116409704Y-117301862D01*
X116421435Y-117340532D01*
X116426000Y-117386888D01*
X116426000Y-118463112D01*
X116421435Y-118509468D01*
X116409704Y-118548138D01*
X116390654Y-118583777D01*
X116365017Y-118615017D01*
X116333777Y-118640654D01*
X116298138Y-118659704D01*
X116259468Y-118671435D01*
X116213112Y-118676000D01*
X115561888Y-118676000D01*
X115515532Y-118671435D01*
X115476862Y-118659704D01*
X115441223Y-118640654D01*
X115409983Y-118615017D01*
X115384346Y-118583777D01*
X115365296Y-118548138D01*
X115353565Y-118509468D01*
X115349000Y-118463112D01*
X115349000Y-117386888D01*
X115353565Y-117340532D01*
X115365296Y-117301862D01*
X115384346Y-117266223D01*
X115409983Y-117234983D01*
X115441223Y-117209346D01*
X115476862Y-117190296D01*
X115515532Y-117178565D01*
X115561888Y-117174000D01*
X116213112Y-117174000D01*
X116259468Y-117178565D01*
X116259468Y-117178565D01*
G37*
G36*
X114384468Y-117178565D02*
G01*
X114423138Y-117190296D01*
X114458777Y-117209346D01*
X114490017Y-117234983D01*
X114515654Y-117266223D01*
X114534704Y-117301862D01*
X114546435Y-117340532D01*
X114551000Y-117386888D01*
X114551000Y-118463112D01*
X114546435Y-118509468D01*
X114534704Y-118548138D01*
X114515654Y-118583777D01*
X114490017Y-118615017D01*
X114458777Y-118640654D01*
X114423138Y-118659704D01*
X114384468Y-118671435D01*
X114338112Y-118676000D01*
X113686888Y-118676000D01*
X113640532Y-118671435D01*
X113601862Y-118659704D01*
X113566223Y-118640654D01*
X113534983Y-118615017D01*
X113509346Y-118583777D01*
X113490296Y-118548138D01*
X113478565Y-118509468D01*
X113474000Y-118463112D01*
X113474000Y-117386888D01*
X113478565Y-117340532D01*
X113490296Y-117301862D01*
X113509346Y-117266223D01*
X113534983Y-117234983D01*
X113566223Y-117209346D01*
X113601862Y-117190296D01*
X113640532Y-117178565D01*
X113686888Y-117174000D01*
X114338112Y-117174000D01*
X114384468Y-117178565D01*
X114384468Y-117178565D01*
G37*
G36*
X74409468Y-117078565D02*
G01*
X74448138Y-117090296D01*
X74483777Y-117109346D01*
X74515017Y-117134983D01*
X74540654Y-117166223D01*
X74559704Y-117201862D01*
X74571435Y-117240532D01*
X74576000Y-117286888D01*
X74576000Y-118363112D01*
X74571435Y-118409468D01*
X74559704Y-118448138D01*
X74540654Y-118483777D01*
X74515017Y-118515017D01*
X74483777Y-118540654D01*
X74448138Y-118559704D01*
X74409468Y-118571435D01*
X74363112Y-118576000D01*
X73711888Y-118576000D01*
X73665532Y-118571435D01*
X73626862Y-118559704D01*
X73591223Y-118540654D01*
X73559983Y-118515017D01*
X73534346Y-118483777D01*
X73515296Y-118448138D01*
X73503565Y-118409468D01*
X73499000Y-118363112D01*
X73499000Y-117286888D01*
X73503565Y-117240532D01*
X73515296Y-117201862D01*
X73534346Y-117166223D01*
X73559983Y-117134983D01*
X73591223Y-117109346D01*
X73626862Y-117090296D01*
X73665532Y-117078565D01*
X73711888Y-117074000D01*
X74363112Y-117074000D01*
X74409468Y-117078565D01*
X74409468Y-117078565D01*
G37*
G36*
X76284468Y-117078565D02*
G01*
X76323138Y-117090296D01*
X76358777Y-117109346D01*
X76390017Y-117134983D01*
X76415654Y-117166223D01*
X76434704Y-117201862D01*
X76446435Y-117240532D01*
X76451000Y-117286888D01*
X76451000Y-118363112D01*
X76446435Y-118409468D01*
X76434704Y-118448138D01*
X76415654Y-118483777D01*
X76390017Y-118515017D01*
X76358777Y-118540654D01*
X76323138Y-118559704D01*
X76284468Y-118571435D01*
X76238112Y-118576000D01*
X75586888Y-118576000D01*
X75540532Y-118571435D01*
X75501862Y-118559704D01*
X75466223Y-118540654D01*
X75434983Y-118515017D01*
X75409346Y-118483777D01*
X75390296Y-118448138D01*
X75378565Y-118409468D01*
X75374000Y-118363112D01*
X75374000Y-117286888D01*
X75378565Y-117240532D01*
X75390296Y-117201862D01*
X75409346Y-117166223D01*
X75434983Y-117134983D01*
X75466223Y-117109346D01*
X75501862Y-117090296D01*
X75540532Y-117078565D01*
X75586888Y-117074000D01*
X76238112Y-117074000D01*
X76284468Y-117078565D01*
X76284468Y-117078565D01*
G37*
G36*
X136234468Y-117028565D02*
G01*
X136273138Y-117040296D01*
X136308777Y-117059346D01*
X136340017Y-117084983D01*
X136365654Y-117116223D01*
X136384704Y-117151862D01*
X136396435Y-117190532D01*
X136401000Y-117236888D01*
X136401000Y-118313112D01*
X136396435Y-118359468D01*
X136384704Y-118398138D01*
X136365654Y-118433777D01*
X136340017Y-118465017D01*
X136308777Y-118490654D01*
X136273138Y-118509704D01*
X136234468Y-118521435D01*
X136188112Y-118526000D01*
X135536888Y-118526000D01*
X135490532Y-118521435D01*
X135451862Y-118509704D01*
X135416223Y-118490654D01*
X135384983Y-118465017D01*
X135359346Y-118433777D01*
X135340296Y-118398138D01*
X135328565Y-118359468D01*
X135324000Y-118313112D01*
X135324000Y-117236888D01*
X135328565Y-117190532D01*
X135340296Y-117151862D01*
X135359346Y-117116223D01*
X135384983Y-117084983D01*
X135416223Y-117059346D01*
X135451862Y-117040296D01*
X135490532Y-117028565D01*
X135536888Y-117024000D01*
X136188112Y-117024000D01*
X136234468Y-117028565D01*
X136234468Y-117028565D01*
G37*
G36*
X134359468Y-117028565D02*
G01*
X134398138Y-117040296D01*
X134433777Y-117059346D01*
X134465017Y-117084983D01*
X134490654Y-117116223D01*
X134509704Y-117151862D01*
X134521435Y-117190532D01*
X134526000Y-117236888D01*
X134526000Y-118313112D01*
X134521435Y-118359468D01*
X134509704Y-118398138D01*
X134490654Y-118433777D01*
X134465017Y-118465017D01*
X134433777Y-118490654D01*
X134398138Y-118509704D01*
X134359468Y-118521435D01*
X134313112Y-118526000D01*
X133661888Y-118526000D01*
X133615532Y-118521435D01*
X133576862Y-118509704D01*
X133541223Y-118490654D01*
X133509983Y-118465017D01*
X133484346Y-118433777D01*
X133465296Y-118398138D01*
X133453565Y-118359468D01*
X133449000Y-118313112D01*
X133449000Y-117236888D01*
X133453565Y-117190532D01*
X133465296Y-117151862D01*
X133484346Y-117116223D01*
X133509983Y-117084983D01*
X133541223Y-117059346D01*
X133576862Y-117040296D01*
X133615532Y-117028565D01*
X133661888Y-117024000D01*
X134313112Y-117024000D01*
X134359468Y-117028565D01*
X134359468Y-117028565D01*
G37*
G36*
X154384468Y-116603565D02*
G01*
X154423138Y-116615296D01*
X154458777Y-116634346D01*
X154490017Y-116659983D01*
X154515654Y-116691223D01*
X154534704Y-116726862D01*
X154546435Y-116765532D01*
X154551000Y-116811888D01*
X154551000Y-117888112D01*
X154546435Y-117934468D01*
X154534704Y-117973138D01*
X154515654Y-118008777D01*
X154490017Y-118040017D01*
X154458777Y-118065654D01*
X154423138Y-118084704D01*
X154384468Y-118096435D01*
X154338112Y-118101000D01*
X153686888Y-118101000D01*
X153640532Y-118096435D01*
X153601862Y-118084704D01*
X153566223Y-118065654D01*
X153534983Y-118040017D01*
X153509346Y-118008777D01*
X153490296Y-117973138D01*
X153478565Y-117934468D01*
X153474000Y-117888112D01*
X153474000Y-116811888D01*
X153478565Y-116765532D01*
X153490296Y-116726862D01*
X153509346Y-116691223D01*
X153534983Y-116659983D01*
X153566223Y-116634346D01*
X153601862Y-116615296D01*
X153640532Y-116603565D01*
X153686888Y-116599000D01*
X154338112Y-116599000D01*
X154384468Y-116603565D01*
X154384468Y-116603565D01*
G37*
G36*
X156259468Y-116603565D02*
G01*
X156298138Y-116615296D01*
X156333777Y-116634346D01*
X156365017Y-116659983D01*
X156390654Y-116691223D01*
X156409704Y-116726862D01*
X156421435Y-116765532D01*
X156426000Y-116811888D01*
X156426000Y-117888112D01*
X156421435Y-117934468D01*
X156409704Y-117973138D01*
X156390654Y-118008777D01*
X156365017Y-118040017D01*
X156333777Y-118065654D01*
X156298138Y-118084704D01*
X156259468Y-118096435D01*
X156213112Y-118101000D01*
X155561888Y-118101000D01*
X155515532Y-118096435D01*
X155476862Y-118084704D01*
X155441223Y-118065654D01*
X155409983Y-118040017D01*
X155384346Y-118008777D01*
X155365296Y-117973138D01*
X155353565Y-117934468D01*
X155349000Y-117888112D01*
X155349000Y-116811888D01*
X155353565Y-116765532D01*
X155365296Y-116726862D01*
X155384346Y-116691223D01*
X155409983Y-116659983D01*
X155441223Y-116634346D01*
X155476862Y-116615296D01*
X155515532Y-116603565D01*
X155561888Y-116599000D01*
X156213112Y-116599000D01*
X156259468Y-116603565D01*
X156259468Y-116603565D01*
G37*
G36*
X94436000Y-116486000D02*
G01*
X93534000Y-116486000D01*
X93534000Y-115684000D01*
X94436000Y-115684000D01*
X94436000Y-116486000D01*
X94436000Y-116486000D01*
G37*
G36*
X134436000Y-116486000D02*
G01*
X133534000Y-116486000D01*
X133534000Y-115684000D01*
X134436000Y-115684000D01*
X134436000Y-116486000D01*
X134436000Y-116486000D01*
G37*
G36*
X114436000Y-116486000D02*
G01*
X113534000Y-116486000D01*
X113534000Y-115684000D01*
X114436000Y-115684000D01*
X114436000Y-116486000D01*
X114436000Y-116486000D01*
G37*
G36*
X96466000Y-116486000D02*
G01*
X95564000Y-116486000D01*
X95564000Y-115684000D01*
X96466000Y-115684000D01*
X96466000Y-116486000D01*
X96466000Y-116486000D01*
G37*
G36*
X136466000Y-116486000D02*
G01*
X135564000Y-116486000D01*
X135564000Y-115684000D01*
X136466000Y-115684000D01*
X136466000Y-116486000D01*
X136466000Y-116486000D01*
G37*
G36*
X116466000Y-116486000D02*
G01*
X115564000Y-116486000D01*
X115564000Y-115684000D01*
X116466000Y-115684000D01*
X116466000Y-116486000D01*
X116466000Y-116486000D01*
G37*
G36*
X74436000Y-116486000D02*
G01*
X73534000Y-116486000D01*
X73534000Y-115684000D01*
X74436000Y-115684000D01*
X74436000Y-116486000D01*
X74436000Y-116486000D01*
G37*
G36*
X76466000Y-116486000D02*
G01*
X75564000Y-116486000D01*
X75564000Y-115684000D01*
X76466000Y-115684000D01*
X76466000Y-116486000D01*
X76466000Y-116486000D01*
G37*
G36*
X156466000Y-115986000D02*
G01*
X155564000Y-115986000D01*
X155564000Y-115184000D01*
X156466000Y-115184000D01*
X156466000Y-115986000D01*
X156466000Y-115986000D01*
G37*
G36*
X154436000Y-115986000D02*
G01*
X153534000Y-115986000D01*
X153534000Y-115184000D01*
X154436000Y-115184000D01*
X154436000Y-115986000D01*
X154436000Y-115986000D01*
G37*
G36*
X134436000Y-115316000D02*
G01*
X133534000Y-115316000D01*
X133534000Y-114514000D01*
X134436000Y-114514000D01*
X134436000Y-115316000D01*
X134436000Y-115316000D01*
G37*
G36*
X114436000Y-115316000D02*
G01*
X113534000Y-115316000D01*
X113534000Y-114514000D01*
X114436000Y-114514000D01*
X114436000Y-115316000D01*
X114436000Y-115316000D01*
G37*
G36*
X116466000Y-115316000D02*
G01*
X115564000Y-115316000D01*
X115564000Y-114514000D01*
X116466000Y-114514000D01*
X116466000Y-115316000D01*
X116466000Y-115316000D01*
G37*
G36*
X136466000Y-115316000D02*
G01*
X135564000Y-115316000D01*
X135564000Y-114514000D01*
X136466000Y-114514000D01*
X136466000Y-115316000D01*
X136466000Y-115316000D01*
G37*
G36*
X94436000Y-115316000D02*
G01*
X93534000Y-115316000D01*
X93534000Y-114514000D01*
X94436000Y-114514000D01*
X94436000Y-115316000D01*
X94436000Y-115316000D01*
G37*
G36*
X96466000Y-115316000D02*
G01*
X95564000Y-115316000D01*
X95564000Y-114514000D01*
X96466000Y-114514000D01*
X96466000Y-115316000D01*
X96466000Y-115316000D01*
G37*
G36*
X74436000Y-115316000D02*
G01*
X73534000Y-115316000D01*
X73534000Y-114514000D01*
X74436000Y-114514000D01*
X74436000Y-115316000D01*
X74436000Y-115316000D01*
G37*
G36*
X76466000Y-115316000D02*
G01*
X75564000Y-115316000D01*
X75564000Y-114514000D01*
X76466000Y-114514000D01*
X76466000Y-115316000D01*
X76466000Y-115316000D01*
G37*
G36*
X156466000Y-114816000D02*
G01*
X155564000Y-114816000D01*
X155564000Y-114014000D01*
X156466000Y-114014000D01*
X156466000Y-114816000D01*
X156466000Y-114816000D01*
G37*
G36*
X154436000Y-114816000D02*
G01*
X153534000Y-114816000D01*
X153534000Y-114014000D01*
X154436000Y-114014000D01*
X154436000Y-114816000D01*
X154436000Y-114816000D01*
G37*
G36*
X137806564Y-108989389D02*
G01*
X137997833Y-109068615D01*
X137997835Y-109068616D01*
X138169973Y-109183635D01*
X138316365Y-109330027D01*
X138380256Y-109425646D01*
X138431385Y-109502167D01*
X138510611Y-109693436D01*
X138551000Y-109896484D01*
X138551000Y-110103516D01*
X138510611Y-110306564D01*
X138460815Y-110426782D01*
X138431384Y-110497835D01*
X138316365Y-110669973D01*
X138169973Y-110816365D01*
X137997835Y-110931384D01*
X137997834Y-110931385D01*
X137997833Y-110931385D01*
X137806564Y-111010611D01*
X137603516Y-111051000D01*
X137396484Y-111051000D01*
X137193436Y-111010611D01*
X137002167Y-110931385D01*
X137002166Y-110931385D01*
X137002165Y-110931384D01*
X136830027Y-110816365D01*
X136683635Y-110669973D01*
X136568616Y-110497835D01*
X136539185Y-110426782D01*
X136489389Y-110306564D01*
X136449000Y-110103516D01*
X136449000Y-109896484D01*
X136489389Y-109693436D01*
X136568615Y-109502167D01*
X136619745Y-109425646D01*
X136683635Y-109330027D01*
X136830027Y-109183635D01*
X137002165Y-109068616D01*
X137002167Y-109068615D01*
X137193436Y-108989389D01*
X137396484Y-108949000D01*
X137603516Y-108949000D01*
X137806564Y-108989389D01*
X137806564Y-108989389D01*
G37*
G36*
X113401000Y-110901000D02*
G01*
X111599000Y-110901000D01*
X111599000Y-109099000D01*
X113401000Y-109099000D01*
X113401000Y-110901000D01*
X113401000Y-110901000D01*
G37*
G36*
X115113512Y-109103927D02*
G01*
X115262812Y-109133624D01*
X115426784Y-109201544D01*
X115574354Y-109300147D01*
X115699853Y-109425646D01*
X115798456Y-109573216D01*
X115866376Y-109737188D01*
X115901000Y-109911259D01*
X115901000Y-110088741D01*
X115866376Y-110262812D01*
X115798456Y-110426784D01*
X115699853Y-110574354D01*
X115574354Y-110699853D01*
X115426784Y-110798456D01*
X115262812Y-110866376D01*
X115113512Y-110896073D01*
X115088742Y-110901000D01*
X114911258Y-110901000D01*
X114886488Y-110896073D01*
X114737188Y-110866376D01*
X114573216Y-110798456D01*
X114425646Y-110699853D01*
X114300147Y-110574354D01*
X114201544Y-110426784D01*
X114133624Y-110262812D01*
X114099000Y-110088741D01*
X114099000Y-109911259D01*
X114133624Y-109737188D01*
X114201544Y-109573216D01*
X114300147Y-109425646D01*
X114425646Y-109300147D01*
X114573216Y-109201544D01*
X114737188Y-109133624D01*
X114886488Y-109103927D01*
X114911258Y-109099000D01*
X115088742Y-109099000D01*
X115113512Y-109103927D01*
X115113512Y-109103927D01*
G37*
G36*
X135113512Y-109103927D02*
G01*
X135262812Y-109133624D01*
X135426784Y-109201544D01*
X135574354Y-109300147D01*
X135699853Y-109425646D01*
X135798456Y-109573216D01*
X135866376Y-109737188D01*
X135901000Y-109911259D01*
X135901000Y-110088741D01*
X135866376Y-110262812D01*
X135798456Y-110426784D01*
X135699853Y-110574354D01*
X135574354Y-110699853D01*
X135426784Y-110798456D01*
X135262812Y-110866376D01*
X135113512Y-110896073D01*
X135088742Y-110901000D01*
X134911258Y-110901000D01*
X134886488Y-110896073D01*
X134737188Y-110866376D01*
X134573216Y-110798456D01*
X134425646Y-110699853D01*
X134300147Y-110574354D01*
X134201544Y-110426784D01*
X134133624Y-110262812D01*
X134099000Y-110088741D01*
X134099000Y-109911259D01*
X134133624Y-109737188D01*
X134201544Y-109573216D01*
X134300147Y-109425646D01*
X134425646Y-109300147D01*
X134573216Y-109201544D01*
X134737188Y-109133624D01*
X134886488Y-109103927D01*
X134911258Y-109099000D01*
X135088742Y-109099000D01*
X135113512Y-109103927D01*
X135113512Y-109103927D01*
G37*
G36*
X75113512Y-109103927D02*
G01*
X75262812Y-109133624D01*
X75426784Y-109201544D01*
X75574354Y-109300147D01*
X75699853Y-109425646D01*
X75798456Y-109573216D01*
X75866376Y-109737188D01*
X75901000Y-109911259D01*
X75901000Y-110088741D01*
X75866376Y-110262812D01*
X75798456Y-110426784D01*
X75699853Y-110574354D01*
X75574354Y-110699853D01*
X75426784Y-110798456D01*
X75262812Y-110866376D01*
X75113512Y-110896073D01*
X75088742Y-110901000D01*
X74911258Y-110901000D01*
X74886488Y-110896073D01*
X74737188Y-110866376D01*
X74573216Y-110798456D01*
X74425646Y-110699853D01*
X74300147Y-110574354D01*
X74201544Y-110426784D01*
X74133624Y-110262812D01*
X74099000Y-110088741D01*
X74099000Y-109911259D01*
X74133624Y-109737188D01*
X74201544Y-109573216D01*
X74300147Y-109425646D01*
X74425646Y-109300147D01*
X74573216Y-109201544D01*
X74737188Y-109133624D01*
X74886488Y-109103927D01*
X74911258Y-109099000D01*
X75088742Y-109099000D01*
X75113512Y-109103927D01*
X75113512Y-109103927D01*
G37*
G36*
X97613512Y-109103927D02*
G01*
X97762812Y-109133624D01*
X97926784Y-109201544D01*
X98074354Y-109300147D01*
X98199853Y-109425646D01*
X98298456Y-109573216D01*
X98366376Y-109737188D01*
X98401000Y-109911259D01*
X98401000Y-110088741D01*
X98366376Y-110262812D01*
X98298456Y-110426784D01*
X98199853Y-110574354D01*
X98074354Y-110699853D01*
X97926784Y-110798456D01*
X97762812Y-110866376D01*
X97613512Y-110896073D01*
X97588742Y-110901000D01*
X97411258Y-110901000D01*
X97386488Y-110896073D01*
X97237188Y-110866376D01*
X97073216Y-110798456D01*
X96925646Y-110699853D01*
X96800147Y-110574354D01*
X96701544Y-110426784D01*
X96633624Y-110262812D01*
X96599000Y-110088741D01*
X96599000Y-109911259D01*
X96633624Y-109737188D01*
X96701544Y-109573216D01*
X96800147Y-109425646D01*
X96925646Y-109300147D01*
X97073216Y-109201544D01*
X97237188Y-109133624D01*
X97386488Y-109103927D01*
X97411258Y-109099000D01*
X97588742Y-109099000D01*
X97613512Y-109103927D01*
X97613512Y-109103927D01*
G37*
G36*
X77613512Y-109103927D02*
G01*
X77762812Y-109133624D01*
X77926784Y-109201544D01*
X78074354Y-109300147D01*
X78199853Y-109425646D01*
X78298456Y-109573216D01*
X78366376Y-109737188D01*
X78401000Y-109911259D01*
X78401000Y-110088741D01*
X78366376Y-110262812D01*
X78298456Y-110426784D01*
X78199853Y-110574354D01*
X78074354Y-110699853D01*
X77926784Y-110798456D01*
X77762812Y-110866376D01*
X77613512Y-110896073D01*
X77588742Y-110901000D01*
X77411258Y-110901000D01*
X77386488Y-110896073D01*
X77237188Y-110866376D01*
X77073216Y-110798456D01*
X76925646Y-110699853D01*
X76800147Y-110574354D01*
X76701544Y-110426784D01*
X76633624Y-110262812D01*
X76599000Y-110088741D01*
X76599000Y-109911259D01*
X76633624Y-109737188D01*
X76701544Y-109573216D01*
X76800147Y-109425646D01*
X76925646Y-109300147D01*
X77073216Y-109201544D01*
X77237188Y-109133624D01*
X77386488Y-109103927D01*
X77411258Y-109099000D01*
X77588742Y-109099000D01*
X77613512Y-109103927D01*
X77613512Y-109103927D01*
G37*
G36*
X73401000Y-110901000D02*
G01*
X71599000Y-110901000D01*
X71599000Y-109099000D01*
X73401000Y-109099000D01*
X73401000Y-110901000D01*
X73401000Y-110901000D01*
G37*
G36*
X153401000Y-110901000D02*
G01*
X151599000Y-110901000D01*
X151599000Y-109099000D01*
X153401000Y-109099000D01*
X153401000Y-110901000D01*
X153401000Y-110901000D01*
G37*
G36*
X133401000Y-110901000D02*
G01*
X131599000Y-110901000D01*
X131599000Y-109099000D01*
X133401000Y-109099000D01*
X133401000Y-110901000D01*
X133401000Y-110901000D01*
G37*
G36*
X117613512Y-109103927D02*
G01*
X117762812Y-109133624D01*
X117926784Y-109201544D01*
X118074354Y-109300147D01*
X118199853Y-109425646D01*
X118298456Y-109573216D01*
X118366376Y-109737188D01*
X118401000Y-109911259D01*
X118401000Y-110088741D01*
X118366376Y-110262812D01*
X118298456Y-110426784D01*
X118199853Y-110574354D01*
X118074354Y-110699853D01*
X117926784Y-110798456D01*
X117762812Y-110866376D01*
X117613512Y-110896073D01*
X117588742Y-110901000D01*
X117411258Y-110901000D01*
X117386488Y-110896073D01*
X117237188Y-110866376D01*
X117073216Y-110798456D01*
X116925646Y-110699853D01*
X116800147Y-110574354D01*
X116701544Y-110426784D01*
X116633624Y-110262812D01*
X116599000Y-110088741D01*
X116599000Y-109911259D01*
X116633624Y-109737188D01*
X116701544Y-109573216D01*
X116800147Y-109425646D01*
X116925646Y-109300147D01*
X117073216Y-109201544D01*
X117237188Y-109133624D01*
X117386488Y-109103927D01*
X117411258Y-109099000D01*
X117588742Y-109099000D01*
X117613512Y-109103927D01*
X117613512Y-109103927D01*
G37*
G36*
X95113512Y-109103927D02*
G01*
X95262812Y-109133624D01*
X95426784Y-109201544D01*
X95574354Y-109300147D01*
X95699853Y-109425646D01*
X95798456Y-109573216D01*
X95866376Y-109737188D01*
X95901000Y-109911259D01*
X95901000Y-110088741D01*
X95866376Y-110262812D01*
X95798456Y-110426784D01*
X95699853Y-110574354D01*
X95574354Y-110699853D01*
X95426784Y-110798456D01*
X95262812Y-110866376D01*
X95113512Y-110896073D01*
X95088742Y-110901000D01*
X94911258Y-110901000D01*
X94886488Y-110896073D01*
X94737188Y-110866376D01*
X94573216Y-110798456D01*
X94425646Y-110699853D01*
X94300147Y-110574354D01*
X94201544Y-110426784D01*
X94133624Y-110262812D01*
X94099000Y-110088741D01*
X94099000Y-109911259D01*
X94133624Y-109737188D01*
X94201544Y-109573216D01*
X94300147Y-109425646D01*
X94425646Y-109300147D01*
X94573216Y-109201544D01*
X94737188Y-109133624D01*
X94886488Y-109103927D01*
X94911258Y-109099000D01*
X95088742Y-109099000D01*
X95113512Y-109103927D01*
X95113512Y-109103927D01*
G37*
G36*
X157613512Y-109103927D02*
G01*
X157762812Y-109133624D01*
X157926784Y-109201544D01*
X158074354Y-109300147D01*
X158199853Y-109425646D01*
X158298456Y-109573216D01*
X158366376Y-109737188D01*
X158401000Y-109911259D01*
X158401000Y-110088741D01*
X158366376Y-110262812D01*
X158298456Y-110426784D01*
X158199853Y-110574354D01*
X158074354Y-110699853D01*
X157926784Y-110798456D01*
X157762812Y-110866376D01*
X157613512Y-110896073D01*
X157588742Y-110901000D01*
X157411258Y-110901000D01*
X157386488Y-110896073D01*
X157237188Y-110866376D01*
X157073216Y-110798456D01*
X156925646Y-110699853D01*
X156800147Y-110574354D01*
X156701544Y-110426784D01*
X156633624Y-110262812D01*
X156599000Y-110088741D01*
X156599000Y-109911259D01*
X156633624Y-109737188D01*
X156701544Y-109573216D01*
X156800147Y-109425646D01*
X156925646Y-109300147D01*
X157073216Y-109201544D01*
X157237188Y-109133624D01*
X157386488Y-109103927D01*
X157411258Y-109099000D01*
X157588742Y-109099000D01*
X157613512Y-109103927D01*
X157613512Y-109103927D01*
G37*
G36*
X155113512Y-109103927D02*
G01*
X155262812Y-109133624D01*
X155426784Y-109201544D01*
X155574354Y-109300147D01*
X155699853Y-109425646D01*
X155798456Y-109573216D01*
X155866376Y-109737188D01*
X155901000Y-109911259D01*
X155901000Y-110088741D01*
X155866376Y-110262812D01*
X155798456Y-110426784D01*
X155699853Y-110574354D01*
X155574354Y-110699853D01*
X155426784Y-110798456D01*
X155262812Y-110866376D01*
X155113512Y-110896073D01*
X155088742Y-110901000D01*
X154911258Y-110901000D01*
X154886488Y-110896073D01*
X154737188Y-110866376D01*
X154573216Y-110798456D01*
X154425646Y-110699853D01*
X154300147Y-110574354D01*
X154201544Y-110426784D01*
X154133624Y-110262812D01*
X154099000Y-110088741D01*
X154099000Y-109911259D01*
X154133624Y-109737188D01*
X154201544Y-109573216D01*
X154300147Y-109425646D01*
X154425646Y-109300147D01*
X154573216Y-109201544D01*
X154737188Y-109133624D01*
X154886488Y-109103927D01*
X154911258Y-109099000D01*
X155088742Y-109099000D01*
X155113512Y-109103927D01*
X155113512Y-109103927D01*
G37*
G36*
X93401000Y-110901000D02*
G01*
X91599000Y-110901000D01*
X91599000Y-109099000D01*
X93401000Y-109099000D01*
X93401000Y-110901000D01*
X93401000Y-110901000D01*
G37*
G36*
X121651000Y-104151000D02*
G01*
X119549000Y-104151000D01*
X119549000Y-100849000D01*
X121651000Y-100849000D01*
X121651000Y-104151000D01*
X121651000Y-104151000D01*
G37*
G36*
X101651000Y-104151000D02*
G01*
X99549000Y-104151000D01*
X99549000Y-100849000D01*
X101651000Y-100849000D01*
X101651000Y-104151000D01*
X101651000Y-104151000D01*
G37*
G36*
X81651000Y-104151000D02*
G01*
X79549000Y-104151000D01*
X79549000Y-100849000D01*
X81651000Y-100849000D01*
X81651000Y-104151000D01*
X81651000Y-104151000D01*
G37*
G36*
X110451000Y-104151000D02*
G01*
X108349000Y-104151000D01*
X108349000Y-100849000D01*
X110451000Y-100849000D01*
X110451000Y-104151000D01*
X110451000Y-104151000D01*
G37*
G36*
X141651000Y-104151000D02*
G01*
X139549000Y-104151000D01*
X139549000Y-100849000D01*
X141651000Y-100849000D01*
X141651000Y-104151000D01*
X141651000Y-104151000D01*
G37*
G36*
X130451000Y-104151000D02*
G01*
X128349000Y-104151000D01*
X128349000Y-100849000D01*
X130451000Y-100849000D01*
X130451000Y-104151000D01*
X130451000Y-104151000D01*
G37*
G36*
X70451000Y-104151000D02*
G01*
X68349000Y-104151000D01*
X68349000Y-100849000D01*
X70451000Y-100849000D01*
X70451000Y-104151000D01*
X70451000Y-104151000D01*
G37*
G36*
X90451000Y-104151000D02*
G01*
X88349000Y-104151000D01*
X88349000Y-100849000D01*
X90451000Y-100849000D01*
X90451000Y-104151000D01*
X90451000Y-104151000D01*
G37*
G36*
X150451000Y-104151000D02*
G01*
X148349000Y-104151000D01*
X148349000Y-100849000D01*
X150451000Y-100849000D01*
X150451000Y-104151000D01*
X150451000Y-104151000D01*
G37*
G36*
X161651000Y-104151000D02*
G01*
X159549000Y-104151000D01*
X159549000Y-100849000D01*
X161651000Y-100849000D01*
X161651000Y-104151000D01*
X161651000Y-104151000D01*
G37*
G36*
X117613512Y-94603927D02*
G01*
X117762812Y-94633624D01*
X117926784Y-94701544D01*
X118074354Y-94800147D01*
X118199853Y-94925646D01*
X118298456Y-95073216D01*
X118366376Y-95237188D01*
X118401000Y-95411259D01*
X118401000Y-95588741D01*
X118366376Y-95762812D01*
X118298456Y-95926784D01*
X118199853Y-96074354D01*
X118074354Y-96199853D01*
X117926784Y-96298456D01*
X117762812Y-96366376D01*
X117613512Y-96396073D01*
X117588742Y-96401000D01*
X117411258Y-96401000D01*
X117386488Y-96396073D01*
X117237188Y-96366376D01*
X117073216Y-96298456D01*
X116925646Y-96199853D01*
X116800147Y-96074354D01*
X116701544Y-95926784D01*
X116633624Y-95762812D01*
X116599000Y-95588741D01*
X116599000Y-95411259D01*
X116633624Y-95237188D01*
X116701544Y-95073216D01*
X116800147Y-94925646D01*
X116925646Y-94800147D01*
X117073216Y-94701544D01*
X117237188Y-94633624D01*
X117386488Y-94603927D01*
X117411258Y-94599000D01*
X117588742Y-94599000D01*
X117613512Y-94603927D01*
X117613512Y-94603927D01*
G37*
G36*
X157613512Y-94603927D02*
G01*
X157762812Y-94633624D01*
X157926784Y-94701544D01*
X158074354Y-94800147D01*
X158199853Y-94925646D01*
X158298456Y-95073216D01*
X158366376Y-95237188D01*
X158401000Y-95411259D01*
X158401000Y-95588741D01*
X158366376Y-95762812D01*
X158298456Y-95926784D01*
X158199853Y-96074354D01*
X158074354Y-96199853D01*
X157926784Y-96298456D01*
X157762812Y-96366376D01*
X157613512Y-96396073D01*
X157588742Y-96401000D01*
X157411258Y-96401000D01*
X157386488Y-96396073D01*
X157237188Y-96366376D01*
X157073216Y-96298456D01*
X156925646Y-96199853D01*
X156800147Y-96074354D01*
X156701544Y-95926784D01*
X156633624Y-95762812D01*
X156599000Y-95588741D01*
X156599000Y-95411259D01*
X156633624Y-95237188D01*
X156701544Y-95073216D01*
X156800147Y-94925646D01*
X156925646Y-94800147D01*
X157073216Y-94701544D01*
X157237188Y-94633624D01*
X157386488Y-94603927D01*
X157411258Y-94599000D01*
X157588742Y-94599000D01*
X157613512Y-94603927D01*
X157613512Y-94603927D01*
G37*
G36*
X77613512Y-94603927D02*
G01*
X77762812Y-94633624D01*
X77926784Y-94701544D01*
X78074354Y-94800147D01*
X78199853Y-94925646D01*
X78298456Y-95073216D01*
X78366376Y-95237188D01*
X78401000Y-95411259D01*
X78401000Y-95588741D01*
X78366376Y-95762812D01*
X78298456Y-95926784D01*
X78199853Y-96074354D01*
X78074354Y-96199853D01*
X77926784Y-96298456D01*
X77762812Y-96366376D01*
X77613512Y-96396073D01*
X77588742Y-96401000D01*
X77411258Y-96401000D01*
X77386488Y-96396073D01*
X77237188Y-96366376D01*
X77073216Y-96298456D01*
X76925646Y-96199853D01*
X76800147Y-96074354D01*
X76701544Y-95926784D01*
X76633624Y-95762812D01*
X76599000Y-95588741D01*
X76599000Y-95411259D01*
X76633624Y-95237188D01*
X76701544Y-95073216D01*
X76800147Y-94925646D01*
X76925646Y-94800147D01*
X77073216Y-94701544D01*
X77237188Y-94633624D01*
X77386488Y-94603927D01*
X77411258Y-94599000D01*
X77588742Y-94599000D01*
X77613512Y-94603927D01*
X77613512Y-94603927D01*
G37*
G36*
X132613512Y-94603927D02*
G01*
X132762812Y-94633624D01*
X132926784Y-94701544D01*
X133074354Y-94800147D01*
X133199853Y-94925646D01*
X133298456Y-95073216D01*
X133366376Y-95237188D01*
X133401000Y-95411259D01*
X133401000Y-95588741D01*
X133366376Y-95762812D01*
X133298456Y-95926784D01*
X133199853Y-96074354D01*
X133074354Y-96199853D01*
X132926784Y-96298456D01*
X132762812Y-96366376D01*
X132613512Y-96396073D01*
X132588742Y-96401000D01*
X132411258Y-96401000D01*
X132386488Y-96396073D01*
X132237188Y-96366376D01*
X132073216Y-96298456D01*
X131925646Y-96199853D01*
X131800147Y-96074354D01*
X131701544Y-95926784D01*
X131633624Y-95762812D01*
X131599000Y-95588741D01*
X131599000Y-95411259D01*
X131633624Y-95237188D01*
X131701544Y-95073216D01*
X131800147Y-94925646D01*
X131925646Y-94800147D01*
X132073216Y-94701544D01*
X132237188Y-94633624D01*
X132386488Y-94603927D01*
X132411258Y-94599000D01*
X132588742Y-94599000D01*
X132613512Y-94603927D01*
X132613512Y-94603927D01*
G37*
G36*
X152613512Y-94603927D02*
G01*
X152762812Y-94633624D01*
X152926784Y-94701544D01*
X153074354Y-94800147D01*
X153199853Y-94925646D01*
X153298456Y-95073216D01*
X153366376Y-95237188D01*
X153401000Y-95411259D01*
X153401000Y-95588741D01*
X153366376Y-95762812D01*
X153298456Y-95926784D01*
X153199853Y-96074354D01*
X153074354Y-96199853D01*
X152926784Y-96298456D01*
X152762812Y-96366376D01*
X152613512Y-96396073D01*
X152588742Y-96401000D01*
X152411258Y-96401000D01*
X152386488Y-96396073D01*
X152237188Y-96366376D01*
X152073216Y-96298456D01*
X151925646Y-96199853D01*
X151800147Y-96074354D01*
X151701544Y-95926784D01*
X151633624Y-95762812D01*
X151599000Y-95588741D01*
X151599000Y-95411259D01*
X151633624Y-95237188D01*
X151701544Y-95073216D01*
X151800147Y-94925646D01*
X151925646Y-94800147D01*
X152073216Y-94701544D01*
X152237188Y-94633624D01*
X152386488Y-94603927D01*
X152411258Y-94599000D01*
X152588742Y-94599000D01*
X152613512Y-94603927D01*
X152613512Y-94603927D01*
G37*
G36*
X112613512Y-94603927D02*
G01*
X112762812Y-94633624D01*
X112926784Y-94701544D01*
X113074354Y-94800147D01*
X113199853Y-94925646D01*
X113298456Y-95073216D01*
X113366376Y-95237188D01*
X113401000Y-95411259D01*
X113401000Y-95588741D01*
X113366376Y-95762812D01*
X113298456Y-95926784D01*
X113199853Y-96074354D01*
X113074354Y-96199853D01*
X112926784Y-96298456D01*
X112762812Y-96366376D01*
X112613512Y-96396073D01*
X112588742Y-96401000D01*
X112411258Y-96401000D01*
X112386488Y-96396073D01*
X112237188Y-96366376D01*
X112073216Y-96298456D01*
X111925646Y-96199853D01*
X111800147Y-96074354D01*
X111701544Y-95926784D01*
X111633624Y-95762812D01*
X111599000Y-95588741D01*
X111599000Y-95411259D01*
X111633624Y-95237188D01*
X111701544Y-95073216D01*
X111800147Y-94925646D01*
X111925646Y-94800147D01*
X112073216Y-94701544D01*
X112237188Y-94633624D01*
X112386488Y-94603927D01*
X112411258Y-94599000D01*
X112588742Y-94599000D01*
X112613512Y-94603927D01*
X112613512Y-94603927D01*
G37*
G36*
X92613512Y-94603927D02*
G01*
X92762812Y-94633624D01*
X92926784Y-94701544D01*
X93074354Y-94800147D01*
X93199853Y-94925646D01*
X93298456Y-95073216D01*
X93366376Y-95237188D01*
X93401000Y-95411259D01*
X93401000Y-95588741D01*
X93366376Y-95762812D01*
X93298456Y-95926784D01*
X93199853Y-96074354D01*
X93074354Y-96199853D01*
X92926784Y-96298456D01*
X92762812Y-96366376D01*
X92613512Y-96396073D01*
X92588742Y-96401000D01*
X92411258Y-96401000D01*
X92386488Y-96396073D01*
X92237188Y-96366376D01*
X92073216Y-96298456D01*
X91925646Y-96199853D01*
X91800147Y-96074354D01*
X91701544Y-95926784D01*
X91633624Y-95762812D01*
X91599000Y-95588741D01*
X91599000Y-95411259D01*
X91633624Y-95237188D01*
X91701544Y-95073216D01*
X91800147Y-94925646D01*
X91925646Y-94800147D01*
X92073216Y-94701544D01*
X92237188Y-94633624D01*
X92386488Y-94603927D01*
X92411258Y-94599000D01*
X92588742Y-94599000D01*
X92613512Y-94603927D01*
X92613512Y-94603927D01*
G37*
G36*
X97613512Y-94603927D02*
G01*
X97762812Y-94633624D01*
X97926784Y-94701544D01*
X98074354Y-94800147D01*
X98199853Y-94925646D01*
X98298456Y-95073216D01*
X98366376Y-95237188D01*
X98401000Y-95411259D01*
X98401000Y-95588741D01*
X98366376Y-95762812D01*
X98298456Y-95926784D01*
X98199853Y-96074354D01*
X98074354Y-96199853D01*
X97926784Y-96298456D01*
X97762812Y-96366376D01*
X97613512Y-96396073D01*
X97588742Y-96401000D01*
X97411258Y-96401000D01*
X97386488Y-96396073D01*
X97237188Y-96366376D01*
X97073216Y-96298456D01*
X96925646Y-96199853D01*
X96800147Y-96074354D01*
X96701544Y-95926784D01*
X96633624Y-95762812D01*
X96599000Y-95588741D01*
X96599000Y-95411259D01*
X96633624Y-95237188D01*
X96701544Y-95073216D01*
X96800147Y-94925646D01*
X96925646Y-94800147D01*
X97073216Y-94701544D01*
X97237188Y-94633624D01*
X97386488Y-94603927D01*
X97411258Y-94599000D01*
X97588742Y-94599000D01*
X97613512Y-94603927D01*
X97613512Y-94603927D01*
G37*
G36*
X137613512Y-94603927D02*
G01*
X137762812Y-94633624D01*
X137926784Y-94701544D01*
X138074354Y-94800147D01*
X138199853Y-94925646D01*
X138298456Y-95073216D01*
X138366376Y-95237188D01*
X138401000Y-95411259D01*
X138401000Y-95588741D01*
X138366376Y-95762812D01*
X138298456Y-95926784D01*
X138199853Y-96074354D01*
X138074354Y-96199853D01*
X137926784Y-96298456D01*
X137762812Y-96366376D01*
X137613512Y-96396073D01*
X137588742Y-96401000D01*
X137411258Y-96401000D01*
X137386488Y-96396073D01*
X137237188Y-96366376D01*
X137073216Y-96298456D01*
X136925646Y-96199853D01*
X136800147Y-96074354D01*
X136701544Y-95926784D01*
X136633624Y-95762812D01*
X136599000Y-95588741D01*
X136599000Y-95411259D01*
X136633624Y-95237188D01*
X136701544Y-95073216D01*
X136800147Y-94925646D01*
X136925646Y-94800147D01*
X137073216Y-94701544D01*
X137237188Y-94633624D01*
X137386488Y-94603927D01*
X137411258Y-94599000D01*
X137588742Y-94599000D01*
X137613512Y-94603927D01*
X137613512Y-94603927D01*
G37*
G36*
X72613512Y-94603927D02*
G01*
X72762812Y-94633624D01*
X72926784Y-94701544D01*
X73074354Y-94800147D01*
X73199853Y-94925646D01*
X73298456Y-95073216D01*
X73366376Y-95237188D01*
X73401000Y-95411259D01*
X73401000Y-95588741D01*
X73366376Y-95762812D01*
X73298456Y-95926784D01*
X73199853Y-96074354D01*
X73074354Y-96199853D01*
X72926784Y-96298456D01*
X72762812Y-96366376D01*
X72613512Y-96396073D01*
X72588742Y-96401000D01*
X72411258Y-96401000D01*
X72386488Y-96396073D01*
X72237188Y-96366376D01*
X72073216Y-96298456D01*
X71925646Y-96199853D01*
X71800147Y-96074354D01*
X71701544Y-95926784D01*
X71633624Y-95762812D01*
X71599000Y-95588741D01*
X71599000Y-95411259D01*
X71633624Y-95237188D01*
X71701544Y-95073216D01*
X71800147Y-94925646D01*
X71925646Y-94800147D01*
X72073216Y-94701544D01*
X72237188Y-94633624D01*
X72386488Y-94603927D01*
X72411258Y-94599000D01*
X72588742Y-94599000D01*
X72613512Y-94603927D01*
X72613512Y-94603927D01*
G37*
G36*
X155883642Y-85079781D02*
G01*
X156029414Y-85140162D01*
X156029416Y-85140163D01*
X156160608Y-85227822D01*
X156272178Y-85339392D01*
X156359837Y-85470584D01*
X156359838Y-85470586D01*
X156420219Y-85616358D01*
X156451000Y-85771107D01*
X156451000Y-85928893D01*
X156420219Y-86083642D01*
X156359838Y-86229414D01*
X156359837Y-86229416D01*
X156272178Y-86360608D01*
X156160608Y-86472178D01*
X156029416Y-86559837D01*
X156029415Y-86559838D01*
X156029414Y-86559838D01*
X155883642Y-86620219D01*
X155728893Y-86651000D01*
X155571107Y-86651000D01*
X155416358Y-86620219D01*
X155270586Y-86559838D01*
X155270585Y-86559838D01*
X155270584Y-86559837D01*
X155139392Y-86472178D01*
X155027822Y-86360608D01*
X154940163Y-86229416D01*
X154940162Y-86229414D01*
X154879781Y-86083642D01*
X154849000Y-85928893D01*
X154849000Y-85771107D01*
X154879781Y-85616358D01*
X154940162Y-85470586D01*
X154940163Y-85470584D01*
X155027822Y-85339392D01*
X155139392Y-85227822D01*
X155270584Y-85140163D01*
X155270586Y-85140162D01*
X155416358Y-85079781D01*
X155571107Y-85049000D01*
X155728893Y-85049000D01*
X155883642Y-85079781D01*
X155883642Y-85079781D01*
G37*
G36*
X87108014Y-81456973D02*
G01*
X87211878Y-81488479D01*
X87255907Y-81512013D01*
X87307599Y-81539643D01*
X87307601Y-81539644D01*
X87307600Y-81539644D01*
X87391501Y-81608499D01*
X87460356Y-81692400D01*
X87511521Y-81788121D01*
X87543027Y-81891985D01*
X87551000Y-81972933D01*
X87551000Y-83027067D01*
X87543027Y-83108015D01*
X87511521Y-83211879D01*
X87511519Y-83211882D01*
X87460357Y-83307600D01*
X87391501Y-83391501D01*
X87307600Y-83460357D01*
X87239055Y-83496995D01*
X87211879Y-83511521D01*
X87108015Y-83543027D01*
X87000000Y-83553666D01*
X86891986Y-83543027D01*
X86788122Y-83511521D01*
X86760946Y-83496995D01*
X86692401Y-83460357D01*
X86608500Y-83391501D01*
X86539644Y-83307600D01*
X86488482Y-83211882D01*
X86488480Y-83211879D01*
X86456974Y-83108015D01*
X86449001Y-83027067D01*
X86449000Y-81972934D01*
X86456973Y-81891986D01*
X86488479Y-81788122D01*
X86539644Y-81692400D01*
X86608499Y-81608499D01*
X86692400Y-81539644D01*
X86692399Y-81539644D01*
X86692401Y-81539643D01*
X86744093Y-81512013D01*
X86788121Y-81488479D01*
X86891985Y-81456973D01*
X87000000Y-81446334D01*
X87108014Y-81456973D01*
X87108014Y-81456973D01*
G37*
G36*
X85608014Y-81456973D02*
G01*
X85711878Y-81488479D01*
X85755907Y-81512013D01*
X85807599Y-81539643D01*
X85807601Y-81539644D01*
X85807600Y-81539644D01*
X85891501Y-81608499D01*
X85960356Y-81692400D01*
X86011521Y-81788121D01*
X86043027Y-81891985D01*
X86051000Y-81972933D01*
X86051000Y-83027067D01*
X86043027Y-83108015D01*
X86011521Y-83211879D01*
X86011519Y-83211882D01*
X85960357Y-83307600D01*
X85891501Y-83391501D01*
X85807600Y-83460357D01*
X85739055Y-83496995D01*
X85711879Y-83511521D01*
X85608015Y-83543027D01*
X85500000Y-83553666D01*
X85391986Y-83543027D01*
X85288122Y-83511521D01*
X85260946Y-83496995D01*
X85192401Y-83460357D01*
X85108500Y-83391501D01*
X85039644Y-83307600D01*
X84988482Y-83211882D01*
X84988480Y-83211879D01*
X84956974Y-83108015D01*
X84949001Y-83027067D01*
X84949000Y-81972934D01*
X84956973Y-81891986D01*
X84988479Y-81788122D01*
X85039644Y-81692400D01*
X85108499Y-81608499D01*
X85192400Y-81539644D01*
X85192399Y-81539644D01*
X85192401Y-81539643D01*
X85244093Y-81512013D01*
X85288121Y-81488479D01*
X85391985Y-81456973D01*
X85500000Y-81446334D01*
X85608014Y-81456973D01*
X85608014Y-81456973D01*
G37*
G36*
X88608014Y-81456973D02*
G01*
X88711878Y-81488479D01*
X88755907Y-81512013D01*
X88807599Y-81539643D01*
X88807601Y-81539644D01*
X88807600Y-81539644D01*
X88891501Y-81608499D01*
X88960356Y-81692400D01*
X89011521Y-81788121D01*
X89043027Y-81891985D01*
X89051000Y-81972933D01*
X89051000Y-83027067D01*
X89043027Y-83108015D01*
X89011521Y-83211879D01*
X89011519Y-83211882D01*
X88960357Y-83307600D01*
X88891501Y-83391501D01*
X88807600Y-83460357D01*
X88739055Y-83496995D01*
X88711879Y-83511521D01*
X88608015Y-83543027D01*
X88500000Y-83553666D01*
X88391986Y-83543027D01*
X88288122Y-83511521D01*
X88260946Y-83496995D01*
X88192401Y-83460357D01*
X88108500Y-83391501D01*
X88039644Y-83307600D01*
X87988482Y-83211882D01*
X87988480Y-83211879D01*
X87956974Y-83108015D01*
X87949001Y-83027067D01*
X87949000Y-81972934D01*
X87956973Y-81891986D01*
X87988479Y-81788122D01*
X88039644Y-81692400D01*
X88108499Y-81608499D01*
X88192400Y-81539644D01*
X88192399Y-81539644D01*
X88192401Y-81539643D01*
X88244093Y-81512013D01*
X88288121Y-81488479D01*
X88391985Y-81456973D01*
X88500000Y-81446334D01*
X88608014Y-81456973D01*
X88608014Y-81456973D01*
G37*
G36*
X90108014Y-81456973D02*
G01*
X90211878Y-81488479D01*
X90255907Y-81512013D01*
X90307599Y-81539643D01*
X90307601Y-81539644D01*
X90307600Y-81539644D01*
X90391501Y-81608499D01*
X90460356Y-81692400D01*
X90511521Y-81788121D01*
X90543027Y-81891985D01*
X90551000Y-81972933D01*
X90551000Y-83027067D01*
X90543027Y-83108015D01*
X90511521Y-83211879D01*
X90511519Y-83211882D01*
X90460357Y-83307600D01*
X90391501Y-83391501D01*
X90307600Y-83460357D01*
X90239055Y-83496995D01*
X90211879Y-83511521D01*
X90108015Y-83543027D01*
X90000000Y-83553666D01*
X89891986Y-83543027D01*
X89788122Y-83511521D01*
X89760946Y-83496995D01*
X89692401Y-83460357D01*
X89608500Y-83391501D01*
X89539644Y-83307600D01*
X89488482Y-83211882D01*
X89488480Y-83211879D01*
X89456974Y-83108015D01*
X89449001Y-83027067D01*
X89449000Y-81972934D01*
X89456973Y-81891986D01*
X89488479Y-81788122D01*
X89539644Y-81692400D01*
X89608499Y-81608499D01*
X89692400Y-81539644D01*
X89692399Y-81539644D01*
X89692401Y-81539643D01*
X89744093Y-81512013D01*
X89788121Y-81488479D01*
X89891985Y-81456973D01*
X90000000Y-81446334D01*
X90108014Y-81456973D01*
X90108014Y-81456973D01*
G37*
G36*
X93108014Y-81456973D02*
G01*
X93211878Y-81488479D01*
X93255907Y-81512013D01*
X93307599Y-81539643D01*
X93307601Y-81539644D01*
X93307600Y-81539644D01*
X93391501Y-81608499D01*
X93460356Y-81692400D01*
X93511521Y-81788121D01*
X93543027Y-81891985D01*
X93551000Y-81972933D01*
X93551000Y-83027067D01*
X93543027Y-83108015D01*
X93511521Y-83211879D01*
X93511519Y-83211882D01*
X93460357Y-83307600D01*
X93391501Y-83391501D01*
X93307600Y-83460357D01*
X93239055Y-83496995D01*
X93211879Y-83511521D01*
X93108015Y-83543027D01*
X93000000Y-83553666D01*
X92891986Y-83543027D01*
X92788122Y-83511521D01*
X92760946Y-83496995D01*
X92692401Y-83460357D01*
X92608500Y-83391501D01*
X92539644Y-83307600D01*
X92488482Y-83211882D01*
X92488480Y-83211879D01*
X92456974Y-83108015D01*
X92449001Y-83027067D01*
X92449000Y-81972934D01*
X92456973Y-81891986D01*
X92488479Y-81788122D01*
X92539644Y-81692400D01*
X92608499Y-81608499D01*
X92692400Y-81539644D01*
X92692399Y-81539644D01*
X92692401Y-81539643D01*
X92744093Y-81512013D01*
X92788121Y-81488479D01*
X92891985Y-81456973D01*
X93000000Y-81446334D01*
X93108014Y-81456973D01*
X93108014Y-81456973D01*
G37*
G36*
X94608014Y-81456973D02*
G01*
X94711878Y-81488479D01*
X94755907Y-81512013D01*
X94807599Y-81539643D01*
X94807601Y-81539644D01*
X94807600Y-81539644D01*
X94891501Y-81608499D01*
X94960356Y-81692400D01*
X95011521Y-81788121D01*
X95043027Y-81891985D01*
X95051000Y-81972933D01*
X95051000Y-83027067D01*
X95043027Y-83108015D01*
X95011521Y-83211879D01*
X95011519Y-83211882D01*
X94960357Y-83307600D01*
X94891501Y-83391501D01*
X94807600Y-83460357D01*
X94739055Y-83496995D01*
X94711879Y-83511521D01*
X94608015Y-83543027D01*
X94500000Y-83553666D01*
X94391986Y-83543027D01*
X94288122Y-83511521D01*
X94260946Y-83496995D01*
X94192401Y-83460357D01*
X94108500Y-83391501D01*
X94039644Y-83307600D01*
X93988482Y-83211882D01*
X93988480Y-83211879D01*
X93956974Y-83108015D01*
X93949001Y-83027067D01*
X93949000Y-81972934D01*
X93956973Y-81891986D01*
X93988479Y-81788122D01*
X94039644Y-81692400D01*
X94108499Y-81608499D01*
X94192400Y-81539644D01*
X94192399Y-81539644D01*
X94192401Y-81539643D01*
X94244093Y-81512013D01*
X94288121Y-81488479D01*
X94391985Y-81456973D01*
X94500000Y-81446334D01*
X94608014Y-81456973D01*
X94608014Y-81456973D01*
G37*
G36*
X96108014Y-81456973D02*
G01*
X96211878Y-81488479D01*
X96255907Y-81512013D01*
X96307599Y-81539643D01*
X96307601Y-81539644D01*
X96307600Y-81539644D01*
X96391501Y-81608499D01*
X96460356Y-81692400D01*
X96511521Y-81788121D01*
X96543027Y-81891985D01*
X96551000Y-81972933D01*
X96551000Y-83027067D01*
X96543027Y-83108015D01*
X96511521Y-83211879D01*
X96511519Y-83211882D01*
X96460357Y-83307600D01*
X96391501Y-83391501D01*
X96307600Y-83460357D01*
X96239055Y-83496995D01*
X96211879Y-83511521D01*
X96108015Y-83543027D01*
X96000000Y-83553666D01*
X95891986Y-83543027D01*
X95788122Y-83511521D01*
X95760946Y-83496995D01*
X95692401Y-83460357D01*
X95608500Y-83391501D01*
X95539644Y-83307600D01*
X95488482Y-83211882D01*
X95488480Y-83211879D01*
X95456974Y-83108015D01*
X95449001Y-83027067D01*
X95449000Y-81972934D01*
X95456973Y-81891986D01*
X95488479Y-81788122D01*
X95539644Y-81692400D01*
X95608499Y-81608499D01*
X95692400Y-81539644D01*
X95692399Y-81539644D01*
X95692401Y-81539643D01*
X95744093Y-81512013D01*
X95788121Y-81488479D01*
X95891985Y-81456973D01*
X96000000Y-81446334D01*
X96108014Y-81456973D01*
X96108014Y-81456973D01*
G37*
G36*
X91608014Y-81456973D02*
G01*
X91711878Y-81488479D01*
X91755907Y-81512013D01*
X91807599Y-81539643D01*
X91807601Y-81539644D01*
X91807600Y-81539644D01*
X91891501Y-81608499D01*
X91960356Y-81692400D01*
X92011521Y-81788121D01*
X92043027Y-81891985D01*
X92051000Y-81972933D01*
X92051000Y-83027067D01*
X92043027Y-83108015D01*
X92011521Y-83211879D01*
X92011519Y-83211882D01*
X91960357Y-83307600D01*
X91891501Y-83391501D01*
X91807600Y-83460357D01*
X91739055Y-83496995D01*
X91711879Y-83511521D01*
X91608015Y-83543027D01*
X91500000Y-83553666D01*
X91391986Y-83543027D01*
X91288122Y-83511521D01*
X91260946Y-83496995D01*
X91192401Y-83460357D01*
X91108500Y-83391501D01*
X91039644Y-83307600D01*
X90988482Y-83211882D01*
X90988480Y-83211879D01*
X90956974Y-83108015D01*
X90949001Y-83027067D01*
X90949000Y-81972934D01*
X90956973Y-81891986D01*
X90988479Y-81788122D01*
X91039644Y-81692400D01*
X91108499Y-81608499D01*
X91192400Y-81539644D01*
X91192399Y-81539644D01*
X91192401Y-81539643D01*
X91244093Y-81512013D01*
X91288121Y-81488479D01*
X91391985Y-81456973D01*
X91500000Y-81446334D01*
X91608014Y-81456973D01*
X91608014Y-81456973D01*
G37*
G36*
X84551000Y-83551000D02*
G01*
X83449000Y-83551000D01*
X83449000Y-81449000D01*
X84551000Y-81449000D01*
X84551000Y-83551000D01*
X84551000Y-83551000D01*
G37*
G36*
X82508015Y-79856973D02*
G01*
X82611879Y-79888479D01*
X82639055Y-79903005D01*
X82707600Y-79939643D01*
X82791501Y-80008499D01*
X82860357Y-80092400D01*
X82896995Y-80160945D01*
X82911521Y-80188121D01*
X82943027Y-80291985D01*
X82953666Y-80400000D01*
X82943027Y-80508015D01*
X82911521Y-80611879D01*
X82911519Y-80611882D01*
X82860357Y-80707600D01*
X82791501Y-80791501D01*
X82707600Y-80860357D01*
X82639055Y-80896995D01*
X82611879Y-80911521D01*
X82508015Y-80943027D01*
X82427067Y-80951000D01*
X81572933Y-80951000D01*
X81491985Y-80943027D01*
X81388121Y-80911521D01*
X81360945Y-80896995D01*
X81292400Y-80860357D01*
X81208499Y-80791501D01*
X81139643Y-80707600D01*
X81088481Y-80611882D01*
X81088479Y-80611879D01*
X81056973Y-80508015D01*
X81046334Y-80400000D01*
X81056973Y-80291985D01*
X81088479Y-80188121D01*
X81103005Y-80160945D01*
X81139643Y-80092400D01*
X81208499Y-80008499D01*
X81292400Y-79939643D01*
X81360945Y-79903005D01*
X81388121Y-79888479D01*
X81491985Y-79856973D01*
X81572933Y-79849000D01*
X82427067Y-79849000D01*
X82508015Y-79856973D01*
X82508015Y-79856973D01*
G37*
G36*
X98508015Y-79856973D02*
G01*
X98611879Y-79888479D01*
X98639055Y-79903005D01*
X98707600Y-79939643D01*
X98791501Y-80008499D01*
X98860357Y-80092400D01*
X98896995Y-80160945D01*
X98911521Y-80188121D01*
X98943027Y-80291985D01*
X98953666Y-80400000D01*
X98943027Y-80508015D01*
X98911521Y-80611879D01*
X98911519Y-80611882D01*
X98860357Y-80707600D01*
X98791501Y-80791501D01*
X98707600Y-80860357D01*
X98639055Y-80896995D01*
X98611879Y-80911521D01*
X98508015Y-80943027D01*
X98427067Y-80951000D01*
X97572933Y-80951000D01*
X97491985Y-80943027D01*
X97388121Y-80911521D01*
X97360945Y-80896995D01*
X97292400Y-80860357D01*
X97208499Y-80791501D01*
X97139643Y-80707600D01*
X97088481Y-80611882D01*
X97088479Y-80611879D01*
X97056973Y-80508015D01*
X97046334Y-80400000D01*
X97056973Y-80291985D01*
X97088479Y-80188121D01*
X97103005Y-80160945D01*
X97139643Y-80092400D01*
X97208499Y-80008499D01*
X97292400Y-79939643D01*
X97360945Y-79903005D01*
X97388121Y-79888479D01*
X97491985Y-79856973D01*
X97572933Y-79849000D01*
X98427067Y-79849000D01*
X98508015Y-79856973D01*
X98508015Y-79856973D01*
G37*
G36*
X131360442Y-78955518D02*
G01*
X131426627Y-78962037D01*
X131596466Y-79013557D01*
X131752991Y-79097222D01*
X131779145Y-79118686D01*
X131890186Y-79209814D01*
X131973448Y-79311271D01*
X132002778Y-79347009D01*
X132086443Y-79503534D01*
X132137963Y-79673373D01*
X132155359Y-79850000D01*
X132137963Y-80026627D01*
X132086443Y-80196466D01*
X132002778Y-80352991D01*
X131973448Y-80388729D01*
X131890186Y-80490186D01*
X131788729Y-80573448D01*
X131752991Y-80602778D01*
X131596466Y-80686443D01*
X131426627Y-80737963D01*
X131360442Y-80744482D01*
X131294260Y-80751000D01*
X131205740Y-80751000D01*
X131139558Y-80744482D01*
X131073373Y-80737963D01*
X130903534Y-80686443D01*
X130747009Y-80602778D01*
X130711271Y-80573448D01*
X130609814Y-80490186D01*
X130526552Y-80388729D01*
X130497222Y-80352991D01*
X130413557Y-80196466D01*
X130362037Y-80026627D01*
X130344641Y-79850000D01*
X130362037Y-79673373D01*
X130413557Y-79503534D01*
X130497222Y-79347009D01*
X130526552Y-79311271D01*
X130609814Y-79209814D01*
X130720855Y-79118686D01*
X130747009Y-79097222D01*
X130903534Y-79013557D01*
X131073373Y-78962037D01*
X131139558Y-78955518D01*
X131205740Y-78949000D01*
X131294260Y-78949000D01*
X131360442Y-78955518D01*
X131360442Y-78955518D01*
G37*
G36*
X129611000Y-80751000D02*
G01*
X127809000Y-80751000D01*
X127809000Y-78949000D01*
X129611000Y-78949000D01*
X129611000Y-80751000D01*
X129611000Y-80751000D01*
G37*
G36*
X155816823Y-77441313D02*
G01*
X155977242Y-77489976D01*
X156109906Y-77560886D01*
X156125078Y-77568996D01*
X156254659Y-77675341D01*
X156361004Y-77804922D01*
X156361005Y-77804924D01*
X156440024Y-77952758D01*
X156488687Y-78113177D01*
X156505117Y-78280000D01*
X156488687Y-78446823D01*
X156440024Y-78607242D01*
X156369114Y-78739906D01*
X156361004Y-78755078D01*
X156254659Y-78884659D01*
X156125078Y-78991004D01*
X156125076Y-78991005D01*
X155977242Y-79070024D01*
X155816823Y-79118687D01*
X155691804Y-79131000D01*
X155608196Y-79131000D01*
X155483177Y-79118687D01*
X155322758Y-79070024D01*
X155174924Y-78991005D01*
X155174922Y-78991004D01*
X155045341Y-78884659D01*
X154938996Y-78755078D01*
X154930886Y-78739906D01*
X154859976Y-78607242D01*
X154811313Y-78446823D01*
X154794883Y-78280000D01*
X154811313Y-78113177D01*
X154859976Y-77952758D01*
X154938995Y-77804924D01*
X154938996Y-77804922D01*
X155045341Y-77675341D01*
X155174922Y-77568996D01*
X155190094Y-77560886D01*
X155322758Y-77489976D01*
X155483177Y-77441313D01*
X155608196Y-77429000D01*
X155691804Y-77429000D01*
X155816823Y-77441313D01*
X155816823Y-77441313D01*
G37*
G36*
X158356823Y-77441313D02*
G01*
X158517242Y-77489976D01*
X158649906Y-77560886D01*
X158665078Y-77568996D01*
X158794659Y-77675341D01*
X158901004Y-77804922D01*
X158901005Y-77804924D01*
X158980024Y-77952758D01*
X159028687Y-78113177D01*
X159045117Y-78280000D01*
X159028687Y-78446823D01*
X158980024Y-78607242D01*
X158909114Y-78739906D01*
X158901004Y-78755078D01*
X158794659Y-78884659D01*
X158665078Y-78991004D01*
X158665076Y-78991005D01*
X158517242Y-79070024D01*
X158356823Y-79118687D01*
X158231804Y-79131000D01*
X158148196Y-79131000D01*
X158023177Y-79118687D01*
X157862758Y-79070024D01*
X157714924Y-78991005D01*
X157714922Y-78991004D01*
X157585341Y-78884659D01*
X157478996Y-78755078D01*
X157470886Y-78739906D01*
X157399976Y-78607242D01*
X157351313Y-78446823D01*
X157334883Y-78280000D01*
X157351313Y-78113177D01*
X157399976Y-77952758D01*
X157478995Y-77804924D01*
X157478996Y-77804922D01*
X157585341Y-77675341D01*
X157714922Y-77568996D01*
X157730094Y-77560886D01*
X157862758Y-77489976D01*
X158023177Y-77441313D01*
X158148196Y-77429000D01*
X158231804Y-77429000D01*
X158356823Y-77441313D01*
X158356823Y-77441313D01*
G37*
G36*
X158356823Y-74901313D02*
G01*
X158517242Y-74949976D01*
X158624394Y-75007250D01*
X158665078Y-75028996D01*
X158794659Y-75135341D01*
X158901004Y-75264922D01*
X158901005Y-75264924D01*
X158980024Y-75412758D01*
X159028687Y-75573177D01*
X159045117Y-75740000D01*
X159028687Y-75906823D01*
X158980024Y-76067242D01*
X158909114Y-76199906D01*
X158901004Y-76215078D01*
X158794659Y-76344659D01*
X158665078Y-76451004D01*
X158665076Y-76451005D01*
X158517242Y-76530024D01*
X158356823Y-76578687D01*
X158231804Y-76591000D01*
X158148196Y-76591000D01*
X158023177Y-76578687D01*
X157862758Y-76530024D01*
X157714924Y-76451005D01*
X157714922Y-76451004D01*
X157585341Y-76344659D01*
X157478996Y-76215078D01*
X157470886Y-76199906D01*
X157399976Y-76067242D01*
X157351313Y-75906823D01*
X157334883Y-75740000D01*
X157351313Y-75573177D01*
X157399976Y-75412758D01*
X157478995Y-75264924D01*
X157478996Y-75264922D01*
X157585341Y-75135341D01*
X157714922Y-75028996D01*
X157755606Y-75007250D01*
X157862758Y-74949976D01*
X158023177Y-74901313D01*
X158148196Y-74889000D01*
X158231804Y-74889000D01*
X158356823Y-74901313D01*
X158356823Y-74901313D01*
G37*
G36*
X155816823Y-74901313D02*
G01*
X155977242Y-74949976D01*
X156084394Y-75007250D01*
X156125078Y-75028996D01*
X156254659Y-75135341D01*
X156361004Y-75264922D01*
X156361005Y-75264924D01*
X156440024Y-75412758D01*
X156488687Y-75573177D01*
X156505117Y-75740000D01*
X156488687Y-75906823D01*
X156440024Y-76067242D01*
X156369114Y-76199906D01*
X156361004Y-76215078D01*
X156254659Y-76344659D01*
X156125078Y-76451004D01*
X156125076Y-76451005D01*
X155977242Y-76530024D01*
X155816823Y-76578687D01*
X155691804Y-76591000D01*
X155608196Y-76591000D01*
X155483177Y-76578687D01*
X155322758Y-76530024D01*
X155174924Y-76451005D01*
X155174922Y-76451004D01*
X155045341Y-76344659D01*
X154938996Y-76215078D01*
X154930886Y-76199906D01*
X154859976Y-76067242D01*
X154811313Y-75906823D01*
X154794883Y-75740000D01*
X154811313Y-75573177D01*
X154859976Y-75412758D01*
X154938995Y-75264924D01*
X154938996Y-75264922D01*
X155045341Y-75135341D01*
X155174922Y-75028996D01*
X155215606Y-75007250D01*
X155322758Y-74949976D01*
X155483177Y-74901313D01*
X155608196Y-74889000D01*
X155691804Y-74889000D01*
X155816823Y-74901313D01*
X155816823Y-74901313D01*
G37*
G36*
X149213500Y-76507250D02*
G01*
X148261500Y-76507250D01*
X148261500Y-75492750D01*
X149213500Y-75492750D01*
X149213500Y-76507250D01*
X149213500Y-76507250D01*
G37*
G36*
X131738500Y-76507250D02*
G01*
X130786500Y-76507250D01*
X130786500Y-75492750D01*
X131738500Y-75492750D01*
X131738500Y-76507250D01*
X131738500Y-76507250D01*
G37*
G36*
X149213500Y-75007250D02*
G01*
X148261500Y-75007250D01*
X148261500Y-73992750D01*
X149213500Y-73992750D01*
X149213500Y-75007250D01*
X149213500Y-75007250D01*
G37*
G36*
X131738500Y-75007250D02*
G01*
X130786500Y-75007250D01*
X130786500Y-73992750D01*
X131738500Y-73992750D01*
X131738500Y-75007250D01*
X131738500Y-75007250D01*
G37*
G36*
X156501000Y-74051000D02*
G01*
X154799000Y-74051000D01*
X154799000Y-72349000D01*
X156501000Y-72349000D01*
X156501000Y-74051000D01*
X156501000Y-74051000D01*
G37*
G36*
X158356823Y-72361313D02*
G01*
X158517242Y-72409976D01*
X158649906Y-72480886D01*
X158665078Y-72488996D01*
X158794659Y-72595341D01*
X158901004Y-72724922D01*
X158901005Y-72724924D01*
X158980024Y-72872758D01*
X159028687Y-73033177D01*
X159045117Y-73200000D01*
X159028687Y-73366823D01*
X158980024Y-73527242D01*
X158909114Y-73659906D01*
X158901004Y-73675078D01*
X158794659Y-73804659D01*
X158665078Y-73911004D01*
X158665076Y-73911005D01*
X158517242Y-73990024D01*
X158356823Y-74038687D01*
X158231804Y-74051000D01*
X158148196Y-74051000D01*
X158023177Y-74038687D01*
X157862758Y-73990024D01*
X157714924Y-73911005D01*
X157714922Y-73911004D01*
X157585341Y-73804659D01*
X157478996Y-73675078D01*
X157470886Y-73659906D01*
X157399976Y-73527242D01*
X157351313Y-73366823D01*
X157334883Y-73200000D01*
X157351313Y-73033177D01*
X157399976Y-72872758D01*
X157478995Y-72724924D01*
X157478996Y-72724922D01*
X157585341Y-72595341D01*
X157714922Y-72488996D01*
X157730094Y-72480886D01*
X157862758Y-72409976D01*
X158023177Y-72361313D01*
X158148196Y-72349000D01*
X158231804Y-72349000D01*
X158356823Y-72361313D01*
X158356823Y-72361313D01*
G37*
G36*
X149213500Y-73507250D02*
G01*
X148261500Y-73507250D01*
X148261500Y-72492750D01*
X149213500Y-72492750D01*
X149213500Y-73507250D01*
X149213500Y-73507250D01*
G37*
G36*
X131738500Y-73507250D02*
G01*
X130786500Y-73507250D01*
X130786500Y-72492750D01*
X131738500Y-72492750D01*
X131738500Y-73507250D01*
X131738500Y-73507250D01*
G37*
G36*
X143321000Y-72781000D02*
G01*
X138919000Y-72781000D01*
X138919000Y-68379000D01*
X143321000Y-68379000D01*
X143321000Y-72781000D01*
X143321000Y-72781000D01*
G37*
G36*
X129446968Y-70553565D02*
G01*
X129485638Y-70565296D01*
X129521277Y-70584346D01*
X129552517Y-70609983D01*
X129578154Y-70641223D01*
X129597204Y-70676862D01*
X129608935Y-70715532D01*
X129613500Y-70761888D01*
X129613500Y-71838112D01*
X129608935Y-71884468D01*
X129597204Y-71923138D01*
X129578154Y-71958777D01*
X129552517Y-71990017D01*
X129521277Y-72015654D01*
X129485638Y-72034704D01*
X129446968Y-72046435D01*
X129400612Y-72051000D01*
X128749388Y-72051000D01*
X128703032Y-72046435D01*
X128664362Y-72034704D01*
X128628723Y-72015654D01*
X128597483Y-71990017D01*
X128571846Y-71958777D01*
X128552796Y-71923138D01*
X128541065Y-71884468D01*
X128536500Y-71838112D01*
X128536500Y-70761888D01*
X128541065Y-70715532D01*
X128552796Y-70676862D01*
X128571846Y-70641223D01*
X128597483Y-70609983D01*
X128628723Y-70584346D01*
X128664362Y-70565296D01*
X128703032Y-70553565D01*
X128749388Y-70549000D01*
X129400612Y-70549000D01*
X129446968Y-70553565D01*
X129446968Y-70553565D01*
G37*
G36*
X127571968Y-70553565D02*
G01*
X127610638Y-70565296D01*
X127646277Y-70584346D01*
X127677517Y-70609983D01*
X127703154Y-70641223D01*
X127722204Y-70676862D01*
X127733935Y-70715532D01*
X127738500Y-70761888D01*
X127738500Y-71838112D01*
X127733935Y-71884468D01*
X127722204Y-71923138D01*
X127703154Y-71958777D01*
X127677517Y-71990017D01*
X127646277Y-72015654D01*
X127610638Y-72034704D01*
X127571968Y-72046435D01*
X127525612Y-72051000D01*
X126874388Y-72051000D01*
X126828032Y-72046435D01*
X126789362Y-72034704D01*
X126753723Y-72015654D01*
X126722483Y-71990017D01*
X126696846Y-71958777D01*
X126677796Y-71923138D01*
X126666065Y-71884468D01*
X126661500Y-71838112D01*
X126661500Y-70761888D01*
X126666065Y-70715532D01*
X126677796Y-70676862D01*
X126696846Y-70641223D01*
X126722483Y-70609983D01*
X126753723Y-70584346D01*
X126789362Y-70565296D01*
X126828032Y-70553565D01*
X126874388Y-70549000D01*
X127525612Y-70549000D01*
X127571968Y-70553565D01*
X127571968Y-70553565D01*
G37*
G36*
X131738500Y-72007250D02*
G01*
X130786500Y-72007250D01*
X130786500Y-70992750D01*
X131738500Y-70992750D01*
X131738500Y-72007250D01*
X131738500Y-72007250D01*
G37*
G36*
X149213500Y-72007250D02*
G01*
X148261500Y-72007250D01*
X148261500Y-70992750D01*
X149213500Y-70992750D01*
X149213500Y-72007250D01*
X149213500Y-72007250D01*
G37*
G36*
X118747468Y-69253565D02*
G01*
X118786138Y-69265296D01*
X118821777Y-69284346D01*
X118853017Y-69309983D01*
X118878654Y-69341223D01*
X118897704Y-69376862D01*
X118909435Y-69415532D01*
X118914000Y-69461888D01*
X118914000Y-70538112D01*
X118909435Y-70584468D01*
X118897704Y-70623138D01*
X118878654Y-70658777D01*
X118853017Y-70690017D01*
X118821777Y-70715654D01*
X118786138Y-70734704D01*
X118747468Y-70746435D01*
X118701112Y-70751000D01*
X118049888Y-70751000D01*
X118003532Y-70746435D01*
X117964862Y-70734704D01*
X117929223Y-70715654D01*
X117897983Y-70690017D01*
X117872346Y-70658777D01*
X117853296Y-70623138D01*
X117841565Y-70584468D01*
X117837000Y-70538112D01*
X117837000Y-69461888D01*
X117841565Y-69415532D01*
X117853296Y-69376862D01*
X117872346Y-69341223D01*
X117897983Y-69309983D01*
X117929223Y-69284346D01*
X117964862Y-69265296D01*
X118003532Y-69253565D01*
X118049888Y-69249000D01*
X118701112Y-69249000D01*
X118747468Y-69253565D01*
X118747468Y-69253565D01*
G37*
G36*
X112996468Y-69253565D02*
G01*
X113035138Y-69265296D01*
X113070777Y-69284346D01*
X113102017Y-69309983D01*
X113127654Y-69341223D01*
X113146704Y-69376862D01*
X113158435Y-69415532D01*
X113163000Y-69461888D01*
X113163000Y-70538112D01*
X113158435Y-70584468D01*
X113146704Y-70623138D01*
X113127654Y-70658777D01*
X113102017Y-70690017D01*
X113070777Y-70715654D01*
X113035138Y-70734704D01*
X112996468Y-70746435D01*
X112950112Y-70751000D01*
X112298888Y-70751000D01*
X112252532Y-70746435D01*
X112213862Y-70734704D01*
X112178223Y-70715654D01*
X112146983Y-70690017D01*
X112121346Y-70658777D01*
X112102296Y-70623138D01*
X112090565Y-70584468D01*
X112086000Y-70538112D01*
X112086000Y-69461888D01*
X112090565Y-69415532D01*
X112102296Y-69376862D01*
X112121346Y-69341223D01*
X112146983Y-69309983D01*
X112178223Y-69284346D01*
X112213862Y-69265296D01*
X112252532Y-69253565D01*
X112298888Y-69249000D01*
X112950112Y-69249000D01*
X112996468Y-69253565D01*
X112996468Y-69253565D01*
G37*
G36*
X114871468Y-69253565D02*
G01*
X114910138Y-69265296D01*
X114945777Y-69284346D01*
X114977017Y-69309983D01*
X115002654Y-69341223D01*
X115021704Y-69376862D01*
X115033435Y-69415532D01*
X115038000Y-69461888D01*
X115038000Y-70538112D01*
X115033435Y-70584468D01*
X115021704Y-70623138D01*
X115002654Y-70658777D01*
X114977017Y-70690017D01*
X114945777Y-70715654D01*
X114910138Y-70734704D01*
X114871468Y-70746435D01*
X114825112Y-70751000D01*
X114173888Y-70751000D01*
X114127532Y-70746435D01*
X114088862Y-70734704D01*
X114053223Y-70715654D01*
X114021983Y-70690017D01*
X113996346Y-70658777D01*
X113977296Y-70623138D01*
X113965565Y-70584468D01*
X113961000Y-70538112D01*
X113961000Y-69461888D01*
X113965565Y-69415532D01*
X113977296Y-69376862D01*
X113996346Y-69341223D01*
X114021983Y-69309983D01*
X114053223Y-69284346D01*
X114088862Y-69265296D01*
X114127532Y-69253565D01*
X114173888Y-69249000D01*
X114825112Y-69249000D01*
X114871468Y-69253565D01*
X114871468Y-69253565D01*
G37*
G36*
X116872468Y-69253565D02*
G01*
X116911138Y-69265296D01*
X116946777Y-69284346D01*
X116978017Y-69309983D01*
X117003654Y-69341223D01*
X117022704Y-69376862D01*
X117034435Y-69415532D01*
X117039000Y-69461888D01*
X117039000Y-70538112D01*
X117034435Y-70584468D01*
X117022704Y-70623138D01*
X117003654Y-70658777D01*
X116978017Y-70690017D01*
X116946777Y-70715654D01*
X116911138Y-70734704D01*
X116872468Y-70746435D01*
X116826112Y-70751000D01*
X116174888Y-70751000D01*
X116128532Y-70746435D01*
X116089862Y-70734704D01*
X116054223Y-70715654D01*
X116022983Y-70690017D01*
X115997346Y-70658777D01*
X115978296Y-70623138D01*
X115966565Y-70584468D01*
X115962000Y-70538112D01*
X115962000Y-69461888D01*
X115966565Y-69415532D01*
X115978296Y-69376862D01*
X115997346Y-69341223D01*
X116022983Y-69309983D01*
X116054223Y-69284346D01*
X116089862Y-69265296D01*
X116128532Y-69253565D01*
X116174888Y-69249000D01*
X116826112Y-69249000D01*
X116872468Y-69253565D01*
X116872468Y-69253565D01*
G37*
G36*
X160684468Y-69203565D02*
G01*
X160723138Y-69215296D01*
X160758777Y-69234346D01*
X160790017Y-69259983D01*
X160815654Y-69291223D01*
X160834704Y-69326862D01*
X160846435Y-69365532D01*
X160851000Y-69411888D01*
X160851000Y-70488112D01*
X160846435Y-70534468D01*
X160834704Y-70573138D01*
X160815654Y-70608777D01*
X160790017Y-70640017D01*
X160758777Y-70665654D01*
X160723138Y-70684704D01*
X160684468Y-70696435D01*
X160638112Y-70701000D01*
X159986888Y-70701000D01*
X159940532Y-70696435D01*
X159901862Y-70684704D01*
X159866223Y-70665654D01*
X159834983Y-70640017D01*
X159809346Y-70608777D01*
X159790296Y-70573138D01*
X159778565Y-70534468D01*
X159774000Y-70488112D01*
X159774000Y-69411888D01*
X159778565Y-69365532D01*
X159790296Y-69326862D01*
X159809346Y-69291223D01*
X159834983Y-69259983D01*
X159866223Y-69234346D01*
X159901862Y-69215296D01*
X159940532Y-69203565D01*
X159986888Y-69199000D01*
X160638112Y-69199000D01*
X160684468Y-69203565D01*
X160684468Y-69203565D01*
G37*
G36*
X162559468Y-69203565D02*
G01*
X162598138Y-69215296D01*
X162633777Y-69234346D01*
X162665017Y-69259983D01*
X162690654Y-69291223D01*
X162709704Y-69326862D01*
X162721435Y-69365532D01*
X162726000Y-69411888D01*
X162726000Y-70488112D01*
X162721435Y-70534468D01*
X162709704Y-70573138D01*
X162690654Y-70608777D01*
X162665017Y-70640017D01*
X162633777Y-70665654D01*
X162598138Y-70684704D01*
X162559468Y-70696435D01*
X162513112Y-70701000D01*
X161861888Y-70701000D01*
X161815532Y-70696435D01*
X161776862Y-70684704D01*
X161741223Y-70665654D01*
X161709983Y-70640017D01*
X161684346Y-70608777D01*
X161665296Y-70573138D01*
X161653565Y-70534468D01*
X161649000Y-70488112D01*
X161649000Y-69411888D01*
X161653565Y-69365532D01*
X161665296Y-69326862D01*
X161684346Y-69291223D01*
X161709983Y-69259983D01*
X161741223Y-69234346D01*
X161776862Y-69215296D01*
X161815532Y-69203565D01*
X161861888Y-69199000D01*
X162513112Y-69199000D01*
X162559468Y-69203565D01*
X162559468Y-69203565D01*
G37*
G36*
X158159468Y-69203565D02*
G01*
X158198138Y-69215296D01*
X158233777Y-69234346D01*
X158265017Y-69259983D01*
X158290654Y-69291223D01*
X158309704Y-69326862D01*
X158321435Y-69365532D01*
X158326000Y-69411888D01*
X158326000Y-70488112D01*
X158321435Y-70534468D01*
X158309704Y-70573138D01*
X158290654Y-70608777D01*
X158265017Y-70640017D01*
X158233777Y-70665654D01*
X158198138Y-70684704D01*
X158159468Y-70696435D01*
X158113112Y-70701000D01*
X157461888Y-70701000D01*
X157415532Y-70696435D01*
X157376862Y-70684704D01*
X157341223Y-70665654D01*
X157309983Y-70640017D01*
X157284346Y-70608777D01*
X157265296Y-70573138D01*
X157253565Y-70534468D01*
X157249000Y-70488112D01*
X157249000Y-69411888D01*
X157253565Y-69365532D01*
X157265296Y-69326862D01*
X157284346Y-69291223D01*
X157309983Y-69259983D01*
X157341223Y-69234346D01*
X157376862Y-69215296D01*
X157415532Y-69203565D01*
X157461888Y-69199000D01*
X158113112Y-69199000D01*
X158159468Y-69203565D01*
X158159468Y-69203565D01*
G37*
G36*
X156284468Y-69203565D02*
G01*
X156323138Y-69215296D01*
X156358777Y-69234346D01*
X156390017Y-69259983D01*
X156415654Y-69291223D01*
X156434704Y-69326862D01*
X156446435Y-69365532D01*
X156451000Y-69411888D01*
X156451000Y-70488112D01*
X156446435Y-70534468D01*
X156434704Y-70573138D01*
X156415654Y-70608777D01*
X156390017Y-70640017D01*
X156358777Y-70665654D01*
X156323138Y-70684704D01*
X156284468Y-70696435D01*
X156238112Y-70701000D01*
X155586888Y-70701000D01*
X155540532Y-70696435D01*
X155501862Y-70684704D01*
X155466223Y-70665654D01*
X155434983Y-70640017D01*
X155409346Y-70608777D01*
X155390296Y-70573138D01*
X155378565Y-70534468D01*
X155374000Y-70488112D01*
X155374000Y-69411888D01*
X155378565Y-69365532D01*
X155390296Y-69326862D01*
X155409346Y-69291223D01*
X155434983Y-69259983D01*
X155466223Y-69234346D01*
X155501862Y-69215296D01*
X155540532Y-69203565D01*
X155586888Y-69199000D01*
X156238112Y-69199000D01*
X156284468Y-69203565D01*
X156284468Y-69203565D01*
G37*
G36*
X131738500Y-70507250D02*
G01*
X130786500Y-70507250D01*
X130786500Y-69492750D01*
X131738500Y-69492750D01*
X131738500Y-70507250D01*
X131738500Y-70507250D01*
G37*
G36*
X149213500Y-70507250D02*
G01*
X148261500Y-70507250D01*
X148261500Y-69492750D01*
X149213500Y-69492750D01*
X149213500Y-70507250D01*
X149213500Y-70507250D01*
G37*
G36*
X149213500Y-69007250D02*
G01*
X148261500Y-69007250D01*
X148261500Y-67992750D01*
X149213500Y-67992750D01*
X149213500Y-69007250D01*
X149213500Y-69007250D01*
G37*
G36*
X131738500Y-69007250D02*
G01*
X130786500Y-69007250D01*
X130786500Y-67992750D01*
X131738500Y-67992750D01*
X131738500Y-69007250D01*
X131738500Y-69007250D01*
G37*
G36*
X114926000Y-68381000D02*
G01*
X114174000Y-68381000D01*
X114174000Y-67219000D01*
X114926000Y-67219000D01*
X114926000Y-68381000D01*
X114926000Y-68381000D01*
G37*
G36*
X116826000Y-68381000D02*
G01*
X116074000Y-68381000D01*
X116074000Y-67219000D01*
X116826000Y-67219000D01*
X116826000Y-68381000D01*
X116826000Y-68381000D01*
G37*
G36*
X131738500Y-67507250D02*
G01*
X130786500Y-67507250D01*
X130786500Y-66492750D01*
X131738500Y-66492750D01*
X131738500Y-67507250D01*
X131738500Y-67507250D01*
G37*
G36*
X149213500Y-67507250D02*
G01*
X148261500Y-67507250D01*
X148261500Y-66492750D01*
X149213500Y-66492750D01*
X149213500Y-67507250D01*
X149213500Y-67507250D01*
G37*
G36*
X125934468Y-65753565D02*
G01*
X125973138Y-65765296D01*
X126008777Y-65784346D01*
X126040017Y-65809983D01*
X126065654Y-65841223D01*
X126084704Y-65876862D01*
X126096435Y-65915532D01*
X126101000Y-65961888D01*
X126101000Y-67038112D01*
X126096435Y-67084468D01*
X126084704Y-67123138D01*
X126065654Y-67158777D01*
X126040017Y-67190017D01*
X126008777Y-67215654D01*
X125973138Y-67234704D01*
X125934468Y-67246435D01*
X125888112Y-67251000D01*
X125236888Y-67251000D01*
X125190532Y-67246435D01*
X125151862Y-67234704D01*
X125116223Y-67215654D01*
X125084983Y-67190017D01*
X125059346Y-67158777D01*
X125040296Y-67123138D01*
X125028565Y-67084468D01*
X125024000Y-67038112D01*
X125024000Y-65961888D01*
X125028565Y-65915532D01*
X125040296Y-65876862D01*
X125059346Y-65841223D01*
X125084983Y-65809983D01*
X125116223Y-65784346D01*
X125151862Y-65765296D01*
X125190532Y-65753565D01*
X125236888Y-65749000D01*
X125888112Y-65749000D01*
X125934468Y-65753565D01*
X125934468Y-65753565D01*
G37*
G36*
X127809468Y-65753565D02*
G01*
X127848138Y-65765296D01*
X127883777Y-65784346D01*
X127915017Y-65809983D01*
X127940654Y-65841223D01*
X127959704Y-65876862D01*
X127971435Y-65915532D01*
X127976000Y-65961888D01*
X127976000Y-67038112D01*
X127971435Y-67084468D01*
X127959704Y-67123138D01*
X127940654Y-67158777D01*
X127915017Y-67190017D01*
X127883777Y-67215654D01*
X127848138Y-67234704D01*
X127809468Y-67246435D01*
X127763112Y-67251000D01*
X127111888Y-67251000D01*
X127065532Y-67246435D01*
X127026862Y-67234704D01*
X126991223Y-67215654D01*
X126959983Y-67190017D01*
X126934346Y-67158777D01*
X126915296Y-67123138D01*
X126903565Y-67084468D01*
X126899000Y-67038112D01*
X126899000Y-65961888D01*
X126903565Y-65915532D01*
X126915296Y-65876862D01*
X126934346Y-65841223D01*
X126959983Y-65809983D01*
X126991223Y-65784346D01*
X127026862Y-65765296D01*
X127065532Y-65753565D01*
X127111888Y-65749000D01*
X127763112Y-65749000D01*
X127809468Y-65753565D01*
X127809468Y-65753565D01*
G37*
G36*
X116826000Y-66181000D02*
G01*
X114174000Y-66181000D01*
X114174000Y-65019000D01*
X116826000Y-65019000D01*
X116826000Y-66181000D01*
X116826000Y-66181000D01*
G37*
G36*
X149213500Y-66007250D02*
G01*
X148261500Y-66007250D01*
X148261500Y-64992750D01*
X149213500Y-64992750D01*
X149213500Y-66007250D01*
X149213500Y-66007250D01*
G37*
G36*
X131738500Y-66007250D02*
G01*
X130786500Y-66007250D01*
X130786500Y-64992750D01*
X131738500Y-64992750D01*
X131738500Y-66007250D01*
X131738500Y-66007250D01*
G37*
G36*
X127809468Y-63753565D02*
G01*
X127848138Y-63765296D01*
X127883777Y-63784346D01*
X127915017Y-63809983D01*
X127940654Y-63841223D01*
X127959704Y-63876862D01*
X127971435Y-63915532D01*
X127976000Y-63961888D01*
X127976000Y-65038112D01*
X127971435Y-65084468D01*
X127959704Y-65123138D01*
X127940654Y-65158777D01*
X127915017Y-65190017D01*
X127883777Y-65215654D01*
X127848138Y-65234704D01*
X127809468Y-65246435D01*
X127763112Y-65251000D01*
X127111888Y-65251000D01*
X127065532Y-65246435D01*
X127026862Y-65234704D01*
X126991223Y-65215654D01*
X126959983Y-65190017D01*
X126934346Y-65158777D01*
X126915296Y-65123138D01*
X126903565Y-65084468D01*
X126899000Y-65038112D01*
X126899000Y-63961888D01*
X126903565Y-63915532D01*
X126915296Y-63876862D01*
X126934346Y-63841223D01*
X126959983Y-63809983D01*
X126991223Y-63784346D01*
X127026862Y-63765296D01*
X127065532Y-63753565D01*
X127111888Y-63749000D01*
X127763112Y-63749000D01*
X127809468Y-63753565D01*
X127809468Y-63753565D01*
G37*
G36*
X125934468Y-63753565D02*
G01*
X125973138Y-63765296D01*
X126008777Y-63784346D01*
X126040017Y-63809983D01*
X126065654Y-63841223D01*
X126084704Y-63876862D01*
X126096435Y-63915532D01*
X126101000Y-63961888D01*
X126101000Y-65038112D01*
X126096435Y-65084468D01*
X126084704Y-65123138D01*
X126065654Y-65158777D01*
X126040017Y-65190017D01*
X126008777Y-65215654D01*
X125973138Y-65234704D01*
X125934468Y-65246435D01*
X125888112Y-65251000D01*
X125236888Y-65251000D01*
X125190532Y-65246435D01*
X125151862Y-65234704D01*
X125116223Y-65215654D01*
X125084983Y-65190017D01*
X125059346Y-65158777D01*
X125040296Y-65123138D01*
X125028565Y-65084468D01*
X125024000Y-65038112D01*
X125024000Y-63961888D01*
X125028565Y-63915532D01*
X125040296Y-63876862D01*
X125059346Y-63841223D01*
X125084983Y-63809983D01*
X125116223Y-63784346D01*
X125151862Y-63765296D01*
X125190532Y-63753565D01*
X125236888Y-63749000D01*
X125888112Y-63749000D01*
X125934468Y-63753565D01*
X125934468Y-63753565D01*
G37*
G36*
X149213500Y-64507250D02*
G01*
X148261500Y-64507250D01*
X148261500Y-63492750D01*
X149213500Y-63492750D01*
X149213500Y-64507250D01*
X149213500Y-64507250D01*
G37*
G36*
X131738500Y-64507250D02*
G01*
X130786500Y-64507250D01*
X130786500Y-63492750D01*
X131738500Y-63492750D01*
X131738500Y-64507250D01*
X131738500Y-64507250D01*
G37*
G36*
X118747468Y-62253565D02*
G01*
X118786138Y-62265296D01*
X118821777Y-62284346D01*
X118853017Y-62309983D01*
X118878654Y-62341223D01*
X118897704Y-62376862D01*
X118909435Y-62415532D01*
X118914000Y-62461888D01*
X118914000Y-63538112D01*
X118909435Y-63584468D01*
X118897704Y-63623138D01*
X118878654Y-63658777D01*
X118853017Y-63690017D01*
X118821777Y-63715654D01*
X118786138Y-63734704D01*
X118747468Y-63746435D01*
X118701112Y-63751000D01*
X118049888Y-63751000D01*
X118003532Y-63746435D01*
X117964862Y-63734704D01*
X117929223Y-63715654D01*
X117897983Y-63690017D01*
X117872346Y-63658777D01*
X117853296Y-63623138D01*
X117841565Y-63584468D01*
X117837000Y-63538112D01*
X117837000Y-62461888D01*
X117841565Y-62415532D01*
X117853296Y-62376862D01*
X117872346Y-62341223D01*
X117897983Y-62309983D01*
X117929223Y-62284346D01*
X117964862Y-62265296D01*
X118003532Y-62253565D01*
X118049888Y-62249000D01*
X118701112Y-62249000D01*
X118747468Y-62253565D01*
X118747468Y-62253565D01*
G37*
G36*
X116872468Y-62253565D02*
G01*
X116911138Y-62265296D01*
X116946777Y-62284346D01*
X116978017Y-62309983D01*
X117003654Y-62341223D01*
X117022704Y-62376862D01*
X117034435Y-62415532D01*
X117039000Y-62461888D01*
X117039000Y-63538112D01*
X117034435Y-63584468D01*
X117022704Y-63623138D01*
X117003654Y-63658777D01*
X116978017Y-63690017D01*
X116946777Y-63715654D01*
X116911138Y-63734704D01*
X116872468Y-63746435D01*
X116826112Y-63751000D01*
X116174888Y-63751000D01*
X116128532Y-63746435D01*
X116089862Y-63734704D01*
X116054223Y-63715654D01*
X116022983Y-63690017D01*
X115997346Y-63658777D01*
X115978296Y-63623138D01*
X115966565Y-63584468D01*
X115962000Y-63538112D01*
X115962000Y-62461888D01*
X115966565Y-62415532D01*
X115978296Y-62376862D01*
X115997346Y-62341223D01*
X116022983Y-62309983D01*
X116054223Y-62284346D01*
X116089862Y-62265296D01*
X116128532Y-62253565D01*
X116174888Y-62249000D01*
X116826112Y-62249000D01*
X116872468Y-62253565D01*
X116872468Y-62253565D01*
G37*
G36*
X160345680Y-58385415D02*
G01*
X160481579Y-58412447D01*
X160782042Y-58536903D01*
X161052451Y-58717585D01*
X161282415Y-58947549D01*
X161463097Y-59217958D01*
X161586204Y-59515164D01*
X161587553Y-59518422D01*
X161651000Y-59837389D01*
X161651000Y-60162611D01*
X161617823Y-60329401D01*
X161587553Y-60481579D01*
X161569787Y-60524469D01*
X161473824Y-60756146D01*
X161463097Y-60782042D01*
X161282415Y-61052451D01*
X161052451Y-61282415D01*
X160782042Y-61463097D01*
X160481579Y-61587553D01*
X160375256Y-61608702D01*
X160162611Y-61651000D01*
X159837389Y-61651000D01*
X159624744Y-61608702D01*
X159518421Y-61587553D01*
X159217958Y-61463097D01*
X158947549Y-61282415D01*
X158717585Y-61052451D01*
X158536903Y-60782042D01*
X158526177Y-60756146D01*
X158430213Y-60524469D01*
X158412447Y-60481579D01*
X158382177Y-60329401D01*
X158349000Y-60162611D01*
X158349000Y-59837389D01*
X158412447Y-59518422D01*
X158413797Y-59515164D01*
X158536903Y-59217958D01*
X158717585Y-58947549D01*
X158947549Y-58717585D01*
X159217958Y-58536903D01*
X159518421Y-58412447D01*
X159654320Y-58385415D01*
X159837389Y-58349000D01*
X160162611Y-58349000D01*
X160345680Y-58385415D01*
X160345680Y-58385415D01*
G37*
G36*
X70345680Y-58385415D02*
G01*
X70481579Y-58412447D01*
X70782042Y-58536903D01*
X71052451Y-58717585D01*
X71282415Y-58947549D01*
X71463097Y-59217958D01*
X71586204Y-59515164D01*
X71587553Y-59518422D01*
X71651000Y-59837389D01*
X71651000Y-60162611D01*
X71617823Y-60329401D01*
X71587553Y-60481579D01*
X71569787Y-60524469D01*
X71473824Y-60756146D01*
X71463097Y-60782042D01*
X71282415Y-61052451D01*
X71052451Y-61282415D01*
X70782042Y-61463097D01*
X70481579Y-61587553D01*
X70375256Y-61608702D01*
X70162611Y-61651000D01*
X69837389Y-61651000D01*
X69624744Y-61608702D01*
X69518421Y-61587553D01*
X69217958Y-61463097D01*
X68947549Y-61282415D01*
X68717585Y-61052451D01*
X68536903Y-60782042D01*
X68526177Y-60756146D01*
X68430213Y-60524469D01*
X68412447Y-60481579D01*
X68382177Y-60329401D01*
X68349000Y-60162611D01*
X68349000Y-59837389D01*
X68412447Y-59518422D01*
X68413797Y-59515164D01*
X68536903Y-59217958D01*
X68717585Y-58947549D01*
X68947549Y-58717585D01*
X69217958Y-58536903D01*
X69518421Y-58412447D01*
X69654320Y-58385415D01*
X69837389Y-58349000D01*
X70162611Y-58349000D01*
X70345680Y-58385415D01*
X70345680Y-58385415D01*
G37*
G36*
X100613928Y-59342764D02*
G01*
X100635009Y-59349160D01*
X100654445Y-59359548D01*
X100671476Y-59373524D01*
X100685452Y-59390555D01*
X100695840Y-59409991D01*
X100702236Y-59431072D01*
X100705000Y-59459140D01*
X100705000Y-60872860D01*
X100702236Y-60900928D01*
X100695840Y-60922009D01*
X100685452Y-60941445D01*
X100671476Y-60958476D01*
X100654445Y-60972452D01*
X100635009Y-60982840D01*
X100613928Y-60989236D01*
X100585860Y-60992000D01*
X100122140Y-60992000D01*
X100094072Y-60989236D01*
X100072991Y-60982840D01*
X100053555Y-60972452D01*
X100036524Y-60958476D01*
X100022548Y-60941445D01*
X100012160Y-60922009D01*
X100005764Y-60900928D01*
X100003000Y-60872860D01*
X100003000Y-59459140D01*
X100005764Y-59431072D01*
X100012160Y-59409991D01*
X100022548Y-59390555D01*
X100036524Y-59373524D01*
X100053555Y-59359548D01*
X100072991Y-59349160D01*
X100094072Y-59342764D01*
X100122140Y-59340000D01*
X100585860Y-59340000D01*
X100613928Y-59342764D01*
X100613928Y-59342764D01*
G37*
G36*
X99613928Y-59342764D02*
G01*
X99635009Y-59349160D01*
X99654445Y-59359548D01*
X99671476Y-59373524D01*
X99685452Y-59390555D01*
X99695840Y-59409991D01*
X99702236Y-59431072D01*
X99705000Y-59459140D01*
X99705000Y-60872860D01*
X99702236Y-60900928D01*
X99695840Y-60922009D01*
X99685452Y-60941445D01*
X99671476Y-60958476D01*
X99654445Y-60972452D01*
X99635009Y-60982840D01*
X99613928Y-60989236D01*
X99585860Y-60992000D01*
X99122140Y-60992000D01*
X99094072Y-60989236D01*
X99072991Y-60982840D01*
X99053555Y-60972452D01*
X99036524Y-60958476D01*
X99022548Y-60941445D01*
X99012160Y-60922009D01*
X99005764Y-60900928D01*
X99003000Y-60872860D01*
X99003000Y-59459140D01*
X99005764Y-59431072D01*
X99012160Y-59409991D01*
X99022548Y-59390555D01*
X99036524Y-59373524D01*
X99053555Y-59359548D01*
X99072991Y-59349160D01*
X99094072Y-59342764D01*
X99122140Y-59340000D01*
X99585860Y-59340000D01*
X99613928Y-59342764D01*
X99613928Y-59342764D01*
G37*
G36*
X102613928Y-59342764D02*
G01*
X102635009Y-59349160D01*
X102654445Y-59359548D01*
X102671476Y-59373524D01*
X102685452Y-59390555D01*
X102695840Y-59409991D01*
X102702236Y-59431072D01*
X102705000Y-59459140D01*
X102705000Y-60872860D01*
X102702236Y-60900928D01*
X102695840Y-60922009D01*
X102685452Y-60941445D01*
X102671476Y-60958476D01*
X102654445Y-60972452D01*
X102635009Y-60982840D01*
X102613928Y-60989236D01*
X102585860Y-60992000D01*
X102122140Y-60992000D01*
X102094072Y-60989236D01*
X102072991Y-60982840D01*
X102053555Y-60972452D01*
X102036524Y-60958476D01*
X102022548Y-60941445D01*
X102012160Y-60922009D01*
X102005764Y-60900928D01*
X102003000Y-60872860D01*
X102003000Y-59459140D01*
X102005764Y-59431072D01*
X102012160Y-59409991D01*
X102022548Y-59390555D01*
X102036524Y-59373524D01*
X102053555Y-59359548D01*
X102072991Y-59349160D01*
X102094072Y-59342764D01*
X102122140Y-59340000D01*
X102585860Y-59340000D01*
X102613928Y-59342764D01*
X102613928Y-59342764D01*
G37*
G36*
X103613928Y-59342764D02*
G01*
X103635009Y-59349160D01*
X103654445Y-59359548D01*
X103671476Y-59373524D01*
X103685452Y-59390555D01*
X103695840Y-59409991D01*
X103702236Y-59431072D01*
X103705000Y-59459140D01*
X103705000Y-60872860D01*
X103702236Y-60900928D01*
X103695840Y-60922009D01*
X103685452Y-60941445D01*
X103671476Y-60958476D01*
X103654445Y-60972452D01*
X103635009Y-60982840D01*
X103613928Y-60989236D01*
X103585860Y-60992000D01*
X103122140Y-60992000D01*
X103094072Y-60989236D01*
X103072991Y-60982840D01*
X103053555Y-60972452D01*
X103036524Y-60958476D01*
X103022548Y-60941445D01*
X103012160Y-60922009D01*
X103005764Y-60900928D01*
X103003000Y-60872860D01*
X103003000Y-59459140D01*
X103005764Y-59431072D01*
X103012160Y-59409991D01*
X103022548Y-59390555D01*
X103036524Y-59373524D01*
X103053555Y-59359548D01*
X103072991Y-59349160D01*
X103094072Y-59342764D01*
X103122140Y-59340000D01*
X103585860Y-59340000D01*
X103613928Y-59342764D01*
X103613928Y-59342764D01*
G37*
G36*
X101613928Y-59342764D02*
G01*
X101635009Y-59349160D01*
X101654445Y-59359548D01*
X101671476Y-59373524D01*
X101685452Y-59390555D01*
X101695840Y-59409991D01*
X101702236Y-59431072D01*
X101705000Y-59459140D01*
X101705000Y-60872860D01*
X101702236Y-60900928D01*
X101695840Y-60922009D01*
X101685452Y-60941445D01*
X101671476Y-60958476D01*
X101654445Y-60972452D01*
X101635009Y-60982840D01*
X101613928Y-60989236D01*
X101585860Y-60992000D01*
X101122140Y-60992000D01*
X101094072Y-60989236D01*
X101072991Y-60982840D01*
X101053555Y-60972452D01*
X101036524Y-60958476D01*
X101022548Y-60941445D01*
X101012160Y-60922009D01*
X101005764Y-60900928D01*
X101003000Y-60872860D01*
X101003000Y-59459140D01*
X101005764Y-59431072D01*
X101012160Y-59409991D01*
X101022548Y-59390555D01*
X101036524Y-59373524D01*
X101053555Y-59359548D01*
X101072991Y-59349160D01*
X101094072Y-59342764D01*
X101122140Y-59340000D01*
X101585860Y-59340000D01*
X101613928Y-59342764D01*
X101613928Y-59342764D01*
G37*
G36*
X104613928Y-59342764D02*
G01*
X104635009Y-59349160D01*
X104654445Y-59359548D01*
X104671476Y-59373524D01*
X104685452Y-59390555D01*
X104695840Y-59409991D01*
X104702236Y-59431072D01*
X104705000Y-59459140D01*
X104705000Y-60872860D01*
X104702236Y-60900928D01*
X104695840Y-60922009D01*
X104685452Y-60941445D01*
X104671476Y-60958476D01*
X104654445Y-60972452D01*
X104635009Y-60982840D01*
X104613928Y-60989236D01*
X104585860Y-60992000D01*
X104122140Y-60992000D01*
X104094072Y-60989236D01*
X104072991Y-60982840D01*
X104053555Y-60972452D01*
X104036524Y-60958476D01*
X104022548Y-60941445D01*
X104012160Y-60922009D01*
X104005764Y-60900928D01*
X104003000Y-60872860D01*
X104003000Y-59459140D01*
X104005764Y-59431072D01*
X104012160Y-59409991D01*
X104022548Y-59390555D01*
X104036524Y-59373524D01*
X104053555Y-59359548D01*
X104072991Y-59349160D01*
X104094072Y-59342764D01*
X104122140Y-59340000D01*
X104585860Y-59340000D01*
X104613928Y-59342764D01*
X104613928Y-59342764D01*
G37*
G36*
X111547715Y-58908058D02*
G01*
X111665722Y-58943855D01*
X111774468Y-59001981D01*
X111869790Y-59080210D01*
X111948019Y-59175532D01*
X112006145Y-59284278D01*
X112041942Y-59402285D01*
X112051000Y-59494254D01*
X112051000Y-60205746D01*
X112041942Y-60297715D01*
X112006145Y-60415722D01*
X111948019Y-60524468D01*
X111869790Y-60619790D01*
X111774468Y-60698019D01*
X111665721Y-60756145D01*
X111547714Y-60791942D01*
X111425000Y-60804028D01*
X111302285Y-60791942D01*
X111184278Y-60756145D01*
X111075532Y-60698019D01*
X110980210Y-60619790D01*
X110901981Y-60524468D01*
X110843855Y-60415721D01*
X110808058Y-60297714D01*
X110799000Y-60205745D01*
X110799000Y-59494254D01*
X110808058Y-59402285D01*
X110843855Y-59284279D01*
X110901982Y-59175532D01*
X110980211Y-59080210D01*
X111075533Y-59001981D01*
X111184279Y-58943855D01*
X111302286Y-58908058D01*
X111425000Y-58895972D01*
X111547715Y-58908058D01*
X111547715Y-58908058D01*
G37*
G36*
X118697715Y-58908058D02*
G01*
X118815722Y-58943855D01*
X118924468Y-59001981D01*
X119019790Y-59080210D01*
X119098019Y-59175532D01*
X119156145Y-59284278D01*
X119191942Y-59402285D01*
X119201000Y-59494254D01*
X119201000Y-60205746D01*
X119191942Y-60297715D01*
X119156145Y-60415722D01*
X119098019Y-60524468D01*
X119019790Y-60619790D01*
X118924468Y-60698019D01*
X118815721Y-60756145D01*
X118697714Y-60791942D01*
X118575000Y-60804028D01*
X118452285Y-60791942D01*
X118334278Y-60756145D01*
X118225532Y-60698019D01*
X118130210Y-60619790D01*
X118051981Y-60524468D01*
X117993855Y-60415721D01*
X117958058Y-60297714D01*
X117949000Y-60205745D01*
X117949000Y-59494254D01*
X117958058Y-59402285D01*
X117993855Y-59284279D01*
X118051982Y-59175532D01*
X118130211Y-59080210D01*
X118225533Y-59001981D01*
X118334279Y-58943855D01*
X118452286Y-58908058D01*
X118575000Y-58895972D01*
X118697715Y-58908058D01*
X118697715Y-58908058D01*
G37*
G36*
X122554591Y-59478085D02*
G01*
X122588569Y-59488393D01*
X122619890Y-59505134D01*
X122647339Y-59527661D01*
X122669866Y-59555110D01*
X122686607Y-59586431D01*
X122696915Y-59620409D01*
X122701000Y-59661890D01*
X122701000Y-60338110D01*
X122696915Y-60379591D01*
X122686607Y-60413569D01*
X122669866Y-60444890D01*
X122647339Y-60472339D01*
X122619890Y-60494866D01*
X122588569Y-60511607D01*
X122554591Y-60521915D01*
X122513110Y-60526000D01*
X121911890Y-60526000D01*
X121870409Y-60521915D01*
X121836431Y-60511607D01*
X121805110Y-60494866D01*
X121777661Y-60472339D01*
X121755134Y-60444890D01*
X121738393Y-60413569D01*
X121728085Y-60379591D01*
X121724000Y-60338110D01*
X121724000Y-59661890D01*
X121728085Y-59620409D01*
X121738393Y-59586431D01*
X121755134Y-59555110D01*
X121777661Y-59527661D01*
X121805110Y-59505134D01*
X121836431Y-59488393D01*
X121870409Y-59478085D01*
X121911890Y-59474000D01*
X122513110Y-59474000D01*
X122554591Y-59478085D01*
X122554591Y-59478085D01*
G37*
G36*
X124129591Y-59478085D02*
G01*
X124163569Y-59488393D01*
X124194890Y-59505134D01*
X124222339Y-59527661D01*
X124244866Y-59555110D01*
X124261607Y-59586431D01*
X124271915Y-59620409D01*
X124276000Y-59661890D01*
X124276000Y-60338110D01*
X124271915Y-60379591D01*
X124261607Y-60413569D01*
X124244866Y-60444890D01*
X124222339Y-60472339D01*
X124194890Y-60494866D01*
X124163569Y-60511607D01*
X124129591Y-60521915D01*
X124088110Y-60526000D01*
X123486890Y-60526000D01*
X123445409Y-60521915D01*
X123411431Y-60511607D01*
X123380110Y-60494866D01*
X123352661Y-60472339D01*
X123330134Y-60444890D01*
X123313393Y-60413569D01*
X123303085Y-60379591D01*
X123299000Y-60338110D01*
X123299000Y-59661890D01*
X123303085Y-59620409D01*
X123313393Y-59586431D01*
X123330134Y-59555110D01*
X123352661Y-59527661D01*
X123380110Y-59505134D01*
X123411431Y-59488393D01*
X123445409Y-59478085D01*
X123486890Y-59474000D01*
X124088110Y-59474000D01*
X124129591Y-59478085D01*
X124129591Y-59478085D01*
G37*
G36*
X113073710Y-58159440D02*
G01*
X113144585Y-58180940D01*
X113209904Y-58215854D01*
X113267159Y-58262841D01*
X113314146Y-58320096D01*
X113349060Y-58385415D01*
X113370560Y-58456290D01*
X113373511Y-58486254D01*
X113378292Y-58510287D01*
X113387669Y-58532926D01*
X113401283Y-58553300D01*
X113418610Y-58570627D01*
X113438985Y-58584241D01*
X113461624Y-58593618D01*
X113497908Y-58599000D01*
X116502092Y-58599000D01*
X116526478Y-58596598D01*
X116549927Y-58589485D01*
X116571538Y-58577934D01*
X116590480Y-58562389D01*
X116606025Y-58543447D01*
X116617576Y-58521836D01*
X116626489Y-58486254D01*
X116629440Y-58456290D01*
X116650940Y-58385415D01*
X116685854Y-58320096D01*
X116732841Y-58262841D01*
X116790096Y-58215854D01*
X116855415Y-58180940D01*
X116926290Y-58159440D01*
X116981528Y-58154000D01*
X117018472Y-58154000D01*
X117073710Y-58159440D01*
X117144585Y-58180940D01*
X117209904Y-58215854D01*
X117267159Y-58262841D01*
X117314146Y-58320096D01*
X117349060Y-58385415D01*
X117370560Y-58456290D01*
X117377819Y-58530000D01*
X117370560Y-58603710D01*
X117349060Y-58674585D01*
X117314146Y-58739904D01*
X117267159Y-58797159D01*
X117209904Y-58844146D01*
X117144585Y-58879060D01*
X117073710Y-58900560D01*
X117018472Y-58906000D01*
X116981528Y-58906000D01*
X116926290Y-58900560D01*
X116855415Y-58879060D01*
X116790096Y-58844146D01*
X116755297Y-58815588D01*
X116734922Y-58801974D01*
X116712283Y-58792597D01*
X116688250Y-58787817D01*
X116663746Y-58787817D01*
X116639713Y-58792598D01*
X116617074Y-58801975D01*
X116596700Y-58815589D01*
X116579373Y-58832916D01*
X116565759Y-58853291D01*
X116556382Y-58875930D01*
X116551000Y-58912214D01*
X116551000Y-60101000D01*
X113449000Y-60101000D01*
X113449000Y-58912214D01*
X113446598Y-58887828D01*
X113439485Y-58864379D01*
X113427934Y-58842768D01*
X113412389Y-58823826D01*
X113393447Y-58808281D01*
X113371836Y-58796730D01*
X113348387Y-58789617D01*
X113324001Y-58787215D01*
X113299615Y-58789617D01*
X113276166Y-58796730D01*
X113244703Y-58815588D01*
X113209904Y-58844146D01*
X113144585Y-58879060D01*
X113073710Y-58900560D01*
X113018472Y-58906000D01*
X112981528Y-58906000D01*
X112926290Y-58900560D01*
X112855415Y-58879060D01*
X112790096Y-58844146D01*
X112732841Y-58797159D01*
X112685854Y-58739904D01*
X112650940Y-58674585D01*
X112629440Y-58603710D01*
X112622181Y-58530000D01*
X112629440Y-58456290D01*
X112650940Y-58385415D01*
X112685854Y-58320096D01*
X112732841Y-58262841D01*
X112790096Y-58215854D01*
X112855415Y-58180940D01*
X112926290Y-58159440D01*
X112981528Y-58154000D01*
X113018472Y-58154000D01*
X113073710Y-58159440D01*
X113073710Y-58159440D01*
G37*
G36*
X118697715Y-55458058D02*
G01*
X118815722Y-55493855D01*
X118924468Y-55551981D01*
X119019790Y-55630210D01*
X119098019Y-55725532D01*
X119156145Y-55834278D01*
X119191942Y-55952285D01*
X119201000Y-56044254D01*
X119201000Y-56755746D01*
X119191942Y-56847715D01*
X119156145Y-56965722D01*
X119098019Y-57074468D01*
X119019790Y-57169790D01*
X118924468Y-57248019D01*
X118815721Y-57306145D01*
X118697714Y-57341942D01*
X118575000Y-57354028D01*
X118452285Y-57341942D01*
X118334278Y-57306145D01*
X118225532Y-57248019D01*
X118130210Y-57169790D01*
X118051981Y-57074468D01*
X117993855Y-56965721D01*
X117958058Y-56847714D01*
X117949000Y-56755745D01*
X117949000Y-56044254D01*
X117958058Y-55952285D01*
X117993855Y-55834279D01*
X118051982Y-55725532D01*
X118130211Y-55630210D01*
X118225533Y-55551981D01*
X118334279Y-55493855D01*
X118452286Y-55458058D01*
X118575000Y-55445972D01*
X118697715Y-55458058D01*
X118697715Y-55458058D01*
G37*
G36*
X111547715Y-55458058D02*
G01*
X111665722Y-55493855D01*
X111774468Y-55551981D01*
X111869790Y-55630210D01*
X111948019Y-55725532D01*
X112006145Y-55834278D01*
X112041942Y-55952285D01*
X112051000Y-56044254D01*
X112051000Y-56755746D01*
X112041942Y-56847715D01*
X112006145Y-56965722D01*
X111948019Y-57074468D01*
X111869790Y-57169790D01*
X111774468Y-57248019D01*
X111665721Y-57306145D01*
X111547714Y-57341942D01*
X111425000Y-57354028D01*
X111302285Y-57341942D01*
X111184278Y-57306145D01*
X111075532Y-57248019D01*
X110980210Y-57169790D01*
X110901981Y-57074468D01*
X110843855Y-56965721D01*
X110808058Y-56847714D01*
X110799000Y-56755745D01*
X110799000Y-56044254D01*
X110808058Y-55952285D01*
X110843855Y-55834279D01*
X110901982Y-55725532D01*
X110980211Y-55630210D01*
X111075533Y-55551981D01*
X111184279Y-55493855D01*
X111302286Y-55458058D01*
X111425000Y-55445972D01*
X111547715Y-55458058D01*
X111547715Y-55458058D01*
G37*
G36*
X106145656Y-55344394D02*
G01*
X106182656Y-55355618D01*
X106216748Y-55373840D01*
X106246634Y-55398366D01*
X106271160Y-55428252D01*
X106289382Y-55462344D01*
X106300606Y-55499344D01*
X106305000Y-55543956D01*
X106305000Y-57038044D01*
X106300606Y-57082656D01*
X106289382Y-57119656D01*
X106271160Y-57153748D01*
X106246634Y-57183634D01*
X106216748Y-57208160D01*
X106182656Y-57226382D01*
X106145656Y-57237606D01*
X106101044Y-57242000D01*
X105206956Y-57242000D01*
X105162344Y-57237606D01*
X105125344Y-57226382D01*
X105091252Y-57208160D01*
X105061366Y-57183634D01*
X105036840Y-57153748D01*
X105018618Y-57119656D01*
X105007394Y-57082656D01*
X105003000Y-57038044D01*
X105003000Y-55543956D01*
X105007394Y-55499344D01*
X105018618Y-55462344D01*
X105036840Y-55428252D01*
X105061366Y-55398366D01*
X105091252Y-55373840D01*
X105125344Y-55355618D01*
X105162344Y-55344394D01*
X105206956Y-55340000D01*
X106101044Y-55340000D01*
X106145656Y-55344394D01*
X106145656Y-55344394D01*
G37*
G36*
X98545656Y-55344394D02*
G01*
X98582656Y-55355618D01*
X98616748Y-55373840D01*
X98646634Y-55398366D01*
X98671160Y-55428252D01*
X98689382Y-55462344D01*
X98700606Y-55499344D01*
X98705000Y-55543956D01*
X98705000Y-57038044D01*
X98700606Y-57082656D01*
X98689382Y-57119656D01*
X98671160Y-57153748D01*
X98646634Y-57183634D01*
X98616748Y-57208160D01*
X98582656Y-57226382D01*
X98545656Y-57237606D01*
X98501044Y-57242000D01*
X97606956Y-57242000D01*
X97562344Y-57237606D01*
X97525344Y-57226382D01*
X97491252Y-57208160D01*
X97461366Y-57183634D01*
X97436840Y-57153748D01*
X97418618Y-57119656D01*
X97407394Y-57082656D01*
X97403000Y-57038044D01*
X97403000Y-55543956D01*
X97407394Y-55499344D01*
X97418618Y-55462344D01*
X97436840Y-55428252D01*
X97461366Y-55398366D01*
X97491252Y-55373840D01*
X97525344Y-55355618D01*
X97562344Y-55344394D01*
X97606956Y-55340000D01*
X98501044Y-55340000D01*
X98545656Y-55344394D01*
X98545656Y-55344394D01*
G37*
M02*
