M48
; DRILL file {KiCad (5.1.2)-1} date 2019/06/20 4:44:53
; FORMAT={-:-/ absolute / inch / decimal}
; #@! TF.CreationDate,2019-06-20T04:44:53+09:00
; #@! TF.GenerationSoftware,Kicad,Pcbnew,(5.1.2)-1
; #@! TF.FileFunction,Plated,1,2,PTH
FMAT,2
INCH
T1C0.0157
T2C0.0217
T3C0.0276
T4C0.0315
T5C0.0394
T6C0.0433
T7C0.0591
%
G90
G05
T1
X2.624Y-4.6449
X2.6811Y-4.3898
X2.7898Y-4.128
X2.8583Y-5.7205
X2.9143Y-2.7117
X2.9143Y-3.7214
X2.9528Y-5.9055
X2.9583Y-2.2646
X3.0217Y-2.6476
X3.0246Y-2.7303
X3.0518Y-3.4287
X3.1235Y-2.9959
X3.126Y-2.8268
X3.1575Y-3.8583
X3.1624Y-4.6348
X3.1732Y-4.3898
X3.2165Y-4.4567
X3.2221Y-3.8592
X3.2239Y-4.8465
X3.2294Y-3.6916
X3.2359Y-3.2484
X3.2592Y-3.8796
X3.2874Y-5.8228
X3.2929Y-5.0394
X3.3091Y-2.687
X3.3161Y-2.7461
X3.3268Y-3.5433
X3.3465Y-2.2441
X3.3732Y-4.5427
X3.4055Y-4.4774
X3.4193Y-2.628
X3.4252Y-5.7047
X3.4399Y-2.7472
X3.4469Y-2.5689
X3.4586Y-2.7115
X3.4646Y-2.935
X3.4787Y-2.3934
X3.5031Y-2.3374
X3.5157Y-2.6673
X3.5374Y-3.1299
X3.5565Y-2.3658
X3.5905Y-4.4512
X3.6219Y-2.7856
X3.626Y-2.7067
X3.6374Y-3.0515
X3.7402Y-2.2638
X3.7427Y-3.131
X3.7441Y-5.2874
X3.7517Y-3.0239
X3.755Y-3.1789
X3.7578Y-2.1934
X3.7971Y-2.3464
X3.807Y-2.9923
X3.8584Y-3.6034
X3.8939Y-4.2571
X3.9084Y-3.9074
X3.9264Y-2.4949
X3.9307Y-3.0261
X3.9652Y-2.2529
X3.9768Y-2.5429
X3.997Y-2.2992
X4.0211Y-3.2511
X4.0315Y-2.4213
X4.0372Y-4.3665
X4.0394Y-4.5427
X4.0482Y-3.3232
X4.0592Y-4.3245
X4.0906Y-4.5427
X4.1024Y-4.6654
X4.1063Y-2.311
X4.1161Y-2.7579
X4.1319Y-3.5441
X4.1319Y-4.1884
X4.1625Y-2.7768
X4.176Y-2.6437
X4.1959Y-2.8447
X4.2067Y-2.6161
X4.2126Y-2.7795
X4.2189Y-4.5177
X4.2244Y-3.362
X4.2888Y-3.2484
X4.3622Y-4.6378
X4.367Y-2.7492
X4.3755Y-2.6919
X4.3922Y-2.6563
X4.4416Y-2.9042
X4.5098Y-2.4587
X4.5255Y-2.3988
X4.5638Y-5.6134
X4.7323Y-2.4094
X4.7604Y-2.2635
X4.7812Y-3.4933
X4.8002Y-4.6467
X4.9213Y-3.9291
X4.9213Y-4.4685
X5.0423Y-3.2618
X5.0669Y-2.9331
X5.0906Y-2.5197
X5.0925Y-2.5797
X5.0984Y-3.5031
X5.2173Y-2.815
X5.3543Y-3.1496
X5.3661Y-5.2047
X5.6033Y-4.6407
X5.622Y-2.6319
X5.7087Y-3.1496
X5.7756Y-5.1024
X5.7795Y-4.5354
X5.815Y-2.6969
X6.0275Y-4.7175
X6.0315Y-5.2677
X6.0925Y-2.2067
X6.1339Y-3.9331
X6.2992Y-2.5591
X6.2992Y-5.7087
X6.3032Y-4.4177
T3
X3.3071Y-3.248
X3.3661Y-3.248
X3.4252Y-3.248
X3.4843Y-3.248
X3.5433Y-3.248
X3.6024Y-3.248
X3.6614Y-3.248
X3.7205Y-3.248
X3.7795Y-3.248
X6.128Y-3.3799
T5
X5.502Y-2.7165
X5.502Y-2.8346
X5.6102Y-2.7165
X5.6102Y-2.8346
X3.6417Y-3.7598
X3.6417Y-4.3307
X3.7402Y-4.3307
X3.8386Y-3.7598
X3.8386Y-4.3307
X6.0039Y-3.7598
X6.0039Y-4.3307
X6.1024Y-4.3307
X6.2008Y-3.7598
X6.2008Y-4.3307
X2.8543Y-3.7598
X2.8543Y-4.3307
X2.9528Y-4.3307
X3.0512Y-3.7598
X3.0512Y-4.3307
X5.0673Y-3.1437
X5.1673Y-3.1437
X6.128Y-2.8819
X6.128Y-2.9819
X6.128Y-3.0819
X6.228Y-2.8819
X6.228Y-2.9819
X6.228Y-3.0819
X4.4291Y-3.7598
X4.4291Y-4.3307
X4.5276Y-4.3307
X4.626Y-3.7598
X4.626Y-4.3307
X2.8543Y-4.9409
X2.8543Y-5.5118
X2.9528Y-5.5118
X3.0512Y-4.9409
X3.0512Y-5.5118
X5.2165Y-3.7598
X5.2165Y-4.3307
X5.315Y-4.3307
X5.4134Y-3.7598
X5.4134Y-4.3307
T6
X3.5433Y-4.9213
X3.5433Y-5.0984
X3.7992Y-4.9213
X3.7992Y-5.0984
X5.315Y-5.5118
X5.315Y-5.689
X5.5709Y-5.5118
X5.5709Y-5.689
X5.9055Y-5.5118
X5.9055Y-5.689
X6.1614Y-5.5118
X6.1614Y-5.689
X4.7244Y-4.9213
X4.7244Y-5.0984
X4.9803Y-4.9213
X4.9803Y-5.0984
X4.7244Y-5.5118
X4.7244Y-5.689
X4.9803Y-5.5118
X4.9803Y-5.689
X5.9055Y-4.9213
X5.9055Y-5.0984
X6.1614Y-4.9213
X6.1614Y-5.0984
X4.1339Y-5.5118
X4.1339Y-5.689
X4.3898Y-5.5118
X4.3898Y-5.689
X5.315Y-4.9213
X5.315Y-5.0984
X5.5709Y-4.9213
X5.5709Y-5.0984
X4.1339Y-4.9213
X4.1339Y-5.0984
X4.3898Y-4.9213
X4.3898Y-5.0984
X3.5433Y-5.5118
X3.5433Y-5.689
X3.7992Y-5.5118
X3.7992Y-5.689
T2
G00X4.3868Y-2.2313
M15
G01X4.3868Y-2.2096
M16
G05
G00X4.3868Y-2.3671
M15
G01X4.3868Y-2.3455
M16
G05
G00X4.6683Y-2.2313
M15
G01X4.6683Y-2.2096
M16
G05
G00X4.6683Y-2.3671
M15
G01X4.6683Y-2.3455
M16
G05
T4
G00X3.2126Y-3.1654
M15
G01X3.2441Y-3.1654
M16
G05
G00X3.8425Y-3.1654
M15
G01X3.874Y-3.1654
M16
G05
T7
G00X2.7323Y-4.061
M15
G01X2.7323Y-4.0098
M16
G05
G00X3.1732Y-4.061
M15
G01X3.1732Y-4.0098
M16
G05
G00X4.3071Y-4.061
M15
G01X4.3071Y-4.0098
M16
G05
G00X4.748Y-4.061
M15
G01X4.748Y-4.0098
M16
G05
G00X2.7323Y-5.2421
M15
G01X2.7323Y-5.1909
M16
G05
G00X3.1732Y-5.2421
M15
G01X3.1732Y-5.1909
M16
G05
G00X5.0945Y-4.061
M15
G01X5.0945Y-4.0098
M16
G05
G00X5.5354Y-4.061
M15
G01X5.5354Y-4.0098
M16
G05
G00X3.5197Y-4.061
M15
G01X3.5197Y-4.0098
M16
G05
G00X3.9606Y-4.061
M15
G01X3.9606Y-4.0098
M16
G05
G00X5.8819Y-4.061
M15
G01X5.8819Y-4.0098
M16
G05
G00X6.3228Y-4.061
M15
G01X6.3228Y-4.0098
M16
G05
T0
M30
