G04 #@! TF.GenerationSoftware,KiCad,Pcbnew,(5.1.2)-1*
G04 #@! TF.CreationDate,2019-08-13T23:38:33+09:00*
G04 #@! TF.ProjectId,LrE-6,4c72452d-362e-46b6-9963-61645f706362,rev?*
G04 #@! TF.SameCoordinates,Original*
G04 #@! TF.FileFunction,Legend,Bot*
G04 #@! TF.FilePolarity,Positive*
%FSLAX46Y46*%
G04 Gerber Fmt 4.6, Leading zero omitted, Abs format (unit mm)*
G04 Created by KiCad (PCBNEW (5.1.2)-1) date 2019-08-13 23:38:33*
%MOMM*%
%LPD*%
G04 APERTURE LIST*
%ADD10C,0.120000*%
%ADD11C,0.300000*%
%ADD12C,0.200000*%
%ADD13C,0.010000*%
%ADD14C,0.150000*%
G04 APERTURE END LIST*
D10*
X93978000Y-85735279D02*
X93978000Y-85409721D01*
X94998000Y-85735279D02*
X94998000Y-85409721D01*
X92490000Y-85782779D02*
X92490000Y-85457221D01*
X93510000Y-85782779D02*
X93510000Y-85457221D01*
X160320000Y-79518578D02*
X160320000Y-79001422D01*
X161740000Y-79518578D02*
X161740000Y-79001422D01*
D11*
X139210000Y-147770000D02*
X139210000Y-146770000D01*
X109150000Y-147800000D02*
X109150000Y-146800000D01*
X152350000Y-146870000D02*
X152350000Y-147870000D01*
X124250000Y-147820000D02*
X124250000Y-146820000D01*
X154164000Y-132745000D02*
X154164000Y-131745000D01*
X94200000Y-132800000D02*
X94200000Y-131800000D01*
X109168000Y-132745000D02*
X109168000Y-131745000D01*
X139165000Y-132859000D02*
X139165000Y-131859000D01*
X94160000Y-147850000D02*
X94160000Y-146850000D01*
X124141000Y-132758000D02*
X124141000Y-131758000D01*
D10*
X86440000Y-64440000D02*
X86860000Y-64440000D01*
X86440000Y-71560000D02*
X86440000Y-71140000D01*
X93560000Y-71560000D02*
X93140000Y-71560000D01*
X93560000Y-64440000D02*
X93140000Y-64440000D01*
X86440000Y-71560000D02*
X86860000Y-71560000D01*
X86440000Y-64440000D02*
X86440000Y-64860000D01*
X93560000Y-64440000D02*
X93560000Y-64860000D01*
X93560000Y-71560000D02*
X93560000Y-71140000D01*
D12*
X84421500Y-70794000D02*
G75*
G03X84421500Y-70794000I-200000J0D01*
G01*
D10*
X79303378Y-81126400D02*
X78786222Y-81126400D01*
X79303378Y-79706400D02*
X78786222Y-79706400D01*
X138910000Y-129258578D02*
X138910000Y-128741422D01*
X137490000Y-129258578D02*
X137490000Y-128741422D01*
X92540000Y-129258578D02*
X92540000Y-128741422D01*
X93960000Y-129258578D02*
X93960000Y-128741422D01*
X107490000Y-128741422D02*
X107490000Y-129258578D01*
X108910000Y-128741422D02*
X108910000Y-129258578D01*
X103103422Y-56790000D02*
X103620578Y-56790000D01*
X103103422Y-58210000D02*
X103620578Y-58210000D01*
X123910000Y-129258578D02*
X123910000Y-128741422D01*
X122490000Y-129258578D02*
X122490000Y-128741422D01*
X123320578Y-56790000D02*
X122803422Y-56790000D01*
X123320578Y-58210000D02*
X122803422Y-58210000D01*
X134523922Y-70790000D02*
X135041078Y-70790000D01*
X134523922Y-72210000D02*
X135041078Y-72210000D01*
X90990000Y-85786179D02*
X90990000Y-85460621D01*
X92010000Y-85786179D02*
X92010000Y-85460621D01*
X84981300Y-85750579D02*
X84981300Y-85425021D01*
X86001300Y-85750579D02*
X86001300Y-85425021D01*
X98662779Y-71260000D02*
X98337221Y-71260000D01*
X98662779Y-70240000D02*
X98337221Y-70240000D01*
X93260000Y-59837221D02*
X93260000Y-60162779D01*
X92240000Y-59837221D02*
X92240000Y-60162779D01*
X79910000Y-69687221D02*
X79910000Y-70012779D01*
X78890000Y-69687221D02*
X78890000Y-70012779D01*
X80440000Y-70000279D02*
X80440000Y-69674721D01*
X81460000Y-70000279D02*
X81460000Y-69674721D01*
X88225279Y-76610000D02*
X87899721Y-76610000D01*
X88225279Y-75590000D02*
X87899721Y-75590000D01*
X87912779Y-85110000D02*
X87587221Y-85110000D01*
X87912779Y-84090000D02*
X87587221Y-84090000D01*
X100340000Y-81996400D02*
X101800000Y-81996400D01*
X100340000Y-78836400D02*
X102500000Y-78836400D01*
X100340000Y-78836400D02*
X100340000Y-79766400D01*
X100340000Y-81996400D02*
X100340000Y-81066400D01*
X98758578Y-72290000D02*
X98241422Y-72290000D01*
X98758578Y-73710000D02*
X98241422Y-73710000D01*
X105690000Y-58203922D02*
X105690000Y-58721078D01*
X107110000Y-58203922D02*
X107110000Y-58721078D01*
X95710000Y-59741422D02*
X95710000Y-60258578D01*
X94290000Y-59741422D02*
X94290000Y-60258578D01*
D13*
G36*
X102554662Y-152581930D02*
G01*
X103012018Y-152594689D01*
X103224517Y-152598261D01*
X103360318Y-152593929D01*
X103431597Y-152580450D01*
X103450528Y-152556584D01*
X103448990Y-152550128D01*
X103425881Y-152483811D01*
X103381870Y-152356487D01*
X103324997Y-152191437D01*
X103302204Y-152125176D01*
X103175803Y-151757544D01*
X102257334Y-151757544D01*
X102554662Y-152581930D01*
X102554662Y-152581930D01*
G37*
X102554662Y-152581930D02*
X103012018Y-152594689D01*
X103224517Y-152598261D01*
X103360318Y-152593929D01*
X103431597Y-152580450D01*
X103450528Y-152556584D01*
X103448990Y-152550128D01*
X103425881Y-152483811D01*
X103381870Y-152356487D01*
X103324997Y-152191437D01*
X103302204Y-152125176D01*
X103175803Y-151757544D01*
X102257334Y-151757544D01*
X102554662Y-152581930D01*
G36*
X106541564Y-150379069D02*
G01*
X106385645Y-150464784D01*
X106332945Y-150523150D01*
X106292017Y-150601679D01*
X106272857Y-150698536D01*
X106277342Y-150824868D01*
X106307347Y-150991822D01*
X106364748Y-151210545D01*
X106451421Y-151492183D01*
X106542538Y-151768621D01*
X106822982Y-152604083D01*
X107235175Y-152604147D01*
X107414453Y-152600832D01*
X107554318Y-152591883D01*
X107635159Y-152578885D01*
X107647368Y-152570833D01*
X107633936Y-152519213D01*
X107596826Y-152398197D01*
X107540825Y-152222847D01*
X107470714Y-152008223D01*
X107421681Y-151860304D01*
X107334733Y-151594133D01*
X107275786Y-151398731D01*
X107241894Y-151261291D01*
X107230115Y-151169003D01*
X107237504Y-151109060D01*
X107245003Y-151091576D01*
X107330195Y-151014297D01*
X107454819Y-151003289D01*
X107600606Y-151056899D01*
X107707054Y-151133378D01*
X107771595Y-151199332D01*
X107830794Y-151284848D01*
X107891745Y-151404672D01*
X107961541Y-151573553D01*
X108047277Y-151806239D01*
X108092875Y-151935484D01*
X108326788Y-152604211D01*
X108747625Y-152604211D01*
X108942743Y-152603424D01*
X109064203Y-152598409D01*
X109127469Y-152585181D01*
X109148003Y-152559758D01*
X109141271Y-152518157D01*
X109136884Y-152503948D01*
X109113814Y-152434495D01*
X109066192Y-152293939D01*
X108998508Y-152095432D01*
X108915252Y-151852129D01*
X108820915Y-151577183D01*
X108760365Y-151401053D01*
X108415424Y-150398421D01*
X108026111Y-150385469D01*
X107636797Y-150372517D01*
X107664173Y-150481592D01*
X107698103Y-150602285D01*
X107721156Y-150672790D01*
X107733177Y-150721174D01*
X107705289Y-150711603D01*
X107643364Y-150658776D01*
X107440116Y-150514615D01*
X107210290Y-150412698D01*
X106971908Y-150354891D01*
X106742992Y-150343060D01*
X106541564Y-150379069D01*
X106541564Y-150379069D01*
G37*
X106541564Y-150379069D02*
X106385645Y-150464784D01*
X106332945Y-150523150D01*
X106292017Y-150601679D01*
X106272857Y-150698536D01*
X106277342Y-150824868D01*
X106307347Y-150991822D01*
X106364748Y-151210545D01*
X106451421Y-151492183D01*
X106542538Y-151768621D01*
X106822982Y-152604083D01*
X107235175Y-152604147D01*
X107414453Y-152600832D01*
X107554318Y-152591883D01*
X107635159Y-152578885D01*
X107647368Y-152570833D01*
X107633936Y-152519213D01*
X107596826Y-152398197D01*
X107540825Y-152222847D01*
X107470714Y-152008223D01*
X107421681Y-151860304D01*
X107334733Y-151594133D01*
X107275786Y-151398731D01*
X107241894Y-151261291D01*
X107230115Y-151169003D01*
X107237504Y-151109060D01*
X107245003Y-151091576D01*
X107330195Y-151014297D01*
X107454819Y-151003289D01*
X107600606Y-151056899D01*
X107707054Y-151133378D01*
X107771595Y-151199332D01*
X107830794Y-151284848D01*
X107891745Y-151404672D01*
X107961541Y-151573553D01*
X108047277Y-151806239D01*
X108092875Y-151935484D01*
X108326788Y-152604211D01*
X108747625Y-152604211D01*
X108942743Y-152603424D01*
X109064203Y-152598409D01*
X109127469Y-152585181D01*
X109148003Y-152559758D01*
X109141271Y-152518157D01*
X109136884Y-152503948D01*
X109113814Y-152434495D01*
X109066192Y-152293939D01*
X108998508Y-152095432D01*
X108915252Y-151852129D01*
X108820915Y-151577183D01*
X108760365Y-151401053D01*
X108415424Y-150398421D01*
X108026111Y-150385469D01*
X107636797Y-150372517D01*
X107664173Y-150481592D01*
X107698103Y-150602285D01*
X107721156Y-150672790D01*
X107733177Y-150721174D01*
X107705289Y-150711603D01*
X107643364Y-150658776D01*
X107440116Y-150514615D01*
X107210290Y-150412698D01*
X106971908Y-150354891D01*
X106742992Y-150343060D01*
X106541564Y-150379069D01*
G36*
X109032704Y-149532974D02*
G01*
X108880259Y-149542433D01*
X108784659Y-149556287D01*
X108761404Y-149568480D01*
X108775312Y-149618346D01*
X108814860Y-149742681D01*
X108876780Y-149931648D01*
X108957805Y-150175413D01*
X109054668Y-150464138D01*
X109164101Y-150787989D01*
X109268372Y-151094708D01*
X109775340Y-152581930D01*
X110254090Y-152594633D01*
X110472480Y-152598194D01*
X110613957Y-152594262D01*
X110690505Y-152581671D01*
X110714107Y-152559255D01*
X110712526Y-152550071D01*
X110693878Y-152495766D01*
X110649985Y-152367101D01*
X110584261Y-152174107D01*
X110500120Y-151926814D01*
X110400974Y-151635254D01*
X110290236Y-151309456D01*
X110188878Y-151011141D01*
X109685542Y-149529474D01*
X109223473Y-149529474D01*
X109032704Y-149532974D01*
X109032704Y-149532974D01*
G37*
X109032704Y-149532974D02*
X108880259Y-149542433D01*
X108784659Y-149556287D01*
X108761404Y-149568480D01*
X108775312Y-149618346D01*
X108814860Y-149742681D01*
X108876780Y-149931648D01*
X108957805Y-150175413D01*
X109054668Y-150464138D01*
X109164101Y-150787989D01*
X109268372Y-151094708D01*
X109775340Y-152581930D01*
X110254090Y-152594633D01*
X110472480Y-152598194D01*
X110613957Y-152594262D01*
X110690505Y-152581671D01*
X110714107Y-152559255D01*
X110712526Y-152550071D01*
X110693878Y-152495766D01*
X110649985Y-152367101D01*
X110584261Y-152174107D01*
X110500120Y-151926814D01*
X110400974Y-151635254D01*
X110290236Y-151309456D01*
X110188878Y-151011141D01*
X109685542Y-149529474D01*
X109223473Y-149529474D01*
X109032704Y-149532974D01*
G36*
X117327686Y-149536126D02*
G01*
X117262068Y-149547012D01*
X117240532Y-149569405D01*
X117248091Y-149605778D01*
X117269300Y-149665617D01*
X117315585Y-149799543D01*
X117383417Y-149997237D01*
X117469267Y-150248377D01*
X117569605Y-150542643D01*
X117680904Y-150869715D01*
X117774366Y-151144825D01*
X118269796Y-152604211D01*
X118684722Y-152604211D01*
X118864579Y-152600885D01*
X119005017Y-152591958D01*
X119086523Y-152579003D01*
X119099162Y-152570790D01*
X119085199Y-152522247D01*
X119045709Y-152399131D01*
X118983942Y-152211218D01*
X118903148Y-151968284D01*
X118806576Y-151680103D01*
X118697476Y-151356454D01*
X118591817Y-151044562D01*
X118084958Y-149551755D01*
X117651102Y-149538935D01*
X117452370Y-149534262D01*
X117327686Y-149536126D01*
X117327686Y-149536126D01*
G37*
X117327686Y-149536126D02*
X117262068Y-149547012D01*
X117240532Y-149569405D01*
X117248091Y-149605778D01*
X117269300Y-149665617D01*
X117315585Y-149799543D01*
X117383417Y-149997237D01*
X117469267Y-150248377D01*
X117569605Y-150542643D01*
X117680904Y-150869715D01*
X117774366Y-151144825D01*
X118269796Y-152604211D01*
X118684722Y-152604211D01*
X118864579Y-152600885D01*
X119005017Y-152591958D01*
X119086523Y-152579003D01*
X119099162Y-152570790D01*
X119085199Y-152522247D01*
X119045709Y-152399131D01*
X118983942Y-152211218D01*
X118903148Y-151968284D01*
X118806576Y-151680103D01*
X118697476Y-151356454D01*
X118591817Y-151044562D01*
X118084958Y-149551755D01*
X117651102Y-149538935D01*
X117452370Y-149534262D01*
X117327686Y-149536126D01*
G36*
X118588535Y-149502021D02*
G01*
X118426128Y-149512410D01*
X118310203Y-149528506D01*
X118267487Y-149544677D01*
X118275737Y-149591083D01*
X118315846Y-149693457D01*
X118371550Y-149813815D01*
X118494355Y-150064211D01*
X118704645Y-150064211D01*
X118847779Y-150073854D01*
X118939547Y-150112238D01*
X119007292Y-150181624D01*
X119080266Y-150287690D01*
X119084038Y-150346839D01*
X119011649Y-150371933D01*
X118902051Y-150376141D01*
X118704452Y-150376141D01*
X118805685Y-150676930D01*
X118906918Y-150977720D01*
X119110622Y-150991136D01*
X119314325Y-151004551D01*
X119535095Y-151637276D01*
X119617608Y-151874557D01*
X119693932Y-152095489D01*
X119757160Y-152279982D01*
X119800388Y-152407945D01*
X119809984Y-152437106D01*
X119864105Y-152604211D01*
X120283982Y-152604211D01*
X120465087Y-152602965D01*
X120606953Y-152599618D01*
X120690144Y-152594757D01*
X120703860Y-152591552D01*
X120690331Y-152546402D01*
X120653477Y-152433496D01*
X120598898Y-152269379D01*
X120532193Y-152070594D01*
X120458961Y-151853684D01*
X120384802Y-151635194D01*
X120315314Y-151431666D01*
X120256097Y-151259645D01*
X120212751Y-151135674D01*
X120191581Y-151077983D01*
X120183785Y-151026574D01*
X120230035Y-151004268D01*
X120325088Y-151000000D01*
X120438878Y-150988835D01*
X120471757Y-150953909D01*
X120469272Y-150944299D01*
X120445032Y-150873786D01*
X120404235Y-150748619D01*
X120367244Y-150632369D01*
X120319761Y-150490502D01*
X120278785Y-150413916D01*
X120225280Y-150382507D01*
X120140210Y-150376171D01*
X120124623Y-150376141D01*
X120031598Y-150370596D01*
X119970809Y-150340730D01*
X119920807Y-150266698D01*
X119862018Y-150133189D01*
X119722567Y-149889150D01*
X119533230Y-149691089D01*
X119312982Y-149557070D01*
X119224719Y-149526579D01*
X119115514Y-149509618D01*
X118957140Y-149500173D01*
X118773510Y-149497791D01*
X118588535Y-149502021D01*
X118588535Y-149502021D01*
G37*
X118588535Y-149502021D02*
X118426128Y-149512410D01*
X118310203Y-149528506D01*
X118267487Y-149544677D01*
X118275737Y-149591083D01*
X118315846Y-149693457D01*
X118371550Y-149813815D01*
X118494355Y-150064211D01*
X118704645Y-150064211D01*
X118847779Y-150073854D01*
X118939547Y-150112238D01*
X119007292Y-150181624D01*
X119080266Y-150287690D01*
X119084038Y-150346839D01*
X119011649Y-150371933D01*
X118902051Y-150376141D01*
X118704452Y-150376141D01*
X118805685Y-150676930D01*
X118906918Y-150977720D01*
X119110622Y-150991136D01*
X119314325Y-151004551D01*
X119535095Y-151637276D01*
X119617608Y-151874557D01*
X119693932Y-152095489D01*
X119757160Y-152279982D01*
X119800388Y-152407945D01*
X119809984Y-152437106D01*
X119864105Y-152604211D01*
X120283982Y-152604211D01*
X120465087Y-152602965D01*
X120606953Y-152599618D01*
X120690144Y-152594757D01*
X120703860Y-152591552D01*
X120690331Y-152546402D01*
X120653477Y-152433496D01*
X120598898Y-152269379D01*
X120532193Y-152070594D01*
X120458961Y-151853684D01*
X120384802Y-151635194D01*
X120315314Y-151431666D01*
X120256097Y-151259645D01*
X120212751Y-151135674D01*
X120191581Y-151077983D01*
X120183785Y-151026574D01*
X120230035Y-151004268D01*
X120325088Y-151000000D01*
X120438878Y-150988835D01*
X120471757Y-150953909D01*
X120469272Y-150944299D01*
X120445032Y-150873786D01*
X120404235Y-150748619D01*
X120367244Y-150632369D01*
X120319761Y-150490502D01*
X120278785Y-150413916D01*
X120225280Y-150382507D01*
X120140210Y-150376171D01*
X120124623Y-150376141D01*
X120031598Y-150370596D01*
X119970809Y-150340730D01*
X119920807Y-150266698D01*
X119862018Y-150133189D01*
X119722567Y-149889150D01*
X119533230Y-149691089D01*
X119312982Y-149557070D01*
X119224719Y-149526579D01*
X119115514Y-149509618D01*
X118957140Y-149500173D01*
X118773510Y-149497791D01*
X118588535Y-149502021D01*
G36*
X120237306Y-149502021D02*
G01*
X120074900Y-149512410D01*
X119958975Y-149528506D01*
X119916259Y-149544677D01*
X119924509Y-149591083D01*
X119964618Y-149693457D01*
X120020322Y-149813815D01*
X120143127Y-150064211D01*
X120353417Y-150064211D01*
X120496551Y-150073854D01*
X120588319Y-150112238D01*
X120656064Y-150181624D01*
X120729038Y-150287690D01*
X120732810Y-150346839D01*
X120660421Y-150371933D01*
X120550823Y-150376141D01*
X120353224Y-150376141D01*
X120454457Y-150676930D01*
X120555690Y-150977720D01*
X120759393Y-150991136D01*
X120963097Y-151004551D01*
X121183867Y-151637276D01*
X121266380Y-151874557D01*
X121342704Y-152095489D01*
X121405932Y-152279982D01*
X121449160Y-152407945D01*
X121458756Y-152437106D01*
X121512877Y-152604211D01*
X121932754Y-152604211D01*
X122113859Y-152602965D01*
X122255724Y-152599618D01*
X122338916Y-152594757D01*
X122352632Y-152591552D01*
X122339103Y-152546402D01*
X122302249Y-152433496D01*
X122247670Y-152269379D01*
X122180965Y-152070594D01*
X122107733Y-151853684D01*
X122033573Y-151635194D01*
X121964086Y-151431666D01*
X121904869Y-151259645D01*
X121861523Y-151135674D01*
X121840353Y-151077983D01*
X121832557Y-151026574D01*
X121878807Y-151004268D01*
X121973860Y-151000000D01*
X122087650Y-150988835D01*
X122120529Y-150953909D01*
X122118044Y-150944299D01*
X122093804Y-150873786D01*
X122053007Y-150748619D01*
X122016016Y-150632369D01*
X121968533Y-150490502D01*
X121927557Y-150413916D01*
X121874052Y-150382507D01*
X121788982Y-150376171D01*
X121773395Y-150376141D01*
X121680370Y-150370596D01*
X121619581Y-150340730D01*
X121569579Y-150266698D01*
X121510790Y-150133189D01*
X121371339Y-149889150D01*
X121182002Y-149691089D01*
X120961754Y-149557070D01*
X120873490Y-149526579D01*
X120764286Y-149509618D01*
X120605912Y-149500173D01*
X120422281Y-149497791D01*
X120237306Y-149502021D01*
X120237306Y-149502021D01*
G37*
X120237306Y-149502021D02*
X120074900Y-149512410D01*
X119958975Y-149528506D01*
X119916259Y-149544677D01*
X119924509Y-149591083D01*
X119964618Y-149693457D01*
X120020322Y-149813815D01*
X120143127Y-150064211D01*
X120353417Y-150064211D01*
X120496551Y-150073854D01*
X120588319Y-150112238D01*
X120656064Y-150181624D01*
X120729038Y-150287690D01*
X120732810Y-150346839D01*
X120660421Y-150371933D01*
X120550823Y-150376141D01*
X120353224Y-150376141D01*
X120454457Y-150676930D01*
X120555690Y-150977720D01*
X120759393Y-150991136D01*
X120963097Y-151004551D01*
X121183867Y-151637276D01*
X121266380Y-151874557D01*
X121342704Y-152095489D01*
X121405932Y-152279982D01*
X121449160Y-152407945D01*
X121458756Y-152437106D01*
X121512877Y-152604211D01*
X121932754Y-152604211D01*
X122113859Y-152602965D01*
X122255724Y-152599618D01*
X122338916Y-152594757D01*
X122352632Y-152591552D01*
X122339103Y-152546402D01*
X122302249Y-152433496D01*
X122247670Y-152269379D01*
X122180965Y-152070594D01*
X122107733Y-151853684D01*
X122033573Y-151635194D01*
X121964086Y-151431666D01*
X121904869Y-151259645D01*
X121861523Y-151135674D01*
X121840353Y-151077983D01*
X121832557Y-151026574D01*
X121878807Y-151004268D01*
X121973860Y-151000000D01*
X122087650Y-150988835D01*
X122120529Y-150953909D01*
X122118044Y-150944299D01*
X122093804Y-150873786D01*
X122053007Y-150748619D01*
X122016016Y-150632369D01*
X121968533Y-150490502D01*
X121927557Y-150413916D01*
X121874052Y-150382507D01*
X121788982Y-150376171D01*
X121773395Y-150376141D01*
X121680370Y-150370596D01*
X121619581Y-150340730D01*
X121569579Y-150266698D01*
X121510790Y-150133189D01*
X121371339Y-149889150D01*
X121182002Y-149691089D01*
X120961754Y-149557070D01*
X120873490Y-149526579D01*
X120764286Y-149509618D01*
X120605912Y-149500173D01*
X120422281Y-149497791D01*
X120237306Y-149502021D01*
G36*
X125834870Y-149545104D02*
G01*
X125563969Y-149565293D01*
X125357509Y-149600953D01*
X125207350Y-149654947D01*
X125105354Y-149730141D01*
X125043383Y-149829399D01*
X125013296Y-149955586D01*
X125006814Y-150101329D01*
X125052871Y-150388696D01*
X125178930Y-150653899D01*
X125376560Y-150885817D01*
X125637327Y-151073326D01*
X125804578Y-151153487D01*
X125942058Y-151211709D01*
X126007615Y-151249588D01*
X126012767Y-151278101D01*
X125969028Y-151308224D01*
X125967681Y-151308946D01*
X125876923Y-151375635D01*
X125804475Y-151476256D01*
X125744026Y-151625438D01*
X125689263Y-151837805D01*
X125647452Y-152051077D01*
X125612354Y-152248919D01*
X125584114Y-152414208D01*
X125566019Y-152527322D01*
X125561053Y-152567199D01*
X125602718Y-152581582D01*
X125716152Y-152593357D01*
X125884011Y-152601306D01*
X126088141Y-152604211D01*
X126615228Y-152604211D01*
X126732869Y-152036488D01*
X126790521Y-151774875D01*
X126842132Y-151589091D01*
X126894438Y-151466761D01*
X126954181Y-151395512D01*
X127028100Y-151362971D01*
X127103243Y-151356492D01*
X127144832Y-151364825D01*
X127183188Y-151398128D01*
X127224444Y-151468859D01*
X127274732Y-151589474D01*
X127340184Y-151772431D01*
X127410351Y-151980351D01*
X127618268Y-152604211D01*
X128082467Y-152604211D01*
X128273714Y-152600964D01*
X128426679Y-152592186D01*
X128522882Y-152579326D01*
X128546667Y-152567866D01*
X128532773Y-152518637D01*
X128493265Y-152394897D01*
X128431404Y-152206453D01*
X128350449Y-151963109D01*
X128253661Y-151674671D01*
X128144300Y-151350945D01*
X128039220Y-151041638D01*
X127930181Y-150721492D01*
X126975237Y-150721492D01*
X126948186Y-150751810D01*
X126854803Y-150771352D01*
X126717346Y-150779089D01*
X126558069Y-150773993D01*
X126399231Y-150755037D01*
X126369361Y-150749469D01*
X126225018Y-150691868D01*
X126109686Y-150594075D01*
X126032980Y-150475221D01*
X126004519Y-150354435D01*
X126033919Y-150250849D01*
X126092860Y-150199463D01*
X126180219Y-150175899D01*
X126324586Y-150159273D01*
X126485775Y-150153334D01*
X126792496Y-150153334D01*
X126873209Y-150409562D01*
X126920015Y-150556259D01*
X126958046Y-150672091D01*
X126975237Y-150721492D01*
X127930181Y-150721492D01*
X127531774Y-149551755D01*
X126602549Y-149539678D01*
X126178350Y-149537520D01*
X125834870Y-149545104D01*
X125834870Y-149545104D01*
G37*
X125834870Y-149545104D02*
X125563969Y-149565293D01*
X125357509Y-149600953D01*
X125207350Y-149654947D01*
X125105354Y-149730141D01*
X125043383Y-149829399D01*
X125013296Y-149955586D01*
X125006814Y-150101329D01*
X125052871Y-150388696D01*
X125178930Y-150653899D01*
X125376560Y-150885817D01*
X125637327Y-151073326D01*
X125804578Y-151153487D01*
X125942058Y-151211709D01*
X126007615Y-151249588D01*
X126012767Y-151278101D01*
X125969028Y-151308224D01*
X125967681Y-151308946D01*
X125876923Y-151375635D01*
X125804475Y-151476256D01*
X125744026Y-151625438D01*
X125689263Y-151837805D01*
X125647452Y-152051077D01*
X125612354Y-152248919D01*
X125584114Y-152414208D01*
X125566019Y-152527322D01*
X125561053Y-152567199D01*
X125602718Y-152581582D01*
X125716152Y-152593357D01*
X125884011Y-152601306D01*
X126088141Y-152604211D01*
X126615228Y-152604211D01*
X126732869Y-152036488D01*
X126790521Y-151774875D01*
X126842132Y-151589091D01*
X126894438Y-151466761D01*
X126954181Y-151395512D01*
X127028100Y-151362971D01*
X127103243Y-151356492D01*
X127144832Y-151364825D01*
X127183188Y-151398128D01*
X127224444Y-151468859D01*
X127274732Y-151589474D01*
X127340184Y-151772431D01*
X127410351Y-151980351D01*
X127618268Y-152604211D01*
X128082467Y-152604211D01*
X128273714Y-152600964D01*
X128426679Y-152592186D01*
X128522882Y-152579326D01*
X128546667Y-152567866D01*
X128532773Y-152518637D01*
X128493265Y-152394897D01*
X128431404Y-152206453D01*
X128350449Y-151963109D01*
X128253661Y-151674671D01*
X128144300Y-151350945D01*
X128039220Y-151041638D01*
X127930181Y-150721492D01*
X126975237Y-150721492D01*
X126948186Y-150751810D01*
X126854803Y-150771352D01*
X126717346Y-150779089D01*
X126558069Y-150773993D01*
X126399231Y-150755037D01*
X126369361Y-150749469D01*
X126225018Y-150691868D01*
X126109686Y-150594075D01*
X126032980Y-150475221D01*
X126004519Y-150354435D01*
X126033919Y-150250849D01*
X126092860Y-150199463D01*
X126180219Y-150175899D01*
X126324586Y-150159273D01*
X126485775Y-150153334D01*
X126792496Y-150153334D01*
X126873209Y-150409562D01*
X126920015Y-150556259D01*
X126958046Y-150672091D01*
X126975237Y-150721492D01*
X127930181Y-150721492D01*
X127531774Y-149551755D01*
X126602549Y-149539678D01*
X126178350Y-149537520D01*
X125834870Y-149545104D01*
G36*
X104241074Y-150341137D02*
G01*
X103927156Y-150386940D01*
X103686656Y-150480590D01*
X103516528Y-150624154D01*
X103413726Y-150819696D01*
X103389812Y-150918279D01*
X103360958Y-151081646D01*
X103621444Y-151109938D01*
X103799479Y-151130307D01*
X103970253Y-151151496D01*
X104049035Y-151162155D01*
X104162225Y-151170170D01*
X104210234Y-151147051D01*
X104216140Y-151118504D01*
X104253962Y-151012140D01*
X104353569Y-150942863D01*
X104494175Y-150914221D01*
X104654993Y-150929765D01*
X104815236Y-150993045D01*
X104844550Y-151011187D01*
X104975641Y-151136377D01*
X105096613Y-151317128D01*
X105189928Y-151520188D01*
X105238050Y-151712306D01*
X105241053Y-151763008D01*
X105206622Y-151914185D01*
X105114554Y-152015124D01*
X104981683Y-152064545D01*
X104824843Y-152061167D01*
X104660868Y-152003710D01*
X104506592Y-151890892D01*
X104446190Y-151823473D01*
X104399086Y-151768074D01*
X104351038Y-151736977D01*
X104279949Y-151726887D01*
X104163721Y-151734508D01*
X103989579Y-151755375D01*
X103819399Y-151778259D01*
X103687021Y-151798972D01*
X103614221Y-151813999D01*
X103606989Y-151817105D01*
X103621586Y-151859290D01*
X103681500Y-151944792D01*
X103769718Y-152053227D01*
X103869227Y-152164207D01*
X103963016Y-152257347D01*
X104002135Y-152290613D01*
X104314902Y-152477835D01*
X104677571Y-152592043D01*
X105012914Y-152630761D01*
X105213830Y-152632568D01*
X105402669Y-152624198D01*
X105545154Y-152607405D01*
X105568759Y-152602287D01*
X105809485Y-152503514D01*
X105986706Y-152349205D01*
X106093672Y-152148583D01*
X106123637Y-151910874D01*
X106118746Y-151850381D01*
X106034608Y-151489436D01*
X105876292Y-151152013D01*
X105687503Y-150897995D01*
X105394334Y-150637914D01*
X105063333Y-150458239D01*
X104693615Y-150358631D01*
X104284297Y-150338748D01*
X104241074Y-150341137D01*
X104241074Y-150341137D01*
G37*
X104241074Y-150341137D02*
X103927156Y-150386940D01*
X103686656Y-150480590D01*
X103516528Y-150624154D01*
X103413726Y-150819696D01*
X103389812Y-150918279D01*
X103360958Y-151081646D01*
X103621444Y-151109938D01*
X103799479Y-151130307D01*
X103970253Y-151151496D01*
X104049035Y-151162155D01*
X104162225Y-151170170D01*
X104210234Y-151147051D01*
X104216140Y-151118504D01*
X104253962Y-151012140D01*
X104353569Y-150942863D01*
X104494175Y-150914221D01*
X104654993Y-150929765D01*
X104815236Y-150993045D01*
X104844550Y-151011187D01*
X104975641Y-151136377D01*
X105096613Y-151317128D01*
X105189928Y-151520188D01*
X105238050Y-151712306D01*
X105241053Y-151763008D01*
X105206622Y-151914185D01*
X105114554Y-152015124D01*
X104981683Y-152064545D01*
X104824843Y-152061167D01*
X104660868Y-152003710D01*
X104506592Y-151890892D01*
X104446190Y-151823473D01*
X104399086Y-151768074D01*
X104351038Y-151736977D01*
X104279949Y-151726887D01*
X104163721Y-151734508D01*
X103989579Y-151755375D01*
X103819399Y-151778259D01*
X103687021Y-151798972D01*
X103614221Y-151813999D01*
X103606989Y-151817105D01*
X103621586Y-151859290D01*
X103681500Y-151944792D01*
X103769718Y-152053227D01*
X103869227Y-152164207D01*
X103963016Y-152257347D01*
X104002135Y-152290613D01*
X104314902Y-152477835D01*
X104677571Y-152592043D01*
X105012914Y-152630761D01*
X105213830Y-152632568D01*
X105402669Y-152624198D01*
X105545154Y-152607405D01*
X105568759Y-152602287D01*
X105809485Y-152503514D01*
X105986706Y-152349205D01*
X106093672Y-152148583D01*
X106123637Y-151910874D01*
X106118746Y-151850381D01*
X106034608Y-151489436D01*
X105876292Y-151152013D01*
X105687503Y-150897995D01*
X105394334Y-150637914D01*
X105063333Y-150458239D01*
X104693615Y-150358631D01*
X104284297Y-150338748D01*
X104241074Y-150341137D01*
G36*
X112835171Y-150349232D02*
G01*
X112615876Y-150379038D01*
X112450626Y-150425268D01*
X112423069Y-150438106D01*
X112307192Y-150533203D01*
X112209037Y-150671289D01*
X112153134Y-150814579D01*
X112148070Y-150861678D01*
X112188388Y-150889014D01*
X112292818Y-150915858D01*
X112404298Y-150932225D01*
X112581663Y-150952500D01*
X112752027Y-150973663D01*
X112827632Y-150983909D01*
X112940346Y-150992085D01*
X112988356Y-150969346D01*
X112994737Y-150938643D01*
X113033047Y-150855847D01*
X113130275Y-150801895D01*
X113259869Y-150780379D01*
X113395277Y-150794889D01*
X113509947Y-150849016D01*
X113529474Y-150866316D01*
X113599565Y-150953254D01*
X113609032Y-151021180D01*
X113551212Y-151075310D01*
X113419438Y-151120860D01*
X113207048Y-151163044D01*
X113135746Y-151174421D01*
X112950418Y-151208373D01*
X112779373Y-151248860D01*
X112660177Y-151286923D01*
X112495550Y-151392259D01*
X112402593Y-151532258D01*
X112376206Y-151696317D01*
X112411288Y-151873834D01*
X112502739Y-152054206D01*
X112645458Y-152226829D01*
X112834344Y-152381101D01*
X113064297Y-152506418D01*
X113282608Y-152580824D01*
X113528394Y-152623437D01*
X113812517Y-152641726D01*
X114094580Y-152634969D01*
X114334190Y-152602440D01*
X114345381Y-152599878D01*
X114533163Y-152543109D01*
X114655377Y-152469362D01*
X114735575Y-152362256D01*
X114758685Y-152312406D01*
X114815166Y-152153044D01*
X114817514Y-152053071D01*
X114758830Y-151996302D01*
X114632214Y-151966549D01*
X114610088Y-151963784D01*
X114431052Y-151942605D01*
X114232236Y-151918955D01*
X114164474Y-151910860D01*
X114028164Y-151897815D01*
X113958228Y-151904559D01*
X113933087Y-151936477D01*
X113930526Y-151969263D01*
X113892876Y-152085149D01*
X113794823Y-152163357D01*
X113658718Y-152199302D01*
X113506909Y-152188399D01*
X113361746Y-152126062D01*
X113320292Y-152094455D01*
X113238077Y-151999906D01*
X113232049Y-151920812D01*
X113305704Y-151853240D01*
X113462540Y-151793258D01*
X113623217Y-151753781D01*
X113891173Y-151692183D01*
X114084867Y-151636406D01*
X114218432Y-151580879D01*
X114305997Y-151520033D01*
X114350210Y-151467212D01*
X114416462Y-151292315D01*
X114406336Y-151103453D01*
X114328711Y-150912633D01*
X114192464Y-150731861D01*
X114006472Y-150573144D01*
X113779613Y-150448487D01*
X113541972Y-150374110D01*
X113325755Y-150345193D01*
X113080976Y-150337425D01*
X112835171Y-150349232D01*
X112835171Y-150349232D01*
G37*
X112835171Y-150349232D02*
X112615876Y-150379038D01*
X112450626Y-150425268D01*
X112423069Y-150438106D01*
X112307192Y-150533203D01*
X112209037Y-150671289D01*
X112153134Y-150814579D01*
X112148070Y-150861678D01*
X112188388Y-150889014D01*
X112292818Y-150915858D01*
X112404298Y-150932225D01*
X112581663Y-150952500D01*
X112752027Y-150973663D01*
X112827632Y-150983909D01*
X112940346Y-150992085D01*
X112988356Y-150969346D01*
X112994737Y-150938643D01*
X113033047Y-150855847D01*
X113130275Y-150801895D01*
X113259869Y-150780379D01*
X113395277Y-150794889D01*
X113509947Y-150849016D01*
X113529474Y-150866316D01*
X113599565Y-150953254D01*
X113609032Y-151021180D01*
X113551212Y-151075310D01*
X113419438Y-151120860D01*
X113207048Y-151163044D01*
X113135746Y-151174421D01*
X112950418Y-151208373D01*
X112779373Y-151248860D01*
X112660177Y-151286923D01*
X112495550Y-151392259D01*
X112402593Y-151532258D01*
X112376206Y-151696317D01*
X112411288Y-151873834D01*
X112502739Y-152054206D01*
X112645458Y-152226829D01*
X112834344Y-152381101D01*
X113064297Y-152506418D01*
X113282608Y-152580824D01*
X113528394Y-152623437D01*
X113812517Y-152641726D01*
X114094580Y-152634969D01*
X114334190Y-152602440D01*
X114345381Y-152599878D01*
X114533163Y-152543109D01*
X114655377Y-152469362D01*
X114735575Y-152362256D01*
X114758685Y-152312406D01*
X114815166Y-152153044D01*
X114817514Y-152053071D01*
X114758830Y-151996302D01*
X114632214Y-151966549D01*
X114610088Y-151963784D01*
X114431052Y-151942605D01*
X114232236Y-151918955D01*
X114164474Y-151910860D01*
X114028164Y-151897815D01*
X113958228Y-151904559D01*
X113933087Y-151936477D01*
X113930526Y-151969263D01*
X113892876Y-152085149D01*
X113794823Y-152163357D01*
X113658718Y-152199302D01*
X113506909Y-152188399D01*
X113361746Y-152126062D01*
X113320292Y-152094455D01*
X113238077Y-151999906D01*
X113232049Y-151920812D01*
X113305704Y-151853240D01*
X113462540Y-151793258D01*
X113623217Y-151753781D01*
X113891173Y-151692183D01*
X114084867Y-151636406D01*
X114218432Y-151580879D01*
X114305997Y-151520033D01*
X114350210Y-151467212D01*
X114416462Y-151292315D01*
X114406336Y-151103453D01*
X114328711Y-150912633D01*
X114192464Y-150731861D01*
X114006472Y-150573144D01*
X113779613Y-150448487D01*
X113541972Y-150374110D01*
X113325755Y-150345193D01*
X113080976Y-150337425D01*
X112835171Y-150349232D01*
G36*
X115443507Y-150371454D02*
G01*
X115228938Y-150422103D01*
X115187182Y-150438953D01*
X115003250Y-150552409D01*
X114887848Y-150702703D01*
X114834176Y-150902971D01*
X114832164Y-151124611D01*
X114850287Y-151299396D01*
X114877193Y-151455133D01*
X114902815Y-151545878D01*
X114953233Y-151668421D01*
X116648772Y-151668421D01*
X116648772Y-151795199D01*
X116613526Y-151938624D01*
X116516626Y-152029693D01*
X116371330Y-152064330D01*
X116190896Y-152038462D01*
X116046866Y-151980185D01*
X115948355Y-151935709D01*
X115855750Y-151913896D01*
X115740265Y-151912301D01*
X115573112Y-151928479D01*
X115517926Y-151935258D01*
X115350209Y-151958358D01*
X115219884Y-151980194D01*
X115149550Y-151996861D01*
X115143841Y-151999902D01*
X115155603Y-152044291D01*
X115226866Y-152121390D01*
X115340818Y-152217873D01*
X115480646Y-152320416D01*
X115629539Y-152415695D01*
X115751238Y-152481291D01*
X115911262Y-152551347D01*
X116055917Y-152594649D01*
X116219804Y-152618707D01*
X116437523Y-152631030D01*
X116441939Y-152631183D01*
X116642354Y-152633512D01*
X116825280Y-152627599D01*
X116960629Y-152614692D01*
X116993007Y-152608297D01*
X117214054Y-152517076D01*
X117374131Y-152366787D01*
X117459943Y-152215323D01*
X117519998Y-151974686D01*
X117507050Y-151710381D01*
X117428882Y-151436377D01*
X117293277Y-151166643D01*
X117286372Y-151157269D01*
X116456976Y-151157269D01*
X116430738Y-151195066D01*
X116326267Y-151215323D01*
X116138902Y-151222522D01*
X116073187Y-151222807D01*
X115882273Y-151221905D01*
X115763412Y-151216111D01*
X115699534Y-151200792D01*
X115673569Y-151171318D01*
X115668447Y-151123055D01*
X115668421Y-151112972D01*
X115706061Y-151006489D01*
X115805193Y-150937874D01*
X115945131Y-150910496D01*
X116105191Y-150927725D01*
X116264689Y-150992932D01*
X116293396Y-151011141D01*
X116409642Y-151097454D01*
X116456976Y-151157269D01*
X117286372Y-151157269D01*
X117108016Y-150915150D01*
X116880882Y-150695867D01*
X116619658Y-150522764D01*
X116481518Y-150459013D01*
X116253833Y-150394511D01*
X115985343Y-150358113D01*
X115705439Y-150350275D01*
X115443507Y-150371454D01*
X115443507Y-150371454D01*
G37*
X115443507Y-150371454D02*
X115228938Y-150422103D01*
X115187182Y-150438953D01*
X115003250Y-150552409D01*
X114887848Y-150702703D01*
X114834176Y-150902971D01*
X114832164Y-151124611D01*
X114850287Y-151299396D01*
X114877193Y-151455133D01*
X114902815Y-151545878D01*
X114953233Y-151668421D01*
X116648772Y-151668421D01*
X116648772Y-151795199D01*
X116613526Y-151938624D01*
X116516626Y-152029693D01*
X116371330Y-152064330D01*
X116190896Y-152038462D01*
X116046866Y-151980185D01*
X115948355Y-151935709D01*
X115855750Y-151913896D01*
X115740265Y-151912301D01*
X115573112Y-151928479D01*
X115517926Y-151935258D01*
X115350209Y-151958358D01*
X115219884Y-151980194D01*
X115149550Y-151996861D01*
X115143841Y-151999902D01*
X115155603Y-152044291D01*
X115226866Y-152121390D01*
X115340818Y-152217873D01*
X115480646Y-152320416D01*
X115629539Y-152415695D01*
X115751238Y-152481291D01*
X115911262Y-152551347D01*
X116055917Y-152594649D01*
X116219804Y-152618707D01*
X116437523Y-152631030D01*
X116441939Y-152631183D01*
X116642354Y-152633512D01*
X116825280Y-152627599D01*
X116960629Y-152614692D01*
X116993007Y-152608297D01*
X117214054Y-152517076D01*
X117374131Y-152366787D01*
X117459943Y-152215323D01*
X117519998Y-151974686D01*
X117507050Y-151710381D01*
X117428882Y-151436377D01*
X117293277Y-151166643D01*
X117286372Y-151157269D01*
X116456976Y-151157269D01*
X116430738Y-151195066D01*
X116326267Y-151215323D01*
X116138902Y-151222522D01*
X116073187Y-151222807D01*
X115882273Y-151221905D01*
X115763412Y-151216111D01*
X115699534Y-151200792D01*
X115673569Y-151171318D01*
X115668447Y-151123055D01*
X115668421Y-151112972D01*
X115706061Y-151006489D01*
X115805193Y-150937874D01*
X115945131Y-150910496D01*
X116105191Y-150927725D01*
X116264689Y-150992932D01*
X116293396Y-151011141D01*
X116409642Y-151097454D01*
X116456976Y-151157269D01*
X117286372Y-151157269D01*
X117108016Y-150915150D01*
X116880882Y-150695867D01*
X116619658Y-150522764D01*
X116481518Y-150459013D01*
X116253833Y-150394511D01*
X115985343Y-150358113D01*
X115705439Y-150350275D01*
X115443507Y-150371454D01*
G36*
X123140177Y-150343608D02*
G01*
X122890361Y-150377524D01*
X122685011Y-150435764D01*
X122544844Y-150517641D01*
X122543775Y-150518640D01*
X122474031Y-150597369D01*
X122431838Y-150685917D01*
X122418086Y-150797378D01*
X122433667Y-150944844D01*
X122479472Y-151141409D01*
X122556391Y-151400166D01*
X122616429Y-151586394D01*
X122693943Y-151832711D01*
X122760025Y-152061677D01*
X122809723Y-152254606D01*
X122838085Y-152392813D01*
X122842807Y-152440460D01*
X122842807Y-152604211D01*
X123644912Y-152604211D01*
X123644912Y-152337525D01*
X123904764Y-152473736D01*
X124086468Y-152556679D01*
X124261075Y-152603164D01*
X124474405Y-152625013D01*
X124495203Y-152626084D01*
X124671783Y-152631180D01*
X124824223Y-152629355D01*
X124921098Y-152621030D01*
X124924532Y-152620316D01*
X125037115Y-152559999D01*
X125146447Y-152447861D01*
X125225607Y-152317083D01*
X125249123Y-152220245D01*
X125219898Y-152078682D01*
X125195327Y-152024270D01*
X124336708Y-152024270D01*
X124306266Y-152103806D01*
X124217066Y-152148301D01*
X124082201Y-152153715D01*
X123914765Y-152116010D01*
X123796808Y-152067504D01*
X123616557Y-151939427D01*
X123533843Y-151818798D01*
X123490214Y-151714923D01*
X123473993Y-151651043D01*
X123475841Y-151644393D01*
X123523757Y-151646629D01*
X123636268Y-151667408D01*
X123791788Y-151702575D01*
X123841783Y-151714854D01*
X124005734Y-151755376D01*
X124132612Y-151785888D01*
X124200839Y-151801231D01*
X124206545Y-151802106D01*
X124239138Y-151834999D01*
X124295297Y-151913732D01*
X124336708Y-152024270D01*
X125195327Y-152024270D01*
X125144432Y-151911570D01*
X125041040Y-151754804D01*
X124974343Y-151681689D01*
X124851214Y-151589463D01*
X124690552Y-151513752D01*
X124475721Y-151448439D01*
X124190082Y-151387408D01*
X124157368Y-151381375D01*
X123942855Y-151339487D01*
X123729360Y-151293191D01*
X123555133Y-151250894D01*
X123519606Y-151241200D01*
X123383976Y-151198764D01*
X123315376Y-151159919D01*
X123294039Y-151108028D01*
X123296799Y-151053654D01*
X123321741Y-150968289D01*
X123388998Y-150929508D01*
X123461692Y-150918735D01*
X123669592Y-150923024D01*
X123842113Y-150989157D01*
X123948048Y-151066281D01*
X124020895Y-151122582D01*
X124088418Y-151152047D01*
X124177379Y-151158644D01*
X124314540Y-151146340D01*
X124408237Y-151134512D01*
X124571696Y-151113665D01*
X124699530Y-151098057D01*
X124767005Y-151090695D01*
X124770088Y-151090499D01*
X124803168Y-151062837D01*
X124777920Y-150993960D01*
X124706779Y-150896829D01*
X124602181Y-150784404D01*
X124476563Y-150669649D01*
X124342360Y-150565524D01*
X124212009Y-150484990D01*
X124169820Y-150464872D01*
X123949283Y-150394647D01*
X123690353Y-150351484D01*
X123413747Y-150334700D01*
X123140177Y-150343608D01*
X123140177Y-150343608D01*
G37*
X123140177Y-150343608D02*
X122890361Y-150377524D01*
X122685011Y-150435764D01*
X122544844Y-150517641D01*
X122543775Y-150518640D01*
X122474031Y-150597369D01*
X122431838Y-150685917D01*
X122418086Y-150797378D01*
X122433667Y-150944844D01*
X122479472Y-151141409D01*
X122556391Y-151400166D01*
X122616429Y-151586394D01*
X122693943Y-151832711D01*
X122760025Y-152061677D01*
X122809723Y-152254606D01*
X122838085Y-152392813D01*
X122842807Y-152440460D01*
X122842807Y-152604211D01*
X123644912Y-152604211D01*
X123644912Y-152337525D01*
X123904764Y-152473736D01*
X124086468Y-152556679D01*
X124261075Y-152603164D01*
X124474405Y-152625013D01*
X124495203Y-152626084D01*
X124671783Y-152631180D01*
X124824223Y-152629355D01*
X124921098Y-152621030D01*
X124924532Y-152620316D01*
X125037115Y-152559999D01*
X125146447Y-152447861D01*
X125225607Y-152317083D01*
X125249123Y-152220245D01*
X125219898Y-152078682D01*
X125195327Y-152024270D01*
X124336708Y-152024270D01*
X124306266Y-152103806D01*
X124217066Y-152148301D01*
X124082201Y-152153715D01*
X123914765Y-152116010D01*
X123796808Y-152067504D01*
X123616557Y-151939427D01*
X123533843Y-151818798D01*
X123490214Y-151714923D01*
X123473993Y-151651043D01*
X123475841Y-151644393D01*
X123523757Y-151646629D01*
X123636268Y-151667408D01*
X123791788Y-151702575D01*
X123841783Y-151714854D01*
X124005734Y-151755376D01*
X124132612Y-151785888D01*
X124200839Y-151801231D01*
X124206545Y-151802106D01*
X124239138Y-151834999D01*
X124295297Y-151913732D01*
X124336708Y-152024270D01*
X125195327Y-152024270D01*
X125144432Y-151911570D01*
X125041040Y-151754804D01*
X124974343Y-151681689D01*
X124851214Y-151589463D01*
X124690552Y-151513752D01*
X124475721Y-151448439D01*
X124190082Y-151387408D01*
X124157368Y-151381375D01*
X123942855Y-151339487D01*
X123729360Y-151293191D01*
X123555133Y-151250894D01*
X123519606Y-151241200D01*
X123383976Y-151198764D01*
X123315376Y-151159919D01*
X123294039Y-151108028D01*
X123296799Y-151053654D01*
X123321741Y-150968289D01*
X123388998Y-150929508D01*
X123461692Y-150918735D01*
X123669592Y-150923024D01*
X123842113Y-150989157D01*
X123948048Y-151066281D01*
X124020895Y-151122582D01*
X124088418Y-151152047D01*
X124177379Y-151158644D01*
X124314540Y-151146340D01*
X124408237Y-151134512D01*
X124571696Y-151113665D01*
X124699530Y-151098057D01*
X124767005Y-151090695D01*
X124770088Y-151090499D01*
X124803168Y-151062837D01*
X124777920Y-150993960D01*
X124706779Y-150896829D01*
X124602181Y-150784404D01*
X124476563Y-150669649D01*
X124342360Y-150565524D01*
X124212009Y-150484990D01*
X124169820Y-150464872D01*
X123949283Y-150394647D01*
X123690353Y-150351484D01*
X123413747Y-150334700D01*
X123140177Y-150343608D01*
D14*
X95041980Y-87876142D02*
X94565790Y-87542809D01*
X95041980Y-87304714D02*
X94041980Y-87304714D01*
X94041980Y-87685666D01*
X94089600Y-87780904D01*
X94137219Y-87828523D01*
X94232457Y-87876142D01*
X94375314Y-87876142D01*
X94470552Y-87828523D01*
X94518171Y-87780904D01*
X94565790Y-87685666D01*
X94565790Y-87304714D01*
X95041980Y-88828523D02*
X95041980Y-88257095D01*
X95041980Y-88542809D02*
X94041980Y-88542809D01*
X94184838Y-88447571D01*
X94280076Y-88352333D01*
X94327695Y-88257095D01*
X95041980Y-89304714D02*
X95041980Y-89495190D01*
X94994361Y-89590428D01*
X94946742Y-89638047D01*
X94803885Y-89733285D01*
X94613409Y-89780904D01*
X94232457Y-89780904D01*
X94137219Y-89733285D01*
X94089600Y-89685666D01*
X94041980Y-89590428D01*
X94041980Y-89399952D01*
X94089600Y-89304714D01*
X94137219Y-89257095D01*
X94232457Y-89209476D01*
X94470552Y-89209476D01*
X94565790Y-89257095D01*
X94613409Y-89304714D01*
X94661028Y-89399952D01*
X94661028Y-89590428D01*
X94613409Y-89685666D01*
X94565790Y-89733285D01*
X94470552Y-89780904D01*
X93467180Y-87926942D02*
X92990990Y-87593609D01*
X93467180Y-87355514D02*
X92467180Y-87355514D01*
X92467180Y-87736466D01*
X92514800Y-87831704D01*
X92562419Y-87879323D01*
X92657657Y-87926942D01*
X92800514Y-87926942D01*
X92895752Y-87879323D01*
X92943371Y-87831704D01*
X92990990Y-87736466D01*
X92990990Y-87355514D01*
X92562419Y-88307895D02*
X92514800Y-88355514D01*
X92467180Y-88450752D01*
X92467180Y-88688847D01*
X92514800Y-88784085D01*
X92562419Y-88831704D01*
X92657657Y-88879323D01*
X92752895Y-88879323D01*
X92895752Y-88831704D01*
X93467180Y-88260276D01*
X93467180Y-88879323D01*
X92467180Y-89498371D02*
X92467180Y-89593609D01*
X92514800Y-89688847D01*
X92562419Y-89736466D01*
X92657657Y-89784085D01*
X92848133Y-89831704D01*
X93086228Y-89831704D01*
X93276704Y-89784085D01*
X93371942Y-89736466D01*
X93419561Y-89688847D01*
X93467180Y-89593609D01*
X93467180Y-89498371D01*
X93419561Y-89403133D01*
X93371942Y-89355514D01*
X93276704Y-89307895D01*
X93086228Y-89260276D01*
X92848133Y-89260276D01*
X92657657Y-89307895D01*
X92562419Y-89355514D01*
X92514800Y-89403133D01*
X92467180Y-89498371D01*
X161337142Y-75017142D02*
X161384761Y-74969523D01*
X161432380Y-74826666D01*
X161432380Y-74731428D01*
X161384761Y-74588571D01*
X161289523Y-74493333D01*
X161194285Y-74445714D01*
X161003809Y-74398095D01*
X160860952Y-74398095D01*
X160670476Y-74445714D01*
X160575238Y-74493333D01*
X160480000Y-74588571D01*
X160432380Y-74731428D01*
X160432380Y-74826666D01*
X160480000Y-74969523D01*
X160527619Y-75017142D01*
X160432380Y-75350476D02*
X160432380Y-75969523D01*
X160813333Y-75636190D01*
X160813333Y-75779047D01*
X160860952Y-75874285D01*
X160908571Y-75921904D01*
X161003809Y-75969523D01*
X161241904Y-75969523D01*
X161337142Y-75921904D01*
X161384761Y-75874285D01*
X161432380Y-75779047D01*
X161432380Y-75493333D01*
X161384761Y-75398095D01*
X161337142Y-75350476D01*
X160432380Y-76588571D02*
X160432380Y-76683809D01*
X160480000Y-76779047D01*
X160527619Y-76826666D01*
X160622857Y-76874285D01*
X160813333Y-76921904D01*
X161051428Y-76921904D01*
X161241904Y-76874285D01*
X161337142Y-76826666D01*
X161384761Y-76779047D01*
X161432380Y-76683809D01*
X161432380Y-76588571D01*
X161384761Y-76493333D01*
X161337142Y-76445714D01*
X161241904Y-76398095D01*
X161051428Y-76350476D01*
X160813333Y-76350476D01*
X160622857Y-76398095D01*
X160527619Y-76445714D01*
X160480000Y-76493333D01*
X160432380Y-76588571D01*
X144248095Y-147722380D02*
X144248095Y-146722380D01*
X144010000Y-146722380D01*
X143867142Y-146770000D01*
X143771904Y-146865238D01*
X143724285Y-146960476D01*
X143676666Y-147150952D01*
X143676666Y-147293809D01*
X143724285Y-147484285D01*
X143771904Y-147579523D01*
X143867142Y-147674761D01*
X144010000Y-147722380D01*
X144248095Y-147722380D01*
X143200476Y-147722380D02*
X143010000Y-147722380D01*
X142914761Y-147674761D01*
X142867142Y-147627142D01*
X142771904Y-147484285D01*
X142724285Y-147293809D01*
X142724285Y-146912857D01*
X142771904Y-146817619D01*
X142819523Y-146770000D01*
X142914761Y-146722380D01*
X143105238Y-146722380D01*
X143200476Y-146770000D01*
X143248095Y-146817619D01*
X143295714Y-146912857D01*
X143295714Y-147150952D01*
X143248095Y-147246190D01*
X143200476Y-147293809D01*
X143105238Y-147341428D01*
X142914761Y-147341428D01*
X142819523Y-147293809D01*
X142771904Y-147246190D01*
X142724285Y-147150952D01*
X113988095Y-147702380D02*
X113988095Y-146702380D01*
X113750000Y-146702380D01*
X113607142Y-146750000D01*
X113511904Y-146845238D01*
X113464285Y-146940476D01*
X113416666Y-147130952D01*
X113416666Y-147273809D01*
X113464285Y-147464285D01*
X113511904Y-147559523D01*
X113607142Y-147654761D01*
X113750000Y-147702380D01*
X113988095Y-147702380D01*
X113083333Y-146702380D02*
X112416666Y-146702380D01*
X112845238Y-147702380D01*
X152914285Y-149772380D02*
X152914285Y-148772380D01*
X152676190Y-148772380D01*
X152533333Y-148820000D01*
X152438095Y-148915238D01*
X152390476Y-149010476D01*
X152342857Y-149200952D01*
X152342857Y-149343809D01*
X152390476Y-149534285D01*
X152438095Y-149629523D01*
X152533333Y-149724761D01*
X152676190Y-149772380D01*
X152914285Y-149772380D01*
X151390476Y-149772380D02*
X151961904Y-149772380D01*
X151676190Y-149772380D02*
X151676190Y-148772380D01*
X151771428Y-148915238D01*
X151866666Y-149010476D01*
X151961904Y-149058095D01*
X150771428Y-148772380D02*
X150676190Y-148772380D01*
X150580952Y-148820000D01*
X150533333Y-148867619D01*
X150485714Y-148962857D01*
X150438095Y-149153333D01*
X150438095Y-149391428D01*
X150485714Y-149581904D01*
X150533333Y-149677142D01*
X150580952Y-149724761D01*
X150676190Y-149772380D01*
X150771428Y-149772380D01*
X150866666Y-149724761D01*
X150914285Y-149677142D01*
X150961904Y-149581904D01*
X151009523Y-149391428D01*
X151009523Y-149153333D01*
X150961904Y-148962857D01*
X150914285Y-148867619D01*
X150866666Y-148820000D01*
X150771428Y-148772380D01*
X129088095Y-147772380D02*
X129088095Y-146772380D01*
X128850000Y-146772380D01*
X128707142Y-146820000D01*
X128611904Y-146915238D01*
X128564285Y-147010476D01*
X128516666Y-147200952D01*
X128516666Y-147343809D01*
X128564285Y-147534285D01*
X128611904Y-147629523D01*
X128707142Y-147724761D01*
X128850000Y-147772380D01*
X129088095Y-147772380D01*
X127945238Y-147200952D02*
X128040476Y-147153333D01*
X128088095Y-147105714D01*
X128135714Y-147010476D01*
X128135714Y-146962857D01*
X128088095Y-146867619D01*
X128040476Y-146820000D01*
X127945238Y-146772380D01*
X127754761Y-146772380D01*
X127659523Y-146820000D01*
X127611904Y-146867619D01*
X127564285Y-146962857D01*
X127564285Y-147010476D01*
X127611904Y-147105714D01*
X127659523Y-147153333D01*
X127754761Y-147200952D01*
X127945238Y-147200952D01*
X128040476Y-147248571D01*
X128088095Y-147296190D01*
X128135714Y-147391428D01*
X128135714Y-147581904D01*
X128088095Y-147677142D01*
X128040476Y-147724761D01*
X127945238Y-147772380D01*
X127754761Y-147772380D01*
X127659523Y-147724761D01*
X127611904Y-147677142D01*
X127564285Y-147581904D01*
X127564285Y-147391428D01*
X127611904Y-147296190D01*
X127659523Y-147248571D01*
X127754761Y-147200952D01*
X155602095Y-134697380D02*
X155602095Y-133697380D01*
X155364000Y-133697380D01*
X155221142Y-133745000D01*
X155125904Y-133840238D01*
X155078285Y-133935476D01*
X155030666Y-134125952D01*
X155030666Y-134268809D01*
X155078285Y-134459285D01*
X155125904Y-134554523D01*
X155221142Y-134649761D01*
X155364000Y-134697380D01*
X155602095Y-134697380D01*
X154125904Y-133697380D02*
X154602095Y-133697380D01*
X154649714Y-134173571D01*
X154602095Y-134125952D01*
X154506857Y-134078333D01*
X154268761Y-134078333D01*
X154173523Y-134125952D01*
X154125904Y-134173571D01*
X154078285Y-134268809D01*
X154078285Y-134506904D01*
X154125904Y-134602142D01*
X154173523Y-134649761D01*
X154268761Y-134697380D01*
X154506857Y-134697380D01*
X154602095Y-134649761D01*
X154649714Y-134602142D01*
X97318095Y-134762380D02*
X97318095Y-133762380D01*
X97080000Y-133762380D01*
X96937142Y-133810000D01*
X96841904Y-133905238D01*
X96794285Y-134000476D01*
X96746666Y-134190952D01*
X96746666Y-134333809D01*
X96794285Y-134524285D01*
X96841904Y-134619523D01*
X96937142Y-134714761D01*
X97080000Y-134762380D01*
X97318095Y-134762380D01*
X95794285Y-134762380D02*
X96365714Y-134762380D01*
X96080000Y-134762380D02*
X96080000Y-133762380D01*
X96175238Y-133905238D01*
X96270476Y-134000476D01*
X96365714Y-134048095D01*
X110606095Y-134697380D02*
X110606095Y-133697380D01*
X110368000Y-133697380D01*
X110225142Y-133745000D01*
X110129904Y-133840238D01*
X110082285Y-133935476D01*
X110034666Y-134125952D01*
X110034666Y-134268809D01*
X110082285Y-134459285D01*
X110129904Y-134554523D01*
X110225142Y-134649761D01*
X110368000Y-134697380D01*
X110606095Y-134697380D01*
X109653714Y-133792619D02*
X109606095Y-133745000D01*
X109510857Y-133697380D01*
X109272761Y-133697380D01*
X109177523Y-133745000D01*
X109129904Y-133792619D01*
X109082285Y-133887857D01*
X109082285Y-133983095D01*
X109129904Y-134125952D01*
X109701333Y-134697380D01*
X109082285Y-134697380D01*
X140603095Y-134811380D02*
X140603095Y-133811380D01*
X140365000Y-133811380D01*
X140222142Y-133859000D01*
X140126904Y-133954238D01*
X140079285Y-134049476D01*
X140031666Y-134239952D01*
X140031666Y-134382809D01*
X140079285Y-134573285D01*
X140126904Y-134668523D01*
X140222142Y-134763761D01*
X140365000Y-134811380D01*
X140603095Y-134811380D01*
X139174523Y-134144714D02*
X139174523Y-134811380D01*
X139412619Y-133763761D02*
X139650714Y-134478047D01*
X139031666Y-134478047D01*
X99148095Y-147852380D02*
X99148095Y-146852380D01*
X98910000Y-146852380D01*
X98767142Y-146900000D01*
X98671904Y-146995238D01*
X98624285Y-147090476D01*
X98576666Y-147280952D01*
X98576666Y-147423809D01*
X98624285Y-147614285D01*
X98671904Y-147709523D01*
X98767142Y-147804761D01*
X98910000Y-147852380D01*
X99148095Y-147852380D01*
X97719523Y-146852380D02*
X97910000Y-146852380D01*
X98005238Y-146900000D01*
X98052857Y-146947619D01*
X98148095Y-147090476D01*
X98195714Y-147280952D01*
X98195714Y-147661904D01*
X98148095Y-147757142D01*
X98100476Y-147804761D01*
X98005238Y-147852380D01*
X97814761Y-147852380D01*
X97719523Y-147804761D01*
X97671904Y-147757142D01*
X97624285Y-147661904D01*
X97624285Y-147423809D01*
X97671904Y-147328571D01*
X97719523Y-147280952D01*
X97814761Y-147233333D01*
X98005238Y-147233333D01*
X98100476Y-147280952D01*
X98148095Y-147328571D01*
X98195714Y-147423809D01*
X125579095Y-134710380D02*
X125579095Y-133710380D01*
X125341000Y-133710380D01*
X125198142Y-133758000D01*
X125102904Y-133853238D01*
X125055285Y-133948476D01*
X125007666Y-134138952D01*
X125007666Y-134281809D01*
X125055285Y-134472285D01*
X125102904Y-134567523D01*
X125198142Y-134662761D01*
X125341000Y-134710380D01*
X125579095Y-134710380D01*
X124674333Y-133710380D02*
X124055285Y-133710380D01*
X124388619Y-134091333D01*
X124245761Y-134091333D01*
X124150523Y-134138952D01*
X124102904Y-134186571D01*
X124055285Y-134281809D01*
X124055285Y-134519904D01*
X124102904Y-134615142D01*
X124150523Y-134662761D01*
X124245761Y-134710380D01*
X124531476Y-134710380D01*
X124626714Y-134662761D01*
X124674333Y-134615142D01*
X86011904Y-62952380D02*
X86011904Y-63761904D01*
X85964285Y-63857142D01*
X85916666Y-63904761D01*
X85821428Y-63952380D01*
X85630952Y-63952380D01*
X85535714Y-63904761D01*
X85488095Y-63857142D01*
X85440476Y-63761904D01*
X85440476Y-62952380D01*
X84440476Y-63952380D02*
X85011904Y-63952380D01*
X84726190Y-63952380D02*
X84726190Y-62952380D01*
X84821428Y-63095238D01*
X84916666Y-63190476D01*
X85011904Y-63238095D01*
X82237095Y-79066666D02*
X81760904Y-79066666D01*
X82332333Y-79352380D02*
X81999000Y-78352380D01*
X81665666Y-79352380D01*
X98389904Y-79402380D02*
X98389904Y-78402380D01*
X97818476Y-79402380D02*
X98247047Y-78830952D01*
X97818476Y-78402380D02*
X98389904Y-78973809D01*
X79687657Y-79218780D02*
X80020990Y-78742590D01*
X80259085Y-79218780D02*
X80259085Y-78218780D01*
X79878133Y-78218780D01*
X79782895Y-78266400D01*
X79735276Y-78314019D01*
X79687657Y-78409257D01*
X79687657Y-78552114D01*
X79735276Y-78647352D01*
X79782895Y-78694971D01*
X79878133Y-78742590D01*
X80259085Y-78742590D01*
X78735276Y-79218780D02*
X79306704Y-79218780D01*
X79020990Y-79218780D02*
X79020990Y-78218780D01*
X79116228Y-78361638D01*
X79211466Y-78456876D01*
X79306704Y-78504495D01*
X78163847Y-78647352D02*
X78259085Y-78599733D01*
X78306704Y-78552114D01*
X78354323Y-78456876D01*
X78354323Y-78409257D01*
X78306704Y-78314019D01*
X78259085Y-78266400D01*
X78163847Y-78218780D01*
X77973371Y-78218780D01*
X77878133Y-78266400D01*
X77830514Y-78314019D01*
X77782895Y-78409257D01*
X77782895Y-78456876D01*
X77830514Y-78552114D01*
X77878133Y-78599733D01*
X77973371Y-78647352D01*
X78163847Y-78647352D01*
X78259085Y-78694971D01*
X78306704Y-78742590D01*
X78354323Y-78837828D01*
X78354323Y-79028304D01*
X78306704Y-79123542D01*
X78259085Y-79171161D01*
X78163847Y-79218780D01*
X77973371Y-79218780D01*
X77878133Y-79171161D01*
X77830514Y-79123542D01*
X77782895Y-79028304D01*
X77782895Y-78837828D01*
X77830514Y-78742590D01*
X77878133Y-78694971D01*
X77973371Y-78647352D01*
X138552380Y-125483333D02*
X138076190Y-125150000D01*
X138552380Y-124911904D02*
X137552380Y-124911904D01*
X137552380Y-125292857D01*
X137600000Y-125388095D01*
X137647619Y-125435714D01*
X137742857Y-125483333D01*
X137885714Y-125483333D01*
X137980952Y-125435714D01*
X138028571Y-125388095D01*
X138076190Y-125292857D01*
X138076190Y-124911904D01*
X137885714Y-126340476D02*
X138552380Y-126340476D01*
X137504761Y-126102380D02*
X138219047Y-125864285D01*
X138219047Y-126483333D01*
X93752380Y-125633333D02*
X93276190Y-125300000D01*
X93752380Y-125061904D02*
X92752380Y-125061904D01*
X92752380Y-125442857D01*
X92800000Y-125538095D01*
X92847619Y-125585714D01*
X92942857Y-125633333D01*
X93085714Y-125633333D01*
X93180952Y-125585714D01*
X93228571Y-125538095D01*
X93276190Y-125442857D01*
X93276190Y-125061904D01*
X93752380Y-126585714D02*
X93752380Y-126014285D01*
X93752380Y-126300000D02*
X92752380Y-126300000D01*
X92895238Y-126204761D01*
X92990476Y-126109523D01*
X93038095Y-126014285D01*
X108602380Y-125683333D02*
X108126190Y-125350000D01*
X108602380Y-125111904D02*
X107602380Y-125111904D01*
X107602380Y-125492857D01*
X107650000Y-125588095D01*
X107697619Y-125635714D01*
X107792857Y-125683333D01*
X107935714Y-125683333D01*
X108030952Y-125635714D01*
X108078571Y-125588095D01*
X108126190Y-125492857D01*
X108126190Y-125111904D01*
X107697619Y-126064285D02*
X107650000Y-126111904D01*
X107602380Y-126207142D01*
X107602380Y-126445238D01*
X107650000Y-126540476D01*
X107697619Y-126588095D01*
X107792857Y-126635714D01*
X107888095Y-126635714D01*
X108030952Y-126588095D01*
X108602380Y-126016666D01*
X108602380Y-126635714D01*
X103242857Y-59932380D02*
X103576190Y-59456190D01*
X103814285Y-59932380D02*
X103814285Y-58932380D01*
X103433333Y-58932380D01*
X103338095Y-58980000D01*
X103290476Y-59027619D01*
X103242857Y-59122857D01*
X103242857Y-59265714D01*
X103290476Y-59360952D01*
X103338095Y-59408571D01*
X103433333Y-59456190D01*
X103814285Y-59456190D01*
X102290476Y-59932380D02*
X102861904Y-59932380D01*
X102576190Y-59932380D02*
X102576190Y-58932380D01*
X102671428Y-59075238D01*
X102766666Y-59170476D01*
X102861904Y-59218095D01*
X101957142Y-58932380D02*
X101290476Y-58932380D01*
X101719047Y-59932380D01*
X123602380Y-125733333D02*
X123126190Y-125400000D01*
X123602380Y-125161904D02*
X122602380Y-125161904D01*
X122602380Y-125542857D01*
X122650000Y-125638095D01*
X122697619Y-125685714D01*
X122792857Y-125733333D01*
X122935714Y-125733333D01*
X123030952Y-125685714D01*
X123078571Y-125638095D01*
X123126190Y-125542857D01*
X123126190Y-125161904D01*
X122602380Y-126066666D02*
X122602380Y-126685714D01*
X122983333Y-126352380D01*
X122983333Y-126495238D01*
X123030952Y-126590476D01*
X123078571Y-126638095D01*
X123173809Y-126685714D01*
X123411904Y-126685714D01*
X123507142Y-126638095D01*
X123554761Y-126590476D01*
X123602380Y-126495238D01*
X123602380Y-126209523D01*
X123554761Y-126114285D01*
X123507142Y-126066666D01*
X123704857Y-56302380D02*
X124038190Y-55826190D01*
X124276285Y-56302380D02*
X124276285Y-55302380D01*
X123895333Y-55302380D01*
X123800095Y-55350000D01*
X123752476Y-55397619D01*
X123704857Y-55492857D01*
X123704857Y-55635714D01*
X123752476Y-55730952D01*
X123800095Y-55778571D01*
X123895333Y-55826190D01*
X124276285Y-55826190D01*
X123323904Y-55397619D02*
X123276285Y-55350000D01*
X123181047Y-55302380D01*
X122942952Y-55302380D01*
X122847714Y-55350000D01*
X122800095Y-55397619D01*
X122752476Y-55492857D01*
X122752476Y-55588095D01*
X122800095Y-55730952D01*
X123371523Y-56302380D01*
X122752476Y-56302380D01*
X121895333Y-55635714D02*
X121895333Y-56302380D01*
X122133428Y-55254761D02*
X122371523Y-55969047D01*
X121752476Y-55969047D01*
X135425357Y-73602380D02*
X135758690Y-73126190D01*
X135996785Y-73602380D02*
X135996785Y-72602380D01*
X135615833Y-72602380D01*
X135520595Y-72650000D01*
X135472976Y-72697619D01*
X135425357Y-72792857D01*
X135425357Y-72935714D01*
X135472976Y-73030952D01*
X135520595Y-73078571D01*
X135615833Y-73126190D01*
X135996785Y-73126190D01*
X135092023Y-72602380D02*
X134472976Y-72602380D01*
X134806309Y-72983333D01*
X134663452Y-72983333D01*
X134568214Y-73030952D01*
X134520595Y-73078571D01*
X134472976Y-73173809D01*
X134472976Y-73411904D01*
X134520595Y-73507142D01*
X134568214Y-73554761D01*
X134663452Y-73602380D01*
X134949166Y-73602380D01*
X135044404Y-73554761D01*
X135092023Y-73507142D01*
X133615833Y-72935714D02*
X133615833Y-73602380D01*
X133853928Y-72554761D02*
X134092023Y-73269047D01*
X133472976Y-73269047D01*
X91822542Y-87952342D02*
X91870161Y-87904723D01*
X91917780Y-87761866D01*
X91917780Y-87666628D01*
X91870161Y-87523771D01*
X91774923Y-87428533D01*
X91679685Y-87380914D01*
X91489209Y-87333295D01*
X91346352Y-87333295D01*
X91155876Y-87380914D01*
X91060638Y-87428533D01*
X90965400Y-87523771D01*
X90917780Y-87666628D01*
X90917780Y-87761866D01*
X90965400Y-87904723D01*
X91013019Y-87952342D01*
X91013019Y-88333295D02*
X90965400Y-88380914D01*
X90917780Y-88476152D01*
X90917780Y-88714247D01*
X90965400Y-88809485D01*
X91013019Y-88857104D01*
X91108257Y-88904723D01*
X91203495Y-88904723D01*
X91346352Y-88857104D01*
X91917780Y-88285676D01*
X91917780Y-88904723D01*
X90917780Y-89238057D02*
X90917780Y-89904723D01*
X91917780Y-89476152D01*
X85907122Y-87957102D02*
X85954741Y-87909483D01*
X86002360Y-87766626D01*
X86002360Y-87671388D01*
X85954741Y-87528531D01*
X85859503Y-87433293D01*
X85764265Y-87385674D01*
X85573789Y-87338055D01*
X85430932Y-87338055D01*
X85240456Y-87385674D01*
X85145218Y-87433293D01*
X85049980Y-87528531D01*
X85002360Y-87671388D01*
X85002360Y-87766626D01*
X85049980Y-87909483D01*
X85097599Y-87957102D01*
X85097599Y-88338055D02*
X85049980Y-88385674D01*
X85002360Y-88480912D01*
X85002360Y-88719007D01*
X85049980Y-88814245D01*
X85097599Y-88861864D01*
X85192837Y-88909483D01*
X85288075Y-88909483D01*
X85430932Y-88861864D01*
X86002360Y-88290436D01*
X86002360Y-88909483D01*
X85335694Y-89766626D02*
X86002360Y-89766626D01*
X84954741Y-89528531D02*
X85669027Y-89290436D01*
X85669027Y-89909483D01*
X99142857Y-69677142D02*
X99190476Y-69724761D01*
X99333333Y-69772380D01*
X99428571Y-69772380D01*
X99571428Y-69724761D01*
X99666666Y-69629523D01*
X99714285Y-69534285D01*
X99761904Y-69343809D01*
X99761904Y-69200952D01*
X99714285Y-69010476D01*
X99666666Y-68915238D01*
X99571428Y-68820000D01*
X99428571Y-68772380D01*
X99333333Y-68772380D01*
X99190476Y-68820000D01*
X99142857Y-68867619D01*
X98190476Y-69772380D02*
X98761904Y-69772380D01*
X98476190Y-69772380D02*
X98476190Y-68772380D01*
X98571428Y-68915238D01*
X98666666Y-69010476D01*
X98761904Y-69058095D01*
X97619047Y-69200952D02*
X97714285Y-69153333D01*
X97761904Y-69105714D01*
X97809523Y-69010476D01*
X97809523Y-68962857D01*
X97761904Y-68867619D01*
X97714285Y-68820000D01*
X97619047Y-68772380D01*
X97428571Y-68772380D01*
X97333333Y-68820000D01*
X97285714Y-68867619D01*
X97238095Y-68962857D01*
X97238095Y-69010476D01*
X97285714Y-69105714D01*
X97333333Y-69153333D01*
X97428571Y-69200952D01*
X97619047Y-69200952D01*
X97714285Y-69248571D01*
X97761904Y-69296190D01*
X97809523Y-69391428D01*
X97809523Y-69581904D01*
X97761904Y-69677142D01*
X97714285Y-69724761D01*
X97619047Y-69772380D01*
X97428571Y-69772380D01*
X97333333Y-69724761D01*
X97285714Y-69677142D01*
X97238095Y-69581904D01*
X97238095Y-69391428D01*
X97285714Y-69296190D01*
X97333333Y-69248571D01*
X97428571Y-69200952D01*
X93057142Y-56007142D02*
X93104761Y-55959523D01*
X93152380Y-55816666D01*
X93152380Y-55721428D01*
X93104761Y-55578571D01*
X93009523Y-55483333D01*
X92914285Y-55435714D01*
X92723809Y-55388095D01*
X92580952Y-55388095D01*
X92390476Y-55435714D01*
X92295238Y-55483333D01*
X92200000Y-55578571D01*
X92152380Y-55721428D01*
X92152380Y-55816666D01*
X92200000Y-55959523D01*
X92247619Y-56007142D01*
X93152380Y-56959523D02*
X93152380Y-56388095D01*
X93152380Y-56673809D02*
X92152380Y-56673809D01*
X92295238Y-56578571D01*
X92390476Y-56483333D01*
X92438095Y-56388095D01*
X92485714Y-57816666D02*
X93152380Y-57816666D01*
X92104761Y-57578571D02*
X92819047Y-57340476D01*
X92819047Y-57959523D01*
X79907142Y-66157142D02*
X79954761Y-66109523D01*
X80002380Y-65966666D01*
X80002380Y-65871428D01*
X79954761Y-65728571D01*
X79859523Y-65633333D01*
X79764285Y-65585714D01*
X79573809Y-65538095D01*
X79430952Y-65538095D01*
X79240476Y-65585714D01*
X79145238Y-65633333D01*
X79050000Y-65728571D01*
X79002380Y-65871428D01*
X79002380Y-65966666D01*
X79050000Y-66109523D01*
X79097619Y-66157142D01*
X80002380Y-67109523D02*
X80002380Y-66538095D01*
X80002380Y-66823809D02*
X79002380Y-66823809D01*
X79145238Y-66728571D01*
X79240476Y-66633333D01*
X79288095Y-66538095D01*
X79002380Y-67442857D02*
X79002380Y-68109523D01*
X80002380Y-67680952D01*
X81457142Y-66057142D02*
X81504761Y-66009523D01*
X81552380Y-65866666D01*
X81552380Y-65771428D01*
X81504761Y-65628571D01*
X81409523Y-65533333D01*
X81314285Y-65485714D01*
X81123809Y-65438095D01*
X80980952Y-65438095D01*
X80790476Y-65485714D01*
X80695238Y-65533333D01*
X80600000Y-65628571D01*
X80552380Y-65771428D01*
X80552380Y-65866666D01*
X80600000Y-66009523D01*
X80647619Y-66057142D01*
X81552380Y-67009523D02*
X81552380Y-66438095D01*
X81552380Y-66723809D02*
X80552380Y-66723809D01*
X80695238Y-66628571D01*
X80790476Y-66533333D01*
X80838095Y-66438095D01*
X80552380Y-67342857D02*
X80552380Y-67961904D01*
X80933333Y-67628571D01*
X80933333Y-67771428D01*
X80980952Y-67866666D01*
X81028571Y-67914285D01*
X81123809Y-67961904D01*
X81361904Y-67961904D01*
X81457142Y-67914285D01*
X81504761Y-67866666D01*
X81552380Y-67771428D01*
X81552380Y-67485714D01*
X81504761Y-67390476D01*
X81457142Y-67342857D01*
X88717857Y-77947142D02*
X88765476Y-77994761D01*
X88908333Y-78042380D01*
X89003571Y-78042380D01*
X89146428Y-77994761D01*
X89241666Y-77899523D01*
X89289285Y-77804285D01*
X89336904Y-77613809D01*
X89336904Y-77470952D01*
X89289285Y-77280476D01*
X89241666Y-77185238D01*
X89146428Y-77090000D01*
X89003571Y-77042380D01*
X88908333Y-77042380D01*
X88765476Y-77090000D01*
X88717857Y-77137619D01*
X87765476Y-78042380D02*
X88336904Y-78042380D01*
X88051190Y-78042380D02*
X88051190Y-77042380D01*
X88146428Y-77185238D01*
X88241666Y-77280476D01*
X88336904Y-77328095D01*
X86908333Y-77042380D02*
X87098809Y-77042380D01*
X87194047Y-77090000D01*
X87241666Y-77137619D01*
X87336904Y-77280476D01*
X87384523Y-77470952D01*
X87384523Y-77851904D01*
X87336904Y-77947142D01*
X87289285Y-77994761D01*
X87194047Y-78042380D01*
X87003571Y-78042380D01*
X86908333Y-77994761D01*
X86860714Y-77947142D01*
X86813095Y-77851904D01*
X86813095Y-77613809D01*
X86860714Y-77518571D01*
X86908333Y-77470952D01*
X87003571Y-77423333D01*
X87194047Y-77423333D01*
X87289285Y-77470952D01*
X87336904Y-77518571D01*
X87384523Y-77613809D01*
X88442857Y-86407142D02*
X88490476Y-86454761D01*
X88633333Y-86502380D01*
X88728571Y-86502380D01*
X88871428Y-86454761D01*
X88966666Y-86359523D01*
X89014285Y-86264285D01*
X89061904Y-86073809D01*
X89061904Y-85930952D01*
X89014285Y-85740476D01*
X88966666Y-85645238D01*
X88871428Y-85550000D01*
X88728571Y-85502380D01*
X88633333Y-85502380D01*
X88490476Y-85550000D01*
X88442857Y-85597619D01*
X88061904Y-85597619D02*
X88014285Y-85550000D01*
X87919047Y-85502380D01*
X87680952Y-85502380D01*
X87585714Y-85550000D01*
X87538095Y-85597619D01*
X87490476Y-85692857D01*
X87490476Y-85788095D01*
X87538095Y-85930952D01*
X88109523Y-86502380D01*
X87490476Y-86502380D01*
X87157142Y-85502380D02*
X86538095Y-85502380D01*
X86871428Y-85883333D01*
X86728571Y-85883333D01*
X86633333Y-85930952D01*
X86585714Y-85978571D01*
X86538095Y-86073809D01*
X86538095Y-86311904D01*
X86585714Y-86407142D01*
X86633333Y-86454761D01*
X86728571Y-86502380D01*
X87014285Y-86502380D01*
X87109523Y-86454761D01*
X87157142Y-86407142D01*
X101671428Y-78464019D02*
X101766666Y-78416400D01*
X101861904Y-78321161D01*
X102004761Y-78178304D01*
X102100000Y-78130685D01*
X102195238Y-78130685D01*
X102147619Y-78368780D02*
X102242857Y-78321161D01*
X102338095Y-78225923D01*
X102385714Y-78035447D01*
X102385714Y-77702114D01*
X102338095Y-77511638D01*
X102242857Y-77416400D01*
X102147619Y-77368780D01*
X101957142Y-77368780D01*
X101861904Y-77416400D01*
X101766666Y-77511638D01*
X101719047Y-77702114D01*
X101719047Y-78035447D01*
X101766666Y-78225923D01*
X101861904Y-78321161D01*
X101957142Y-78368780D01*
X102147619Y-78368780D01*
X100766666Y-78368780D02*
X101338095Y-78368780D01*
X101052380Y-78368780D02*
X101052380Y-77368780D01*
X101147619Y-77511638D01*
X101242857Y-77606876D01*
X101338095Y-77654495D01*
X99814285Y-78368780D02*
X100385714Y-78368780D01*
X100100000Y-78368780D02*
X100100000Y-77368780D01*
X100195238Y-77511638D01*
X100290476Y-77606876D01*
X100385714Y-77654495D01*
X102442857Y-73357142D02*
X102490476Y-73404761D01*
X102633333Y-73452380D01*
X102728571Y-73452380D01*
X102871428Y-73404761D01*
X102966666Y-73309523D01*
X103014285Y-73214285D01*
X103061904Y-73023809D01*
X103061904Y-72880952D01*
X103014285Y-72690476D01*
X102966666Y-72595238D01*
X102871428Y-72500000D01*
X102728571Y-72452380D01*
X102633333Y-72452380D01*
X102490476Y-72500000D01*
X102442857Y-72547619D01*
X101490476Y-73452380D02*
X102061904Y-73452380D01*
X101776190Y-73452380D02*
X101776190Y-72452380D01*
X101871428Y-72595238D01*
X101966666Y-72690476D01*
X102061904Y-72738095D01*
X101014285Y-73452380D02*
X100823809Y-73452380D01*
X100728571Y-73404761D01*
X100680952Y-73357142D01*
X100585714Y-73214285D01*
X100538095Y-73023809D01*
X100538095Y-72642857D01*
X100585714Y-72547619D01*
X100633333Y-72500000D01*
X100728571Y-72452380D01*
X100919047Y-72452380D01*
X101014285Y-72500000D01*
X101061904Y-72547619D01*
X101109523Y-72642857D01*
X101109523Y-72880952D01*
X101061904Y-72976190D01*
X101014285Y-73023809D01*
X100919047Y-73071428D01*
X100728571Y-73071428D01*
X100633333Y-73023809D01*
X100585714Y-72976190D01*
X100538095Y-72880952D01*
X106807142Y-61069642D02*
X106854761Y-61022023D01*
X106902380Y-60879166D01*
X106902380Y-60783928D01*
X106854761Y-60641071D01*
X106759523Y-60545833D01*
X106664285Y-60498214D01*
X106473809Y-60450595D01*
X106330952Y-60450595D01*
X106140476Y-60498214D01*
X106045238Y-60545833D01*
X105950000Y-60641071D01*
X105902380Y-60783928D01*
X105902380Y-60879166D01*
X105950000Y-61022023D01*
X105997619Y-61069642D01*
X105997619Y-61450595D02*
X105950000Y-61498214D01*
X105902380Y-61593452D01*
X105902380Y-61831547D01*
X105950000Y-61926785D01*
X105997619Y-61974404D01*
X106092857Y-62022023D01*
X106188095Y-62022023D01*
X106330952Y-61974404D01*
X106902380Y-61402976D01*
X106902380Y-62022023D01*
X106902380Y-62974404D02*
X106902380Y-62402976D01*
X106902380Y-62688690D02*
X105902380Y-62688690D01*
X106045238Y-62593452D01*
X106140476Y-62498214D01*
X106188095Y-62402976D01*
X97357142Y-59357142D02*
X97404761Y-59309523D01*
X97452380Y-59166666D01*
X97452380Y-59071428D01*
X97404761Y-58928571D01*
X97309523Y-58833333D01*
X97214285Y-58785714D01*
X97023809Y-58738095D01*
X96880952Y-58738095D01*
X96690476Y-58785714D01*
X96595238Y-58833333D01*
X96500000Y-58928571D01*
X96452380Y-59071428D01*
X96452380Y-59166666D01*
X96500000Y-59309523D01*
X96547619Y-59357142D01*
X97452380Y-60309523D02*
X97452380Y-59738095D01*
X97452380Y-60023809D02*
X96452380Y-60023809D01*
X96595238Y-59928571D01*
X96690476Y-59833333D01*
X96738095Y-59738095D01*
X96452380Y-61214285D02*
X96452380Y-60738095D01*
X96928571Y-60690476D01*
X96880952Y-60738095D01*
X96833333Y-60833333D01*
X96833333Y-61071428D01*
X96880952Y-61166666D01*
X96928571Y-61214285D01*
X97023809Y-61261904D01*
X97261904Y-61261904D01*
X97357142Y-61214285D01*
X97404761Y-61166666D01*
X97452380Y-61071428D01*
X97452380Y-60833333D01*
X97404761Y-60738095D01*
X97357142Y-60690476D01*
M02*
