M48
; DRILL file {KiCad (5.1.2)-1} date 2019/08/13 23:38:27
; FORMAT={-:-/ absolute / inch / decimal}
; #@! TF.CreationDate,2019-08-13T23:38:27+09:00
; #@! TF.GenerationSoftware,Kicad,Pcbnew,(5.1.2)-1
; #@! TF.FileFunction,Plated,1,2,PTH
FMAT,2
INCH
T1C0.0157
T2C0.0217
T3C0.0276
T4C0.0315
T5C0.0394
T6C0.0433
%
G90
G05
T1
X2.5906Y-5.4197
X2.624Y-5.5087
X2.7559Y-5.7087
X2.7807Y-5.4772
X2.8276Y-4.774
X2.8476Y-4.6303
X2.8531Y-4.2465
X2.8583Y-5.7205
X2.8591Y-4.448
X2.9143Y-2.7117
X2.9143Y-3.7214
X2.955Y-4.788
X2.9583Y-2.2646
X2.9795Y-3.5252
X3.0246Y-2.7303
X3.0516Y-3.8346
X3.0516Y-4.8339
X3.0518Y-3.4287
X3.1235Y-2.9959
X3.126Y-2.8268
X3.2294Y-3.6916
X3.2359Y-3.2484
X3.2445Y-5.5335
X3.2592Y-3.8796
X3.2874Y-5.8228
X3.2929Y-5.0394
X3.2969Y-4.6445
X3.3091Y-2.687
X3.3146Y-2.5689
X3.3161Y-2.7461
X3.3465Y-2.2441
X3.3713Y-3.7201
X3.4055Y-4.6413
X3.4193Y-2.628
X3.4252Y-5.7047
X3.4399Y-2.7472
X3.4586Y-2.7115
X3.4646Y-2.935
X3.4846Y-4.7638
X3.4929Y-4.302
X3.4935Y-2.3936
X3.5031Y-2.3374
X3.5102Y-4.639
X3.5157Y-2.6673
X3.5565Y-2.3658
X3.5657Y-4.2488
X3.6219Y-2.7856
X3.626Y-2.7067
X3.6374Y-3.0515
X3.7323Y-3.8402
X3.7402Y-2.2638
X3.7427Y-3.131
X3.7441Y-5.2874
X3.7517Y-3.0239
X3.755Y-3.1789
X3.7578Y-2.1934
X3.7697Y-3.7209
X3.7971Y-2.3464
X3.8102Y-2.9673
X3.8579Y-3.3587
X3.8939Y-4.1317
X3.9264Y-2.4949
X3.9307Y-3.0261
X3.9311Y-4.1665
X3.9339Y-4.2252
X3.9652Y-2.2529
X3.9764Y-2.5886
X3.9791Y-4.5106
X3.9858Y-4.302
X3.997Y-2.2992
X4.0211Y-3.2511
X4.0315Y-2.4213
X4.0482Y-3.3232
X4.1024Y-4.6654
X4.1063Y-2.311
X4.1079Y-2.754
X4.1315Y-4.4291
X4.1319Y-3.5441
X4.176Y-2.6437
X4.1959Y-2.8447
X4.2126Y-2.7795
X4.2193Y-4.2563
X4.2244Y-3.362
X4.235Y-3.6543
X4.2469Y-3.7197
X4.276Y-4.302
X4.2888Y-3.2484
X4.3622Y-4.6378
X4.367Y-2.7492
X4.4104Y-2.6437
X4.4416Y-2.9042
X4.5098Y-2.4587
X4.5255Y-2.3988
X4.5638Y-5.6134
X4.6252Y-4.2374
X4.6945Y-3.7217
X4.7323Y-2.4094
X4.7604Y-2.2635
X4.7741Y-4.2971
X4.7812Y-3.4933
X4.8002Y-4.6467
X4.9213Y-4.4685
X5.0423Y-3.2618
X5.0693Y-4.302
X5.0817Y-2.9331
X5.0906Y-2.5197
X5.1152Y-2.7972
X5.1441Y-4.2346
X5.2173Y-2.815
X5.3543Y-3.1496
X5.3661Y-5.2047
X5.4138Y-3.637
X5.4138Y-4.2339
X5.5598Y-4.302
X5.6033Y-4.6407
X5.6354Y-2.6472
X5.7087Y-3.1496
X5.7413Y-4.2685
X5.7756Y-5.1024
X5.8071Y-4.3047
X5.815Y-2.6969
X6.0275Y-4.7175
X6.0315Y-5.2677
X6.0925Y-2.2067
X6.1343Y-3.5311
X6.2008Y-4.2362
X6.2992Y-2.5591
X6.2992Y-5.7087
X6.3461Y-4.302
T3
X3.3071Y-3.248
X3.3661Y-3.248
X3.4252Y-3.248
X3.4843Y-3.248
X3.5433Y-3.248
X3.6024Y-3.248
X3.6614Y-3.248
X3.7205Y-3.248
X3.7795Y-3.248
X6.128Y-3.3799
T5
X5.502Y-2.7165
X5.502Y-2.8346
X5.6102Y-2.7165
X5.6102Y-2.8346
X5.0673Y-3.1437
X5.1673Y-3.1437
X6.128Y-2.8819
X6.128Y-2.9819
X6.128Y-3.0819
X6.228Y-2.8819
X6.228Y-2.9819
X6.228Y-3.0819
T6
X4.1339Y-4.9213
X4.1339Y-5.0984
X4.3898Y-4.9213
X4.3898Y-5.0984
X5.315Y-4.9213
X5.315Y-5.0984
X5.5709Y-4.9213
X5.5709Y-5.0984
X3.5433Y-5.5118
X3.5433Y-5.689
X3.7992Y-5.5118
X3.7992Y-5.689
X5.9055Y-5.5118
X5.9055Y-5.689
X6.1614Y-5.5118
X6.1614Y-5.689
X3.5433Y-4.9213
X3.5433Y-5.0984
X3.7992Y-4.9213
X3.7992Y-5.0984
X5.9055Y-4.9213
X5.9055Y-5.0984
X6.1614Y-4.9213
X6.1614Y-5.0984
X4.7244Y-5.5118
X4.7244Y-5.689
X4.9803Y-5.5118
X4.9803Y-5.689
X5.315Y-5.5118
X5.315Y-5.689
X5.5709Y-5.5118
X5.5709Y-5.689
X4.1339Y-5.5118
X4.1339Y-5.689
X4.3898Y-5.5118
X4.3898Y-5.689
X4.7244Y-4.9213
X4.7244Y-5.0984
X4.9803Y-4.9213
X4.9803Y-5.0984
T2
G00X4.3868Y-2.2313
M15
G01X4.3868Y-2.2096
M16
G05
G00X4.3868Y-2.3671
M15
G01X4.3868Y-2.3455
M16
G05
G00X4.6683Y-2.2313
M15
G01X4.6683Y-2.2096
M16
G05
G00X4.6683Y-2.3671
M15
G01X4.6683Y-2.3455
M16
G05
T4
G00X3.2126Y-3.1654
M15
G01X3.2441Y-3.1654
M16
G05
G00X3.8425Y-3.1654
M15
G01X3.874Y-3.1654
M16
G05
T0
M30
