G04 #@! TF.GenerationSoftware,KiCad,Pcbnew,(5.1.0)-1*
G04 #@! TF.CreationDate,2019-03-21T13:59:08+09:00*
G04 #@! TF.ProjectId,LrE-6,4c72452d-362e-46b6-9963-61645f706362,rev?*
G04 #@! TF.SameCoordinates,Original*
G04 #@! TF.FileFunction,Legend,Bot*
G04 #@! TF.FilePolarity,Positive*
%FSLAX46Y46*%
G04 Gerber Fmt 4.6, Leading zero omitted, Abs format (unit mm)*
G04 Created by KiCad (PCBNEW (5.1.0)-1) date 2019-03-21 13:59:08*
%MOMM*%
%LPD*%
G04 APERTURE LIST*
%ADD10C,0.150000*%
%ADD11C,0.200000*%
%ADD12C,0.120000*%
%ADD13C,0.010000*%
G04 APERTURE END LIST*
D10*
X161860476Y-82381904D02*
X161860476Y-81581904D01*
X161670000Y-81581904D01*
X161555714Y-81620000D01*
X161479523Y-81696190D01*
X161441428Y-81772380D01*
X161403333Y-81924761D01*
X161403333Y-82039047D01*
X161441428Y-82191428D01*
X161479523Y-82267619D01*
X161555714Y-82343809D01*
X161670000Y-82381904D01*
X161860476Y-82381904D01*
X161060476Y-81962857D02*
X160793809Y-81962857D01*
X160679523Y-82381904D02*
X161060476Y-82381904D01*
X161060476Y-81581904D01*
X160679523Y-81581904D01*
X160070000Y-81962857D02*
X159955714Y-82000952D01*
X159917619Y-82039047D01*
X159879523Y-82115238D01*
X159879523Y-82229523D01*
X159917619Y-82305714D01*
X159955714Y-82343809D01*
X160031904Y-82381904D01*
X160336666Y-82381904D01*
X160336666Y-81581904D01*
X160070000Y-81581904D01*
X159993809Y-81620000D01*
X159955714Y-81658095D01*
X159917619Y-81734285D01*
X159917619Y-81810476D01*
X159955714Y-81886666D01*
X159993809Y-81924761D01*
X160070000Y-81962857D01*
X160336666Y-81962857D01*
X159536666Y-81581904D02*
X159536666Y-82229523D01*
X159498571Y-82305714D01*
X159460476Y-82343809D01*
X159384285Y-82381904D01*
X159231904Y-82381904D01*
X159155714Y-82343809D01*
X159117619Y-82305714D01*
X159079523Y-82229523D01*
X159079523Y-81581904D01*
X158279523Y-81620000D02*
X158355714Y-81581904D01*
X158470000Y-81581904D01*
X158584285Y-81620000D01*
X158660476Y-81696190D01*
X158698571Y-81772380D01*
X158736666Y-81924761D01*
X158736666Y-82039047D01*
X158698571Y-82191428D01*
X158660476Y-82267619D01*
X158584285Y-82343809D01*
X158470000Y-82381904D01*
X158393809Y-82381904D01*
X158279523Y-82343809D01*
X158241428Y-82305714D01*
X158241428Y-82039047D01*
X158393809Y-82039047D01*
D11*
X84250000Y-70770000D02*
G75*
G03X84250000Y-70770000I-150000J0D01*
G01*
D12*
X159993922Y-85690000D02*
X160511078Y-85690000D01*
X159993922Y-87110000D02*
X160511078Y-87110000D01*
X158572500Y-83100000D02*
X161257500Y-83100000D01*
X158572500Y-85020000D02*
X158572500Y-83100000D01*
X161257500Y-85020000D02*
X158572500Y-85020000D01*
X90990000Y-85786179D02*
X90990000Y-85460621D01*
X92010000Y-85786179D02*
X92010000Y-85460621D01*
X84981300Y-85750579D02*
X84981300Y-85425021D01*
X86001300Y-85750579D02*
X86001300Y-85425021D01*
X98662779Y-71260000D02*
X98337221Y-71260000D01*
X98662779Y-70240000D02*
X98337221Y-70240000D01*
X93260000Y-59837221D02*
X93260000Y-60162779D01*
X92240000Y-59837221D02*
X92240000Y-60162779D01*
X80440000Y-66962779D02*
X80440000Y-66637221D01*
X81460000Y-66962779D02*
X81460000Y-66637221D01*
X80440000Y-70000279D02*
X80440000Y-69674721D01*
X81460000Y-70000279D02*
X81460000Y-69674721D01*
X86740000Y-76662779D02*
X86740000Y-76337221D01*
X87760000Y-76662779D02*
X87760000Y-76337221D01*
X87912779Y-85110000D02*
X87587221Y-85110000D01*
X87912779Y-84090000D02*
X87587221Y-84090000D01*
X100340000Y-81996400D02*
X101800000Y-81996400D01*
X100340000Y-78836400D02*
X102500000Y-78836400D01*
X100340000Y-78836400D02*
X100340000Y-79766400D01*
X100340000Y-81996400D02*
X100340000Y-81066400D01*
X82100000Y-117670000D02*
X82100000Y-116740000D01*
X82100000Y-114510000D02*
X82100000Y-115440000D01*
X82100000Y-114510000D02*
X84260000Y-114510000D01*
X82100000Y-117670000D02*
X83560000Y-117670000D01*
X76580000Y-115760000D02*
X76580000Y-114300000D01*
X73420000Y-115760000D02*
X73420000Y-113600000D01*
X73420000Y-115760000D02*
X74350000Y-115760000D01*
X76580000Y-115760000D02*
X75650000Y-115760000D01*
X71580000Y-115760000D02*
X70650000Y-115760000D01*
X68420000Y-115760000D02*
X69350000Y-115760000D01*
X68420000Y-115760000D02*
X68420000Y-113600000D01*
X71580000Y-115760000D02*
X71580000Y-114300000D01*
X123320578Y-56790000D02*
X122803422Y-56790000D01*
X123320578Y-58210000D02*
X122803422Y-58210000D01*
X77108578Y-108010000D02*
X76591422Y-108010000D01*
X77108578Y-106590000D02*
X76591422Y-106590000D01*
X98758578Y-72290000D02*
X98241422Y-72290000D01*
X98758578Y-73710000D02*
X98241422Y-73710000D01*
X105690000Y-58203922D02*
X105690000Y-58721078D01*
X107110000Y-58203922D02*
X107110000Y-58721078D01*
X73141422Y-108010000D02*
X73658578Y-108010000D01*
X73141422Y-106590000D02*
X73658578Y-106590000D01*
X95710000Y-59741422D02*
X95710000Y-60258578D01*
X94290000Y-59741422D02*
X94290000Y-60258578D01*
X137208578Y-106690000D02*
X136691422Y-106690000D01*
X137208578Y-108110000D02*
X136691422Y-108110000D01*
X93141422Y-108160000D02*
X93658578Y-108160000D01*
X93141422Y-106740000D02*
X93658578Y-106740000D01*
X97058578Y-108160000D02*
X96541422Y-108160000D01*
X97058578Y-106740000D02*
X96541422Y-106740000D01*
X113191422Y-108160000D02*
X113708578Y-108160000D01*
X113191422Y-106740000D02*
X113708578Y-106740000D01*
X117108578Y-108160000D02*
X116591422Y-108160000D01*
X117108578Y-106740000D02*
X116591422Y-106740000D01*
X133241422Y-108110000D02*
X133758578Y-108110000D01*
X133241422Y-106690000D02*
X133758578Y-106690000D01*
X153241422Y-106740000D02*
X153758578Y-106740000D01*
X153241422Y-108160000D02*
X153758578Y-108160000D01*
X157258578Y-106740000D02*
X156741422Y-106740000D01*
X157258578Y-108160000D02*
X156741422Y-108160000D01*
X73141422Y-136940000D02*
X73658578Y-136940000D01*
X73141422Y-138360000D02*
X73658578Y-138360000D01*
X77108578Y-136940000D02*
X76591422Y-136940000D01*
X77108578Y-138360000D02*
X76591422Y-138360000D01*
X96400000Y-97050000D02*
X92500000Y-97050000D01*
X96400000Y-99050000D02*
X92500000Y-99050000D01*
X96400000Y-97050000D02*
X96400000Y-99050000D01*
X156400000Y-97200000D02*
X156400000Y-99200000D01*
X156400000Y-99200000D02*
X152500000Y-99200000D01*
X156400000Y-97200000D02*
X152500000Y-97200000D01*
X76430000Y-97030000D02*
X72530000Y-97030000D01*
X76430000Y-99030000D02*
X72530000Y-99030000D01*
X76430000Y-97030000D02*
X76430000Y-99030000D01*
X108600000Y-99050000D02*
X108600000Y-97050000D01*
X108600000Y-97050000D02*
X112500000Y-97050000D01*
X108600000Y-99050000D02*
X112500000Y-99050000D01*
X136400000Y-97200000D02*
X132500000Y-97200000D01*
X136400000Y-99200000D02*
X132500000Y-99200000D01*
X136400000Y-97200000D02*
X136400000Y-99200000D01*
X137660000Y-148270000D02*
X137660000Y-146270000D01*
X137660000Y-146270000D02*
X141560000Y-146270000D01*
X137660000Y-148270000D02*
X141560000Y-148270000D01*
X107600000Y-148300000D02*
X111500000Y-148300000D01*
X107600000Y-146300000D02*
X111500000Y-146300000D01*
X107600000Y-148300000D02*
X107600000Y-146300000D01*
X153900000Y-146370000D02*
X153900000Y-148370000D01*
X153900000Y-148370000D02*
X150000000Y-148370000D01*
X153900000Y-146370000D02*
X150000000Y-146370000D01*
X122700000Y-148320000D02*
X126600000Y-148320000D01*
X122700000Y-146320000D02*
X126600000Y-146320000D01*
X122700000Y-148320000D02*
X122700000Y-146320000D01*
X76400000Y-127000000D02*
X76400000Y-129000000D01*
X76400000Y-129000000D02*
X72500000Y-129000000D01*
X76400000Y-127000000D02*
X72500000Y-127000000D01*
X152614000Y-133245000D02*
X156514000Y-133245000D01*
X152614000Y-131245000D02*
X156514000Y-131245000D01*
X152614000Y-133245000D02*
X152614000Y-131245000D01*
X92650000Y-133300000D02*
X92650000Y-131300000D01*
X92650000Y-131300000D02*
X96550000Y-131300000D01*
X92650000Y-133300000D02*
X96550000Y-133300000D01*
X107618000Y-133245000D02*
X111518000Y-133245000D01*
X107618000Y-131245000D02*
X111518000Y-131245000D01*
X107618000Y-133245000D02*
X107618000Y-131245000D01*
X137615000Y-133359000D02*
X137615000Y-131359000D01*
X137615000Y-131359000D02*
X141515000Y-131359000D01*
X137615000Y-133359000D02*
X141515000Y-133359000D01*
X92610000Y-148350000D02*
X96510000Y-148350000D01*
X92610000Y-146350000D02*
X96510000Y-146350000D01*
X92610000Y-148350000D02*
X92610000Y-146350000D01*
X122591000Y-133258000D02*
X122591000Y-131258000D01*
X122591000Y-131258000D02*
X126491000Y-131258000D01*
X122591000Y-133258000D02*
X126491000Y-133258000D01*
X86440000Y-64440000D02*
X86860000Y-64440000D01*
X86440000Y-71560000D02*
X86440000Y-71140000D01*
X86440000Y-71140000D02*
X85060000Y-71140000D01*
X93560000Y-71560000D02*
X93140000Y-71560000D01*
X93560000Y-64440000D02*
X93140000Y-64440000D01*
X86440000Y-71560000D02*
X86860000Y-71560000D01*
X86440000Y-64440000D02*
X86440000Y-64860000D01*
X93560000Y-64440000D02*
X93560000Y-64860000D01*
X93560000Y-71560000D02*
X93560000Y-71140000D01*
X68803922Y-110710000D02*
X69321078Y-110710000D01*
X68803922Y-109290000D02*
X69321078Y-109290000D01*
X69091422Y-140710000D02*
X69608578Y-140710000D01*
X69091422Y-139290000D02*
X69608578Y-139290000D01*
X80758578Y-140710000D02*
X80241422Y-140710000D01*
X80758578Y-139290000D02*
X80241422Y-139290000D01*
X123910000Y-129258578D02*
X123910000Y-128741422D01*
X122490000Y-129258578D02*
X122490000Y-128741422D01*
X103103422Y-56790000D02*
X103620578Y-56790000D01*
X103103422Y-58210000D02*
X103620578Y-58210000D01*
X95910000Y-85721078D02*
X95910000Y-85203922D01*
X94490000Y-85721078D02*
X94490000Y-85203922D01*
X92540000Y-85708578D02*
X92540000Y-85191422D01*
X93960000Y-85708578D02*
X93960000Y-85191422D01*
X107490000Y-128741422D02*
X107490000Y-129258578D01*
X108910000Y-128741422D02*
X108910000Y-129258578D01*
X92540000Y-129258578D02*
X92540000Y-128741422D01*
X93960000Y-129258578D02*
X93960000Y-128741422D01*
X138910000Y-129258578D02*
X138910000Y-128741422D01*
X137490000Y-129258578D02*
X137490000Y-128741422D01*
X79303378Y-81126400D02*
X78786222Y-81126400D01*
X79303378Y-79706400D02*
X78786222Y-79706400D01*
X148791422Y-110710000D02*
X149308578Y-110710000D01*
X148791422Y-109290000D02*
X149308578Y-109290000D01*
X160758578Y-110710000D02*
X160241422Y-110710000D01*
X160758578Y-109290000D02*
X160241422Y-109290000D01*
X128741422Y-110710000D02*
X129258578Y-110710000D01*
X128741422Y-109290000D02*
X129258578Y-109290000D01*
X120758578Y-110710000D02*
X120241422Y-110710000D01*
X120758578Y-109290000D02*
X120241422Y-109290000D01*
X108791422Y-110710000D02*
X109308578Y-110710000D01*
X108791422Y-109290000D02*
X109308578Y-109290000D01*
X100708578Y-110710000D02*
X100191422Y-110710000D01*
X100708578Y-109290000D02*
X100191422Y-109290000D01*
X88841422Y-110710000D02*
X89358578Y-110710000D01*
X88841422Y-109290000D02*
X89358578Y-109290000D01*
X140808578Y-110710000D02*
X140291422Y-110710000D01*
X140808578Y-109290000D02*
X140291422Y-109290000D01*
X80808578Y-109290000D02*
X80291422Y-109290000D01*
X80808578Y-110710000D02*
X80291422Y-110710000D01*
D13*
G36*
X102554662Y-152581930D02*
G01*
X103012018Y-152594689D01*
X103224517Y-152598261D01*
X103360318Y-152593929D01*
X103431597Y-152580450D01*
X103450528Y-152556584D01*
X103448990Y-152550128D01*
X103425881Y-152483811D01*
X103381870Y-152356487D01*
X103324997Y-152191437D01*
X103302204Y-152125176D01*
X103175803Y-151757544D01*
X102257334Y-151757544D01*
X102554662Y-152581930D01*
X102554662Y-152581930D01*
G37*
X102554662Y-152581930D02*
X103012018Y-152594689D01*
X103224517Y-152598261D01*
X103360318Y-152593929D01*
X103431597Y-152580450D01*
X103450528Y-152556584D01*
X103448990Y-152550128D01*
X103425881Y-152483811D01*
X103381870Y-152356487D01*
X103324997Y-152191437D01*
X103302204Y-152125176D01*
X103175803Y-151757544D01*
X102257334Y-151757544D01*
X102554662Y-152581930D01*
G36*
X106541564Y-150379069D02*
G01*
X106385645Y-150464784D01*
X106332945Y-150523150D01*
X106292017Y-150601679D01*
X106272857Y-150698536D01*
X106277342Y-150824868D01*
X106307347Y-150991822D01*
X106364748Y-151210545D01*
X106451421Y-151492183D01*
X106542538Y-151768621D01*
X106822982Y-152604083D01*
X107235175Y-152604147D01*
X107414453Y-152600832D01*
X107554318Y-152591883D01*
X107635159Y-152578885D01*
X107647368Y-152570833D01*
X107633936Y-152519213D01*
X107596826Y-152398197D01*
X107540825Y-152222847D01*
X107470714Y-152008223D01*
X107421681Y-151860304D01*
X107334733Y-151594133D01*
X107275786Y-151398731D01*
X107241894Y-151261291D01*
X107230115Y-151169003D01*
X107237504Y-151109060D01*
X107245003Y-151091576D01*
X107330195Y-151014297D01*
X107454819Y-151003289D01*
X107600606Y-151056899D01*
X107707054Y-151133378D01*
X107771595Y-151199332D01*
X107830794Y-151284848D01*
X107891745Y-151404672D01*
X107961541Y-151573553D01*
X108047277Y-151806239D01*
X108092875Y-151935484D01*
X108326788Y-152604211D01*
X108747625Y-152604211D01*
X108942743Y-152603424D01*
X109064203Y-152598409D01*
X109127469Y-152585181D01*
X109148003Y-152559758D01*
X109141271Y-152518157D01*
X109136884Y-152503948D01*
X109113814Y-152434495D01*
X109066192Y-152293939D01*
X108998508Y-152095432D01*
X108915252Y-151852129D01*
X108820915Y-151577183D01*
X108760365Y-151401053D01*
X108415424Y-150398421D01*
X108026111Y-150385469D01*
X107636797Y-150372517D01*
X107664173Y-150481592D01*
X107698103Y-150602285D01*
X107721156Y-150672790D01*
X107733177Y-150721174D01*
X107705289Y-150711603D01*
X107643364Y-150658776D01*
X107440116Y-150514615D01*
X107210290Y-150412698D01*
X106971908Y-150354891D01*
X106742992Y-150343060D01*
X106541564Y-150379069D01*
X106541564Y-150379069D01*
G37*
X106541564Y-150379069D02*
X106385645Y-150464784D01*
X106332945Y-150523150D01*
X106292017Y-150601679D01*
X106272857Y-150698536D01*
X106277342Y-150824868D01*
X106307347Y-150991822D01*
X106364748Y-151210545D01*
X106451421Y-151492183D01*
X106542538Y-151768621D01*
X106822982Y-152604083D01*
X107235175Y-152604147D01*
X107414453Y-152600832D01*
X107554318Y-152591883D01*
X107635159Y-152578885D01*
X107647368Y-152570833D01*
X107633936Y-152519213D01*
X107596826Y-152398197D01*
X107540825Y-152222847D01*
X107470714Y-152008223D01*
X107421681Y-151860304D01*
X107334733Y-151594133D01*
X107275786Y-151398731D01*
X107241894Y-151261291D01*
X107230115Y-151169003D01*
X107237504Y-151109060D01*
X107245003Y-151091576D01*
X107330195Y-151014297D01*
X107454819Y-151003289D01*
X107600606Y-151056899D01*
X107707054Y-151133378D01*
X107771595Y-151199332D01*
X107830794Y-151284848D01*
X107891745Y-151404672D01*
X107961541Y-151573553D01*
X108047277Y-151806239D01*
X108092875Y-151935484D01*
X108326788Y-152604211D01*
X108747625Y-152604211D01*
X108942743Y-152603424D01*
X109064203Y-152598409D01*
X109127469Y-152585181D01*
X109148003Y-152559758D01*
X109141271Y-152518157D01*
X109136884Y-152503948D01*
X109113814Y-152434495D01*
X109066192Y-152293939D01*
X108998508Y-152095432D01*
X108915252Y-151852129D01*
X108820915Y-151577183D01*
X108760365Y-151401053D01*
X108415424Y-150398421D01*
X108026111Y-150385469D01*
X107636797Y-150372517D01*
X107664173Y-150481592D01*
X107698103Y-150602285D01*
X107721156Y-150672790D01*
X107733177Y-150721174D01*
X107705289Y-150711603D01*
X107643364Y-150658776D01*
X107440116Y-150514615D01*
X107210290Y-150412698D01*
X106971908Y-150354891D01*
X106742992Y-150343060D01*
X106541564Y-150379069D01*
G36*
X109032704Y-149532974D02*
G01*
X108880259Y-149542433D01*
X108784659Y-149556287D01*
X108761404Y-149568480D01*
X108775312Y-149618346D01*
X108814860Y-149742681D01*
X108876780Y-149931648D01*
X108957805Y-150175413D01*
X109054668Y-150464138D01*
X109164101Y-150787989D01*
X109268372Y-151094708D01*
X109775340Y-152581930D01*
X110254090Y-152594633D01*
X110472480Y-152598194D01*
X110613957Y-152594262D01*
X110690505Y-152581671D01*
X110714107Y-152559255D01*
X110712526Y-152550071D01*
X110693878Y-152495766D01*
X110649985Y-152367101D01*
X110584261Y-152174107D01*
X110500120Y-151926814D01*
X110400974Y-151635254D01*
X110290236Y-151309456D01*
X110188878Y-151011141D01*
X109685542Y-149529474D01*
X109223473Y-149529474D01*
X109032704Y-149532974D01*
X109032704Y-149532974D01*
G37*
X109032704Y-149532974D02*
X108880259Y-149542433D01*
X108784659Y-149556287D01*
X108761404Y-149568480D01*
X108775312Y-149618346D01*
X108814860Y-149742681D01*
X108876780Y-149931648D01*
X108957805Y-150175413D01*
X109054668Y-150464138D01*
X109164101Y-150787989D01*
X109268372Y-151094708D01*
X109775340Y-152581930D01*
X110254090Y-152594633D01*
X110472480Y-152598194D01*
X110613957Y-152594262D01*
X110690505Y-152581671D01*
X110714107Y-152559255D01*
X110712526Y-152550071D01*
X110693878Y-152495766D01*
X110649985Y-152367101D01*
X110584261Y-152174107D01*
X110500120Y-151926814D01*
X110400974Y-151635254D01*
X110290236Y-151309456D01*
X110188878Y-151011141D01*
X109685542Y-149529474D01*
X109223473Y-149529474D01*
X109032704Y-149532974D01*
G36*
X117327686Y-149536126D02*
G01*
X117262068Y-149547012D01*
X117240532Y-149569405D01*
X117248091Y-149605778D01*
X117269300Y-149665617D01*
X117315585Y-149799543D01*
X117383417Y-149997237D01*
X117469267Y-150248377D01*
X117569605Y-150542643D01*
X117680904Y-150869715D01*
X117774366Y-151144825D01*
X118269796Y-152604211D01*
X118684722Y-152604211D01*
X118864579Y-152600885D01*
X119005017Y-152591958D01*
X119086523Y-152579003D01*
X119099162Y-152570790D01*
X119085199Y-152522247D01*
X119045709Y-152399131D01*
X118983942Y-152211218D01*
X118903148Y-151968284D01*
X118806576Y-151680103D01*
X118697476Y-151356454D01*
X118591817Y-151044562D01*
X118084958Y-149551755D01*
X117651102Y-149538935D01*
X117452370Y-149534262D01*
X117327686Y-149536126D01*
X117327686Y-149536126D01*
G37*
X117327686Y-149536126D02*
X117262068Y-149547012D01*
X117240532Y-149569405D01*
X117248091Y-149605778D01*
X117269300Y-149665617D01*
X117315585Y-149799543D01*
X117383417Y-149997237D01*
X117469267Y-150248377D01*
X117569605Y-150542643D01*
X117680904Y-150869715D01*
X117774366Y-151144825D01*
X118269796Y-152604211D01*
X118684722Y-152604211D01*
X118864579Y-152600885D01*
X119005017Y-152591958D01*
X119086523Y-152579003D01*
X119099162Y-152570790D01*
X119085199Y-152522247D01*
X119045709Y-152399131D01*
X118983942Y-152211218D01*
X118903148Y-151968284D01*
X118806576Y-151680103D01*
X118697476Y-151356454D01*
X118591817Y-151044562D01*
X118084958Y-149551755D01*
X117651102Y-149538935D01*
X117452370Y-149534262D01*
X117327686Y-149536126D01*
G36*
X118588535Y-149502021D02*
G01*
X118426128Y-149512410D01*
X118310203Y-149528506D01*
X118267487Y-149544677D01*
X118275737Y-149591083D01*
X118315846Y-149693457D01*
X118371550Y-149813815D01*
X118494355Y-150064211D01*
X118704645Y-150064211D01*
X118847779Y-150073854D01*
X118939547Y-150112238D01*
X119007292Y-150181624D01*
X119080266Y-150287690D01*
X119084038Y-150346839D01*
X119011649Y-150371933D01*
X118902051Y-150376141D01*
X118704452Y-150376141D01*
X118805685Y-150676930D01*
X118906918Y-150977720D01*
X119110622Y-150991136D01*
X119314325Y-151004551D01*
X119535095Y-151637276D01*
X119617608Y-151874557D01*
X119693932Y-152095489D01*
X119757160Y-152279982D01*
X119800388Y-152407945D01*
X119809984Y-152437106D01*
X119864105Y-152604211D01*
X120283982Y-152604211D01*
X120465087Y-152602965D01*
X120606953Y-152599618D01*
X120690144Y-152594757D01*
X120703860Y-152591552D01*
X120690331Y-152546402D01*
X120653477Y-152433496D01*
X120598898Y-152269379D01*
X120532193Y-152070594D01*
X120458961Y-151853684D01*
X120384802Y-151635194D01*
X120315314Y-151431666D01*
X120256097Y-151259645D01*
X120212751Y-151135674D01*
X120191581Y-151077983D01*
X120183785Y-151026574D01*
X120230035Y-151004268D01*
X120325088Y-151000000D01*
X120438878Y-150988835D01*
X120471757Y-150953909D01*
X120469272Y-150944299D01*
X120445032Y-150873786D01*
X120404235Y-150748619D01*
X120367244Y-150632369D01*
X120319761Y-150490502D01*
X120278785Y-150413916D01*
X120225280Y-150382507D01*
X120140210Y-150376171D01*
X120124623Y-150376141D01*
X120031598Y-150370596D01*
X119970809Y-150340730D01*
X119920807Y-150266698D01*
X119862018Y-150133189D01*
X119722567Y-149889150D01*
X119533230Y-149691089D01*
X119312982Y-149557070D01*
X119224719Y-149526579D01*
X119115514Y-149509618D01*
X118957140Y-149500173D01*
X118773510Y-149497791D01*
X118588535Y-149502021D01*
X118588535Y-149502021D01*
G37*
X118588535Y-149502021D02*
X118426128Y-149512410D01*
X118310203Y-149528506D01*
X118267487Y-149544677D01*
X118275737Y-149591083D01*
X118315846Y-149693457D01*
X118371550Y-149813815D01*
X118494355Y-150064211D01*
X118704645Y-150064211D01*
X118847779Y-150073854D01*
X118939547Y-150112238D01*
X119007292Y-150181624D01*
X119080266Y-150287690D01*
X119084038Y-150346839D01*
X119011649Y-150371933D01*
X118902051Y-150376141D01*
X118704452Y-150376141D01*
X118805685Y-150676930D01*
X118906918Y-150977720D01*
X119110622Y-150991136D01*
X119314325Y-151004551D01*
X119535095Y-151637276D01*
X119617608Y-151874557D01*
X119693932Y-152095489D01*
X119757160Y-152279982D01*
X119800388Y-152407945D01*
X119809984Y-152437106D01*
X119864105Y-152604211D01*
X120283982Y-152604211D01*
X120465087Y-152602965D01*
X120606953Y-152599618D01*
X120690144Y-152594757D01*
X120703860Y-152591552D01*
X120690331Y-152546402D01*
X120653477Y-152433496D01*
X120598898Y-152269379D01*
X120532193Y-152070594D01*
X120458961Y-151853684D01*
X120384802Y-151635194D01*
X120315314Y-151431666D01*
X120256097Y-151259645D01*
X120212751Y-151135674D01*
X120191581Y-151077983D01*
X120183785Y-151026574D01*
X120230035Y-151004268D01*
X120325088Y-151000000D01*
X120438878Y-150988835D01*
X120471757Y-150953909D01*
X120469272Y-150944299D01*
X120445032Y-150873786D01*
X120404235Y-150748619D01*
X120367244Y-150632369D01*
X120319761Y-150490502D01*
X120278785Y-150413916D01*
X120225280Y-150382507D01*
X120140210Y-150376171D01*
X120124623Y-150376141D01*
X120031598Y-150370596D01*
X119970809Y-150340730D01*
X119920807Y-150266698D01*
X119862018Y-150133189D01*
X119722567Y-149889150D01*
X119533230Y-149691089D01*
X119312982Y-149557070D01*
X119224719Y-149526579D01*
X119115514Y-149509618D01*
X118957140Y-149500173D01*
X118773510Y-149497791D01*
X118588535Y-149502021D01*
G36*
X120237306Y-149502021D02*
G01*
X120074900Y-149512410D01*
X119958975Y-149528506D01*
X119916259Y-149544677D01*
X119924509Y-149591083D01*
X119964618Y-149693457D01*
X120020322Y-149813815D01*
X120143127Y-150064211D01*
X120353417Y-150064211D01*
X120496551Y-150073854D01*
X120588319Y-150112238D01*
X120656064Y-150181624D01*
X120729038Y-150287690D01*
X120732810Y-150346839D01*
X120660421Y-150371933D01*
X120550823Y-150376141D01*
X120353224Y-150376141D01*
X120454457Y-150676930D01*
X120555690Y-150977720D01*
X120759393Y-150991136D01*
X120963097Y-151004551D01*
X121183867Y-151637276D01*
X121266380Y-151874557D01*
X121342704Y-152095489D01*
X121405932Y-152279982D01*
X121449160Y-152407945D01*
X121458756Y-152437106D01*
X121512877Y-152604211D01*
X121932754Y-152604211D01*
X122113859Y-152602965D01*
X122255724Y-152599618D01*
X122338916Y-152594757D01*
X122352632Y-152591552D01*
X122339103Y-152546402D01*
X122302249Y-152433496D01*
X122247670Y-152269379D01*
X122180965Y-152070594D01*
X122107733Y-151853684D01*
X122033573Y-151635194D01*
X121964086Y-151431666D01*
X121904869Y-151259645D01*
X121861523Y-151135674D01*
X121840353Y-151077983D01*
X121832557Y-151026574D01*
X121878807Y-151004268D01*
X121973860Y-151000000D01*
X122087650Y-150988835D01*
X122120529Y-150953909D01*
X122118044Y-150944299D01*
X122093804Y-150873786D01*
X122053007Y-150748619D01*
X122016016Y-150632369D01*
X121968533Y-150490502D01*
X121927557Y-150413916D01*
X121874052Y-150382507D01*
X121788982Y-150376171D01*
X121773395Y-150376141D01*
X121680370Y-150370596D01*
X121619581Y-150340730D01*
X121569579Y-150266698D01*
X121510790Y-150133189D01*
X121371339Y-149889150D01*
X121182002Y-149691089D01*
X120961754Y-149557070D01*
X120873490Y-149526579D01*
X120764286Y-149509618D01*
X120605912Y-149500173D01*
X120422281Y-149497791D01*
X120237306Y-149502021D01*
X120237306Y-149502021D01*
G37*
X120237306Y-149502021D02*
X120074900Y-149512410D01*
X119958975Y-149528506D01*
X119916259Y-149544677D01*
X119924509Y-149591083D01*
X119964618Y-149693457D01*
X120020322Y-149813815D01*
X120143127Y-150064211D01*
X120353417Y-150064211D01*
X120496551Y-150073854D01*
X120588319Y-150112238D01*
X120656064Y-150181624D01*
X120729038Y-150287690D01*
X120732810Y-150346839D01*
X120660421Y-150371933D01*
X120550823Y-150376141D01*
X120353224Y-150376141D01*
X120454457Y-150676930D01*
X120555690Y-150977720D01*
X120759393Y-150991136D01*
X120963097Y-151004551D01*
X121183867Y-151637276D01*
X121266380Y-151874557D01*
X121342704Y-152095489D01*
X121405932Y-152279982D01*
X121449160Y-152407945D01*
X121458756Y-152437106D01*
X121512877Y-152604211D01*
X121932754Y-152604211D01*
X122113859Y-152602965D01*
X122255724Y-152599618D01*
X122338916Y-152594757D01*
X122352632Y-152591552D01*
X122339103Y-152546402D01*
X122302249Y-152433496D01*
X122247670Y-152269379D01*
X122180965Y-152070594D01*
X122107733Y-151853684D01*
X122033573Y-151635194D01*
X121964086Y-151431666D01*
X121904869Y-151259645D01*
X121861523Y-151135674D01*
X121840353Y-151077983D01*
X121832557Y-151026574D01*
X121878807Y-151004268D01*
X121973860Y-151000000D01*
X122087650Y-150988835D01*
X122120529Y-150953909D01*
X122118044Y-150944299D01*
X122093804Y-150873786D01*
X122053007Y-150748619D01*
X122016016Y-150632369D01*
X121968533Y-150490502D01*
X121927557Y-150413916D01*
X121874052Y-150382507D01*
X121788982Y-150376171D01*
X121773395Y-150376141D01*
X121680370Y-150370596D01*
X121619581Y-150340730D01*
X121569579Y-150266698D01*
X121510790Y-150133189D01*
X121371339Y-149889150D01*
X121182002Y-149691089D01*
X120961754Y-149557070D01*
X120873490Y-149526579D01*
X120764286Y-149509618D01*
X120605912Y-149500173D01*
X120422281Y-149497791D01*
X120237306Y-149502021D01*
G36*
X125834870Y-149545104D02*
G01*
X125563969Y-149565293D01*
X125357509Y-149600953D01*
X125207350Y-149654947D01*
X125105354Y-149730141D01*
X125043383Y-149829399D01*
X125013296Y-149955586D01*
X125006814Y-150101329D01*
X125052871Y-150388696D01*
X125178930Y-150653899D01*
X125376560Y-150885817D01*
X125637327Y-151073326D01*
X125804578Y-151153487D01*
X125942058Y-151211709D01*
X126007615Y-151249588D01*
X126012767Y-151278101D01*
X125969028Y-151308224D01*
X125967681Y-151308946D01*
X125876923Y-151375635D01*
X125804475Y-151476256D01*
X125744026Y-151625438D01*
X125689263Y-151837805D01*
X125647452Y-152051077D01*
X125612354Y-152248919D01*
X125584114Y-152414208D01*
X125566019Y-152527322D01*
X125561053Y-152567199D01*
X125602718Y-152581582D01*
X125716152Y-152593357D01*
X125884011Y-152601306D01*
X126088141Y-152604211D01*
X126615228Y-152604211D01*
X126732869Y-152036488D01*
X126790521Y-151774875D01*
X126842132Y-151589091D01*
X126894438Y-151466761D01*
X126954181Y-151395512D01*
X127028100Y-151362971D01*
X127103243Y-151356492D01*
X127144832Y-151364825D01*
X127183188Y-151398128D01*
X127224444Y-151468859D01*
X127274732Y-151589474D01*
X127340184Y-151772431D01*
X127410351Y-151980351D01*
X127618268Y-152604211D01*
X128082467Y-152604211D01*
X128273714Y-152600964D01*
X128426679Y-152592186D01*
X128522882Y-152579326D01*
X128546667Y-152567866D01*
X128532773Y-152518637D01*
X128493265Y-152394897D01*
X128431404Y-152206453D01*
X128350449Y-151963109D01*
X128253661Y-151674671D01*
X128144300Y-151350945D01*
X128039220Y-151041638D01*
X127930181Y-150721492D01*
X126975237Y-150721492D01*
X126948186Y-150751810D01*
X126854803Y-150771352D01*
X126717346Y-150779089D01*
X126558069Y-150773993D01*
X126399231Y-150755037D01*
X126369361Y-150749469D01*
X126225018Y-150691868D01*
X126109686Y-150594075D01*
X126032980Y-150475221D01*
X126004519Y-150354435D01*
X126033919Y-150250849D01*
X126092860Y-150199463D01*
X126180219Y-150175899D01*
X126324586Y-150159273D01*
X126485775Y-150153334D01*
X126792496Y-150153334D01*
X126873209Y-150409562D01*
X126920015Y-150556259D01*
X126958046Y-150672091D01*
X126975237Y-150721492D01*
X127930181Y-150721492D01*
X127531774Y-149551755D01*
X126602549Y-149539678D01*
X126178350Y-149537520D01*
X125834870Y-149545104D01*
X125834870Y-149545104D01*
G37*
X125834870Y-149545104D02*
X125563969Y-149565293D01*
X125357509Y-149600953D01*
X125207350Y-149654947D01*
X125105354Y-149730141D01*
X125043383Y-149829399D01*
X125013296Y-149955586D01*
X125006814Y-150101329D01*
X125052871Y-150388696D01*
X125178930Y-150653899D01*
X125376560Y-150885817D01*
X125637327Y-151073326D01*
X125804578Y-151153487D01*
X125942058Y-151211709D01*
X126007615Y-151249588D01*
X126012767Y-151278101D01*
X125969028Y-151308224D01*
X125967681Y-151308946D01*
X125876923Y-151375635D01*
X125804475Y-151476256D01*
X125744026Y-151625438D01*
X125689263Y-151837805D01*
X125647452Y-152051077D01*
X125612354Y-152248919D01*
X125584114Y-152414208D01*
X125566019Y-152527322D01*
X125561053Y-152567199D01*
X125602718Y-152581582D01*
X125716152Y-152593357D01*
X125884011Y-152601306D01*
X126088141Y-152604211D01*
X126615228Y-152604211D01*
X126732869Y-152036488D01*
X126790521Y-151774875D01*
X126842132Y-151589091D01*
X126894438Y-151466761D01*
X126954181Y-151395512D01*
X127028100Y-151362971D01*
X127103243Y-151356492D01*
X127144832Y-151364825D01*
X127183188Y-151398128D01*
X127224444Y-151468859D01*
X127274732Y-151589474D01*
X127340184Y-151772431D01*
X127410351Y-151980351D01*
X127618268Y-152604211D01*
X128082467Y-152604211D01*
X128273714Y-152600964D01*
X128426679Y-152592186D01*
X128522882Y-152579326D01*
X128546667Y-152567866D01*
X128532773Y-152518637D01*
X128493265Y-152394897D01*
X128431404Y-152206453D01*
X128350449Y-151963109D01*
X128253661Y-151674671D01*
X128144300Y-151350945D01*
X128039220Y-151041638D01*
X127930181Y-150721492D01*
X126975237Y-150721492D01*
X126948186Y-150751810D01*
X126854803Y-150771352D01*
X126717346Y-150779089D01*
X126558069Y-150773993D01*
X126399231Y-150755037D01*
X126369361Y-150749469D01*
X126225018Y-150691868D01*
X126109686Y-150594075D01*
X126032980Y-150475221D01*
X126004519Y-150354435D01*
X126033919Y-150250849D01*
X126092860Y-150199463D01*
X126180219Y-150175899D01*
X126324586Y-150159273D01*
X126485775Y-150153334D01*
X126792496Y-150153334D01*
X126873209Y-150409562D01*
X126920015Y-150556259D01*
X126958046Y-150672091D01*
X126975237Y-150721492D01*
X127930181Y-150721492D01*
X127531774Y-149551755D01*
X126602549Y-149539678D01*
X126178350Y-149537520D01*
X125834870Y-149545104D01*
G36*
X104241074Y-150341137D02*
G01*
X103927156Y-150386940D01*
X103686656Y-150480590D01*
X103516528Y-150624154D01*
X103413726Y-150819696D01*
X103389812Y-150918279D01*
X103360958Y-151081646D01*
X103621444Y-151109938D01*
X103799479Y-151130307D01*
X103970253Y-151151496D01*
X104049035Y-151162155D01*
X104162225Y-151170170D01*
X104210234Y-151147051D01*
X104216140Y-151118504D01*
X104253962Y-151012140D01*
X104353569Y-150942863D01*
X104494175Y-150914221D01*
X104654993Y-150929765D01*
X104815236Y-150993045D01*
X104844550Y-151011187D01*
X104975641Y-151136377D01*
X105096613Y-151317128D01*
X105189928Y-151520188D01*
X105238050Y-151712306D01*
X105241053Y-151763008D01*
X105206622Y-151914185D01*
X105114554Y-152015124D01*
X104981683Y-152064545D01*
X104824843Y-152061167D01*
X104660868Y-152003710D01*
X104506592Y-151890892D01*
X104446190Y-151823473D01*
X104399086Y-151768074D01*
X104351038Y-151736977D01*
X104279949Y-151726887D01*
X104163721Y-151734508D01*
X103989579Y-151755375D01*
X103819399Y-151778259D01*
X103687021Y-151798972D01*
X103614221Y-151813999D01*
X103606989Y-151817105D01*
X103621586Y-151859290D01*
X103681500Y-151944792D01*
X103769718Y-152053227D01*
X103869227Y-152164207D01*
X103963016Y-152257347D01*
X104002135Y-152290613D01*
X104314902Y-152477835D01*
X104677571Y-152592043D01*
X105012914Y-152630761D01*
X105213830Y-152632568D01*
X105402669Y-152624198D01*
X105545154Y-152607405D01*
X105568759Y-152602287D01*
X105809485Y-152503514D01*
X105986706Y-152349205D01*
X106093672Y-152148583D01*
X106123637Y-151910874D01*
X106118746Y-151850381D01*
X106034608Y-151489436D01*
X105876292Y-151152013D01*
X105687503Y-150897995D01*
X105394334Y-150637914D01*
X105063333Y-150458239D01*
X104693615Y-150358631D01*
X104284297Y-150338748D01*
X104241074Y-150341137D01*
X104241074Y-150341137D01*
G37*
X104241074Y-150341137D02*
X103927156Y-150386940D01*
X103686656Y-150480590D01*
X103516528Y-150624154D01*
X103413726Y-150819696D01*
X103389812Y-150918279D01*
X103360958Y-151081646D01*
X103621444Y-151109938D01*
X103799479Y-151130307D01*
X103970253Y-151151496D01*
X104049035Y-151162155D01*
X104162225Y-151170170D01*
X104210234Y-151147051D01*
X104216140Y-151118504D01*
X104253962Y-151012140D01*
X104353569Y-150942863D01*
X104494175Y-150914221D01*
X104654993Y-150929765D01*
X104815236Y-150993045D01*
X104844550Y-151011187D01*
X104975641Y-151136377D01*
X105096613Y-151317128D01*
X105189928Y-151520188D01*
X105238050Y-151712306D01*
X105241053Y-151763008D01*
X105206622Y-151914185D01*
X105114554Y-152015124D01*
X104981683Y-152064545D01*
X104824843Y-152061167D01*
X104660868Y-152003710D01*
X104506592Y-151890892D01*
X104446190Y-151823473D01*
X104399086Y-151768074D01*
X104351038Y-151736977D01*
X104279949Y-151726887D01*
X104163721Y-151734508D01*
X103989579Y-151755375D01*
X103819399Y-151778259D01*
X103687021Y-151798972D01*
X103614221Y-151813999D01*
X103606989Y-151817105D01*
X103621586Y-151859290D01*
X103681500Y-151944792D01*
X103769718Y-152053227D01*
X103869227Y-152164207D01*
X103963016Y-152257347D01*
X104002135Y-152290613D01*
X104314902Y-152477835D01*
X104677571Y-152592043D01*
X105012914Y-152630761D01*
X105213830Y-152632568D01*
X105402669Y-152624198D01*
X105545154Y-152607405D01*
X105568759Y-152602287D01*
X105809485Y-152503514D01*
X105986706Y-152349205D01*
X106093672Y-152148583D01*
X106123637Y-151910874D01*
X106118746Y-151850381D01*
X106034608Y-151489436D01*
X105876292Y-151152013D01*
X105687503Y-150897995D01*
X105394334Y-150637914D01*
X105063333Y-150458239D01*
X104693615Y-150358631D01*
X104284297Y-150338748D01*
X104241074Y-150341137D01*
G36*
X112835171Y-150349232D02*
G01*
X112615876Y-150379038D01*
X112450626Y-150425268D01*
X112423069Y-150438106D01*
X112307192Y-150533203D01*
X112209037Y-150671289D01*
X112153134Y-150814579D01*
X112148070Y-150861678D01*
X112188388Y-150889014D01*
X112292818Y-150915858D01*
X112404298Y-150932225D01*
X112581663Y-150952500D01*
X112752027Y-150973663D01*
X112827632Y-150983909D01*
X112940346Y-150992085D01*
X112988356Y-150969346D01*
X112994737Y-150938643D01*
X113033047Y-150855847D01*
X113130275Y-150801895D01*
X113259869Y-150780379D01*
X113395277Y-150794889D01*
X113509947Y-150849016D01*
X113529474Y-150866316D01*
X113599565Y-150953254D01*
X113609032Y-151021180D01*
X113551212Y-151075310D01*
X113419438Y-151120860D01*
X113207048Y-151163044D01*
X113135746Y-151174421D01*
X112950418Y-151208373D01*
X112779373Y-151248860D01*
X112660177Y-151286923D01*
X112495550Y-151392259D01*
X112402593Y-151532258D01*
X112376206Y-151696317D01*
X112411288Y-151873834D01*
X112502739Y-152054206D01*
X112645458Y-152226829D01*
X112834344Y-152381101D01*
X113064297Y-152506418D01*
X113282608Y-152580824D01*
X113528394Y-152623437D01*
X113812517Y-152641726D01*
X114094580Y-152634969D01*
X114334190Y-152602440D01*
X114345381Y-152599878D01*
X114533163Y-152543109D01*
X114655377Y-152469362D01*
X114735575Y-152362256D01*
X114758685Y-152312406D01*
X114815166Y-152153044D01*
X114817514Y-152053071D01*
X114758830Y-151996302D01*
X114632214Y-151966549D01*
X114610088Y-151963784D01*
X114431052Y-151942605D01*
X114232236Y-151918955D01*
X114164474Y-151910860D01*
X114028164Y-151897815D01*
X113958228Y-151904559D01*
X113933087Y-151936477D01*
X113930526Y-151969263D01*
X113892876Y-152085149D01*
X113794823Y-152163357D01*
X113658718Y-152199302D01*
X113506909Y-152188399D01*
X113361746Y-152126062D01*
X113320292Y-152094455D01*
X113238077Y-151999906D01*
X113232049Y-151920812D01*
X113305704Y-151853240D01*
X113462540Y-151793258D01*
X113623217Y-151753781D01*
X113891173Y-151692183D01*
X114084867Y-151636406D01*
X114218432Y-151580879D01*
X114305997Y-151520033D01*
X114350210Y-151467212D01*
X114416462Y-151292315D01*
X114406336Y-151103453D01*
X114328711Y-150912633D01*
X114192464Y-150731861D01*
X114006472Y-150573144D01*
X113779613Y-150448487D01*
X113541972Y-150374110D01*
X113325755Y-150345193D01*
X113080976Y-150337425D01*
X112835171Y-150349232D01*
X112835171Y-150349232D01*
G37*
X112835171Y-150349232D02*
X112615876Y-150379038D01*
X112450626Y-150425268D01*
X112423069Y-150438106D01*
X112307192Y-150533203D01*
X112209037Y-150671289D01*
X112153134Y-150814579D01*
X112148070Y-150861678D01*
X112188388Y-150889014D01*
X112292818Y-150915858D01*
X112404298Y-150932225D01*
X112581663Y-150952500D01*
X112752027Y-150973663D01*
X112827632Y-150983909D01*
X112940346Y-150992085D01*
X112988356Y-150969346D01*
X112994737Y-150938643D01*
X113033047Y-150855847D01*
X113130275Y-150801895D01*
X113259869Y-150780379D01*
X113395277Y-150794889D01*
X113509947Y-150849016D01*
X113529474Y-150866316D01*
X113599565Y-150953254D01*
X113609032Y-151021180D01*
X113551212Y-151075310D01*
X113419438Y-151120860D01*
X113207048Y-151163044D01*
X113135746Y-151174421D01*
X112950418Y-151208373D01*
X112779373Y-151248860D01*
X112660177Y-151286923D01*
X112495550Y-151392259D01*
X112402593Y-151532258D01*
X112376206Y-151696317D01*
X112411288Y-151873834D01*
X112502739Y-152054206D01*
X112645458Y-152226829D01*
X112834344Y-152381101D01*
X113064297Y-152506418D01*
X113282608Y-152580824D01*
X113528394Y-152623437D01*
X113812517Y-152641726D01*
X114094580Y-152634969D01*
X114334190Y-152602440D01*
X114345381Y-152599878D01*
X114533163Y-152543109D01*
X114655377Y-152469362D01*
X114735575Y-152362256D01*
X114758685Y-152312406D01*
X114815166Y-152153044D01*
X114817514Y-152053071D01*
X114758830Y-151996302D01*
X114632214Y-151966549D01*
X114610088Y-151963784D01*
X114431052Y-151942605D01*
X114232236Y-151918955D01*
X114164474Y-151910860D01*
X114028164Y-151897815D01*
X113958228Y-151904559D01*
X113933087Y-151936477D01*
X113930526Y-151969263D01*
X113892876Y-152085149D01*
X113794823Y-152163357D01*
X113658718Y-152199302D01*
X113506909Y-152188399D01*
X113361746Y-152126062D01*
X113320292Y-152094455D01*
X113238077Y-151999906D01*
X113232049Y-151920812D01*
X113305704Y-151853240D01*
X113462540Y-151793258D01*
X113623217Y-151753781D01*
X113891173Y-151692183D01*
X114084867Y-151636406D01*
X114218432Y-151580879D01*
X114305997Y-151520033D01*
X114350210Y-151467212D01*
X114416462Y-151292315D01*
X114406336Y-151103453D01*
X114328711Y-150912633D01*
X114192464Y-150731861D01*
X114006472Y-150573144D01*
X113779613Y-150448487D01*
X113541972Y-150374110D01*
X113325755Y-150345193D01*
X113080976Y-150337425D01*
X112835171Y-150349232D01*
G36*
X115443507Y-150371454D02*
G01*
X115228938Y-150422103D01*
X115187182Y-150438953D01*
X115003250Y-150552409D01*
X114887848Y-150702703D01*
X114834176Y-150902971D01*
X114832164Y-151124611D01*
X114850287Y-151299396D01*
X114877193Y-151455133D01*
X114902815Y-151545878D01*
X114953233Y-151668421D01*
X116648772Y-151668421D01*
X116648772Y-151795199D01*
X116613526Y-151938624D01*
X116516626Y-152029693D01*
X116371330Y-152064330D01*
X116190896Y-152038462D01*
X116046866Y-151980185D01*
X115948355Y-151935709D01*
X115855750Y-151913896D01*
X115740265Y-151912301D01*
X115573112Y-151928479D01*
X115517926Y-151935258D01*
X115350209Y-151958358D01*
X115219884Y-151980194D01*
X115149550Y-151996861D01*
X115143841Y-151999902D01*
X115155603Y-152044291D01*
X115226866Y-152121390D01*
X115340818Y-152217873D01*
X115480646Y-152320416D01*
X115629539Y-152415695D01*
X115751238Y-152481291D01*
X115911262Y-152551347D01*
X116055917Y-152594649D01*
X116219804Y-152618707D01*
X116437523Y-152631030D01*
X116441939Y-152631183D01*
X116642354Y-152633512D01*
X116825280Y-152627599D01*
X116960629Y-152614692D01*
X116993007Y-152608297D01*
X117214054Y-152517076D01*
X117374131Y-152366787D01*
X117459943Y-152215323D01*
X117519998Y-151974686D01*
X117507050Y-151710381D01*
X117428882Y-151436377D01*
X117293277Y-151166643D01*
X117286372Y-151157269D01*
X116456976Y-151157269D01*
X116430738Y-151195066D01*
X116326267Y-151215323D01*
X116138902Y-151222522D01*
X116073187Y-151222807D01*
X115882273Y-151221905D01*
X115763412Y-151216111D01*
X115699534Y-151200792D01*
X115673569Y-151171318D01*
X115668447Y-151123055D01*
X115668421Y-151112972D01*
X115706061Y-151006489D01*
X115805193Y-150937874D01*
X115945131Y-150910496D01*
X116105191Y-150927725D01*
X116264689Y-150992932D01*
X116293396Y-151011141D01*
X116409642Y-151097454D01*
X116456976Y-151157269D01*
X117286372Y-151157269D01*
X117108016Y-150915150D01*
X116880882Y-150695867D01*
X116619658Y-150522764D01*
X116481518Y-150459013D01*
X116253833Y-150394511D01*
X115985343Y-150358113D01*
X115705439Y-150350275D01*
X115443507Y-150371454D01*
X115443507Y-150371454D01*
G37*
X115443507Y-150371454D02*
X115228938Y-150422103D01*
X115187182Y-150438953D01*
X115003250Y-150552409D01*
X114887848Y-150702703D01*
X114834176Y-150902971D01*
X114832164Y-151124611D01*
X114850287Y-151299396D01*
X114877193Y-151455133D01*
X114902815Y-151545878D01*
X114953233Y-151668421D01*
X116648772Y-151668421D01*
X116648772Y-151795199D01*
X116613526Y-151938624D01*
X116516626Y-152029693D01*
X116371330Y-152064330D01*
X116190896Y-152038462D01*
X116046866Y-151980185D01*
X115948355Y-151935709D01*
X115855750Y-151913896D01*
X115740265Y-151912301D01*
X115573112Y-151928479D01*
X115517926Y-151935258D01*
X115350209Y-151958358D01*
X115219884Y-151980194D01*
X115149550Y-151996861D01*
X115143841Y-151999902D01*
X115155603Y-152044291D01*
X115226866Y-152121390D01*
X115340818Y-152217873D01*
X115480646Y-152320416D01*
X115629539Y-152415695D01*
X115751238Y-152481291D01*
X115911262Y-152551347D01*
X116055917Y-152594649D01*
X116219804Y-152618707D01*
X116437523Y-152631030D01*
X116441939Y-152631183D01*
X116642354Y-152633512D01*
X116825280Y-152627599D01*
X116960629Y-152614692D01*
X116993007Y-152608297D01*
X117214054Y-152517076D01*
X117374131Y-152366787D01*
X117459943Y-152215323D01*
X117519998Y-151974686D01*
X117507050Y-151710381D01*
X117428882Y-151436377D01*
X117293277Y-151166643D01*
X117286372Y-151157269D01*
X116456976Y-151157269D01*
X116430738Y-151195066D01*
X116326267Y-151215323D01*
X116138902Y-151222522D01*
X116073187Y-151222807D01*
X115882273Y-151221905D01*
X115763412Y-151216111D01*
X115699534Y-151200792D01*
X115673569Y-151171318D01*
X115668447Y-151123055D01*
X115668421Y-151112972D01*
X115706061Y-151006489D01*
X115805193Y-150937874D01*
X115945131Y-150910496D01*
X116105191Y-150927725D01*
X116264689Y-150992932D01*
X116293396Y-151011141D01*
X116409642Y-151097454D01*
X116456976Y-151157269D01*
X117286372Y-151157269D01*
X117108016Y-150915150D01*
X116880882Y-150695867D01*
X116619658Y-150522764D01*
X116481518Y-150459013D01*
X116253833Y-150394511D01*
X115985343Y-150358113D01*
X115705439Y-150350275D01*
X115443507Y-150371454D01*
G36*
X123140177Y-150343608D02*
G01*
X122890361Y-150377524D01*
X122685011Y-150435764D01*
X122544844Y-150517641D01*
X122543775Y-150518640D01*
X122474031Y-150597369D01*
X122431838Y-150685917D01*
X122418086Y-150797378D01*
X122433667Y-150944844D01*
X122479472Y-151141409D01*
X122556391Y-151400166D01*
X122616429Y-151586394D01*
X122693943Y-151832711D01*
X122760025Y-152061677D01*
X122809723Y-152254606D01*
X122838085Y-152392813D01*
X122842807Y-152440460D01*
X122842807Y-152604211D01*
X123644912Y-152604211D01*
X123644912Y-152337525D01*
X123904764Y-152473736D01*
X124086468Y-152556679D01*
X124261075Y-152603164D01*
X124474405Y-152625013D01*
X124495203Y-152626084D01*
X124671783Y-152631180D01*
X124824223Y-152629355D01*
X124921098Y-152621030D01*
X124924532Y-152620316D01*
X125037115Y-152559999D01*
X125146447Y-152447861D01*
X125225607Y-152317083D01*
X125249123Y-152220245D01*
X125219898Y-152078682D01*
X125195327Y-152024270D01*
X124336708Y-152024270D01*
X124306266Y-152103806D01*
X124217066Y-152148301D01*
X124082201Y-152153715D01*
X123914765Y-152116010D01*
X123796808Y-152067504D01*
X123616557Y-151939427D01*
X123533843Y-151818798D01*
X123490214Y-151714923D01*
X123473993Y-151651043D01*
X123475841Y-151644393D01*
X123523757Y-151646629D01*
X123636268Y-151667408D01*
X123791788Y-151702575D01*
X123841783Y-151714854D01*
X124005734Y-151755376D01*
X124132612Y-151785888D01*
X124200839Y-151801231D01*
X124206545Y-151802106D01*
X124239138Y-151834999D01*
X124295297Y-151913732D01*
X124336708Y-152024270D01*
X125195327Y-152024270D01*
X125144432Y-151911570D01*
X125041040Y-151754804D01*
X124974343Y-151681689D01*
X124851214Y-151589463D01*
X124690552Y-151513752D01*
X124475721Y-151448439D01*
X124190082Y-151387408D01*
X124157368Y-151381375D01*
X123942855Y-151339487D01*
X123729360Y-151293191D01*
X123555133Y-151250894D01*
X123519606Y-151241200D01*
X123383976Y-151198764D01*
X123315376Y-151159919D01*
X123294039Y-151108028D01*
X123296799Y-151053654D01*
X123321741Y-150968289D01*
X123388998Y-150929508D01*
X123461692Y-150918735D01*
X123669592Y-150923024D01*
X123842113Y-150989157D01*
X123948048Y-151066281D01*
X124020895Y-151122582D01*
X124088418Y-151152047D01*
X124177379Y-151158644D01*
X124314540Y-151146340D01*
X124408237Y-151134512D01*
X124571696Y-151113665D01*
X124699530Y-151098057D01*
X124767005Y-151090695D01*
X124770088Y-151090499D01*
X124803168Y-151062837D01*
X124777920Y-150993960D01*
X124706779Y-150896829D01*
X124602181Y-150784404D01*
X124476563Y-150669649D01*
X124342360Y-150565524D01*
X124212009Y-150484990D01*
X124169820Y-150464872D01*
X123949283Y-150394647D01*
X123690353Y-150351484D01*
X123413747Y-150334700D01*
X123140177Y-150343608D01*
X123140177Y-150343608D01*
G37*
X123140177Y-150343608D02*
X122890361Y-150377524D01*
X122685011Y-150435764D01*
X122544844Y-150517641D01*
X122543775Y-150518640D01*
X122474031Y-150597369D01*
X122431838Y-150685917D01*
X122418086Y-150797378D01*
X122433667Y-150944844D01*
X122479472Y-151141409D01*
X122556391Y-151400166D01*
X122616429Y-151586394D01*
X122693943Y-151832711D01*
X122760025Y-152061677D01*
X122809723Y-152254606D01*
X122838085Y-152392813D01*
X122842807Y-152440460D01*
X122842807Y-152604211D01*
X123644912Y-152604211D01*
X123644912Y-152337525D01*
X123904764Y-152473736D01*
X124086468Y-152556679D01*
X124261075Y-152603164D01*
X124474405Y-152625013D01*
X124495203Y-152626084D01*
X124671783Y-152631180D01*
X124824223Y-152629355D01*
X124921098Y-152621030D01*
X124924532Y-152620316D01*
X125037115Y-152559999D01*
X125146447Y-152447861D01*
X125225607Y-152317083D01*
X125249123Y-152220245D01*
X125219898Y-152078682D01*
X125195327Y-152024270D01*
X124336708Y-152024270D01*
X124306266Y-152103806D01*
X124217066Y-152148301D01*
X124082201Y-152153715D01*
X123914765Y-152116010D01*
X123796808Y-152067504D01*
X123616557Y-151939427D01*
X123533843Y-151818798D01*
X123490214Y-151714923D01*
X123473993Y-151651043D01*
X123475841Y-151644393D01*
X123523757Y-151646629D01*
X123636268Y-151667408D01*
X123791788Y-151702575D01*
X123841783Y-151714854D01*
X124005734Y-151755376D01*
X124132612Y-151785888D01*
X124200839Y-151801231D01*
X124206545Y-151802106D01*
X124239138Y-151834999D01*
X124295297Y-151913732D01*
X124336708Y-152024270D01*
X125195327Y-152024270D01*
X125144432Y-151911570D01*
X125041040Y-151754804D01*
X124974343Y-151681689D01*
X124851214Y-151589463D01*
X124690552Y-151513752D01*
X124475721Y-151448439D01*
X124190082Y-151387408D01*
X124157368Y-151381375D01*
X123942855Y-151339487D01*
X123729360Y-151293191D01*
X123555133Y-151250894D01*
X123519606Y-151241200D01*
X123383976Y-151198764D01*
X123315376Y-151159919D01*
X123294039Y-151108028D01*
X123296799Y-151053654D01*
X123321741Y-150968289D01*
X123388998Y-150929508D01*
X123461692Y-150918735D01*
X123669592Y-150923024D01*
X123842113Y-150989157D01*
X123948048Y-151066281D01*
X124020895Y-151122582D01*
X124088418Y-151152047D01*
X124177379Y-151158644D01*
X124314540Y-151146340D01*
X124408237Y-151134512D01*
X124571696Y-151113665D01*
X124699530Y-151098057D01*
X124767005Y-151090695D01*
X124770088Y-151090499D01*
X124803168Y-151062837D01*
X124777920Y-150993960D01*
X124706779Y-150896829D01*
X124602181Y-150784404D01*
X124476563Y-150669649D01*
X124342360Y-150565524D01*
X124212009Y-150484990D01*
X124169820Y-150464872D01*
X123949283Y-150394647D01*
X123690353Y-150351484D01*
X123413747Y-150334700D01*
X123140177Y-150343608D01*
D10*
X157742857Y-86872380D02*
X158076190Y-86396190D01*
X158314285Y-86872380D02*
X158314285Y-85872380D01*
X157933333Y-85872380D01*
X157838095Y-85920000D01*
X157790476Y-85967619D01*
X157742857Y-86062857D01*
X157742857Y-86205714D01*
X157790476Y-86300952D01*
X157838095Y-86348571D01*
X157933333Y-86396190D01*
X158314285Y-86396190D01*
X157409523Y-85872380D02*
X156790476Y-85872380D01*
X157123809Y-86253333D01*
X156980952Y-86253333D01*
X156885714Y-86300952D01*
X156838095Y-86348571D01*
X156790476Y-86443809D01*
X156790476Y-86681904D01*
X156838095Y-86777142D01*
X156885714Y-86824761D01*
X156980952Y-86872380D01*
X157266666Y-86872380D01*
X157361904Y-86824761D01*
X157409523Y-86777142D01*
X156409523Y-85967619D02*
X156361904Y-85920000D01*
X156266666Y-85872380D01*
X156028571Y-85872380D01*
X155933333Y-85920000D01*
X155885714Y-85967619D01*
X155838095Y-86062857D01*
X155838095Y-86158095D01*
X155885714Y-86300952D01*
X156457142Y-86872380D01*
X155838095Y-86872380D01*
X158214285Y-84572380D02*
X158214285Y-83572380D01*
X157976190Y-83572380D01*
X157833333Y-83620000D01*
X157738095Y-83715238D01*
X157690476Y-83810476D01*
X157642857Y-84000952D01*
X157642857Y-84143809D01*
X157690476Y-84334285D01*
X157738095Y-84429523D01*
X157833333Y-84524761D01*
X157976190Y-84572380D01*
X158214285Y-84572380D01*
X157261904Y-83667619D02*
X157214285Y-83620000D01*
X157119047Y-83572380D01*
X156880952Y-83572380D01*
X156785714Y-83620000D01*
X156738095Y-83667619D01*
X156690476Y-83762857D01*
X156690476Y-83858095D01*
X156738095Y-84000952D01*
X157309523Y-84572380D01*
X156690476Y-84572380D01*
X156071428Y-83572380D02*
X155976190Y-83572380D01*
X155880952Y-83620000D01*
X155833333Y-83667619D01*
X155785714Y-83762857D01*
X155738095Y-83953333D01*
X155738095Y-84191428D01*
X155785714Y-84381904D01*
X155833333Y-84477142D01*
X155880952Y-84524761D01*
X155976190Y-84572380D01*
X156071428Y-84572380D01*
X156166666Y-84524761D01*
X156214285Y-84477142D01*
X156261904Y-84381904D01*
X156309523Y-84191428D01*
X156309523Y-83953333D01*
X156261904Y-83762857D01*
X156214285Y-83667619D01*
X156166666Y-83620000D01*
X156071428Y-83572380D01*
X91880542Y-88057142D02*
X91928161Y-88009523D01*
X91975780Y-87866666D01*
X91975780Y-87771428D01*
X91928161Y-87628571D01*
X91832923Y-87533333D01*
X91737685Y-87485714D01*
X91547209Y-87438095D01*
X91404352Y-87438095D01*
X91213876Y-87485714D01*
X91118638Y-87533333D01*
X91023400Y-87628571D01*
X90975780Y-87771428D01*
X90975780Y-87866666D01*
X91023400Y-88009523D01*
X91071019Y-88057142D01*
X91071019Y-88438095D02*
X91023400Y-88485714D01*
X90975780Y-88580952D01*
X90975780Y-88819047D01*
X91023400Y-88914285D01*
X91071019Y-88961904D01*
X91166257Y-89009523D01*
X91261495Y-89009523D01*
X91404352Y-88961904D01*
X91975780Y-88390476D01*
X91975780Y-89009523D01*
X90975780Y-89342857D02*
X90975780Y-90009523D01*
X91975780Y-89580952D01*
X85907122Y-87957102D02*
X85954741Y-87909483D01*
X86002360Y-87766626D01*
X86002360Y-87671388D01*
X85954741Y-87528531D01*
X85859503Y-87433293D01*
X85764265Y-87385674D01*
X85573789Y-87338055D01*
X85430932Y-87338055D01*
X85240456Y-87385674D01*
X85145218Y-87433293D01*
X85049980Y-87528531D01*
X85002360Y-87671388D01*
X85002360Y-87766626D01*
X85049980Y-87909483D01*
X85097599Y-87957102D01*
X85097599Y-88338055D02*
X85049980Y-88385674D01*
X85002360Y-88480912D01*
X85002360Y-88719007D01*
X85049980Y-88814245D01*
X85097599Y-88861864D01*
X85192837Y-88909483D01*
X85288075Y-88909483D01*
X85430932Y-88861864D01*
X86002360Y-88290436D01*
X86002360Y-88909483D01*
X85335694Y-89766626D02*
X86002360Y-89766626D01*
X84954741Y-89528531D02*
X85669027Y-89290436D01*
X85669027Y-89909483D01*
X99142857Y-69677142D02*
X99190476Y-69724761D01*
X99333333Y-69772380D01*
X99428571Y-69772380D01*
X99571428Y-69724761D01*
X99666666Y-69629523D01*
X99714285Y-69534285D01*
X99761904Y-69343809D01*
X99761904Y-69200952D01*
X99714285Y-69010476D01*
X99666666Y-68915238D01*
X99571428Y-68820000D01*
X99428571Y-68772380D01*
X99333333Y-68772380D01*
X99190476Y-68820000D01*
X99142857Y-68867619D01*
X98190476Y-69772380D02*
X98761904Y-69772380D01*
X98476190Y-69772380D02*
X98476190Y-68772380D01*
X98571428Y-68915238D01*
X98666666Y-69010476D01*
X98761904Y-69058095D01*
X97619047Y-69200952D02*
X97714285Y-69153333D01*
X97761904Y-69105714D01*
X97809523Y-69010476D01*
X97809523Y-68962857D01*
X97761904Y-68867619D01*
X97714285Y-68820000D01*
X97619047Y-68772380D01*
X97428571Y-68772380D01*
X97333333Y-68820000D01*
X97285714Y-68867619D01*
X97238095Y-68962857D01*
X97238095Y-69010476D01*
X97285714Y-69105714D01*
X97333333Y-69153333D01*
X97428571Y-69200952D01*
X97619047Y-69200952D01*
X97714285Y-69248571D01*
X97761904Y-69296190D01*
X97809523Y-69391428D01*
X97809523Y-69581904D01*
X97761904Y-69677142D01*
X97714285Y-69724761D01*
X97619047Y-69772380D01*
X97428571Y-69772380D01*
X97333333Y-69724761D01*
X97285714Y-69677142D01*
X97238095Y-69581904D01*
X97238095Y-69391428D01*
X97285714Y-69296190D01*
X97333333Y-69248571D01*
X97428571Y-69200952D01*
X93057142Y-56007142D02*
X93104761Y-55959523D01*
X93152380Y-55816666D01*
X93152380Y-55721428D01*
X93104761Y-55578571D01*
X93009523Y-55483333D01*
X92914285Y-55435714D01*
X92723809Y-55388095D01*
X92580952Y-55388095D01*
X92390476Y-55435714D01*
X92295238Y-55483333D01*
X92200000Y-55578571D01*
X92152380Y-55721428D01*
X92152380Y-55816666D01*
X92200000Y-55959523D01*
X92247619Y-56007142D01*
X93152380Y-56959523D02*
X93152380Y-56388095D01*
X93152380Y-56673809D02*
X92152380Y-56673809D01*
X92295238Y-56578571D01*
X92390476Y-56483333D01*
X92438095Y-56388095D01*
X92485714Y-57816666D02*
X93152380Y-57816666D01*
X92104761Y-57578571D02*
X92819047Y-57340476D01*
X92819047Y-57959523D01*
X79757142Y-66107142D02*
X79804761Y-66059523D01*
X79852380Y-65916666D01*
X79852380Y-65821428D01*
X79804761Y-65678571D01*
X79709523Y-65583333D01*
X79614285Y-65535714D01*
X79423809Y-65488095D01*
X79280952Y-65488095D01*
X79090476Y-65535714D01*
X78995238Y-65583333D01*
X78900000Y-65678571D01*
X78852380Y-65821428D01*
X78852380Y-65916666D01*
X78900000Y-66059523D01*
X78947619Y-66107142D01*
X79852380Y-67059523D02*
X79852380Y-66488095D01*
X79852380Y-66773809D02*
X78852380Y-66773809D01*
X78995238Y-66678571D01*
X79090476Y-66583333D01*
X79138095Y-66488095D01*
X78852380Y-67392857D02*
X78852380Y-68059523D01*
X79852380Y-67630952D01*
X82737142Y-69194642D02*
X82784761Y-69147023D01*
X82832380Y-69004166D01*
X82832380Y-68908928D01*
X82784761Y-68766071D01*
X82689523Y-68670833D01*
X82594285Y-68623214D01*
X82403809Y-68575595D01*
X82260952Y-68575595D01*
X82070476Y-68623214D01*
X81975238Y-68670833D01*
X81880000Y-68766071D01*
X81832380Y-68908928D01*
X81832380Y-69004166D01*
X81880000Y-69147023D01*
X81927619Y-69194642D01*
X82832380Y-70147023D02*
X82832380Y-69575595D01*
X82832380Y-69861309D02*
X81832380Y-69861309D01*
X81975238Y-69766071D01*
X82070476Y-69670833D01*
X82118095Y-69575595D01*
X81832380Y-70480357D02*
X81832380Y-71099404D01*
X82213333Y-70766071D01*
X82213333Y-70908928D01*
X82260952Y-71004166D01*
X82308571Y-71051785D01*
X82403809Y-71099404D01*
X82641904Y-71099404D01*
X82737142Y-71051785D01*
X82784761Y-71004166D01*
X82832380Y-70908928D01*
X82832380Y-70623214D01*
X82784761Y-70527976D01*
X82737142Y-70480357D01*
X89037142Y-75857142D02*
X89084761Y-75809523D01*
X89132380Y-75666666D01*
X89132380Y-75571428D01*
X89084761Y-75428571D01*
X88989523Y-75333333D01*
X88894285Y-75285714D01*
X88703809Y-75238095D01*
X88560952Y-75238095D01*
X88370476Y-75285714D01*
X88275238Y-75333333D01*
X88180000Y-75428571D01*
X88132380Y-75571428D01*
X88132380Y-75666666D01*
X88180000Y-75809523D01*
X88227619Y-75857142D01*
X89132380Y-76809523D02*
X89132380Y-76238095D01*
X89132380Y-76523809D02*
X88132380Y-76523809D01*
X88275238Y-76428571D01*
X88370476Y-76333333D01*
X88418095Y-76238095D01*
X88132380Y-77666666D02*
X88132380Y-77476190D01*
X88180000Y-77380952D01*
X88227619Y-77333333D01*
X88370476Y-77238095D01*
X88560952Y-77190476D01*
X88941904Y-77190476D01*
X89037142Y-77238095D01*
X89084761Y-77285714D01*
X89132380Y-77380952D01*
X89132380Y-77571428D01*
X89084761Y-77666666D01*
X89037142Y-77714285D01*
X88941904Y-77761904D01*
X88703809Y-77761904D01*
X88608571Y-77714285D01*
X88560952Y-77666666D01*
X88513333Y-77571428D01*
X88513333Y-77380952D01*
X88560952Y-77285714D01*
X88608571Y-77238095D01*
X88703809Y-77190476D01*
X88442857Y-86407142D02*
X88490476Y-86454761D01*
X88633333Y-86502380D01*
X88728571Y-86502380D01*
X88871428Y-86454761D01*
X88966666Y-86359523D01*
X89014285Y-86264285D01*
X89061904Y-86073809D01*
X89061904Y-85930952D01*
X89014285Y-85740476D01*
X88966666Y-85645238D01*
X88871428Y-85550000D01*
X88728571Y-85502380D01*
X88633333Y-85502380D01*
X88490476Y-85550000D01*
X88442857Y-85597619D01*
X88061904Y-85597619D02*
X88014285Y-85550000D01*
X87919047Y-85502380D01*
X87680952Y-85502380D01*
X87585714Y-85550000D01*
X87538095Y-85597619D01*
X87490476Y-85692857D01*
X87490476Y-85788095D01*
X87538095Y-85930952D01*
X88109523Y-86502380D01*
X87490476Y-86502380D01*
X87157142Y-85502380D02*
X86538095Y-85502380D01*
X86871428Y-85883333D01*
X86728571Y-85883333D01*
X86633333Y-85930952D01*
X86585714Y-85978571D01*
X86538095Y-86073809D01*
X86538095Y-86311904D01*
X86585714Y-86407142D01*
X86633333Y-86454761D01*
X86728571Y-86502380D01*
X87014285Y-86502380D01*
X87109523Y-86454761D01*
X87157142Y-86407142D01*
X101671428Y-78464019D02*
X101766666Y-78416400D01*
X101861904Y-78321161D01*
X102004761Y-78178304D01*
X102100000Y-78130685D01*
X102195238Y-78130685D01*
X102147619Y-78368780D02*
X102242857Y-78321161D01*
X102338095Y-78225923D01*
X102385714Y-78035447D01*
X102385714Y-77702114D01*
X102338095Y-77511638D01*
X102242857Y-77416400D01*
X102147619Y-77368780D01*
X101957142Y-77368780D01*
X101861904Y-77416400D01*
X101766666Y-77511638D01*
X101719047Y-77702114D01*
X101719047Y-78035447D01*
X101766666Y-78225923D01*
X101861904Y-78321161D01*
X101957142Y-78368780D01*
X102147619Y-78368780D01*
X100766666Y-78368780D02*
X101338095Y-78368780D01*
X101052380Y-78368780D02*
X101052380Y-77368780D01*
X101147619Y-77511638D01*
X101242857Y-77606876D01*
X101338095Y-77654495D01*
X99814285Y-78368780D02*
X100385714Y-78368780D01*
X100100000Y-78368780D02*
X100100000Y-77368780D01*
X100195238Y-77511638D01*
X100290476Y-77606876D01*
X100385714Y-77654495D01*
X83451428Y-119197619D02*
X83546666Y-119150000D01*
X83641904Y-119054761D01*
X83784761Y-118911904D01*
X83880000Y-118864285D01*
X83975238Y-118864285D01*
X83927619Y-119102380D02*
X84022857Y-119054761D01*
X84118095Y-118959523D01*
X84165714Y-118769047D01*
X84165714Y-118435714D01*
X84118095Y-118245238D01*
X84022857Y-118150000D01*
X83927619Y-118102380D01*
X83737142Y-118102380D01*
X83641904Y-118150000D01*
X83546666Y-118245238D01*
X83499047Y-118435714D01*
X83499047Y-118769047D01*
X83546666Y-118959523D01*
X83641904Y-119054761D01*
X83737142Y-119102380D01*
X83927619Y-119102380D01*
X82546666Y-119102380D02*
X83118095Y-119102380D01*
X82832380Y-119102380D02*
X82832380Y-118102380D01*
X82927619Y-118245238D01*
X83022857Y-118340476D01*
X83118095Y-118388095D01*
X82165714Y-118197619D02*
X82118095Y-118150000D01*
X82022857Y-118102380D01*
X81784761Y-118102380D01*
X81689523Y-118150000D01*
X81641904Y-118197619D01*
X81594285Y-118292857D01*
X81594285Y-118388095D01*
X81641904Y-118530952D01*
X82213333Y-119102380D01*
X81594285Y-119102380D01*
X73047619Y-114428571D02*
X73000000Y-114333333D01*
X72904761Y-114238095D01*
X72761904Y-114095238D01*
X72714285Y-114000000D01*
X72714285Y-113904761D01*
X72952380Y-113952380D02*
X72904761Y-113857142D01*
X72809523Y-113761904D01*
X72619047Y-113714285D01*
X72285714Y-113714285D01*
X72095238Y-113761904D01*
X72000000Y-113857142D01*
X71952380Y-113952380D01*
X71952380Y-114142857D01*
X72000000Y-114238095D01*
X72095238Y-114333333D01*
X72285714Y-114380952D01*
X72619047Y-114380952D01*
X72809523Y-114333333D01*
X72904761Y-114238095D01*
X72952380Y-114142857D01*
X72952380Y-113952380D01*
X72952380Y-115333333D02*
X72952380Y-114761904D01*
X72952380Y-115047619D02*
X71952380Y-115047619D01*
X72095238Y-114952380D01*
X72190476Y-114857142D01*
X72238095Y-114761904D01*
X71952380Y-115666666D02*
X71952380Y-116285714D01*
X72333333Y-115952380D01*
X72333333Y-116095238D01*
X72380952Y-116190476D01*
X72428571Y-116238095D01*
X72523809Y-116285714D01*
X72761904Y-116285714D01*
X72857142Y-116238095D01*
X72904761Y-116190476D01*
X72952380Y-116095238D01*
X72952380Y-115809523D01*
X72904761Y-115714285D01*
X72857142Y-115666666D01*
X68047619Y-114428571D02*
X68000000Y-114333333D01*
X67904761Y-114238095D01*
X67761904Y-114095238D01*
X67714285Y-114000000D01*
X67714285Y-113904761D01*
X67952380Y-113952380D02*
X67904761Y-113857142D01*
X67809523Y-113761904D01*
X67619047Y-113714285D01*
X67285714Y-113714285D01*
X67095238Y-113761904D01*
X67000000Y-113857142D01*
X66952380Y-113952380D01*
X66952380Y-114142857D01*
X67000000Y-114238095D01*
X67095238Y-114333333D01*
X67285714Y-114380952D01*
X67619047Y-114380952D01*
X67809523Y-114333333D01*
X67904761Y-114238095D01*
X67952380Y-114142857D01*
X67952380Y-113952380D01*
X67952380Y-115333333D02*
X67952380Y-114761904D01*
X67952380Y-115047619D02*
X66952380Y-115047619D01*
X67095238Y-114952380D01*
X67190476Y-114857142D01*
X67238095Y-114761904D01*
X67285714Y-116190476D02*
X67952380Y-116190476D01*
X66904761Y-115952380D02*
X67619047Y-115714285D01*
X67619047Y-116333333D01*
X123704857Y-56302380D02*
X124038190Y-55826190D01*
X124276285Y-56302380D02*
X124276285Y-55302380D01*
X123895333Y-55302380D01*
X123800095Y-55350000D01*
X123752476Y-55397619D01*
X123704857Y-55492857D01*
X123704857Y-55635714D01*
X123752476Y-55730952D01*
X123800095Y-55778571D01*
X123895333Y-55826190D01*
X124276285Y-55826190D01*
X123323904Y-55397619D02*
X123276285Y-55350000D01*
X123181047Y-55302380D01*
X122942952Y-55302380D01*
X122847714Y-55350000D01*
X122800095Y-55397619D01*
X122752476Y-55492857D01*
X122752476Y-55588095D01*
X122800095Y-55730952D01*
X123371523Y-56302380D01*
X122752476Y-56302380D01*
X121895333Y-55635714D02*
X121895333Y-56302380D01*
X122133428Y-55254761D02*
X122371523Y-55969047D01*
X121752476Y-55969047D01*
X77016666Y-106007142D02*
X77064285Y-106054761D01*
X77207142Y-106102380D01*
X77302380Y-106102380D01*
X77445238Y-106054761D01*
X77540476Y-105959523D01*
X77588095Y-105864285D01*
X77635714Y-105673809D01*
X77635714Y-105530952D01*
X77588095Y-105340476D01*
X77540476Y-105245238D01*
X77445238Y-105150000D01*
X77302380Y-105102380D01*
X77207142Y-105102380D01*
X77064285Y-105150000D01*
X77016666Y-105197619D01*
X76635714Y-105197619D02*
X76588095Y-105150000D01*
X76492857Y-105102380D01*
X76254761Y-105102380D01*
X76159523Y-105150000D01*
X76111904Y-105197619D01*
X76064285Y-105292857D01*
X76064285Y-105388095D01*
X76111904Y-105530952D01*
X76683333Y-106102380D01*
X76064285Y-106102380D01*
X102442857Y-73357142D02*
X102490476Y-73404761D01*
X102633333Y-73452380D01*
X102728571Y-73452380D01*
X102871428Y-73404761D01*
X102966666Y-73309523D01*
X103014285Y-73214285D01*
X103061904Y-73023809D01*
X103061904Y-72880952D01*
X103014285Y-72690476D01*
X102966666Y-72595238D01*
X102871428Y-72500000D01*
X102728571Y-72452380D01*
X102633333Y-72452380D01*
X102490476Y-72500000D01*
X102442857Y-72547619D01*
X101490476Y-73452380D02*
X102061904Y-73452380D01*
X101776190Y-73452380D02*
X101776190Y-72452380D01*
X101871428Y-72595238D01*
X101966666Y-72690476D01*
X102061904Y-72738095D01*
X101014285Y-73452380D02*
X100823809Y-73452380D01*
X100728571Y-73404761D01*
X100680952Y-73357142D01*
X100585714Y-73214285D01*
X100538095Y-73023809D01*
X100538095Y-72642857D01*
X100585714Y-72547619D01*
X100633333Y-72500000D01*
X100728571Y-72452380D01*
X100919047Y-72452380D01*
X101014285Y-72500000D01*
X101061904Y-72547619D01*
X101109523Y-72642857D01*
X101109523Y-72880952D01*
X101061904Y-72976190D01*
X101014285Y-73023809D01*
X100919047Y-73071428D01*
X100728571Y-73071428D01*
X100633333Y-73023809D01*
X100585714Y-72976190D01*
X100538095Y-72880952D01*
X106807142Y-61069642D02*
X106854761Y-61022023D01*
X106902380Y-60879166D01*
X106902380Y-60783928D01*
X106854761Y-60641071D01*
X106759523Y-60545833D01*
X106664285Y-60498214D01*
X106473809Y-60450595D01*
X106330952Y-60450595D01*
X106140476Y-60498214D01*
X106045238Y-60545833D01*
X105950000Y-60641071D01*
X105902380Y-60783928D01*
X105902380Y-60879166D01*
X105950000Y-61022023D01*
X105997619Y-61069642D01*
X105997619Y-61450595D02*
X105950000Y-61498214D01*
X105902380Y-61593452D01*
X105902380Y-61831547D01*
X105950000Y-61926785D01*
X105997619Y-61974404D01*
X106092857Y-62022023D01*
X106188095Y-62022023D01*
X106330952Y-61974404D01*
X106902380Y-61402976D01*
X106902380Y-62022023D01*
X106902380Y-62974404D02*
X106902380Y-62402976D01*
X106902380Y-62688690D02*
X105902380Y-62688690D01*
X106045238Y-62593452D01*
X106140476Y-62498214D01*
X106188095Y-62402976D01*
X73566666Y-105957142D02*
X73614285Y-106004761D01*
X73757142Y-106052380D01*
X73852380Y-106052380D01*
X73995238Y-106004761D01*
X74090476Y-105909523D01*
X74138095Y-105814285D01*
X74185714Y-105623809D01*
X74185714Y-105480952D01*
X74138095Y-105290476D01*
X74090476Y-105195238D01*
X73995238Y-105100000D01*
X73852380Y-105052380D01*
X73757142Y-105052380D01*
X73614285Y-105100000D01*
X73566666Y-105147619D01*
X72614285Y-106052380D02*
X73185714Y-106052380D01*
X72900000Y-106052380D02*
X72900000Y-105052380D01*
X72995238Y-105195238D01*
X73090476Y-105290476D01*
X73185714Y-105338095D01*
X97357142Y-59357142D02*
X97404761Y-59309523D01*
X97452380Y-59166666D01*
X97452380Y-59071428D01*
X97404761Y-58928571D01*
X97309523Y-58833333D01*
X97214285Y-58785714D01*
X97023809Y-58738095D01*
X96880952Y-58738095D01*
X96690476Y-58785714D01*
X96595238Y-58833333D01*
X96500000Y-58928571D01*
X96452380Y-59071428D01*
X96452380Y-59166666D01*
X96500000Y-59309523D01*
X96547619Y-59357142D01*
X97452380Y-60309523D02*
X97452380Y-59738095D01*
X97452380Y-60023809D02*
X96452380Y-60023809D01*
X96595238Y-59928571D01*
X96690476Y-59833333D01*
X96738095Y-59738095D01*
X96452380Y-61214285D02*
X96452380Y-60738095D01*
X96928571Y-60690476D01*
X96880952Y-60738095D01*
X96833333Y-60833333D01*
X96833333Y-61071428D01*
X96880952Y-61166666D01*
X96928571Y-61214285D01*
X97023809Y-61261904D01*
X97261904Y-61261904D01*
X97357142Y-61214285D01*
X97404761Y-61166666D01*
X97452380Y-61071428D01*
X97452380Y-60833333D01*
X97404761Y-60738095D01*
X97357142Y-60690476D01*
X137116666Y-106107142D02*
X137164285Y-106154761D01*
X137307142Y-106202380D01*
X137402380Y-106202380D01*
X137545238Y-106154761D01*
X137640476Y-106059523D01*
X137688095Y-105964285D01*
X137735714Y-105773809D01*
X137735714Y-105630952D01*
X137688095Y-105440476D01*
X137640476Y-105345238D01*
X137545238Y-105250000D01*
X137402380Y-105202380D01*
X137307142Y-105202380D01*
X137164285Y-105250000D01*
X137116666Y-105297619D01*
X136545238Y-105630952D02*
X136640476Y-105583333D01*
X136688095Y-105535714D01*
X136735714Y-105440476D01*
X136735714Y-105392857D01*
X136688095Y-105297619D01*
X136640476Y-105250000D01*
X136545238Y-105202380D01*
X136354761Y-105202380D01*
X136259523Y-105250000D01*
X136211904Y-105297619D01*
X136164285Y-105392857D01*
X136164285Y-105440476D01*
X136211904Y-105535714D01*
X136259523Y-105583333D01*
X136354761Y-105630952D01*
X136545238Y-105630952D01*
X136640476Y-105678571D01*
X136688095Y-105726190D01*
X136735714Y-105821428D01*
X136735714Y-106011904D01*
X136688095Y-106107142D01*
X136640476Y-106154761D01*
X136545238Y-106202380D01*
X136354761Y-106202380D01*
X136259523Y-106154761D01*
X136211904Y-106107142D01*
X136164285Y-106011904D01*
X136164285Y-105821428D01*
X136211904Y-105726190D01*
X136259523Y-105678571D01*
X136354761Y-105630952D01*
X93816666Y-106057142D02*
X93864285Y-106104761D01*
X94007142Y-106152380D01*
X94102380Y-106152380D01*
X94245238Y-106104761D01*
X94340476Y-106009523D01*
X94388095Y-105914285D01*
X94435714Y-105723809D01*
X94435714Y-105580952D01*
X94388095Y-105390476D01*
X94340476Y-105295238D01*
X94245238Y-105200000D01*
X94102380Y-105152380D01*
X94007142Y-105152380D01*
X93864285Y-105200000D01*
X93816666Y-105247619D01*
X93483333Y-105152380D02*
X92864285Y-105152380D01*
X93197619Y-105533333D01*
X93054761Y-105533333D01*
X92959523Y-105580952D01*
X92911904Y-105628571D01*
X92864285Y-105723809D01*
X92864285Y-105961904D01*
X92911904Y-106057142D01*
X92959523Y-106104761D01*
X93054761Y-106152380D01*
X93340476Y-106152380D01*
X93435714Y-106104761D01*
X93483333Y-106057142D01*
X96966666Y-106157142D02*
X97014285Y-106204761D01*
X97157142Y-106252380D01*
X97252380Y-106252380D01*
X97395238Y-106204761D01*
X97490476Y-106109523D01*
X97538095Y-106014285D01*
X97585714Y-105823809D01*
X97585714Y-105680952D01*
X97538095Y-105490476D01*
X97490476Y-105395238D01*
X97395238Y-105300000D01*
X97252380Y-105252380D01*
X97157142Y-105252380D01*
X97014285Y-105300000D01*
X96966666Y-105347619D01*
X96109523Y-105585714D02*
X96109523Y-106252380D01*
X96347619Y-105204761D02*
X96585714Y-105919047D01*
X95966666Y-105919047D01*
X113679166Y-106057142D02*
X113726785Y-106104761D01*
X113869642Y-106152380D01*
X113964880Y-106152380D01*
X114107738Y-106104761D01*
X114202976Y-106009523D01*
X114250595Y-105914285D01*
X114298214Y-105723809D01*
X114298214Y-105580952D01*
X114250595Y-105390476D01*
X114202976Y-105295238D01*
X114107738Y-105200000D01*
X113964880Y-105152380D01*
X113869642Y-105152380D01*
X113726785Y-105200000D01*
X113679166Y-105247619D01*
X112774404Y-105152380D02*
X113250595Y-105152380D01*
X113298214Y-105628571D01*
X113250595Y-105580952D01*
X113155357Y-105533333D01*
X112917261Y-105533333D01*
X112822023Y-105580952D01*
X112774404Y-105628571D01*
X112726785Y-105723809D01*
X112726785Y-105961904D01*
X112774404Y-106057142D01*
X112822023Y-106104761D01*
X112917261Y-106152380D01*
X113155357Y-106152380D01*
X113250595Y-106104761D01*
X113298214Y-106057142D01*
X117016666Y-106157142D02*
X117064285Y-106204761D01*
X117207142Y-106252380D01*
X117302380Y-106252380D01*
X117445238Y-106204761D01*
X117540476Y-106109523D01*
X117588095Y-106014285D01*
X117635714Y-105823809D01*
X117635714Y-105680952D01*
X117588095Y-105490476D01*
X117540476Y-105395238D01*
X117445238Y-105300000D01*
X117302380Y-105252380D01*
X117207142Y-105252380D01*
X117064285Y-105300000D01*
X117016666Y-105347619D01*
X116159523Y-105252380D02*
X116350000Y-105252380D01*
X116445238Y-105300000D01*
X116492857Y-105347619D01*
X116588095Y-105490476D01*
X116635714Y-105680952D01*
X116635714Y-106061904D01*
X116588095Y-106157142D01*
X116540476Y-106204761D01*
X116445238Y-106252380D01*
X116254761Y-106252380D01*
X116159523Y-106204761D01*
X116111904Y-106157142D01*
X116064285Y-106061904D01*
X116064285Y-105823809D01*
X116111904Y-105728571D01*
X116159523Y-105680952D01*
X116254761Y-105633333D01*
X116445238Y-105633333D01*
X116540476Y-105680952D01*
X116588095Y-105728571D01*
X116635714Y-105823809D01*
X133604166Y-106007142D02*
X133651785Y-106054761D01*
X133794642Y-106102380D01*
X133889880Y-106102380D01*
X134032738Y-106054761D01*
X134127976Y-105959523D01*
X134175595Y-105864285D01*
X134223214Y-105673809D01*
X134223214Y-105530952D01*
X134175595Y-105340476D01*
X134127976Y-105245238D01*
X134032738Y-105150000D01*
X133889880Y-105102380D01*
X133794642Y-105102380D01*
X133651785Y-105150000D01*
X133604166Y-105197619D01*
X133270833Y-105102380D02*
X132604166Y-105102380D01*
X133032738Y-106102380D01*
X153854166Y-106057142D02*
X153901785Y-106104761D01*
X154044642Y-106152380D01*
X154139880Y-106152380D01*
X154282738Y-106104761D01*
X154377976Y-106009523D01*
X154425595Y-105914285D01*
X154473214Y-105723809D01*
X154473214Y-105580952D01*
X154425595Y-105390476D01*
X154377976Y-105295238D01*
X154282738Y-105200000D01*
X154139880Y-105152380D01*
X154044642Y-105152380D01*
X153901785Y-105200000D01*
X153854166Y-105247619D01*
X153377976Y-106152380D02*
X153187500Y-106152380D01*
X153092261Y-106104761D01*
X153044642Y-106057142D01*
X152949404Y-105914285D01*
X152901785Y-105723809D01*
X152901785Y-105342857D01*
X152949404Y-105247619D01*
X152997023Y-105200000D01*
X153092261Y-105152380D01*
X153282738Y-105152380D01*
X153377976Y-105200000D01*
X153425595Y-105247619D01*
X153473214Y-105342857D01*
X153473214Y-105580952D01*
X153425595Y-105676190D01*
X153377976Y-105723809D01*
X153282738Y-105771428D01*
X153092261Y-105771428D01*
X152997023Y-105723809D01*
X152949404Y-105676190D01*
X152901785Y-105580952D01*
X157642857Y-106157142D02*
X157690476Y-106204761D01*
X157833333Y-106252380D01*
X157928571Y-106252380D01*
X158071428Y-106204761D01*
X158166666Y-106109523D01*
X158214285Y-106014285D01*
X158261904Y-105823809D01*
X158261904Y-105680952D01*
X158214285Y-105490476D01*
X158166666Y-105395238D01*
X158071428Y-105300000D01*
X157928571Y-105252380D01*
X157833333Y-105252380D01*
X157690476Y-105300000D01*
X157642857Y-105347619D01*
X156690476Y-106252380D02*
X157261904Y-106252380D01*
X156976190Y-106252380D02*
X156976190Y-105252380D01*
X157071428Y-105395238D01*
X157166666Y-105490476D01*
X157261904Y-105538095D01*
X156071428Y-105252380D02*
X155976190Y-105252380D01*
X155880952Y-105300000D01*
X155833333Y-105347619D01*
X155785714Y-105442857D01*
X155738095Y-105633333D01*
X155738095Y-105871428D01*
X155785714Y-106061904D01*
X155833333Y-106157142D01*
X155880952Y-106204761D01*
X155976190Y-106252380D01*
X156071428Y-106252380D01*
X156166666Y-106204761D01*
X156214285Y-106157142D01*
X156261904Y-106061904D01*
X156309523Y-105871428D01*
X156309523Y-105633333D01*
X156261904Y-105442857D01*
X156214285Y-105347619D01*
X156166666Y-105300000D01*
X156071428Y-105252380D01*
X74042857Y-136257142D02*
X74090476Y-136304761D01*
X74233333Y-136352380D01*
X74328571Y-136352380D01*
X74471428Y-136304761D01*
X74566666Y-136209523D01*
X74614285Y-136114285D01*
X74661904Y-135923809D01*
X74661904Y-135780952D01*
X74614285Y-135590476D01*
X74566666Y-135495238D01*
X74471428Y-135400000D01*
X74328571Y-135352380D01*
X74233333Y-135352380D01*
X74090476Y-135400000D01*
X74042857Y-135447619D01*
X73090476Y-136352380D02*
X73661904Y-136352380D01*
X73376190Y-136352380D02*
X73376190Y-135352380D01*
X73471428Y-135495238D01*
X73566666Y-135590476D01*
X73661904Y-135638095D01*
X72138095Y-136352380D02*
X72709523Y-136352380D01*
X72423809Y-136352380D02*
X72423809Y-135352380D01*
X72519047Y-135495238D01*
X72614285Y-135590476D01*
X72709523Y-135638095D01*
X77492857Y-136357142D02*
X77540476Y-136404761D01*
X77683333Y-136452380D01*
X77778571Y-136452380D01*
X77921428Y-136404761D01*
X78016666Y-136309523D01*
X78064285Y-136214285D01*
X78111904Y-136023809D01*
X78111904Y-135880952D01*
X78064285Y-135690476D01*
X78016666Y-135595238D01*
X77921428Y-135500000D01*
X77778571Y-135452380D01*
X77683333Y-135452380D01*
X77540476Y-135500000D01*
X77492857Y-135547619D01*
X76540476Y-136452380D02*
X77111904Y-136452380D01*
X76826190Y-136452380D02*
X76826190Y-135452380D01*
X76921428Y-135595238D01*
X77016666Y-135690476D01*
X77111904Y-135738095D01*
X76159523Y-135547619D02*
X76111904Y-135500000D01*
X76016666Y-135452380D01*
X75778571Y-135452380D01*
X75683333Y-135500000D01*
X75635714Y-135547619D01*
X75588095Y-135642857D01*
X75588095Y-135738095D01*
X75635714Y-135880952D01*
X76207142Y-136452380D01*
X75588095Y-136452380D01*
X99214285Y-98652380D02*
X99214285Y-97652380D01*
X98976190Y-97652380D01*
X98833333Y-97700000D01*
X98738095Y-97795238D01*
X98690476Y-97890476D01*
X98642857Y-98080952D01*
X98642857Y-98223809D01*
X98690476Y-98414285D01*
X98738095Y-98509523D01*
X98833333Y-98604761D01*
X98976190Y-98652380D01*
X99214285Y-98652380D01*
X97690476Y-98652380D02*
X98261904Y-98652380D01*
X97976190Y-98652380D02*
X97976190Y-97652380D01*
X98071428Y-97795238D01*
X98166666Y-97890476D01*
X98261904Y-97938095D01*
X97309523Y-97747619D02*
X97261904Y-97700000D01*
X97166666Y-97652380D01*
X96928571Y-97652380D01*
X96833333Y-97700000D01*
X96785714Y-97747619D01*
X96738095Y-97842857D01*
X96738095Y-97938095D01*
X96785714Y-98080952D01*
X97357142Y-98652380D01*
X96738095Y-98652380D01*
X159464285Y-98702380D02*
X159464285Y-97702380D01*
X159226190Y-97702380D01*
X159083333Y-97750000D01*
X158988095Y-97845238D01*
X158940476Y-97940476D01*
X158892857Y-98130952D01*
X158892857Y-98273809D01*
X158940476Y-98464285D01*
X158988095Y-98559523D01*
X159083333Y-98654761D01*
X159226190Y-98702380D01*
X159464285Y-98702380D01*
X157940476Y-98702380D02*
X158511904Y-98702380D01*
X158226190Y-98702380D02*
X158226190Y-97702380D01*
X158321428Y-97845238D01*
X158416666Y-97940476D01*
X158511904Y-97988095D01*
X157035714Y-97702380D02*
X157511904Y-97702380D01*
X157559523Y-98178571D01*
X157511904Y-98130952D01*
X157416666Y-98083333D01*
X157178571Y-98083333D01*
X157083333Y-98130952D01*
X157035714Y-98178571D01*
X156988095Y-98273809D01*
X156988095Y-98511904D01*
X157035714Y-98607142D01*
X157083333Y-98654761D01*
X157178571Y-98702380D01*
X157416666Y-98702380D01*
X157511904Y-98654761D01*
X157559523Y-98607142D01*
X79356585Y-98425380D02*
X79356585Y-97425380D01*
X79118490Y-97425380D01*
X78975633Y-97473000D01*
X78880395Y-97568238D01*
X78832776Y-97663476D01*
X78785157Y-97853952D01*
X78785157Y-97996809D01*
X78832776Y-98187285D01*
X78880395Y-98282523D01*
X78975633Y-98377761D01*
X79118490Y-98425380D01*
X79356585Y-98425380D01*
X77832776Y-98425380D02*
X78404204Y-98425380D01*
X78118490Y-98425380D02*
X78118490Y-97425380D01*
X78213728Y-97568238D01*
X78308966Y-97663476D01*
X78404204Y-97711095D01*
X76880395Y-98425380D02*
X77451823Y-98425380D01*
X77166109Y-98425380D02*
X77166109Y-97425380D01*
X77261347Y-97568238D01*
X77356585Y-97663476D01*
X77451823Y-97711095D01*
X116214285Y-98702380D02*
X116214285Y-97702380D01*
X115976190Y-97702380D01*
X115833333Y-97750000D01*
X115738095Y-97845238D01*
X115690476Y-97940476D01*
X115642857Y-98130952D01*
X115642857Y-98273809D01*
X115690476Y-98464285D01*
X115738095Y-98559523D01*
X115833333Y-98654761D01*
X115976190Y-98702380D01*
X116214285Y-98702380D01*
X114690476Y-98702380D02*
X115261904Y-98702380D01*
X114976190Y-98702380D02*
X114976190Y-97702380D01*
X115071428Y-97845238D01*
X115166666Y-97940476D01*
X115261904Y-97988095D01*
X114357142Y-97702380D02*
X113738095Y-97702380D01*
X114071428Y-98083333D01*
X113928571Y-98083333D01*
X113833333Y-98130952D01*
X113785714Y-98178571D01*
X113738095Y-98273809D01*
X113738095Y-98511904D01*
X113785714Y-98607142D01*
X113833333Y-98654761D01*
X113928571Y-98702380D01*
X114214285Y-98702380D01*
X114309523Y-98654761D01*
X114357142Y-98607142D01*
X139364285Y-98802380D02*
X139364285Y-97802380D01*
X139126190Y-97802380D01*
X138983333Y-97850000D01*
X138888095Y-97945238D01*
X138840476Y-98040476D01*
X138792857Y-98230952D01*
X138792857Y-98373809D01*
X138840476Y-98564285D01*
X138888095Y-98659523D01*
X138983333Y-98754761D01*
X139126190Y-98802380D01*
X139364285Y-98802380D01*
X137840476Y-98802380D02*
X138411904Y-98802380D01*
X138126190Y-98802380D02*
X138126190Y-97802380D01*
X138221428Y-97945238D01*
X138316666Y-98040476D01*
X138411904Y-98088095D01*
X136983333Y-98135714D02*
X136983333Y-98802380D01*
X137221428Y-97754761D02*
X137459523Y-98469047D01*
X136840476Y-98469047D01*
X144248095Y-147722380D02*
X144248095Y-146722380D01*
X144010000Y-146722380D01*
X143867142Y-146770000D01*
X143771904Y-146865238D01*
X143724285Y-146960476D01*
X143676666Y-147150952D01*
X143676666Y-147293809D01*
X143724285Y-147484285D01*
X143771904Y-147579523D01*
X143867142Y-147674761D01*
X144010000Y-147722380D01*
X144248095Y-147722380D01*
X143200476Y-147722380D02*
X143010000Y-147722380D01*
X142914761Y-147674761D01*
X142867142Y-147627142D01*
X142771904Y-147484285D01*
X142724285Y-147293809D01*
X142724285Y-146912857D01*
X142771904Y-146817619D01*
X142819523Y-146770000D01*
X142914761Y-146722380D01*
X143105238Y-146722380D01*
X143200476Y-146770000D01*
X143248095Y-146817619D01*
X143295714Y-146912857D01*
X143295714Y-147150952D01*
X143248095Y-147246190D01*
X143200476Y-147293809D01*
X143105238Y-147341428D01*
X142914761Y-147341428D01*
X142819523Y-147293809D01*
X142771904Y-147246190D01*
X142724285Y-147150952D01*
X113988095Y-147702380D02*
X113988095Y-146702380D01*
X113750000Y-146702380D01*
X113607142Y-146750000D01*
X113511904Y-146845238D01*
X113464285Y-146940476D01*
X113416666Y-147130952D01*
X113416666Y-147273809D01*
X113464285Y-147464285D01*
X113511904Y-147559523D01*
X113607142Y-147654761D01*
X113750000Y-147702380D01*
X113988095Y-147702380D01*
X113083333Y-146702380D02*
X112416666Y-146702380D01*
X112845238Y-147702380D01*
X152914285Y-149772380D02*
X152914285Y-148772380D01*
X152676190Y-148772380D01*
X152533333Y-148820000D01*
X152438095Y-148915238D01*
X152390476Y-149010476D01*
X152342857Y-149200952D01*
X152342857Y-149343809D01*
X152390476Y-149534285D01*
X152438095Y-149629523D01*
X152533333Y-149724761D01*
X152676190Y-149772380D01*
X152914285Y-149772380D01*
X151390476Y-149772380D02*
X151961904Y-149772380D01*
X151676190Y-149772380D02*
X151676190Y-148772380D01*
X151771428Y-148915238D01*
X151866666Y-149010476D01*
X151961904Y-149058095D01*
X150771428Y-148772380D02*
X150676190Y-148772380D01*
X150580952Y-148820000D01*
X150533333Y-148867619D01*
X150485714Y-148962857D01*
X150438095Y-149153333D01*
X150438095Y-149391428D01*
X150485714Y-149581904D01*
X150533333Y-149677142D01*
X150580952Y-149724761D01*
X150676190Y-149772380D01*
X150771428Y-149772380D01*
X150866666Y-149724761D01*
X150914285Y-149677142D01*
X150961904Y-149581904D01*
X151009523Y-149391428D01*
X151009523Y-149153333D01*
X150961904Y-148962857D01*
X150914285Y-148867619D01*
X150866666Y-148820000D01*
X150771428Y-148772380D01*
X129088095Y-147772380D02*
X129088095Y-146772380D01*
X128850000Y-146772380D01*
X128707142Y-146820000D01*
X128611904Y-146915238D01*
X128564285Y-147010476D01*
X128516666Y-147200952D01*
X128516666Y-147343809D01*
X128564285Y-147534285D01*
X128611904Y-147629523D01*
X128707142Y-147724761D01*
X128850000Y-147772380D01*
X129088095Y-147772380D01*
X127945238Y-147200952D02*
X128040476Y-147153333D01*
X128088095Y-147105714D01*
X128135714Y-147010476D01*
X128135714Y-146962857D01*
X128088095Y-146867619D01*
X128040476Y-146820000D01*
X127945238Y-146772380D01*
X127754761Y-146772380D01*
X127659523Y-146820000D01*
X127611904Y-146867619D01*
X127564285Y-146962857D01*
X127564285Y-147010476D01*
X127611904Y-147105714D01*
X127659523Y-147153333D01*
X127754761Y-147200952D01*
X127945238Y-147200952D01*
X128040476Y-147248571D01*
X128088095Y-147296190D01*
X128135714Y-147391428D01*
X128135714Y-147581904D01*
X128088095Y-147677142D01*
X128040476Y-147724761D01*
X127945238Y-147772380D01*
X127754761Y-147772380D01*
X127659523Y-147724761D01*
X127611904Y-147677142D01*
X127564285Y-147581904D01*
X127564285Y-147391428D01*
X127611904Y-147296190D01*
X127659523Y-147248571D01*
X127754761Y-147200952D01*
X71464285Y-128502380D02*
X71464285Y-127502380D01*
X71226190Y-127502380D01*
X71083333Y-127550000D01*
X70988095Y-127645238D01*
X70940476Y-127740476D01*
X70892857Y-127930952D01*
X70892857Y-128073809D01*
X70940476Y-128264285D01*
X70988095Y-128359523D01*
X71083333Y-128454761D01*
X71226190Y-128502380D01*
X71464285Y-128502380D01*
X69940476Y-128502380D02*
X70511904Y-128502380D01*
X70226190Y-128502380D02*
X70226190Y-127502380D01*
X70321428Y-127645238D01*
X70416666Y-127740476D01*
X70511904Y-127788095D01*
X69083333Y-127502380D02*
X69273809Y-127502380D01*
X69369047Y-127550000D01*
X69416666Y-127597619D01*
X69511904Y-127740476D01*
X69559523Y-127930952D01*
X69559523Y-128311904D01*
X69511904Y-128407142D01*
X69464285Y-128454761D01*
X69369047Y-128502380D01*
X69178571Y-128502380D01*
X69083333Y-128454761D01*
X69035714Y-128407142D01*
X68988095Y-128311904D01*
X68988095Y-128073809D01*
X69035714Y-127978571D01*
X69083333Y-127930952D01*
X69178571Y-127883333D01*
X69369047Y-127883333D01*
X69464285Y-127930952D01*
X69511904Y-127978571D01*
X69559523Y-128073809D01*
X155602095Y-134697380D02*
X155602095Y-133697380D01*
X155364000Y-133697380D01*
X155221142Y-133745000D01*
X155125904Y-133840238D01*
X155078285Y-133935476D01*
X155030666Y-134125952D01*
X155030666Y-134268809D01*
X155078285Y-134459285D01*
X155125904Y-134554523D01*
X155221142Y-134649761D01*
X155364000Y-134697380D01*
X155602095Y-134697380D01*
X154125904Y-133697380D02*
X154602095Y-133697380D01*
X154649714Y-134173571D01*
X154602095Y-134125952D01*
X154506857Y-134078333D01*
X154268761Y-134078333D01*
X154173523Y-134125952D01*
X154125904Y-134173571D01*
X154078285Y-134268809D01*
X154078285Y-134506904D01*
X154125904Y-134602142D01*
X154173523Y-134649761D01*
X154268761Y-134697380D01*
X154506857Y-134697380D01*
X154602095Y-134649761D01*
X154649714Y-134602142D01*
X97318095Y-134762380D02*
X97318095Y-133762380D01*
X97080000Y-133762380D01*
X96937142Y-133810000D01*
X96841904Y-133905238D01*
X96794285Y-134000476D01*
X96746666Y-134190952D01*
X96746666Y-134333809D01*
X96794285Y-134524285D01*
X96841904Y-134619523D01*
X96937142Y-134714761D01*
X97080000Y-134762380D01*
X97318095Y-134762380D01*
X95794285Y-134762380D02*
X96365714Y-134762380D01*
X96080000Y-134762380D02*
X96080000Y-133762380D01*
X96175238Y-133905238D01*
X96270476Y-134000476D01*
X96365714Y-134048095D01*
X110606095Y-134697380D02*
X110606095Y-133697380D01*
X110368000Y-133697380D01*
X110225142Y-133745000D01*
X110129904Y-133840238D01*
X110082285Y-133935476D01*
X110034666Y-134125952D01*
X110034666Y-134268809D01*
X110082285Y-134459285D01*
X110129904Y-134554523D01*
X110225142Y-134649761D01*
X110368000Y-134697380D01*
X110606095Y-134697380D01*
X109653714Y-133792619D02*
X109606095Y-133745000D01*
X109510857Y-133697380D01*
X109272761Y-133697380D01*
X109177523Y-133745000D01*
X109129904Y-133792619D01*
X109082285Y-133887857D01*
X109082285Y-133983095D01*
X109129904Y-134125952D01*
X109701333Y-134697380D01*
X109082285Y-134697380D01*
X140603095Y-134811380D02*
X140603095Y-133811380D01*
X140365000Y-133811380D01*
X140222142Y-133859000D01*
X140126904Y-133954238D01*
X140079285Y-134049476D01*
X140031666Y-134239952D01*
X140031666Y-134382809D01*
X140079285Y-134573285D01*
X140126904Y-134668523D01*
X140222142Y-134763761D01*
X140365000Y-134811380D01*
X140603095Y-134811380D01*
X139174523Y-134144714D02*
X139174523Y-134811380D01*
X139412619Y-133763761D02*
X139650714Y-134478047D01*
X139031666Y-134478047D01*
X99148095Y-147852380D02*
X99148095Y-146852380D01*
X98910000Y-146852380D01*
X98767142Y-146900000D01*
X98671904Y-146995238D01*
X98624285Y-147090476D01*
X98576666Y-147280952D01*
X98576666Y-147423809D01*
X98624285Y-147614285D01*
X98671904Y-147709523D01*
X98767142Y-147804761D01*
X98910000Y-147852380D01*
X99148095Y-147852380D01*
X97719523Y-146852380D02*
X97910000Y-146852380D01*
X98005238Y-146900000D01*
X98052857Y-146947619D01*
X98148095Y-147090476D01*
X98195714Y-147280952D01*
X98195714Y-147661904D01*
X98148095Y-147757142D01*
X98100476Y-147804761D01*
X98005238Y-147852380D01*
X97814761Y-147852380D01*
X97719523Y-147804761D01*
X97671904Y-147757142D01*
X97624285Y-147661904D01*
X97624285Y-147423809D01*
X97671904Y-147328571D01*
X97719523Y-147280952D01*
X97814761Y-147233333D01*
X98005238Y-147233333D01*
X98100476Y-147280952D01*
X98148095Y-147328571D01*
X98195714Y-147423809D01*
X125579095Y-134710380D02*
X125579095Y-133710380D01*
X125341000Y-133710380D01*
X125198142Y-133758000D01*
X125102904Y-133853238D01*
X125055285Y-133948476D01*
X125007666Y-134138952D01*
X125007666Y-134281809D01*
X125055285Y-134472285D01*
X125102904Y-134567523D01*
X125198142Y-134662761D01*
X125341000Y-134710380D01*
X125579095Y-134710380D01*
X124674333Y-133710380D02*
X124055285Y-133710380D01*
X124388619Y-134091333D01*
X124245761Y-134091333D01*
X124150523Y-134138952D01*
X124102904Y-134186571D01*
X124055285Y-134281809D01*
X124055285Y-134519904D01*
X124102904Y-134615142D01*
X124150523Y-134662761D01*
X124245761Y-134710380D01*
X124531476Y-134710380D01*
X124626714Y-134662761D01*
X124674333Y-134615142D01*
X86011904Y-62952380D02*
X86011904Y-63761904D01*
X85964285Y-63857142D01*
X85916666Y-63904761D01*
X85821428Y-63952380D01*
X85630952Y-63952380D01*
X85535714Y-63904761D01*
X85488095Y-63857142D01*
X85440476Y-63761904D01*
X85440476Y-62952380D01*
X84440476Y-63952380D02*
X85011904Y-63952380D01*
X84726190Y-63952380D02*
X84726190Y-62952380D01*
X84821428Y-63095238D01*
X84916666Y-63190476D01*
X85011904Y-63238095D01*
X69166666Y-112452380D02*
X69500000Y-111976190D01*
X69738095Y-112452380D02*
X69738095Y-111452380D01*
X69357142Y-111452380D01*
X69261904Y-111500000D01*
X69214285Y-111547619D01*
X69166666Y-111642857D01*
X69166666Y-111785714D01*
X69214285Y-111880952D01*
X69261904Y-111928571D01*
X69357142Y-111976190D01*
X69738095Y-111976190D01*
X68261904Y-111452380D02*
X68738095Y-111452380D01*
X68785714Y-111928571D01*
X68738095Y-111880952D01*
X68642857Y-111833333D01*
X68404761Y-111833333D01*
X68309523Y-111880952D01*
X68261904Y-111928571D01*
X68214285Y-112023809D01*
X68214285Y-112261904D01*
X68261904Y-112357142D01*
X68309523Y-112404761D01*
X68404761Y-112452380D01*
X68642857Y-112452380D01*
X68738095Y-112404761D01*
X68785714Y-112357142D01*
X69992857Y-142102380D02*
X70326190Y-141626190D01*
X70564285Y-142102380D02*
X70564285Y-141102380D01*
X70183333Y-141102380D01*
X70088095Y-141150000D01*
X70040476Y-141197619D01*
X69992857Y-141292857D01*
X69992857Y-141435714D01*
X70040476Y-141530952D01*
X70088095Y-141578571D01*
X70183333Y-141626190D01*
X70564285Y-141626190D01*
X69040476Y-142102380D02*
X69611904Y-142102380D01*
X69326190Y-142102380D02*
X69326190Y-141102380D01*
X69421428Y-141245238D01*
X69516666Y-141340476D01*
X69611904Y-141388095D01*
X68135714Y-141102380D02*
X68611904Y-141102380D01*
X68659523Y-141578571D01*
X68611904Y-141530952D01*
X68516666Y-141483333D01*
X68278571Y-141483333D01*
X68183333Y-141530952D01*
X68135714Y-141578571D01*
X68088095Y-141673809D01*
X68088095Y-141911904D01*
X68135714Y-142007142D01*
X68183333Y-142054761D01*
X68278571Y-142102380D01*
X68516666Y-142102380D01*
X68611904Y-142054761D01*
X68659523Y-142007142D01*
X81142857Y-142202380D02*
X81476190Y-141726190D01*
X81714285Y-142202380D02*
X81714285Y-141202380D01*
X81333333Y-141202380D01*
X81238095Y-141250000D01*
X81190476Y-141297619D01*
X81142857Y-141392857D01*
X81142857Y-141535714D01*
X81190476Y-141630952D01*
X81238095Y-141678571D01*
X81333333Y-141726190D01*
X81714285Y-141726190D01*
X80190476Y-142202380D02*
X80761904Y-142202380D01*
X80476190Y-142202380D02*
X80476190Y-141202380D01*
X80571428Y-141345238D01*
X80666666Y-141440476D01*
X80761904Y-141488095D01*
X79333333Y-141202380D02*
X79523809Y-141202380D01*
X79619047Y-141250000D01*
X79666666Y-141297619D01*
X79761904Y-141440476D01*
X79809523Y-141630952D01*
X79809523Y-142011904D01*
X79761904Y-142107142D01*
X79714285Y-142154761D01*
X79619047Y-142202380D01*
X79428571Y-142202380D01*
X79333333Y-142154761D01*
X79285714Y-142107142D01*
X79238095Y-142011904D01*
X79238095Y-141773809D01*
X79285714Y-141678571D01*
X79333333Y-141630952D01*
X79428571Y-141583333D01*
X79619047Y-141583333D01*
X79714285Y-141630952D01*
X79761904Y-141678571D01*
X79809523Y-141773809D01*
X123602380Y-125733333D02*
X123126190Y-125400000D01*
X123602380Y-125161904D02*
X122602380Y-125161904D01*
X122602380Y-125542857D01*
X122650000Y-125638095D01*
X122697619Y-125685714D01*
X122792857Y-125733333D01*
X122935714Y-125733333D01*
X123030952Y-125685714D01*
X123078571Y-125638095D01*
X123126190Y-125542857D01*
X123126190Y-125161904D01*
X122602380Y-126066666D02*
X122602380Y-126685714D01*
X122983333Y-126352380D01*
X122983333Y-126495238D01*
X123030952Y-126590476D01*
X123078571Y-126638095D01*
X123173809Y-126685714D01*
X123411904Y-126685714D01*
X123507142Y-126638095D01*
X123554761Y-126590476D01*
X123602380Y-126495238D01*
X123602380Y-126209523D01*
X123554761Y-126114285D01*
X123507142Y-126066666D01*
X103242857Y-59932380D02*
X103576190Y-59456190D01*
X103814285Y-59932380D02*
X103814285Y-58932380D01*
X103433333Y-58932380D01*
X103338095Y-58980000D01*
X103290476Y-59027619D01*
X103242857Y-59122857D01*
X103242857Y-59265714D01*
X103290476Y-59360952D01*
X103338095Y-59408571D01*
X103433333Y-59456190D01*
X103814285Y-59456190D01*
X102290476Y-59932380D02*
X102861904Y-59932380D01*
X102576190Y-59932380D02*
X102576190Y-58932380D01*
X102671428Y-59075238D01*
X102766666Y-59170476D01*
X102861904Y-59218095D01*
X101957142Y-58932380D02*
X101290476Y-58932380D01*
X101719047Y-59932380D01*
X95652380Y-88257142D02*
X95176190Y-87923809D01*
X95652380Y-87685714D02*
X94652380Y-87685714D01*
X94652380Y-88066666D01*
X94700000Y-88161904D01*
X94747619Y-88209523D01*
X94842857Y-88257142D01*
X94985714Y-88257142D01*
X95080952Y-88209523D01*
X95128571Y-88161904D01*
X95176190Y-88066666D01*
X95176190Y-87685714D01*
X95652380Y-89209523D02*
X95652380Y-88638095D01*
X95652380Y-88923809D02*
X94652380Y-88923809D01*
X94795238Y-88828571D01*
X94890476Y-88733333D01*
X94938095Y-88638095D01*
X95652380Y-89685714D02*
X95652380Y-89876190D01*
X95604761Y-89971428D01*
X95557142Y-90019047D01*
X95414285Y-90114285D01*
X95223809Y-90161904D01*
X94842857Y-90161904D01*
X94747619Y-90114285D01*
X94700000Y-90066666D01*
X94652380Y-89971428D01*
X94652380Y-89780952D01*
X94700000Y-89685714D01*
X94747619Y-89638095D01*
X94842857Y-89590476D01*
X95080952Y-89590476D01*
X95176190Y-89638095D01*
X95223809Y-89685714D01*
X95271428Y-89780952D01*
X95271428Y-89971428D01*
X95223809Y-90066666D01*
X95176190Y-90114285D01*
X95080952Y-90161904D01*
X93702380Y-88369642D02*
X93226190Y-88036309D01*
X93702380Y-87798214D02*
X92702380Y-87798214D01*
X92702380Y-88179166D01*
X92750000Y-88274404D01*
X92797619Y-88322023D01*
X92892857Y-88369642D01*
X93035714Y-88369642D01*
X93130952Y-88322023D01*
X93178571Y-88274404D01*
X93226190Y-88179166D01*
X93226190Y-87798214D01*
X92797619Y-88750595D02*
X92750000Y-88798214D01*
X92702380Y-88893452D01*
X92702380Y-89131547D01*
X92750000Y-89226785D01*
X92797619Y-89274404D01*
X92892857Y-89322023D01*
X92988095Y-89322023D01*
X93130952Y-89274404D01*
X93702380Y-88702976D01*
X93702380Y-89322023D01*
X92702380Y-89941071D02*
X92702380Y-90036309D01*
X92750000Y-90131547D01*
X92797619Y-90179166D01*
X92892857Y-90226785D01*
X93083333Y-90274404D01*
X93321428Y-90274404D01*
X93511904Y-90226785D01*
X93607142Y-90179166D01*
X93654761Y-90131547D01*
X93702380Y-90036309D01*
X93702380Y-89941071D01*
X93654761Y-89845833D01*
X93607142Y-89798214D01*
X93511904Y-89750595D01*
X93321428Y-89702976D01*
X93083333Y-89702976D01*
X92892857Y-89750595D01*
X92797619Y-89798214D01*
X92750000Y-89845833D01*
X92702380Y-89941071D01*
X108602380Y-125683333D02*
X108126190Y-125350000D01*
X108602380Y-125111904D02*
X107602380Y-125111904D01*
X107602380Y-125492857D01*
X107650000Y-125588095D01*
X107697619Y-125635714D01*
X107792857Y-125683333D01*
X107935714Y-125683333D01*
X108030952Y-125635714D01*
X108078571Y-125588095D01*
X108126190Y-125492857D01*
X108126190Y-125111904D01*
X107697619Y-126064285D02*
X107650000Y-126111904D01*
X107602380Y-126207142D01*
X107602380Y-126445238D01*
X107650000Y-126540476D01*
X107697619Y-126588095D01*
X107792857Y-126635714D01*
X107888095Y-126635714D01*
X108030952Y-126588095D01*
X108602380Y-126016666D01*
X108602380Y-126635714D01*
X93752380Y-125633333D02*
X93276190Y-125300000D01*
X93752380Y-125061904D02*
X92752380Y-125061904D01*
X92752380Y-125442857D01*
X92800000Y-125538095D01*
X92847619Y-125585714D01*
X92942857Y-125633333D01*
X93085714Y-125633333D01*
X93180952Y-125585714D01*
X93228571Y-125538095D01*
X93276190Y-125442857D01*
X93276190Y-125061904D01*
X93752380Y-126585714D02*
X93752380Y-126014285D01*
X93752380Y-126300000D02*
X92752380Y-126300000D01*
X92895238Y-126204761D01*
X92990476Y-126109523D01*
X93038095Y-126014285D01*
X138552380Y-125483333D02*
X138076190Y-125150000D01*
X138552380Y-124911904D02*
X137552380Y-124911904D01*
X137552380Y-125292857D01*
X137600000Y-125388095D01*
X137647619Y-125435714D01*
X137742857Y-125483333D01*
X137885714Y-125483333D01*
X137980952Y-125435714D01*
X138028571Y-125388095D01*
X138076190Y-125292857D01*
X138076190Y-124911904D01*
X137885714Y-126340476D02*
X138552380Y-126340476D01*
X137504761Y-126102380D02*
X138219047Y-125864285D01*
X138219047Y-126483333D01*
X79687657Y-79218780D02*
X80020990Y-78742590D01*
X80259085Y-79218780D02*
X80259085Y-78218780D01*
X79878133Y-78218780D01*
X79782895Y-78266400D01*
X79735276Y-78314019D01*
X79687657Y-78409257D01*
X79687657Y-78552114D01*
X79735276Y-78647352D01*
X79782895Y-78694971D01*
X79878133Y-78742590D01*
X80259085Y-78742590D01*
X78735276Y-79218780D02*
X79306704Y-79218780D01*
X79020990Y-79218780D02*
X79020990Y-78218780D01*
X79116228Y-78361638D01*
X79211466Y-78456876D01*
X79306704Y-78504495D01*
X78163847Y-78647352D02*
X78259085Y-78599733D01*
X78306704Y-78552114D01*
X78354323Y-78456876D01*
X78354323Y-78409257D01*
X78306704Y-78314019D01*
X78259085Y-78266400D01*
X78163847Y-78218780D01*
X77973371Y-78218780D01*
X77878133Y-78266400D01*
X77830514Y-78314019D01*
X77782895Y-78409257D01*
X77782895Y-78456876D01*
X77830514Y-78552114D01*
X77878133Y-78599733D01*
X77973371Y-78647352D01*
X78163847Y-78647352D01*
X78259085Y-78694971D01*
X78306704Y-78742590D01*
X78354323Y-78837828D01*
X78354323Y-79028304D01*
X78306704Y-79123542D01*
X78259085Y-79171161D01*
X78163847Y-79218780D01*
X77973371Y-79218780D01*
X77878133Y-79171161D01*
X77830514Y-79123542D01*
X77782895Y-79028304D01*
X77782895Y-78837828D01*
X77830514Y-78742590D01*
X77878133Y-78694971D01*
X77973371Y-78647352D01*
X149692857Y-112452380D02*
X150026190Y-111976190D01*
X150264285Y-112452380D02*
X150264285Y-111452380D01*
X149883333Y-111452380D01*
X149788095Y-111500000D01*
X149740476Y-111547619D01*
X149692857Y-111642857D01*
X149692857Y-111785714D01*
X149740476Y-111880952D01*
X149788095Y-111928571D01*
X149883333Y-111976190D01*
X150264285Y-111976190D01*
X148740476Y-112452380D02*
X149311904Y-112452380D01*
X149026190Y-112452380D02*
X149026190Y-111452380D01*
X149121428Y-111595238D01*
X149216666Y-111690476D01*
X149311904Y-111738095D01*
X148407142Y-111452380D02*
X147788095Y-111452380D01*
X148121428Y-111833333D01*
X147978571Y-111833333D01*
X147883333Y-111880952D01*
X147835714Y-111928571D01*
X147788095Y-112023809D01*
X147788095Y-112261904D01*
X147835714Y-112357142D01*
X147883333Y-112404761D01*
X147978571Y-112452380D01*
X148264285Y-112452380D01*
X148359523Y-112404761D01*
X148407142Y-112357142D01*
X161142857Y-112452380D02*
X161476190Y-111976190D01*
X161714285Y-112452380D02*
X161714285Y-111452380D01*
X161333333Y-111452380D01*
X161238095Y-111500000D01*
X161190476Y-111547619D01*
X161142857Y-111642857D01*
X161142857Y-111785714D01*
X161190476Y-111880952D01*
X161238095Y-111928571D01*
X161333333Y-111976190D01*
X161714285Y-111976190D01*
X160190476Y-112452380D02*
X160761904Y-112452380D01*
X160476190Y-112452380D02*
X160476190Y-111452380D01*
X160571428Y-111595238D01*
X160666666Y-111690476D01*
X160761904Y-111738095D01*
X159333333Y-111785714D02*
X159333333Y-112452380D01*
X159571428Y-111404761D02*
X159809523Y-112119047D01*
X159190476Y-112119047D01*
X129642857Y-112452380D02*
X129976190Y-111976190D01*
X130214285Y-112452380D02*
X130214285Y-111452380D01*
X129833333Y-111452380D01*
X129738095Y-111500000D01*
X129690476Y-111547619D01*
X129642857Y-111642857D01*
X129642857Y-111785714D01*
X129690476Y-111880952D01*
X129738095Y-111928571D01*
X129833333Y-111976190D01*
X130214285Y-111976190D01*
X128690476Y-112452380D02*
X129261904Y-112452380D01*
X128976190Y-112452380D02*
X128976190Y-111452380D01*
X129071428Y-111595238D01*
X129166666Y-111690476D01*
X129261904Y-111738095D01*
X127738095Y-112452380D02*
X128309523Y-112452380D01*
X128023809Y-112452380D02*
X128023809Y-111452380D01*
X128119047Y-111595238D01*
X128214285Y-111690476D01*
X128309523Y-111738095D01*
X121142857Y-112202380D02*
X121476190Y-111726190D01*
X121714285Y-112202380D02*
X121714285Y-111202380D01*
X121333333Y-111202380D01*
X121238095Y-111250000D01*
X121190476Y-111297619D01*
X121142857Y-111392857D01*
X121142857Y-111535714D01*
X121190476Y-111630952D01*
X121238095Y-111678571D01*
X121333333Y-111726190D01*
X121714285Y-111726190D01*
X120190476Y-112202380D02*
X120761904Y-112202380D01*
X120476190Y-112202380D02*
X120476190Y-111202380D01*
X120571428Y-111345238D01*
X120666666Y-111440476D01*
X120761904Y-111488095D01*
X119571428Y-111202380D02*
X119476190Y-111202380D01*
X119380952Y-111250000D01*
X119333333Y-111297619D01*
X119285714Y-111392857D01*
X119238095Y-111583333D01*
X119238095Y-111821428D01*
X119285714Y-112011904D01*
X119333333Y-112107142D01*
X119380952Y-112154761D01*
X119476190Y-112202380D01*
X119571428Y-112202380D01*
X119666666Y-112154761D01*
X119714285Y-112107142D01*
X119761904Y-112011904D01*
X119809523Y-111821428D01*
X119809523Y-111583333D01*
X119761904Y-111392857D01*
X119714285Y-111297619D01*
X119666666Y-111250000D01*
X119571428Y-111202380D01*
X109154166Y-112202380D02*
X109487500Y-111726190D01*
X109725595Y-112202380D02*
X109725595Y-111202380D01*
X109344642Y-111202380D01*
X109249404Y-111250000D01*
X109201785Y-111297619D01*
X109154166Y-111392857D01*
X109154166Y-111535714D01*
X109201785Y-111630952D01*
X109249404Y-111678571D01*
X109344642Y-111726190D01*
X109725595Y-111726190D01*
X108677976Y-112202380D02*
X108487500Y-112202380D01*
X108392261Y-112154761D01*
X108344642Y-112107142D01*
X108249404Y-111964285D01*
X108201785Y-111773809D01*
X108201785Y-111392857D01*
X108249404Y-111297619D01*
X108297023Y-111250000D01*
X108392261Y-111202380D01*
X108582738Y-111202380D01*
X108677976Y-111250000D01*
X108725595Y-111297619D01*
X108773214Y-111392857D01*
X108773214Y-111630952D01*
X108725595Y-111726190D01*
X108677976Y-111773809D01*
X108582738Y-111821428D01*
X108392261Y-111821428D01*
X108297023Y-111773809D01*
X108249404Y-111726190D01*
X108201785Y-111630952D01*
X100616666Y-112452380D02*
X100950000Y-111976190D01*
X101188095Y-112452380D02*
X101188095Y-111452380D01*
X100807142Y-111452380D01*
X100711904Y-111500000D01*
X100664285Y-111547619D01*
X100616666Y-111642857D01*
X100616666Y-111785714D01*
X100664285Y-111880952D01*
X100711904Y-111928571D01*
X100807142Y-111976190D01*
X101188095Y-111976190D01*
X100045238Y-111880952D02*
X100140476Y-111833333D01*
X100188095Y-111785714D01*
X100235714Y-111690476D01*
X100235714Y-111642857D01*
X100188095Y-111547619D01*
X100140476Y-111500000D01*
X100045238Y-111452380D01*
X99854761Y-111452380D01*
X99759523Y-111500000D01*
X99711904Y-111547619D01*
X99664285Y-111642857D01*
X99664285Y-111690476D01*
X99711904Y-111785714D01*
X99759523Y-111833333D01*
X99854761Y-111880952D01*
X100045238Y-111880952D01*
X100140476Y-111928571D01*
X100188095Y-111976190D01*
X100235714Y-112071428D01*
X100235714Y-112261904D01*
X100188095Y-112357142D01*
X100140476Y-112404761D01*
X100045238Y-112452380D01*
X99854761Y-112452380D01*
X99759523Y-112404761D01*
X99711904Y-112357142D01*
X99664285Y-112261904D01*
X99664285Y-112071428D01*
X99711904Y-111976190D01*
X99759523Y-111928571D01*
X99854761Y-111880952D01*
X89704166Y-112452380D02*
X90037500Y-111976190D01*
X90275595Y-112452380D02*
X90275595Y-111452380D01*
X89894642Y-111452380D01*
X89799404Y-111500000D01*
X89751785Y-111547619D01*
X89704166Y-111642857D01*
X89704166Y-111785714D01*
X89751785Y-111880952D01*
X89799404Y-111928571D01*
X89894642Y-111976190D01*
X90275595Y-111976190D01*
X89370833Y-111452380D02*
X88704166Y-111452380D01*
X89132738Y-112452380D01*
X141005357Y-112452380D02*
X141338690Y-111976190D01*
X141576785Y-112452380D02*
X141576785Y-111452380D01*
X141195833Y-111452380D01*
X141100595Y-111500000D01*
X141052976Y-111547619D01*
X141005357Y-111642857D01*
X141005357Y-111785714D01*
X141052976Y-111880952D01*
X141100595Y-111928571D01*
X141195833Y-111976190D01*
X141576785Y-111976190D01*
X140052976Y-112452380D02*
X140624404Y-112452380D01*
X140338690Y-112452380D02*
X140338690Y-111452380D01*
X140433928Y-111595238D01*
X140529166Y-111690476D01*
X140624404Y-111738095D01*
X139672023Y-111547619D02*
X139624404Y-111500000D01*
X139529166Y-111452380D01*
X139291071Y-111452380D01*
X139195833Y-111500000D01*
X139148214Y-111547619D01*
X139100595Y-111642857D01*
X139100595Y-111738095D01*
X139148214Y-111880952D01*
X139719642Y-112452380D01*
X139100595Y-112452380D01*
X83779166Y-110452380D02*
X84112500Y-109976190D01*
X84350595Y-110452380D02*
X84350595Y-109452380D01*
X83969642Y-109452380D01*
X83874404Y-109500000D01*
X83826785Y-109547619D01*
X83779166Y-109642857D01*
X83779166Y-109785714D01*
X83826785Y-109880952D01*
X83874404Y-109928571D01*
X83969642Y-109976190D01*
X84350595Y-109976190D01*
X82922023Y-109452380D02*
X83112500Y-109452380D01*
X83207738Y-109500000D01*
X83255357Y-109547619D01*
X83350595Y-109690476D01*
X83398214Y-109880952D01*
X83398214Y-110261904D01*
X83350595Y-110357142D01*
X83302976Y-110404761D01*
X83207738Y-110452380D01*
X83017261Y-110452380D01*
X82922023Y-110404761D01*
X82874404Y-110357142D01*
X82826785Y-110261904D01*
X82826785Y-110023809D01*
X82874404Y-109928571D01*
X82922023Y-109880952D01*
X83017261Y-109833333D01*
X83207738Y-109833333D01*
X83302976Y-109880952D01*
X83350595Y-109928571D01*
X83398214Y-110023809D01*
M02*
