G04 #@! TF.GenerationSoftware,KiCad,Pcbnew,(5.1.2)-1*
G04 #@! TF.CreationDate,2019-08-13T23:38:33+09:00*
G04 #@! TF.ProjectId,LrE-6,4c72452d-362e-46b6-9963-61645f706362,rev?*
G04 #@! TF.SameCoordinates,Original*
G04 #@! TF.FileFunction,Soldermask,Top*
G04 #@! TF.FilePolarity,Negative*
%FSLAX46Y46*%
G04 Gerber Fmt 4.6, Leading zero omitted, Abs format (unit mm)*
G04 Created by KiCad (PCBNEW (5.1.2)-1) date 2019-08-13 23:38:33*
%MOMM*%
%LPD*%
G04 APERTURE LIST*
%ADD10C,0.100000*%
G04 APERTURE END LIST*
D10*
G36*
X160375256Y-148391298D02*
G01*
X160481579Y-148412447D01*
X160782042Y-148536903D01*
X161052451Y-148717585D01*
X161282415Y-148947549D01*
X161463097Y-149217958D01*
X161587553Y-149518421D01*
X161597547Y-149568663D01*
X161651000Y-149837389D01*
X161651000Y-150162611D01*
X161587553Y-150481578D01*
X161481294Y-150738112D01*
X161463097Y-150782042D01*
X161282415Y-151052451D01*
X161052451Y-151282415D01*
X160782042Y-151463097D01*
X160481579Y-151587553D01*
X160375256Y-151608702D01*
X160162611Y-151651000D01*
X159837389Y-151651000D01*
X159624744Y-151608702D01*
X159518421Y-151587553D01*
X159217958Y-151463097D01*
X158947549Y-151282415D01*
X158717585Y-151052451D01*
X158536903Y-150782042D01*
X158518707Y-150738112D01*
X158412447Y-150481578D01*
X158349000Y-150162611D01*
X158349000Y-149837389D01*
X158402453Y-149568663D01*
X158412447Y-149518421D01*
X158536903Y-149217958D01*
X158717585Y-148947549D01*
X158947549Y-148717585D01*
X159217958Y-148536903D01*
X159518421Y-148412447D01*
X159624744Y-148391298D01*
X159837389Y-148349000D01*
X160162611Y-148349000D01*
X160375256Y-148391298D01*
X160375256Y-148391298D01*
G37*
G36*
X70375256Y-148391298D02*
G01*
X70481579Y-148412447D01*
X70782042Y-148536903D01*
X71052451Y-148717585D01*
X71282415Y-148947549D01*
X71463097Y-149217958D01*
X71587553Y-149518421D01*
X71597547Y-149568663D01*
X71651000Y-149837389D01*
X71651000Y-150162611D01*
X71587553Y-150481578D01*
X71481294Y-150738112D01*
X71463097Y-150782042D01*
X71282415Y-151052451D01*
X71052451Y-151282415D01*
X70782042Y-151463097D01*
X70481579Y-151587553D01*
X70375256Y-151608702D01*
X70162611Y-151651000D01*
X69837389Y-151651000D01*
X69624744Y-151608702D01*
X69518421Y-151587553D01*
X69217958Y-151463097D01*
X68947549Y-151282415D01*
X68717585Y-151052451D01*
X68536903Y-150782042D01*
X68518707Y-150738112D01*
X68412447Y-150481578D01*
X68349000Y-150162611D01*
X68349000Y-149837389D01*
X68402453Y-149568663D01*
X68412447Y-149518421D01*
X68536903Y-149217958D01*
X68717585Y-148947549D01*
X68947549Y-148717585D01*
X69217958Y-148536903D01*
X69518421Y-148412447D01*
X69624744Y-148391298D01*
X69837389Y-148349000D01*
X70162611Y-148349000D01*
X70375256Y-148391298D01*
X70375256Y-148391298D01*
G37*
G36*
X84534468Y-149453565D02*
G01*
X84573138Y-149465296D01*
X84608777Y-149484346D01*
X84640017Y-149509983D01*
X84665654Y-149541223D01*
X84684704Y-149576862D01*
X84696435Y-149615532D01*
X84701000Y-149661888D01*
X84701000Y-150738112D01*
X84696435Y-150784468D01*
X84684704Y-150823138D01*
X84665654Y-150858777D01*
X84640017Y-150890017D01*
X84608777Y-150915654D01*
X84573138Y-150934704D01*
X84534468Y-150946435D01*
X84488112Y-150951000D01*
X83836888Y-150951000D01*
X83790532Y-150946435D01*
X83751862Y-150934704D01*
X83716223Y-150915654D01*
X83684983Y-150890017D01*
X83659346Y-150858777D01*
X83640296Y-150823138D01*
X83628565Y-150784468D01*
X83624000Y-150738112D01*
X83624000Y-149661888D01*
X83628565Y-149615532D01*
X83640296Y-149576862D01*
X83659346Y-149541223D01*
X83684983Y-149509983D01*
X83716223Y-149484346D01*
X83751862Y-149465296D01*
X83790532Y-149453565D01*
X83836888Y-149449000D01*
X84488112Y-149449000D01*
X84534468Y-149453565D01*
X84534468Y-149453565D01*
G37*
G36*
X86409468Y-149453565D02*
G01*
X86448138Y-149465296D01*
X86483777Y-149484346D01*
X86515017Y-149509983D01*
X86540654Y-149541223D01*
X86559704Y-149576862D01*
X86571435Y-149615532D01*
X86576000Y-149661888D01*
X86576000Y-150738112D01*
X86571435Y-150784468D01*
X86559704Y-150823138D01*
X86540654Y-150858777D01*
X86515017Y-150890017D01*
X86483777Y-150915654D01*
X86448138Y-150934704D01*
X86409468Y-150946435D01*
X86363112Y-150951000D01*
X85711888Y-150951000D01*
X85665532Y-150946435D01*
X85626862Y-150934704D01*
X85591223Y-150915654D01*
X85559983Y-150890017D01*
X85534346Y-150858777D01*
X85515296Y-150823138D01*
X85503565Y-150784468D01*
X85499000Y-150738112D01*
X85499000Y-149661888D01*
X85503565Y-149615532D01*
X85515296Y-149576862D01*
X85534346Y-149541223D01*
X85559983Y-149509983D01*
X85591223Y-149484346D01*
X85626862Y-149465296D01*
X85665532Y-149453565D01*
X85711888Y-149449000D01*
X86363112Y-149449000D01*
X86409468Y-149453565D01*
X86409468Y-149453565D01*
G37*
G36*
X86451000Y-148601000D02*
G01*
X85549000Y-148601000D01*
X85549000Y-147599000D01*
X86451000Y-147599000D01*
X86451000Y-148601000D01*
X86451000Y-148601000D01*
G37*
G36*
X76234468Y-146178565D02*
G01*
X76273138Y-146190296D01*
X76308777Y-146209346D01*
X76340017Y-146234983D01*
X76365654Y-146266223D01*
X76384704Y-146301862D01*
X76396435Y-146340532D01*
X76401000Y-146386888D01*
X76401000Y-147463112D01*
X76396435Y-147509468D01*
X76384704Y-147548138D01*
X76365654Y-147583777D01*
X76340017Y-147615017D01*
X76308777Y-147640654D01*
X76273138Y-147659704D01*
X76234468Y-147671435D01*
X76188112Y-147676000D01*
X75536888Y-147676000D01*
X75490532Y-147671435D01*
X75451862Y-147659704D01*
X75416223Y-147640654D01*
X75384983Y-147615017D01*
X75359346Y-147583777D01*
X75340296Y-147548138D01*
X75328565Y-147509468D01*
X75324000Y-147463112D01*
X75324000Y-146386888D01*
X75328565Y-146340532D01*
X75340296Y-146301862D01*
X75359346Y-146266223D01*
X75384983Y-146234983D01*
X75416223Y-146209346D01*
X75451862Y-146190296D01*
X75490532Y-146178565D01*
X75536888Y-146174000D01*
X76188112Y-146174000D01*
X76234468Y-146178565D01*
X76234468Y-146178565D01*
G37*
G36*
X74359468Y-146178565D02*
G01*
X74398138Y-146190296D01*
X74433777Y-146209346D01*
X74465017Y-146234983D01*
X74490654Y-146266223D01*
X74509704Y-146301862D01*
X74521435Y-146340532D01*
X74526000Y-146386888D01*
X74526000Y-147463112D01*
X74521435Y-147509468D01*
X74509704Y-147548138D01*
X74490654Y-147583777D01*
X74465017Y-147615017D01*
X74433777Y-147640654D01*
X74398138Y-147659704D01*
X74359468Y-147671435D01*
X74313112Y-147676000D01*
X73661888Y-147676000D01*
X73615532Y-147671435D01*
X73576862Y-147659704D01*
X73541223Y-147640654D01*
X73509983Y-147615017D01*
X73484346Y-147583777D01*
X73465296Y-147548138D01*
X73453565Y-147509468D01*
X73449000Y-147463112D01*
X73449000Y-146386888D01*
X73453565Y-146340532D01*
X73465296Y-146301862D01*
X73484346Y-146266223D01*
X73509983Y-146234983D01*
X73541223Y-146209346D01*
X73576862Y-146190296D01*
X73615532Y-146178565D01*
X73661888Y-146174000D01*
X74313112Y-146174000D01*
X74359468Y-146178565D01*
X74359468Y-146178565D01*
G37*
G36*
X87401000Y-146601000D02*
G01*
X86499000Y-146601000D01*
X86499000Y-145599000D01*
X87401000Y-145599000D01*
X87401000Y-146601000D01*
X87401000Y-146601000D01*
G37*
G36*
X85501000Y-146601000D02*
G01*
X84599000Y-146601000D01*
X84599000Y-145599000D01*
X85501000Y-145599000D01*
X85501000Y-146601000D01*
X85501000Y-146601000D01*
G37*
G36*
X135306564Y-143489389D02*
G01*
X135497833Y-143568615D01*
X135497835Y-143568616D01*
X135669973Y-143683635D01*
X135816365Y-143830027D01*
X135931385Y-144002167D01*
X136010611Y-144193436D01*
X136051000Y-144396484D01*
X136051000Y-144603516D01*
X136010611Y-144806564D01*
X135931385Y-144997833D01*
X135931384Y-144997835D01*
X135816365Y-145169973D01*
X135669973Y-145316365D01*
X135497835Y-145431384D01*
X135497834Y-145431385D01*
X135497833Y-145431385D01*
X135306564Y-145510611D01*
X135103516Y-145551000D01*
X134896484Y-145551000D01*
X134693436Y-145510611D01*
X134502167Y-145431385D01*
X134502166Y-145431385D01*
X134502165Y-145431384D01*
X134330027Y-145316365D01*
X134183635Y-145169973D01*
X134068616Y-144997835D01*
X134068615Y-144997833D01*
X133989389Y-144806564D01*
X133949000Y-144603516D01*
X133949000Y-144396484D01*
X133989389Y-144193436D01*
X134068615Y-144002167D01*
X134183635Y-143830027D01*
X134330027Y-143683635D01*
X134502165Y-143568616D01*
X134502167Y-143568615D01*
X134693436Y-143489389D01*
X134896484Y-143449000D01*
X135103516Y-143449000D01*
X135306564Y-143489389D01*
X135306564Y-143489389D01*
G37*
G36*
X120306564Y-143489389D02*
G01*
X120497833Y-143568615D01*
X120497835Y-143568616D01*
X120669973Y-143683635D01*
X120816365Y-143830027D01*
X120931385Y-144002167D01*
X121010611Y-144193436D01*
X121051000Y-144396484D01*
X121051000Y-144603516D01*
X121010611Y-144806564D01*
X120931385Y-144997833D01*
X120931384Y-144997835D01*
X120816365Y-145169973D01*
X120669973Y-145316365D01*
X120497835Y-145431384D01*
X120497834Y-145431385D01*
X120497833Y-145431385D01*
X120306564Y-145510611D01*
X120103516Y-145551000D01*
X119896484Y-145551000D01*
X119693436Y-145510611D01*
X119502167Y-145431385D01*
X119502166Y-145431385D01*
X119502165Y-145431384D01*
X119330027Y-145316365D01*
X119183635Y-145169973D01*
X119068616Y-144997835D01*
X119068615Y-144997833D01*
X118989389Y-144806564D01*
X118949000Y-144603516D01*
X118949000Y-144396484D01*
X118989389Y-144193436D01*
X119068615Y-144002167D01*
X119183635Y-143830027D01*
X119330027Y-143683635D01*
X119502165Y-143568616D01*
X119502167Y-143568615D01*
X119693436Y-143489389D01*
X119896484Y-143449000D01*
X120103516Y-143449000D01*
X120306564Y-143489389D01*
X120306564Y-143489389D01*
G37*
G36*
X141806564Y-143489389D02*
G01*
X141997833Y-143568615D01*
X141997835Y-143568616D01*
X142169973Y-143683635D01*
X142316365Y-143830027D01*
X142431385Y-144002167D01*
X142510611Y-144193436D01*
X142551000Y-144396484D01*
X142551000Y-144603516D01*
X142510611Y-144806564D01*
X142431385Y-144997833D01*
X142431384Y-144997835D01*
X142316365Y-145169973D01*
X142169973Y-145316365D01*
X141997835Y-145431384D01*
X141997834Y-145431385D01*
X141997833Y-145431385D01*
X141806564Y-145510611D01*
X141603516Y-145551000D01*
X141396484Y-145551000D01*
X141193436Y-145510611D01*
X141002167Y-145431385D01*
X141002166Y-145431385D01*
X141002165Y-145431384D01*
X140830027Y-145316365D01*
X140683635Y-145169973D01*
X140568616Y-144997835D01*
X140568615Y-144997833D01*
X140489389Y-144806564D01*
X140449000Y-144603516D01*
X140449000Y-144396484D01*
X140489389Y-144193436D01*
X140568615Y-144002167D01*
X140683635Y-143830027D01*
X140830027Y-143683635D01*
X141002165Y-143568616D01*
X141002167Y-143568615D01*
X141193436Y-143489389D01*
X141396484Y-143449000D01*
X141603516Y-143449000D01*
X141806564Y-143489389D01*
X141806564Y-143489389D01*
G37*
G36*
X126806564Y-143489389D02*
G01*
X126997833Y-143568615D01*
X126997835Y-143568616D01*
X127169973Y-143683635D01*
X127316365Y-143830027D01*
X127431385Y-144002167D01*
X127510611Y-144193436D01*
X127551000Y-144396484D01*
X127551000Y-144603516D01*
X127510611Y-144806564D01*
X127431385Y-144997833D01*
X127431384Y-144997835D01*
X127316365Y-145169973D01*
X127169973Y-145316365D01*
X126997835Y-145431384D01*
X126997834Y-145431385D01*
X126997833Y-145431385D01*
X126806564Y-145510611D01*
X126603516Y-145551000D01*
X126396484Y-145551000D01*
X126193436Y-145510611D01*
X126002167Y-145431385D01*
X126002166Y-145431385D01*
X126002165Y-145431384D01*
X125830027Y-145316365D01*
X125683635Y-145169973D01*
X125568616Y-144997835D01*
X125568615Y-144997833D01*
X125489389Y-144806564D01*
X125449000Y-144603516D01*
X125449000Y-144396484D01*
X125489389Y-144193436D01*
X125568615Y-144002167D01*
X125683635Y-143830027D01*
X125830027Y-143683635D01*
X126002165Y-143568616D01*
X126002167Y-143568615D01*
X126193436Y-143489389D01*
X126396484Y-143449000D01*
X126603516Y-143449000D01*
X126806564Y-143489389D01*
X126806564Y-143489389D01*
G37*
G36*
X156806564Y-143489389D02*
G01*
X156997833Y-143568615D01*
X156997835Y-143568616D01*
X157169973Y-143683635D01*
X157316365Y-143830027D01*
X157431385Y-144002167D01*
X157510611Y-144193436D01*
X157551000Y-144396484D01*
X157551000Y-144603516D01*
X157510611Y-144806564D01*
X157431385Y-144997833D01*
X157431384Y-144997835D01*
X157316365Y-145169973D01*
X157169973Y-145316365D01*
X156997835Y-145431384D01*
X156997834Y-145431385D01*
X156997833Y-145431385D01*
X156806564Y-145510611D01*
X156603516Y-145551000D01*
X156396484Y-145551000D01*
X156193436Y-145510611D01*
X156002167Y-145431385D01*
X156002166Y-145431385D01*
X156002165Y-145431384D01*
X155830027Y-145316365D01*
X155683635Y-145169973D01*
X155568616Y-144997835D01*
X155568615Y-144997833D01*
X155489389Y-144806564D01*
X155449000Y-144603516D01*
X155449000Y-144396484D01*
X155489389Y-144193436D01*
X155568615Y-144002167D01*
X155683635Y-143830027D01*
X155830027Y-143683635D01*
X156002165Y-143568616D01*
X156002167Y-143568615D01*
X156193436Y-143489389D01*
X156396484Y-143449000D01*
X156603516Y-143449000D01*
X156806564Y-143489389D01*
X156806564Y-143489389D01*
G37*
G36*
X150306564Y-143489389D02*
G01*
X150497833Y-143568615D01*
X150497835Y-143568616D01*
X150669973Y-143683635D01*
X150816365Y-143830027D01*
X150931385Y-144002167D01*
X151010611Y-144193436D01*
X151051000Y-144396484D01*
X151051000Y-144603516D01*
X151010611Y-144806564D01*
X150931385Y-144997833D01*
X150931384Y-144997835D01*
X150816365Y-145169973D01*
X150669973Y-145316365D01*
X150497835Y-145431384D01*
X150497834Y-145431385D01*
X150497833Y-145431385D01*
X150306564Y-145510611D01*
X150103516Y-145551000D01*
X149896484Y-145551000D01*
X149693436Y-145510611D01*
X149502167Y-145431385D01*
X149502166Y-145431385D01*
X149502165Y-145431384D01*
X149330027Y-145316365D01*
X149183635Y-145169973D01*
X149068616Y-144997835D01*
X149068615Y-144997833D01*
X148989389Y-144806564D01*
X148949000Y-144603516D01*
X148949000Y-144396484D01*
X148989389Y-144193436D01*
X149068615Y-144002167D01*
X149183635Y-143830027D01*
X149330027Y-143683635D01*
X149502165Y-143568616D01*
X149502167Y-143568615D01*
X149693436Y-143489389D01*
X149896484Y-143449000D01*
X150103516Y-143449000D01*
X150306564Y-143489389D01*
X150306564Y-143489389D01*
G37*
G36*
X111806564Y-143489389D02*
G01*
X111997833Y-143568615D01*
X111997835Y-143568616D01*
X112169973Y-143683635D01*
X112316365Y-143830027D01*
X112431385Y-144002167D01*
X112510611Y-144193436D01*
X112551000Y-144396484D01*
X112551000Y-144603516D01*
X112510611Y-144806564D01*
X112431385Y-144997833D01*
X112431384Y-144997835D01*
X112316365Y-145169973D01*
X112169973Y-145316365D01*
X111997835Y-145431384D01*
X111997834Y-145431385D01*
X111997833Y-145431385D01*
X111806564Y-145510611D01*
X111603516Y-145551000D01*
X111396484Y-145551000D01*
X111193436Y-145510611D01*
X111002167Y-145431385D01*
X111002166Y-145431385D01*
X111002165Y-145431384D01*
X110830027Y-145316365D01*
X110683635Y-145169973D01*
X110568616Y-144997835D01*
X110568615Y-144997833D01*
X110489389Y-144806564D01*
X110449000Y-144603516D01*
X110449000Y-144396484D01*
X110489389Y-144193436D01*
X110568615Y-144002167D01*
X110683635Y-143830027D01*
X110830027Y-143683635D01*
X111002165Y-143568616D01*
X111002167Y-143568615D01*
X111193436Y-143489389D01*
X111396484Y-143449000D01*
X111603516Y-143449000D01*
X111806564Y-143489389D01*
X111806564Y-143489389D01*
G37*
G36*
X105306564Y-143489389D02*
G01*
X105497833Y-143568615D01*
X105497835Y-143568616D01*
X105669973Y-143683635D01*
X105816365Y-143830027D01*
X105931385Y-144002167D01*
X106010611Y-144193436D01*
X106051000Y-144396484D01*
X106051000Y-144603516D01*
X106010611Y-144806564D01*
X105931385Y-144997833D01*
X105931384Y-144997835D01*
X105816365Y-145169973D01*
X105669973Y-145316365D01*
X105497835Y-145431384D01*
X105497834Y-145431385D01*
X105497833Y-145431385D01*
X105306564Y-145510611D01*
X105103516Y-145551000D01*
X104896484Y-145551000D01*
X104693436Y-145510611D01*
X104502167Y-145431385D01*
X104502166Y-145431385D01*
X104502165Y-145431384D01*
X104330027Y-145316365D01*
X104183635Y-145169973D01*
X104068616Y-144997835D01*
X104068615Y-144997833D01*
X103989389Y-144806564D01*
X103949000Y-144603516D01*
X103949000Y-144396484D01*
X103989389Y-144193436D01*
X104068615Y-144002167D01*
X104183635Y-143830027D01*
X104330027Y-143683635D01*
X104502165Y-143568616D01*
X104502167Y-143568615D01*
X104693436Y-143489389D01*
X104896484Y-143449000D01*
X105103516Y-143449000D01*
X105306564Y-143489389D01*
X105306564Y-143489389D01*
G37*
G36*
X90306564Y-143489389D02*
G01*
X90497833Y-143568615D01*
X90497835Y-143568616D01*
X90669973Y-143683635D01*
X90816365Y-143830027D01*
X90931385Y-144002167D01*
X91010611Y-144193436D01*
X91051000Y-144396484D01*
X91051000Y-144603516D01*
X91010611Y-144806564D01*
X90931385Y-144997833D01*
X90931384Y-144997835D01*
X90816365Y-145169973D01*
X90669973Y-145316365D01*
X90497835Y-145431384D01*
X90497834Y-145431385D01*
X90497833Y-145431385D01*
X90306564Y-145510611D01*
X90103516Y-145551000D01*
X89896484Y-145551000D01*
X89693436Y-145510611D01*
X89502167Y-145431385D01*
X89502166Y-145431385D01*
X89502165Y-145431384D01*
X89330027Y-145316365D01*
X89183635Y-145169973D01*
X89068616Y-144997835D01*
X89068615Y-144997833D01*
X88989389Y-144806564D01*
X88949000Y-144603516D01*
X88949000Y-144396484D01*
X88989389Y-144193436D01*
X89068615Y-144002167D01*
X89183635Y-143830027D01*
X89330027Y-143683635D01*
X89502165Y-143568616D01*
X89502167Y-143568615D01*
X89693436Y-143489389D01*
X89896484Y-143449000D01*
X90103516Y-143449000D01*
X90306564Y-143489389D01*
X90306564Y-143489389D01*
G37*
G36*
X96806564Y-143489389D02*
G01*
X96997833Y-143568615D01*
X96997835Y-143568616D01*
X97169973Y-143683635D01*
X97316365Y-143830027D01*
X97431385Y-144002167D01*
X97510611Y-144193436D01*
X97551000Y-144396484D01*
X97551000Y-144603516D01*
X97510611Y-144806564D01*
X97431385Y-144997833D01*
X97431384Y-144997835D01*
X97316365Y-145169973D01*
X97169973Y-145316365D01*
X96997835Y-145431384D01*
X96997834Y-145431385D01*
X96997833Y-145431385D01*
X96806564Y-145510611D01*
X96603516Y-145551000D01*
X96396484Y-145551000D01*
X96193436Y-145510611D01*
X96002167Y-145431385D01*
X96002166Y-145431385D01*
X96002165Y-145431384D01*
X95830027Y-145316365D01*
X95683635Y-145169973D01*
X95568616Y-144997835D01*
X95568615Y-144997833D01*
X95489389Y-144806564D01*
X95449000Y-144603516D01*
X95449000Y-144396484D01*
X95489389Y-144193436D01*
X95568615Y-144002167D01*
X95683635Y-143830027D01*
X95830027Y-143683635D01*
X96002165Y-143568616D01*
X96002167Y-143568615D01*
X96193436Y-143489389D01*
X96396484Y-143449000D01*
X96603516Y-143449000D01*
X96806564Y-143489389D01*
X96806564Y-143489389D01*
G37*
G36*
X76466000Y-145486000D02*
G01*
X75564000Y-145486000D01*
X75564000Y-144684000D01*
X76466000Y-144684000D01*
X76466000Y-145486000D01*
X76466000Y-145486000D01*
G37*
G36*
X74436000Y-145486000D02*
G01*
X73534000Y-145486000D01*
X73534000Y-144684000D01*
X74436000Y-144684000D01*
X74436000Y-145486000D01*
X74436000Y-145486000D01*
G37*
G36*
X76466000Y-144316000D02*
G01*
X75564000Y-144316000D01*
X75564000Y-143514000D01*
X76466000Y-143514000D01*
X76466000Y-144316000D01*
X76466000Y-144316000D01*
G37*
G36*
X74436000Y-144316000D02*
G01*
X73534000Y-144316000D01*
X73534000Y-143514000D01*
X74436000Y-143514000D01*
X74436000Y-144316000D01*
X74436000Y-144316000D01*
G37*
G36*
X71009468Y-141753565D02*
G01*
X71048138Y-141765296D01*
X71083777Y-141784346D01*
X71115017Y-141809983D01*
X71140654Y-141841223D01*
X71159704Y-141876862D01*
X71171435Y-141915532D01*
X71176000Y-141961888D01*
X71176000Y-143038112D01*
X71171435Y-143084468D01*
X71159704Y-143123138D01*
X71140654Y-143158777D01*
X71115017Y-143190017D01*
X71083777Y-143215654D01*
X71048138Y-143234704D01*
X71009468Y-143246435D01*
X70963112Y-143251000D01*
X70311888Y-143251000D01*
X70265532Y-143246435D01*
X70226862Y-143234704D01*
X70191223Y-143215654D01*
X70159983Y-143190017D01*
X70134346Y-143158777D01*
X70115296Y-143123138D01*
X70103565Y-143084468D01*
X70099000Y-143038112D01*
X70099000Y-141961888D01*
X70103565Y-141915532D01*
X70115296Y-141876862D01*
X70134346Y-141841223D01*
X70159983Y-141809983D01*
X70191223Y-141784346D01*
X70226862Y-141765296D01*
X70265532Y-141753565D01*
X70311888Y-141749000D01*
X70963112Y-141749000D01*
X71009468Y-141753565D01*
X71009468Y-141753565D01*
G37*
G36*
X81609468Y-141753565D02*
G01*
X81648138Y-141765296D01*
X81683777Y-141784346D01*
X81715017Y-141809983D01*
X81740654Y-141841223D01*
X81759704Y-141876862D01*
X81771435Y-141915532D01*
X81776000Y-141961888D01*
X81776000Y-143038112D01*
X81771435Y-143084468D01*
X81759704Y-143123138D01*
X81740654Y-143158777D01*
X81715017Y-143190017D01*
X81683777Y-143215654D01*
X81648138Y-143234704D01*
X81609468Y-143246435D01*
X81563112Y-143251000D01*
X80911888Y-143251000D01*
X80865532Y-143246435D01*
X80826862Y-143234704D01*
X80791223Y-143215654D01*
X80759983Y-143190017D01*
X80734346Y-143158777D01*
X80715296Y-143123138D01*
X80703565Y-143084468D01*
X80699000Y-143038112D01*
X80699000Y-141961888D01*
X80703565Y-141915532D01*
X80715296Y-141876862D01*
X80734346Y-141841223D01*
X80759983Y-141809983D01*
X80791223Y-141784346D01*
X80826862Y-141765296D01*
X80865532Y-141753565D01*
X80911888Y-141749000D01*
X81563112Y-141749000D01*
X81609468Y-141753565D01*
X81609468Y-141753565D01*
G37*
G36*
X79734468Y-141753565D02*
G01*
X79773138Y-141765296D01*
X79808777Y-141784346D01*
X79840017Y-141809983D01*
X79865654Y-141841223D01*
X79884704Y-141876862D01*
X79896435Y-141915532D01*
X79901000Y-141961888D01*
X79901000Y-143038112D01*
X79896435Y-143084468D01*
X79884704Y-143123138D01*
X79865654Y-143158777D01*
X79840017Y-143190017D01*
X79808777Y-143215654D01*
X79773138Y-143234704D01*
X79734468Y-143246435D01*
X79688112Y-143251000D01*
X79036888Y-143251000D01*
X78990532Y-143246435D01*
X78951862Y-143234704D01*
X78916223Y-143215654D01*
X78884983Y-143190017D01*
X78859346Y-143158777D01*
X78840296Y-143123138D01*
X78828565Y-143084468D01*
X78824000Y-143038112D01*
X78824000Y-141961888D01*
X78828565Y-141915532D01*
X78840296Y-141876862D01*
X78859346Y-141841223D01*
X78884983Y-141809983D01*
X78916223Y-141784346D01*
X78951862Y-141765296D01*
X78990532Y-141753565D01*
X79036888Y-141749000D01*
X79688112Y-141749000D01*
X79734468Y-141753565D01*
X79734468Y-141753565D01*
G37*
G36*
X69134468Y-141753565D02*
G01*
X69173138Y-141765296D01*
X69208777Y-141784346D01*
X69240017Y-141809983D01*
X69265654Y-141841223D01*
X69284704Y-141876862D01*
X69296435Y-141915532D01*
X69301000Y-141961888D01*
X69301000Y-143038112D01*
X69296435Y-143084468D01*
X69284704Y-143123138D01*
X69265654Y-143158777D01*
X69240017Y-143190017D01*
X69208777Y-143215654D01*
X69173138Y-143234704D01*
X69134468Y-143246435D01*
X69088112Y-143251000D01*
X68436888Y-143251000D01*
X68390532Y-143246435D01*
X68351862Y-143234704D01*
X68316223Y-143215654D01*
X68284983Y-143190017D01*
X68259346Y-143158777D01*
X68240296Y-143123138D01*
X68228565Y-143084468D01*
X68224000Y-143038112D01*
X68224000Y-141961888D01*
X68228565Y-141915532D01*
X68240296Y-141876862D01*
X68259346Y-141841223D01*
X68284983Y-141809983D01*
X68316223Y-141784346D01*
X68351862Y-141765296D01*
X68390532Y-141753565D01*
X68436888Y-141749000D01*
X69088112Y-141749000D01*
X69134468Y-141753565D01*
X69134468Y-141753565D01*
G37*
G36*
X75801000Y-141551000D02*
G01*
X74199000Y-141551000D01*
X74199000Y-139449000D01*
X75801000Y-139449000D01*
X75801000Y-141551000D01*
X75801000Y-141551000D01*
G37*
G36*
X73301000Y-141551000D02*
G01*
X71699000Y-141551000D01*
X71699000Y-139449000D01*
X73301000Y-139449000D01*
X73301000Y-141551000D01*
X73301000Y-141551000D01*
G37*
G36*
X78301000Y-141551000D02*
G01*
X76699000Y-141551000D01*
X76699000Y-139449000D01*
X78301000Y-139449000D01*
X78301000Y-141551000D01*
X78301000Y-141551000D01*
G37*
G36*
X71009468Y-139778565D02*
G01*
X71048138Y-139790296D01*
X71083777Y-139809346D01*
X71115017Y-139834983D01*
X71140654Y-139866223D01*
X71159704Y-139901862D01*
X71171435Y-139940532D01*
X71176000Y-139986888D01*
X71176000Y-141063112D01*
X71171435Y-141109468D01*
X71159704Y-141148138D01*
X71140654Y-141183777D01*
X71115017Y-141215017D01*
X71083777Y-141240654D01*
X71048138Y-141259704D01*
X71009468Y-141271435D01*
X70963112Y-141276000D01*
X70311888Y-141276000D01*
X70265532Y-141271435D01*
X70226862Y-141259704D01*
X70191223Y-141240654D01*
X70159983Y-141215017D01*
X70134346Y-141183777D01*
X70115296Y-141148138D01*
X70103565Y-141109468D01*
X70099000Y-141063112D01*
X70099000Y-139986888D01*
X70103565Y-139940532D01*
X70115296Y-139901862D01*
X70134346Y-139866223D01*
X70159983Y-139834983D01*
X70191223Y-139809346D01*
X70226862Y-139790296D01*
X70265532Y-139778565D01*
X70311888Y-139774000D01*
X70963112Y-139774000D01*
X71009468Y-139778565D01*
X71009468Y-139778565D01*
G37*
G36*
X69134468Y-139778565D02*
G01*
X69173138Y-139790296D01*
X69208777Y-139809346D01*
X69240017Y-139834983D01*
X69265654Y-139866223D01*
X69284704Y-139901862D01*
X69296435Y-139940532D01*
X69301000Y-139986888D01*
X69301000Y-141063112D01*
X69296435Y-141109468D01*
X69284704Y-141148138D01*
X69265654Y-141183777D01*
X69240017Y-141215017D01*
X69208777Y-141240654D01*
X69173138Y-141259704D01*
X69134468Y-141271435D01*
X69088112Y-141276000D01*
X68436888Y-141276000D01*
X68390532Y-141271435D01*
X68351862Y-141259704D01*
X68316223Y-141240654D01*
X68284983Y-141215017D01*
X68259346Y-141183777D01*
X68240296Y-141148138D01*
X68228565Y-141109468D01*
X68224000Y-141063112D01*
X68224000Y-139986888D01*
X68228565Y-139940532D01*
X68240296Y-139901862D01*
X68259346Y-139866223D01*
X68284983Y-139834983D01*
X68316223Y-139809346D01*
X68351862Y-139790296D01*
X68390532Y-139778565D01*
X68436888Y-139774000D01*
X69088112Y-139774000D01*
X69134468Y-139778565D01*
X69134468Y-139778565D01*
G37*
G36*
X81609468Y-139753565D02*
G01*
X81648138Y-139765296D01*
X81683777Y-139784346D01*
X81715017Y-139809983D01*
X81740654Y-139841223D01*
X81759704Y-139876862D01*
X81771435Y-139915532D01*
X81776000Y-139961888D01*
X81776000Y-141038112D01*
X81771435Y-141084468D01*
X81759704Y-141123138D01*
X81740654Y-141158777D01*
X81715017Y-141190017D01*
X81683777Y-141215654D01*
X81648138Y-141234704D01*
X81609468Y-141246435D01*
X81563112Y-141251000D01*
X80911888Y-141251000D01*
X80865532Y-141246435D01*
X80826862Y-141234704D01*
X80791223Y-141215654D01*
X80759983Y-141190017D01*
X80734346Y-141158777D01*
X80715296Y-141123138D01*
X80703565Y-141084468D01*
X80699000Y-141038112D01*
X80699000Y-139961888D01*
X80703565Y-139915532D01*
X80715296Y-139876862D01*
X80734346Y-139841223D01*
X80759983Y-139809983D01*
X80791223Y-139784346D01*
X80826862Y-139765296D01*
X80865532Y-139753565D01*
X80911888Y-139749000D01*
X81563112Y-139749000D01*
X81609468Y-139753565D01*
X81609468Y-139753565D01*
G37*
G36*
X79734468Y-139753565D02*
G01*
X79773138Y-139765296D01*
X79808777Y-139784346D01*
X79840017Y-139809983D01*
X79865654Y-139841223D01*
X79884704Y-139876862D01*
X79896435Y-139915532D01*
X79901000Y-139961888D01*
X79901000Y-141038112D01*
X79896435Y-141084468D01*
X79884704Y-141123138D01*
X79865654Y-141158777D01*
X79840017Y-141190017D01*
X79808777Y-141215654D01*
X79773138Y-141234704D01*
X79734468Y-141246435D01*
X79688112Y-141251000D01*
X79036888Y-141251000D01*
X78990532Y-141246435D01*
X78951862Y-141234704D01*
X78916223Y-141215654D01*
X78884983Y-141190017D01*
X78859346Y-141158777D01*
X78840296Y-141123138D01*
X78828565Y-141084468D01*
X78824000Y-141038112D01*
X78824000Y-139961888D01*
X78828565Y-139915532D01*
X78840296Y-139876862D01*
X78859346Y-139841223D01*
X78884983Y-139809983D01*
X78916223Y-139784346D01*
X78951862Y-139765296D01*
X78990532Y-139753565D01*
X79036888Y-139749000D01*
X79688112Y-139749000D01*
X79734468Y-139753565D01*
X79734468Y-139753565D01*
G37*
G36*
X150306564Y-138989389D02*
G01*
X150497833Y-139068615D01*
X150497835Y-139068616D01*
X150669973Y-139183635D01*
X150816365Y-139330027D01*
X150931385Y-139502167D01*
X151010611Y-139693436D01*
X151051000Y-139896484D01*
X151051000Y-140103516D01*
X151010611Y-140306564D01*
X150931385Y-140497833D01*
X150931384Y-140497835D01*
X150816365Y-140669973D01*
X150669973Y-140816365D01*
X150497835Y-140931384D01*
X150497834Y-140931385D01*
X150497833Y-140931385D01*
X150306564Y-141010611D01*
X150103516Y-141051000D01*
X149896484Y-141051000D01*
X149693436Y-141010611D01*
X149502167Y-140931385D01*
X149502166Y-140931385D01*
X149502165Y-140931384D01*
X149330027Y-140816365D01*
X149183635Y-140669973D01*
X149068616Y-140497835D01*
X149068615Y-140497833D01*
X148989389Y-140306564D01*
X148949000Y-140103516D01*
X148949000Y-139896484D01*
X148989389Y-139693436D01*
X149068615Y-139502167D01*
X149183635Y-139330027D01*
X149330027Y-139183635D01*
X149502165Y-139068616D01*
X149502167Y-139068615D01*
X149693436Y-138989389D01*
X149896484Y-138949000D01*
X150103516Y-138949000D01*
X150306564Y-138989389D01*
X150306564Y-138989389D01*
G37*
G36*
X96806564Y-138989389D02*
G01*
X96997833Y-139068615D01*
X96997835Y-139068616D01*
X97169973Y-139183635D01*
X97316365Y-139330027D01*
X97431385Y-139502167D01*
X97510611Y-139693436D01*
X97551000Y-139896484D01*
X97551000Y-140103516D01*
X97510611Y-140306564D01*
X97431385Y-140497833D01*
X97431384Y-140497835D01*
X97316365Y-140669973D01*
X97169973Y-140816365D01*
X96997835Y-140931384D01*
X96997834Y-140931385D01*
X96997833Y-140931385D01*
X96806564Y-141010611D01*
X96603516Y-141051000D01*
X96396484Y-141051000D01*
X96193436Y-141010611D01*
X96002167Y-140931385D01*
X96002166Y-140931385D01*
X96002165Y-140931384D01*
X95830027Y-140816365D01*
X95683635Y-140669973D01*
X95568616Y-140497835D01*
X95568615Y-140497833D01*
X95489389Y-140306564D01*
X95449000Y-140103516D01*
X95449000Y-139896484D01*
X95489389Y-139693436D01*
X95568615Y-139502167D01*
X95683635Y-139330027D01*
X95830027Y-139183635D01*
X96002165Y-139068616D01*
X96002167Y-139068615D01*
X96193436Y-138989389D01*
X96396484Y-138949000D01*
X96603516Y-138949000D01*
X96806564Y-138989389D01*
X96806564Y-138989389D01*
G37*
G36*
X90306564Y-138989389D02*
G01*
X90497833Y-139068615D01*
X90497835Y-139068616D01*
X90669973Y-139183635D01*
X90816365Y-139330027D01*
X90931385Y-139502167D01*
X91010611Y-139693436D01*
X91051000Y-139896484D01*
X91051000Y-140103516D01*
X91010611Y-140306564D01*
X90931385Y-140497833D01*
X90931384Y-140497835D01*
X90816365Y-140669973D01*
X90669973Y-140816365D01*
X90497835Y-140931384D01*
X90497834Y-140931385D01*
X90497833Y-140931385D01*
X90306564Y-141010611D01*
X90103516Y-141051000D01*
X89896484Y-141051000D01*
X89693436Y-141010611D01*
X89502167Y-140931385D01*
X89502166Y-140931385D01*
X89502165Y-140931384D01*
X89330027Y-140816365D01*
X89183635Y-140669973D01*
X89068616Y-140497835D01*
X89068615Y-140497833D01*
X88989389Y-140306564D01*
X88949000Y-140103516D01*
X88949000Y-139896484D01*
X88989389Y-139693436D01*
X89068615Y-139502167D01*
X89183635Y-139330027D01*
X89330027Y-139183635D01*
X89502165Y-139068616D01*
X89502167Y-139068615D01*
X89693436Y-138989389D01*
X89896484Y-138949000D01*
X90103516Y-138949000D01*
X90306564Y-138989389D01*
X90306564Y-138989389D01*
G37*
G36*
X126806564Y-138989389D02*
G01*
X126997833Y-139068615D01*
X126997835Y-139068616D01*
X127169973Y-139183635D01*
X127316365Y-139330027D01*
X127431385Y-139502167D01*
X127510611Y-139693436D01*
X127551000Y-139896484D01*
X127551000Y-140103516D01*
X127510611Y-140306564D01*
X127431385Y-140497833D01*
X127431384Y-140497835D01*
X127316365Y-140669973D01*
X127169973Y-140816365D01*
X126997835Y-140931384D01*
X126997834Y-140931385D01*
X126997833Y-140931385D01*
X126806564Y-141010611D01*
X126603516Y-141051000D01*
X126396484Y-141051000D01*
X126193436Y-141010611D01*
X126002167Y-140931385D01*
X126002166Y-140931385D01*
X126002165Y-140931384D01*
X125830027Y-140816365D01*
X125683635Y-140669973D01*
X125568616Y-140497835D01*
X125568615Y-140497833D01*
X125489389Y-140306564D01*
X125449000Y-140103516D01*
X125449000Y-139896484D01*
X125489389Y-139693436D01*
X125568615Y-139502167D01*
X125683635Y-139330027D01*
X125830027Y-139183635D01*
X126002165Y-139068616D01*
X126002167Y-139068615D01*
X126193436Y-138989389D01*
X126396484Y-138949000D01*
X126603516Y-138949000D01*
X126806564Y-138989389D01*
X126806564Y-138989389D01*
G37*
G36*
X105306564Y-138989389D02*
G01*
X105497833Y-139068615D01*
X105497835Y-139068616D01*
X105669973Y-139183635D01*
X105816365Y-139330027D01*
X105931385Y-139502167D01*
X106010611Y-139693436D01*
X106051000Y-139896484D01*
X106051000Y-140103516D01*
X106010611Y-140306564D01*
X105931385Y-140497833D01*
X105931384Y-140497835D01*
X105816365Y-140669973D01*
X105669973Y-140816365D01*
X105497835Y-140931384D01*
X105497834Y-140931385D01*
X105497833Y-140931385D01*
X105306564Y-141010611D01*
X105103516Y-141051000D01*
X104896484Y-141051000D01*
X104693436Y-141010611D01*
X104502167Y-140931385D01*
X104502166Y-140931385D01*
X104502165Y-140931384D01*
X104330027Y-140816365D01*
X104183635Y-140669973D01*
X104068616Y-140497835D01*
X104068615Y-140497833D01*
X103989389Y-140306564D01*
X103949000Y-140103516D01*
X103949000Y-139896484D01*
X103989389Y-139693436D01*
X104068615Y-139502167D01*
X104183635Y-139330027D01*
X104330027Y-139183635D01*
X104502165Y-139068616D01*
X104502167Y-139068615D01*
X104693436Y-138989389D01*
X104896484Y-138949000D01*
X105103516Y-138949000D01*
X105306564Y-138989389D01*
X105306564Y-138989389D01*
G37*
G36*
X111806564Y-138989389D02*
G01*
X111997833Y-139068615D01*
X111997835Y-139068616D01*
X112169973Y-139183635D01*
X112316365Y-139330027D01*
X112431385Y-139502167D01*
X112510611Y-139693436D01*
X112551000Y-139896484D01*
X112551000Y-140103516D01*
X112510611Y-140306564D01*
X112431385Y-140497833D01*
X112431384Y-140497835D01*
X112316365Y-140669973D01*
X112169973Y-140816365D01*
X111997835Y-140931384D01*
X111997834Y-140931385D01*
X111997833Y-140931385D01*
X111806564Y-141010611D01*
X111603516Y-141051000D01*
X111396484Y-141051000D01*
X111193436Y-141010611D01*
X111002167Y-140931385D01*
X111002166Y-140931385D01*
X111002165Y-140931384D01*
X110830027Y-140816365D01*
X110683635Y-140669973D01*
X110568616Y-140497835D01*
X110568615Y-140497833D01*
X110489389Y-140306564D01*
X110449000Y-140103516D01*
X110449000Y-139896484D01*
X110489389Y-139693436D01*
X110568615Y-139502167D01*
X110683635Y-139330027D01*
X110830027Y-139183635D01*
X111002165Y-139068616D01*
X111002167Y-139068615D01*
X111193436Y-138989389D01*
X111396484Y-138949000D01*
X111603516Y-138949000D01*
X111806564Y-138989389D01*
X111806564Y-138989389D01*
G37*
G36*
X135306564Y-138989389D02*
G01*
X135497833Y-139068615D01*
X135497835Y-139068616D01*
X135669973Y-139183635D01*
X135816365Y-139330027D01*
X135931385Y-139502167D01*
X136010611Y-139693436D01*
X136051000Y-139896484D01*
X136051000Y-140103516D01*
X136010611Y-140306564D01*
X135931385Y-140497833D01*
X135931384Y-140497835D01*
X135816365Y-140669973D01*
X135669973Y-140816365D01*
X135497835Y-140931384D01*
X135497834Y-140931385D01*
X135497833Y-140931385D01*
X135306564Y-141010611D01*
X135103516Y-141051000D01*
X134896484Y-141051000D01*
X134693436Y-141010611D01*
X134502167Y-140931385D01*
X134502166Y-140931385D01*
X134502165Y-140931384D01*
X134330027Y-140816365D01*
X134183635Y-140669973D01*
X134068616Y-140497835D01*
X134068615Y-140497833D01*
X133989389Y-140306564D01*
X133949000Y-140103516D01*
X133949000Y-139896484D01*
X133989389Y-139693436D01*
X134068615Y-139502167D01*
X134183635Y-139330027D01*
X134330027Y-139183635D01*
X134502165Y-139068616D01*
X134502167Y-139068615D01*
X134693436Y-138989389D01*
X134896484Y-138949000D01*
X135103516Y-138949000D01*
X135306564Y-138989389D01*
X135306564Y-138989389D01*
G37*
G36*
X156806564Y-138989389D02*
G01*
X156997833Y-139068615D01*
X156997835Y-139068616D01*
X157169973Y-139183635D01*
X157316365Y-139330027D01*
X157431385Y-139502167D01*
X157510611Y-139693436D01*
X157551000Y-139896484D01*
X157551000Y-140103516D01*
X157510611Y-140306564D01*
X157431385Y-140497833D01*
X157431384Y-140497835D01*
X157316365Y-140669973D01*
X157169973Y-140816365D01*
X156997835Y-140931384D01*
X156997834Y-140931385D01*
X156997833Y-140931385D01*
X156806564Y-141010611D01*
X156603516Y-141051000D01*
X156396484Y-141051000D01*
X156193436Y-141010611D01*
X156002167Y-140931385D01*
X156002166Y-140931385D01*
X156002165Y-140931384D01*
X155830027Y-140816365D01*
X155683635Y-140669973D01*
X155568616Y-140497835D01*
X155568615Y-140497833D01*
X155489389Y-140306564D01*
X155449000Y-140103516D01*
X155449000Y-139896484D01*
X155489389Y-139693436D01*
X155568615Y-139502167D01*
X155683635Y-139330027D01*
X155830027Y-139183635D01*
X156002165Y-139068616D01*
X156002167Y-139068615D01*
X156193436Y-138989389D01*
X156396484Y-138949000D01*
X156603516Y-138949000D01*
X156806564Y-138989389D01*
X156806564Y-138989389D01*
G37*
G36*
X141806564Y-138989389D02*
G01*
X141997833Y-139068615D01*
X141997835Y-139068616D01*
X142169973Y-139183635D01*
X142316365Y-139330027D01*
X142431385Y-139502167D01*
X142510611Y-139693436D01*
X142551000Y-139896484D01*
X142551000Y-140103516D01*
X142510611Y-140306564D01*
X142431385Y-140497833D01*
X142431384Y-140497835D01*
X142316365Y-140669973D01*
X142169973Y-140816365D01*
X141997835Y-140931384D01*
X141997834Y-140931385D01*
X141997833Y-140931385D01*
X141806564Y-141010611D01*
X141603516Y-141051000D01*
X141396484Y-141051000D01*
X141193436Y-141010611D01*
X141002167Y-140931385D01*
X141002166Y-140931385D01*
X141002165Y-140931384D01*
X140830027Y-140816365D01*
X140683635Y-140669973D01*
X140568616Y-140497835D01*
X140568615Y-140497833D01*
X140489389Y-140306564D01*
X140449000Y-140103516D01*
X140449000Y-139896484D01*
X140489389Y-139693436D01*
X140568615Y-139502167D01*
X140683635Y-139330027D01*
X140830027Y-139183635D01*
X141002165Y-139068616D01*
X141002167Y-139068615D01*
X141193436Y-138989389D01*
X141396484Y-138949000D01*
X141603516Y-138949000D01*
X141806564Y-138989389D01*
X141806564Y-138989389D01*
G37*
G36*
X120306564Y-138989389D02*
G01*
X120497833Y-139068615D01*
X120497835Y-139068616D01*
X120669973Y-139183635D01*
X120816365Y-139330027D01*
X120931385Y-139502167D01*
X121010611Y-139693436D01*
X121051000Y-139896484D01*
X121051000Y-140103516D01*
X121010611Y-140306564D01*
X120931385Y-140497833D01*
X120931384Y-140497835D01*
X120816365Y-140669973D01*
X120669973Y-140816365D01*
X120497835Y-140931384D01*
X120497834Y-140931385D01*
X120497833Y-140931385D01*
X120306564Y-141010611D01*
X120103516Y-141051000D01*
X119896484Y-141051000D01*
X119693436Y-141010611D01*
X119502167Y-140931385D01*
X119502166Y-140931385D01*
X119502165Y-140931384D01*
X119330027Y-140816365D01*
X119183635Y-140669973D01*
X119068616Y-140497835D01*
X119068615Y-140497833D01*
X118989389Y-140306564D01*
X118949000Y-140103516D01*
X118949000Y-139896484D01*
X118989389Y-139693436D01*
X119068615Y-139502167D01*
X119183635Y-139330027D01*
X119330027Y-139183635D01*
X119502165Y-139068616D01*
X119502167Y-139068615D01*
X119693436Y-138989389D01*
X119896484Y-138949000D01*
X120103516Y-138949000D01*
X120306564Y-138989389D01*
X120306564Y-138989389D01*
G37*
G36*
X75166822Y-135861313D02*
G01*
X75327241Y-135909976D01*
X75475077Y-135988995D01*
X75604659Y-136095341D01*
X75711004Y-136224922D01*
X75711005Y-136224924D01*
X75790024Y-136372758D01*
X75838687Y-136533177D01*
X75851000Y-136658196D01*
X75851000Y-137341803D01*
X75838687Y-137466822D01*
X75790024Y-137627242D01*
X75719114Y-137759906D01*
X75711004Y-137775078D01*
X75604659Y-137904659D01*
X75475078Y-138011004D01*
X75475076Y-138011005D01*
X75327242Y-138090024D01*
X75166823Y-138138687D01*
X75000000Y-138155117D01*
X74833178Y-138138687D01*
X74672759Y-138090024D01*
X74524925Y-138011005D01*
X74524923Y-138011004D01*
X74395342Y-137904659D01*
X74288997Y-137775078D01*
X74209975Y-137627239D01*
X74161313Y-137466826D01*
X74149000Y-137341804D01*
X74149000Y-136658197D01*
X74161313Y-136533178D01*
X74209976Y-136372759D01*
X74288995Y-136224923D01*
X74395341Y-136095341D01*
X74524922Y-135988996D01*
X74540094Y-135980886D01*
X74672758Y-135909976D01*
X74833177Y-135861313D01*
X75000000Y-135844883D01*
X75166822Y-135861313D01*
X75166822Y-135861313D01*
G37*
G36*
X82801000Y-134151000D02*
G01*
X80699000Y-134151000D01*
X80699000Y-130849000D01*
X82801000Y-130849000D01*
X82801000Y-134151000D01*
X82801000Y-134151000D01*
G37*
G36*
X69301000Y-134151000D02*
G01*
X67199000Y-134151000D01*
X67199000Y-130849000D01*
X69301000Y-130849000D01*
X69301000Y-134151000D01*
X69301000Y-134151000D01*
G37*
G36*
X75214795Y-131420156D02*
G01*
X75321150Y-131441311D01*
X75521520Y-131524307D01*
X75701844Y-131644795D01*
X75855205Y-131798156D01*
X75975693Y-131978480D01*
X76058689Y-132178851D01*
X76101000Y-132391560D01*
X76101000Y-132608440D01*
X76058689Y-132821149D01*
X75975693Y-133021520D01*
X75855205Y-133201844D01*
X75701844Y-133355205D01*
X75521520Y-133475693D01*
X75421334Y-133517191D01*
X75321150Y-133558689D01*
X75214794Y-133579845D01*
X75108440Y-133601000D01*
X74891560Y-133601000D01*
X74785206Y-133579845D01*
X74678850Y-133558689D01*
X74578666Y-133517191D01*
X74478480Y-133475693D01*
X74298156Y-133355205D01*
X74144795Y-133201844D01*
X74024307Y-133021520D01*
X73941311Y-132821149D01*
X73899000Y-132608440D01*
X73899000Y-132391560D01*
X73941311Y-132178851D01*
X74024307Y-131978480D01*
X74144795Y-131798156D01*
X74298156Y-131644795D01*
X74478480Y-131524307D01*
X74678850Y-131441311D01*
X74785205Y-131420156D01*
X74891560Y-131399000D01*
X75108440Y-131399000D01*
X75214795Y-131420156D01*
X75214795Y-131420156D01*
G37*
G36*
X150306564Y-128489389D02*
G01*
X150497833Y-128568615D01*
X150497835Y-128568616D01*
X150669973Y-128683635D01*
X150816365Y-128830027D01*
X150931385Y-129002167D01*
X151010611Y-129193436D01*
X151051000Y-129396484D01*
X151051000Y-129603516D01*
X151010611Y-129806564D01*
X150931385Y-129997833D01*
X150931384Y-129997835D01*
X150816365Y-130169973D01*
X150669973Y-130316365D01*
X150497835Y-130431384D01*
X150497834Y-130431385D01*
X150497833Y-130431385D01*
X150306564Y-130510611D01*
X150103516Y-130551000D01*
X149896484Y-130551000D01*
X149693436Y-130510611D01*
X149502167Y-130431385D01*
X149502166Y-130431385D01*
X149502165Y-130431384D01*
X149330027Y-130316365D01*
X149183635Y-130169973D01*
X149068616Y-129997835D01*
X149068615Y-129997833D01*
X148989389Y-129806564D01*
X148949000Y-129603516D01*
X148949000Y-129396484D01*
X148989389Y-129193436D01*
X149068615Y-129002167D01*
X149183635Y-128830027D01*
X149330027Y-128683635D01*
X149502165Y-128568616D01*
X149502167Y-128568615D01*
X149693436Y-128489389D01*
X149896484Y-128449000D01*
X150103516Y-128449000D01*
X150306564Y-128489389D01*
X150306564Y-128489389D01*
G37*
G36*
X156806564Y-128489389D02*
G01*
X156997833Y-128568615D01*
X156997835Y-128568616D01*
X157169973Y-128683635D01*
X157316365Y-128830027D01*
X157431385Y-129002167D01*
X157510611Y-129193436D01*
X157551000Y-129396484D01*
X157551000Y-129603516D01*
X157510611Y-129806564D01*
X157431385Y-129997833D01*
X157431384Y-129997835D01*
X157316365Y-130169973D01*
X157169973Y-130316365D01*
X156997835Y-130431384D01*
X156997834Y-130431385D01*
X156997833Y-130431385D01*
X156806564Y-130510611D01*
X156603516Y-130551000D01*
X156396484Y-130551000D01*
X156193436Y-130510611D01*
X156002167Y-130431385D01*
X156002166Y-130431385D01*
X156002165Y-130431384D01*
X155830027Y-130316365D01*
X155683635Y-130169973D01*
X155568616Y-129997835D01*
X155568615Y-129997833D01*
X155489389Y-129806564D01*
X155449000Y-129603516D01*
X155449000Y-129396484D01*
X155489389Y-129193436D01*
X155568615Y-129002167D01*
X155683635Y-128830027D01*
X155830027Y-128683635D01*
X156002165Y-128568616D01*
X156002167Y-128568615D01*
X156193436Y-128489389D01*
X156396484Y-128449000D01*
X156603516Y-128449000D01*
X156806564Y-128489389D01*
X156806564Y-128489389D01*
G37*
G36*
X141806564Y-128489389D02*
G01*
X141997833Y-128568615D01*
X141997835Y-128568616D01*
X142169973Y-128683635D01*
X142316365Y-128830027D01*
X142431385Y-129002167D01*
X142510611Y-129193436D01*
X142551000Y-129396484D01*
X142551000Y-129603516D01*
X142510611Y-129806564D01*
X142431385Y-129997833D01*
X142431384Y-129997835D01*
X142316365Y-130169973D01*
X142169973Y-130316365D01*
X141997835Y-130431384D01*
X141997834Y-130431385D01*
X141997833Y-130431385D01*
X141806564Y-130510611D01*
X141603516Y-130551000D01*
X141396484Y-130551000D01*
X141193436Y-130510611D01*
X141002167Y-130431385D01*
X141002166Y-130431385D01*
X141002165Y-130431384D01*
X140830027Y-130316365D01*
X140683635Y-130169973D01*
X140568616Y-129997835D01*
X140568615Y-129997833D01*
X140489389Y-129806564D01*
X140449000Y-129603516D01*
X140449000Y-129396484D01*
X140489389Y-129193436D01*
X140568615Y-129002167D01*
X140683635Y-128830027D01*
X140830027Y-128683635D01*
X141002165Y-128568616D01*
X141002167Y-128568615D01*
X141193436Y-128489389D01*
X141396484Y-128449000D01*
X141603516Y-128449000D01*
X141806564Y-128489389D01*
X141806564Y-128489389D01*
G37*
G36*
X135306564Y-128489389D02*
G01*
X135497833Y-128568615D01*
X135497835Y-128568616D01*
X135669973Y-128683635D01*
X135816365Y-128830027D01*
X135931385Y-129002167D01*
X136010611Y-129193436D01*
X136051000Y-129396484D01*
X136051000Y-129603516D01*
X136010611Y-129806564D01*
X135931385Y-129997833D01*
X135931384Y-129997835D01*
X135816365Y-130169973D01*
X135669973Y-130316365D01*
X135497835Y-130431384D01*
X135497834Y-130431385D01*
X135497833Y-130431385D01*
X135306564Y-130510611D01*
X135103516Y-130551000D01*
X134896484Y-130551000D01*
X134693436Y-130510611D01*
X134502167Y-130431385D01*
X134502166Y-130431385D01*
X134502165Y-130431384D01*
X134330027Y-130316365D01*
X134183635Y-130169973D01*
X134068616Y-129997835D01*
X134068615Y-129997833D01*
X133989389Y-129806564D01*
X133949000Y-129603516D01*
X133949000Y-129396484D01*
X133989389Y-129193436D01*
X134068615Y-129002167D01*
X134183635Y-128830027D01*
X134330027Y-128683635D01*
X134502165Y-128568616D01*
X134502167Y-128568615D01*
X134693436Y-128489389D01*
X134896484Y-128449000D01*
X135103516Y-128449000D01*
X135306564Y-128489389D01*
X135306564Y-128489389D01*
G37*
G36*
X120306564Y-128489389D02*
G01*
X120497833Y-128568615D01*
X120497835Y-128568616D01*
X120669973Y-128683635D01*
X120816365Y-128830027D01*
X120931385Y-129002167D01*
X121010611Y-129193436D01*
X121051000Y-129396484D01*
X121051000Y-129603516D01*
X121010611Y-129806564D01*
X120931385Y-129997833D01*
X120931384Y-129997835D01*
X120816365Y-130169973D01*
X120669973Y-130316365D01*
X120497835Y-130431384D01*
X120497834Y-130431385D01*
X120497833Y-130431385D01*
X120306564Y-130510611D01*
X120103516Y-130551000D01*
X119896484Y-130551000D01*
X119693436Y-130510611D01*
X119502167Y-130431385D01*
X119502166Y-130431385D01*
X119502165Y-130431384D01*
X119330027Y-130316365D01*
X119183635Y-130169973D01*
X119068616Y-129997835D01*
X119068615Y-129997833D01*
X118989389Y-129806564D01*
X118949000Y-129603516D01*
X118949000Y-129396484D01*
X118989389Y-129193436D01*
X119068615Y-129002167D01*
X119183635Y-128830027D01*
X119330027Y-128683635D01*
X119502165Y-128568616D01*
X119502167Y-128568615D01*
X119693436Y-128489389D01*
X119896484Y-128449000D01*
X120103516Y-128449000D01*
X120306564Y-128489389D01*
X120306564Y-128489389D01*
G37*
G36*
X111806564Y-128489389D02*
G01*
X111997833Y-128568615D01*
X111997835Y-128568616D01*
X112169973Y-128683635D01*
X112316365Y-128830027D01*
X112431385Y-129002167D01*
X112510611Y-129193436D01*
X112551000Y-129396484D01*
X112551000Y-129603516D01*
X112510611Y-129806564D01*
X112431385Y-129997833D01*
X112431384Y-129997835D01*
X112316365Y-130169973D01*
X112169973Y-130316365D01*
X111997835Y-130431384D01*
X111997834Y-130431385D01*
X111997833Y-130431385D01*
X111806564Y-130510611D01*
X111603516Y-130551000D01*
X111396484Y-130551000D01*
X111193436Y-130510611D01*
X111002167Y-130431385D01*
X111002166Y-130431385D01*
X111002165Y-130431384D01*
X110830027Y-130316365D01*
X110683635Y-130169973D01*
X110568616Y-129997835D01*
X110568615Y-129997833D01*
X110489389Y-129806564D01*
X110449000Y-129603516D01*
X110449000Y-129396484D01*
X110489389Y-129193436D01*
X110568615Y-129002167D01*
X110683635Y-128830027D01*
X110830027Y-128683635D01*
X111002165Y-128568616D01*
X111002167Y-128568615D01*
X111193436Y-128489389D01*
X111396484Y-128449000D01*
X111603516Y-128449000D01*
X111806564Y-128489389D01*
X111806564Y-128489389D01*
G37*
G36*
X90306564Y-128489389D02*
G01*
X90497833Y-128568615D01*
X90497835Y-128568616D01*
X90669973Y-128683635D01*
X90816365Y-128830027D01*
X90931385Y-129002167D01*
X91010611Y-129193436D01*
X91051000Y-129396484D01*
X91051000Y-129603516D01*
X91010611Y-129806564D01*
X90931385Y-129997833D01*
X90931384Y-129997835D01*
X90816365Y-130169973D01*
X90669973Y-130316365D01*
X90497835Y-130431384D01*
X90497834Y-130431385D01*
X90497833Y-130431385D01*
X90306564Y-130510611D01*
X90103516Y-130551000D01*
X89896484Y-130551000D01*
X89693436Y-130510611D01*
X89502167Y-130431385D01*
X89502166Y-130431385D01*
X89502165Y-130431384D01*
X89330027Y-130316365D01*
X89183635Y-130169973D01*
X89068616Y-129997835D01*
X89068615Y-129997833D01*
X88989389Y-129806564D01*
X88949000Y-129603516D01*
X88949000Y-129396484D01*
X88989389Y-129193436D01*
X89068615Y-129002167D01*
X89183635Y-128830027D01*
X89330027Y-128683635D01*
X89502165Y-128568616D01*
X89502167Y-128568615D01*
X89693436Y-128489389D01*
X89896484Y-128449000D01*
X90103516Y-128449000D01*
X90306564Y-128489389D01*
X90306564Y-128489389D01*
G37*
G36*
X96806564Y-128489389D02*
G01*
X96997833Y-128568615D01*
X96997835Y-128568616D01*
X97169973Y-128683635D01*
X97316365Y-128830027D01*
X97431385Y-129002167D01*
X97510611Y-129193436D01*
X97551000Y-129396484D01*
X97551000Y-129603516D01*
X97510611Y-129806564D01*
X97431385Y-129997833D01*
X97431384Y-129997835D01*
X97316365Y-130169973D01*
X97169973Y-130316365D01*
X96997835Y-130431384D01*
X96997834Y-130431385D01*
X96997833Y-130431385D01*
X96806564Y-130510611D01*
X96603516Y-130551000D01*
X96396484Y-130551000D01*
X96193436Y-130510611D01*
X96002167Y-130431385D01*
X96002166Y-130431385D01*
X96002165Y-130431384D01*
X95830027Y-130316365D01*
X95683635Y-130169973D01*
X95568616Y-129997835D01*
X95568615Y-129997833D01*
X95489389Y-129806564D01*
X95449000Y-129603516D01*
X95449000Y-129396484D01*
X95489389Y-129193436D01*
X95568615Y-129002167D01*
X95683635Y-128830027D01*
X95830027Y-128683635D01*
X96002165Y-128568616D01*
X96002167Y-128568615D01*
X96193436Y-128489389D01*
X96396484Y-128449000D01*
X96603516Y-128449000D01*
X96806564Y-128489389D01*
X96806564Y-128489389D01*
G37*
G36*
X105306564Y-128489389D02*
G01*
X105497833Y-128568615D01*
X105497835Y-128568616D01*
X105669973Y-128683635D01*
X105816365Y-128830027D01*
X105931385Y-129002167D01*
X106010611Y-129193436D01*
X106051000Y-129396484D01*
X106051000Y-129603516D01*
X106010611Y-129806564D01*
X105931385Y-129997833D01*
X105931384Y-129997835D01*
X105816365Y-130169973D01*
X105669973Y-130316365D01*
X105497835Y-130431384D01*
X105497834Y-130431385D01*
X105497833Y-130431385D01*
X105306564Y-130510611D01*
X105103516Y-130551000D01*
X104896484Y-130551000D01*
X104693436Y-130510611D01*
X104502167Y-130431385D01*
X104502166Y-130431385D01*
X104502165Y-130431384D01*
X104330027Y-130316365D01*
X104183635Y-130169973D01*
X104068616Y-129997835D01*
X104068615Y-129997833D01*
X103989389Y-129806564D01*
X103949000Y-129603516D01*
X103949000Y-129396484D01*
X103989389Y-129193436D01*
X104068615Y-129002167D01*
X104183635Y-128830027D01*
X104330027Y-128683635D01*
X104502165Y-128568616D01*
X104502167Y-128568615D01*
X104693436Y-128489389D01*
X104896484Y-128449000D01*
X105103516Y-128449000D01*
X105306564Y-128489389D01*
X105306564Y-128489389D01*
G37*
G36*
X126806564Y-128489389D02*
G01*
X126997833Y-128568615D01*
X126997835Y-128568616D01*
X127169973Y-128683635D01*
X127316365Y-128830027D01*
X127431385Y-129002167D01*
X127510611Y-129193436D01*
X127551000Y-129396484D01*
X127551000Y-129603516D01*
X127510611Y-129806564D01*
X127431385Y-129997833D01*
X127431384Y-129997835D01*
X127316365Y-130169973D01*
X127169973Y-130316365D01*
X126997835Y-130431384D01*
X126997834Y-130431385D01*
X126997833Y-130431385D01*
X126806564Y-130510611D01*
X126603516Y-130551000D01*
X126396484Y-130551000D01*
X126193436Y-130510611D01*
X126002167Y-130431385D01*
X126002166Y-130431385D01*
X126002165Y-130431384D01*
X125830027Y-130316365D01*
X125683635Y-130169973D01*
X125568616Y-129997835D01*
X125568615Y-129997833D01*
X125489389Y-129806564D01*
X125449000Y-129603516D01*
X125449000Y-129396484D01*
X125489389Y-129193436D01*
X125568615Y-129002167D01*
X125683635Y-128830027D01*
X125830027Y-128683635D01*
X126002165Y-128568616D01*
X126002167Y-128568615D01*
X126193436Y-128489389D01*
X126396484Y-128449000D01*
X126603516Y-128449000D01*
X126806564Y-128489389D01*
X126806564Y-128489389D01*
G37*
G36*
X105306564Y-123989389D02*
G01*
X105497833Y-124068615D01*
X105497835Y-124068616D01*
X105669973Y-124183635D01*
X105816365Y-124330027D01*
X105931385Y-124502167D01*
X106010611Y-124693436D01*
X106051000Y-124896484D01*
X106051000Y-125103516D01*
X106010611Y-125306564D01*
X105931385Y-125497833D01*
X105931384Y-125497835D01*
X105816365Y-125669973D01*
X105669973Y-125816365D01*
X105497835Y-125931384D01*
X105497834Y-125931385D01*
X105497833Y-125931385D01*
X105306564Y-126010611D01*
X105103516Y-126051000D01*
X104896484Y-126051000D01*
X104693436Y-126010611D01*
X104502167Y-125931385D01*
X104502166Y-125931385D01*
X104502165Y-125931384D01*
X104330027Y-125816365D01*
X104183635Y-125669973D01*
X104068616Y-125497835D01*
X104068615Y-125497833D01*
X103989389Y-125306564D01*
X103949000Y-125103516D01*
X103949000Y-124896484D01*
X103989389Y-124693436D01*
X104068615Y-124502167D01*
X104183635Y-124330027D01*
X104330027Y-124183635D01*
X104502165Y-124068616D01*
X104502167Y-124068615D01*
X104693436Y-123989389D01*
X104896484Y-123949000D01*
X105103516Y-123949000D01*
X105306564Y-123989389D01*
X105306564Y-123989389D01*
G37*
G36*
X156806564Y-123989389D02*
G01*
X156997833Y-124068615D01*
X156997835Y-124068616D01*
X157169973Y-124183635D01*
X157316365Y-124330027D01*
X157431385Y-124502167D01*
X157510611Y-124693436D01*
X157551000Y-124896484D01*
X157551000Y-125103516D01*
X157510611Y-125306564D01*
X157431385Y-125497833D01*
X157431384Y-125497835D01*
X157316365Y-125669973D01*
X157169973Y-125816365D01*
X156997835Y-125931384D01*
X156997834Y-125931385D01*
X156997833Y-125931385D01*
X156806564Y-126010611D01*
X156603516Y-126051000D01*
X156396484Y-126051000D01*
X156193436Y-126010611D01*
X156002167Y-125931385D01*
X156002166Y-125931385D01*
X156002165Y-125931384D01*
X155830027Y-125816365D01*
X155683635Y-125669973D01*
X155568616Y-125497835D01*
X155568615Y-125497833D01*
X155489389Y-125306564D01*
X155449000Y-125103516D01*
X155449000Y-124896484D01*
X155489389Y-124693436D01*
X155568615Y-124502167D01*
X155683635Y-124330027D01*
X155830027Y-124183635D01*
X156002165Y-124068616D01*
X156002167Y-124068615D01*
X156193436Y-123989389D01*
X156396484Y-123949000D01*
X156603516Y-123949000D01*
X156806564Y-123989389D01*
X156806564Y-123989389D01*
G37*
G36*
X150306564Y-123989389D02*
G01*
X150497833Y-124068615D01*
X150497835Y-124068616D01*
X150669973Y-124183635D01*
X150816365Y-124330027D01*
X150931385Y-124502167D01*
X151010611Y-124693436D01*
X151051000Y-124896484D01*
X151051000Y-125103516D01*
X151010611Y-125306564D01*
X150931385Y-125497833D01*
X150931384Y-125497835D01*
X150816365Y-125669973D01*
X150669973Y-125816365D01*
X150497835Y-125931384D01*
X150497834Y-125931385D01*
X150497833Y-125931385D01*
X150306564Y-126010611D01*
X150103516Y-126051000D01*
X149896484Y-126051000D01*
X149693436Y-126010611D01*
X149502167Y-125931385D01*
X149502166Y-125931385D01*
X149502165Y-125931384D01*
X149330027Y-125816365D01*
X149183635Y-125669973D01*
X149068616Y-125497835D01*
X149068615Y-125497833D01*
X148989389Y-125306564D01*
X148949000Y-125103516D01*
X148949000Y-124896484D01*
X148989389Y-124693436D01*
X149068615Y-124502167D01*
X149183635Y-124330027D01*
X149330027Y-124183635D01*
X149502165Y-124068616D01*
X149502167Y-124068615D01*
X149693436Y-123989389D01*
X149896484Y-123949000D01*
X150103516Y-123949000D01*
X150306564Y-123989389D01*
X150306564Y-123989389D01*
G37*
G36*
X90306564Y-123989389D02*
G01*
X90497833Y-124068615D01*
X90497835Y-124068616D01*
X90669973Y-124183635D01*
X90816365Y-124330027D01*
X90931385Y-124502167D01*
X91010611Y-124693436D01*
X91051000Y-124896484D01*
X91051000Y-125103516D01*
X91010611Y-125306564D01*
X90931385Y-125497833D01*
X90931384Y-125497835D01*
X90816365Y-125669973D01*
X90669973Y-125816365D01*
X90497835Y-125931384D01*
X90497834Y-125931385D01*
X90497833Y-125931385D01*
X90306564Y-126010611D01*
X90103516Y-126051000D01*
X89896484Y-126051000D01*
X89693436Y-126010611D01*
X89502167Y-125931385D01*
X89502166Y-125931385D01*
X89502165Y-125931384D01*
X89330027Y-125816365D01*
X89183635Y-125669973D01*
X89068616Y-125497835D01*
X89068615Y-125497833D01*
X88989389Y-125306564D01*
X88949000Y-125103516D01*
X88949000Y-124896484D01*
X88989389Y-124693436D01*
X89068615Y-124502167D01*
X89183635Y-124330027D01*
X89330027Y-124183635D01*
X89502165Y-124068616D01*
X89502167Y-124068615D01*
X89693436Y-123989389D01*
X89896484Y-123949000D01*
X90103516Y-123949000D01*
X90306564Y-123989389D01*
X90306564Y-123989389D01*
G37*
G36*
X96806564Y-123989389D02*
G01*
X96997833Y-124068615D01*
X96997835Y-124068616D01*
X97169973Y-124183635D01*
X97316365Y-124330027D01*
X97431385Y-124502167D01*
X97510611Y-124693436D01*
X97551000Y-124896484D01*
X97551000Y-125103516D01*
X97510611Y-125306564D01*
X97431385Y-125497833D01*
X97431384Y-125497835D01*
X97316365Y-125669973D01*
X97169973Y-125816365D01*
X96997835Y-125931384D01*
X96997834Y-125931385D01*
X96997833Y-125931385D01*
X96806564Y-126010611D01*
X96603516Y-126051000D01*
X96396484Y-126051000D01*
X96193436Y-126010611D01*
X96002167Y-125931385D01*
X96002166Y-125931385D01*
X96002165Y-125931384D01*
X95830027Y-125816365D01*
X95683635Y-125669973D01*
X95568616Y-125497835D01*
X95568615Y-125497833D01*
X95489389Y-125306564D01*
X95449000Y-125103516D01*
X95449000Y-124896484D01*
X95489389Y-124693436D01*
X95568615Y-124502167D01*
X95683635Y-124330027D01*
X95830027Y-124183635D01*
X96002165Y-124068616D01*
X96002167Y-124068615D01*
X96193436Y-123989389D01*
X96396484Y-123949000D01*
X96603516Y-123949000D01*
X96806564Y-123989389D01*
X96806564Y-123989389D01*
G37*
G36*
X111806564Y-123989389D02*
G01*
X111997833Y-124068615D01*
X111997835Y-124068616D01*
X112169973Y-124183635D01*
X112316365Y-124330027D01*
X112431385Y-124502167D01*
X112510611Y-124693436D01*
X112551000Y-124896484D01*
X112551000Y-125103516D01*
X112510611Y-125306564D01*
X112431385Y-125497833D01*
X112431384Y-125497835D01*
X112316365Y-125669973D01*
X112169973Y-125816365D01*
X111997835Y-125931384D01*
X111997834Y-125931385D01*
X111997833Y-125931385D01*
X111806564Y-126010611D01*
X111603516Y-126051000D01*
X111396484Y-126051000D01*
X111193436Y-126010611D01*
X111002167Y-125931385D01*
X111002166Y-125931385D01*
X111002165Y-125931384D01*
X110830027Y-125816365D01*
X110683635Y-125669973D01*
X110568616Y-125497835D01*
X110568615Y-125497833D01*
X110489389Y-125306564D01*
X110449000Y-125103516D01*
X110449000Y-124896484D01*
X110489389Y-124693436D01*
X110568615Y-124502167D01*
X110683635Y-124330027D01*
X110830027Y-124183635D01*
X111002165Y-124068616D01*
X111002167Y-124068615D01*
X111193436Y-123989389D01*
X111396484Y-123949000D01*
X111603516Y-123949000D01*
X111806564Y-123989389D01*
X111806564Y-123989389D01*
G37*
G36*
X141806564Y-123989389D02*
G01*
X141997833Y-124068615D01*
X141997835Y-124068616D01*
X142169973Y-124183635D01*
X142316365Y-124330027D01*
X142431385Y-124502167D01*
X142510611Y-124693436D01*
X142551000Y-124896484D01*
X142551000Y-125103516D01*
X142510611Y-125306564D01*
X142431385Y-125497833D01*
X142431384Y-125497835D01*
X142316365Y-125669973D01*
X142169973Y-125816365D01*
X141997835Y-125931384D01*
X141997834Y-125931385D01*
X141997833Y-125931385D01*
X141806564Y-126010611D01*
X141603516Y-126051000D01*
X141396484Y-126051000D01*
X141193436Y-126010611D01*
X141002167Y-125931385D01*
X141002166Y-125931385D01*
X141002165Y-125931384D01*
X140830027Y-125816365D01*
X140683635Y-125669973D01*
X140568616Y-125497835D01*
X140568615Y-125497833D01*
X140489389Y-125306564D01*
X140449000Y-125103516D01*
X140449000Y-124896484D01*
X140489389Y-124693436D01*
X140568615Y-124502167D01*
X140683635Y-124330027D01*
X140830027Y-124183635D01*
X141002165Y-124068616D01*
X141002167Y-124068615D01*
X141193436Y-123989389D01*
X141396484Y-123949000D01*
X141603516Y-123949000D01*
X141806564Y-123989389D01*
X141806564Y-123989389D01*
G37*
G36*
X120306564Y-123989389D02*
G01*
X120497833Y-124068615D01*
X120497835Y-124068616D01*
X120669973Y-124183635D01*
X120816365Y-124330027D01*
X120931385Y-124502167D01*
X121010611Y-124693436D01*
X121051000Y-124896484D01*
X121051000Y-125103516D01*
X121010611Y-125306564D01*
X120931385Y-125497833D01*
X120931384Y-125497835D01*
X120816365Y-125669973D01*
X120669973Y-125816365D01*
X120497835Y-125931384D01*
X120497834Y-125931385D01*
X120497833Y-125931385D01*
X120306564Y-126010611D01*
X120103516Y-126051000D01*
X119896484Y-126051000D01*
X119693436Y-126010611D01*
X119502167Y-125931385D01*
X119502166Y-125931385D01*
X119502165Y-125931384D01*
X119330027Y-125816365D01*
X119183635Y-125669973D01*
X119068616Y-125497835D01*
X119068615Y-125497833D01*
X118989389Y-125306564D01*
X118949000Y-125103516D01*
X118949000Y-124896484D01*
X118989389Y-124693436D01*
X119068615Y-124502167D01*
X119183635Y-124330027D01*
X119330027Y-124183635D01*
X119502165Y-124068616D01*
X119502167Y-124068615D01*
X119693436Y-123989389D01*
X119896484Y-123949000D01*
X120103516Y-123949000D01*
X120306564Y-123989389D01*
X120306564Y-123989389D01*
G37*
G36*
X135306564Y-123989389D02*
G01*
X135497833Y-124068615D01*
X135497835Y-124068616D01*
X135669973Y-124183635D01*
X135816365Y-124330027D01*
X135931385Y-124502167D01*
X136010611Y-124693436D01*
X136051000Y-124896484D01*
X136051000Y-125103516D01*
X136010611Y-125306564D01*
X135931385Y-125497833D01*
X135931384Y-125497835D01*
X135816365Y-125669973D01*
X135669973Y-125816365D01*
X135497835Y-125931384D01*
X135497834Y-125931385D01*
X135497833Y-125931385D01*
X135306564Y-126010611D01*
X135103516Y-126051000D01*
X134896484Y-126051000D01*
X134693436Y-126010611D01*
X134502167Y-125931385D01*
X134502166Y-125931385D01*
X134502165Y-125931384D01*
X134330027Y-125816365D01*
X134183635Y-125669973D01*
X134068616Y-125497835D01*
X134068615Y-125497833D01*
X133989389Y-125306564D01*
X133949000Y-125103516D01*
X133949000Y-124896484D01*
X133989389Y-124693436D01*
X134068615Y-124502167D01*
X134183635Y-124330027D01*
X134330027Y-124183635D01*
X134502165Y-124068616D01*
X134502167Y-124068615D01*
X134693436Y-123989389D01*
X134896484Y-123949000D01*
X135103516Y-123949000D01*
X135306564Y-123989389D01*
X135306564Y-123989389D01*
G37*
G36*
X126806564Y-123989389D02*
G01*
X126997833Y-124068615D01*
X126997835Y-124068616D01*
X127169973Y-124183635D01*
X127316365Y-124330027D01*
X127431385Y-124502167D01*
X127510611Y-124693436D01*
X127551000Y-124896484D01*
X127551000Y-125103516D01*
X127510611Y-125306564D01*
X127431385Y-125497833D01*
X127431384Y-125497835D01*
X127316365Y-125669973D01*
X127169973Y-125816365D01*
X126997835Y-125931384D01*
X126997834Y-125931385D01*
X126997833Y-125931385D01*
X126806564Y-126010611D01*
X126603516Y-126051000D01*
X126396484Y-126051000D01*
X126193436Y-126010611D01*
X126002167Y-125931385D01*
X126002166Y-125931385D01*
X126002165Y-125931384D01*
X125830027Y-125816365D01*
X125683635Y-125669973D01*
X125568616Y-125497835D01*
X125568615Y-125497833D01*
X125489389Y-125306564D01*
X125449000Y-125103516D01*
X125449000Y-124896484D01*
X125489389Y-124693436D01*
X125568615Y-124502167D01*
X125683635Y-124330027D01*
X125830027Y-124183635D01*
X126002165Y-124068616D01*
X126002167Y-124068615D01*
X126193436Y-123989389D01*
X126396484Y-123949000D01*
X126603516Y-123949000D01*
X126806564Y-123989389D01*
X126806564Y-123989389D01*
G37*
G36*
X73301000Y-125551000D02*
G01*
X71699000Y-125551000D01*
X71699000Y-123449000D01*
X73301000Y-123449000D01*
X73301000Y-125551000D01*
X73301000Y-125551000D01*
G37*
G36*
X78301000Y-125551000D02*
G01*
X76699000Y-125551000D01*
X76699000Y-123449000D01*
X78301000Y-123449000D01*
X78301000Y-125551000D01*
X78301000Y-125551000D01*
G37*
G36*
X70841000Y-125011000D02*
G01*
X69539000Y-125011000D01*
X69539000Y-124009000D01*
X70841000Y-124009000D01*
X70841000Y-125011000D01*
X70841000Y-125011000D01*
G37*
G36*
X70841000Y-121711000D02*
G01*
X69539000Y-121711000D01*
X69539000Y-120709000D01*
X70841000Y-120709000D01*
X70841000Y-121711000D01*
X70841000Y-121711000D01*
G37*
G36*
X94359468Y-117328565D02*
G01*
X94398138Y-117340296D01*
X94433777Y-117359346D01*
X94465017Y-117384983D01*
X94490654Y-117416223D01*
X94509704Y-117451862D01*
X94521435Y-117490532D01*
X94526000Y-117536888D01*
X94526000Y-118613112D01*
X94521435Y-118659468D01*
X94509704Y-118698138D01*
X94490654Y-118733777D01*
X94465017Y-118765017D01*
X94433777Y-118790654D01*
X94398138Y-118809704D01*
X94359468Y-118821435D01*
X94313112Y-118826000D01*
X93661888Y-118826000D01*
X93615532Y-118821435D01*
X93576862Y-118809704D01*
X93541223Y-118790654D01*
X93509983Y-118765017D01*
X93484346Y-118733777D01*
X93465296Y-118698138D01*
X93453565Y-118659468D01*
X93449000Y-118613112D01*
X93449000Y-117536888D01*
X93453565Y-117490532D01*
X93465296Y-117451862D01*
X93484346Y-117416223D01*
X93509983Y-117384983D01*
X93541223Y-117359346D01*
X93576862Y-117340296D01*
X93615532Y-117328565D01*
X93661888Y-117324000D01*
X94313112Y-117324000D01*
X94359468Y-117328565D01*
X94359468Y-117328565D01*
G37*
G36*
X96234468Y-117328565D02*
G01*
X96273138Y-117340296D01*
X96308777Y-117359346D01*
X96340017Y-117384983D01*
X96365654Y-117416223D01*
X96384704Y-117451862D01*
X96396435Y-117490532D01*
X96401000Y-117536888D01*
X96401000Y-118613112D01*
X96396435Y-118659468D01*
X96384704Y-118698138D01*
X96365654Y-118733777D01*
X96340017Y-118765017D01*
X96308777Y-118790654D01*
X96273138Y-118809704D01*
X96234468Y-118821435D01*
X96188112Y-118826000D01*
X95536888Y-118826000D01*
X95490532Y-118821435D01*
X95451862Y-118809704D01*
X95416223Y-118790654D01*
X95384983Y-118765017D01*
X95359346Y-118733777D01*
X95340296Y-118698138D01*
X95328565Y-118659468D01*
X95324000Y-118613112D01*
X95324000Y-117536888D01*
X95328565Y-117490532D01*
X95340296Y-117451862D01*
X95359346Y-117416223D01*
X95384983Y-117384983D01*
X95416223Y-117359346D01*
X95451862Y-117340296D01*
X95490532Y-117328565D01*
X95536888Y-117324000D01*
X96188112Y-117324000D01*
X96234468Y-117328565D01*
X96234468Y-117328565D01*
G37*
G36*
X114384468Y-117178565D02*
G01*
X114423138Y-117190296D01*
X114458777Y-117209346D01*
X114490017Y-117234983D01*
X114515654Y-117266223D01*
X114534704Y-117301862D01*
X114546435Y-117340532D01*
X114551000Y-117386888D01*
X114551000Y-118463112D01*
X114546435Y-118509468D01*
X114534704Y-118548138D01*
X114515654Y-118583777D01*
X114490017Y-118615017D01*
X114458777Y-118640654D01*
X114423138Y-118659704D01*
X114384468Y-118671435D01*
X114338112Y-118676000D01*
X113686888Y-118676000D01*
X113640532Y-118671435D01*
X113601862Y-118659704D01*
X113566223Y-118640654D01*
X113534983Y-118615017D01*
X113509346Y-118583777D01*
X113490296Y-118548138D01*
X113478565Y-118509468D01*
X113474000Y-118463112D01*
X113474000Y-117386888D01*
X113478565Y-117340532D01*
X113490296Y-117301862D01*
X113509346Y-117266223D01*
X113534983Y-117234983D01*
X113566223Y-117209346D01*
X113601862Y-117190296D01*
X113640532Y-117178565D01*
X113686888Y-117174000D01*
X114338112Y-117174000D01*
X114384468Y-117178565D01*
X114384468Y-117178565D01*
G37*
G36*
X116259468Y-117178565D02*
G01*
X116298138Y-117190296D01*
X116333777Y-117209346D01*
X116365017Y-117234983D01*
X116390654Y-117266223D01*
X116409704Y-117301862D01*
X116421435Y-117340532D01*
X116426000Y-117386888D01*
X116426000Y-118463112D01*
X116421435Y-118509468D01*
X116409704Y-118548138D01*
X116390654Y-118583777D01*
X116365017Y-118615017D01*
X116333777Y-118640654D01*
X116298138Y-118659704D01*
X116259468Y-118671435D01*
X116213112Y-118676000D01*
X115561888Y-118676000D01*
X115515532Y-118671435D01*
X115476862Y-118659704D01*
X115441223Y-118640654D01*
X115409983Y-118615017D01*
X115384346Y-118583777D01*
X115365296Y-118548138D01*
X115353565Y-118509468D01*
X115349000Y-118463112D01*
X115349000Y-117386888D01*
X115353565Y-117340532D01*
X115365296Y-117301862D01*
X115384346Y-117266223D01*
X115409983Y-117234983D01*
X115441223Y-117209346D01*
X115476862Y-117190296D01*
X115515532Y-117178565D01*
X115561888Y-117174000D01*
X116213112Y-117174000D01*
X116259468Y-117178565D01*
X116259468Y-117178565D01*
G37*
G36*
X76284468Y-117078565D02*
G01*
X76323138Y-117090296D01*
X76358777Y-117109346D01*
X76390017Y-117134983D01*
X76415654Y-117166223D01*
X76434704Y-117201862D01*
X76446435Y-117240532D01*
X76451000Y-117286888D01*
X76451000Y-118363112D01*
X76446435Y-118409468D01*
X76434704Y-118448138D01*
X76415654Y-118483777D01*
X76390017Y-118515017D01*
X76358777Y-118540654D01*
X76323138Y-118559704D01*
X76284468Y-118571435D01*
X76238112Y-118576000D01*
X75586888Y-118576000D01*
X75540532Y-118571435D01*
X75501862Y-118559704D01*
X75466223Y-118540654D01*
X75434983Y-118515017D01*
X75409346Y-118483777D01*
X75390296Y-118448138D01*
X75378565Y-118409468D01*
X75374000Y-118363112D01*
X75374000Y-117286888D01*
X75378565Y-117240532D01*
X75390296Y-117201862D01*
X75409346Y-117166223D01*
X75434983Y-117134983D01*
X75466223Y-117109346D01*
X75501862Y-117090296D01*
X75540532Y-117078565D01*
X75586888Y-117074000D01*
X76238112Y-117074000D01*
X76284468Y-117078565D01*
X76284468Y-117078565D01*
G37*
G36*
X74409468Y-117078565D02*
G01*
X74448138Y-117090296D01*
X74483777Y-117109346D01*
X74515017Y-117134983D01*
X74540654Y-117166223D01*
X74559704Y-117201862D01*
X74571435Y-117240532D01*
X74576000Y-117286888D01*
X74576000Y-118363112D01*
X74571435Y-118409468D01*
X74559704Y-118448138D01*
X74540654Y-118483777D01*
X74515017Y-118515017D01*
X74483777Y-118540654D01*
X74448138Y-118559704D01*
X74409468Y-118571435D01*
X74363112Y-118576000D01*
X73711888Y-118576000D01*
X73665532Y-118571435D01*
X73626862Y-118559704D01*
X73591223Y-118540654D01*
X73559983Y-118515017D01*
X73534346Y-118483777D01*
X73515296Y-118448138D01*
X73503565Y-118409468D01*
X73499000Y-118363112D01*
X73499000Y-117286888D01*
X73503565Y-117240532D01*
X73515296Y-117201862D01*
X73534346Y-117166223D01*
X73559983Y-117134983D01*
X73591223Y-117109346D01*
X73626862Y-117090296D01*
X73665532Y-117078565D01*
X73711888Y-117074000D01*
X74363112Y-117074000D01*
X74409468Y-117078565D01*
X74409468Y-117078565D01*
G37*
G36*
X136234468Y-117028565D02*
G01*
X136273138Y-117040296D01*
X136308777Y-117059346D01*
X136340017Y-117084983D01*
X136365654Y-117116223D01*
X136384704Y-117151862D01*
X136396435Y-117190532D01*
X136401000Y-117236888D01*
X136401000Y-118313112D01*
X136396435Y-118359468D01*
X136384704Y-118398138D01*
X136365654Y-118433777D01*
X136340017Y-118465017D01*
X136308777Y-118490654D01*
X136273138Y-118509704D01*
X136234468Y-118521435D01*
X136188112Y-118526000D01*
X135536888Y-118526000D01*
X135490532Y-118521435D01*
X135451862Y-118509704D01*
X135416223Y-118490654D01*
X135384983Y-118465017D01*
X135359346Y-118433777D01*
X135340296Y-118398138D01*
X135328565Y-118359468D01*
X135324000Y-118313112D01*
X135324000Y-117236888D01*
X135328565Y-117190532D01*
X135340296Y-117151862D01*
X135359346Y-117116223D01*
X135384983Y-117084983D01*
X135416223Y-117059346D01*
X135451862Y-117040296D01*
X135490532Y-117028565D01*
X135536888Y-117024000D01*
X136188112Y-117024000D01*
X136234468Y-117028565D01*
X136234468Y-117028565D01*
G37*
G36*
X134359468Y-117028565D02*
G01*
X134398138Y-117040296D01*
X134433777Y-117059346D01*
X134465017Y-117084983D01*
X134490654Y-117116223D01*
X134509704Y-117151862D01*
X134521435Y-117190532D01*
X134526000Y-117236888D01*
X134526000Y-118313112D01*
X134521435Y-118359468D01*
X134509704Y-118398138D01*
X134490654Y-118433777D01*
X134465017Y-118465017D01*
X134433777Y-118490654D01*
X134398138Y-118509704D01*
X134359468Y-118521435D01*
X134313112Y-118526000D01*
X133661888Y-118526000D01*
X133615532Y-118521435D01*
X133576862Y-118509704D01*
X133541223Y-118490654D01*
X133509983Y-118465017D01*
X133484346Y-118433777D01*
X133465296Y-118398138D01*
X133453565Y-118359468D01*
X133449000Y-118313112D01*
X133449000Y-117236888D01*
X133453565Y-117190532D01*
X133465296Y-117151862D01*
X133484346Y-117116223D01*
X133509983Y-117084983D01*
X133541223Y-117059346D01*
X133576862Y-117040296D01*
X133615532Y-117028565D01*
X133661888Y-117024000D01*
X134313112Y-117024000D01*
X134359468Y-117028565D01*
X134359468Y-117028565D01*
G37*
G36*
X156259468Y-116603565D02*
G01*
X156298138Y-116615296D01*
X156333777Y-116634346D01*
X156365017Y-116659983D01*
X156390654Y-116691223D01*
X156409704Y-116726862D01*
X156421435Y-116765532D01*
X156426000Y-116811888D01*
X156426000Y-117888112D01*
X156421435Y-117934468D01*
X156409704Y-117973138D01*
X156390654Y-118008777D01*
X156365017Y-118040017D01*
X156333777Y-118065654D01*
X156298138Y-118084704D01*
X156259468Y-118096435D01*
X156213112Y-118101000D01*
X155561888Y-118101000D01*
X155515532Y-118096435D01*
X155476862Y-118084704D01*
X155441223Y-118065654D01*
X155409983Y-118040017D01*
X155384346Y-118008777D01*
X155365296Y-117973138D01*
X155353565Y-117934468D01*
X155349000Y-117888112D01*
X155349000Y-116811888D01*
X155353565Y-116765532D01*
X155365296Y-116726862D01*
X155384346Y-116691223D01*
X155409983Y-116659983D01*
X155441223Y-116634346D01*
X155476862Y-116615296D01*
X155515532Y-116603565D01*
X155561888Y-116599000D01*
X156213112Y-116599000D01*
X156259468Y-116603565D01*
X156259468Y-116603565D01*
G37*
G36*
X154384468Y-116603565D02*
G01*
X154423138Y-116615296D01*
X154458777Y-116634346D01*
X154490017Y-116659983D01*
X154515654Y-116691223D01*
X154534704Y-116726862D01*
X154546435Y-116765532D01*
X154551000Y-116811888D01*
X154551000Y-117888112D01*
X154546435Y-117934468D01*
X154534704Y-117973138D01*
X154515654Y-118008777D01*
X154490017Y-118040017D01*
X154458777Y-118065654D01*
X154423138Y-118084704D01*
X154384468Y-118096435D01*
X154338112Y-118101000D01*
X153686888Y-118101000D01*
X153640532Y-118096435D01*
X153601862Y-118084704D01*
X153566223Y-118065654D01*
X153534983Y-118040017D01*
X153509346Y-118008777D01*
X153490296Y-117973138D01*
X153478565Y-117934468D01*
X153474000Y-117888112D01*
X153474000Y-116811888D01*
X153478565Y-116765532D01*
X153490296Y-116726862D01*
X153509346Y-116691223D01*
X153534983Y-116659983D01*
X153566223Y-116634346D01*
X153601862Y-116615296D01*
X153640532Y-116603565D01*
X153686888Y-116599000D01*
X154338112Y-116599000D01*
X154384468Y-116603565D01*
X154384468Y-116603565D01*
G37*
G36*
X136466000Y-116486000D02*
G01*
X135564000Y-116486000D01*
X135564000Y-115684000D01*
X136466000Y-115684000D01*
X136466000Y-116486000D01*
X136466000Y-116486000D01*
G37*
G36*
X74436000Y-116486000D02*
G01*
X73534000Y-116486000D01*
X73534000Y-115684000D01*
X74436000Y-115684000D01*
X74436000Y-116486000D01*
X74436000Y-116486000D01*
G37*
G36*
X96466000Y-116486000D02*
G01*
X95564000Y-116486000D01*
X95564000Y-115684000D01*
X96466000Y-115684000D01*
X96466000Y-116486000D01*
X96466000Y-116486000D01*
G37*
G36*
X116466000Y-116486000D02*
G01*
X115564000Y-116486000D01*
X115564000Y-115684000D01*
X116466000Y-115684000D01*
X116466000Y-116486000D01*
X116466000Y-116486000D01*
G37*
G36*
X94436000Y-116486000D02*
G01*
X93534000Y-116486000D01*
X93534000Y-115684000D01*
X94436000Y-115684000D01*
X94436000Y-116486000D01*
X94436000Y-116486000D01*
G37*
G36*
X114436000Y-116486000D02*
G01*
X113534000Y-116486000D01*
X113534000Y-115684000D01*
X114436000Y-115684000D01*
X114436000Y-116486000D01*
X114436000Y-116486000D01*
G37*
G36*
X134436000Y-116486000D02*
G01*
X133534000Y-116486000D01*
X133534000Y-115684000D01*
X134436000Y-115684000D01*
X134436000Y-116486000D01*
X134436000Y-116486000D01*
G37*
G36*
X76466000Y-116486000D02*
G01*
X75564000Y-116486000D01*
X75564000Y-115684000D01*
X76466000Y-115684000D01*
X76466000Y-116486000D01*
X76466000Y-116486000D01*
G37*
G36*
X154436000Y-115986000D02*
G01*
X153534000Y-115986000D01*
X153534000Y-115184000D01*
X154436000Y-115184000D01*
X154436000Y-115986000D01*
X154436000Y-115986000D01*
G37*
G36*
X156466000Y-115986000D02*
G01*
X155564000Y-115986000D01*
X155564000Y-115184000D01*
X156466000Y-115184000D01*
X156466000Y-115986000D01*
X156466000Y-115986000D01*
G37*
G36*
X76466000Y-115316000D02*
G01*
X75564000Y-115316000D01*
X75564000Y-114514000D01*
X76466000Y-114514000D01*
X76466000Y-115316000D01*
X76466000Y-115316000D01*
G37*
G36*
X114436000Y-115316000D02*
G01*
X113534000Y-115316000D01*
X113534000Y-114514000D01*
X114436000Y-114514000D01*
X114436000Y-115316000D01*
X114436000Y-115316000D01*
G37*
G36*
X136466000Y-115316000D02*
G01*
X135564000Y-115316000D01*
X135564000Y-114514000D01*
X136466000Y-114514000D01*
X136466000Y-115316000D01*
X136466000Y-115316000D01*
G37*
G36*
X134436000Y-115316000D02*
G01*
X133534000Y-115316000D01*
X133534000Y-114514000D01*
X134436000Y-114514000D01*
X134436000Y-115316000D01*
X134436000Y-115316000D01*
G37*
G36*
X96466000Y-115316000D02*
G01*
X95564000Y-115316000D01*
X95564000Y-114514000D01*
X96466000Y-114514000D01*
X96466000Y-115316000D01*
X96466000Y-115316000D01*
G37*
G36*
X94436000Y-115316000D02*
G01*
X93534000Y-115316000D01*
X93534000Y-114514000D01*
X94436000Y-114514000D01*
X94436000Y-115316000D01*
X94436000Y-115316000D01*
G37*
G36*
X74436000Y-115316000D02*
G01*
X73534000Y-115316000D01*
X73534000Y-114514000D01*
X74436000Y-114514000D01*
X74436000Y-115316000D01*
X74436000Y-115316000D01*
G37*
G36*
X116466000Y-115316000D02*
G01*
X115564000Y-115316000D01*
X115564000Y-114514000D01*
X116466000Y-114514000D01*
X116466000Y-115316000D01*
X116466000Y-115316000D01*
G37*
G36*
X156466000Y-114816000D02*
G01*
X155564000Y-114816000D01*
X155564000Y-114014000D01*
X156466000Y-114014000D01*
X156466000Y-114816000D01*
X156466000Y-114816000D01*
G37*
G36*
X154436000Y-114816000D02*
G01*
X153534000Y-114816000D01*
X153534000Y-114014000D01*
X154436000Y-114014000D01*
X154436000Y-114816000D01*
X154436000Y-114816000D01*
G37*
G36*
X81609468Y-111853565D02*
G01*
X81648138Y-111865296D01*
X81683777Y-111884346D01*
X81715017Y-111909983D01*
X81740654Y-111941223D01*
X81759704Y-111976862D01*
X81771435Y-112015532D01*
X81776000Y-112061888D01*
X81776000Y-113138112D01*
X81771435Y-113184468D01*
X81759704Y-113223138D01*
X81740654Y-113258777D01*
X81715017Y-113290017D01*
X81683777Y-113315654D01*
X81648138Y-113334704D01*
X81609468Y-113346435D01*
X81563112Y-113351000D01*
X80911888Y-113351000D01*
X80865532Y-113346435D01*
X80826862Y-113334704D01*
X80791223Y-113315654D01*
X80759983Y-113290017D01*
X80734346Y-113258777D01*
X80715296Y-113223138D01*
X80703565Y-113184468D01*
X80699000Y-113138112D01*
X80699000Y-112061888D01*
X80703565Y-112015532D01*
X80715296Y-111976862D01*
X80734346Y-111941223D01*
X80759983Y-111909983D01*
X80791223Y-111884346D01*
X80826862Y-111865296D01*
X80865532Y-111853565D01*
X80911888Y-111849000D01*
X81563112Y-111849000D01*
X81609468Y-111853565D01*
X81609468Y-111853565D01*
G37*
G36*
X69134468Y-111853565D02*
G01*
X69173138Y-111865296D01*
X69208777Y-111884346D01*
X69240017Y-111909983D01*
X69265654Y-111941223D01*
X69284704Y-111976862D01*
X69296435Y-112015532D01*
X69301000Y-112061888D01*
X69301000Y-113138112D01*
X69296435Y-113184468D01*
X69284704Y-113223138D01*
X69265654Y-113258777D01*
X69240017Y-113290017D01*
X69208777Y-113315654D01*
X69173138Y-113334704D01*
X69134468Y-113346435D01*
X69088112Y-113351000D01*
X68436888Y-113351000D01*
X68390532Y-113346435D01*
X68351862Y-113334704D01*
X68316223Y-113315654D01*
X68284983Y-113290017D01*
X68259346Y-113258777D01*
X68240296Y-113223138D01*
X68228565Y-113184468D01*
X68224000Y-113138112D01*
X68224000Y-112061888D01*
X68228565Y-112015532D01*
X68240296Y-111976862D01*
X68259346Y-111941223D01*
X68284983Y-111909983D01*
X68316223Y-111884346D01*
X68351862Y-111865296D01*
X68390532Y-111853565D01*
X68436888Y-111849000D01*
X69088112Y-111849000D01*
X69134468Y-111853565D01*
X69134468Y-111853565D01*
G37*
G36*
X71009468Y-111853565D02*
G01*
X71048138Y-111865296D01*
X71083777Y-111884346D01*
X71115017Y-111909983D01*
X71140654Y-111941223D01*
X71159704Y-111976862D01*
X71171435Y-112015532D01*
X71176000Y-112061888D01*
X71176000Y-113138112D01*
X71171435Y-113184468D01*
X71159704Y-113223138D01*
X71140654Y-113258777D01*
X71115017Y-113290017D01*
X71083777Y-113315654D01*
X71048138Y-113334704D01*
X71009468Y-113346435D01*
X70963112Y-113351000D01*
X70311888Y-113351000D01*
X70265532Y-113346435D01*
X70226862Y-113334704D01*
X70191223Y-113315654D01*
X70159983Y-113290017D01*
X70134346Y-113258777D01*
X70115296Y-113223138D01*
X70103565Y-113184468D01*
X70099000Y-113138112D01*
X70099000Y-112061888D01*
X70103565Y-112015532D01*
X70115296Y-111976862D01*
X70134346Y-111941223D01*
X70159983Y-111909983D01*
X70191223Y-111884346D01*
X70226862Y-111865296D01*
X70265532Y-111853565D01*
X70311888Y-111849000D01*
X70963112Y-111849000D01*
X71009468Y-111853565D01*
X71009468Y-111853565D01*
G37*
G36*
X79734468Y-111853565D02*
G01*
X79773138Y-111865296D01*
X79808777Y-111884346D01*
X79840017Y-111909983D01*
X79865654Y-111941223D01*
X79884704Y-111976862D01*
X79896435Y-112015532D01*
X79901000Y-112061888D01*
X79901000Y-113138112D01*
X79896435Y-113184468D01*
X79884704Y-113223138D01*
X79865654Y-113258777D01*
X79840017Y-113290017D01*
X79808777Y-113315654D01*
X79773138Y-113334704D01*
X79734468Y-113346435D01*
X79688112Y-113351000D01*
X79036888Y-113351000D01*
X78990532Y-113346435D01*
X78951862Y-113334704D01*
X78916223Y-113315654D01*
X78884983Y-113290017D01*
X78859346Y-113258777D01*
X78840296Y-113223138D01*
X78828565Y-113184468D01*
X78824000Y-113138112D01*
X78824000Y-112061888D01*
X78828565Y-112015532D01*
X78840296Y-111976862D01*
X78859346Y-111941223D01*
X78884983Y-111909983D01*
X78916223Y-111884346D01*
X78951862Y-111865296D01*
X78990532Y-111853565D01*
X79036888Y-111849000D01*
X79688112Y-111849000D01*
X79734468Y-111853565D01*
X79734468Y-111853565D01*
G37*
G36*
X151009468Y-111753565D02*
G01*
X151048138Y-111765296D01*
X151083777Y-111784346D01*
X151115017Y-111809983D01*
X151140654Y-111841223D01*
X151159704Y-111876862D01*
X151171435Y-111915532D01*
X151176000Y-111961888D01*
X151176000Y-113038112D01*
X151171435Y-113084468D01*
X151159704Y-113123138D01*
X151140654Y-113158777D01*
X151115017Y-113190017D01*
X151083777Y-113215654D01*
X151048138Y-113234704D01*
X151009468Y-113246435D01*
X150963112Y-113251000D01*
X150311888Y-113251000D01*
X150265532Y-113246435D01*
X150226862Y-113234704D01*
X150191223Y-113215654D01*
X150159983Y-113190017D01*
X150134346Y-113158777D01*
X150115296Y-113123138D01*
X150103565Y-113084468D01*
X150099000Y-113038112D01*
X150099000Y-111961888D01*
X150103565Y-111915532D01*
X150115296Y-111876862D01*
X150134346Y-111841223D01*
X150159983Y-111809983D01*
X150191223Y-111784346D01*
X150226862Y-111765296D01*
X150265532Y-111753565D01*
X150311888Y-111749000D01*
X150963112Y-111749000D01*
X151009468Y-111753565D01*
X151009468Y-111753565D01*
G37*
G36*
X99734468Y-111753565D02*
G01*
X99773138Y-111765296D01*
X99808777Y-111784346D01*
X99840017Y-111809983D01*
X99865654Y-111841223D01*
X99884704Y-111876862D01*
X99896435Y-111915532D01*
X99901000Y-111961888D01*
X99901000Y-113038112D01*
X99896435Y-113084468D01*
X99884704Y-113123138D01*
X99865654Y-113158777D01*
X99840017Y-113190017D01*
X99808777Y-113215654D01*
X99773138Y-113234704D01*
X99734468Y-113246435D01*
X99688112Y-113251000D01*
X99036888Y-113251000D01*
X98990532Y-113246435D01*
X98951862Y-113234704D01*
X98916223Y-113215654D01*
X98884983Y-113190017D01*
X98859346Y-113158777D01*
X98840296Y-113123138D01*
X98828565Y-113084468D01*
X98824000Y-113038112D01*
X98824000Y-111961888D01*
X98828565Y-111915532D01*
X98840296Y-111876862D01*
X98859346Y-111841223D01*
X98884983Y-111809983D01*
X98916223Y-111784346D01*
X98951862Y-111765296D01*
X98990532Y-111753565D01*
X99036888Y-111749000D01*
X99688112Y-111749000D01*
X99734468Y-111753565D01*
X99734468Y-111753565D01*
G37*
G36*
X110859468Y-111753565D02*
G01*
X110898138Y-111765296D01*
X110933777Y-111784346D01*
X110965017Y-111809983D01*
X110990654Y-111841223D01*
X111009704Y-111876862D01*
X111021435Y-111915532D01*
X111026000Y-111961888D01*
X111026000Y-113038112D01*
X111021435Y-113084468D01*
X111009704Y-113123138D01*
X110990654Y-113158777D01*
X110965017Y-113190017D01*
X110933777Y-113215654D01*
X110898138Y-113234704D01*
X110859468Y-113246435D01*
X110813112Y-113251000D01*
X110161888Y-113251000D01*
X110115532Y-113246435D01*
X110076862Y-113234704D01*
X110041223Y-113215654D01*
X110009983Y-113190017D01*
X109984346Y-113158777D01*
X109965296Y-113123138D01*
X109953565Y-113084468D01*
X109949000Y-113038112D01*
X109949000Y-111961888D01*
X109953565Y-111915532D01*
X109965296Y-111876862D01*
X109984346Y-111841223D01*
X110009983Y-111809983D01*
X110041223Y-111784346D01*
X110076862Y-111765296D01*
X110115532Y-111753565D01*
X110161888Y-111749000D01*
X110813112Y-111749000D01*
X110859468Y-111753565D01*
X110859468Y-111753565D01*
G37*
G36*
X108984468Y-111753565D02*
G01*
X109023138Y-111765296D01*
X109058777Y-111784346D01*
X109090017Y-111809983D01*
X109115654Y-111841223D01*
X109134704Y-111876862D01*
X109146435Y-111915532D01*
X109151000Y-111961888D01*
X109151000Y-113038112D01*
X109146435Y-113084468D01*
X109134704Y-113123138D01*
X109115654Y-113158777D01*
X109090017Y-113190017D01*
X109058777Y-113215654D01*
X109023138Y-113234704D01*
X108984468Y-113246435D01*
X108938112Y-113251000D01*
X108286888Y-113251000D01*
X108240532Y-113246435D01*
X108201862Y-113234704D01*
X108166223Y-113215654D01*
X108134983Y-113190017D01*
X108109346Y-113158777D01*
X108090296Y-113123138D01*
X108078565Y-113084468D01*
X108074000Y-113038112D01*
X108074000Y-111961888D01*
X108078565Y-111915532D01*
X108090296Y-111876862D01*
X108109346Y-111841223D01*
X108134983Y-111809983D01*
X108166223Y-111784346D01*
X108201862Y-111765296D01*
X108240532Y-111753565D01*
X108286888Y-111749000D01*
X108938112Y-111749000D01*
X108984468Y-111753565D01*
X108984468Y-111753565D01*
G37*
G36*
X121634468Y-111753565D02*
G01*
X121673138Y-111765296D01*
X121708777Y-111784346D01*
X121740017Y-111809983D01*
X121765654Y-111841223D01*
X121784704Y-111876862D01*
X121796435Y-111915532D01*
X121801000Y-111961888D01*
X121801000Y-113038112D01*
X121796435Y-113084468D01*
X121784704Y-113123138D01*
X121765654Y-113158777D01*
X121740017Y-113190017D01*
X121708777Y-113215654D01*
X121673138Y-113234704D01*
X121634468Y-113246435D01*
X121588112Y-113251000D01*
X120936888Y-113251000D01*
X120890532Y-113246435D01*
X120851862Y-113234704D01*
X120816223Y-113215654D01*
X120784983Y-113190017D01*
X120759346Y-113158777D01*
X120740296Y-113123138D01*
X120728565Y-113084468D01*
X120724000Y-113038112D01*
X120724000Y-111961888D01*
X120728565Y-111915532D01*
X120740296Y-111876862D01*
X120759346Y-111841223D01*
X120784983Y-111809983D01*
X120816223Y-111784346D01*
X120851862Y-111765296D01*
X120890532Y-111753565D01*
X120936888Y-111749000D01*
X121588112Y-111749000D01*
X121634468Y-111753565D01*
X121634468Y-111753565D01*
G37*
G36*
X119759468Y-111753565D02*
G01*
X119798138Y-111765296D01*
X119833777Y-111784346D01*
X119865017Y-111809983D01*
X119890654Y-111841223D01*
X119909704Y-111876862D01*
X119921435Y-111915532D01*
X119926000Y-111961888D01*
X119926000Y-113038112D01*
X119921435Y-113084468D01*
X119909704Y-113123138D01*
X119890654Y-113158777D01*
X119865017Y-113190017D01*
X119833777Y-113215654D01*
X119798138Y-113234704D01*
X119759468Y-113246435D01*
X119713112Y-113251000D01*
X119061888Y-113251000D01*
X119015532Y-113246435D01*
X118976862Y-113234704D01*
X118941223Y-113215654D01*
X118909983Y-113190017D01*
X118884346Y-113158777D01*
X118865296Y-113123138D01*
X118853565Y-113084468D01*
X118849000Y-113038112D01*
X118849000Y-111961888D01*
X118853565Y-111915532D01*
X118865296Y-111876862D01*
X118884346Y-111841223D01*
X118909983Y-111809983D01*
X118941223Y-111784346D01*
X118976862Y-111765296D01*
X119015532Y-111753565D01*
X119061888Y-111749000D01*
X119713112Y-111749000D01*
X119759468Y-111753565D01*
X119759468Y-111753565D01*
G37*
G36*
X131009468Y-111753565D02*
G01*
X131048138Y-111765296D01*
X131083777Y-111784346D01*
X131115017Y-111809983D01*
X131140654Y-111841223D01*
X131159704Y-111876862D01*
X131171435Y-111915532D01*
X131176000Y-111961888D01*
X131176000Y-113038112D01*
X131171435Y-113084468D01*
X131159704Y-113123138D01*
X131140654Y-113158777D01*
X131115017Y-113190017D01*
X131083777Y-113215654D01*
X131048138Y-113234704D01*
X131009468Y-113246435D01*
X130963112Y-113251000D01*
X130311888Y-113251000D01*
X130265532Y-113246435D01*
X130226862Y-113234704D01*
X130191223Y-113215654D01*
X130159983Y-113190017D01*
X130134346Y-113158777D01*
X130115296Y-113123138D01*
X130103565Y-113084468D01*
X130099000Y-113038112D01*
X130099000Y-111961888D01*
X130103565Y-111915532D01*
X130115296Y-111876862D01*
X130134346Y-111841223D01*
X130159983Y-111809983D01*
X130191223Y-111784346D01*
X130226862Y-111765296D01*
X130265532Y-111753565D01*
X130311888Y-111749000D01*
X130963112Y-111749000D01*
X131009468Y-111753565D01*
X131009468Y-111753565D01*
G37*
G36*
X129134468Y-111753565D02*
G01*
X129173138Y-111765296D01*
X129208777Y-111784346D01*
X129240017Y-111809983D01*
X129265654Y-111841223D01*
X129284704Y-111876862D01*
X129296435Y-111915532D01*
X129301000Y-111961888D01*
X129301000Y-113038112D01*
X129296435Y-113084468D01*
X129284704Y-113123138D01*
X129265654Y-113158777D01*
X129240017Y-113190017D01*
X129208777Y-113215654D01*
X129173138Y-113234704D01*
X129134468Y-113246435D01*
X129088112Y-113251000D01*
X128436888Y-113251000D01*
X128390532Y-113246435D01*
X128351862Y-113234704D01*
X128316223Y-113215654D01*
X128284983Y-113190017D01*
X128259346Y-113158777D01*
X128240296Y-113123138D01*
X128228565Y-113084468D01*
X128224000Y-113038112D01*
X128224000Y-111961888D01*
X128228565Y-111915532D01*
X128240296Y-111876862D01*
X128259346Y-111841223D01*
X128284983Y-111809983D01*
X128316223Y-111784346D01*
X128351862Y-111765296D01*
X128390532Y-111753565D01*
X128436888Y-111749000D01*
X129088112Y-111749000D01*
X129134468Y-111753565D01*
X129134468Y-111753565D01*
G37*
G36*
X90909468Y-111753565D02*
G01*
X90948138Y-111765296D01*
X90983777Y-111784346D01*
X91015017Y-111809983D01*
X91040654Y-111841223D01*
X91059704Y-111876862D01*
X91071435Y-111915532D01*
X91076000Y-111961888D01*
X91076000Y-113038112D01*
X91071435Y-113084468D01*
X91059704Y-113123138D01*
X91040654Y-113158777D01*
X91015017Y-113190017D01*
X90983777Y-113215654D01*
X90948138Y-113234704D01*
X90909468Y-113246435D01*
X90863112Y-113251000D01*
X90211888Y-113251000D01*
X90165532Y-113246435D01*
X90126862Y-113234704D01*
X90091223Y-113215654D01*
X90059983Y-113190017D01*
X90034346Y-113158777D01*
X90015296Y-113123138D01*
X90003565Y-113084468D01*
X89999000Y-113038112D01*
X89999000Y-111961888D01*
X90003565Y-111915532D01*
X90015296Y-111876862D01*
X90034346Y-111841223D01*
X90059983Y-111809983D01*
X90091223Y-111784346D01*
X90126862Y-111765296D01*
X90165532Y-111753565D01*
X90211888Y-111749000D01*
X90863112Y-111749000D01*
X90909468Y-111753565D01*
X90909468Y-111753565D01*
G37*
G36*
X161609468Y-111753565D02*
G01*
X161648138Y-111765296D01*
X161683777Y-111784346D01*
X161715017Y-111809983D01*
X161740654Y-111841223D01*
X161759704Y-111876862D01*
X161771435Y-111915532D01*
X161776000Y-111961888D01*
X161776000Y-113038112D01*
X161771435Y-113084468D01*
X161759704Y-113123138D01*
X161740654Y-113158777D01*
X161715017Y-113190017D01*
X161683777Y-113215654D01*
X161648138Y-113234704D01*
X161609468Y-113246435D01*
X161563112Y-113251000D01*
X160911888Y-113251000D01*
X160865532Y-113246435D01*
X160826862Y-113234704D01*
X160791223Y-113215654D01*
X160759983Y-113190017D01*
X160734346Y-113158777D01*
X160715296Y-113123138D01*
X160703565Y-113084468D01*
X160699000Y-113038112D01*
X160699000Y-111961888D01*
X160703565Y-111915532D01*
X160715296Y-111876862D01*
X160734346Y-111841223D01*
X160759983Y-111809983D01*
X160791223Y-111784346D01*
X160826862Y-111765296D01*
X160865532Y-111753565D01*
X160911888Y-111749000D01*
X161563112Y-111749000D01*
X161609468Y-111753565D01*
X161609468Y-111753565D01*
G37*
G36*
X159734468Y-111753565D02*
G01*
X159773138Y-111765296D01*
X159808777Y-111784346D01*
X159840017Y-111809983D01*
X159865654Y-111841223D01*
X159884704Y-111876862D01*
X159896435Y-111915532D01*
X159901000Y-111961888D01*
X159901000Y-113038112D01*
X159896435Y-113084468D01*
X159884704Y-113123138D01*
X159865654Y-113158777D01*
X159840017Y-113190017D01*
X159808777Y-113215654D01*
X159773138Y-113234704D01*
X159734468Y-113246435D01*
X159688112Y-113251000D01*
X159036888Y-113251000D01*
X158990532Y-113246435D01*
X158951862Y-113234704D01*
X158916223Y-113215654D01*
X158884983Y-113190017D01*
X158859346Y-113158777D01*
X158840296Y-113123138D01*
X158828565Y-113084468D01*
X158824000Y-113038112D01*
X158824000Y-111961888D01*
X158828565Y-111915532D01*
X158840296Y-111876862D01*
X158859346Y-111841223D01*
X158884983Y-111809983D01*
X158916223Y-111784346D01*
X158951862Y-111765296D01*
X158990532Y-111753565D01*
X159036888Y-111749000D01*
X159688112Y-111749000D01*
X159734468Y-111753565D01*
X159734468Y-111753565D01*
G37*
G36*
X139734468Y-111753565D02*
G01*
X139773138Y-111765296D01*
X139808777Y-111784346D01*
X139840017Y-111809983D01*
X139865654Y-111841223D01*
X139884704Y-111876862D01*
X139896435Y-111915532D01*
X139901000Y-111961888D01*
X139901000Y-113038112D01*
X139896435Y-113084468D01*
X139884704Y-113123138D01*
X139865654Y-113158777D01*
X139840017Y-113190017D01*
X139808777Y-113215654D01*
X139773138Y-113234704D01*
X139734468Y-113246435D01*
X139688112Y-113251000D01*
X139036888Y-113251000D01*
X138990532Y-113246435D01*
X138951862Y-113234704D01*
X138916223Y-113215654D01*
X138884983Y-113190017D01*
X138859346Y-113158777D01*
X138840296Y-113123138D01*
X138828565Y-113084468D01*
X138824000Y-113038112D01*
X138824000Y-111961888D01*
X138828565Y-111915532D01*
X138840296Y-111876862D01*
X138859346Y-111841223D01*
X138884983Y-111809983D01*
X138916223Y-111784346D01*
X138951862Y-111765296D01*
X138990532Y-111753565D01*
X139036888Y-111749000D01*
X139688112Y-111749000D01*
X139734468Y-111753565D01*
X139734468Y-111753565D01*
G37*
G36*
X149134468Y-111753565D02*
G01*
X149173138Y-111765296D01*
X149208777Y-111784346D01*
X149240017Y-111809983D01*
X149265654Y-111841223D01*
X149284704Y-111876862D01*
X149296435Y-111915532D01*
X149301000Y-111961888D01*
X149301000Y-113038112D01*
X149296435Y-113084468D01*
X149284704Y-113123138D01*
X149265654Y-113158777D01*
X149240017Y-113190017D01*
X149208777Y-113215654D01*
X149173138Y-113234704D01*
X149134468Y-113246435D01*
X149088112Y-113251000D01*
X148436888Y-113251000D01*
X148390532Y-113246435D01*
X148351862Y-113234704D01*
X148316223Y-113215654D01*
X148284983Y-113190017D01*
X148259346Y-113158777D01*
X148240296Y-113123138D01*
X148228565Y-113084468D01*
X148224000Y-113038112D01*
X148224000Y-111961888D01*
X148228565Y-111915532D01*
X148240296Y-111876862D01*
X148259346Y-111841223D01*
X148284983Y-111809983D01*
X148316223Y-111784346D01*
X148351862Y-111765296D01*
X148390532Y-111753565D01*
X148436888Y-111749000D01*
X149088112Y-111749000D01*
X149134468Y-111753565D01*
X149134468Y-111753565D01*
G37*
G36*
X141609468Y-111753565D02*
G01*
X141648138Y-111765296D01*
X141683777Y-111784346D01*
X141715017Y-111809983D01*
X141740654Y-111841223D01*
X141759704Y-111876862D01*
X141771435Y-111915532D01*
X141776000Y-111961888D01*
X141776000Y-113038112D01*
X141771435Y-113084468D01*
X141759704Y-113123138D01*
X141740654Y-113158777D01*
X141715017Y-113190017D01*
X141683777Y-113215654D01*
X141648138Y-113234704D01*
X141609468Y-113246435D01*
X141563112Y-113251000D01*
X140911888Y-113251000D01*
X140865532Y-113246435D01*
X140826862Y-113234704D01*
X140791223Y-113215654D01*
X140759983Y-113190017D01*
X140734346Y-113158777D01*
X140715296Y-113123138D01*
X140703565Y-113084468D01*
X140699000Y-113038112D01*
X140699000Y-111961888D01*
X140703565Y-111915532D01*
X140715296Y-111876862D01*
X140734346Y-111841223D01*
X140759983Y-111809983D01*
X140791223Y-111784346D01*
X140826862Y-111765296D01*
X140865532Y-111753565D01*
X140911888Y-111749000D01*
X141563112Y-111749000D01*
X141609468Y-111753565D01*
X141609468Y-111753565D01*
G37*
G36*
X101609468Y-111753565D02*
G01*
X101648138Y-111765296D01*
X101683777Y-111784346D01*
X101715017Y-111809983D01*
X101740654Y-111841223D01*
X101759704Y-111876862D01*
X101771435Y-111915532D01*
X101776000Y-111961888D01*
X101776000Y-113038112D01*
X101771435Y-113084468D01*
X101759704Y-113123138D01*
X101740654Y-113158777D01*
X101715017Y-113190017D01*
X101683777Y-113215654D01*
X101648138Y-113234704D01*
X101609468Y-113246435D01*
X101563112Y-113251000D01*
X100911888Y-113251000D01*
X100865532Y-113246435D01*
X100826862Y-113234704D01*
X100791223Y-113215654D01*
X100759983Y-113190017D01*
X100734346Y-113158777D01*
X100715296Y-113123138D01*
X100703565Y-113084468D01*
X100699000Y-113038112D01*
X100699000Y-111961888D01*
X100703565Y-111915532D01*
X100715296Y-111876862D01*
X100734346Y-111841223D01*
X100759983Y-111809983D01*
X100791223Y-111784346D01*
X100826862Y-111765296D01*
X100865532Y-111753565D01*
X100911888Y-111749000D01*
X101563112Y-111749000D01*
X101609468Y-111753565D01*
X101609468Y-111753565D01*
G37*
G36*
X89034468Y-111753565D02*
G01*
X89073138Y-111765296D01*
X89108777Y-111784346D01*
X89140017Y-111809983D01*
X89165654Y-111841223D01*
X89184704Y-111876862D01*
X89196435Y-111915532D01*
X89201000Y-111961888D01*
X89201000Y-113038112D01*
X89196435Y-113084468D01*
X89184704Y-113123138D01*
X89165654Y-113158777D01*
X89140017Y-113190017D01*
X89108777Y-113215654D01*
X89073138Y-113234704D01*
X89034468Y-113246435D01*
X88988112Y-113251000D01*
X88336888Y-113251000D01*
X88290532Y-113246435D01*
X88251862Y-113234704D01*
X88216223Y-113215654D01*
X88184983Y-113190017D01*
X88159346Y-113158777D01*
X88140296Y-113123138D01*
X88128565Y-113084468D01*
X88124000Y-113038112D01*
X88124000Y-111961888D01*
X88128565Y-111915532D01*
X88140296Y-111876862D01*
X88159346Y-111841223D01*
X88184983Y-111809983D01*
X88216223Y-111784346D01*
X88251862Y-111765296D01*
X88290532Y-111753565D01*
X88336888Y-111749000D01*
X88988112Y-111749000D01*
X89034468Y-111753565D01*
X89034468Y-111753565D01*
G37*
G36*
X133301000Y-111551000D02*
G01*
X131699000Y-111551000D01*
X131699000Y-109449000D01*
X133301000Y-109449000D01*
X133301000Y-111551000D01*
X133301000Y-111551000D01*
G37*
G36*
X118301000Y-111551000D02*
G01*
X116699000Y-111551000D01*
X116699000Y-109449000D01*
X118301000Y-109449000D01*
X118301000Y-111551000D01*
X118301000Y-111551000D01*
G37*
G36*
X115801000Y-111551000D02*
G01*
X114199000Y-111551000D01*
X114199000Y-109449000D01*
X115801000Y-109449000D01*
X115801000Y-111551000D01*
X115801000Y-111551000D01*
G37*
G36*
X93301000Y-111551000D02*
G01*
X91699000Y-111551000D01*
X91699000Y-109449000D01*
X93301000Y-109449000D01*
X93301000Y-111551000D01*
X93301000Y-111551000D01*
G37*
G36*
X113301000Y-111551000D02*
G01*
X111699000Y-111551000D01*
X111699000Y-109449000D01*
X113301000Y-109449000D01*
X113301000Y-111551000D01*
X113301000Y-111551000D01*
G37*
G36*
X95801000Y-111551000D02*
G01*
X94199000Y-111551000D01*
X94199000Y-109449000D01*
X95801000Y-109449000D01*
X95801000Y-111551000D01*
X95801000Y-111551000D01*
G37*
G36*
X98301000Y-111551000D02*
G01*
X96699000Y-111551000D01*
X96699000Y-109449000D01*
X98301000Y-109449000D01*
X98301000Y-111551000D01*
X98301000Y-111551000D01*
G37*
G36*
X138301000Y-111551000D02*
G01*
X136699000Y-111551000D01*
X136699000Y-109449000D01*
X138301000Y-109449000D01*
X138301000Y-111551000D01*
X138301000Y-111551000D01*
G37*
G36*
X158301000Y-111551000D02*
G01*
X156699000Y-111551000D01*
X156699000Y-109449000D01*
X158301000Y-109449000D01*
X158301000Y-111551000D01*
X158301000Y-111551000D01*
G37*
G36*
X78301000Y-111551000D02*
G01*
X76699000Y-111551000D01*
X76699000Y-109449000D01*
X78301000Y-109449000D01*
X78301000Y-111551000D01*
X78301000Y-111551000D01*
G37*
G36*
X75801000Y-111551000D02*
G01*
X74199000Y-111551000D01*
X74199000Y-109449000D01*
X75801000Y-109449000D01*
X75801000Y-111551000D01*
X75801000Y-111551000D01*
G37*
G36*
X73301000Y-111551000D02*
G01*
X71699000Y-111551000D01*
X71699000Y-109449000D01*
X73301000Y-109449000D01*
X73301000Y-111551000D01*
X73301000Y-111551000D01*
G37*
G36*
X153301000Y-111551000D02*
G01*
X151699000Y-111551000D01*
X151699000Y-109449000D01*
X153301000Y-109449000D01*
X153301000Y-111551000D01*
X153301000Y-111551000D01*
G37*
G36*
X155801000Y-111551000D02*
G01*
X154199000Y-111551000D01*
X154199000Y-109449000D01*
X155801000Y-109449000D01*
X155801000Y-111551000D01*
X155801000Y-111551000D01*
G37*
G36*
X135801000Y-111551000D02*
G01*
X134199000Y-111551000D01*
X134199000Y-109449000D01*
X135801000Y-109449000D01*
X135801000Y-111551000D01*
X135801000Y-111551000D01*
G37*
G36*
X119759468Y-109753565D02*
G01*
X119798138Y-109765296D01*
X119833777Y-109784346D01*
X119865017Y-109809983D01*
X119890654Y-109841223D01*
X119909704Y-109876862D01*
X119921435Y-109915532D01*
X119926000Y-109961888D01*
X119926000Y-111038112D01*
X119921435Y-111084468D01*
X119909704Y-111123138D01*
X119890654Y-111158777D01*
X119865017Y-111190017D01*
X119833777Y-111215654D01*
X119798138Y-111234704D01*
X119759468Y-111246435D01*
X119713112Y-111251000D01*
X119061888Y-111251000D01*
X119015532Y-111246435D01*
X118976862Y-111234704D01*
X118941223Y-111215654D01*
X118909983Y-111190017D01*
X118884346Y-111158777D01*
X118865296Y-111123138D01*
X118853565Y-111084468D01*
X118849000Y-111038112D01*
X118849000Y-109961888D01*
X118853565Y-109915532D01*
X118865296Y-109876862D01*
X118884346Y-109841223D01*
X118909983Y-109809983D01*
X118941223Y-109784346D01*
X118976862Y-109765296D01*
X119015532Y-109753565D01*
X119061888Y-109749000D01*
X119713112Y-109749000D01*
X119759468Y-109753565D01*
X119759468Y-109753565D01*
G37*
G36*
X129134468Y-109753565D02*
G01*
X129173138Y-109765296D01*
X129208777Y-109784346D01*
X129240017Y-109809983D01*
X129265654Y-109841223D01*
X129284704Y-109876862D01*
X129296435Y-109915532D01*
X129301000Y-109961888D01*
X129301000Y-111038112D01*
X129296435Y-111084468D01*
X129284704Y-111123138D01*
X129265654Y-111158777D01*
X129240017Y-111190017D01*
X129208777Y-111215654D01*
X129173138Y-111234704D01*
X129134468Y-111246435D01*
X129088112Y-111251000D01*
X128436888Y-111251000D01*
X128390532Y-111246435D01*
X128351862Y-111234704D01*
X128316223Y-111215654D01*
X128284983Y-111190017D01*
X128259346Y-111158777D01*
X128240296Y-111123138D01*
X128228565Y-111084468D01*
X128224000Y-111038112D01*
X128224000Y-109961888D01*
X128228565Y-109915532D01*
X128240296Y-109876862D01*
X128259346Y-109841223D01*
X128284983Y-109809983D01*
X128316223Y-109784346D01*
X128351862Y-109765296D01*
X128390532Y-109753565D01*
X128436888Y-109749000D01*
X129088112Y-109749000D01*
X129134468Y-109753565D01*
X129134468Y-109753565D01*
G37*
G36*
X131009468Y-109753565D02*
G01*
X131048138Y-109765296D01*
X131083777Y-109784346D01*
X131115017Y-109809983D01*
X131140654Y-109841223D01*
X131159704Y-109876862D01*
X131171435Y-109915532D01*
X131176000Y-109961888D01*
X131176000Y-111038112D01*
X131171435Y-111084468D01*
X131159704Y-111123138D01*
X131140654Y-111158777D01*
X131115017Y-111190017D01*
X131083777Y-111215654D01*
X131048138Y-111234704D01*
X131009468Y-111246435D01*
X130963112Y-111251000D01*
X130311888Y-111251000D01*
X130265532Y-111246435D01*
X130226862Y-111234704D01*
X130191223Y-111215654D01*
X130159983Y-111190017D01*
X130134346Y-111158777D01*
X130115296Y-111123138D01*
X130103565Y-111084468D01*
X130099000Y-111038112D01*
X130099000Y-109961888D01*
X130103565Y-109915532D01*
X130115296Y-109876862D01*
X130134346Y-109841223D01*
X130159983Y-109809983D01*
X130191223Y-109784346D01*
X130226862Y-109765296D01*
X130265532Y-109753565D01*
X130311888Y-109749000D01*
X130963112Y-109749000D01*
X131009468Y-109753565D01*
X131009468Y-109753565D01*
G37*
G36*
X139734468Y-109753565D02*
G01*
X139773138Y-109765296D01*
X139808777Y-109784346D01*
X139840017Y-109809983D01*
X139865654Y-109841223D01*
X139884704Y-109876862D01*
X139896435Y-109915532D01*
X139901000Y-109961888D01*
X139901000Y-111038112D01*
X139896435Y-111084468D01*
X139884704Y-111123138D01*
X139865654Y-111158777D01*
X139840017Y-111190017D01*
X139808777Y-111215654D01*
X139773138Y-111234704D01*
X139734468Y-111246435D01*
X139688112Y-111251000D01*
X139036888Y-111251000D01*
X138990532Y-111246435D01*
X138951862Y-111234704D01*
X138916223Y-111215654D01*
X138884983Y-111190017D01*
X138859346Y-111158777D01*
X138840296Y-111123138D01*
X138828565Y-111084468D01*
X138824000Y-111038112D01*
X138824000Y-109961888D01*
X138828565Y-109915532D01*
X138840296Y-109876862D01*
X138859346Y-109841223D01*
X138884983Y-109809983D01*
X138916223Y-109784346D01*
X138951862Y-109765296D01*
X138990532Y-109753565D01*
X139036888Y-109749000D01*
X139688112Y-109749000D01*
X139734468Y-109753565D01*
X139734468Y-109753565D01*
G37*
G36*
X141609468Y-109753565D02*
G01*
X141648138Y-109765296D01*
X141683777Y-109784346D01*
X141715017Y-109809983D01*
X141740654Y-109841223D01*
X141759704Y-109876862D01*
X141771435Y-109915532D01*
X141776000Y-109961888D01*
X141776000Y-111038112D01*
X141771435Y-111084468D01*
X141759704Y-111123138D01*
X141740654Y-111158777D01*
X141715017Y-111190017D01*
X141683777Y-111215654D01*
X141648138Y-111234704D01*
X141609468Y-111246435D01*
X141563112Y-111251000D01*
X140911888Y-111251000D01*
X140865532Y-111246435D01*
X140826862Y-111234704D01*
X140791223Y-111215654D01*
X140759983Y-111190017D01*
X140734346Y-111158777D01*
X140715296Y-111123138D01*
X140703565Y-111084468D01*
X140699000Y-111038112D01*
X140699000Y-109961888D01*
X140703565Y-109915532D01*
X140715296Y-109876862D01*
X140734346Y-109841223D01*
X140759983Y-109809983D01*
X140791223Y-109784346D01*
X140826862Y-109765296D01*
X140865532Y-109753565D01*
X140911888Y-109749000D01*
X141563112Y-109749000D01*
X141609468Y-109753565D01*
X141609468Y-109753565D01*
G37*
G36*
X149134468Y-109753565D02*
G01*
X149173138Y-109765296D01*
X149208777Y-109784346D01*
X149240017Y-109809983D01*
X149265654Y-109841223D01*
X149284704Y-109876862D01*
X149296435Y-109915532D01*
X149301000Y-109961888D01*
X149301000Y-111038112D01*
X149296435Y-111084468D01*
X149284704Y-111123138D01*
X149265654Y-111158777D01*
X149240017Y-111190017D01*
X149208777Y-111215654D01*
X149173138Y-111234704D01*
X149134468Y-111246435D01*
X149088112Y-111251000D01*
X148436888Y-111251000D01*
X148390532Y-111246435D01*
X148351862Y-111234704D01*
X148316223Y-111215654D01*
X148284983Y-111190017D01*
X148259346Y-111158777D01*
X148240296Y-111123138D01*
X148228565Y-111084468D01*
X148224000Y-111038112D01*
X148224000Y-109961888D01*
X148228565Y-109915532D01*
X148240296Y-109876862D01*
X148259346Y-109841223D01*
X148284983Y-109809983D01*
X148316223Y-109784346D01*
X148351862Y-109765296D01*
X148390532Y-109753565D01*
X148436888Y-109749000D01*
X149088112Y-109749000D01*
X149134468Y-109753565D01*
X149134468Y-109753565D01*
G37*
G36*
X151009468Y-109753565D02*
G01*
X151048138Y-109765296D01*
X151083777Y-109784346D01*
X151115017Y-109809983D01*
X151140654Y-109841223D01*
X151159704Y-109876862D01*
X151171435Y-109915532D01*
X151176000Y-109961888D01*
X151176000Y-111038112D01*
X151171435Y-111084468D01*
X151159704Y-111123138D01*
X151140654Y-111158777D01*
X151115017Y-111190017D01*
X151083777Y-111215654D01*
X151048138Y-111234704D01*
X151009468Y-111246435D01*
X150963112Y-111251000D01*
X150311888Y-111251000D01*
X150265532Y-111246435D01*
X150226862Y-111234704D01*
X150191223Y-111215654D01*
X150159983Y-111190017D01*
X150134346Y-111158777D01*
X150115296Y-111123138D01*
X150103565Y-111084468D01*
X150099000Y-111038112D01*
X150099000Y-109961888D01*
X150103565Y-109915532D01*
X150115296Y-109876862D01*
X150134346Y-109841223D01*
X150159983Y-109809983D01*
X150191223Y-109784346D01*
X150226862Y-109765296D01*
X150265532Y-109753565D01*
X150311888Y-109749000D01*
X150963112Y-109749000D01*
X151009468Y-109753565D01*
X151009468Y-109753565D01*
G37*
G36*
X81609468Y-109753565D02*
G01*
X81648138Y-109765296D01*
X81683777Y-109784346D01*
X81715017Y-109809983D01*
X81740654Y-109841223D01*
X81759704Y-109876862D01*
X81771435Y-109915532D01*
X81776000Y-109961888D01*
X81776000Y-111038112D01*
X81771435Y-111084468D01*
X81759704Y-111123138D01*
X81740654Y-111158777D01*
X81715017Y-111190017D01*
X81683777Y-111215654D01*
X81648138Y-111234704D01*
X81609468Y-111246435D01*
X81563112Y-111251000D01*
X80911888Y-111251000D01*
X80865532Y-111246435D01*
X80826862Y-111234704D01*
X80791223Y-111215654D01*
X80759983Y-111190017D01*
X80734346Y-111158777D01*
X80715296Y-111123138D01*
X80703565Y-111084468D01*
X80699000Y-111038112D01*
X80699000Y-109961888D01*
X80703565Y-109915532D01*
X80715296Y-109876862D01*
X80734346Y-109841223D01*
X80759983Y-109809983D01*
X80791223Y-109784346D01*
X80826862Y-109765296D01*
X80865532Y-109753565D01*
X80911888Y-109749000D01*
X81563112Y-109749000D01*
X81609468Y-109753565D01*
X81609468Y-109753565D01*
G37*
G36*
X79734468Y-109753565D02*
G01*
X79773138Y-109765296D01*
X79808777Y-109784346D01*
X79840017Y-109809983D01*
X79865654Y-109841223D01*
X79884704Y-109876862D01*
X79896435Y-109915532D01*
X79901000Y-109961888D01*
X79901000Y-111038112D01*
X79896435Y-111084468D01*
X79884704Y-111123138D01*
X79865654Y-111158777D01*
X79840017Y-111190017D01*
X79808777Y-111215654D01*
X79773138Y-111234704D01*
X79734468Y-111246435D01*
X79688112Y-111251000D01*
X79036888Y-111251000D01*
X78990532Y-111246435D01*
X78951862Y-111234704D01*
X78916223Y-111215654D01*
X78884983Y-111190017D01*
X78859346Y-111158777D01*
X78840296Y-111123138D01*
X78828565Y-111084468D01*
X78824000Y-111038112D01*
X78824000Y-109961888D01*
X78828565Y-109915532D01*
X78840296Y-109876862D01*
X78859346Y-109841223D01*
X78884983Y-109809983D01*
X78916223Y-109784346D01*
X78951862Y-109765296D01*
X78990532Y-109753565D01*
X79036888Y-109749000D01*
X79688112Y-109749000D01*
X79734468Y-109753565D01*
X79734468Y-109753565D01*
G37*
G36*
X71009468Y-109753565D02*
G01*
X71048138Y-109765296D01*
X71083777Y-109784346D01*
X71115017Y-109809983D01*
X71140654Y-109841223D01*
X71159704Y-109876862D01*
X71171435Y-109915532D01*
X71176000Y-109961888D01*
X71176000Y-111038112D01*
X71171435Y-111084468D01*
X71159704Y-111123138D01*
X71140654Y-111158777D01*
X71115017Y-111190017D01*
X71083777Y-111215654D01*
X71048138Y-111234704D01*
X71009468Y-111246435D01*
X70963112Y-111251000D01*
X70311888Y-111251000D01*
X70265532Y-111246435D01*
X70226862Y-111234704D01*
X70191223Y-111215654D01*
X70159983Y-111190017D01*
X70134346Y-111158777D01*
X70115296Y-111123138D01*
X70103565Y-111084468D01*
X70099000Y-111038112D01*
X70099000Y-109961888D01*
X70103565Y-109915532D01*
X70115296Y-109876862D01*
X70134346Y-109841223D01*
X70159983Y-109809983D01*
X70191223Y-109784346D01*
X70226862Y-109765296D01*
X70265532Y-109753565D01*
X70311888Y-109749000D01*
X70963112Y-109749000D01*
X71009468Y-109753565D01*
X71009468Y-109753565D01*
G37*
G36*
X108984468Y-109753565D02*
G01*
X109023138Y-109765296D01*
X109058777Y-109784346D01*
X109090017Y-109809983D01*
X109115654Y-109841223D01*
X109134704Y-109876862D01*
X109146435Y-109915532D01*
X109151000Y-109961888D01*
X109151000Y-111038112D01*
X109146435Y-111084468D01*
X109134704Y-111123138D01*
X109115654Y-111158777D01*
X109090017Y-111190017D01*
X109058777Y-111215654D01*
X109023138Y-111234704D01*
X108984468Y-111246435D01*
X108938112Y-111251000D01*
X108286888Y-111251000D01*
X108240532Y-111246435D01*
X108201862Y-111234704D01*
X108166223Y-111215654D01*
X108134983Y-111190017D01*
X108109346Y-111158777D01*
X108090296Y-111123138D01*
X108078565Y-111084468D01*
X108074000Y-111038112D01*
X108074000Y-109961888D01*
X108078565Y-109915532D01*
X108090296Y-109876862D01*
X108109346Y-109841223D01*
X108134983Y-109809983D01*
X108166223Y-109784346D01*
X108201862Y-109765296D01*
X108240532Y-109753565D01*
X108286888Y-109749000D01*
X108938112Y-109749000D01*
X108984468Y-109753565D01*
X108984468Y-109753565D01*
G37*
G36*
X110859468Y-109753565D02*
G01*
X110898138Y-109765296D01*
X110933777Y-109784346D01*
X110965017Y-109809983D01*
X110990654Y-109841223D01*
X111009704Y-109876862D01*
X111021435Y-109915532D01*
X111026000Y-109961888D01*
X111026000Y-111038112D01*
X111021435Y-111084468D01*
X111009704Y-111123138D01*
X110990654Y-111158777D01*
X110965017Y-111190017D01*
X110933777Y-111215654D01*
X110898138Y-111234704D01*
X110859468Y-111246435D01*
X110813112Y-111251000D01*
X110161888Y-111251000D01*
X110115532Y-111246435D01*
X110076862Y-111234704D01*
X110041223Y-111215654D01*
X110009983Y-111190017D01*
X109984346Y-111158777D01*
X109965296Y-111123138D01*
X109953565Y-111084468D01*
X109949000Y-111038112D01*
X109949000Y-109961888D01*
X109953565Y-109915532D01*
X109965296Y-109876862D01*
X109984346Y-109841223D01*
X110009983Y-109809983D01*
X110041223Y-109784346D01*
X110076862Y-109765296D01*
X110115532Y-109753565D01*
X110161888Y-109749000D01*
X110813112Y-109749000D01*
X110859468Y-109753565D01*
X110859468Y-109753565D01*
G37*
G36*
X159734468Y-109753565D02*
G01*
X159773138Y-109765296D01*
X159808777Y-109784346D01*
X159840017Y-109809983D01*
X159865654Y-109841223D01*
X159884704Y-109876862D01*
X159896435Y-109915532D01*
X159901000Y-109961888D01*
X159901000Y-111038112D01*
X159896435Y-111084468D01*
X159884704Y-111123138D01*
X159865654Y-111158777D01*
X159840017Y-111190017D01*
X159808777Y-111215654D01*
X159773138Y-111234704D01*
X159734468Y-111246435D01*
X159688112Y-111251000D01*
X159036888Y-111251000D01*
X158990532Y-111246435D01*
X158951862Y-111234704D01*
X158916223Y-111215654D01*
X158884983Y-111190017D01*
X158859346Y-111158777D01*
X158840296Y-111123138D01*
X158828565Y-111084468D01*
X158824000Y-111038112D01*
X158824000Y-109961888D01*
X158828565Y-109915532D01*
X158840296Y-109876862D01*
X158859346Y-109841223D01*
X158884983Y-109809983D01*
X158916223Y-109784346D01*
X158951862Y-109765296D01*
X158990532Y-109753565D01*
X159036888Y-109749000D01*
X159688112Y-109749000D01*
X159734468Y-109753565D01*
X159734468Y-109753565D01*
G37*
G36*
X69134468Y-109753565D02*
G01*
X69173138Y-109765296D01*
X69208777Y-109784346D01*
X69240017Y-109809983D01*
X69265654Y-109841223D01*
X69284704Y-109876862D01*
X69296435Y-109915532D01*
X69301000Y-109961888D01*
X69301000Y-111038112D01*
X69296435Y-111084468D01*
X69284704Y-111123138D01*
X69265654Y-111158777D01*
X69240017Y-111190017D01*
X69208777Y-111215654D01*
X69173138Y-111234704D01*
X69134468Y-111246435D01*
X69088112Y-111251000D01*
X68436888Y-111251000D01*
X68390532Y-111246435D01*
X68351862Y-111234704D01*
X68316223Y-111215654D01*
X68284983Y-111190017D01*
X68259346Y-111158777D01*
X68240296Y-111123138D01*
X68228565Y-111084468D01*
X68224000Y-111038112D01*
X68224000Y-109961888D01*
X68228565Y-109915532D01*
X68240296Y-109876862D01*
X68259346Y-109841223D01*
X68284983Y-109809983D01*
X68316223Y-109784346D01*
X68351862Y-109765296D01*
X68390532Y-109753565D01*
X68436888Y-109749000D01*
X69088112Y-109749000D01*
X69134468Y-109753565D01*
X69134468Y-109753565D01*
G37*
G36*
X161609468Y-109753565D02*
G01*
X161648138Y-109765296D01*
X161683777Y-109784346D01*
X161715017Y-109809983D01*
X161740654Y-109841223D01*
X161759704Y-109876862D01*
X161771435Y-109915532D01*
X161776000Y-109961888D01*
X161776000Y-111038112D01*
X161771435Y-111084468D01*
X161759704Y-111123138D01*
X161740654Y-111158777D01*
X161715017Y-111190017D01*
X161683777Y-111215654D01*
X161648138Y-111234704D01*
X161609468Y-111246435D01*
X161563112Y-111251000D01*
X160911888Y-111251000D01*
X160865532Y-111246435D01*
X160826862Y-111234704D01*
X160791223Y-111215654D01*
X160759983Y-111190017D01*
X160734346Y-111158777D01*
X160715296Y-111123138D01*
X160703565Y-111084468D01*
X160699000Y-111038112D01*
X160699000Y-109961888D01*
X160703565Y-109915532D01*
X160715296Y-109876862D01*
X160734346Y-109841223D01*
X160759983Y-109809983D01*
X160791223Y-109784346D01*
X160826862Y-109765296D01*
X160865532Y-109753565D01*
X160911888Y-109749000D01*
X161563112Y-109749000D01*
X161609468Y-109753565D01*
X161609468Y-109753565D01*
G37*
G36*
X121634468Y-109753565D02*
G01*
X121673138Y-109765296D01*
X121708777Y-109784346D01*
X121740017Y-109809983D01*
X121765654Y-109841223D01*
X121784704Y-109876862D01*
X121796435Y-109915532D01*
X121801000Y-109961888D01*
X121801000Y-111038112D01*
X121796435Y-111084468D01*
X121784704Y-111123138D01*
X121765654Y-111158777D01*
X121740017Y-111190017D01*
X121708777Y-111215654D01*
X121673138Y-111234704D01*
X121634468Y-111246435D01*
X121588112Y-111251000D01*
X120936888Y-111251000D01*
X120890532Y-111246435D01*
X120851862Y-111234704D01*
X120816223Y-111215654D01*
X120784983Y-111190017D01*
X120759346Y-111158777D01*
X120740296Y-111123138D01*
X120728565Y-111084468D01*
X120724000Y-111038112D01*
X120724000Y-109961888D01*
X120728565Y-109915532D01*
X120740296Y-109876862D01*
X120759346Y-109841223D01*
X120784983Y-109809983D01*
X120816223Y-109784346D01*
X120851862Y-109765296D01*
X120890532Y-109753565D01*
X120936888Y-109749000D01*
X121588112Y-109749000D01*
X121634468Y-109753565D01*
X121634468Y-109753565D01*
G37*
G36*
X101609468Y-109753565D02*
G01*
X101648138Y-109765296D01*
X101683777Y-109784346D01*
X101715017Y-109809983D01*
X101740654Y-109841223D01*
X101759704Y-109876862D01*
X101771435Y-109915532D01*
X101776000Y-109961888D01*
X101776000Y-111038112D01*
X101771435Y-111084468D01*
X101759704Y-111123138D01*
X101740654Y-111158777D01*
X101715017Y-111190017D01*
X101683777Y-111215654D01*
X101648138Y-111234704D01*
X101609468Y-111246435D01*
X101563112Y-111251000D01*
X100911888Y-111251000D01*
X100865532Y-111246435D01*
X100826862Y-111234704D01*
X100791223Y-111215654D01*
X100759983Y-111190017D01*
X100734346Y-111158777D01*
X100715296Y-111123138D01*
X100703565Y-111084468D01*
X100699000Y-111038112D01*
X100699000Y-109961888D01*
X100703565Y-109915532D01*
X100715296Y-109876862D01*
X100734346Y-109841223D01*
X100759983Y-109809983D01*
X100791223Y-109784346D01*
X100826862Y-109765296D01*
X100865532Y-109753565D01*
X100911888Y-109749000D01*
X101563112Y-109749000D01*
X101609468Y-109753565D01*
X101609468Y-109753565D01*
G37*
G36*
X89034468Y-109753565D02*
G01*
X89073138Y-109765296D01*
X89108777Y-109784346D01*
X89140017Y-109809983D01*
X89165654Y-109841223D01*
X89184704Y-109876862D01*
X89196435Y-109915532D01*
X89201000Y-109961888D01*
X89201000Y-111038112D01*
X89196435Y-111084468D01*
X89184704Y-111123138D01*
X89165654Y-111158777D01*
X89140017Y-111190017D01*
X89108777Y-111215654D01*
X89073138Y-111234704D01*
X89034468Y-111246435D01*
X88988112Y-111251000D01*
X88336888Y-111251000D01*
X88290532Y-111246435D01*
X88251862Y-111234704D01*
X88216223Y-111215654D01*
X88184983Y-111190017D01*
X88159346Y-111158777D01*
X88140296Y-111123138D01*
X88128565Y-111084468D01*
X88124000Y-111038112D01*
X88124000Y-109961888D01*
X88128565Y-109915532D01*
X88140296Y-109876862D01*
X88159346Y-109841223D01*
X88184983Y-109809983D01*
X88216223Y-109784346D01*
X88251862Y-109765296D01*
X88290532Y-109753565D01*
X88336888Y-109749000D01*
X88988112Y-109749000D01*
X89034468Y-109753565D01*
X89034468Y-109753565D01*
G37*
G36*
X90909468Y-109753565D02*
G01*
X90948138Y-109765296D01*
X90983777Y-109784346D01*
X91015017Y-109809983D01*
X91040654Y-109841223D01*
X91059704Y-109876862D01*
X91071435Y-109915532D01*
X91076000Y-109961888D01*
X91076000Y-111038112D01*
X91071435Y-111084468D01*
X91059704Y-111123138D01*
X91040654Y-111158777D01*
X91015017Y-111190017D01*
X90983777Y-111215654D01*
X90948138Y-111234704D01*
X90909468Y-111246435D01*
X90863112Y-111251000D01*
X90211888Y-111251000D01*
X90165532Y-111246435D01*
X90126862Y-111234704D01*
X90091223Y-111215654D01*
X90059983Y-111190017D01*
X90034346Y-111158777D01*
X90015296Y-111123138D01*
X90003565Y-111084468D01*
X89999000Y-111038112D01*
X89999000Y-109961888D01*
X90003565Y-109915532D01*
X90015296Y-109876862D01*
X90034346Y-109841223D01*
X90059983Y-109809983D01*
X90091223Y-109784346D01*
X90126862Y-109765296D01*
X90165532Y-109753565D01*
X90211888Y-109749000D01*
X90863112Y-109749000D01*
X90909468Y-109753565D01*
X90909468Y-109753565D01*
G37*
G36*
X99734468Y-109753565D02*
G01*
X99773138Y-109765296D01*
X99808777Y-109784346D01*
X99840017Y-109809983D01*
X99865654Y-109841223D01*
X99884704Y-109876862D01*
X99896435Y-109915532D01*
X99901000Y-109961888D01*
X99901000Y-111038112D01*
X99896435Y-111084468D01*
X99884704Y-111123138D01*
X99865654Y-111158777D01*
X99840017Y-111190017D01*
X99808777Y-111215654D01*
X99773138Y-111234704D01*
X99734468Y-111246435D01*
X99688112Y-111251000D01*
X99036888Y-111251000D01*
X98990532Y-111246435D01*
X98951862Y-111234704D01*
X98916223Y-111215654D01*
X98884983Y-111190017D01*
X98859346Y-111158777D01*
X98840296Y-111123138D01*
X98828565Y-111084468D01*
X98824000Y-111038112D01*
X98824000Y-109961888D01*
X98828565Y-109915532D01*
X98840296Y-109876862D01*
X98859346Y-109841223D01*
X98884983Y-109809983D01*
X98916223Y-109784346D01*
X98951862Y-109765296D01*
X98990532Y-109753565D01*
X99036888Y-109749000D01*
X99688112Y-109749000D01*
X99734468Y-109753565D01*
X99734468Y-109753565D01*
G37*
G36*
X115166822Y-105861313D02*
G01*
X115327241Y-105909976D01*
X115475077Y-105988995D01*
X115604659Y-106095341D01*
X115711004Y-106224922D01*
X115711005Y-106224924D01*
X115790024Y-106372758D01*
X115838687Y-106533177D01*
X115851000Y-106658196D01*
X115851000Y-107341803D01*
X115838687Y-107466822D01*
X115790024Y-107627242D01*
X115719114Y-107759906D01*
X115711004Y-107775078D01*
X115604659Y-107904659D01*
X115475078Y-108011004D01*
X115475076Y-108011005D01*
X115327242Y-108090024D01*
X115166823Y-108138687D01*
X115000000Y-108155117D01*
X114833178Y-108138687D01*
X114672759Y-108090024D01*
X114524925Y-108011005D01*
X114524923Y-108011004D01*
X114395342Y-107904659D01*
X114288997Y-107775078D01*
X114209975Y-107627239D01*
X114161313Y-107466826D01*
X114149000Y-107341804D01*
X114149000Y-106658197D01*
X114161313Y-106533178D01*
X114209976Y-106372759D01*
X114288995Y-106224923D01*
X114395341Y-106095341D01*
X114524922Y-105988996D01*
X114540094Y-105980886D01*
X114672758Y-105909976D01*
X114833177Y-105861313D01*
X115000000Y-105844883D01*
X115166822Y-105861313D01*
X115166822Y-105861313D01*
G37*
G36*
X135166822Y-105861313D02*
G01*
X135327241Y-105909976D01*
X135475077Y-105988995D01*
X135604659Y-106095341D01*
X135711004Y-106224922D01*
X135711005Y-106224924D01*
X135790024Y-106372758D01*
X135838687Y-106533177D01*
X135851000Y-106658196D01*
X135851000Y-107341803D01*
X135838687Y-107466822D01*
X135790024Y-107627242D01*
X135719114Y-107759906D01*
X135711004Y-107775078D01*
X135604659Y-107904659D01*
X135475078Y-108011004D01*
X135475076Y-108011005D01*
X135327242Y-108090024D01*
X135166823Y-108138687D01*
X135000000Y-108155117D01*
X134833178Y-108138687D01*
X134672759Y-108090024D01*
X134524925Y-108011005D01*
X134524923Y-108011004D01*
X134395342Y-107904659D01*
X134288997Y-107775078D01*
X134209975Y-107627239D01*
X134161313Y-107466826D01*
X134149000Y-107341804D01*
X134149000Y-106658197D01*
X134161313Y-106533178D01*
X134209976Y-106372759D01*
X134288995Y-106224923D01*
X134395341Y-106095341D01*
X134524922Y-105988996D01*
X134540094Y-105980886D01*
X134672758Y-105909976D01*
X134833177Y-105861313D01*
X135000000Y-105844883D01*
X135166822Y-105861313D01*
X135166822Y-105861313D01*
G37*
G36*
X155166822Y-105861313D02*
G01*
X155327241Y-105909976D01*
X155475077Y-105988995D01*
X155604659Y-106095341D01*
X155711004Y-106224922D01*
X155711005Y-106224924D01*
X155790024Y-106372758D01*
X155838687Y-106533177D01*
X155851000Y-106658196D01*
X155851000Y-107341803D01*
X155838687Y-107466822D01*
X155790024Y-107627242D01*
X155719114Y-107759906D01*
X155711004Y-107775078D01*
X155604659Y-107904659D01*
X155475078Y-108011004D01*
X155475076Y-108011005D01*
X155327242Y-108090024D01*
X155166823Y-108138687D01*
X155000000Y-108155117D01*
X154833178Y-108138687D01*
X154672759Y-108090024D01*
X154524925Y-108011005D01*
X154524923Y-108011004D01*
X154395342Y-107904659D01*
X154288997Y-107775078D01*
X154209975Y-107627239D01*
X154161313Y-107466826D01*
X154149000Y-107341804D01*
X154149000Y-106658197D01*
X154161313Y-106533178D01*
X154209976Y-106372759D01*
X154288995Y-106224923D01*
X154395341Y-106095341D01*
X154524922Y-105988996D01*
X154540094Y-105980886D01*
X154672758Y-105909976D01*
X154833177Y-105861313D01*
X155000000Y-105844883D01*
X155166822Y-105861313D01*
X155166822Y-105861313D01*
G37*
G36*
X95166822Y-105861313D02*
G01*
X95327241Y-105909976D01*
X95475077Y-105988995D01*
X95604659Y-106095341D01*
X95711004Y-106224922D01*
X95711005Y-106224924D01*
X95790024Y-106372758D01*
X95838687Y-106533177D01*
X95851000Y-106658196D01*
X95851000Y-107341803D01*
X95838687Y-107466822D01*
X95790024Y-107627242D01*
X95719114Y-107759906D01*
X95711004Y-107775078D01*
X95604659Y-107904659D01*
X95475078Y-108011004D01*
X95475076Y-108011005D01*
X95327242Y-108090024D01*
X95166823Y-108138687D01*
X95000000Y-108155117D01*
X94833178Y-108138687D01*
X94672759Y-108090024D01*
X94524925Y-108011005D01*
X94524923Y-108011004D01*
X94395342Y-107904659D01*
X94288997Y-107775078D01*
X94209975Y-107627239D01*
X94161313Y-107466826D01*
X94149000Y-107341804D01*
X94149000Y-106658197D01*
X94161313Y-106533178D01*
X94209976Y-106372759D01*
X94288995Y-106224923D01*
X94395341Y-106095341D01*
X94524922Y-105988996D01*
X94540094Y-105980886D01*
X94672758Y-105909976D01*
X94833177Y-105861313D01*
X95000000Y-105844883D01*
X95166822Y-105861313D01*
X95166822Y-105861313D01*
G37*
G36*
X75166822Y-105861313D02*
G01*
X75327241Y-105909976D01*
X75475077Y-105988995D01*
X75604659Y-106095341D01*
X75711004Y-106224922D01*
X75711005Y-106224924D01*
X75790024Y-106372758D01*
X75838687Y-106533177D01*
X75851000Y-106658196D01*
X75851000Y-107341803D01*
X75838687Y-107466822D01*
X75790024Y-107627242D01*
X75719114Y-107759906D01*
X75711004Y-107775078D01*
X75604659Y-107904659D01*
X75475078Y-108011004D01*
X75475076Y-108011005D01*
X75327242Y-108090024D01*
X75166823Y-108138687D01*
X75000000Y-108155117D01*
X74833178Y-108138687D01*
X74672759Y-108090024D01*
X74524925Y-108011005D01*
X74524923Y-108011004D01*
X74395342Y-107904659D01*
X74288997Y-107775078D01*
X74209975Y-107627239D01*
X74161313Y-107466826D01*
X74149000Y-107341804D01*
X74149000Y-106658197D01*
X74161313Y-106533178D01*
X74209976Y-106372759D01*
X74288995Y-106224923D01*
X74395341Y-106095341D01*
X74524922Y-105988996D01*
X74540094Y-105980886D01*
X74672758Y-105909976D01*
X74833177Y-105861313D01*
X75000000Y-105844883D01*
X75166822Y-105861313D01*
X75166822Y-105861313D01*
G37*
G36*
X102801000Y-104151000D02*
G01*
X100699000Y-104151000D01*
X100699000Y-100849000D01*
X102801000Y-100849000D01*
X102801000Y-104151000D01*
X102801000Y-104151000D01*
G37*
G36*
X109301000Y-104151000D02*
G01*
X107199000Y-104151000D01*
X107199000Y-100849000D01*
X109301000Y-100849000D01*
X109301000Y-104151000D01*
X109301000Y-104151000D01*
G37*
G36*
X89301000Y-104151000D02*
G01*
X87199000Y-104151000D01*
X87199000Y-100849000D01*
X89301000Y-100849000D01*
X89301000Y-104151000D01*
X89301000Y-104151000D01*
G37*
G36*
X82801000Y-104151000D02*
G01*
X80699000Y-104151000D01*
X80699000Y-100849000D01*
X82801000Y-100849000D01*
X82801000Y-104151000D01*
X82801000Y-104151000D01*
G37*
G36*
X129301000Y-104151000D02*
G01*
X127199000Y-104151000D01*
X127199000Y-100849000D01*
X129301000Y-100849000D01*
X129301000Y-104151000D01*
X129301000Y-104151000D01*
G37*
G36*
X149301000Y-104151000D02*
G01*
X147199000Y-104151000D01*
X147199000Y-100849000D01*
X149301000Y-100849000D01*
X149301000Y-104151000D01*
X149301000Y-104151000D01*
G37*
G36*
X69301000Y-104151000D02*
G01*
X67199000Y-104151000D01*
X67199000Y-100849000D01*
X69301000Y-100849000D01*
X69301000Y-104151000D01*
X69301000Y-104151000D01*
G37*
G36*
X162801000Y-104151000D02*
G01*
X160699000Y-104151000D01*
X160699000Y-100849000D01*
X162801000Y-100849000D01*
X162801000Y-104151000D01*
X162801000Y-104151000D01*
G37*
G36*
X142801000Y-104151000D02*
G01*
X140699000Y-104151000D01*
X140699000Y-100849000D01*
X142801000Y-100849000D01*
X142801000Y-104151000D01*
X142801000Y-104151000D01*
G37*
G36*
X122801000Y-104151000D02*
G01*
X120699000Y-104151000D01*
X120699000Y-100849000D01*
X122801000Y-100849000D01*
X122801000Y-104151000D01*
X122801000Y-104151000D01*
G37*
G36*
X75214794Y-101420155D02*
G01*
X75321150Y-101441311D01*
X75521520Y-101524307D01*
X75701844Y-101644795D01*
X75855205Y-101798156D01*
X75975693Y-101978480D01*
X76058689Y-102178851D01*
X76101000Y-102391560D01*
X76101000Y-102608440D01*
X76058689Y-102821149D01*
X75975693Y-103021520D01*
X75855205Y-103201844D01*
X75701844Y-103355205D01*
X75521520Y-103475693D01*
X75321150Y-103558689D01*
X75214795Y-103579844D01*
X75108440Y-103601000D01*
X74891560Y-103601000D01*
X74785205Y-103579844D01*
X74678850Y-103558689D01*
X74578666Y-103517191D01*
X74478480Y-103475693D01*
X74298156Y-103355205D01*
X74144795Y-103201844D01*
X74024307Y-103021520D01*
X73941311Y-102821149D01*
X73899000Y-102608440D01*
X73899000Y-102391560D01*
X73941311Y-102178851D01*
X74024307Y-101978480D01*
X74144795Y-101798156D01*
X74298156Y-101644795D01*
X74478480Y-101524307D01*
X74578666Y-101482809D01*
X74678850Y-101441311D01*
X74785205Y-101420156D01*
X74891560Y-101399000D01*
X75108440Y-101399000D01*
X75214794Y-101420155D01*
X75214794Y-101420155D01*
G37*
G36*
X95214794Y-101420155D02*
G01*
X95321150Y-101441311D01*
X95521520Y-101524307D01*
X95701844Y-101644795D01*
X95855205Y-101798156D01*
X95975693Y-101978480D01*
X96058689Y-102178851D01*
X96101000Y-102391560D01*
X96101000Y-102608440D01*
X96058689Y-102821149D01*
X95975693Y-103021520D01*
X95855205Y-103201844D01*
X95701844Y-103355205D01*
X95521520Y-103475693D01*
X95321150Y-103558689D01*
X95214795Y-103579844D01*
X95108440Y-103601000D01*
X94891560Y-103601000D01*
X94785205Y-103579844D01*
X94678850Y-103558689D01*
X94578666Y-103517191D01*
X94478480Y-103475693D01*
X94298156Y-103355205D01*
X94144795Y-103201844D01*
X94024307Y-103021520D01*
X93941311Y-102821149D01*
X93899000Y-102608440D01*
X93899000Y-102391560D01*
X93941311Y-102178851D01*
X94024307Y-101978480D01*
X94144795Y-101798156D01*
X94298156Y-101644795D01*
X94478480Y-101524307D01*
X94578666Y-101482809D01*
X94678850Y-101441311D01*
X94785205Y-101420156D01*
X94891560Y-101399000D01*
X95108440Y-101399000D01*
X95214794Y-101420155D01*
X95214794Y-101420155D01*
G37*
G36*
X115214794Y-101420155D02*
G01*
X115321150Y-101441311D01*
X115521520Y-101524307D01*
X115701844Y-101644795D01*
X115855205Y-101798156D01*
X115975693Y-101978480D01*
X116058689Y-102178851D01*
X116101000Y-102391560D01*
X116101000Y-102608440D01*
X116058689Y-102821149D01*
X115975693Y-103021520D01*
X115855205Y-103201844D01*
X115701844Y-103355205D01*
X115521520Y-103475693D01*
X115321150Y-103558689D01*
X115214795Y-103579844D01*
X115108440Y-103601000D01*
X114891560Y-103601000D01*
X114785205Y-103579844D01*
X114678850Y-103558689D01*
X114578666Y-103517191D01*
X114478480Y-103475693D01*
X114298156Y-103355205D01*
X114144795Y-103201844D01*
X114024307Y-103021520D01*
X113941311Y-102821149D01*
X113899000Y-102608440D01*
X113899000Y-102391560D01*
X113941311Y-102178851D01*
X114024307Y-101978480D01*
X114144795Y-101798156D01*
X114298156Y-101644795D01*
X114478480Y-101524307D01*
X114578666Y-101482809D01*
X114678850Y-101441311D01*
X114785205Y-101420156D01*
X114891560Y-101399000D01*
X115108440Y-101399000D01*
X115214794Y-101420155D01*
X115214794Y-101420155D01*
G37*
G36*
X155214794Y-101420155D02*
G01*
X155321150Y-101441311D01*
X155521520Y-101524307D01*
X155701844Y-101644795D01*
X155855205Y-101798156D01*
X155975693Y-101978480D01*
X156058689Y-102178851D01*
X156101000Y-102391560D01*
X156101000Y-102608440D01*
X156058689Y-102821149D01*
X155975693Y-103021520D01*
X155855205Y-103201844D01*
X155701844Y-103355205D01*
X155521520Y-103475693D01*
X155321150Y-103558689D01*
X155214795Y-103579844D01*
X155108440Y-103601000D01*
X154891560Y-103601000D01*
X154785205Y-103579844D01*
X154678850Y-103558689D01*
X154578666Y-103517191D01*
X154478480Y-103475693D01*
X154298156Y-103355205D01*
X154144795Y-103201844D01*
X154024307Y-103021520D01*
X153941311Y-102821149D01*
X153899000Y-102608440D01*
X153899000Y-102391560D01*
X153941311Y-102178851D01*
X154024307Y-101978480D01*
X154144795Y-101798156D01*
X154298156Y-101644795D01*
X154478480Y-101524307D01*
X154578666Y-101482809D01*
X154678850Y-101441311D01*
X154785205Y-101420156D01*
X154891560Y-101399000D01*
X155108440Y-101399000D01*
X155214794Y-101420155D01*
X155214794Y-101420155D01*
G37*
G36*
X135214794Y-101420155D02*
G01*
X135321150Y-101441311D01*
X135521520Y-101524307D01*
X135701844Y-101644795D01*
X135855205Y-101798156D01*
X135975693Y-101978480D01*
X136058689Y-102178851D01*
X136101000Y-102391560D01*
X136101000Y-102608440D01*
X136058689Y-102821149D01*
X135975693Y-103021520D01*
X135855205Y-103201844D01*
X135701844Y-103355205D01*
X135521520Y-103475693D01*
X135321150Y-103558689D01*
X135214795Y-103579844D01*
X135108440Y-103601000D01*
X134891560Y-103601000D01*
X134785205Y-103579844D01*
X134678850Y-103558689D01*
X134578666Y-103517191D01*
X134478480Y-103475693D01*
X134298156Y-103355205D01*
X134144795Y-103201844D01*
X134024307Y-103021520D01*
X133941311Y-102821149D01*
X133899000Y-102608440D01*
X133899000Y-102391560D01*
X133941311Y-102178851D01*
X134024307Y-101978480D01*
X134144795Y-101798156D01*
X134298156Y-101644795D01*
X134478480Y-101524307D01*
X134578666Y-101482809D01*
X134678850Y-101441311D01*
X134785205Y-101420156D01*
X134891560Y-101399000D01*
X135108440Y-101399000D01*
X135214794Y-101420155D01*
X135214794Y-101420155D01*
G37*
G36*
X113301000Y-95551000D02*
G01*
X111699000Y-95551000D01*
X111699000Y-93449000D01*
X113301000Y-93449000D01*
X113301000Y-95551000D01*
X113301000Y-95551000D01*
G37*
G36*
X158301000Y-95551000D02*
G01*
X156699000Y-95551000D01*
X156699000Y-93449000D01*
X158301000Y-93449000D01*
X158301000Y-95551000D01*
X158301000Y-95551000D01*
G37*
G36*
X73301000Y-95551000D02*
G01*
X71699000Y-95551000D01*
X71699000Y-93449000D01*
X73301000Y-93449000D01*
X73301000Y-95551000D01*
X73301000Y-95551000D01*
G37*
G36*
X98301000Y-95551000D02*
G01*
X96699000Y-95551000D01*
X96699000Y-93449000D01*
X98301000Y-93449000D01*
X98301000Y-95551000D01*
X98301000Y-95551000D01*
G37*
G36*
X93301000Y-95551000D02*
G01*
X91699000Y-95551000D01*
X91699000Y-93449000D01*
X93301000Y-93449000D01*
X93301000Y-95551000D01*
X93301000Y-95551000D01*
G37*
G36*
X153301000Y-95551000D02*
G01*
X151699000Y-95551000D01*
X151699000Y-93449000D01*
X153301000Y-93449000D01*
X153301000Y-95551000D01*
X153301000Y-95551000D01*
G37*
G36*
X78301000Y-95551000D02*
G01*
X76699000Y-95551000D01*
X76699000Y-93449000D01*
X78301000Y-93449000D01*
X78301000Y-95551000D01*
X78301000Y-95551000D01*
G37*
G36*
X138301000Y-95551000D02*
G01*
X136699000Y-95551000D01*
X136699000Y-93449000D01*
X138301000Y-93449000D01*
X138301000Y-95551000D01*
X138301000Y-95551000D01*
G37*
G36*
X118301000Y-95551000D02*
G01*
X116699000Y-95551000D01*
X116699000Y-93449000D01*
X118301000Y-93449000D01*
X118301000Y-95551000D01*
X118301000Y-95551000D01*
G37*
G36*
X133301000Y-95551000D02*
G01*
X131699000Y-95551000D01*
X131699000Y-93449000D01*
X133301000Y-93449000D01*
X133301000Y-95551000D01*
X133301000Y-95551000D01*
G37*
G36*
X87351000Y-95151000D02*
G01*
X86349000Y-95151000D01*
X86349000Y-93849000D01*
X87351000Y-93849000D01*
X87351000Y-95151000D01*
X87351000Y-95151000D01*
G37*
G36*
X130801000Y-95151000D02*
G01*
X129799000Y-95151000D01*
X129799000Y-93849000D01*
X130801000Y-93849000D01*
X130801000Y-95151000D01*
X130801000Y-95151000D01*
G37*
G36*
X90651000Y-95151000D02*
G01*
X89649000Y-95151000D01*
X89649000Y-93849000D01*
X90651000Y-93849000D01*
X90651000Y-95151000D01*
X90651000Y-95151000D01*
G37*
G36*
X127501000Y-95151000D02*
G01*
X126499000Y-95151000D01*
X126499000Y-93849000D01*
X127501000Y-93849000D01*
X127501000Y-95151000D01*
X127501000Y-95151000D01*
G37*
G36*
X70701000Y-95001000D02*
G01*
X69399000Y-95001000D01*
X69399000Y-93999000D01*
X70701000Y-93999000D01*
X70701000Y-95001000D01*
X70701000Y-95001000D01*
G37*
G36*
X113026000Y-92576000D02*
G01*
X112024000Y-92576000D01*
X112024000Y-91274000D01*
X113026000Y-91274000D01*
X113026000Y-92576000D01*
X113026000Y-92576000D01*
G37*
G36*
X116326000Y-92576000D02*
G01*
X115324000Y-92576000D01*
X115324000Y-91274000D01*
X116326000Y-91274000D01*
X116326000Y-92576000D01*
X116326000Y-92576000D01*
G37*
G36*
X156301000Y-92251000D02*
G01*
X155299000Y-92251000D01*
X155299000Y-90949000D01*
X156301000Y-90949000D01*
X156301000Y-92251000D01*
X156301000Y-92251000D01*
G37*
G36*
X153001000Y-92251000D02*
G01*
X151999000Y-92251000D01*
X151999000Y-90949000D01*
X153001000Y-90949000D01*
X153001000Y-92251000D01*
X153001000Y-92251000D01*
G37*
G36*
X70701000Y-91701000D02*
G01*
X69399000Y-91701000D01*
X69399000Y-90699000D01*
X70701000Y-90699000D01*
X70701000Y-91701000D01*
X70701000Y-91701000D01*
G37*
G36*
X155883642Y-85079781D02*
G01*
X156029414Y-85140162D01*
X156029416Y-85140163D01*
X156160608Y-85227822D01*
X156272178Y-85339392D01*
X156359837Y-85470584D01*
X156359838Y-85470586D01*
X156420219Y-85616358D01*
X156451000Y-85771107D01*
X156451000Y-85928893D01*
X156420219Y-86083642D01*
X156359838Y-86229414D01*
X156359837Y-86229416D01*
X156272178Y-86360608D01*
X156160608Y-86472178D01*
X156029416Y-86559837D01*
X156029415Y-86559838D01*
X156029414Y-86559838D01*
X155883642Y-86620219D01*
X155728893Y-86651000D01*
X155571107Y-86651000D01*
X155416358Y-86620219D01*
X155270586Y-86559838D01*
X155270585Y-86559838D01*
X155270584Y-86559837D01*
X155139392Y-86472178D01*
X155027822Y-86360608D01*
X154940163Y-86229416D01*
X154940162Y-86229414D01*
X154879781Y-86083642D01*
X154849000Y-85928893D01*
X154849000Y-85771107D01*
X154879781Y-85616358D01*
X154940162Y-85470586D01*
X154940163Y-85470584D01*
X155027822Y-85339392D01*
X155139392Y-85227822D01*
X155270584Y-85140163D01*
X155270586Y-85140162D01*
X155416358Y-85079781D01*
X155571107Y-85049000D01*
X155728893Y-85049000D01*
X155883642Y-85079781D01*
X155883642Y-85079781D01*
G37*
G36*
X85608014Y-81456973D02*
G01*
X85711878Y-81488479D01*
X85755907Y-81512013D01*
X85807599Y-81539643D01*
X85807601Y-81539644D01*
X85807600Y-81539644D01*
X85891501Y-81608499D01*
X85960356Y-81692400D01*
X86011521Y-81788121D01*
X86043027Y-81891985D01*
X86051000Y-81972933D01*
X86051000Y-83027067D01*
X86043027Y-83108015D01*
X86011521Y-83211879D01*
X86011519Y-83211882D01*
X85960357Y-83307600D01*
X85891501Y-83391501D01*
X85807600Y-83460357D01*
X85739055Y-83496995D01*
X85711879Y-83511521D01*
X85608015Y-83543027D01*
X85500000Y-83553666D01*
X85391986Y-83543027D01*
X85288122Y-83511521D01*
X85260946Y-83496995D01*
X85192401Y-83460357D01*
X85108500Y-83391501D01*
X85039644Y-83307600D01*
X84988482Y-83211882D01*
X84988480Y-83211879D01*
X84956974Y-83108015D01*
X84949001Y-83027067D01*
X84949000Y-81972934D01*
X84956973Y-81891986D01*
X84988479Y-81788122D01*
X85039644Y-81692400D01*
X85108499Y-81608499D01*
X85192400Y-81539644D01*
X85192399Y-81539644D01*
X85192401Y-81539643D01*
X85244093Y-81512013D01*
X85288121Y-81488479D01*
X85391985Y-81456973D01*
X85500000Y-81446334D01*
X85608014Y-81456973D01*
X85608014Y-81456973D01*
G37*
G36*
X96108014Y-81456973D02*
G01*
X96211878Y-81488479D01*
X96255907Y-81512013D01*
X96307599Y-81539643D01*
X96307601Y-81539644D01*
X96307600Y-81539644D01*
X96391501Y-81608499D01*
X96460356Y-81692400D01*
X96511521Y-81788121D01*
X96543027Y-81891985D01*
X96551000Y-81972933D01*
X96551000Y-83027067D01*
X96543027Y-83108015D01*
X96511521Y-83211879D01*
X96511519Y-83211882D01*
X96460357Y-83307600D01*
X96391501Y-83391501D01*
X96307600Y-83460357D01*
X96239055Y-83496995D01*
X96211879Y-83511521D01*
X96108015Y-83543027D01*
X96000000Y-83553666D01*
X95891986Y-83543027D01*
X95788122Y-83511521D01*
X95760946Y-83496995D01*
X95692401Y-83460357D01*
X95608500Y-83391501D01*
X95539644Y-83307600D01*
X95488482Y-83211882D01*
X95488480Y-83211879D01*
X95456974Y-83108015D01*
X95449001Y-83027067D01*
X95449000Y-81972934D01*
X95456973Y-81891986D01*
X95488479Y-81788122D01*
X95539644Y-81692400D01*
X95608499Y-81608499D01*
X95692400Y-81539644D01*
X95692399Y-81539644D01*
X95692401Y-81539643D01*
X95744093Y-81512013D01*
X95788121Y-81488479D01*
X95891985Y-81456973D01*
X96000000Y-81446334D01*
X96108014Y-81456973D01*
X96108014Y-81456973D01*
G37*
G36*
X87108014Y-81456973D02*
G01*
X87211878Y-81488479D01*
X87255907Y-81512013D01*
X87307599Y-81539643D01*
X87307601Y-81539644D01*
X87307600Y-81539644D01*
X87391501Y-81608499D01*
X87460356Y-81692400D01*
X87511521Y-81788121D01*
X87543027Y-81891985D01*
X87551000Y-81972933D01*
X87551000Y-83027067D01*
X87543027Y-83108015D01*
X87511521Y-83211879D01*
X87511519Y-83211882D01*
X87460357Y-83307600D01*
X87391501Y-83391501D01*
X87307600Y-83460357D01*
X87239055Y-83496995D01*
X87211879Y-83511521D01*
X87108015Y-83543027D01*
X87000000Y-83553666D01*
X86891986Y-83543027D01*
X86788122Y-83511521D01*
X86760946Y-83496995D01*
X86692401Y-83460357D01*
X86608500Y-83391501D01*
X86539644Y-83307600D01*
X86488482Y-83211882D01*
X86488480Y-83211879D01*
X86456974Y-83108015D01*
X86449001Y-83027067D01*
X86449000Y-81972934D01*
X86456973Y-81891986D01*
X86488479Y-81788122D01*
X86539644Y-81692400D01*
X86608499Y-81608499D01*
X86692400Y-81539644D01*
X86692399Y-81539644D01*
X86692401Y-81539643D01*
X86744093Y-81512013D01*
X86788121Y-81488479D01*
X86891985Y-81456973D01*
X87000000Y-81446334D01*
X87108014Y-81456973D01*
X87108014Y-81456973D01*
G37*
G36*
X88608014Y-81456973D02*
G01*
X88711878Y-81488479D01*
X88755907Y-81512013D01*
X88807599Y-81539643D01*
X88807601Y-81539644D01*
X88807600Y-81539644D01*
X88891501Y-81608499D01*
X88960356Y-81692400D01*
X89011521Y-81788121D01*
X89043027Y-81891985D01*
X89051000Y-81972933D01*
X89051000Y-83027067D01*
X89043027Y-83108015D01*
X89011521Y-83211879D01*
X89011519Y-83211882D01*
X88960357Y-83307600D01*
X88891501Y-83391501D01*
X88807600Y-83460357D01*
X88739055Y-83496995D01*
X88711879Y-83511521D01*
X88608015Y-83543027D01*
X88500000Y-83553666D01*
X88391986Y-83543027D01*
X88288122Y-83511521D01*
X88260946Y-83496995D01*
X88192401Y-83460357D01*
X88108500Y-83391501D01*
X88039644Y-83307600D01*
X87988482Y-83211882D01*
X87988480Y-83211879D01*
X87956974Y-83108015D01*
X87949001Y-83027067D01*
X87949000Y-81972934D01*
X87956973Y-81891986D01*
X87988479Y-81788122D01*
X88039644Y-81692400D01*
X88108499Y-81608499D01*
X88192400Y-81539644D01*
X88192399Y-81539644D01*
X88192401Y-81539643D01*
X88244093Y-81512013D01*
X88288121Y-81488479D01*
X88391985Y-81456973D01*
X88500000Y-81446334D01*
X88608014Y-81456973D01*
X88608014Y-81456973D01*
G37*
G36*
X90108014Y-81456973D02*
G01*
X90211878Y-81488479D01*
X90255907Y-81512013D01*
X90307599Y-81539643D01*
X90307601Y-81539644D01*
X90307600Y-81539644D01*
X90391501Y-81608499D01*
X90460356Y-81692400D01*
X90511521Y-81788121D01*
X90543027Y-81891985D01*
X90551000Y-81972933D01*
X90551000Y-83027067D01*
X90543027Y-83108015D01*
X90511521Y-83211879D01*
X90511519Y-83211882D01*
X90460357Y-83307600D01*
X90391501Y-83391501D01*
X90307600Y-83460357D01*
X90239055Y-83496995D01*
X90211879Y-83511521D01*
X90108015Y-83543027D01*
X90000000Y-83553666D01*
X89891986Y-83543027D01*
X89788122Y-83511521D01*
X89760946Y-83496995D01*
X89692401Y-83460357D01*
X89608500Y-83391501D01*
X89539644Y-83307600D01*
X89488482Y-83211882D01*
X89488480Y-83211879D01*
X89456974Y-83108015D01*
X89449001Y-83027067D01*
X89449000Y-81972934D01*
X89456973Y-81891986D01*
X89488479Y-81788122D01*
X89539644Y-81692400D01*
X89608499Y-81608499D01*
X89692400Y-81539644D01*
X89692399Y-81539644D01*
X89692401Y-81539643D01*
X89744093Y-81512013D01*
X89788121Y-81488479D01*
X89891985Y-81456973D01*
X90000000Y-81446334D01*
X90108014Y-81456973D01*
X90108014Y-81456973D01*
G37*
G36*
X91608014Y-81456973D02*
G01*
X91711878Y-81488479D01*
X91755907Y-81512013D01*
X91807599Y-81539643D01*
X91807601Y-81539644D01*
X91807600Y-81539644D01*
X91891501Y-81608499D01*
X91960356Y-81692400D01*
X92011521Y-81788121D01*
X92043027Y-81891985D01*
X92051000Y-81972933D01*
X92051000Y-83027067D01*
X92043027Y-83108015D01*
X92011521Y-83211879D01*
X92011519Y-83211882D01*
X91960357Y-83307600D01*
X91891501Y-83391501D01*
X91807600Y-83460357D01*
X91739055Y-83496995D01*
X91711879Y-83511521D01*
X91608015Y-83543027D01*
X91500000Y-83553666D01*
X91391986Y-83543027D01*
X91288122Y-83511521D01*
X91260946Y-83496995D01*
X91192401Y-83460357D01*
X91108500Y-83391501D01*
X91039644Y-83307600D01*
X90988482Y-83211882D01*
X90988480Y-83211879D01*
X90956974Y-83108015D01*
X90949001Y-83027067D01*
X90949000Y-81972934D01*
X90956973Y-81891986D01*
X90988479Y-81788122D01*
X91039644Y-81692400D01*
X91108499Y-81608499D01*
X91192400Y-81539644D01*
X91192399Y-81539644D01*
X91192401Y-81539643D01*
X91244093Y-81512013D01*
X91288121Y-81488479D01*
X91391985Y-81456973D01*
X91500000Y-81446334D01*
X91608014Y-81456973D01*
X91608014Y-81456973D01*
G37*
G36*
X93108014Y-81456973D02*
G01*
X93211878Y-81488479D01*
X93255907Y-81512013D01*
X93307599Y-81539643D01*
X93307601Y-81539644D01*
X93307600Y-81539644D01*
X93391501Y-81608499D01*
X93460356Y-81692400D01*
X93511521Y-81788121D01*
X93543027Y-81891985D01*
X93551000Y-81972933D01*
X93551000Y-83027067D01*
X93543027Y-83108015D01*
X93511521Y-83211879D01*
X93511519Y-83211882D01*
X93460357Y-83307600D01*
X93391501Y-83391501D01*
X93307600Y-83460357D01*
X93239055Y-83496995D01*
X93211879Y-83511521D01*
X93108015Y-83543027D01*
X93000000Y-83553666D01*
X92891986Y-83543027D01*
X92788122Y-83511521D01*
X92760946Y-83496995D01*
X92692401Y-83460357D01*
X92608500Y-83391501D01*
X92539644Y-83307600D01*
X92488482Y-83211882D01*
X92488480Y-83211879D01*
X92456974Y-83108015D01*
X92449001Y-83027067D01*
X92449000Y-81972934D01*
X92456973Y-81891986D01*
X92488479Y-81788122D01*
X92539644Y-81692400D01*
X92608499Y-81608499D01*
X92692400Y-81539644D01*
X92692399Y-81539644D01*
X92692401Y-81539643D01*
X92744093Y-81512013D01*
X92788121Y-81488479D01*
X92891985Y-81456973D01*
X93000000Y-81446334D01*
X93108014Y-81456973D01*
X93108014Y-81456973D01*
G37*
G36*
X94608014Y-81456973D02*
G01*
X94711878Y-81488479D01*
X94755907Y-81512013D01*
X94807599Y-81539643D01*
X94807601Y-81539644D01*
X94807600Y-81539644D01*
X94891501Y-81608499D01*
X94960356Y-81692400D01*
X95011521Y-81788121D01*
X95043027Y-81891985D01*
X95051000Y-81972933D01*
X95051000Y-83027067D01*
X95043027Y-83108015D01*
X95011521Y-83211879D01*
X95011519Y-83211882D01*
X94960357Y-83307600D01*
X94891501Y-83391501D01*
X94807600Y-83460357D01*
X94739055Y-83496995D01*
X94711879Y-83511521D01*
X94608015Y-83543027D01*
X94500000Y-83553666D01*
X94391986Y-83543027D01*
X94288122Y-83511521D01*
X94260946Y-83496995D01*
X94192401Y-83460357D01*
X94108500Y-83391501D01*
X94039644Y-83307600D01*
X93988482Y-83211882D01*
X93988480Y-83211879D01*
X93956974Y-83108015D01*
X93949001Y-83027067D01*
X93949000Y-81972934D01*
X93956973Y-81891986D01*
X93988479Y-81788122D01*
X94039644Y-81692400D01*
X94108499Y-81608499D01*
X94192400Y-81539644D01*
X94192399Y-81539644D01*
X94192401Y-81539643D01*
X94244093Y-81512013D01*
X94288121Y-81488479D01*
X94391985Y-81456973D01*
X94500000Y-81446334D01*
X94608014Y-81456973D01*
X94608014Y-81456973D01*
G37*
G36*
X84551000Y-83551000D02*
G01*
X83449000Y-83551000D01*
X83449000Y-81449000D01*
X84551000Y-81449000D01*
X84551000Y-83551000D01*
X84551000Y-83551000D01*
G37*
G36*
X82508015Y-79856973D02*
G01*
X82611879Y-79888479D01*
X82639055Y-79903005D01*
X82707600Y-79939643D01*
X82791501Y-80008499D01*
X82860357Y-80092400D01*
X82896995Y-80160945D01*
X82911521Y-80188121D01*
X82943027Y-80291985D01*
X82953666Y-80400000D01*
X82943027Y-80508015D01*
X82911521Y-80611879D01*
X82911519Y-80611882D01*
X82860357Y-80707600D01*
X82791501Y-80791501D01*
X82707600Y-80860357D01*
X82639055Y-80896995D01*
X82611879Y-80911521D01*
X82508015Y-80943027D01*
X82427067Y-80951000D01*
X81572933Y-80951000D01*
X81491985Y-80943027D01*
X81388121Y-80911521D01*
X81360945Y-80896995D01*
X81292400Y-80860357D01*
X81208499Y-80791501D01*
X81139643Y-80707600D01*
X81088481Y-80611882D01*
X81088479Y-80611879D01*
X81056973Y-80508015D01*
X81046334Y-80400000D01*
X81056973Y-80291985D01*
X81088479Y-80188121D01*
X81103005Y-80160945D01*
X81139643Y-80092400D01*
X81208499Y-80008499D01*
X81292400Y-79939643D01*
X81360945Y-79903005D01*
X81388121Y-79888479D01*
X81491985Y-79856973D01*
X81572933Y-79849000D01*
X82427067Y-79849000D01*
X82508015Y-79856973D01*
X82508015Y-79856973D01*
G37*
G36*
X98508015Y-79856973D02*
G01*
X98611879Y-79888479D01*
X98639055Y-79903005D01*
X98707600Y-79939643D01*
X98791501Y-80008499D01*
X98860357Y-80092400D01*
X98896995Y-80160945D01*
X98911521Y-80188121D01*
X98943027Y-80291985D01*
X98953666Y-80400000D01*
X98943027Y-80508015D01*
X98911521Y-80611879D01*
X98911519Y-80611882D01*
X98860357Y-80707600D01*
X98791501Y-80791501D01*
X98707600Y-80860357D01*
X98639055Y-80896995D01*
X98611879Y-80911521D01*
X98508015Y-80943027D01*
X98427067Y-80951000D01*
X97572933Y-80951000D01*
X97491985Y-80943027D01*
X97388121Y-80911521D01*
X97360945Y-80896995D01*
X97292400Y-80860357D01*
X97208499Y-80791501D01*
X97139643Y-80707600D01*
X97088481Y-80611882D01*
X97088479Y-80611879D01*
X97056973Y-80508015D01*
X97046334Y-80400000D01*
X97056973Y-80291985D01*
X97088479Y-80188121D01*
X97103005Y-80160945D01*
X97139643Y-80092400D01*
X97208499Y-80008499D01*
X97292400Y-79939643D01*
X97360945Y-79903005D01*
X97388121Y-79888479D01*
X97491985Y-79856973D01*
X97572933Y-79849000D01*
X98427067Y-79849000D01*
X98508015Y-79856973D01*
X98508015Y-79856973D01*
G37*
G36*
X131360442Y-78955518D02*
G01*
X131426627Y-78962037D01*
X131596466Y-79013557D01*
X131752991Y-79097222D01*
X131779145Y-79118686D01*
X131890186Y-79209814D01*
X131973448Y-79311271D01*
X132002778Y-79347009D01*
X132086443Y-79503534D01*
X132137963Y-79673373D01*
X132155359Y-79850000D01*
X132137963Y-80026627D01*
X132086443Y-80196466D01*
X132002778Y-80352991D01*
X131973448Y-80388729D01*
X131890186Y-80490186D01*
X131788729Y-80573448D01*
X131752991Y-80602778D01*
X131596466Y-80686443D01*
X131426627Y-80737963D01*
X131360442Y-80744482D01*
X131294260Y-80751000D01*
X131205740Y-80751000D01*
X131139558Y-80744482D01*
X131073373Y-80737963D01*
X130903534Y-80686443D01*
X130747009Y-80602778D01*
X130711271Y-80573448D01*
X130609814Y-80490186D01*
X130526552Y-80388729D01*
X130497222Y-80352991D01*
X130413557Y-80196466D01*
X130362037Y-80026627D01*
X130344641Y-79850000D01*
X130362037Y-79673373D01*
X130413557Y-79503534D01*
X130497222Y-79347009D01*
X130526552Y-79311271D01*
X130609814Y-79209814D01*
X130720855Y-79118686D01*
X130747009Y-79097222D01*
X130903534Y-79013557D01*
X131073373Y-78962037D01*
X131139558Y-78955518D01*
X131205740Y-78949000D01*
X131294260Y-78949000D01*
X131360442Y-78955518D01*
X131360442Y-78955518D01*
G37*
G36*
X129611000Y-80751000D02*
G01*
X127809000Y-80751000D01*
X127809000Y-78949000D01*
X129611000Y-78949000D01*
X129611000Y-80751000D01*
X129611000Y-80751000D01*
G37*
G36*
X155816823Y-77441313D02*
G01*
X155977242Y-77489976D01*
X156109906Y-77560886D01*
X156125078Y-77568996D01*
X156254659Y-77675341D01*
X156361004Y-77804922D01*
X156361005Y-77804924D01*
X156440024Y-77952758D01*
X156488687Y-78113177D01*
X156505117Y-78280000D01*
X156488687Y-78446823D01*
X156440024Y-78607242D01*
X156369114Y-78739906D01*
X156361004Y-78755078D01*
X156254659Y-78884659D01*
X156125078Y-78991004D01*
X156125076Y-78991005D01*
X155977242Y-79070024D01*
X155816823Y-79118687D01*
X155691804Y-79131000D01*
X155608196Y-79131000D01*
X155483177Y-79118687D01*
X155322758Y-79070024D01*
X155174924Y-78991005D01*
X155174922Y-78991004D01*
X155045341Y-78884659D01*
X154938996Y-78755078D01*
X154930886Y-78739906D01*
X154859976Y-78607242D01*
X154811313Y-78446823D01*
X154794883Y-78280000D01*
X154811313Y-78113177D01*
X154859976Y-77952758D01*
X154938995Y-77804924D01*
X154938996Y-77804922D01*
X155045341Y-77675341D01*
X155174922Y-77568996D01*
X155190094Y-77560886D01*
X155322758Y-77489976D01*
X155483177Y-77441313D01*
X155608196Y-77429000D01*
X155691804Y-77429000D01*
X155816823Y-77441313D01*
X155816823Y-77441313D01*
G37*
G36*
X158356823Y-77441313D02*
G01*
X158517242Y-77489976D01*
X158649906Y-77560886D01*
X158665078Y-77568996D01*
X158794659Y-77675341D01*
X158901004Y-77804922D01*
X158901005Y-77804924D01*
X158980024Y-77952758D01*
X159028687Y-78113177D01*
X159045117Y-78280000D01*
X159028687Y-78446823D01*
X158980024Y-78607242D01*
X158909114Y-78739906D01*
X158901004Y-78755078D01*
X158794659Y-78884659D01*
X158665078Y-78991004D01*
X158665076Y-78991005D01*
X158517242Y-79070024D01*
X158356823Y-79118687D01*
X158231804Y-79131000D01*
X158148196Y-79131000D01*
X158023177Y-79118687D01*
X157862758Y-79070024D01*
X157714924Y-78991005D01*
X157714922Y-78991004D01*
X157585341Y-78884659D01*
X157478996Y-78755078D01*
X157470886Y-78739906D01*
X157399976Y-78607242D01*
X157351313Y-78446823D01*
X157334883Y-78280000D01*
X157351313Y-78113177D01*
X157399976Y-77952758D01*
X157478995Y-77804924D01*
X157478996Y-77804922D01*
X157585341Y-77675341D01*
X157714922Y-77568996D01*
X157730094Y-77560886D01*
X157862758Y-77489976D01*
X158023177Y-77441313D01*
X158148196Y-77429000D01*
X158231804Y-77429000D01*
X158356823Y-77441313D01*
X158356823Y-77441313D01*
G37*
G36*
X155816823Y-74901313D02*
G01*
X155977242Y-74949976D01*
X156084394Y-75007250D01*
X156125078Y-75028996D01*
X156254659Y-75135341D01*
X156361004Y-75264922D01*
X156361005Y-75264924D01*
X156440024Y-75412758D01*
X156488687Y-75573177D01*
X156505117Y-75740000D01*
X156488687Y-75906823D01*
X156440024Y-76067242D01*
X156369114Y-76199906D01*
X156361004Y-76215078D01*
X156254659Y-76344659D01*
X156125078Y-76451004D01*
X156125076Y-76451005D01*
X155977242Y-76530024D01*
X155816823Y-76578687D01*
X155691804Y-76591000D01*
X155608196Y-76591000D01*
X155483177Y-76578687D01*
X155322758Y-76530024D01*
X155174924Y-76451005D01*
X155174922Y-76451004D01*
X155045341Y-76344659D01*
X154938996Y-76215078D01*
X154930886Y-76199906D01*
X154859976Y-76067242D01*
X154811313Y-75906823D01*
X154794883Y-75740000D01*
X154811313Y-75573177D01*
X154859976Y-75412758D01*
X154938995Y-75264924D01*
X154938996Y-75264922D01*
X155045341Y-75135341D01*
X155174922Y-75028996D01*
X155215606Y-75007250D01*
X155322758Y-74949976D01*
X155483177Y-74901313D01*
X155608196Y-74889000D01*
X155691804Y-74889000D01*
X155816823Y-74901313D01*
X155816823Y-74901313D01*
G37*
G36*
X158356823Y-74901313D02*
G01*
X158517242Y-74949976D01*
X158624394Y-75007250D01*
X158665078Y-75028996D01*
X158794659Y-75135341D01*
X158901004Y-75264922D01*
X158901005Y-75264924D01*
X158980024Y-75412758D01*
X159028687Y-75573177D01*
X159045117Y-75740000D01*
X159028687Y-75906823D01*
X158980024Y-76067242D01*
X158909114Y-76199906D01*
X158901004Y-76215078D01*
X158794659Y-76344659D01*
X158665078Y-76451004D01*
X158665076Y-76451005D01*
X158517242Y-76530024D01*
X158356823Y-76578687D01*
X158231804Y-76591000D01*
X158148196Y-76591000D01*
X158023177Y-76578687D01*
X157862758Y-76530024D01*
X157714924Y-76451005D01*
X157714922Y-76451004D01*
X157585341Y-76344659D01*
X157478996Y-76215078D01*
X157470886Y-76199906D01*
X157399976Y-76067242D01*
X157351313Y-75906823D01*
X157334883Y-75740000D01*
X157351313Y-75573177D01*
X157399976Y-75412758D01*
X157478995Y-75264924D01*
X157478996Y-75264922D01*
X157585341Y-75135341D01*
X157714922Y-75028996D01*
X157755606Y-75007250D01*
X157862758Y-74949976D01*
X158023177Y-74901313D01*
X158148196Y-74889000D01*
X158231804Y-74889000D01*
X158356823Y-74901313D01*
X158356823Y-74901313D01*
G37*
G36*
X149413500Y-76507250D02*
G01*
X148361500Y-76507250D01*
X148361500Y-75492750D01*
X149413500Y-75492750D01*
X149413500Y-76507250D01*
X149413500Y-76507250D01*
G37*
G36*
X131638500Y-76507250D02*
G01*
X130586500Y-76507250D01*
X130586500Y-75492750D01*
X131638500Y-75492750D01*
X131638500Y-76507250D01*
X131638500Y-76507250D01*
G37*
G36*
X149413500Y-75007250D02*
G01*
X148361500Y-75007250D01*
X148361500Y-73992750D01*
X149413500Y-73992750D01*
X149413500Y-75007250D01*
X149413500Y-75007250D01*
G37*
G36*
X131638500Y-75007250D02*
G01*
X130586500Y-75007250D01*
X130586500Y-73992750D01*
X131638500Y-73992750D01*
X131638500Y-75007250D01*
X131638500Y-75007250D01*
G37*
G36*
X156501000Y-74051000D02*
G01*
X154799000Y-74051000D01*
X154799000Y-72349000D01*
X156501000Y-72349000D01*
X156501000Y-74051000D01*
X156501000Y-74051000D01*
G37*
G36*
X158356823Y-72361313D02*
G01*
X158517242Y-72409976D01*
X158649906Y-72480886D01*
X158665078Y-72488996D01*
X158794659Y-72595341D01*
X158901004Y-72724922D01*
X158901005Y-72724924D01*
X158980024Y-72872758D01*
X159028687Y-73033177D01*
X159045117Y-73200000D01*
X159028687Y-73366823D01*
X158980024Y-73527242D01*
X158942129Y-73598138D01*
X158901004Y-73675078D01*
X158794659Y-73804659D01*
X158665078Y-73911004D01*
X158665076Y-73911005D01*
X158517242Y-73990024D01*
X158356823Y-74038687D01*
X158231804Y-74051000D01*
X158148196Y-74051000D01*
X158023177Y-74038687D01*
X157862758Y-73990024D01*
X157714924Y-73911005D01*
X157714922Y-73911004D01*
X157585341Y-73804659D01*
X157478996Y-73675078D01*
X157437871Y-73598138D01*
X157399976Y-73527242D01*
X157351313Y-73366823D01*
X157334883Y-73200000D01*
X157351313Y-73033177D01*
X157399976Y-72872758D01*
X157478995Y-72724924D01*
X157478996Y-72724922D01*
X157585341Y-72595341D01*
X157714922Y-72488996D01*
X157730094Y-72480886D01*
X157862758Y-72409976D01*
X158023177Y-72361313D01*
X158148196Y-72349000D01*
X158231804Y-72349000D01*
X158356823Y-72361313D01*
X158356823Y-72361313D01*
G37*
G36*
X129434468Y-72228565D02*
G01*
X129473138Y-72240296D01*
X129508777Y-72259346D01*
X129540017Y-72284983D01*
X129565654Y-72316223D01*
X129584704Y-72351862D01*
X129596435Y-72390532D01*
X129601000Y-72436888D01*
X129601000Y-73513112D01*
X129596435Y-73559468D01*
X129584704Y-73598138D01*
X129565654Y-73633777D01*
X129540017Y-73665017D01*
X129508777Y-73690654D01*
X129473138Y-73709704D01*
X129434468Y-73721435D01*
X129388112Y-73726000D01*
X128736888Y-73726000D01*
X128690532Y-73721435D01*
X128651862Y-73709704D01*
X128616223Y-73690654D01*
X128584983Y-73665017D01*
X128559346Y-73633777D01*
X128540296Y-73598138D01*
X128528565Y-73559468D01*
X128524000Y-73513112D01*
X128524000Y-72436888D01*
X128528565Y-72390532D01*
X128540296Y-72351862D01*
X128559346Y-72316223D01*
X128584983Y-72284983D01*
X128616223Y-72259346D01*
X128651862Y-72240296D01*
X128690532Y-72228565D01*
X128736888Y-72224000D01*
X129388112Y-72224000D01*
X129434468Y-72228565D01*
X129434468Y-72228565D01*
G37*
G36*
X127559468Y-72228565D02*
G01*
X127598138Y-72240296D01*
X127633777Y-72259346D01*
X127665017Y-72284983D01*
X127690654Y-72316223D01*
X127709704Y-72351862D01*
X127721435Y-72390532D01*
X127726000Y-72436888D01*
X127726000Y-73513112D01*
X127721435Y-73559468D01*
X127709704Y-73598138D01*
X127690654Y-73633777D01*
X127665017Y-73665017D01*
X127633777Y-73690654D01*
X127598138Y-73709704D01*
X127559468Y-73721435D01*
X127513112Y-73726000D01*
X126861888Y-73726000D01*
X126815532Y-73721435D01*
X126776862Y-73709704D01*
X126741223Y-73690654D01*
X126709983Y-73665017D01*
X126684346Y-73633777D01*
X126665296Y-73598138D01*
X126653565Y-73559468D01*
X126649000Y-73513112D01*
X126649000Y-72436888D01*
X126653565Y-72390532D01*
X126665296Y-72351862D01*
X126684346Y-72316223D01*
X126709983Y-72284983D01*
X126741223Y-72259346D01*
X126776862Y-72240296D01*
X126815532Y-72228565D01*
X126861888Y-72224000D01*
X127513112Y-72224000D01*
X127559468Y-72228565D01*
X127559468Y-72228565D01*
G37*
G36*
X131638500Y-73507250D02*
G01*
X130586500Y-73507250D01*
X130586500Y-72492750D01*
X131638500Y-72492750D01*
X131638500Y-73507250D01*
X131638500Y-73507250D01*
G37*
G36*
X149413500Y-73507250D02*
G01*
X148361500Y-73507250D01*
X148361500Y-72492750D01*
X149413500Y-72492750D01*
X149413500Y-73507250D01*
X149413500Y-73507250D01*
G37*
G36*
X143321000Y-72781000D02*
G01*
X138919000Y-72781000D01*
X138919000Y-68379000D01*
X143321000Y-68379000D01*
X143321000Y-72781000D01*
X143321000Y-72781000D01*
G37*
G36*
X131638500Y-72007250D02*
G01*
X130586500Y-72007250D01*
X130586500Y-70992750D01*
X131638500Y-70992750D01*
X131638500Y-72007250D01*
X131638500Y-72007250D01*
G37*
G36*
X149413500Y-72007250D02*
G01*
X148361500Y-72007250D01*
X148361500Y-70992750D01*
X149413500Y-70992750D01*
X149413500Y-72007250D01*
X149413500Y-72007250D01*
G37*
G36*
X129434468Y-70328565D02*
G01*
X129473138Y-70340296D01*
X129508777Y-70359346D01*
X129540017Y-70384983D01*
X129565654Y-70416223D01*
X129584704Y-70451862D01*
X129596435Y-70490532D01*
X129601000Y-70536888D01*
X129601000Y-71613112D01*
X129596435Y-71659468D01*
X129584704Y-71698138D01*
X129565654Y-71733777D01*
X129540017Y-71765017D01*
X129508777Y-71790654D01*
X129473138Y-71809704D01*
X129434468Y-71821435D01*
X129388112Y-71826000D01*
X128736888Y-71826000D01*
X128690532Y-71821435D01*
X128651862Y-71809704D01*
X128616223Y-71790654D01*
X128584983Y-71765017D01*
X128559346Y-71733777D01*
X128540296Y-71698138D01*
X128528565Y-71659468D01*
X128524000Y-71613112D01*
X128524000Y-70536888D01*
X128528565Y-70490532D01*
X128540296Y-70451862D01*
X128559346Y-70416223D01*
X128584983Y-70384983D01*
X128616223Y-70359346D01*
X128651862Y-70340296D01*
X128690532Y-70328565D01*
X128736888Y-70324000D01*
X129388112Y-70324000D01*
X129434468Y-70328565D01*
X129434468Y-70328565D01*
G37*
G36*
X127559468Y-70328565D02*
G01*
X127598138Y-70340296D01*
X127633777Y-70359346D01*
X127665017Y-70384983D01*
X127690654Y-70416223D01*
X127709704Y-70451862D01*
X127721435Y-70490532D01*
X127726000Y-70536888D01*
X127726000Y-71613112D01*
X127721435Y-71659468D01*
X127709704Y-71698138D01*
X127690654Y-71733777D01*
X127665017Y-71765017D01*
X127633777Y-71790654D01*
X127598138Y-71809704D01*
X127559468Y-71821435D01*
X127513112Y-71826000D01*
X126861888Y-71826000D01*
X126815532Y-71821435D01*
X126776862Y-71809704D01*
X126741223Y-71790654D01*
X126709983Y-71765017D01*
X126684346Y-71733777D01*
X126665296Y-71698138D01*
X126653565Y-71659468D01*
X126649000Y-71613112D01*
X126649000Y-70536888D01*
X126653565Y-70490532D01*
X126665296Y-70451862D01*
X126684346Y-70416223D01*
X126709983Y-70384983D01*
X126741223Y-70359346D01*
X126776862Y-70340296D01*
X126815532Y-70328565D01*
X126861888Y-70324000D01*
X127513112Y-70324000D01*
X127559468Y-70328565D01*
X127559468Y-70328565D01*
G37*
G36*
X114871468Y-69253565D02*
G01*
X114910138Y-69265296D01*
X114945777Y-69284346D01*
X114977017Y-69309983D01*
X115002654Y-69341223D01*
X115021704Y-69376862D01*
X115033435Y-69415532D01*
X115038000Y-69461888D01*
X115038000Y-70538112D01*
X115033435Y-70584468D01*
X115021704Y-70623138D01*
X115002654Y-70658777D01*
X114977017Y-70690017D01*
X114945777Y-70715654D01*
X114910138Y-70734704D01*
X114871468Y-70746435D01*
X114825112Y-70751000D01*
X114173888Y-70751000D01*
X114127532Y-70746435D01*
X114088862Y-70734704D01*
X114053223Y-70715654D01*
X114021983Y-70690017D01*
X113996346Y-70658777D01*
X113977296Y-70623138D01*
X113965565Y-70584468D01*
X113961000Y-70538112D01*
X113961000Y-69461888D01*
X113965565Y-69415532D01*
X113977296Y-69376862D01*
X113996346Y-69341223D01*
X114021983Y-69309983D01*
X114053223Y-69284346D01*
X114088862Y-69265296D01*
X114127532Y-69253565D01*
X114173888Y-69249000D01*
X114825112Y-69249000D01*
X114871468Y-69253565D01*
X114871468Y-69253565D01*
G37*
G36*
X118747468Y-69253565D02*
G01*
X118786138Y-69265296D01*
X118821777Y-69284346D01*
X118853017Y-69309983D01*
X118878654Y-69341223D01*
X118897704Y-69376862D01*
X118909435Y-69415532D01*
X118914000Y-69461888D01*
X118914000Y-70538112D01*
X118909435Y-70584468D01*
X118897704Y-70623138D01*
X118878654Y-70658777D01*
X118853017Y-70690017D01*
X118821777Y-70715654D01*
X118786138Y-70734704D01*
X118747468Y-70746435D01*
X118701112Y-70751000D01*
X118049888Y-70751000D01*
X118003532Y-70746435D01*
X117964862Y-70734704D01*
X117929223Y-70715654D01*
X117897983Y-70690017D01*
X117872346Y-70658777D01*
X117853296Y-70623138D01*
X117841565Y-70584468D01*
X117837000Y-70538112D01*
X117837000Y-69461888D01*
X117841565Y-69415532D01*
X117853296Y-69376862D01*
X117872346Y-69341223D01*
X117897983Y-69309983D01*
X117929223Y-69284346D01*
X117964862Y-69265296D01*
X118003532Y-69253565D01*
X118049888Y-69249000D01*
X118701112Y-69249000D01*
X118747468Y-69253565D01*
X118747468Y-69253565D01*
G37*
G36*
X116872468Y-69253565D02*
G01*
X116911138Y-69265296D01*
X116946777Y-69284346D01*
X116978017Y-69309983D01*
X117003654Y-69341223D01*
X117022704Y-69376862D01*
X117034435Y-69415532D01*
X117039000Y-69461888D01*
X117039000Y-70538112D01*
X117034435Y-70584468D01*
X117022704Y-70623138D01*
X117003654Y-70658777D01*
X116978017Y-70690017D01*
X116946777Y-70715654D01*
X116911138Y-70734704D01*
X116872468Y-70746435D01*
X116826112Y-70751000D01*
X116174888Y-70751000D01*
X116128532Y-70746435D01*
X116089862Y-70734704D01*
X116054223Y-70715654D01*
X116022983Y-70690017D01*
X115997346Y-70658777D01*
X115978296Y-70623138D01*
X115966565Y-70584468D01*
X115962000Y-70538112D01*
X115962000Y-69461888D01*
X115966565Y-69415532D01*
X115978296Y-69376862D01*
X115997346Y-69341223D01*
X116022983Y-69309983D01*
X116054223Y-69284346D01*
X116089862Y-69265296D01*
X116128532Y-69253565D01*
X116174888Y-69249000D01*
X116826112Y-69249000D01*
X116872468Y-69253565D01*
X116872468Y-69253565D01*
G37*
G36*
X112996468Y-69253565D02*
G01*
X113035138Y-69265296D01*
X113070777Y-69284346D01*
X113102017Y-69309983D01*
X113127654Y-69341223D01*
X113146704Y-69376862D01*
X113158435Y-69415532D01*
X113163000Y-69461888D01*
X113163000Y-70538112D01*
X113158435Y-70584468D01*
X113146704Y-70623138D01*
X113127654Y-70658777D01*
X113102017Y-70690017D01*
X113070777Y-70715654D01*
X113035138Y-70734704D01*
X112996468Y-70746435D01*
X112950112Y-70751000D01*
X112298888Y-70751000D01*
X112252532Y-70746435D01*
X112213862Y-70734704D01*
X112178223Y-70715654D01*
X112146983Y-70690017D01*
X112121346Y-70658777D01*
X112102296Y-70623138D01*
X112090565Y-70584468D01*
X112086000Y-70538112D01*
X112086000Y-69461888D01*
X112090565Y-69415532D01*
X112102296Y-69376862D01*
X112121346Y-69341223D01*
X112146983Y-69309983D01*
X112178223Y-69284346D01*
X112213862Y-69265296D01*
X112252532Y-69253565D01*
X112298888Y-69249000D01*
X112950112Y-69249000D01*
X112996468Y-69253565D01*
X112996468Y-69253565D01*
G37*
G36*
X149413500Y-70507250D02*
G01*
X148361500Y-70507250D01*
X148361500Y-69492750D01*
X149413500Y-69492750D01*
X149413500Y-70507250D01*
X149413500Y-70507250D01*
G37*
G36*
X131638500Y-70507250D02*
G01*
X130586500Y-70507250D01*
X130586500Y-69492750D01*
X131638500Y-69492750D01*
X131638500Y-70507250D01*
X131638500Y-70507250D01*
G37*
G36*
X129434468Y-68403565D02*
G01*
X129473138Y-68415296D01*
X129508777Y-68434346D01*
X129540017Y-68459983D01*
X129565654Y-68491223D01*
X129584704Y-68526862D01*
X129596435Y-68565532D01*
X129601000Y-68611888D01*
X129601000Y-69688112D01*
X129596435Y-69734468D01*
X129584704Y-69773138D01*
X129565654Y-69808777D01*
X129540017Y-69840017D01*
X129508777Y-69865654D01*
X129473138Y-69884704D01*
X129434468Y-69896435D01*
X129388112Y-69901000D01*
X128736888Y-69901000D01*
X128690532Y-69896435D01*
X128651862Y-69884704D01*
X128616223Y-69865654D01*
X128584983Y-69840017D01*
X128559346Y-69808777D01*
X128540296Y-69773138D01*
X128528565Y-69734468D01*
X128524000Y-69688112D01*
X128524000Y-68611888D01*
X128528565Y-68565532D01*
X128540296Y-68526862D01*
X128559346Y-68491223D01*
X128584983Y-68459983D01*
X128616223Y-68434346D01*
X128651862Y-68415296D01*
X128690532Y-68403565D01*
X128736888Y-68399000D01*
X129388112Y-68399000D01*
X129434468Y-68403565D01*
X129434468Y-68403565D01*
G37*
G36*
X127559468Y-68403565D02*
G01*
X127598138Y-68415296D01*
X127633777Y-68434346D01*
X127665017Y-68459983D01*
X127690654Y-68491223D01*
X127709704Y-68526862D01*
X127721435Y-68565532D01*
X127726000Y-68611888D01*
X127726000Y-69688112D01*
X127721435Y-69734468D01*
X127709704Y-69773138D01*
X127690654Y-69808777D01*
X127665017Y-69840017D01*
X127633777Y-69865654D01*
X127598138Y-69884704D01*
X127559468Y-69896435D01*
X127513112Y-69901000D01*
X126861888Y-69901000D01*
X126815532Y-69896435D01*
X126776862Y-69884704D01*
X126741223Y-69865654D01*
X126709983Y-69840017D01*
X126684346Y-69808777D01*
X126665296Y-69773138D01*
X126653565Y-69734468D01*
X126649000Y-69688112D01*
X126649000Y-68611888D01*
X126653565Y-68565532D01*
X126665296Y-68526862D01*
X126684346Y-68491223D01*
X126709983Y-68459983D01*
X126741223Y-68434346D01*
X126776862Y-68415296D01*
X126815532Y-68403565D01*
X126861888Y-68399000D01*
X127513112Y-68399000D01*
X127559468Y-68403565D01*
X127559468Y-68403565D01*
G37*
G36*
X131638500Y-69007250D02*
G01*
X130586500Y-69007250D01*
X130586500Y-67992750D01*
X131638500Y-67992750D01*
X131638500Y-69007250D01*
X131638500Y-69007250D01*
G37*
G36*
X149413500Y-69007250D02*
G01*
X148361500Y-69007250D01*
X148361500Y-67992750D01*
X149413500Y-67992750D01*
X149413500Y-69007250D01*
X149413500Y-69007250D01*
G37*
G36*
X116826000Y-68381000D02*
G01*
X116074000Y-68381000D01*
X116074000Y-67219000D01*
X116826000Y-67219000D01*
X116826000Y-68381000D01*
X116826000Y-68381000D01*
G37*
G36*
X114926000Y-68381000D02*
G01*
X114174000Y-68381000D01*
X114174000Y-67219000D01*
X114926000Y-67219000D01*
X114926000Y-68381000D01*
X114926000Y-68381000D01*
G37*
G36*
X131638500Y-67507250D02*
G01*
X130586500Y-67507250D01*
X130586500Y-66492750D01*
X131638500Y-66492750D01*
X131638500Y-67507250D01*
X131638500Y-67507250D01*
G37*
G36*
X149413500Y-67507250D02*
G01*
X148361500Y-67507250D01*
X148361500Y-66492750D01*
X149413500Y-66492750D01*
X149413500Y-67507250D01*
X149413500Y-67507250D01*
G37*
G36*
X125684468Y-65753565D02*
G01*
X125723138Y-65765296D01*
X125758777Y-65784346D01*
X125790017Y-65809983D01*
X125815654Y-65841223D01*
X125834704Y-65876862D01*
X125846435Y-65915532D01*
X125851000Y-65961888D01*
X125851000Y-67038112D01*
X125846435Y-67084468D01*
X125834704Y-67123138D01*
X125815654Y-67158777D01*
X125790017Y-67190017D01*
X125758777Y-67215654D01*
X125723138Y-67234704D01*
X125684468Y-67246435D01*
X125638112Y-67251000D01*
X124986888Y-67251000D01*
X124940532Y-67246435D01*
X124901862Y-67234704D01*
X124866223Y-67215654D01*
X124834983Y-67190017D01*
X124809346Y-67158777D01*
X124790296Y-67123138D01*
X124778565Y-67084468D01*
X124774000Y-67038112D01*
X124774000Y-65961888D01*
X124778565Y-65915532D01*
X124790296Y-65876862D01*
X124809346Y-65841223D01*
X124834983Y-65809983D01*
X124866223Y-65784346D01*
X124901862Y-65765296D01*
X124940532Y-65753565D01*
X124986888Y-65749000D01*
X125638112Y-65749000D01*
X125684468Y-65753565D01*
X125684468Y-65753565D01*
G37*
G36*
X127559468Y-65753565D02*
G01*
X127598138Y-65765296D01*
X127633777Y-65784346D01*
X127665017Y-65809983D01*
X127690654Y-65841223D01*
X127709704Y-65876862D01*
X127721435Y-65915532D01*
X127726000Y-65961888D01*
X127726000Y-67038112D01*
X127721435Y-67084468D01*
X127709704Y-67123138D01*
X127690654Y-67158777D01*
X127665017Y-67190017D01*
X127633777Y-67215654D01*
X127598138Y-67234704D01*
X127559468Y-67246435D01*
X127513112Y-67251000D01*
X126861888Y-67251000D01*
X126815532Y-67246435D01*
X126776862Y-67234704D01*
X126741223Y-67215654D01*
X126709983Y-67190017D01*
X126684346Y-67158777D01*
X126665296Y-67123138D01*
X126653565Y-67084468D01*
X126649000Y-67038112D01*
X126649000Y-65961888D01*
X126653565Y-65915532D01*
X126665296Y-65876862D01*
X126684346Y-65841223D01*
X126709983Y-65809983D01*
X126741223Y-65784346D01*
X126776862Y-65765296D01*
X126815532Y-65753565D01*
X126861888Y-65749000D01*
X127513112Y-65749000D01*
X127559468Y-65753565D01*
X127559468Y-65753565D01*
G37*
G36*
X116826000Y-66181000D02*
G01*
X114174000Y-66181000D01*
X114174000Y-65019000D01*
X116826000Y-65019000D01*
X116826000Y-66181000D01*
X116826000Y-66181000D01*
G37*
G36*
X131638500Y-66007250D02*
G01*
X130586500Y-66007250D01*
X130586500Y-64992750D01*
X131638500Y-64992750D01*
X131638500Y-66007250D01*
X131638500Y-66007250D01*
G37*
G36*
X149413500Y-66007250D02*
G01*
X148361500Y-66007250D01*
X148361500Y-64992750D01*
X149413500Y-64992750D01*
X149413500Y-66007250D01*
X149413500Y-66007250D01*
G37*
G36*
X125684468Y-63753565D02*
G01*
X125723138Y-63765296D01*
X125758777Y-63784346D01*
X125790017Y-63809983D01*
X125815654Y-63841223D01*
X125834704Y-63876862D01*
X125846435Y-63915532D01*
X125851000Y-63961888D01*
X125851000Y-65038112D01*
X125846435Y-65084468D01*
X125834704Y-65123138D01*
X125815654Y-65158777D01*
X125790017Y-65190017D01*
X125758777Y-65215654D01*
X125723138Y-65234704D01*
X125684468Y-65246435D01*
X125638112Y-65251000D01*
X124986888Y-65251000D01*
X124940532Y-65246435D01*
X124901862Y-65234704D01*
X124866223Y-65215654D01*
X124834983Y-65190017D01*
X124809346Y-65158777D01*
X124790296Y-65123138D01*
X124778565Y-65084468D01*
X124774000Y-65038112D01*
X124774000Y-63961888D01*
X124778565Y-63915532D01*
X124790296Y-63876862D01*
X124809346Y-63841223D01*
X124834983Y-63809983D01*
X124866223Y-63784346D01*
X124901862Y-63765296D01*
X124940532Y-63753565D01*
X124986888Y-63749000D01*
X125638112Y-63749000D01*
X125684468Y-63753565D01*
X125684468Y-63753565D01*
G37*
G36*
X127559468Y-63753565D02*
G01*
X127598138Y-63765296D01*
X127633777Y-63784346D01*
X127665017Y-63809983D01*
X127690654Y-63841223D01*
X127709704Y-63876862D01*
X127721435Y-63915532D01*
X127726000Y-63961888D01*
X127726000Y-65038112D01*
X127721435Y-65084468D01*
X127709704Y-65123138D01*
X127690654Y-65158777D01*
X127665017Y-65190017D01*
X127633777Y-65215654D01*
X127598138Y-65234704D01*
X127559468Y-65246435D01*
X127513112Y-65251000D01*
X126861888Y-65251000D01*
X126815532Y-65246435D01*
X126776862Y-65234704D01*
X126741223Y-65215654D01*
X126709983Y-65190017D01*
X126684346Y-65158777D01*
X126665296Y-65123138D01*
X126653565Y-65084468D01*
X126649000Y-65038112D01*
X126649000Y-63961888D01*
X126653565Y-63915532D01*
X126665296Y-63876862D01*
X126684346Y-63841223D01*
X126709983Y-63809983D01*
X126741223Y-63784346D01*
X126776862Y-63765296D01*
X126815532Y-63753565D01*
X126861888Y-63749000D01*
X127513112Y-63749000D01*
X127559468Y-63753565D01*
X127559468Y-63753565D01*
G37*
G36*
X149413500Y-64507250D02*
G01*
X148361500Y-64507250D01*
X148361500Y-63492750D01*
X149413500Y-63492750D01*
X149413500Y-64507250D01*
X149413500Y-64507250D01*
G37*
G36*
X131638500Y-64507250D02*
G01*
X130586500Y-64507250D01*
X130586500Y-63492750D01*
X131638500Y-63492750D01*
X131638500Y-64507250D01*
X131638500Y-64507250D01*
G37*
G36*
X116872468Y-62253565D02*
G01*
X116911138Y-62265296D01*
X116946777Y-62284346D01*
X116978017Y-62309983D01*
X117003654Y-62341223D01*
X117022704Y-62376862D01*
X117034435Y-62415532D01*
X117039000Y-62461888D01*
X117039000Y-63538112D01*
X117034435Y-63584468D01*
X117022704Y-63623138D01*
X117003654Y-63658777D01*
X116978017Y-63690017D01*
X116946777Y-63715654D01*
X116911138Y-63734704D01*
X116872468Y-63746435D01*
X116826112Y-63751000D01*
X116174888Y-63751000D01*
X116128532Y-63746435D01*
X116089862Y-63734704D01*
X116054223Y-63715654D01*
X116022983Y-63690017D01*
X115997346Y-63658777D01*
X115978296Y-63623138D01*
X115966565Y-63584468D01*
X115962000Y-63538112D01*
X115962000Y-62461888D01*
X115966565Y-62415532D01*
X115978296Y-62376862D01*
X115997346Y-62341223D01*
X116022983Y-62309983D01*
X116054223Y-62284346D01*
X116089862Y-62265296D01*
X116128532Y-62253565D01*
X116174888Y-62249000D01*
X116826112Y-62249000D01*
X116872468Y-62253565D01*
X116872468Y-62253565D01*
G37*
G36*
X118747468Y-62253565D02*
G01*
X118786138Y-62265296D01*
X118821777Y-62284346D01*
X118853017Y-62309983D01*
X118878654Y-62341223D01*
X118897704Y-62376862D01*
X118909435Y-62415532D01*
X118914000Y-62461888D01*
X118914000Y-63538112D01*
X118909435Y-63584468D01*
X118897704Y-63623138D01*
X118878654Y-63658777D01*
X118853017Y-63690017D01*
X118821777Y-63715654D01*
X118786138Y-63734704D01*
X118747468Y-63746435D01*
X118701112Y-63751000D01*
X118049888Y-63751000D01*
X118003532Y-63746435D01*
X117964862Y-63734704D01*
X117929223Y-63715654D01*
X117897983Y-63690017D01*
X117872346Y-63658777D01*
X117853296Y-63623138D01*
X117841565Y-63584468D01*
X117837000Y-63538112D01*
X117837000Y-62461888D01*
X117841565Y-62415532D01*
X117853296Y-62376862D01*
X117872346Y-62341223D01*
X117897983Y-62309983D01*
X117929223Y-62284346D01*
X117964862Y-62265296D01*
X118003532Y-62253565D01*
X118049888Y-62249000D01*
X118701112Y-62249000D01*
X118747468Y-62253565D01*
X118747468Y-62253565D01*
G37*
G36*
X70345680Y-58385415D02*
G01*
X70481579Y-58412447D01*
X70782042Y-58536903D01*
X71052451Y-58717585D01*
X71282415Y-58947549D01*
X71463097Y-59217958D01*
X71586204Y-59515164D01*
X71587553Y-59518422D01*
X71651000Y-59837389D01*
X71651000Y-60162611D01*
X71617823Y-60329401D01*
X71587553Y-60481579D01*
X71569787Y-60524469D01*
X71473824Y-60756146D01*
X71463097Y-60782042D01*
X71282415Y-61052451D01*
X71052451Y-61282415D01*
X70782042Y-61463097D01*
X70481579Y-61587553D01*
X70375256Y-61608702D01*
X70162611Y-61651000D01*
X69837389Y-61651000D01*
X69624744Y-61608702D01*
X69518421Y-61587553D01*
X69217958Y-61463097D01*
X68947549Y-61282415D01*
X68717585Y-61052451D01*
X68536903Y-60782042D01*
X68526177Y-60756146D01*
X68430213Y-60524469D01*
X68412447Y-60481579D01*
X68382177Y-60329401D01*
X68349000Y-60162611D01*
X68349000Y-59837389D01*
X68412447Y-59518422D01*
X68413797Y-59515164D01*
X68536903Y-59217958D01*
X68717585Y-58947549D01*
X68947549Y-58717585D01*
X69217958Y-58536903D01*
X69518421Y-58412447D01*
X69654320Y-58385415D01*
X69837389Y-58349000D01*
X70162611Y-58349000D01*
X70345680Y-58385415D01*
X70345680Y-58385415D01*
G37*
G36*
X160345680Y-58385415D02*
G01*
X160481579Y-58412447D01*
X160782042Y-58536903D01*
X161052451Y-58717585D01*
X161282415Y-58947549D01*
X161463097Y-59217958D01*
X161586204Y-59515164D01*
X161587553Y-59518422D01*
X161651000Y-59837389D01*
X161651000Y-60162611D01*
X161617823Y-60329401D01*
X161587553Y-60481579D01*
X161569787Y-60524469D01*
X161473824Y-60756146D01*
X161463097Y-60782042D01*
X161282415Y-61052451D01*
X161052451Y-61282415D01*
X160782042Y-61463097D01*
X160481579Y-61587553D01*
X160375256Y-61608702D01*
X160162611Y-61651000D01*
X159837389Y-61651000D01*
X159624744Y-61608702D01*
X159518421Y-61587553D01*
X159217958Y-61463097D01*
X158947549Y-61282415D01*
X158717585Y-61052451D01*
X158536903Y-60782042D01*
X158526177Y-60756146D01*
X158430213Y-60524469D01*
X158412447Y-60481579D01*
X158382177Y-60329401D01*
X158349000Y-60162611D01*
X158349000Y-59837389D01*
X158412447Y-59518422D01*
X158413797Y-59515164D01*
X158536903Y-59217958D01*
X158717585Y-58947549D01*
X158947549Y-58717585D01*
X159217958Y-58536903D01*
X159518421Y-58412447D01*
X159654320Y-58385415D01*
X159837389Y-58349000D01*
X160162611Y-58349000D01*
X160345680Y-58385415D01*
X160345680Y-58385415D01*
G37*
G36*
X102613928Y-59342764D02*
G01*
X102635009Y-59349160D01*
X102654445Y-59359548D01*
X102671476Y-59373524D01*
X102685452Y-59390555D01*
X102695840Y-59409991D01*
X102702236Y-59431072D01*
X102705000Y-59459140D01*
X102705000Y-60872860D01*
X102702236Y-60900928D01*
X102695840Y-60922009D01*
X102685452Y-60941445D01*
X102671476Y-60958476D01*
X102654445Y-60972452D01*
X102635009Y-60982840D01*
X102613928Y-60989236D01*
X102585860Y-60992000D01*
X102122140Y-60992000D01*
X102094072Y-60989236D01*
X102072991Y-60982840D01*
X102053555Y-60972452D01*
X102036524Y-60958476D01*
X102022548Y-60941445D01*
X102012160Y-60922009D01*
X102005764Y-60900928D01*
X102003000Y-60872860D01*
X102003000Y-59459140D01*
X102005764Y-59431072D01*
X102012160Y-59409991D01*
X102022548Y-59390555D01*
X102036524Y-59373524D01*
X102053555Y-59359548D01*
X102072991Y-59349160D01*
X102094072Y-59342764D01*
X102122140Y-59340000D01*
X102585860Y-59340000D01*
X102613928Y-59342764D01*
X102613928Y-59342764D01*
G37*
G36*
X101613928Y-59342764D02*
G01*
X101635009Y-59349160D01*
X101654445Y-59359548D01*
X101671476Y-59373524D01*
X101685452Y-59390555D01*
X101695840Y-59409991D01*
X101702236Y-59431072D01*
X101705000Y-59459140D01*
X101705000Y-60872860D01*
X101702236Y-60900928D01*
X101695840Y-60922009D01*
X101685452Y-60941445D01*
X101671476Y-60958476D01*
X101654445Y-60972452D01*
X101635009Y-60982840D01*
X101613928Y-60989236D01*
X101585860Y-60992000D01*
X101122140Y-60992000D01*
X101094072Y-60989236D01*
X101072991Y-60982840D01*
X101053555Y-60972452D01*
X101036524Y-60958476D01*
X101022548Y-60941445D01*
X101012160Y-60922009D01*
X101005764Y-60900928D01*
X101003000Y-60872860D01*
X101003000Y-59459140D01*
X101005764Y-59431072D01*
X101012160Y-59409991D01*
X101022548Y-59390555D01*
X101036524Y-59373524D01*
X101053555Y-59359548D01*
X101072991Y-59349160D01*
X101094072Y-59342764D01*
X101122140Y-59340000D01*
X101585860Y-59340000D01*
X101613928Y-59342764D01*
X101613928Y-59342764D01*
G37*
G36*
X104613928Y-59342764D02*
G01*
X104635009Y-59349160D01*
X104654445Y-59359548D01*
X104671476Y-59373524D01*
X104685452Y-59390555D01*
X104695840Y-59409991D01*
X104702236Y-59431072D01*
X104705000Y-59459140D01*
X104705000Y-60872860D01*
X104702236Y-60900928D01*
X104695840Y-60922009D01*
X104685452Y-60941445D01*
X104671476Y-60958476D01*
X104654445Y-60972452D01*
X104635009Y-60982840D01*
X104613928Y-60989236D01*
X104585860Y-60992000D01*
X104122140Y-60992000D01*
X104094072Y-60989236D01*
X104072991Y-60982840D01*
X104053555Y-60972452D01*
X104036524Y-60958476D01*
X104022548Y-60941445D01*
X104012160Y-60922009D01*
X104005764Y-60900928D01*
X104003000Y-60872860D01*
X104003000Y-59459140D01*
X104005764Y-59431072D01*
X104012160Y-59409991D01*
X104022548Y-59390555D01*
X104036524Y-59373524D01*
X104053555Y-59359548D01*
X104072991Y-59349160D01*
X104094072Y-59342764D01*
X104122140Y-59340000D01*
X104585860Y-59340000D01*
X104613928Y-59342764D01*
X104613928Y-59342764D01*
G37*
G36*
X100613928Y-59342764D02*
G01*
X100635009Y-59349160D01*
X100654445Y-59359548D01*
X100671476Y-59373524D01*
X100685452Y-59390555D01*
X100695840Y-59409991D01*
X100702236Y-59431072D01*
X100705000Y-59459140D01*
X100705000Y-60872860D01*
X100702236Y-60900928D01*
X100695840Y-60922009D01*
X100685452Y-60941445D01*
X100671476Y-60958476D01*
X100654445Y-60972452D01*
X100635009Y-60982840D01*
X100613928Y-60989236D01*
X100585860Y-60992000D01*
X100122140Y-60992000D01*
X100094072Y-60989236D01*
X100072991Y-60982840D01*
X100053555Y-60972452D01*
X100036524Y-60958476D01*
X100022548Y-60941445D01*
X100012160Y-60922009D01*
X100005764Y-60900928D01*
X100003000Y-60872860D01*
X100003000Y-59459140D01*
X100005764Y-59431072D01*
X100012160Y-59409991D01*
X100022548Y-59390555D01*
X100036524Y-59373524D01*
X100053555Y-59359548D01*
X100072991Y-59349160D01*
X100094072Y-59342764D01*
X100122140Y-59340000D01*
X100585860Y-59340000D01*
X100613928Y-59342764D01*
X100613928Y-59342764D01*
G37*
G36*
X103613928Y-59342764D02*
G01*
X103635009Y-59349160D01*
X103654445Y-59359548D01*
X103671476Y-59373524D01*
X103685452Y-59390555D01*
X103695840Y-59409991D01*
X103702236Y-59431072D01*
X103705000Y-59459140D01*
X103705000Y-60872860D01*
X103702236Y-60900928D01*
X103695840Y-60922009D01*
X103685452Y-60941445D01*
X103671476Y-60958476D01*
X103654445Y-60972452D01*
X103635009Y-60982840D01*
X103613928Y-60989236D01*
X103585860Y-60992000D01*
X103122140Y-60992000D01*
X103094072Y-60989236D01*
X103072991Y-60982840D01*
X103053555Y-60972452D01*
X103036524Y-60958476D01*
X103022548Y-60941445D01*
X103012160Y-60922009D01*
X103005764Y-60900928D01*
X103003000Y-60872860D01*
X103003000Y-59459140D01*
X103005764Y-59431072D01*
X103012160Y-59409991D01*
X103022548Y-59390555D01*
X103036524Y-59373524D01*
X103053555Y-59359548D01*
X103072991Y-59349160D01*
X103094072Y-59342764D01*
X103122140Y-59340000D01*
X103585860Y-59340000D01*
X103613928Y-59342764D01*
X103613928Y-59342764D01*
G37*
G36*
X99613928Y-59342764D02*
G01*
X99635009Y-59349160D01*
X99654445Y-59359548D01*
X99671476Y-59373524D01*
X99685452Y-59390555D01*
X99695840Y-59409991D01*
X99702236Y-59431072D01*
X99705000Y-59459140D01*
X99705000Y-60872860D01*
X99702236Y-60900928D01*
X99695840Y-60922009D01*
X99685452Y-60941445D01*
X99671476Y-60958476D01*
X99654445Y-60972452D01*
X99635009Y-60982840D01*
X99613928Y-60989236D01*
X99585860Y-60992000D01*
X99122140Y-60992000D01*
X99094072Y-60989236D01*
X99072991Y-60982840D01*
X99053555Y-60972452D01*
X99036524Y-60958476D01*
X99022548Y-60941445D01*
X99012160Y-60922009D01*
X99005764Y-60900928D01*
X99003000Y-60872860D01*
X99003000Y-59459140D01*
X99005764Y-59431072D01*
X99012160Y-59409991D01*
X99022548Y-59390555D01*
X99036524Y-59373524D01*
X99053555Y-59359548D01*
X99072991Y-59349160D01*
X99094072Y-59342764D01*
X99122140Y-59340000D01*
X99585860Y-59340000D01*
X99613928Y-59342764D01*
X99613928Y-59342764D01*
G37*
G36*
X118697715Y-58908058D02*
G01*
X118815722Y-58943855D01*
X118924468Y-59001981D01*
X119019790Y-59080210D01*
X119098019Y-59175532D01*
X119156145Y-59284278D01*
X119191942Y-59402285D01*
X119201000Y-59494254D01*
X119201000Y-60205746D01*
X119191942Y-60297715D01*
X119156145Y-60415722D01*
X119098019Y-60524468D01*
X119019790Y-60619790D01*
X118924468Y-60698019D01*
X118815721Y-60756145D01*
X118697714Y-60791942D01*
X118575000Y-60804028D01*
X118452285Y-60791942D01*
X118334278Y-60756145D01*
X118225532Y-60698019D01*
X118130210Y-60619790D01*
X118051981Y-60524468D01*
X117993855Y-60415721D01*
X117958058Y-60297714D01*
X117949000Y-60205745D01*
X117949000Y-59494254D01*
X117958058Y-59402285D01*
X117993855Y-59284279D01*
X118051982Y-59175532D01*
X118130211Y-59080210D01*
X118225533Y-59001981D01*
X118334279Y-58943855D01*
X118452286Y-58908058D01*
X118575000Y-58895972D01*
X118697715Y-58908058D01*
X118697715Y-58908058D01*
G37*
G36*
X111547715Y-58908058D02*
G01*
X111665722Y-58943855D01*
X111774468Y-59001981D01*
X111869790Y-59080210D01*
X111948019Y-59175532D01*
X112006145Y-59284278D01*
X112041942Y-59402285D01*
X112051000Y-59494254D01*
X112051000Y-60205746D01*
X112041942Y-60297715D01*
X112006145Y-60415722D01*
X111948019Y-60524468D01*
X111869790Y-60619790D01*
X111774468Y-60698019D01*
X111665721Y-60756145D01*
X111547714Y-60791942D01*
X111425000Y-60804028D01*
X111302285Y-60791942D01*
X111184278Y-60756145D01*
X111075532Y-60698019D01*
X110980210Y-60619790D01*
X110901981Y-60524468D01*
X110843855Y-60415721D01*
X110808058Y-60297714D01*
X110799000Y-60205745D01*
X110799000Y-59494254D01*
X110808058Y-59402285D01*
X110843855Y-59284279D01*
X110901982Y-59175532D01*
X110980211Y-59080210D01*
X111075533Y-59001981D01*
X111184279Y-58943855D01*
X111302286Y-58908058D01*
X111425000Y-58895972D01*
X111547715Y-58908058D01*
X111547715Y-58908058D01*
G37*
G36*
X124129591Y-59478085D02*
G01*
X124163569Y-59488393D01*
X124194890Y-59505134D01*
X124222339Y-59527661D01*
X124244866Y-59555110D01*
X124261607Y-59586431D01*
X124271915Y-59620409D01*
X124276000Y-59661890D01*
X124276000Y-60338110D01*
X124271915Y-60379591D01*
X124261607Y-60413569D01*
X124244866Y-60444890D01*
X124222339Y-60472339D01*
X124194890Y-60494866D01*
X124163569Y-60511607D01*
X124129591Y-60521915D01*
X124088110Y-60526000D01*
X123486890Y-60526000D01*
X123445409Y-60521915D01*
X123411431Y-60511607D01*
X123380110Y-60494866D01*
X123352661Y-60472339D01*
X123330134Y-60444890D01*
X123313393Y-60413569D01*
X123303085Y-60379591D01*
X123299000Y-60338110D01*
X123299000Y-59661890D01*
X123303085Y-59620409D01*
X123313393Y-59586431D01*
X123330134Y-59555110D01*
X123352661Y-59527661D01*
X123380110Y-59505134D01*
X123411431Y-59488393D01*
X123445409Y-59478085D01*
X123486890Y-59474000D01*
X124088110Y-59474000D01*
X124129591Y-59478085D01*
X124129591Y-59478085D01*
G37*
G36*
X122554591Y-59478085D02*
G01*
X122588569Y-59488393D01*
X122619890Y-59505134D01*
X122647339Y-59527661D01*
X122669866Y-59555110D01*
X122686607Y-59586431D01*
X122696915Y-59620409D01*
X122701000Y-59661890D01*
X122701000Y-60338110D01*
X122696915Y-60379591D01*
X122686607Y-60413569D01*
X122669866Y-60444890D01*
X122647339Y-60472339D01*
X122619890Y-60494866D01*
X122588569Y-60511607D01*
X122554591Y-60521915D01*
X122513110Y-60526000D01*
X121911890Y-60526000D01*
X121870409Y-60521915D01*
X121836431Y-60511607D01*
X121805110Y-60494866D01*
X121777661Y-60472339D01*
X121755134Y-60444890D01*
X121738393Y-60413569D01*
X121728085Y-60379591D01*
X121724000Y-60338110D01*
X121724000Y-59661890D01*
X121728085Y-59620409D01*
X121738393Y-59586431D01*
X121755134Y-59555110D01*
X121777661Y-59527661D01*
X121805110Y-59505134D01*
X121836431Y-59488393D01*
X121870409Y-59478085D01*
X121911890Y-59474000D01*
X122513110Y-59474000D01*
X122554591Y-59478085D01*
X122554591Y-59478085D01*
G37*
G36*
X113073710Y-58159440D02*
G01*
X113144585Y-58180940D01*
X113209904Y-58215854D01*
X113267159Y-58262841D01*
X113314146Y-58320096D01*
X113349060Y-58385415D01*
X113370560Y-58456290D01*
X113373511Y-58486254D01*
X113378292Y-58510287D01*
X113387669Y-58532926D01*
X113401283Y-58553300D01*
X113418610Y-58570627D01*
X113438985Y-58584241D01*
X113461624Y-58593618D01*
X113497908Y-58599000D01*
X116502092Y-58599000D01*
X116526478Y-58596598D01*
X116549927Y-58589485D01*
X116571538Y-58577934D01*
X116590480Y-58562389D01*
X116606025Y-58543447D01*
X116617576Y-58521836D01*
X116626489Y-58486254D01*
X116629440Y-58456290D01*
X116650940Y-58385415D01*
X116685854Y-58320096D01*
X116732841Y-58262841D01*
X116790096Y-58215854D01*
X116855415Y-58180940D01*
X116926290Y-58159440D01*
X116981528Y-58154000D01*
X117018472Y-58154000D01*
X117073710Y-58159440D01*
X117144585Y-58180940D01*
X117209904Y-58215854D01*
X117267159Y-58262841D01*
X117314146Y-58320096D01*
X117349060Y-58385415D01*
X117370560Y-58456290D01*
X117377819Y-58530000D01*
X117370560Y-58603710D01*
X117349060Y-58674585D01*
X117314146Y-58739904D01*
X117267159Y-58797159D01*
X117209904Y-58844146D01*
X117144585Y-58879060D01*
X117073710Y-58900560D01*
X117018472Y-58906000D01*
X116981528Y-58906000D01*
X116926290Y-58900560D01*
X116855415Y-58879060D01*
X116790096Y-58844146D01*
X116755297Y-58815588D01*
X116734922Y-58801974D01*
X116712283Y-58792597D01*
X116688250Y-58787817D01*
X116663746Y-58787817D01*
X116639713Y-58792598D01*
X116617074Y-58801975D01*
X116596700Y-58815589D01*
X116579373Y-58832916D01*
X116565759Y-58853291D01*
X116556382Y-58875930D01*
X116551000Y-58912214D01*
X116551000Y-60101000D01*
X113449000Y-60101000D01*
X113449000Y-58912214D01*
X113446598Y-58887828D01*
X113439485Y-58864379D01*
X113427934Y-58842768D01*
X113412389Y-58823826D01*
X113393447Y-58808281D01*
X113371836Y-58796730D01*
X113348387Y-58789617D01*
X113324001Y-58787215D01*
X113299615Y-58789617D01*
X113276166Y-58796730D01*
X113244703Y-58815588D01*
X113209904Y-58844146D01*
X113144585Y-58879060D01*
X113073710Y-58900560D01*
X113018472Y-58906000D01*
X112981528Y-58906000D01*
X112926290Y-58900560D01*
X112855415Y-58879060D01*
X112790096Y-58844146D01*
X112732841Y-58797159D01*
X112685854Y-58739904D01*
X112650940Y-58674585D01*
X112629440Y-58603710D01*
X112622181Y-58530000D01*
X112629440Y-58456290D01*
X112650940Y-58385415D01*
X112685854Y-58320096D01*
X112732841Y-58262841D01*
X112790096Y-58215854D01*
X112855415Y-58180940D01*
X112926290Y-58159440D01*
X112981528Y-58154000D01*
X113018472Y-58154000D01*
X113073710Y-58159440D01*
X113073710Y-58159440D01*
G37*
G36*
X118697715Y-55458058D02*
G01*
X118815722Y-55493855D01*
X118924468Y-55551981D01*
X119019790Y-55630210D01*
X119098019Y-55725532D01*
X119156145Y-55834278D01*
X119191942Y-55952285D01*
X119201000Y-56044254D01*
X119201000Y-56755746D01*
X119191942Y-56847715D01*
X119156145Y-56965722D01*
X119098019Y-57074468D01*
X119019790Y-57169790D01*
X118924468Y-57248019D01*
X118815721Y-57306145D01*
X118697714Y-57341942D01*
X118575000Y-57354028D01*
X118452285Y-57341942D01*
X118334278Y-57306145D01*
X118225532Y-57248019D01*
X118130210Y-57169790D01*
X118051981Y-57074468D01*
X117993855Y-56965721D01*
X117958058Y-56847714D01*
X117949000Y-56755745D01*
X117949000Y-56044254D01*
X117958058Y-55952285D01*
X117993855Y-55834279D01*
X118051982Y-55725532D01*
X118130211Y-55630210D01*
X118225533Y-55551981D01*
X118334279Y-55493855D01*
X118452286Y-55458058D01*
X118575000Y-55445972D01*
X118697715Y-55458058D01*
X118697715Y-55458058D01*
G37*
G36*
X111547715Y-55458058D02*
G01*
X111665722Y-55493855D01*
X111774468Y-55551981D01*
X111869790Y-55630210D01*
X111948019Y-55725532D01*
X112006145Y-55834278D01*
X112041942Y-55952285D01*
X112051000Y-56044254D01*
X112051000Y-56755746D01*
X112041942Y-56847715D01*
X112006145Y-56965722D01*
X111948019Y-57074468D01*
X111869790Y-57169790D01*
X111774468Y-57248019D01*
X111665721Y-57306145D01*
X111547714Y-57341942D01*
X111425000Y-57354028D01*
X111302285Y-57341942D01*
X111184278Y-57306145D01*
X111075532Y-57248019D01*
X110980210Y-57169790D01*
X110901981Y-57074468D01*
X110843855Y-56965721D01*
X110808058Y-56847714D01*
X110799000Y-56755745D01*
X110799000Y-56044254D01*
X110808058Y-55952285D01*
X110843855Y-55834279D01*
X110901982Y-55725532D01*
X110980211Y-55630210D01*
X111075533Y-55551981D01*
X111184279Y-55493855D01*
X111302286Y-55458058D01*
X111425000Y-55445972D01*
X111547715Y-55458058D01*
X111547715Y-55458058D01*
G37*
G36*
X106145656Y-55344394D02*
G01*
X106182656Y-55355618D01*
X106216748Y-55373840D01*
X106246634Y-55398366D01*
X106271160Y-55428252D01*
X106289382Y-55462344D01*
X106300606Y-55499344D01*
X106305000Y-55543956D01*
X106305000Y-57038044D01*
X106300606Y-57082656D01*
X106289382Y-57119656D01*
X106271160Y-57153748D01*
X106246634Y-57183634D01*
X106216748Y-57208160D01*
X106182656Y-57226382D01*
X106145656Y-57237606D01*
X106101044Y-57242000D01*
X105206956Y-57242000D01*
X105162344Y-57237606D01*
X105125344Y-57226382D01*
X105091252Y-57208160D01*
X105061366Y-57183634D01*
X105036840Y-57153748D01*
X105018618Y-57119656D01*
X105007394Y-57082656D01*
X105003000Y-57038044D01*
X105003000Y-55543956D01*
X105007394Y-55499344D01*
X105018618Y-55462344D01*
X105036840Y-55428252D01*
X105061366Y-55398366D01*
X105091252Y-55373840D01*
X105125344Y-55355618D01*
X105162344Y-55344394D01*
X105206956Y-55340000D01*
X106101044Y-55340000D01*
X106145656Y-55344394D01*
X106145656Y-55344394D01*
G37*
G36*
X98545656Y-55344394D02*
G01*
X98582656Y-55355618D01*
X98616748Y-55373840D01*
X98646634Y-55398366D01*
X98671160Y-55428252D01*
X98689382Y-55462344D01*
X98700606Y-55499344D01*
X98705000Y-55543956D01*
X98705000Y-57038044D01*
X98700606Y-57082656D01*
X98689382Y-57119656D01*
X98671160Y-57153748D01*
X98646634Y-57183634D01*
X98616748Y-57208160D01*
X98582656Y-57226382D01*
X98545656Y-57237606D01*
X98501044Y-57242000D01*
X97606956Y-57242000D01*
X97562344Y-57237606D01*
X97525344Y-57226382D01*
X97491252Y-57208160D01*
X97461366Y-57183634D01*
X97436840Y-57153748D01*
X97418618Y-57119656D01*
X97407394Y-57082656D01*
X97403000Y-57038044D01*
X97403000Y-55543956D01*
X97407394Y-55499344D01*
X97418618Y-55462344D01*
X97436840Y-55428252D01*
X97461366Y-55398366D01*
X97491252Y-55373840D01*
X97525344Y-55355618D01*
X97562344Y-55344394D01*
X97606956Y-55340000D01*
X98501044Y-55340000D01*
X98545656Y-55344394D01*
X98545656Y-55344394D01*
G37*
M02*
