G04 #@! TF.GenerationSoftware,KiCad,Pcbnew,(5.1.0)-1*
G04 #@! TF.CreationDate,2019-03-21T13:59:10+09:00*
G04 #@! TF.ProjectId,LrE-6,4c72452d-362e-46b6-9963-61645f706362,rev?*
G04 #@! TF.SameCoordinates,Original*
G04 #@! TF.FileFunction,Soldermask,Top*
G04 #@! TF.FilePolarity,Negative*
%FSLAX46Y46*%
G04 Gerber Fmt 4.6, Leading zero omitted, Abs format (unit mm)*
G04 Created by KiCad (PCBNEW (5.1.0)-1) date 2019-03-21 13:59:10*
%MOMM*%
%LPD*%
G04 APERTURE LIST*
%ADD10C,0.100000*%
G04 APERTURE END LIST*
D10*
G36*
X160375256Y-148391298D02*
G01*
X160481579Y-148412447D01*
X160782042Y-148536903D01*
X161052451Y-148717585D01*
X161282415Y-148947549D01*
X161463097Y-149217958D01*
X161587553Y-149518421D01*
X161651000Y-149837391D01*
X161651000Y-150162609D01*
X161587553Y-150481579D01*
X161463097Y-150782042D01*
X161282415Y-151052451D01*
X161052451Y-151282415D01*
X160782042Y-151463097D01*
X160481579Y-151587553D01*
X160375256Y-151608702D01*
X160162611Y-151651000D01*
X159837389Y-151651000D01*
X159624744Y-151608702D01*
X159518421Y-151587553D01*
X159217958Y-151463097D01*
X158947549Y-151282415D01*
X158717585Y-151052451D01*
X158536903Y-150782042D01*
X158412447Y-150481579D01*
X158349000Y-150162609D01*
X158349000Y-149837391D01*
X158412447Y-149518421D01*
X158536903Y-149217958D01*
X158717585Y-148947549D01*
X158947549Y-148717585D01*
X159217958Y-148536903D01*
X159518421Y-148412447D01*
X159624744Y-148391298D01*
X159837389Y-148349000D01*
X160162611Y-148349000D01*
X160375256Y-148391298D01*
X160375256Y-148391298D01*
G37*
G36*
X70375256Y-148391298D02*
G01*
X70481579Y-148412447D01*
X70782042Y-148536903D01*
X71052451Y-148717585D01*
X71282415Y-148947549D01*
X71463097Y-149217958D01*
X71587553Y-149518421D01*
X71651000Y-149837391D01*
X71651000Y-150162609D01*
X71587553Y-150481579D01*
X71463097Y-150782042D01*
X71282415Y-151052451D01*
X71052451Y-151282415D01*
X70782042Y-151463097D01*
X70481579Y-151587553D01*
X70375256Y-151608702D01*
X70162611Y-151651000D01*
X69837389Y-151651000D01*
X69624744Y-151608702D01*
X69518421Y-151587553D01*
X69217958Y-151463097D01*
X68947549Y-151282415D01*
X68717585Y-151052451D01*
X68536903Y-150782042D01*
X68412447Y-150481579D01*
X68349000Y-150162609D01*
X68349000Y-149837391D01*
X68412447Y-149518421D01*
X68536903Y-149217958D01*
X68717585Y-148947549D01*
X68947549Y-148717585D01*
X69217958Y-148536903D01*
X69518421Y-148412447D01*
X69624744Y-148391298D01*
X69837389Y-148349000D01*
X70162611Y-148349000D01*
X70375256Y-148391298D01*
X70375256Y-148391298D01*
G37*
G36*
X90306564Y-143489389D02*
G01*
X90497833Y-143568615D01*
X90497835Y-143568616D01*
X90669973Y-143683635D01*
X90816365Y-143830027D01*
X90931385Y-144002167D01*
X91010611Y-144193436D01*
X91051000Y-144396484D01*
X91051000Y-144603516D01*
X91010611Y-144806564D01*
X90931385Y-144997833D01*
X90931384Y-144997835D01*
X90816365Y-145169973D01*
X90669973Y-145316365D01*
X90497835Y-145431384D01*
X90497834Y-145431385D01*
X90497833Y-145431385D01*
X90306564Y-145510611D01*
X90103516Y-145551000D01*
X89896484Y-145551000D01*
X89693436Y-145510611D01*
X89502167Y-145431385D01*
X89502166Y-145431385D01*
X89502165Y-145431384D01*
X89330027Y-145316365D01*
X89183635Y-145169973D01*
X89068616Y-144997835D01*
X89068615Y-144997833D01*
X88989389Y-144806564D01*
X88949000Y-144603516D01*
X88949000Y-144396484D01*
X88989389Y-144193436D01*
X89068615Y-144002167D01*
X89183635Y-143830027D01*
X89330027Y-143683635D01*
X89502165Y-143568616D01*
X89502167Y-143568615D01*
X89693436Y-143489389D01*
X89896484Y-143449000D01*
X90103516Y-143449000D01*
X90306564Y-143489389D01*
X90306564Y-143489389D01*
G37*
G36*
X96806564Y-143489389D02*
G01*
X96997833Y-143568615D01*
X96997835Y-143568616D01*
X97169973Y-143683635D01*
X97316365Y-143830027D01*
X97431385Y-144002167D01*
X97510611Y-144193436D01*
X97551000Y-144396484D01*
X97551000Y-144603516D01*
X97510611Y-144806564D01*
X97431385Y-144997833D01*
X97431384Y-144997835D01*
X97316365Y-145169973D01*
X97169973Y-145316365D01*
X96997835Y-145431384D01*
X96997834Y-145431385D01*
X96997833Y-145431385D01*
X96806564Y-145510611D01*
X96603516Y-145551000D01*
X96396484Y-145551000D01*
X96193436Y-145510611D01*
X96002167Y-145431385D01*
X96002166Y-145431385D01*
X96002165Y-145431384D01*
X95830027Y-145316365D01*
X95683635Y-145169973D01*
X95568616Y-144997835D01*
X95568615Y-144997833D01*
X95489389Y-144806564D01*
X95449000Y-144603516D01*
X95449000Y-144396484D01*
X95489389Y-144193436D01*
X95568615Y-144002167D01*
X95683635Y-143830027D01*
X95830027Y-143683635D01*
X96002165Y-143568616D01*
X96002167Y-143568615D01*
X96193436Y-143489389D01*
X96396484Y-143449000D01*
X96603516Y-143449000D01*
X96806564Y-143489389D01*
X96806564Y-143489389D01*
G37*
G36*
X126806564Y-143489389D02*
G01*
X126997833Y-143568615D01*
X126997835Y-143568616D01*
X127169973Y-143683635D01*
X127316365Y-143830027D01*
X127431385Y-144002167D01*
X127510611Y-144193436D01*
X127551000Y-144396484D01*
X127551000Y-144603516D01*
X127510611Y-144806564D01*
X127431385Y-144997833D01*
X127431384Y-144997835D01*
X127316365Y-145169973D01*
X127169973Y-145316365D01*
X126997835Y-145431384D01*
X126997834Y-145431385D01*
X126997833Y-145431385D01*
X126806564Y-145510611D01*
X126603516Y-145551000D01*
X126396484Y-145551000D01*
X126193436Y-145510611D01*
X126002167Y-145431385D01*
X126002166Y-145431385D01*
X126002165Y-145431384D01*
X125830027Y-145316365D01*
X125683635Y-145169973D01*
X125568616Y-144997835D01*
X125568615Y-144997833D01*
X125489389Y-144806564D01*
X125449000Y-144603516D01*
X125449000Y-144396484D01*
X125489389Y-144193436D01*
X125568615Y-144002167D01*
X125683635Y-143830027D01*
X125830027Y-143683635D01*
X126002165Y-143568616D01*
X126002167Y-143568615D01*
X126193436Y-143489389D01*
X126396484Y-143449000D01*
X126603516Y-143449000D01*
X126806564Y-143489389D01*
X126806564Y-143489389D01*
G37*
G36*
X120306564Y-143489389D02*
G01*
X120497833Y-143568615D01*
X120497835Y-143568616D01*
X120669973Y-143683635D01*
X120816365Y-143830027D01*
X120931385Y-144002167D01*
X121010611Y-144193436D01*
X121051000Y-144396484D01*
X121051000Y-144603516D01*
X121010611Y-144806564D01*
X120931385Y-144997833D01*
X120931384Y-144997835D01*
X120816365Y-145169973D01*
X120669973Y-145316365D01*
X120497835Y-145431384D01*
X120497834Y-145431385D01*
X120497833Y-145431385D01*
X120306564Y-145510611D01*
X120103516Y-145551000D01*
X119896484Y-145551000D01*
X119693436Y-145510611D01*
X119502167Y-145431385D01*
X119502166Y-145431385D01*
X119502165Y-145431384D01*
X119330027Y-145316365D01*
X119183635Y-145169973D01*
X119068616Y-144997835D01*
X119068615Y-144997833D01*
X118989389Y-144806564D01*
X118949000Y-144603516D01*
X118949000Y-144396484D01*
X118989389Y-144193436D01*
X119068615Y-144002167D01*
X119183635Y-143830027D01*
X119330027Y-143683635D01*
X119502165Y-143568616D01*
X119502167Y-143568615D01*
X119693436Y-143489389D01*
X119896484Y-143449000D01*
X120103516Y-143449000D01*
X120306564Y-143489389D01*
X120306564Y-143489389D01*
G37*
G36*
X135306564Y-143489389D02*
G01*
X135497833Y-143568615D01*
X135497835Y-143568616D01*
X135669973Y-143683635D01*
X135816365Y-143830027D01*
X135931385Y-144002167D01*
X136010611Y-144193436D01*
X136051000Y-144396484D01*
X136051000Y-144603516D01*
X136010611Y-144806564D01*
X135931385Y-144997833D01*
X135931384Y-144997835D01*
X135816365Y-145169973D01*
X135669973Y-145316365D01*
X135497835Y-145431384D01*
X135497834Y-145431385D01*
X135497833Y-145431385D01*
X135306564Y-145510611D01*
X135103516Y-145551000D01*
X134896484Y-145551000D01*
X134693436Y-145510611D01*
X134502167Y-145431385D01*
X134502166Y-145431385D01*
X134502165Y-145431384D01*
X134330027Y-145316365D01*
X134183635Y-145169973D01*
X134068616Y-144997835D01*
X134068615Y-144997833D01*
X133989389Y-144806564D01*
X133949000Y-144603516D01*
X133949000Y-144396484D01*
X133989389Y-144193436D01*
X134068615Y-144002167D01*
X134183635Y-143830027D01*
X134330027Y-143683635D01*
X134502165Y-143568616D01*
X134502167Y-143568615D01*
X134693436Y-143489389D01*
X134896484Y-143449000D01*
X135103516Y-143449000D01*
X135306564Y-143489389D01*
X135306564Y-143489389D01*
G37*
G36*
X141806564Y-143489389D02*
G01*
X141997833Y-143568615D01*
X141997835Y-143568616D01*
X142169973Y-143683635D01*
X142316365Y-143830027D01*
X142431385Y-144002167D01*
X142510611Y-144193436D01*
X142551000Y-144396484D01*
X142551000Y-144603516D01*
X142510611Y-144806564D01*
X142431385Y-144997833D01*
X142431384Y-144997835D01*
X142316365Y-145169973D01*
X142169973Y-145316365D01*
X141997835Y-145431384D01*
X141997834Y-145431385D01*
X141997833Y-145431385D01*
X141806564Y-145510611D01*
X141603516Y-145551000D01*
X141396484Y-145551000D01*
X141193436Y-145510611D01*
X141002167Y-145431385D01*
X141002166Y-145431385D01*
X141002165Y-145431384D01*
X140830027Y-145316365D01*
X140683635Y-145169973D01*
X140568616Y-144997835D01*
X140568615Y-144997833D01*
X140489389Y-144806564D01*
X140449000Y-144603516D01*
X140449000Y-144396484D01*
X140489389Y-144193436D01*
X140568615Y-144002167D01*
X140683635Y-143830027D01*
X140830027Y-143683635D01*
X141002165Y-143568616D01*
X141002167Y-143568615D01*
X141193436Y-143489389D01*
X141396484Y-143449000D01*
X141603516Y-143449000D01*
X141806564Y-143489389D01*
X141806564Y-143489389D01*
G37*
G36*
X156806564Y-143489389D02*
G01*
X156997833Y-143568615D01*
X156997835Y-143568616D01*
X157169973Y-143683635D01*
X157316365Y-143830027D01*
X157431385Y-144002167D01*
X157510611Y-144193436D01*
X157551000Y-144396484D01*
X157551000Y-144603516D01*
X157510611Y-144806564D01*
X157431385Y-144997833D01*
X157431384Y-144997835D01*
X157316365Y-145169973D01*
X157169973Y-145316365D01*
X156997835Y-145431384D01*
X156997834Y-145431385D01*
X156997833Y-145431385D01*
X156806564Y-145510611D01*
X156603516Y-145551000D01*
X156396484Y-145551000D01*
X156193436Y-145510611D01*
X156002167Y-145431385D01*
X156002166Y-145431385D01*
X156002165Y-145431384D01*
X155830027Y-145316365D01*
X155683635Y-145169973D01*
X155568616Y-144997835D01*
X155568615Y-144997833D01*
X155489389Y-144806564D01*
X155449000Y-144603516D01*
X155449000Y-144396484D01*
X155489389Y-144193436D01*
X155568615Y-144002167D01*
X155683635Y-143830027D01*
X155830027Y-143683635D01*
X156002165Y-143568616D01*
X156002167Y-143568615D01*
X156193436Y-143489389D01*
X156396484Y-143449000D01*
X156603516Y-143449000D01*
X156806564Y-143489389D01*
X156806564Y-143489389D01*
G37*
G36*
X150306564Y-143489389D02*
G01*
X150497833Y-143568615D01*
X150497835Y-143568616D01*
X150669973Y-143683635D01*
X150816365Y-143830027D01*
X150931385Y-144002167D01*
X151010611Y-144193436D01*
X151051000Y-144396484D01*
X151051000Y-144603516D01*
X151010611Y-144806564D01*
X150931385Y-144997833D01*
X150931384Y-144997835D01*
X150816365Y-145169973D01*
X150669973Y-145316365D01*
X150497835Y-145431384D01*
X150497834Y-145431385D01*
X150497833Y-145431385D01*
X150306564Y-145510611D01*
X150103516Y-145551000D01*
X149896484Y-145551000D01*
X149693436Y-145510611D01*
X149502167Y-145431385D01*
X149502166Y-145431385D01*
X149502165Y-145431384D01*
X149330027Y-145316365D01*
X149183635Y-145169973D01*
X149068616Y-144997835D01*
X149068615Y-144997833D01*
X148989389Y-144806564D01*
X148949000Y-144603516D01*
X148949000Y-144396484D01*
X148989389Y-144193436D01*
X149068615Y-144002167D01*
X149183635Y-143830027D01*
X149330027Y-143683635D01*
X149502165Y-143568616D01*
X149502167Y-143568615D01*
X149693436Y-143489389D01*
X149896484Y-143449000D01*
X150103516Y-143449000D01*
X150306564Y-143489389D01*
X150306564Y-143489389D01*
G37*
G36*
X111806564Y-143489389D02*
G01*
X111997833Y-143568615D01*
X111997835Y-143568616D01*
X112169973Y-143683635D01*
X112316365Y-143830027D01*
X112431385Y-144002167D01*
X112510611Y-144193436D01*
X112551000Y-144396484D01*
X112551000Y-144603516D01*
X112510611Y-144806564D01*
X112431385Y-144997833D01*
X112431384Y-144997835D01*
X112316365Y-145169973D01*
X112169973Y-145316365D01*
X111997835Y-145431384D01*
X111997834Y-145431385D01*
X111997833Y-145431385D01*
X111806564Y-145510611D01*
X111603516Y-145551000D01*
X111396484Y-145551000D01*
X111193436Y-145510611D01*
X111002167Y-145431385D01*
X111002166Y-145431385D01*
X111002165Y-145431384D01*
X110830027Y-145316365D01*
X110683635Y-145169973D01*
X110568616Y-144997835D01*
X110568615Y-144997833D01*
X110489389Y-144806564D01*
X110449000Y-144603516D01*
X110449000Y-144396484D01*
X110489389Y-144193436D01*
X110568615Y-144002167D01*
X110683635Y-143830027D01*
X110830027Y-143683635D01*
X111002165Y-143568616D01*
X111002167Y-143568615D01*
X111193436Y-143489389D01*
X111396484Y-143449000D01*
X111603516Y-143449000D01*
X111806564Y-143489389D01*
X111806564Y-143489389D01*
G37*
G36*
X105306564Y-143489389D02*
G01*
X105497833Y-143568615D01*
X105497835Y-143568616D01*
X105669973Y-143683635D01*
X105816365Y-143830027D01*
X105931385Y-144002167D01*
X106010611Y-144193436D01*
X106051000Y-144396484D01*
X106051000Y-144603516D01*
X106010611Y-144806564D01*
X105931385Y-144997833D01*
X105931384Y-144997835D01*
X105816365Y-145169973D01*
X105669973Y-145316365D01*
X105497835Y-145431384D01*
X105497834Y-145431385D01*
X105497833Y-145431385D01*
X105306564Y-145510611D01*
X105103516Y-145551000D01*
X104896484Y-145551000D01*
X104693436Y-145510611D01*
X104502167Y-145431385D01*
X104502166Y-145431385D01*
X104502165Y-145431384D01*
X104330027Y-145316365D01*
X104183635Y-145169973D01*
X104068616Y-144997835D01*
X104068615Y-144997833D01*
X103989389Y-144806564D01*
X103949000Y-144603516D01*
X103949000Y-144396484D01*
X103989389Y-144193436D01*
X104068615Y-144002167D01*
X104183635Y-143830027D01*
X104330027Y-143683635D01*
X104502165Y-143568616D01*
X104502167Y-143568615D01*
X104693436Y-143489389D01*
X104896484Y-143449000D01*
X105103516Y-143449000D01*
X105306564Y-143489389D01*
X105306564Y-143489389D01*
G37*
G36*
X156806564Y-138989389D02*
G01*
X156997833Y-139068615D01*
X156997835Y-139068616D01*
X157169973Y-139183635D01*
X157316365Y-139330027D01*
X157431385Y-139502167D01*
X157510611Y-139693436D01*
X157551000Y-139896484D01*
X157551000Y-140103516D01*
X157510611Y-140306564D01*
X157431385Y-140497833D01*
X157431384Y-140497835D01*
X157316365Y-140669973D01*
X157169973Y-140816365D01*
X156997835Y-140931384D01*
X156997834Y-140931385D01*
X156997833Y-140931385D01*
X156806564Y-141010611D01*
X156603516Y-141051000D01*
X156396484Y-141051000D01*
X156193436Y-141010611D01*
X156002167Y-140931385D01*
X156002166Y-140931385D01*
X156002165Y-140931384D01*
X155830027Y-140816365D01*
X155683635Y-140669973D01*
X155568616Y-140497835D01*
X155568615Y-140497833D01*
X155489389Y-140306564D01*
X155449000Y-140103516D01*
X155449000Y-139896484D01*
X155489389Y-139693436D01*
X155568615Y-139502167D01*
X155683635Y-139330027D01*
X155830027Y-139183635D01*
X156002165Y-139068616D01*
X156002167Y-139068615D01*
X156193436Y-138989389D01*
X156396484Y-138949000D01*
X156603516Y-138949000D01*
X156806564Y-138989389D01*
X156806564Y-138989389D01*
G37*
G36*
X126806564Y-138989389D02*
G01*
X126997833Y-139068615D01*
X126997835Y-139068616D01*
X127169973Y-139183635D01*
X127316365Y-139330027D01*
X127431385Y-139502167D01*
X127510611Y-139693436D01*
X127551000Y-139896484D01*
X127551000Y-140103516D01*
X127510611Y-140306564D01*
X127431385Y-140497833D01*
X127431384Y-140497835D01*
X127316365Y-140669973D01*
X127169973Y-140816365D01*
X126997835Y-140931384D01*
X126997834Y-140931385D01*
X126997833Y-140931385D01*
X126806564Y-141010611D01*
X126603516Y-141051000D01*
X126396484Y-141051000D01*
X126193436Y-141010611D01*
X126002167Y-140931385D01*
X126002166Y-140931385D01*
X126002165Y-140931384D01*
X125830027Y-140816365D01*
X125683635Y-140669973D01*
X125568616Y-140497835D01*
X125568615Y-140497833D01*
X125489389Y-140306564D01*
X125449000Y-140103516D01*
X125449000Y-139896484D01*
X125489389Y-139693436D01*
X125568615Y-139502167D01*
X125683635Y-139330027D01*
X125830027Y-139183635D01*
X126002165Y-139068616D01*
X126002167Y-139068615D01*
X126193436Y-138989389D01*
X126396484Y-138949000D01*
X126603516Y-138949000D01*
X126806564Y-138989389D01*
X126806564Y-138989389D01*
G37*
G36*
X120306564Y-138989389D02*
G01*
X120497833Y-139068615D01*
X120497835Y-139068616D01*
X120669973Y-139183635D01*
X120816365Y-139330027D01*
X120931385Y-139502167D01*
X121010611Y-139693436D01*
X121051000Y-139896484D01*
X121051000Y-140103516D01*
X121010611Y-140306564D01*
X120931385Y-140497833D01*
X120931384Y-140497835D01*
X120816365Y-140669973D01*
X120669973Y-140816365D01*
X120497835Y-140931384D01*
X120497834Y-140931385D01*
X120497833Y-140931385D01*
X120306564Y-141010611D01*
X120103516Y-141051000D01*
X119896484Y-141051000D01*
X119693436Y-141010611D01*
X119502167Y-140931385D01*
X119502166Y-140931385D01*
X119502165Y-140931384D01*
X119330027Y-140816365D01*
X119183635Y-140669973D01*
X119068616Y-140497835D01*
X119068615Y-140497833D01*
X118989389Y-140306564D01*
X118949000Y-140103516D01*
X118949000Y-139896484D01*
X118989389Y-139693436D01*
X119068615Y-139502167D01*
X119183635Y-139330027D01*
X119330027Y-139183635D01*
X119502165Y-139068616D01*
X119502167Y-139068615D01*
X119693436Y-138989389D01*
X119896484Y-138949000D01*
X120103516Y-138949000D01*
X120306564Y-138989389D01*
X120306564Y-138989389D01*
G37*
G36*
X96806564Y-138989389D02*
G01*
X96997833Y-139068615D01*
X96997835Y-139068616D01*
X97169973Y-139183635D01*
X97316365Y-139330027D01*
X97431385Y-139502167D01*
X97510611Y-139693436D01*
X97551000Y-139896484D01*
X97551000Y-140103516D01*
X97510611Y-140306564D01*
X97431385Y-140497833D01*
X97431384Y-140497835D01*
X97316365Y-140669973D01*
X97169973Y-140816365D01*
X96997835Y-140931384D01*
X96997834Y-140931385D01*
X96997833Y-140931385D01*
X96806564Y-141010611D01*
X96603516Y-141051000D01*
X96396484Y-141051000D01*
X96193436Y-141010611D01*
X96002167Y-140931385D01*
X96002166Y-140931385D01*
X96002165Y-140931384D01*
X95830027Y-140816365D01*
X95683635Y-140669973D01*
X95568616Y-140497835D01*
X95568615Y-140497833D01*
X95489389Y-140306564D01*
X95449000Y-140103516D01*
X95449000Y-139896484D01*
X95489389Y-139693436D01*
X95568615Y-139502167D01*
X95683635Y-139330027D01*
X95830027Y-139183635D01*
X96002165Y-139068616D01*
X96002167Y-139068615D01*
X96193436Y-138989389D01*
X96396484Y-138949000D01*
X96603516Y-138949000D01*
X96806564Y-138989389D01*
X96806564Y-138989389D01*
G37*
G36*
X90306564Y-138989389D02*
G01*
X90497833Y-139068615D01*
X90497835Y-139068616D01*
X90669973Y-139183635D01*
X90816365Y-139330027D01*
X90931385Y-139502167D01*
X91010611Y-139693436D01*
X91051000Y-139896484D01*
X91051000Y-140103516D01*
X91010611Y-140306564D01*
X90931385Y-140497833D01*
X90931384Y-140497835D01*
X90816365Y-140669973D01*
X90669973Y-140816365D01*
X90497835Y-140931384D01*
X90497834Y-140931385D01*
X90497833Y-140931385D01*
X90306564Y-141010611D01*
X90103516Y-141051000D01*
X89896484Y-141051000D01*
X89693436Y-141010611D01*
X89502167Y-140931385D01*
X89502166Y-140931385D01*
X89502165Y-140931384D01*
X89330027Y-140816365D01*
X89183635Y-140669973D01*
X89068616Y-140497835D01*
X89068615Y-140497833D01*
X88989389Y-140306564D01*
X88949000Y-140103516D01*
X88949000Y-139896484D01*
X88989389Y-139693436D01*
X89068615Y-139502167D01*
X89183635Y-139330027D01*
X89330027Y-139183635D01*
X89502165Y-139068616D01*
X89502167Y-139068615D01*
X89693436Y-138989389D01*
X89896484Y-138949000D01*
X90103516Y-138949000D01*
X90306564Y-138989389D01*
X90306564Y-138989389D01*
G37*
G36*
X105306564Y-138989389D02*
G01*
X105497833Y-139068615D01*
X105497835Y-139068616D01*
X105669973Y-139183635D01*
X105816365Y-139330027D01*
X105931385Y-139502167D01*
X106010611Y-139693436D01*
X106051000Y-139896484D01*
X106051000Y-140103516D01*
X106010611Y-140306564D01*
X105931385Y-140497833D01*
X105931384Y-140497835D01*
X105816365Y-140669973D01*
X105669973Y-140816365D01*
X105497835Y-140931384D01*
X105497834Y-140931385D01*
X105497833Y-140931385D01*
X105306564Y-141010611D01*
X105103516Y-141051000D01*
X104896484Y-141051000D01*
X104693436Y-141010611D01*
X104502167Y-140931385D01*
X104502166Y-140931385D01*
X104502165Y-140931384D01*
X104330027Y-140816365D01*
X104183635Y-140669973D01*
X104068616Y-140497835D01*
X104068615Y-140497833D01*
X103989389Y-140306564D01*
X103949000Y-140103516D01*
X103949000Y-139896484D01*
X103989389Y-139693436D01*
X104068615Y-139502167D01*
X104183635Y-139330027D01*
X104330027Y-139183635D01*
X104502165Y-139068616D01*
X104502167Y-139068615D01*
X104693436Y-138989389D01*
X104896484Y-138949000D01*
X105103516Y-138949000D01*
X105306564Y-138989389D01*
X105306564Y-138989389D01*
G37*
G36*
X111806564Y-138989389D02*
G01*
X111997833Y-139068615D01*
X111997835Y-139068616D01*
X112169973Y-139183635D01*
X112316365Y-139330027D01*
X112431385Y-139502167D01*
X112510611Y-139693436D01*
X112551000Y-139896484D01*
X112551000Y-140103516D01*
X112510611Y-140306564D01*
X112431385Y-140497833D01*
X112431384Y-140497835D01*
X112316365Y-140669973D01*
X112169973Y-140816365D01*
X111997835Y-140931384D01*
X111997834Y-140931385D01*
X111997833Y-140931385D01*
X111806564Y-141010611D01*
X111603516Y-141051000D01*
X111396484Y-141051000D01*
X111193436Y-141010611D01*
X111002167Y-140931385D01*
X111002166Y-140931385D01*
X111002165Y-140931384D01*
X110830027Y-140816365D01*
X110683635Y-140669973D01*
X110568616Y-140497835D01*
X110568615Y-140497833D01*
X110489389Y-140306564D01*
X110449000Y-140103516D01*
X110449000Y-139896484D01*
X110489389Y-139693436D01*
X110568615Y-139502167D01*
X110683635Y-139330027D01*
X110830027Y-139183635D01*
X111002165Y-139068616D01*
X111002167Y-139068615D01*
X111193436Y-138989389D01*
X111396484Y-138949000D01*
X111603516Y-138949000D01*
X111806564Y-138989389D01*
X111806564Y-138989389D01*
G37*
G36*
X135306564Y-138989389D02*
G01*
X135497833Y-139068615D01*
X135497835Y-139068616D01*
X135669973Y-139183635D01*
X135816365Y-139330027D01*
X135931385Y-139502167D01*
X136010611Y-139693436D01*
X136051000Y-139896484D01*
X136051000Y-140103516D01*
X136010611Y-140306564D01*
X135931385Y-140497833D01*
X135931384Y-140497835D01*
X135816365Y-140669973D01*
X135669973Y-140816365D01*
X135497835Y-140931384D01*
X135497834Y-140931385D01*
X135497833Y-140931385D01*
X135306564Y-141010611D01*
X135103516Y-141051000D01*
X134896484Y-141051000D01*
X134693436Y-141010611D01*
X134502167Y-140931385D01*
X134502166Y-140931385D01*
X134502165Y-140931384D01*
X134330027Y-140816365D01*
X134183635Y-140669973D01*
X134068616Y-140497835D01*
X134068615Y-140497833D01*
X133989389Y-140306564D01*
X133949000Y-140103516D01*
X133949000Y-139896484D01*
X133989389Y-139693436D01*
X134068615Y-139502167D01*
X134183635Y-139330027D01*
X134330027Y-139183635D01*
X134502165Y-139068616D01*
X134502167Y-139068615D01*
X134693436Y-138989389D01*
X134896484Y-138949000D01*
X135103516Y-138949000D01*
X135306564Y-138989389D01*
X135306564Y-138989389D01*
G37*
G36*
X141806564Y-138989389D02*
G01*
X141997833Y-139068615D01*
X141997835Y-139068616D01*
X142169973Y-139183635D01*
X142316365Y-139330027D01*
X142431385Y-139502167D01*
X142510611Y-139693436D01*
X142551000Y-139896484D01*
X142551000Y-140103516D01*
X142510611Y-140306564D01*
X142431385Y-140497833D01*
X142431384Y-140497835D01*
X142316365Y-140669973D01*
X142169973Y-140816365D01*
X141997835Y-140931384D01*
X141997834Y-140931385D01*
X141997833Y-140931385D01*
X141806564Y-141010611D01*
X141603516Y-141051000D01*
X141396484Y-141051000D01*
X141193436Y-141010611D01*
X141002167Y-140931385D01*
X141002166Y-140931385D01*
X141002165Y-140931384D01*
X140830027Y-140816365D01*
X140683635Y-140669973D01*
X140568616Y-140497835D01*
X140568615Y-140497833D01*
X140489389Y-140306564D01*
X140449000Y-140103516D01*
X140449000Y-139896484D01*
X140489389Y-139693436D01*
X140568615Y-139502167D01*
X140683635Y-139330027D01*
X140830027Y-139183635D01*
X141002165Y-139068616D01*
X141002167Y-139068615D01*
X141193436Y-138989389D01*
X141396484Y-138949000D01*
X141603516Y-138949000D01*
X141806564Y-138989389D01*
X141806564Y-138989389D01*
G37*
G36*
X77806564Y-138989389D02*
G01*
X77997833Y-139068615D01*
X77997835Y-139068616D01*
X78169973Y-139183635D01*
X78316365Y-139330027D01*
X78431385Y-139502167D01*
X78510611Y-139693436D01*
X78551000Y-139896484D01*
X78551000Y-140103516D01*
X78510611Y-140306564D01*
X78431385Y-140497833D01*
X78431384Y-140497835D01*
X78316365Y-140669973D01*
X78169973Y-140816365D01*
X77997835Y-140931384D01*
X77997834Y-140931385D01*
X77997833Y-140931385D01*
X77806564Y-141010611D01*
X77603516Y-141051000D01*
X77396484Y-141051000D01*
X77193436Y-141010611D01*
X77002167Y-140931385D01*
X77002166Y-140931385D01*
X77002165Y-140931384D01*
X76830027Y-140816365D01*
X76683635Y-140669973D01*
X76568616Y-140497835D01*
X76568615Y-140497833D01*
X76489389Y-140306564D01*
X76449000Y-140103516D01*
X76449000Y-139896484D01*
X76489389Y-139693436D01*
X76568615Y-139502167D01*
X76683635Y-139330027D01*
X76830027Y-139183635D01*
X77002165Y-139068616D01*
X77002167Y-139068615D01*
X77193436Y-138989389D01*
X77396484Y-138949000D01*
X77603516Y-138949000D01*
X77806564Y-138989389D01*
X77806564Y-138989389D01*
G37*
G36*
X75306564Y-138989389D02*
G01*
X75497833Y-139068615D01*
X75497835Y-139068616D01*
X75669973Y-139183635D01*
X75816365Y-139330027D01*
X75931385Y-139502167D01*
X76010611Y-139693436D01*
X76051000Y-139896484D01*
X76051000Y-140103516D01*
X76010611Y-140306564D01*
X75931385Y-140497833D01*
X75931384Y-140497835D01*
X75816365Y-140669973D01*
X75669973Y-140816365D01*
X75497835Y-140931384D01*
X75497834Y-140931385D01*
X75497833Y-140931385D01*
X75306564Y-141010611D01*
X75103516Y-141051000D01*
X74896484Y-141051000D01*
X74693436Y-141010611D01*
X74502167Y-140931385D01*
X74502166Y-140931385D01*
X74502165Y-140931384D01*
X74330027Y-140816365D01*
X74183635Y-140669973D01*
X74068616Y-140497835D01*
X74068615Y-140497833D01*
X73989389Y-140306564D01*
X73949000Y-140103516D01*
X73949000Y-139896484D01*
X73989389Y-139693436D01*
X74068615Y-139502167D01*
X74183635Y-139330027D01*
X74330027Y-139183635D01*
X74502165Y-139068616D01*
X74502167Y-139068615D01*
X74693436Y-138989389D01*
X74896484Y-138949000D01*
X75103516Y-138949000D01*
X75306564Y-138989389D01*
X75306564Y-138989389D01*
G37*
G36*
X73551000Y-141051000D02*
G01*
X71449000Y-141051000D01*
X71449000Y-138949000D01*
X73551000Y-138949000D01*
X73551000Y-141051000D01*
X73551000Y-141051000D01*
G37*
G36*
X150306564Y-138989389D02*
G01*
X150497833Y-139068615D01*
X150497835Y-139068616D01*
X150669973Y-139183635D01*
X150816365Y-139330027D01*
X150931385Y-139502167D01*
X151010611Y-139693436D01*
X151051000Y-139896484D01*
X151051000Y-140103516D01*
X151010611Y-140306564D01*
X150931385Y-140497833D01*
X150931384Y-140497835D01*
X150816365Y-140669973D01*
X150669973Y-140816365D01*
X150497835Y-140931384D01*
X150497834Y-140931385D01*
X150497833Y-140931385D01*
X150306564Y-141010611D01*
X150103516Y-141051000D01*
X149896484Y-141051000D01*
X149693436Y-141010611D01*
X149502167Y-140931385D01*
X149502166Y-140931385D01*
X149502165Y-140931384D01*
X149330027Y-140816365D01*
X149183635Y-140669973D01*
X149068616Y-140497835D01*
X149068615Y-140497833D01*
X148989389Y-140306564D01*
X148949000Y-140103516D01*
X148949000Y-139896484D01*
X148989389Y-139693436D01*
X149068615Y-139502167D01*
X149183635Y-139330027D01*
X149330027Y-139183635D01*
X149502165Y-139068616D01*
X149502167Y-139068615D01*
X149693436Y-138989389D01*
X149896484Y-138949000D01*
X150103516Y-138949000D01*
X150306564Y-138989389D01*
X150306564Y-138989389D01*
G37*
G36*
X81651000Y-134151000D02*
G01*
X79549000Y-134151000D01*
X79549000Y-130849000D01*
X81651000Y-130849000D01*
X81651000Y-134151000D01*
X81651000Y-134151000D01*
G37*
G36*
X70451000Y-134151000D02*
G01*
X68349000Y-134151000D01*
X68349000Y-130849000D01*
X70451000Y-130849000D01*
X70451000Y-134151000D01*
X70451000Y-134151000D01*
G37*
G36*
X96806564Y-128489389D02*
G01*
X96997833Y-128568615D01*
X96997835Y-128568616D01*
X97169973Y-128683635D01*
X97316365Y-128830027D01*
X97431385Y-129002167D01*
X97510611Y-129193436D01*
X97551000Y-129396484D01*
X97551000Y-129603516D01*
X97510611Y-129806564D01*
X97431385Y-129997833D01*
X97431384Y-129997835D01*
X97316365Y-130169973D01*
X97169973Y-130316365D01*
X96997835Y-130431384D01*
X96997834Y-130431385D01*
X96997833Y-130431385D01*
X96806564Y-130510611D01*
X96603516Y-130551000D01*
X96396484Y-130551000D01*
X96193436Y-130510611D01*
X96002167Y-130431385D01*
X96002166Y-130431385D01*
X96002165Y-130431384D01*
X95830027Y-130316365D01*
X95683635Y-130169973D01*
X95568616Y-129997835D01*
X95568615Y-129997833D01*
X95489389Y-129806564D01*
X95449000Y-129603516D01*
X95449000Y-129396484D01*
X95489389Y-129193436D01*
X95568615Y-129002167D01*
X95683635Y-128830027D01*
X95830027Y-128683635D01*
X96002165Y-128568616D01*
X96002167Y-128568615D01*
X96193436Y-128489389D01*
X96396484Y-128449000D01*
X96603516Y-128449000D01*
X96806564Y-128489389D01*
X96806564Y-128489389D01*
G37*
G36*
X156806564Y-128489389D02*
G01*
X156997833Y-128568615D01*
X156997835Y-128568616D01*
X157169973Y-128683635D01*
X157316365Y-128830027D01*
X157431385Y-129002167D01*
X157510611Y-129193436D01*
X157551000Y-129396484D01*
X157551000Y-129603516D01*
X157510611Y-129806564D01*
X157431385Y-129997833D01*
X157431384Y-129997835D01*
X157316365Y-130169973D01*
X157169973Y-130316365D01*
X156997835Y-130431384D01*
X156997834Y-130431385D01*
X156997833Y-130431385D01*
X156806564Y-130510611D01*
X156603516Y-130551000D01*
X156396484Y-130551000D01*
X156193436Y-130510611D01*
X156002167Y-130431385D01*
X156002166Y-130431385D01*
X156002165Y-130431384D01*
X155830027Y-130316365D01*
X155683635Y-130169973D01*
X155568616Y-129997835D01*
X155568615Y-129997833D01*
X155489389Y-129806564D01*
X155449000Y-129603516D01*
X155449000Y-129396484D01*
X155489389Y-129193436D01*
X155568615Y-129002167D01*
X155683635Y-128830027D01*
X155830027Y-128683635D01*
X156002165Y-128568616D01*
X156002167Y-128568615D01*
X156193436Y-128489389D01*
X156396484Y-128449000D01*
X156603516Y-128449000D01*
X156806564Y-128489389D01*
X156806564Y-128489389D01*
G37*
G36*
X141806564Y-128489389D02*
G01*
X141997833Y-128568615D01*
X141997835Y-128568616D01*
X142169973Y-128683635D01*
X142316365Y-128830027D01*
X142431385Y-129002167D01*
X142510611Y-129193436D01*
X142551000Y-129396484D01*
X142551000Y-129603516D01*
X142510611Y-129806564D01*
X142431385Y-129997833D01*
X142431384Y-129997835D01*
X142316365Y-130169973D01*
X142169973Y-130316365D01*
X141997835Y-130431384D01*
X141997834Y-130431385D01*
X141997833Y-130431385D01*
X141806564Y-130510611D01*
X141603516Y-130551000D01*
X141396484Y-130551000D01*
X141193436Y-130510611D01*
X141002167Y-130431385D01*
X141002166Y-130431385D01*
X141002165Y-130431384D01*
X140830027Y-130316365D01*
X140683635Y-130169973D01*
X140568616Y-129997835D01*
X140568615Y-129997833D01*
X140489389Y-129806564D01*
X140449000Y-129603516D01*
X140449000Y-129396484D01*
X140489389Y-129193436D01*
X140568615Y-129002167D01*
X140683635Y-128830027D01*
X140830027Y-128683635D01*
X141002165Y-128568616D01*
X141002167Y-128568615D01*
X141193436Y-128489389D01*
X141396484Y-128449000D01*
X141603516Y-128449000D01*
X141806564Y-128489389D01*
X141806564Y-128489389D01*
G37*
G36*
X135306564Y-128489389D02*
G01*
X135497833Y-128568615D01*
X135497835Y-128568616D01*
X135669973Y-128683635D01*
X135816365Y-128830027D01*
X135931385Y-129002167D01*
X136010611Y-129193436D01*
X136051000Y-129396484D01*
X136051000Y-129603516D01*
X136010611Y-129806564D01*
X135931385Y-129997833D01*
X135931384Y-129997835D01*
X135816365Y-130169973D01*
X135669973Y-130316365D01*
X135497835Y-130431384D01*
X135497834Y-130431385D01*
X135497833Y-130431385D01*
X135306564Y-130510611D01*
X135103516Y-130551000D01*
X134896484Y-130551000D01*
X134693436Y-130510611D01*
X134502167Y-130431385D01*
X134502166Y-130431385D01*
X134502165Y-130431384D01*
X134330027Y-130316365D01*
X134183635Y-130169973D01*
X134068616Y-129997835D01*
X134068615Y-129997833D01*
X133989389Y-129806564D01*
X133949000Y-129603516D01*
X133949000Y-129396484D01*
X133989389Y-129193436D01*
X134068615Y-129002167D01*
X134183635Y-128830027D01*
X134330027Y-128683635D01*
X134502165Y-128568616D01*
X134502167Y-128568615D01*
X134693436Y-128489389D01*
X134896484Y-128449000D01*
X135103516Y-128449000D01*
X135306564Y-128489389D01*
X135306564Y-128489389D01*
G37*
G36*
X120306564Y-128489389D02*
G01*
X120497833Y-128568615D01*
X120497835Y-128568616D01*
X120669973Y-128683635D01*
X120816365Y-128830027D01*
X120931385Y-129002167D01*
X121010611Y-129193436D01*
X121051000Y-129396484D01*
X121051000Y-129603516D01*
X121010611Y-129806564D01*
X120931385Y-129997833D01*
X120931384Y-129997835D01*
X120816365Y-130169973D01*
X120669973Y-130316365D01*
X120497835Y-130431384D01*
X120497834Y-130431385D01*
X120497833Y-130431385D01*
X120306564Y-130510611D01*
X120103516Y-130551000D01*
X119896484Y-130551000D01*
X119693436Y-130510611D01*
X119502167Y-130431385D01*
X119502166Y-130431385D01*
X119502165Y-130431384D01*
X119330027Y-130316365D01*
X119183635Y-130169973D01*
X119068616Y-129997835D01*
X119068615Y-129997833D01*
X118989389Y-129806564D01*
X118949000Y-129603516D01*
X118949000Y-129396484D01*
X118989389Y-129193436D01*
X119068615Y-129002167D01*
X119183635Y-128830027D01*
X119330027Y-128683635D01*
X119502165Y-128568616D01*
X119502167Y-128568615D01*
X119693436Y-128489389D01*
X119896484Y-128449000D01*
X120103516Y-128449000D01*
X120306564Y-128489389D01*
X120306564Y-128489389D01*
G37*
G36*
X111806564Y-128489389D02*
G01*
X111997833Y-128568615D01*
X111997835Y-128568616D01*
X112169973Y-128683635D01*
X112316365Y-128830027D01*
X112431385Y-129002167D01*
X112510611Y-129193436D01*
X112551000Y-129396484D01*
X112551000Y-129603516D01*
X112510611Y-129806564D01*
X112431385Y-129997833D01*
X112431384Y-129997835D01*
X112316365Y-130169973D01*
X112169973Y-130316365D01*
X111997835Y-130431384D01*
X111997834Y-130431385D01*
X111997833Y-130431385D01*
X111806564Y-130510611D01*
X111603516Y-130551000D01*
X111396484Y-130551000D01*
X111193436Y-130510611D01*
X111002167Y-130431385D01*
X111002166Y-130431385D01*
X111002165Y-130431384D01*
X110830027Y-130316365D01*
X110683635Y-130169973D01*
X110568616Y-129997835D01*
X110568615Y-129997833D01*
X110489389Y-129806564D01*
X110449000Y-129603516D01*
X110449000Y-129396484D01*
X110489389Y-129193436D01*
X110568615Y-129002167D01*
X110683635Y-128830027D01*
X110830027Y-128683635D01*
X111002165Y-128568616D01*
X111002167Y-128568615D01*
X111193436Y-128489389D01*
X111396484Y-128449000D01*
X111603516Y-128449000D01*
X111806564Y-128489389D01*
X111806564Y-128489389D01*
G37*
G36*
X105306564Y-128489389D02*
G01*
X105497833Y-128568615D01*
X105497835Y-128568616D01*
X105669973Y-128683635D01*
X105816365Y-128830027D01*
X105931385Y-129002167D01*
X106010611Y-129193436D01*
X106051000Y-129396484D01*
X106051000Y-129603516D01*
X106010611Y-129806564D01*
X105931385Y-129997833D01*
X105931384Y-129997835D01*
X105816365Y-130169973D01*
X105669973Y-130316365D01*
X105497835Y-130431384D01*
X105497834Y-130431385D01*
X105497833Y-130431385D01*
X105306564Y-130510611D01*
X105103516Y-130551000D01*
X104896484Y-130551000D01*
X104693436Y-130510611D01*
X104502167Y-130431385D01*
X104502166Y-130431385D01*
X104502165Y-130431384D01*
X104330027Y-130316365D01*
X104183635Y-130169973D01*
X104068616Y-129997835D01*
X104068615Y-129997833D01*
X103989389Y-129806564D01*
X103949000Y-129603516D01*
X103949000Y-129396484D01*
X103989389Y-129193436D01*
X104068615Y-129002167D01*
X104183635Y-128830027D01*
X104330027Y-128683635D01*
X104502165Y-128568616D01*
X104502167Y-128568615D01*
X104693436Y-128489389D01*
X104896484Y-128449000D01*
X105103516Y-128449000D01*
X105306564Y-128489389D01*
X105306564Y-128489389D01*
G37*
G36*
X90306564Y-128489389D02*
G01*
X90497833Y-128568615D01*
X90497835Y-128568616D01*
X90669973Y-128683635D01*
X90816365Y-128830027D01*
X90931385Y-129002167D01*
X91010611Y-129193436D01*
X91051000Y-129396484D01*
X91051000Y-129603516D01*
X91010611Y-129806564D01*
X90931385Y-129997833D01*
X90931384Y-129997835D01*
X90816365Y-130169973D01*
X90669973Y-130316365D01*
X90497835Y-130431384D01*
X90497834Y-130431385D01*
X90497833Y-130431385D01*
X90306564Y-130510611D01*
X90103516Y-130551000D01*
X89896484Y-130551000D01*
X89693436Y-130510611D01*
X89502167Y-130431385D01*
X89502166Y-130431385D01*
X89502165Y-130431384D01*
X89330027Y-130316365D01*
X89183635Y-130169973D01*
X89068616Y-129997835D01*
X89068615Y-129997833D01*
X88989389Y-129806564D01*
X88949000Y-129603516D01*
X88949000Y-129396484D01*
X88989389Y-129193436D01*
X89068615Y-129002167D01*
X89183635Y-128830027D01*
X89330027Y-128683635D01*
X89502165Y-128568616D01*
X89502167Y-128568615D01*
X89693436Y-128489389D01*
X89896484Y-128449000D01*
X90103516Y-128449000D01*
X90306564Y-128489389D01*
X90306564Y-128489389D01*
G37*
G36*
X150306564Y-128489389D02*
G01*
X150497833Y-128568615D01*
X150497835Y-128568616D01*
X150669973Y-128683635D01*
X150816365Y-128830027D01*
X150931385Y-129002167D01*
X151010611Y-129193436D01*
X151051000Y-129396484D01*
X151051000Y-129603516D01*
X151010611Y-129806564D01*
X150931385Y-129997833D01*
X150931384Y-129997835D01*
X150816365Y-130169973D01*
X150669973Y-130316365D01*
X150497835Y-130431384D01*
X150497834Y-130431385D01*
X150497833Y-130431385D01*
X150306564Y-130510611D01*
X150103516Y-130551000D01*
X149896484Y-130551000D01*
X149693436Y-130510611D01*
X149502167Y-130431385D01*
X149502166Y-130431385D01*
X149502165Y-130431384D01*
X149330027Y-130316365D01*
X149183635Y-130169973D01*
X149068616Y-129997835D01*
X149068615Y-129997833D01*
X148989389Y-129806564D01*
X148949000Y-129603516D01*
X148949000Y-129396484D01*
X148989389Y-129193436D01*
X149068615Y-129002167D01*
X149183635Y-128830027D01*
X149330027Y-128683635D01*
X149502165Y-128568616D01*
X149502167Y-128568615D01*
X149693436Y-128489389D01*
X149896484Y-128449000D01*
X150103516Y-128449000D01*
X150306564Y-128489389D01*
X150306564Y-128489389D01*
G37*
G36*
X126806564Y-128489389D02*
G01*
X126997833Y-128568615D01*
X126997835Y-128568616D01*
X127169973Y-128683635D01*
X127316365Y-128830027D01*
X127431385Y-129002167D01*
X127510611Y-129193436D01*
X127551000Y-129396484D01*
X127551000Y-129603516D01*
X127510611Y-129806564D01*
X127431385Y-129997833D01*
X127431384Y-129997835D01*
X127316365Y-130169973D01*
X127169973Y-130316365D01*
X126997835Y-130431384D01*
X126997834Y-130431385D01*
X126997833Y-130431385D01*
X126806564Y-130510611D01*
X126603516Y-130551000D01*
X126396484Y-130551000D01*
X126193436Y-130510611D01*
X126002167Y-130431385D01*
X126002166Y-130431385D01*
X126002165Y-130431384D01*
X125830027Y-130316365D01*
X125683635Y-130169973D01*
X125568616Y-129997835D01*
X125568615Y-129997833D01*
X125489389Y-129806564D01*
X125449000Y-129603516D01*
X125449000Y-129396484D01*
X125489389Y-129193436D01*
X125568615Y-129002167D01*
X125683635Y-128830027D01*
X125830027Y-128683635D01*
X126002165Y-128568616D01*
X126002167Y-128568615D01*
X126193436Y-128489389D01*
X126396484Y-128449000D01*
X126603516Y-128449000D01*
X126806564Y-128489389D01*
X126806564Y-128489389D01*
G37*
G36*
X77806564Y-124489389D02*
G01*
X77997833Y-124568615D01*
X77997835Y-124568616D01*
X78169973Y-124683635D01*
X78316365Y-124830027D01*
X78360772Y-124896486D01*
X78431385Y-125002167D01*
X78510611Y-125193436D01*
X78551000Y-125396484D01*
X78551000Y-125603516D01*
X78510611Y-125806564D01*
X78431385Y-125997833D01*
X78431384Y-125997835D01*
X78316365Y-126169973D01*
X78169973Y-126316365D01*
X77997835Y-126431384D01*
X77997834Y-126431385D01*
X77997833Y-126431385D01*
X77806564Y-126510611D01*
X77603516Y-126551000D01*
X77396484Y-126551000D01*
X77193436Y-126510611D01*
X77002167Y-126431385D01*
X77002166Y-126431385D01*
X77002165Y-126431384D01*
X76830027Y-126316365D01*
X76683635Y-126169973D01*
X76568616Y-125997835D01*
X76568615Y-125997833D01*
X76489389Y-125806564D01*
X76449000Y-125603516D01*
X76449000Y-125396484D01*
X76489389Y-125193436D01*
X76568615Y-125002167D01*
X76639229Y-124896486D01*
X76683635Y-124830027D01*
X76830027Y-124683635D01*
X77002165Y-124568616D01*
X77002167Y-124568615D01*
X77193436Y-124489389D01*
X77396484Y-124449000D01*
X77603516Y-124449000D01*
X77806564Y-124489389D01*
X77806564Y-124489389D01*
G37*
G36*
X72806564Y-124489389D02*
G01*
X72997833Y-124568615D01*
X72997835Y-124568616D01*
X73169973Y-124683635D01*
X73316365Y-124830027D01*
X73360772Y-124896486D01*
X73431385Y-125002167D01*
X73510611Y-125193436D01*
X73551000Y-125396484D01*
X73551000Y-125603516D01*
X73510611Y-125806564D01*
X73431385Y-125997833D01*
X73431384Y-125997835D01*
X73316365Y-126169973D01*
X73169973Y-126316365D01*
X72997835Y-126431384D01*
X72997834Y-126431385D01*
X72997833Y-126431385D01*
X72806564Y-126510611D01*
X72603516Y-126551000D01*
X72396484Y-126551000D01*
X72193436Y-126510611D01*
X72002167Y-126431385D01*
X72002166Y-126431385D01*
X72002165Y-126431384D01*
X71830027Y-126316365D01*
X71683635Y-126169973D01*
X71568616Y-125997835D01*
X71568615Y-125997833D01*
X71489389Y-125806564D01*
X71449000Y-125603516D01*
X71449000Y-125396484D01*
X71489389Y-125193436D01*
X71568615Y-125002167D01*
X71639229Y-124896486D01*
X71683635Y-124830027D01*
X71830027Y-124683635D01*
X72002165Y-124568616D01*
X72002167Y-124568615D01*
X72193436Y-124489389D01*
X72396484Y-124449000D01*
X72603516Y-124449000D01*
X72806564Y-124489389D01*
X72806564Y-124489389D01*
G37*
G36*
X141806564Y-123989389D02*
G01*
X141997833Y-124068615D01*
X141997835Y-124068616D01*
X142169973Y-124183635D01*
X142316365Y-124330027D01*
X142431385Y-124502167D01*
X142510611Y-124693436D01*
X142551000Y-124896484D01*
X142551000Y-125103516D01*
X142510611Y-125306564D01*
X142473365Y-125396484D01*
X142431384Y-125497835D01*
X142316365Y-125669973D01*
X142169973Y-125816365D01*
X141997835Y-125931384D01*
X141997834Y-125931385D01*
X141997833Y-125931385D01*
X141806564Y-126010611D01*
X141603516Y-126051000D01*
X141396484Y-126051000D01*
X141193436Y-126010611D01*
X141002167Y-125931385D01*
X141002166Y-125931385D01*
X141002165Y-125931384D01*
X140830027Y-125816365D01*
X140683635Y-125669973D01*
X140568616Y-125497835D01*
X140526635Y-125396484D01*
X140489389Y-125306564D01*
X140449000Y-125103516D01*
X140449000Y-124896484D01*
X140489389Y-124693436D01*
X140568615Y-124502167D01*
X140683635Y-124330027D01*
X140830027Y-124183635D01*
X141002165Y-124068616D01*
X141002167Y-124068615D01*
X141193436Y-123989389D01*
X141396484Y-123949000D01*
X141603516Y-123949000D01*
X141806564Y-123989389D01*
X141806564Y-123989389D01*
G37*
G36*
X90306564Y-123989389D02*
G01*
X90497833Y-124068615D01*
X90497835Y-124068616D01*
X90669973Y-124183635D01*
X90816365Y-124330027D01*
X90931385Y-124502167D01*
X91010611Y-124693436D01*
X91051000Y-124896484D01*
X91051000Y-125103516D01*
X91010611Y-125306564D01*
X90973365Y-125396484D01*
X90931384Y-125497835D01*
X90816365Y-125669973D01*
X90669973Y-125816365D01*
X90497835Y-125931384D01*
X90497834Y-125931385D01*
X90497833Y-125931385D01*
X90306564Y-126010611D01*
X90103516Y-126051000D01*
X89896484Y-126051000D01*
X89693436Y-126010611D01*
X89502167Y-125931385D01*
X89502166Y-125931385D01*
X89502165Y-125931384D01*
X89330027Y-125816365D01*
X89183635Y-125669973D01*
X89068616Y-125497835D01*
X89026635Y-125396484D01*
X88989389Y-125306564D01*
X88949000Y-125103516D01*
X88949000Y-124896484D01*
X88989389Y-124693436D01*
X89068615Y-124502167D01*
X89183635Y-124330027D01*
X89330027Y-124183635D01*
X89502165Y-124068616D01*
X89502167Y-124068615D01*
X89693436Y-123989389D01*
X89896484Y-123949000D01*
X90103516Y-123949000D01*
X90306564Y-123989389D01*
X90306564Y-123989389D01*
G37*
G36*
X96806564Y-123989389D02*
G01*
X96997833Y-124068615D01*
X96997835Y-124068616D01*
X97169973Y-124183635D01*
X97316365Y-124330027D01*
X97431385Y-124502167D01*
X97510611Y-124693436D01*
X97551000Y-124896484D01*
X97551000Y-125103516D01*
X97510611Y-125306564D01*
X97473365Y-125396484D01*
X97431384Y-125497835D01*
X97316365Y-125669973D01*
X97169973Y-125816365D01*
X96997835Y-125931384D01*
X96997834Y-125931385D01*
X96997833Y-125931385D01*
X96806564Y-126010611D01*
X96603516Y-126051000D01*
X96396484Y-126051000D01*
X96193436Y-126010611D01*
X96002167Y-125931385D01*
X96002166Y-125931385D01*
X96002165Y-125931384D01*
X95830027Y-125816365D01*
X95683635Y-125669973D01*
X95568616Y-125497835D01*
X95526635Y-125396484D01*
X95489389Y-125306564D01*
X95449000Y-125103516D01*
X95449000Y-124896484D01*
X95489389Y-124693436D01*
X95568615Y-124502167D01*
X95683635Y-124330027D01*
X95830027Y-124183635D01*
X96002165Y-124068616D01*
X96002167Y-124068615D01*
X96193436Y-123989389D01*
X96396484Y-123949000D01*
X96603516Y-123949000D01*
X96806564Y-123989389D01*
X96806564Y-123989389D01*
G37*
G36*
X105306564Y-123989389D02*
G01*
X105497833Y-124068615D01*
X105497835Y-124068616D01*
X105669973Y-124183635D01*
X105816365Y-124330027D01*
X105931385Y-124502167D01*
X106010611Y-124693436D01*
X106051000Y-124896484D01*
X106051000Y-125103516D01*
X106010611Y-125306564D01*
X105973365Y-125396484D01*
X105931384Y-125497835D01*
X105816365Y-125669973D01*
X105669973Y-125816365D01*
X105497835Y-125931384D01*
X105497834Y-125931385D01*
X105497833Y-125931385D01*
X105306564Y-126010611D01*
X105103516Y-126051000D01*
X104896484Y-126051000D01*
X104693436Y-126010611D01*
X104502167Y-125931385D01*
X104502166Y-125931385D01*
X104502165Y-125931384D01*
X104330027Y-125816365D01*
X104183635Y-125669973D01*
X104068616Y-125497835D01*
X104026635Y-125396484D01*
X103989389Y-125306564D01*
X103949000Y-125103516D01*
X103949000Y-124896484D01*
X103989389Y-124693436D01*
X104068615Y-124502167D01*
X104183635Y-124330027D01*
X104330027Y-124183635D01*
X104502165Y-124068616D01*
X104502167Y-124068615D01*
X104693436Y-123989389D01*
X104896484Y-123949000D01*
X105103516Y-123949000D01*
X105306564Y-123989389D01*
X105306564Y-123989389D01*
G37*
G36*
X135306564Y-123989389D02*
G01*
X135497833Y-124068615D01*
X135497835Y-124068616D01*
X135669973Y-124183635D01*
X135816365Y-124330027D01*
X135931385Y-124502167D01*
X136010611Y-124693436D01*
X136051000Y-124896484D01*
X136051000Y-125103516D01*
X136010611Y-125306564D01*
X135973365Y-125396484D01*
X135931384Y-125497835D01*
X135816365Y-125669973D01*
X135669973Y-125816365D01*
X135497835Y-125931384D01*
X135497834Y-125931385D01*
X135497833Y-125931385D01*
X135306564Y-126010611D01*
X135103516Y-126051000D01*
X134896484Y-126051000D01*
X134693436Y-126010611D01*
X134502167Y-125931385D01*
X134502166Y-125931385D01*
X134502165Y-125931384D01*
X134330027Y-125816365D01*
X134183635Y-125669973D01*
X134068616Y-125497835D01*
X134026635Y-125396484D01*
X133989389Y-125306564D01*
X133949000Y-125103516D01*
X133949000Y-124896484D01*
X133989389Y-124693436D01*
X134068615Y-124502167D01*
X134183635Y-124330027D01*
X134330027Y-124183635D01*
X134502165Y-124068616D01*
X134502167Y-124068615D01*
X134693436Y-123989389D01*
X134896484Y-123949000D01*
X135103516Y-123949000D01*
X135306564Y-123989389D01*
X135306564Y-123989389D01*
G37*
G36*
X150306564Y-123989389D02*
G01*
X150497833Y-124068615D01*
X150497835Y-124068616D01*
X150669973Y-124183635D01*
X150816365Y-124330027D01*
X150931385Y-124502167D01*
X151010611Y-124693436D01*
X151051000Y-124896484D01*
X151051000Y-125103516D01*
X151010611Y-125306564D01*
X150973365Y-125396484D01*
X150931384Y-125497835D01*
X150816365Y-125669973D01*
X150669973Y-125816365D01*
X150497835Y-125931384D01*
X150497834Y-125931385D01*
X150497833Y-125931385D01*
X150306564Y-126010611D01*
X150103516Y-126051000D01*
X149896484Y-126051000D01*
X149693436Y-126010611D01*
X149502167Y-125931385D01*
X149502166Y-125931385D01*
X149502165Y-125931384D01*
X149330027Y-125816365D01*
X149183635Y-125669973D01*
X149068616Y-125497835D01*
X149026635Y-125396484D01*
X148989389Y-125306564D01*
X148949000Y-125103516D01*
X148949000Y-124896484D01*
X148989389Y-124693436D01*
X149068615Y-124502167D01*
X149183635Y-124330027D01*
X149330027Y-124183635D01*
X149502165Y-124068616D01*
X149502167Y-124068615D01*
X149693436Y-123989389D01*
X149896484Y-123949000D01*
X150103516Y-123949000D01*
X150306564Y-123989389D01*
X150306564Y-123989389D01*
G37*
G36*
X156806564Y-123989389D02*
G01*
X156997833Y-124068615D01*
X156997835Y-124068616D01*
X157169973Y-124183635D01*
X157316365Y-124330027D01*
X157431385Y-124502167D01*
X157510611Y-124693436D01*
X157551000Y-124896484D01*
X157551000Y-125103516D01*
X157510611Y-125306564D01*
X157473365Y-125396484D01*
X157431384Y-125497835D01*
X157316365Y-125669973D01*
X157169973Y-125816365D01*
X156997835Y-125931384D01*
X156997834Y-125931385D01*
X156997833Y-125931385D01*
X156806564Y-126010611D01*
X156603516Y-126051000D01*
X156396484Y-126051000D01*
X156193436Y-126010611D01*
X156002167Y-125931385D01*
X156002166Y-125931385D01*
X156002165Y-125931384D01*
X155830027Y-125816365D01*
X155683635Y-125669973D01*
X155568616Y-125497835D01*
X155526635Y-125396484D01*
X155489389Y-125306564D01*
X155449000Y-125103516D01*
X155449000Y-124896484D01*
X155489389Y-124693436D01*
X155568615Y-124502167D01*
X155683635Y-124330027D01*
X155830027Y-124183635D01*
X156002165Y-124068616D01*
X156002167Y-124068615D01*
X156193436Y-123989389D01*
X156396484Y-123949000D01*
X156603516Y-123949000D01*
X156806564Y-123989389D01*
X156806564Y-123989389D01*
G37*
G36*
X126806564Y-123989389D02*
G01*
X126997833Y-124068615D01*
X126997835Y-124068616D01*
X127169973Y-124183635D01*
X127316365Y-124330027D01*
X127431385Y-124502167D01*
X127510611Y-124693436D01*
X127551000Y-124896484D01*
X127551000Y-125103516D01*
X127510611Y-125306564D01*
X127473365Y-125396484D01*
X127431384Y-125497835D01*
X127316365Y-125669973D01*
X127169973Y-125816365D01*
X126997835Y-125931384D01*
X126997834Y-125931385D01*
X126997833Y-125931385D01*
X126806564Y-126010611D01*
X126603516Y-126051000D01*
X126396484Y-126051000D01*
X126193436Y-126010611D01*
X126002167Y-125931385D01*
X126002166Y-125931385D01*
X126002165Y-125931384D01*
X125830027Y-125816365D01*
X125683635Y-125669973D01*
X125568616Y-125497835D01*
X125526635Y-125396484D01*
X125489389Y-125306564D01*
X125449000Y-125103516D01*
X125449000Y-124896484D01*
X125489389Y-124693436D01*
X125568615Y-124502167D01*
X125683635Y-124330027D01*
X125830027Y-124183635D01*
X126002165Y-124068616D01*
X126002167Y-124068615D01*
X126193436Y-123989389D01*
X126396484Y-123949000D01*
X126603516Y-123949000D01*
X126806564Y-123989389D01*
X126806564Y-123989389D01*
G37*
G36*
X120306564Y-123989389D02*
G01*
X120497833Y-124068615D01*
X120497835Y-124068616D01*
X120669973Y-124183635D01*
X120816365Y-124330027D01*
X120931385Y-124502167D01*
X121010611Y-124693436D01*
X121051000Y-124896484D01*
X121051000Y-125103516D01*
X121010611Y-125306564D01*
X120973365Y-125396484D01*
X120931384Y-125497835D01*
X120816365Y-125669973D01*
X120669973Y-125816365D01*
X120497835Y-125931384D01*
X120497834Y-125931385D01*
X120497833Y-125931385D01*
X120306564Y-126010611D01*
X120103516Y-126051000D01*
X119896484Y-126051000D01*
X119693436Y-126010611D01*
X119502167Y-125931385D01*
X119502166Y-125931385D01*
X119502165Y-125931384D01*
X119330027Y-125816365D01*
X119183635Y-125669973D01*
X119068616Y-125497835D01*
X119026635Y-125396484D01*
X118989389Y-125306564D01*
X118949000Y-125103516D01*
X118949000Y-124896484D01*
X118989389Y-124693436D01*
X119068615Y-124502167D01*
X119183635Y-124330027D01*
X119330027Y-124183635D01*
X119502165Y-124068616D01*
X119502167Y-124068615D01*
X119693436Y-123989389D01*
X119896484Y-123949000D01*
X120103516Y-123949000D01*
X120306564Y-123989389D01*
X120306564Y-123989389D01*
G37*
G36*
X111806564Y-123989389D02*
G01*
X111997833Y-124068615D01*
X111997835Y-124068616D01*
X112169973Y-124183635D01*
X112316365Y-124330027D01*
X112431385Y-124502167D01*
X112510611Y-124693436D01*
X112551000Y-124896484D01*
X112551000Y-125103516D01*
X112510611Y-125306564D01*
X112473365Y-125396484D01*
X112431384Y-125497835D01*
X112316365Y-125669973D01*
X112169973Y-125816365D01*
X111997835Y-125931384D01*
X111997834Y-125931385D01*
X111997833Y-125931385D01*
X111806564Y-126010611D01*
X111603516Y-126051000D01*
X111396484Y-126051000D01*
X111193436Y-126010611D01*
X111002167Y-125931385D01*
X111002166Y-125931385D01*
X111002165Y-125931384D01*
X110830027Y-125816365D01*
X110683635Y-125669973D01*
X110568616Y-125497835D01*
X110526635Y-125396484D01*
X110489389Y-125306564D01*
X110449000Y-125103516D01*
X110449000Y-124896484D01*
X110489389Y-124693436D01*
X110568615Y-124502167D01*
X110683635Y-124330027D01*
X110830027Y-124183635D01*
X111002165Y-124068616D01*
X111002167Y-124068615D01*
X111193436Y-123989389D01*
X111396484Y-123949000D01*
X111603516Y-123949000D01*
X111806564Y-123989389D01*
X111806564Y-123989389D01*
G37*
G36*
X76881968Y-121963565D02*
G01*
X76920638Y-121975296D01*
X76956277Y-121994346D01*
X76987517Y-122019983D01*
X77013154Y-122051223D01*
X77032204Y-122086862D01*
X77043935Y-122125532D01*
X77048500Y-122171888D01*
X77048500Y-123248112D01*
X77043935Y-123294468D01*
X77032204Y-123333138D01*
X77013154Y-123368777D01*
X76987517Y-123400017D01*
X76956277Y-123425654D01*
X76920638Y-123444704D01*
X76881968Y-123456435D01*
X76835612Y-123461000D01*
X76184388Y-123461000D01*
X76138032Y-123456435D01*
X76099362Y-123444704D01*
X76063723Y-123425654D01*
X76032483Y-123400017D01*
X76006846Y-123368777D01*
X75987796Y-123333138D01*
X75976065Y-123294468D01*
X75971500Y-123248112D01*
X75971500Y-122171888D01*
X75976065Y-122125532D01*
X75987796Y-122086862D01*
X76006846Y-122051223D01*
X76032483Y-122019983D01*
X76063723Y-121994346D01*
X76099362Y-121975296D01*
X76138032Y-121963565D01*
X76184388Y-121959000D01*
X76835612Y-121959000D01*
X76881968Y-121963565D01*
X76881968Y-121963565D01*
G37*
G36*
X75006968Y-121963565D02*
G01*
X75045638Y-121975296D01*
X75081277Y-121994346D01*
X75112517Y-122019983D01*
X75138154Y-122051223D01*
X75157204Y-122086862D01*
X75168935Y-122125532D01*
X75173500Y-122171888D01*
X75173500Y-123248112D01*
X75168935Y-123294468D01*
X75157204Y-123333138D01*
X75138154Y-123368777D01*
X75112517Y-123400017D01*
X75081277Y-123425654D01*
X75045638Y-123444704D01*
X75006968Y-123456435D01*
X74960612Y-123461000D01*
X74309388Y-123461000D01*
X74263032Y-123456435D01*
X74224362Y-123444704D01*
X74188723Y-123425654D01*
X74157483Y-123400017D01*
X74131846Y-123368777D01*
X74112796Y-123333138D01*
X74101065Y-123294468D01*
X74096500Y-123248112D01*
X74096500Y-122171888D01*
X74101065Y-122125532D01*
X74112796Y-122086862D01*
X74131846Y-122051223D01*
X74157483Y-122019983D01*
X74188723Y-121994346D01*
X74224362Y-121975296D01*
X74263032Y-121963565D01*
X74309388Y-121959000D01*
X74960612Y-121959000D01*
X75006968Y-121963565D01*
X75006968Y-121963565D01*
G37*
G36*
X70086968Y-120003565D02*
G01*
X70125638Y-120015296D01*
X70161277Y-120034346D01*
X70192517Y-120059983D01*
X70218154Y-120091223D01*
X70237204Y-120126862D01*
X70248935Y-120165532D01*
X70253500Y-120211888D01*
X70253500Y-121288112D01*
X70248935Y-121334468D01*
X70237204Y-121373138D01*
X70218154Y-121408777D01*
X70192517Y-121440017D01*
X70161277Y-121465654D01*
X70125638Y-121484704D01*
X70086968Y-121496435D01*
X70040612Y-121501000D01*
X69389388Y-121501000D01*
X69343032Y-121496435D01*
X69304362Y-121484704D01*
X69268723Y-121465654D01*
X69237483Y-121440017D01*
X69211846Y-121408777D01*
X69192796Y-121373138D01*
X69181065Y-121334468D01*
X69176500Y-121288112D01*
X69176500Y-120211888D01*
X69181065Y-120165532D01*
X69192796Y-120126862D01*
X69211846Y-120091223D01*
X69237483Y-120059983D01*
X69268723Y-120034346D01*
X69304362Y-120015296D01*
X69343032Y-120003565D01*
X69389388Y-119999000D01*
X70040612Y-119999000D01*
X70086968Y-120003565D01*
X70086968Y-120003565D01*
G37*
G36*
X71961968Y-120003565D02*
G01*
X72000638Y-120015296D01*
X72036277Y-120034346D01*
X72067517Y-120059983D01*
X72093154Y-120091223D01*
X72112204Y-120126862D01*
X72123935Y-120165532D01*
X72128500Y-120211888D01*
X72128500Y-121288112D01*
X72123935Y-121334468D01*
X72112204Y-121373138D01*
X72093154Y-121408777D01*
X72067517Y-121440017D01*
X72036277Y-121465654D01*
X72000638Y-121484704D01*
X71961968Y-121496435D01*
X71915612Y-121501000D01*
X71264388Y-121501000D01*
X71218032Y-121496435D01*
X71179362Y-121484704D01*
X71143723Y-121465654D01*
X71112483Y-121440017D01*
X71086846Y-121408777D01*
X71067796Y-121373138D01*
X71056065Y-121334468D01*
X71051500Y-121288112D01*
X71051500Y-120211888D01*
X71056065Y-120165532D01*
X71067796Y-120126862D01*
X71086846Y-120091223D01*
X71112483Y-120059983D01*
X71143723Y-120034346D01*
X71179362Y-120015296D01*
X71218032Y-120003565D01*
X71264388Y-119999000D01*
X71915612Y-119999000D01*
X71961968Y-120003565D01*
X71961968Y-120003565D01*
G37*
G36*
X74301000Y-121351000D02*
G01*
X72699000Y-121351000D01*
X72699000Y-120149000D01*
X74301000Y-120149000D01*
X74301000Y-121351000D01*
X74301000Y-121351000D01*
G37*
G36*
X77301000Y-121351000D02*
G01*
X75699000Y-121351000D01*
X75699000Y-120149000D01*
X77301000Y-120149000D01*
X77301000Y-121351000D01*
X77301000Y-121351000D01*
G37*
G36*
X77301000Y-119851000D02*
G01*
X75699000Y-119851000D01*
X75699000Y-118649000D01*
X77301000Y-118649000D01*
X77301000Y-119851000D01*
X77301000Y-119851000D01*
G37*
G36*
X74301000Y-119851000D02*
G01*
X72699000Y-119851000D01*
X72699000Y-118649000D01*
X74301000Y-118649000D01*
X74301000Y-119851000D01*
X74301000Y-119851000D01*
G37*
G36*
X75654468Y-116446065D02*
G01*
X75693138Y-116457796D01*
X75728777Y-116476846D01*
X75760017Y-116502483D01*
X75785654Y-116533723D01*
X75804704Y-116569362D01*
X75816435Y-116608032D01*
X75821000Y-116654388D01*
X75821000Y-117305612D01*
X75816435Y-117351968D01*
X75804704Y-117390638D01*
X75785654Y-117426277D01*
X75760017Y-117457517D01*
X75728777Y-117483154D01*
X75693138Y-117502204D01*
X75654468Y-117513935D01*
X75608112Y-117518500D01*
X74531888Y-117518500D01*
X74485532Y-117513935D01*
X74446862Y-117502204D01*
X74411223Y-117483154D01*
X74379983Y-117457517D01*
X74354346Y-117426277D01*
X74335296Y-117390638D01*
X74323565Y-117351968D01*
X74319000Y-117305612D01*
X74319000Y-116654388D01*
X74323565Y-116608032D01*
X74335296Y-116569362D01*
X74354346Y-116533723D01*
X74379983Y-116502483D01*
X74411223Y-116476846D01*
X74446862Y-116457796D01*
X74485532Y-116446065D01*
X74531888Y-116441500D01*
X75608112Y-116441500D01*
X75654468Y-116446065D01*
X75654468Y-116446065D01*
G37*
G36*
X75654468Y-114571065D02*
G01*
X75693138Y-114582796D01*
X75728777Y-114601846D01*
X75760017Y-114627483D01*
X75785654Y-114658723D01*
X75804704Y-114694362D01*
X75816435Y-114733032D01*
X75821000Y-114779388D01*
X75821000Y-115430612D01*
X75816435Y-115476968D01*
X75804704Y-115515638D01*
X75785654Y-115551277D01*
X75760017Y-115582517D01*
X75728777Y-115608154D01*
X75693138Y-115627204D01*
X75654468Y-115638935D01*
X75608112Y-115643500D01*
X74531888Y-115643500D01*
X74485532Y-115638935D01*
X74446862Y-115627204D01*
X74411223Y-115608154D01*
X74379983Y-115582517D01*
X74354346Y-115551277D01*
X74335296Y-115515638D01*
X74323565Y-115476968D01*
X74319000Y-115430612D01*
X74319000Y-114779388D01*
X74323565Y-114733032D01*
X74335296Y-114694362D01*
X74354346Y-114658723D01*
X74379983Y-114627483D01*
X74411223Y-114601846D01*
X74446862Y-114582796D01*
X74485532Y-114571065D01*
X74531888Y-114566500D01*
X75608112Y-114566500D01*
X75654468Y-114571065D01*
X75654468Y-114571065D01*
G37*
G36*
X155306564Y-108989389D02*
G01*
X155497833Y-109068615D01*
X155497835Y-109068616D01*
X155669973Y-109183635D01*
X155816365Y-109330027D01*
X155931385Y-109502167D01*
X156010611Y-109693436D01*
X156051000Y-109896484D01*
X156051000Y-110103516D01*
X156010611Y-110306564D01*
X155931385Y-110497833D01*
X155931384Y-110497835D01*
X155816365Y-110669973D01*
X155669973Y-110816365D01*
X155497835Y-110931384D01*
X155497834Y-110931385D01*
X155497833Y-110931385D01*
X155306564Y-111010611D01*
X155103516Y-111051000D01*
X154896484Y-111051000D01*
X154693436Y-111010611D01*
X154502167Y-110931385D01*
X154502166Y-110931385D01*
X154502165Y-110931384D01*
X154330027Y-110816365D01*
X154183635Y-110669973D01*
X154068616Y-110497835D01*
X154068615Y-110497833D01*
X153989389Y-110306564D01*
X153949000Y-110103516D01*
X153949000Y-109896484D01*
X153989389Y-109693436D01*
X154068615Y-109502167D01*
X154183635Y-109330027D01*
X154330027Y-109183635D01*
X154502165Y-109068616D01*
X154502167Y-109068615D01*
X154693436Y-108989389D01*
X154896484Y-108949000D01*
X155103516Y-108949000D01*
X155306564Y-108989389D01*
X155306564Y-108989389D01*
G37*
G36*
X135306564Y-108989389D02*
G01*
X135497833Y-109068615D01*
X135497835Y-109068616D01*
X135669973Y-109183635D01*
X135816365Y-109330027D01*
X135931385Y-109502167D01*
X136010611Y-109693436D01*
X136051000Y-109896484D01*
X136051000Y-110103516D01*
X136010611Y-110306564D01*
X135931385Y-110497833D01*
X135931384Y-110497835D01*
X135816365Y-110669973D01*
X135669973Y-110816365D01*
X135497835Y-110931384D01*
X135497834Y-110931385D01*
X135497833Y-110931385D01*
X135306564Y-111010611D01*
X135103516Y-111051000D01*
X134896484Y-111051000D01*
X134693436Y-111010611D01*
X134502167Y-110931385D01*
X134502166Y-110931385D01*
X134502165Y-110931384D01*
X134330027Y-110816365D01*
X134183635Y-110669973D01*
X134068616Y-110497835D01*
X134068615Y-110497833D01*
X133989389Y-110306564D01*
X133949000Y-110103516D01*
X133949000Y-109896484D01*
X133989389Y-109693436D01*
X134068615Y-109502167D01*
X134183635Y-109330027D01*
X134330027Y-109183635D01*
X134502165Y-109068616D01*
X134502167Y-109068615D01*
X134693436Y-108989389D01*
X134896484Y-108949000D01*
X135103516Y-108949000D01*
X135306564Y-108989389D01*
X135306564Y-108989389D01*
G37*
G36*
X133551000Y-111051000D02*
G01*
X131449000Y-111051000D01*
X131449000Y-108949000D01*
X133551000Y-108949000D01*
X133551000Y-111051000D01*
X133551000Y-111051000D01*
G37*
G36*
X73551000Y-111051000D02*
G01*
X71449000Y-111051000D01*
X71449000Y-108949000D01*
X73551000Y-108949000D01*
X73551000Y-111051000D01*
X73551000Y-111051000D01*
G37*
G36*
X75306564Y-108989389D02*
G01*
X75497833Y-109068615D01*
X75497835Y-109068616D01*
X75669973Y-109183635D01*
X75816365Y-109330027D01*
X75931385Y-109502167D01*
X76010611Y-109693436D01*
X76051000Y-109896484D01*
X76051000Y-110103516D01*
X76010611Y-110306564D01*
X75931385Y-110497833D01*
X75931384Y-110497835D01*
X75816365Y-110669973D01*
X75669973Y-110816365D01*
X75497835Y-110931384D01*
X75497834Y-110931385D01*
X75497833Y-110931385D01*
X75306564Y-111010611D01*
X75103516Y-111051000D01*
X74896484Y-111051000D01*
X74693436Y-111010611D01*
X74502167Y-110931385D01*
X74502166Y-110931385D01*
X74502165Y-110931384D01*
X74330027Y-110816365D01*
X74183635Y-110669973D01*
X74068616Y-110497835D01*
X74068615Y-110497833D01*
X73989389Y-110306564D01*
X73949000Y-110103516D01*
X73949000Y-109896484D01*
X73989389Y-109693436D01*
X74068615Y-109502167D01*
X74183635Y-109330027D01*
X74330027Y-109183635D01*
X74502165Y-109068616D01*
X74502167Y-109068615D01*
X74693436Y-108989389D01*
X74896484Y-108949000D01*
X75103516Y-108949000D01*
X75306564Y-108989389D01*
X75306564Y-108989389D01*
G37*
G36*
X137806564Y-108989389D02*
G01*
X137997833Y-109068615D01*
X137997835Y-109068616D01*
X138169973Y-109183635D01*
X138316365Y-109330027D01*
X138431385Y-109502167D01*
X138510611Y-109693436D01*
X138551000Y-109896484D01*
X138551000Y-110103516D01*
X138510611Y-110306564D01*
X138431385Y-110497833D01*
X138431384Y-110497835D01*
X138316365Y-110669973D01*
X138169973Y-110816365D01*
X137997835Y-110931384D01*
X137997834Y-110931385D01*
X137997833Y-110931385D01*
X137806564Y-111010611D01*
X137603516Y-111051000D01*
X137396484Y-111051000D01*
X137193436Y-111010611D01*
X137002167Y-110931385D01*
X137002166Y-110931385D01*
X137002165Y-110931384D01*
X136830027Y-110816365D01*
X136683635Y-110669973D01*
X136568616Y-110497835D01*
X136568615Y-110497833D01*
X136489389Y-110306564D01*
X136449000Y-110103516D01*
X136449000Y-109896484D01*
X136489389Y-109693436D01*
X136568615Y-109502167D01*
X136683635Y-109330027D01*
X136830027Y-109183635D01*
X137002165Y-109068616D01*
X137002167Y-109068615D01*
X137193436Y-108989389D01*
X137396484Y-108949000D01*
X137603516Y-108949000D01*
X137806564Y-108989389D01*
X137806564Y-108989389D01*
G37*
G36*
X153551000Y-111051000D02*
G01*
X151449000Y-111051000D01*
X151449000Y-108949000D01*
X153551000Y-108949000D01*
X153551000Y-111051000D01*
X153551000Y-111051000D01*
G37*
G36*
X97806564Y-108989389D02*
G01*
X97997833Y-109068615D01*
X97997835Y-109068616D01*
X98169973Y-109183635D01*
X98316365Y-109330027D01*
X98431385Y-109502167D01*
X98510611Y-109693436D01*
X98551000Y-109896484D01*
X98551000Y-110103516D01*
X98510611Y-110306564D01*
X98431385Y-110497833D01*
X98431384Y-110497835D01*
X98316365Y-110669973D01*
X98169973Y-110816365D01*
X97997835Y-110931384D01*
X97997834Y-110931385D01*
X97997833Y-110931385D01*
X97806564Y-111010611D01*
X97603516Y-111051000D01*
X97396484Y-111051000D01*
X97193436Y-111010611D01*
X97002167Y-110931385D01*
X97002166Y-110931385D01*
X97002165Y-110931384D01*
X96830027Y-110816365D01*
X96683635Y-110669973D01*
X96568616Y-110497835D01*
X96568615Y-110497833D01*
X96489389Y-110306564D01*
X96449000Y-110103516D01*
X96449000Y-109896484D01*
X96489389Y-109693436D01*
X96568615Y-109502167D01*
X96683635Y-109330027D01*
X96830027Y-109183635D01*
X97002165Y-109068616D01*
X97002167Y-109068615D01*
X97193436Y-108989389D01*
X97396484Y-108949000D01*
X97603516Y-108949000D01*
X97806564Y-108989389D01*
X97806564Y-108989389D01*
G37*
G36*
X157806564Y-108989389D02*
G01*
X157997833Y-109068615D01*
X157997835Y-109068616D01*
X158169973Y-109183635D01*
X158316365Y-109330027D01*
X158431385Y-109502167D01*
X158510611Y-109693436D01*
X158551000Y-109896484D01*
X158551000Y-110103516D01*
X158510611Y-110306564D01*
X158431385Y-110497833D01*
X158431384Y-110497835D01*
X158316365Y-110669973D01*
X158169973Y-110816365D01*
X157997835Y-110931384D01*
X157997834Y-110931385D01*
X157997833Y-110931385D01*
X157806564Y-111010611D01*
X157603516Y-111051000D01*
X157396484Y-111051000D01*
X157193436Y-111010611D01*
X157002167Y-110931385D01*
X157002166Y-110931385D01*
X157002165Y-110931384D01*
X156830027Y-110816365D01*
X156683635Y-110669973D01*
X156568616Y-110497835D01*
X156568615Y-110497833D01*
X156489389Y-110306564D01*
X156449000Y-110103516D01*
X156449000Y-109896484D01*
X156489389Y-109693436D01*
X156568615Y-109502167D01*
X156683635Y-109330027D01*
X156830027Y-109183635D01*
X157002165Y-109068616D01*
X157002167Y-109068615D01*
X157193436Y-108989389D01*
X157396484Y-108949000D01*
X157603516Y-108949000D01*
X157806564Y-108989389D01*
X157806564Y-108989389D01*
G37*
G36*
X113551000Y-111051000D02*
G01*
X111449000Y-111051000D01*
X111449000Y-108949000D01*
X113551000Y-108949000D01*
X113551000Y-111051000D01*
X113551000Y-111051000D01*
G37*
G36*
X115306564Y-108989389D02*
G01*
X115497833Y-109068615D01*
X115497835Y-109068616D01*
X115669973Y-109183635D01*
X115816365Y-109330027D01*
X115931385Y-109502167D01*
X116010611Y-109693436D01*
X116051000Y-109896484D01*
X116051000Y-110103516D01*
X116010611Y-110306564D01*
X115931385Y-110497833D01*
X115931384Y-110497835D01*
X115816365Y-110669973D01*
X115669973Y-110816365D01*
X115497835Y-110931384D01*
X115497834Y-110931385D01*
X115497833Y-110931385D01*
X115306564Y-111010611D01*
X115103516Y-111051000D01*
X114896484Y-111051000D01*
X114693436Y-111010611D01*
X114502167Y-110931385D01*
X114502166Y-110931385D01*
X114502165Y-110931384D01*
X114330027Y-110816365D01*
X114183635Y-110669973D01*
X114068616Y-110497835D01*
X114068615Y-110497833D01*
X113989389Y-110306564D01*
X113949000Y-110103516D01*
X113949000Y-109896484D01*
X113989389Y-109693436D01*
X114068615Y-109502167D01*
X114183635Y-109330027D01*
X114330027Y-109183635D01*
X114502165Y-109068616D01*
X114502167Y-109068615D01*
X114693436Y-108989389D01*
X114896484Y-108949000D01*
X115103516Y-108949000D01*
X115306564Y-108989389D01*
X115306564Y-108989389D01*
G37*
G36*
X117806564Y-108989389D02*
G01*
X117997833Y-109068615D01*
X117997835Y-109068616D01*
X118169973Y-109183635D01*
X118316365Y-109330027D01*
X118431385Y-109502167D01*
X118510611Y-109693436D01*
X118551000Y-109896484D01*
X118551000Y-110103516D01*
X118510611Y-110306564D01*
X118431385Y-110497833D01*
X118431384Y-110497835D01*
X118316365Y-110669973D01*
X118169973Y-110816365D01*
X117997835Y-110931384D01*
X117997834Y-110931385D01*
X117997833Y-110931385D01*
X117806564Y-111010611D01*
X117603516Y-111051000D01*
X117396484Y-111051000D01*
X117193436Y-111010611D01*
X117002167Y-110931385D01*
X117002166Y-110931385D01*
X117002165Y-110931384D01*
X116830027Y-110816365D01*
X116683635Y-110669973D01*
X116568616Y-110497835D01*
X116568615Y-110497833D01*
X116489389Y-110306564D01*
X116449000Y-110103516D01*
X116449000Y-109896484D01*
X116489389Y-109693436D01*
X116568615Y-109502167D01*
X116683635Y-109330027D01*
X116830027Y-109183635D01*
X117002165Y-109068616D01*
X117002167Y-109068615D01*
X117193436Y-108989389D01*
X117396484Y-108949000D01*
X117603516Y-108949000D01*
X117806564Y-108989389D01*
X117806564Y-108989389D01*
G37*
G36*
X93551000Y-111051000D02*
G01*
X91449000Y-111051000D01*
X91449000Y-108949000D01*
X93551000Y-108949000D01*
X93551000Y-111051000D01*
X93551000Y-111051000D01*
G37*
G36*
X95306564Y-108989389D02*
G01*
X95497833Y-109068615D01*
X95497835Y-109068616D01*
X95669973Y-109183635D01*
X95816365Y-109330027D01*
X95931385Y-109502167D01*
X96010611Y-109693436D01*
X96051000Y-109896484D01*
X96051000Y-110103516D01*
X96010611Y-110306564D01*
X95931385Y-110497833D01*
X95931384Y-110497835D01*
X95816365Y-110669973D01*
X95669973Y-110816365D01*
X95497835Y-110931384D01*
X95497834Y-110931385D01*
X95497833Y-110931385D01*
X95306564Y-111010611D01*
X95103516Y-111051000D01*
X94896484Y-111051000D01*
X94693436Y-111010611D01*
X94502167Y-110931385D01*
X94502166Y-110931385D01*
X94502165Y-110931384D01*
X94330027Y-110816365D01*
X94183635Y-110669973D01*
X94068616Y-110497835D01*
X94068615Y-110497833D01*
X93989389Y-110306564D01*
X93949000Y-110103516D01*
X93949000Y-109896484D01*
X93989389Y-109693436D01*
X94068615Y-109502167D01*
X94183635Y-109330027D01*
X94330027Y-109183635D01*
X94502165Y-109068616D01*
X94502167Y-109068615D01*
X94693436Y-108989389D01*
X94896484Y-108949000D01*
X95103516Y-108949000D01*
X95306564Y-108989389D01*
X95306564Y-108989389D01*
G37*
G36*
X77806564Y-108989389D02*
G01*
X77997833Y-109068615D01*
X77997835Y-109068616D01*
X78169973Y-109183635D01*
X78316365Y-109330027D01*
X78431385Y-109502167D01*
X78510611Y-109693436D01*
X78551000Y-109896484D01*
X78551000Y-110103516D01*
X78510611Y-110306564D01*
X78431385Y-110497833D01*
X78431384Y-110497835D01*
X78316365Y-110669973D01*
X78169973Y-110816365D01*
X77997835Y-110931384D01*
X77997834Y-110931385D01*
X77997833Y-110931385D01*
X77806564Y-111010611D01*
X77603516Y-111051000D01*
X77396484Y-111051000D01*
X77193436Y-111010611D01*
X77002167Y-110931385D01*
X77002166Y-110931385D01*
X77002165Y-110931384D01*
X76830027Y-110816365D01*
X76683635Y-110669973D01*
X76568616Y-110497835D01*
X76568615Y-110497833D01*
X76489389Y-110306564D01*
X76449000Y-110103516D01*
X76449000Y-109896484D01*
X76489389Y-109693436D01*
X76568615Y-109502167D01*
X76683635Y-109330027D01*
X76830027Y-109183635D01*
X77002165Y-109068616D01*
X77002167Y-109068615D01*
X77193436Y-108989389D01*
X77396484Y-108949000D01*
X77603516Y-108949000D01*
X77806564Y-108989389D01*
X77806564Y-108989389D01*
G37*
G36*
X101651000Y-104151000D02*
G01*
X99549000Y-104151000D01*
X99549000Y-100849000D01*
X101651000Y-100849000D01*
X101651000Y-104151000D01*
X101651000Y-104151000D01*
G37*
G36*
X121651000Y-104151000D02*
G01*
X119549000Y-104151000D01*
X119549000Y-100849000D01*
X121651000Y-100849000D01*
X121651000Y-104151000D01*
X121651000Y-104151000D01*
G37*
G36*
X110451000Y-104151000D02*
G01*
X108349000Y-104151000D01*
X108349000Y-100849000D01*
X110451000Y-100849000D01*
X110451000Y-104151000D01*
X110451000Y-104151000D01*
G37*
G36*
X90451000Y-104151000D02*
G01*
X88349000Y-104151000D01*
X88349000Y-100849000D01*
X90451000Y-100849000D01*
X90451000Y-104151000D01*
X90451000Y-104151000D01*
G37*
G36*
X141651000Y-104151000D02*
G01*
X139549000Y-104151000D01*
X139549000Y-100849000D01*
X141651000Y-100849000D01*
X141651000Y-104151000D01*
X141651000Y-104151000D01*
G37*
G36*
X70451000Y-104151000D02*
G01*
X68349000Y-104151000D01*
X68349000Y-100849000D01*
X70451000Y-100849000D01*
X70451000Y-104151000D01*
X70451000Y-104151000D01*
G37*
G36*
X81651000Y-104151000D02*
G01*
X79549000Y-104151000D01*
X79549000Y-100849000D01*
X81651000Y-100849000D01*
X81651000Y-104151000D01*
X81651000Y-104151000D01*
G37*
G36*
X150451000Y-104151000D02*
G01*
X148349000Y-104151000D01*
X148349000Y-100849000D01*
X150451000Y-100849000D01*
X150451000Y-104151000D01*
X150451000Y-104151000D01*
G37*
G36*
X161651000Y-104151000D02*
G01*
X159549000Y-104151000D01*
X159549000Y-100849000D01*
X161651000Y-100849000D01*
X161651000Y-104151000D01*
X161651000Y-104151000D01*
G37*
G36*
X130451000Y-104151000D02*
G01*
X128349000Y-104151000D01*
X128349000Y-100849000D01*
X130451000Y-100849000D01*
X130451000Y-104151000D01*
X130451000Y-104151000D01*
G37*
G36*
X92806564Y-94489389D02*
G01*
X92997833Y-94568615D01*
X92997835Y-94568616D01*
X93169973Y-94683635D01*
X93316365Y-94830027D01*
X93431385Y-95002167D01*
X93510611Y-95193436D01*
X93551000Y-95396484D01*
X93551000Y-95603516D01*
X93510611Y-95806564D01*
X93431385Y-95997833D01*
X93431384Y-95997835D01*
X93316365Y-96169973D01*
X93169973Y-96316365D01*
X92997835Y-96431384D01*
X92997834Y-96431385D01*
X92997833Y-96431385D01*
X92806564Y-96510611D01*
X92603516Y-96551000D01*
X92396484Y-96551000D01*
X92193436Y-96510611D01*
X92002167Y-96431385D01*
X92002166Y-96431385D01*
X92002165Y-96431384D01*
X91830027Y-96316365D01*
X91683635Y-96169973D01*
X91568616Y-95997835D01*
X91568615Y-95997833D01*
X91489389Y-95806564D01*
X91449000Y-95603516D01*
X91449000Y-95396484D01*
X91489389Y-95193436D01*
X91568615Y-95002167D01*
X91683635Y-94830027D01*
X91830027Y-94683635D01*
X92002165Y-94568616D01*
X92002167Y-94568615D01*
X92193436Y-94489389D01*
X92396484Y-94449000D01*
X92603516Y-94449000D01*
X92806564Y-94489389D01*
X92806564Y-94489389D01*
G37*
G36*
X152806564Y-94489389D02*
G01*
X152997833Y-94568615D01*
X152997835Y-94568616D01*
X153169973Y-94683635D01*
X153316365Y-94830027D01*
X153431385Y-95002167D01*
X153510611Y-95193436D01*
X153551000Y-95396484D01*
X153551000Y-95603516D01*
X153510611Y-95806564D01*
X153431385Y-95997833D01*
X153431384Y-95997835D01*
X153316365Y-96169973D01*
X153169973Y-96316365D01*
X152997835Y-96431384D01*
X152997834Y-96431385D01*
X152997833Y-96431385D01*
X152806564Y-96510611D01*
X152603516Y-96551000D01*
X152396484Y-96551000D01*
X152193436Y-96510611D01*
X152002167Y-96431385D01*
X152002166Y-96431385D01*
X152002165Y-96431384D01*
X151830027Y-96316365D01*
X151683635Y-96169973D01*
X151568616Y-95997835D01*
X151568615Y-95997833D01*
X151489389Y-95806564D01*
X151449000Y-95603516D01*
X151449000Y-95396484D01*
X151489389Y-95193436D01*
X151568615Y-95002167D01*
X151683635Y-94830027D01*
X151830027Y-94683635D01*
X152002165Y-94568616D01*
X152002167Y-94568615D01*
X152193436Y-94489389D01*
X152396484Y-94449000D01*
X152603516Y-94449000D01*
X152806564Y-94489389D01*
X152806564Y-94489389D01*
G37*
G36*
X132806564Y-94489389D02*
G01*
X132997833Y-94568615D01*
X132997835Y-94568616D01*
X133169973Y-94683635D01*
X133316365Y-94830027D01*
X133431385Y-95002167D01*
X133510611Y-95193436D01*
X133551000Y-95396484D01*
X133551000Y-95603516D01*
X133510611Y-95806564D01*
X133431385Y-95997833D01*
X133431384Y-95997835D01*
X133316365Y-96169973D01*
X133169973Y-96316365D01*
X132997835Y-96431384D01*
X132997834Y-96431385D01*
X132997833Y-96431385D01*
X132806564Y-96510611D01*
X132603516Y-96551000D01*
X132396484Y-96551000D01*
X132193436Y-96510611D01*
X132002167Y-96431385D01*
X132002166Y-96431385D01*
X132002165Y-96431384D01*
X131830027Y-96316365D01*
X131683635Y-96169973D01*
X131568616Y-95997835D01*
X131568615Y-95997833D01*
X131489389Y-95806564D01*
X131449000Y-95603516D01*
X131449000Y-95396484D01*
X131489389Y-95193436D01*
X131568615Y-95002167D01*
X131683635Y-94830027D01*
X131830027Y-94683635D01*
X132002165Y-94568616D01*
X132002167Y-94568615D01*
X132193436Y-94489389D01*
X132396484Y-94449000D01*
X132603516Y-94449000D01*
X132806564Y-94489389D01*
X132806564Y-94489389D01*
G37*
G36*
X117806564Y-94489389D02*
G01*
X117997833Y-94568615D01*
X117997835Y-94568616D01*
X118169973Y-94683635D01*
X118316365Y-94830027D01*
X118431385Y-95002167D01*
X118510611Y-95193436D01*
X118551000Y-95396484D01*
X118551000Y-95603516D01*
X118510611Y-95806564D01*
X118431385Y-95997833D01*
X118431384Y-95997835D01*
X118316365Y-96169973D01*
X118169973Y-96316365D01*
X117997835Y-96431384D01*
X117997834Y-96431385D01*
X117997833Y-96431385D01*
X117806564Y-96510611D01*
X117603516Y-96551000D01*
X117396484Y-96551000D01*
X117193436Y-96510611D01*
X117002167Y-96431385D01*
X117002166Y-96431385D01*
X117002165Y-96431384D01*
X116830027Y-96316365D01*
X116683635Y-96169973D01*
X116568616Y-95997835D01*
X116568615Y-95997833D01*
X116489389Y-95806564D01*
X116449000Y-95603516D01*
X116449000Y-95396484D01*
X116489389Y-95193436D01*
X116568615Y-95002167D01*
X116683635Y-94830027D01*
X116830027Y-94683635D01*
X117002165Y-94568616D01*
X117002167Y-94568615D01*
X117193436Y-94489389D01*
X117396484Y-94449000D01*
X117603516Y-94449000D01*
X117806564Y-94489389D01*
X117806564Y-94489389D01*
G37*
G36*
X112806564Y-94489389D02*
G01*
X112997833Y-94568615D01*
X112997835Y-94568616D01*
X113169973Y-94683635D01*
X113316365Y-94830027D01*
X113431385Y-95002167D01*
X113510611Y-95193436D01*
X113551000Y-95396484D01*
X113551000Y-95603516D01*
X113510611Y-95806564D01*
X113431385Y-95997833D01*
X113431384Y-95997835D01*
X113316365Y-96169973D01*
X113169973Y-96316365D01*
X112997835Y-96431384D01*
X112997834Y-96431385D01*
X112997833Y-96431385D01*
X112806564Y-96510611D01*
X112603516Y-96551000D01*
X112396484Y-96551000D01*
X112193436Y-96510611D01*
X112002167Y-96431385D01*
X112002166Y-96431385D01*
X112002165Y-96431384D01*
X111830027Y-96316365D01*
X111683635Y-96169973D01*
X111568616Y-95997835D01*
X111568615Y-95997833D01*
X111489389Y-95806564D01*
X111449000Y-95603516D01*
X111449000Y-95396484D01*
X111489389Y-95193436D01*
X111568615Y-95002167D01*
X111683635Y-94830027D01*
X111830027Y-94683635D01*
X112002165Y-94568616D01*
X112002167Y-94568615D01*
X112193436Y-94489389D01*
X112396484Y-94449000D01*
X112603516Y-94449000D01*
X112806564Y-94489389D01*
X112806564Y-94489389D01*
G37*
G36*
X97806564Y-94489389D02*
G01*
X97997833Y-94568615D01*
X97997835Y-94568616D01*
X98169973Y-94683635D01*
X98316365Y-94830027D01*
X98431385Y-95002167D01*
X98510611Y-95193436D01*
X98551000Y-95396484D01*
X98551000Y-95603516D01*
X98510611Y-95806564D01*
X98431385Y-95997833D01*
X98431384Y-95997835D01*
X98316365Y-96169973D01*
X98169973Y-96316365D01*
X97997835Y-96431384D01*
X97997834Y-96431385D01*
X97997833Y-96431385D01*
X97806564Y-96510611D01*
X97603516Y-96551000D01*
X97396484Y-96551000D01*
X97193436Y-96510611D01*
X97002167Y-96431385D01*
X97002166Y-96431385D01*
X97002165Y-96431384D01*
X96830027Y-96316365D01*
X96683635Y-96169973D01*
X96568616Y-95997835D01*
X96568615Y-95997833D01*
X96489389Y-95806564D01*
X96449000Y-95603516D01*
X96449000Y-95396484D01*
X96489389Y-95193436D01*
X96568615Y-95002167D01*
X96683635Y-94830027D01*
X96830027Y-94683635D01*
X97002165Y-94568616D01*
X97002167Y-94568615D01*
X97193436Y-94489389D01*
X97396484Y-94449000D01*
X97603516Y-94449000D01*
X97806564Y-94489389D01*
X97806564Y-94489389D01*
G37*
G36*
X77806564Y-94489389D02*
G01*
X77997833Y-94568615D01*
X77997835Y-94568616D01*
X78169973Y-94683635D01*
X78316365Y-94830027D01*
X78431385Y-95002167D01*
X78510611Y-95193436D01*
X78551000Y-95396484D01*
X78551000Y-95603516D01*
X78510611Y-95806564D01*
X78431385Y-95997833D01*
X78431384Y-95997835D01*
X78316365Y-96169973D01*
X78169973Y-96316365D01*
X77997835Y-96431384D01*
X77997834Y-96431385D01*
X77997833Y-96431385D01*
X77806564Y-96510611D01*
X77603516Y-96551000D01*
X77396484Y-96551000D01*
X77193436Y-96510611D01*
X77002167Y-96431385D01*
X77002166Y-96431385D01*
X77002165Y-96431384D01*
X76830027Y-96316365D01*
X76683635Y-96169973D01*
X76568616Y-95997835D01*
X76568615Y-95997833D01*
X76489389Y-95806564D01*
X76449000Y-95603516D01*
X76449000Y-95396484D01*
X76489389Y-95193436D01*
X76568615Y-95002167D01*
X76683635Y-94830027D01*
X76830027Y-94683635D01*
X77002165Y-94568616D01*
X77002167Y-94568615D01*
X77193436Y-94489389D01*
X77396484Y-94449000D01*
X77603516Y-94449000D01*
X77806564Y-94489389D01*
X77806564Y-94489389D01*
G37*
G36*
X72806564Y-94489389D02*
G01*
X72997833Y-94568615D01*
X72997835Y-94568616D01*
X73169973Y-94683635D01*
X73316365Y-94830027D01*
X73431385Y-95002167D01*
X73510611Y-95193436D01*
X73551000Y-95396484D01*
X73551000Y-95603516D01*
X73510611Y-95806564D01*
X73431385Y-95997833D01*
X73431384Y-95997835D01*
X73316365Y-96169973D01*
X73169973Y-96316365D01*
X72997835Y-96431384D01*
X72997834Y-96431385D01*
X72997833Y-96431385D01*
X72806564Y-96510611D01*
X72603516Y-96551000D01*
X72396484Y-96551000D01*
X72193436Y-96510611D01*
X72002167Y-96431385D01*
X72002166Y-96431385D01*
X72002165Y-96431384D01*
X71830027Y-96316365D01*
X71683635Y-96169973D01*
X71568616Y-95997835D01*
X71568615Y-95997833D01*
X71489389Y-95806564D01*
X71449000Y-95603516D01*
X71449000Y-95396484D01*
X71489389Y-95193436D01*
X71568615Y-95002167D01*
X71683635Y-94830027D01*
X71830027Y-94683635D01*
X72002165Y-94568616D01*
X72002167Y-94568615D01*
X72193436Y-94489389D01*
X72396484Y-94449000D01*
X72603516Y-94449000D01*
X72806564Y-94489389D01*
X72806564Y-94489389D01*
G37*
G36*
X157806564Y-94489389D02*
G01*
X157997833Y-94568615D01*
X157997835Y-94568616D01*
X158169973Y-94683635D01*
X158316365Y-94830027D01*
X158431385Y-95002167D01*
X158510611Y-95193436D01*
X158551000Y-95396484D01*
X158551000Y-95603516D01*
X158510611Y-95806564D01*
X158431385Y-95997833D01*
X158431384Y-95997835D01*
X158316365Y-96169973D01*
X158169973Y-96316365D01*
X157997835Y-96431384D01*
X157997834Y-96431385D01*
X157997833Y-96431385D01*
X157806564Y-96510611D01*
X157603516Y-96551000D01*
X157396484Y-96551000D01*
X157193436Y-96510611D01*
X157002167Y-96431385D01*
X157002166Y-96431385D01*
X157002165Y-96431384D01*
X156830027Y-96316365D01*
X156683635Y-96169973D01*
X156568616Y-95997835D01*
X156568615Y-95997833D01*
X156489389Y-95806564D01*
X156449000Y-95603516D01*
X156449000Y-95396484D01*
X156489389Y-95193436D01*
X156568615Y-95002167D01*
X156683635Y-94830027D01*
X156830027Y-94683635D01*
X157002165Y-94568616D01*
X157002167Y-94568615D01*
X157193436Y-94489389D01*
X157396484Y-94449000D01*
X157603516Y-94449000D01*
X157806564Y-94489389D01*
X157806564Y-94489389D01*
G37*
G36*
X137806564Y-94489389D02*
G01*
X137997833Y-94568615D01*
X137997835Y-94568616D01*
X138169973Y-94683635D01*
X138316365Y-94830027D01*
X138431385Y-95002167D01*
X138510611Y-95193436D01*
X138551000Y-95396484D01*
X138551000Y-95603516D01*
X138510611Y-95806564D01*
X138431385Y-95997833D01*
X138431384Y-95997835D01*
X138316365Y-96169973D01*
X138169973Y-96316365D01*
X137997835Y-96431384D01*
X137997834Y-96431385D01*
X137997833Y-96431385D01*
X137806564Y-96510611D01*
X137603516Y-96551000D01*
X137396484Y-96551000D01*
X137193436Y-96510611D01*
X137002167Y-96431385D01*
X137002166Y-96431385D01*
X137002165Y-96431384D01*
X136830027Y-96316365D01*
X136683635Y-96169973D01*
X136568616Y-95997835D01*
X136568615Y-95997833D01*
X136489389Y-95806564D01*
X136449000Y-95603516D01*
X136449000Y-95396484D01*
X136489389Y-95193436D01*
X136568615Y-95002167D01*
X136683635Y-94830027D01*
X136830027Y-94683635D01*
X137002165Y-94568616D01*
X137002167Y-94568615D01*
X137193436Y-94489389D01*
X137396484Y-94449000D01*
X137603516Y-94449000D01*
X137806564Y-94489389D01*
X137806564Y-94489389D01*
G37*
G36*
X130751000Y-91401000D02*
G01*
X129749000Y-91401000D01*
X129749000Y-90499000D01*
X130751000Y-90499000D01*
X130751000Y-91401000D01*
X130751000Y-91401000D01*
G37*
G36*
X90751000Y-91401000D02*
G01*
X89749000Y-91401000D01*
X89749000Y-90499000D01*
X90751000Y-90499000D01*
X90751000Y-91401000D01*
X90751000Y-91401000D01*
G37*
G36*
X151251000Y-91401000D02*
G01*
X150249000Y-91401000D01*
X150249000Y-90499000D01*
X151251000Y-90499000D01*
X151251000Y-91401000D01*
X151251000Y-91401000D01*
G37*
G36*
X110751000Y-91401000D02*
G01*
X109749000Y-91401000D01*
X109749000Y-90499000D01*
X110751000Y-90499000D01*
X110751000Y-91401000D01*
X110751000Y-91401000D01*
G37*
G36*
X70751000Y-91401000D02*
G01*
X69749000Y-91401000D01*
X69749000Y-90499000D01*
X70751000Y-90499000D01*
X70751000Y-91401000D01*
X70751000Y-91401000D01*
G37*
G36*
X120059468Y-89253565D02*
G01*
X120098138Y-89265296D01*
X120133777Y-89284346D01*
X120165017Y-89309983D01*
X120190654Y-89341223D01*
X120209704Y-89376862D01*
X120221435Y-89415532D01*
X120226000Y-89461888D01*
X120226000Y-90538112D01*
X120221435Y-90584468D01*
X120209704Y-90623138D01*
X120190654Y-90658777D01*
X120165017Y-90690017D01*
X120133777Y-90715654D01*
X120098138Y-90734704D01*
X120059468Y-90746435D01*
X120013112Y-90751000D01*
X119361888Y-90751000D01*
X119315532Y-90746435D01*
X119276862Y-90734704D01*
X119241223Y-90715654D01*
X119209983Y-90690017D01*
X119184346Y-90658777D01*
X119165296Y-90623138D01*
X119153565Y-90584468D01*
X119149000Y-90538112D01*
X119149000Y-89461888D01*
X119153565Y-89415532D01*
X119165296Y-89376862D01*
X119184346Y-89341223D01*
X119209983Y-89309983D01*
X119241223Y-89284346D01*
X119276862Y-89265296D01*
X119315532Y-89253565D01*
X119361888Y-89249000D01*
X120013112Y-89249000D01*
X120059468Y-89253565D01*
X120059468Y-89253565D01*
G37*
G36*
X118184468Y-89253565D02*
G01*
X118223138Y-89265296D01*
X118258777Y-89284346D01*
X118290017Y-89309983D01*
X118315654Y-89341223D01*
X118334704Y-89376862D01*
X118346435Y-89415532D01*
X118351000Y-89461888D01*
X118351000Y-90538112D01*
X118346435Y-90584468D01*
X118334704Y-90623138D01*
X118315654Y-90658777D01*
X118290017Y-90690017D01*
X118258777Y-90715654D01*
X118223138Y-90734704D01*
X118184468Y-90746435D01*
X118138112Y-90751000D01*
X117486888Y-90751000D01*
X117440532Y-90746435D01*
X117401862Y-90734704D01*
X117366223Y-90715654D01*
X117334983Y-90690017D01*
X117309346Y-90658777D01*
X117290296Y-90623138D01*
X117278565Y-90584468D01*
X117274000Y-90538112D01*
X117274000Y-89461888D01*
X117278565Y-89415532D01*
X117290296Y-89376862D01*
X117309346Y-89341223D01*
X117334983Y-89309983D01*
X117366223Y-89284346D01*
X117401862Y-89265296D01*
X117440532Y-89253565D01*
X117486888Y-89249000D01*
X118138112Y-89249000D01*
X118184468Y-89253565D01*
X118184468Y-89253565D01*
G37*
G36*
X79996968Y-89253565D02*
G01*
X80035638Y-89265296D01*
X80071277Y-89284346D01*
X80102517Y-89309983D01*
X80128154Y-89341223D01*
X80147204Y-89376862D01*
X80158935Y-89415532D01*
X80163500Y-89461888D01*
X80163500Y-90538112D01*
X80158935Y-90584468D01*
X80147204Y-90623138D01*
X80128154Y-90658777D01*
X80102517Y-90690017D01*
X80071277Y-90715654D01*
X80035638Y-90734704D01*
X79996968Y-90746435D01*
X79950612Y-90751000D01*
X79299388Y-90751000D01*
X79253032Y-90746435D01*
X79214362Y-90734704D01*
X79178723Y-90715654D01*
X79147483Y-90690017D01*
X79121846Y-90658777D01*
X79102796Y-90623138D01*
X79091065Y-90584468D01*
X79086500Y-90538112D01*
X79086500Y-89461888D01*
X79091065Y-89415532D01*
X79102796Y-89376862D01*
X79121846Y-89341223D01*
X79147483Y-89309983D01*
X79178723Y-89284346D01*
X79214362Y-89265296D01*
X79253032Y-89253565D01*
X79299388Y-89249000D01*
X79950612Y-89249000D01*
X79996968Y-89253565D01*
X79996968Y-89253565D01*
G37*
G36*
X100059468Y-89253565D02*
G01*
X100098138Y-89265296D01*
X100133777Y-89284346D01*
X100165017Y-89309983D01*
X100190654Y-89341223D01*
X100209704Y-89376862D01*
X100221435Y-89415532D01*
X100226000Y-89461888D01*
X100226000Y-90538112D01*
X100221435Y-90584468D01*
X100209704Y-90623138D01*
X100190654Y-90658777D01*
X100165017Y-90690017D01*
X100133777Y-90715654D01*
X100098138Y-90734704D01*
X100059468Y-90746435D01*
X100013112Y-90751000D01*
X99361888Y-90751000D01*
X99315532Y-90746435D01*
X99276862Y-90734704D01*
X99241223Y-90715654D01*
X99209983Y-90690017D01*
X99184346Y-90658777D01*
X99165296Y-90623138D01*
X99153565Y-90584468D01*
X99149000Y-90538112D01*
X99149000Y-89461888D01*
X99153565Y-89415532D01*
X99165296Y-89376862D01*
X99184346Y-89341223D01*
X99209983Y-89309983D01*
X99241223Y-89284346D01*
X99276862Y-89265296D01*
X99315532Y-89253565D01*
X99361888Y-89249000D01*
X100013112Y-89249000D01*
X100059468Y-89253565D01*
X100059468Y-89253565D01*
G37*
G36*
X96309468Y-89253565D02*
G01*
X96348138Y-89265296D01*
X96383777Y-89284346D01*
X96415017Y-89309983D01*
X96440654Y-89341223D01*
X96459704Y-89376862D01*
X96471435Y-89415532D01*
X96476000Y-89461888D01*
X96476000Y-90538112D01*
X96471435Y-90584468D01*
X96459704Y-90623138D01*
X96440654Y-90658777D01*
X96415017Y-90690017D01*
X96383777Y-90715654D01*
X96348138Y-90734704D01*
X96309468Y-90746435D01*
X96263112Y-90751000D01*
X95611888Y-90751000D01*
X95565532Y-90746435D01*
X95526862Y-90734704D01*
X95491223Y-90715654D01*
X95459983Y-90690017D01*
X95434346Y-90658777D01*
X95415296Y-90623138D01*
X95403565Y-90584468D01*
X95399000Y-90538112D01*
X95399000Y-89461888D01*
X95403565Y-89415532D01*
X95415296Y-89376862D01*
X95434346Y-89341223D01*
X95459983Y-89309983D01*
X95491223Y-89284346D01*
X95526862Y-89265296D01*
X95565532Y-89253565D01*
X95611888Y-89249000D01*
X96263112Y-89249000D01*
X96309468Y-89253565D01*
X96309468Y-89253565D01*
G37*
G36*
X98184468Y-89253565D02*
G01*
X98223138Y-89265296D01*
X98258777Y-89284346D01*
X98290017Y-89309983D01*
X98315654Y-89341223D01*
X98334704Y-89376862D01*
X98346435Y-89415532D01*
X98351000Y-89461888D01*
X98351000Y-90538112D01*
X98346435Y-90584468D01*
X98334704Y-90623138D01*
X98315654Y-90658777D01*
X98290017Y-90690017D01*
X98258777Y-90715654D01*
X98223138Y-90734704D01*
X98184468Y-90746435D01*
X98138112Y-90751000D01*
X97486888Y-90751000D01*
X97440532Y-90746435D01*
X97401862Y-90734704D01*
X97366223Y-90715654D01*
X97334983Y-90690017D01*
X97309346Y-90658777D01*
X97290296Y-90623138D01*
X97278565Y-90584468D01*
X97274000Y-90538112D01*
X97274000Y-89461888D01*
X97278565Y-89415532D01*
X97290296Y-89376862D01*
X97309346Y-89341223D01*
X97334983Y-89309983D01*
X97366223Y-89284346D01*
X97401862Y-89265296D01*
X97440532Y-89253565D01*
X97486888Y-89249000D01*
X98138112Y-89249000D01*
X98184468Y-89253565D01*
X98184468Y-89253565D01*
G37*
G36*
X138184468Y-89253565D02*
G01*
X138223138Y-89265296D01*
X138258777Y-89284346D01*
X138290017Y-89309983D01*
X138315654Y-89341223D01*
X138334704Y-89376862D01*
X138346435Y-89415532D01*
X138351000Y-89461888D01*
X138351000Y-90538112D01*
X138346435Y-90584468D01*
X138334704Y-90623138D01*
X138315654Y-90658777D01*
X138290017Y-90690017D01*
X138258777Y-90715654D01*
X138223138Y-90734704D01*
X138184468Y-90746435D01*
X138138112Y-90751000D01*
X137486888Y-90751000D01*
X137440532Y-90746435D01*
X137401862Y-90734704D01*
X137366223Y-90715654D01*
X137334983Y-90690017D01*
X137309346Y-90658777D01*
X137290296Y-90623138D01*
X137278565Y-90584468D01*
X137274000Y-90538112D01*
X137274000Y-89461888D01*
X137278565Y-89415532D01*
X137290296Y-89376862D01*
X137309346Y-89341223D01*
X137334983Y-89309983D01*
X137366223Y-89284346D01*
X137401862Y-89265296D01*
X137440532Y-89253565D01*
X137486888Y-89249000D01*
X138138112Y-89249000D01*
X138184468Y-89253565D01*
X138184468Y-89253565D01*
G37*
G36*
X140059468Y-89253565D02*
G01*
X140098138Y-89265296D01*
X140133777Y-89284346D01*
X140165017Y-89309983D01*
X140190654Y-89341223D01*
X140209704Y-89376862D01*
X140221435Y-89415532D01*
X140226000Y-89461888D01*
X140226000Y-90538112D01*
X140221435Y-90584468D01*
X140209704Y-90623138D01*
X140190654Y-90658777D01*
X140165017Y-90690017D01*
X140133777Y-90715654D01*
X140098138Y-90734704D01*
X140059468Y-90746435D01*
X140013112Y-90751000D01*
X139361888Y-90751000D01*
X139315532Y-90746435D01*
X139276862Y-90734704D01*
X139241223Y-90715654D01*
X139209983Y-90690017D01*
X139184346Y-90658777D01*
X139165296Y-90623138D01*
X139153565Y-90584468D01*
X139149000Y-90538112D01*
X139149000Y-89461888D01*
X139153565Y-89415532D01*
X139165296Y-89376862D01*
X139184346Y-89341223D01*
X139209983Y-89309983D01*
X139241223Y-89284346D01*
X139276862Y-89265296D01*
X139315532Y-89253565D01*
X139361888Y-89249000D01*
X140013112Y-89249000D01*
X140059468Y-89253565D01*
X140059468Y-89253565D01*
G37*
G36*
X160559468Y-89253565D02*
G01*
X160598138Y-89265296D01*
X160633777Y-89284346D01*
X160665017Y-89309983D01*
X160690654Y-89341223D01*
X160709704Y-89376862D01*
X160721435Y-89415532D01*
X160726000Y-89461888D01*
X160726000Y-90538112D01*
X160721435Y-90584468D01*
X160709704Y-90623138D01*
X160690654Y-90658777D01*
X160665017Y-90690017D01*
X160633777Y-90715654D01*
X160598138Y-90734704D01*
X160559468Y-90746435D01*
X160513112Y-90751000D01*
X159861888Y-90751000D01*
X159815532Y-90746435D01*
X159776862Y-90734704D01*
X159741223Y-90715654D01*
X159709983Y-90690017D01*
X159684346Y-90658777D01*
X159665296Y-90623138D01*
X159653565Y-90584468D01*
X159649000Y-90538112D01*
X159649000Y-89461888D01*
X159653565Y-89415532D01*
X159665296Y-89376862D01*
X159684346Y-89341223D01*
X159709983Y-89309983D01*
X159741223Y-89284346D01*
X159776862Y-89265296D01*
X159815532Y-89253565D01*
X159861888Y-89249000D01*
X160513112Y-89249000D01*
X160559468Y-89253565D01*
X160559468Y-89253565D01*
G37*
G36*
X158684468Y-89253565D02*
G01*
X158723138Y-89265296D01*
X158758777Y-89284346D01*
X158790017Y-89309983D01*
X158815654Y-89341223D01*
X158834704Y-89376862D01*
X158846435Y-89415532D01*
X158851000Y-89461888D01*
X158851000Y-90538112D01*
X158846435Y-90584468D01*
X158834704Y-90623138D01*
X158815654Y-90658777D01*
X158790017Y-90690017D01*
X158758777Y-90715654D01*
X158723138Y-90734704D01*
X158684468Y-90746435D01*
X158638112Y-90751000D01*
X157986888Y-90751000D01*
X157940532Y-90746435D01*
X157901862Y-90734704D01*
X157866223Y-90715654D01*
X157834983Y-90690017D01*
X157809346Y-90658777D01*
X157790296Y-90623138D01*
X157778565Y-90584468D01*
X157774000Y-90538112D01*
X157774000Y-89461888D01*
X157778565Y-89415532D01*
X157790296Y-89376862D01*
X157809346Y-89341223D01*
X157834983Y-89309983D01*
X157866223Y-89284346D01*
X157901862Y-89265296D01*
X157940532Y-89253565D01*
X157986888Y-89249000D01*
X158638112Y-89249000D01*
X158684468Y-89253565D01*
X158684468Y-89253565D01*
G37*
G36*
X78121968Y-89253565D02*
G01*
X78160638Y-89265296D01*
X78196277Y-89284346D01*
X78227517Y-89309983D01*
X78253154Y-89341223D01*
X78272204Y-89376862D01*
X78283935Y-89415532D01*
X78288500Y-89461888D01*
X78288500Y-90538112D01*
X78283935Y-90584468D01*
X78272204Y-90623138D01*
X78253154Y-90658777D01*
X78227517Y-90690017D01*
X78196277Y-90715654D01*
X78160638Y-90734704D01*
X78121968Y-90746435D01*
X78075612Y-90751000D01*
X77424388Y-90751000D01*
X77378032Y-90746435D01*
X77339362Y-90734704D01*
X77303723Y-90715654D01*
X77272483Y-90690017D01*
X77246846Y-90658777D01*
X77227796Y-90623138D01*
X77216065Y-90584468D01*
X77211500Y-90538112D01*
X77211500Y-89461888D01*
X77216065Y-89415532D01*
X77227796Y-89376862D01*
X77246846Y-89341223D01*
X77272483Y-89309983D01*
X77303723Y-89284346D01*
X77339362Y-89265296D01*
X77378032Y-89253565D01*
X77424388Y-89249000D01*
X78075612Y-89249000D01*
X78121968Y-89253565D01*
X78121968Y-89253565D01*
G37*
G36*
X136309468Y-89253565D02*
G01*
X136348138Y-89265296D01*
X136383777Y-89284346D01*
X136415017Y-89309983D01*
X136440654Y-89341223D01*
X136459704Y-89376862D01*
X136471435Y-89415532D01*
X136476000Y-89461888D01*
X136476000Y-90538112D01*
X136471435Y-90584468D01*
X136459704Y-90623138D01*
X136440654Y-90658777D01*
X136415017Y-90690017D01*
X136383777Y-90715654D01*
X136348138Y-90734704D01*
X136309468Y-90746435D01*
X136263112Y-90751000D01*
X135611888Y-90751000D01*
X135565532Y-90746435D01*
X135526862Y-90734704D01*
X135491223Y-90715654D01*
X135459983Y-90690017D01*
X135434346Y-90658777D01*
X135415296Y-90623138D01*
X135403565Y-90584468D01*
X135399000Y-90538112D01*
X135399000Y-89461888D01*
X135403565Y-89415532D01*
X135415296Y-89376862D01*
X135434346Y-89341223D01*
X135459983Y-89309983D01*
X135491223Y-89284346D01*
X135526862Y-89265296D01*
X135565532Y-89253565D01*
X135611888Y-89249000D01*
X136263112Y-89249000D01*
X136309468Y-89253565D01*
X136309468Y-89253565D01*
G37*
G36*
X116309468Y-89253565D02*
G01*
X116348138Y-89265296D01*
X116383777Y-89284346D01*
X116415017Y-89309983D01*
X116440654Y-89341223D01*
X116459704Y-89376862D01*
X116471435Y-89415532D01*
X116476000Y-89461888D01*
X116476000Y-90538112D01*
X116471435Y-90584468D01*
X116459704Y-90623138D01*
X116440654Y-90658777D01*
X116415017Y-90690017D01*
X116383777Y-90715654D01*
X116348138Y-90734704D01*
X116309468Y-90746435D01*
X116263112Y-90751000D01*
X115611888Y-90751000D01*
X115565532Y-90746435D01*
X115526862Y-90734704D01*
X115491223Y-90715654D01*
X115459983Y-90690017D01*
X115434346Y-90658777D01*
X115415296Y-90623138D01*
X115403565Y-90584468D01*
X115399000Y-90538112D01*
X115399000Y-89461888D01*
X115403565Y-89415532D01*
X115415296Y-89376862D01*
X115434346Y-89341223D01*
X115459983Y-89309983D01*
X115491223Y-89284346D01*
X115526862Y-89265296D01*
X115565532Y-89253565D01*
X115611888Y-89249000D01*
X116263112Y-89249000D01*
X116309468Y-89253565D01*
X116309468Y-89253565D01*
G37*
G36*
X154934468Y-89253565D02*
G01*
X154973138Y-89265296D01*
X155008777Y-89284346D01*
X155040017Y-89309983D01*
X155065654Y-89341223D01*
X155084704Y-89376862D01*
X155096435Y-89415532D01*
X155101000Y-89461888D01*
X155101000Y-90538112D01*
X155096435Y-90584468D01*
X155084704Y-90623138D01*
X155065654Y-90658777D01*
X155040017Y-90690017D01*
X155008777Y-90715654D01*
X154973138Y-90734704D01*
X154934468Y-90746435D01*
X154888112Y-90751000D01*
X154236888Y-90751000D01*
X154190532Y-90746435D01*
X154151862Y-90734704D01*
X154116223Y-90715654D01*
X154084983Y-90690017D01*
X154059346Y-90658777D01*
X154040296Y-90623138D01*
X154028565Y-90584468D01*
X154024000Y-90538112D01*
X154024000Y-89461888D01*
X154028565Y-89415532D01*
X154040296Y-89376862D01*
X154059346Y-89341223D01*
X154084983Y-89309983D01*
X154116223Y-89284346D01*
X154151862Y-89265296D01*
X154190532Y-89253565D01*
X154236888Y-89249000D01*
X154888112Y-89249000D01*
X154934468Y-89253565D01*
X154934468Y-89253565D01*
G37*
G36*
X156809468Y-89253565D02*
G01*
X156848138Y-89265296D01*
X156883777Y-89284346D01*
X156915017Y-89309983D01*
X156940654Y-89341223D01*
X156959704Y-89376862D01*
X156971435Y-89415532D01*
X156976000Y-89461888D01*
X156976000Y-90538112D01*
X156971435Y-90584468D01*
X156959704Y-90623138D01*
X156940654Y-90658777D01*
X156915017Y-90690017D01*
X156883777Y-90715654D01*
X156848138Y-90734704D01*
X156809468Y-90746435D01*
X156763112Y-90751000D01*
X156111888Y-90751000D01*
X156065532Y-90746435D01*
X156026862Y-90734704D01*
X155991223Y-90715654D01*
X155959983Y-90690017D01*
X155934346Y-90658777D01*
X155915296Y-90623138D01*
X155903565Y-90584468D01*
X155899000Y-90538112D01*
X155899000Y-89461888D01*
X155903565Y-89415532D01*
X155915296Y-89376862D01*
X155934346Y-89341223D01*
X155959983Y-89309983D01*
X155991223Y-89284346D01*
X156026862Y-89265296D01*
X156065532Y-89253565D01*
X156111888Y-89249000D01*
X156763112Y-89249000D01*
X156809468Y-89253565D01*
X156809468Y-89253565D01*
G37*
G36*
X94434468Y-89253565D02*
G01*
X94473138Y-89265296D01*
X94508777Y-89284346D01*
X94540017Y-89309983D01*
X94565654Y-89341223D01*
X94584704Y-89376862D01*
X94596435Y-89415532D01*
X94601000Y-89461888D01*
X94601000Y-90538112D01*
X94596435Y-90584468D01*
X94584704Y-90623138D01*
X94565654Y-90658777D01*
X94540017Y-90690017D01*
X94508777Y-90715654D01*
X94473138Y-90734704D01*
X94434468Y-90746435D01*
X94388112Y-90751000D01*
X93736888Y-90751000D01*
X93690532Y-90746435D01*
X93651862Y-90734704D01*
X93616223Y-90715654D01*
X93584983Y-90690017D01*
X93559346Y-90658777D01*
X93540296Y-90623138D01*
X93528565Y-90584468D01*
X93524000Y-90538112D01*
X93524000Y-89461888D01*
X93528565Y-89415532D01*
X93540296Y-89376862D01*
X93559346Y-89341223D01*
X93584983Y-89309983D01*
X93616223Y-89284346D01*
X93651862Y-89265296D01*
X93690532Y-89253565D01*
X93736888Y-89249000D01*
X94388112Y-89249000D01*
X94434468Y-89253565D01*
X94434468Y-89253565D01*
G37*
G36*
X74434468Y-89253565D02*
G01*
X74473138Y-89265296D01*
X74508777Y-89284346D01*
X74540017Y-89309983D01*
X74565654Y-89341223D01*
X74584704Y-89376862D01*
X74596435Y-89415532D01*
X74601000Y-89461888D01*
X74601000Y-90538112D01*
X74596435Y-90584468D01*
X74584704Y-90623138D01*
X74565654Y-90658777D01*
X74540017Y-90690017D01*
X74508777Y-90715654D01*
X74473138Y-90734704D01*
X74434468Y-90746435D01*
X74388112Y-90751000D01*
X73736888Y-90751000D01*
X73690532Y-90746435D01*
X73651862Y-90734704D01*
X73616223Y-90715654D01*
X73584983Y-90690017D01*
X73559346Y-90658777D01*
X73540296Y-90623138D01*
X73528565Y-90584468D01*
X73524000Y-90538112D01*
X73524000Y-89461888D01*
X73528565Y-89415532D01*
X73540296Y-89376862D01*
X73559346Y-89341223D01*
X73584983Y-89309983D01*
X73616223Y-89284346D01*
X73651862Y-89265296D01*
X73690532Y-89253565D01*
X73736888Y-89249000D01*
X74388112Y-89249000D01*
X74434468Y-89253565D01*
X74434468Y-89253565D01*
G37*
G36*
X76309468Y-89253565D02*
G01*
X76348138Y-89265296D01*
X76383777Y-89284346D01*
X76415017Y-89309983D01*
X76440654Y-89341223D01*
X76459704Y-89376862D01*
X76471435Y-89415532D01*
X76476000Y-89461888D01*
X76476000Y-90538112D01*
X76471435Y-90584468D01*
X76459704Y-90623138D01*
X76440654Y-90658777D01*
X76415017Y-90690017D01*
X76383777Y-90715654D01*
X76348138Y-90734704D01*
X76309468Y-90746435D01*
X76263112Y-90751000D01*
X75611888Y-90751000D01*
X75565532Y-90746435D01*
X75526862Y-90734704D01*
X75491223Y-90715654D01*
X75459983Y-90690017D01*
X75434346Y-90658777D01*
X75415296Y-90623138D01*
X75403565Y-90584468D01*
X75399000Y-90538112D01*
X75399000Y-89461888D01*
X75403565Y-89415532D01*
X75415296Y-89376862D01*
X75434346Y-89341223D01*
X75459983Y-89309983D01*
X75491223Y-89284346D01*
X75526862Y-89265296D01*
X75565532Y-89253565D01*
X75611888Y-89249000D01*
X76263112Y-89249000D01*
X76309468Y-89253565D01*
X76309468Y-89253565D01*
G37*
G36*
X114434468Y-89253565D02*
G01*
X114473138Y-89265296D01*
X114508777Y-89284346D01*
X114540017Y-89309983D01*
X114565654Y-89341223D01*
X114584704Y-89376862D01*
X114596435Y-89415532D01*
X114601000Y-89461888D01*
X114601000Y-90538112D01*
X114596435Y-90584468D01*
X114584704Y-90623138D01*
X114565654Y-90658777D01*
X114540017Y-90690017D01*
X114508777Y-90715654D01*
X114473138Y-90734704D01*
X114434468Y-90746435D01*
X114388112Y-90751000D01*
X113736888Y-90751000D01*
X113690532Y-90746435D01*
X113651862Y-90734704D01*
X113616223Y-90715654D01*
X113584983Y-90690017D01*
X113559346Y-90658777D01*
X113540296Y-90623138D01*
X113528565Y-90584468D01*
X113524000Y-90538112D01*
X113524000Y-89461888D01*
X113528565Y-89415532D01*
X113540296Y-89376862D01*
X113559346Y-89341223D01*
X113584983Y-89309983D01*
X113616223Y-89284346D01*
X113651862Y-89265296D01*
X113690532Y-89253565D01*
X113736888Y-89249000D01*
X114388112Y-89249000D01*
X114434468Y-89253565D01*
X114434468Y-89253565D01*
G37*
G36*
X134434468Y-89253565D02*
G01*
X134473138Y-89265296D01*
X134508777Y-89284346D01*
X134540017Y-89309983D01*
X134565654Y-89341223D01*
X134584704Y-89376862D01*
X134596435Y-89415532D01*
X134601000Y-89461888D01*
X134601000Y-90538112D01*
X134596435Y-90584468D01*
X134584704Y-90623138D01*
X134565654Y-90658777D01*
X134540017Y-90690017D01*
X134508777Y-90715654D01*
X134473138Y-90734704D01*
X134434468Y-90746435D01*
X134388112Y-90751000D01*
X133736888Y-90751000D01*
X133690532Y-90746435D01*
X133651862Y-90734704D01*
X133616223Y-90715654D01*
X133584983Y-90690017D01*
X133559346Y-90658777D01*
X133540296Y-90623138D01*
X133528565Y-90584468D01*
X133524000Y-90538112D01*
X133524000Y-89461888D01*
X133528565Y-89415532D01*
X133540296Y-89376862D01*
X133559346Y-89341223D01*
X133584983Y-89309983D01*
X133616223Y-89284346D01*
X133651862Y-89265296D01*
X133690532Y-89253565D01*
X133736888Y-89249000D01*
X134388112Y-89249000D01*
X134434468Y-89253565D01*
X134434468Y-89253565D01*
G37*
G36*
X132751000Y-90451000D02*
G01*
X131749000Y-90451000D01*
X131749000Y-89549000D01*
X132751000Y-89549000D01*
X132751000Y-90451000D01*
X132751000Y-90451000D01*
G37*
G36*
X153251000Y-90451000D02*
G01*
X152249000Y-90451000D01*
X152249000Y-89549000D01*
X153251000Y-89549000D01*
X153251000Y-90451000D01*
X153251000Y-90451000D01*
G37*
G36*
X72751000Y-90451000D02*
G01*
X71749000Y-90451000D01*
X71749000Y-89549000D01*
X72751000Y-89549000D01*
X72751000Y-90451000D01*
X72751000Y-90451000D01*
G37*
G36*
X112751000Y-90451000D02*
G01*
X111749000Y-90451000D01*
X111749000Y-89549000D01*
X112751000Y-89549000D01*
X112751000Y-90451000D01*
X112751000Y-90451000D01*
G37*
G36*
X92751000Y-90451000D02*
G01*
X91749000Y-90451000D01*
X91749000Y-89549000D01*
X92751000Y-89549000D01*
X92751000Y-90451000D01*
X92751000Y-90451000D01*
G37*
G36*
X90751000Y-89501000D02*
G01*
X89749000Y-89501000D01*
X89749000Y-88599000D01*
X90751000Y-88599000D01*
X90751000Y-89501000D01*
X90751000Y-89501000D01*
G37*
G36*
X151251000Y-89501000D02*
G01*
X150249000Y-89501000D01*
X150249000Y-88599000D01*
X151251000Y-88599000D01*
X151251000Y-89501000D01*
X151251000Y-89501000D01*
G37*
G36*
X130751000Y-89501000D02*
G01*
X129749000Y-89501000D01*
X129749000Y-88599000D01*
X130751000Y-88599000D01*
X130751000Y-89501000D01*
X130751000Y-89501000D01*
G37*
G36*
X110751000Y-89501000D02*
G01*
X109749000Y-89501000D01*
X109749000Y-88599000D01*
X110751000Y-88599000D01*
X110751000Y-89501000D01*
X110751000Y-89501000D01*
G37*
G36*
X70751000Y-89501000D02*
G01*
X69749000Y-89501000D01*
X69749000Y-88599000D01*
X70751000Y-88599000D01*
X70751000Y-89501000D01*
X70751000Y-89501000D01*
G37*
G36*
X145256564Y-82289389D02*
G01*
X145447833Y-82368615D01*
X145447835Y-82368616D01*
X145619973Y-82483635D01*
X145766365Y-82630027D01*
X145881385Y-82802167D01*
X145960611Y-82993436D01*
X146001000Y-83196484D01*
X146001000Y-83403516D01*
X145960611Y-83606564D01*
X145881385Y-83797833D01*
X145881384Y-83797835D01*
X145766365Y-83969973D01*
X145619973Y-84116365D01*
X145447835Y-84231384D01*
X145447834Y-84231385D01*
X145447833Y-84231385D01*
X145256564Y-84310611D01*
X145053516Y-84351000D01*
X144846484Y-84351000D01*
X144643436Y-84310611D01*
X144452167Y-84231385D01*
X144452166Y-84231385D01*
X144452165Y-84231384D01*
X144280027Y-84116365D01*
X144133635Y-83969973D01*
X144018616Y-83797835D01*
X144018615Y-83797833D01*
X143939389Y-83606564D01*
X143899000Y-83403516D01*
X143899000Y-83196484D01*
X143939389Y-82993436D01*
X144018615Y-82802167D01*
X144133635Y-82630027D01*
X144280027Y-82483635D01*
X144452165Y-82368616D01*
X144452167Y-82368615D01*
X144643436Y-82289389D01*
X144846484Y-82249000D01*
X145053516Y-82249000D01*
X145256564Y-82289389D01*
X145256564Y-82289389D01*
G37*
G36*
X91608014Y-81456973D02*
G01*
X91711878Y-81488479D01*
X91755907Y-81512013D01*
X91807599Y-81539643D01*
X91807601Y-81539644D01*
X91807600Y-81539644D01*
X91891501Y-81608499D01*
X91960356Y-81692400D01*
X92011521Y-81788121D01*
X92043027Y-81891985D01*
X92051000Y-81972933D01*
X92051000Y-83027067D01*
X92043027Y-83108015D01*
X92011521Y-83211879D01*
X92011519Y-83211882D01*
X91960357Y-83307600D01*
X91891501Y-83391501D01*
X91807600Y-83460357D01*
X91739055Y-83496995D01*
X91711879Y-83511521D01*
X91608015Y-83543027D01*
X91500000Y-83553666D01*
X91391986Y-83543027D01*
X91288122Y-83511521D01*
X91260946Y-83496995D01*
X91192401Y-83460357D01*
X91108500Y-83391501D01*
X91039644Y-83307600D01*
X90988482Y-83211882D01*
X90988480Y-83211879D01*
X90956974Y-83108015D01*
X90949001Y-83027067D01*
X90949000Y-81972934D01*
X90956973Y-81891986D01*
X90988479Y-81788122D01*
X91039644Y-81692400D01*
X91108499Y-81608499D01*
X91192400Y-81539644D01*
X91192399Y-81539644D01*
X91192401Y-81539643D01*
X91244093Y-81512013D01*
X91288121Y-81488479D01*
X91391985Y-81456973D01*
X91500000Y-81446334D01*
X91608014Y-81456973D01*
X91608014Y-81456973D01*
G37*
G36*
X88608014Y-81456973D02*
G01*
X88711878Y-81488479D01*
X88755907Y-81512013D01*
X88807599Y-81539643D01*
X88807601Y-81539644D01*
X88807600Y-81539644D01*
X88891501Y-81608499D01*
X88960356Y-81692400D01*
X89011521Y-81788121D01*
X89043027Y-81891985D01*
X89051000Y-81972933D01*
X89051000Y-83027067D01*
X89043027Y-83108015D01*
X89011521Y-83211879D01*
X89011519Y-83211882D01*
X88960357Y-83307600D01*
X88891501Y-83391501D01*
X88807600Y-83460357D01*
X88739055Y-83496995D01*
X88711879Y-83511521D01*
X88608015Y-83543027D01*
X88500000Y-83553666D01*
X88391986Y-83543027D01*
X88288122Y-83511521D01*
X88260946Y-83496995D01*
X88192401Y-83460357D01*
X88108500Y-83391501D01*
X88039644Y-83307600D01*
X87988482Y-83211882D01*
X87988480Y-83211879D01*
X87956974Y-83108015D01*
X87949001Y-83027067D01*
X87949000Y-81972934D01*
X87956973Y-81891986D01*
X87988479Y-81788122D01*
X88039644Y-81692400D01*
X88108499Y-81608499D01*
X88192400Y-81539644D01*
X88192399Y-81539644D01*
X88192401Y-81539643D01*
X88244093Y-81512013D01*
X88288121Y-81488479D01*
X88391985Y-81456973D01*
X88500000Y-81446334D01*
X88608014Y-81456973D01*
X88608014Y-81456973D01*
G37*
G36*
X87108014Y-81456973D02*
G01*
X87211878Y-81488479D01*
X87255907Y-81512013D01*
X87307599Y-81539643D01*
X87307601Y-81539644D01*
X87307600Y-81539644D01*
X87391501Y-81608499D01*
X87460356Y-81692400D01*
X87511521Y-81788121D01*
X87543027Y-81891985D01*
X87551000Y-81972933D01*
X87551000Y-83027067D01*
X87543027Y-83108015D01*
X87511521Y-83211879D01*
X87511519Y-83211882D01*
X87460357Y-83307600D01*
X87391501Y-83391501D01*
X87307600Y-83460357D01*
X87239055Y-83496995D01*
X87211879Y-83511521D01*
X87108015Y-83543027D01*
X87000000Y-83553666D01*
X86891986Y-83543027D01*
X86788122Y-83511521D01*
X86760946Y-83496995D01*
X86692401Y-83460357D01*
X86608500Y-83391501D01*
X86539644Y-83307600D01*
X86488482Y-83211882D01*
X86488480Y-83211879D01*
X86456974Y-83108015D01*
X86449001Y-83027067D01*
X86449000Y-81972934D01*
X86456973Y-81891986D01*
X86488479Y-81788122D01*
X86539644Y-81692400D01*
X86608499Y-81608499D01*
X86692400Y-81539644D01*
X86692399Y-81539644D01*
X86692401Y-81539643D01*
X86744093Y-81512013D01*
X86788121Y-81488479D01*
X86891985Y-81456973D01*
X87000000Y-81446334D01*
X87108014Y-81456973D01*
X87108014Y-81456973D01*
G37*
G36*
X90108014Y-81456973D02*
G01*
X90211878Y-81488479D01*
X90255907Y-81512013D01*
X90307599Y-81539643D01*
X90307601Y-81539644D01*
X90307600Y-81539644D01*
X90391501Y-81608499D01*
X90460356Y-81692400D01*
X90511521Y-81788121D01*
X90543027Y-81891985D01*
X90551000Y-81972933D01*
X90551000Y-83027067D01*
X90543027Y-83108015D01*
X90511521Y-83211879D01*
X90511519Y-83211882D01*
X90460357Y-83307600D01*
X90391501Y-83391501D01*
X90307600Y-83460357D01*
X90239055Y-83496995D01*
X90211879Y-83511521D01*
X90108015Y-83543027D01*
X90000000Y-83553666D01*
X89891986Y-83543027D01*
X89788122Y-83511521D01*
X89760946Y-83496995D01*
X89692401Y-83460357D01*
X89608500Y-83391501D01*
X89539644Y-83307600D01*
X89488482Y-83211882D01*
X89488480Y-83211879D01*
X89456974Y-83108015D01*
X89449001Y-83027067D01*
X89449000Y-81972934D01*
X89456973Y-81891986D01*
X89488479Y-81788122D01*
X89539644Y-81692400D01*
X89608499Y-81608499D01*
X89692400Y-81539644D01*
X89692399Y-81539644D01*
X89692401Y-81539643D01*
X89744093Y-81512013D01*
X89788121Y-81488479D01*
X89891985Y-81456973D01*
X90000000Y-81446334D01*
X90108014Y-81456973D01*
X90108014Y-81456973D01*
G37*
G36*
X85608014Y-81456973D02*
G01*
X85711878Y-81488479D01*
X85755907Y-81512013D01*
X85807599Y-81539643D01*
X85807601Y-81539644D01*
X85807600Y-81539644D01*
X85891501Y-81608499D01*
X85960356Y-81692400D01*
X86011521Y-81788121D01*
X86043027Y-81891985D01*
X86051000Y-81972933D01*
X86051000Y-83027067D01*
X86043027Y-83108015D01*
X86011521Y-83211879D01*
X86011519Y-83211882D01*
X85960357Y-83307600D01*
X85891501Y-83391501D01*
X85807600Y-83460357D01*
X85739055Y-83496995D01*
X85711879Y-83511521D01*
X85608015Y-83543027D01*
X85500000Y-83553666D01*
X85391986Y-83543027D01*
X85288122Y-83511521D01*
X85260946Y-83496995D01*
X85192401Y-83460357D01*
X85108500Y-83391501D01*
X85039644Y-83307600D01*
X84988482Y-83211882D01*
X84988480Y-83211879D01*
X84956974Y-83108015D01*
X84949001Y-83027067D01*
X84949000Y-81972934D01*
X84956973Y-81891986D01*
X84988479Y-81788122D01*
X85039644Y-81692400D01*
X85108499Y-81608499D01*
X85192400Y-81539644D01*
X85192399Y-81539644D01*
X85192401Y-81539643D01*
X85244093Y-81512013D01*
X85288121Y-81488479D01*
X85391985Y-81456973D01*
X85500000Y-81446334D01*
X85608014Y-81456973D01*
X85608014Y-81456973D01*
G37*
G36*
X94608014Y-81456973D02*
G01*
X94711878Y-81488479D01*
X94755907Y-81512013D01*
X94807599Y-81539643D01*
X94807601Y-81539644D01*
X94807600Y-81539644D01*
X94891501Y-81608499D01*
X94960356Y-81692400D01*
X95011521Y-81788121D01*
X95043027Y-81891985D01*
X95051000Y-81972933D01*
X95051000Y-83027067D01*
X95043027Y-83108015D01*
X95011521Y-83211879D01*
X95011519Y-83211882D01*
X94960357Y-83307600D01*
X94891501Y-83391501D01*
X94807600Y-83460357D01*
X94739055Y-83496995D01*
X94711879Y-83511521D01*
X94608015Y-83543027D01*
X94500000Y-83553666D01*
X94391986Y-83543027D01*
X94288122Y-83511521D01*
X94260946Y-83496995D01*
X94192401Y-83460357D01*
X94108500Y-83391501D01*
X94039644Y-83307600D01*
X93988482Y-83211882D01*
X93988480Y-83211879D01*
X93956974Y-83108015D01*
X93949001Y-83027067D01*
X93949000Y-81972934D01*
X93956973Y-81891986D01*
X93988479Y-81788122D01*
X94039644Y-81692400D01*
X94108499Y-81608499D01*
X94192400Y-81539644D01*
X94192399Y-81539644D01*
X94192401Y-81539643D01*
X94244093Y-81512013D01*
X94288121Y-81488479D01*
X94391985Y-81456973D01*
X94500000Y-81446334D01*
X94608014Y-81456973D01*
X94608014Y-81456973D01*
G37*
G36*
X96108014Y-81456973D02*
G01*
X96211878Y-81488479D01*
X96255907Y-81512013D01*
X96307599Y-81539643D01*
X96307601Y-81539644D01*
X96307600Y-81539644D01*
X96391501Y-81608499D01*
X96460356Y-81692400D01*
X96511521Y-81788121D01*
X96543027Y-81891985D01*
X96551000Y-81972933D01*
X96551000Y-83027067D01*
X96543027Y-83108015D01*
X96511521Y-83211879D01*
X96511519Y-83211882D01*
X96460357Y-83307600D01*
X96391501Y-83391501D01*
X96307600Y-83460357D01*
X96239055Y-83496995D01*
X96211879Y-83511521D01*
X96108015Y-83543027D01*
X96000000Y-83553666D01*
X95891986Y-83543027D01*
X95788122Y-83511521D01*
X95760946Y-83496995D01*
X95692401Y-83460357D01*
X95608500Y-83391501D01*
X95539644Y-83307600D01*
X95488482Y-83211882D01*
X95488480Y-83211879D01*
X95456974Y-83108015D01*
X95449001Y-83027067D01*
X95449000Y-81972934D01*
X95456973Y-81891986D01*
X95488479Y-81788122D01*
X95539644Y-81692400D01*
X95608499Y-81608499D01*
X95692400Y-81539644D01*
X95692399Y-81539644D01*
X95692401Y-81539643D01*
X95744093Y-81512013D01*
X95788121Y-81488479D01*
X95891985Y-81456973D01*
X96000000Y-81446334D01*
X96108014Y-81456973D01*
X96108014Y-81456973D01*
G37*
G36*
X93108014Y-81456973D02*
G01*
X93211878Y-81488479D01*
X93255907Y-81512013D01*
X93307599Y-81539643D01*
X93307601Y-81539644D01*
X93307600Y-81539644D01*
X93391501Y-81608499D01*
X93460356Y-81692400D01*
X93511521Y-81788121D01*
X93543027Y-81891985D01*
X93551000Y-81972933D01*
X93551000Y-83027067D01*
X93543027Y-83108015D01*
X93511521Y-83211879D01*
X93511519Y-83211882D01*
X93460357Y-83307600D01*
X93391501Y-83391501D01*
X93307600Y-83460357D01*
X93239055Y-83496995D01*
X93211879Y-83511521D01*
X93108015Y-83543027D01*
X93000000Y-83553666D01*
X92891986Y-83543027D01*
X92788122Y-83511521D01*
X92760946Y-83496995D01*
X92692401Y-83460357D01*
X92608500Y-83391501D01*
X92539644Y-83307600D01*
X92488482Y-83211882D01*
X92488480Y-83211879D01*
X92456974Y-83108015D01*
X92449001Y-83027067D01*
X92449000Y-81972934D01*
X92456973Y-81891986D01*
X92488479Y-81788122D01*
X92539644Y-81692400D01*
X92608499Y-81608499D01*
X92692400Y-81539644D01*
X92692399Y-81539644D01*
X92692401Y-81539643D01*
X92744093Y-81512013D01*
X92788121Y-81488479D01*
X92891985Y-81456973D01*
X93000000Y-81446334D01*
X93108014Y-81456973D01*
X93108014Y-81456973D01*
G37*
G36*
X84551000Y-83551000D02*
G01*
X83449000Y-83551000D01*
X83449000Y-81449000D01*
X84551000Y-81449000D01*
X84551000Y-83551000D01*
X84551000Y-83551000D01*
G37*
G36*
X98508015Y-79856973D02*
G01*
X98611879Y-79888479D01*
X98639055Y-79903005D01*
X98707600Y-79939643D01*
X98791501Y-80008499D01*
X98860357Y-80092400D01*
X98896995Y-80160945D01*
X98911521Y-80188121D01*
X98943027Y-80291985D01*
X98953666Y-80400000D01*
X98943027Y-80508015D01*
X98911521Y-80611879D01*
X98911519Y-80611882D01*
X98860357Y-80707600D01*
X98791501Y-80791501D01*
X98707600Y-80860357D01*
X98639055Y-80896995D01*
X98611879Y-80911521D01*
X98508015Y-80943027D01*
X98427067Y-80951000D01*
X97572933Y-80951000D01*
X97491985Y-80943027D01*
X97388121Y-80911521D01*
X97360945Y-80896995D01*
X97292400Y-80860357D01*
X97208499Y-80791501D01*
X97139643Y-80707600D01*
X97088481Y-80611882D01*
X97088479Y-80611879D01*
X97056973Y-80508015D01*
X97046334Y-80400000D01*
X97056973Y-80291985D01*
X97088479Y-80188121D01*
X97103005Y-80160945D01*
X97139643Y-80092400D01*
X97208499Y-80008499D01*
X97292400Y-79939643D01*
X97360945Y-79903005D01*
X97388121Y-79888479D01*
X97491985Y-79856973D01*
X97572933Y-79849000D01*
X98427067Y-79849000D01*
X98508015Y-79856973D01*
X98508015Y-79856973D01*
G37*
G36*
X82508015Y-79856973D02*
G01*
X82611879Y-79888479D01*
X82639055Y-79903005D01*
X82707600Y-79939643D01*
X82791501Y-80008499D01*
X82860357Y-80092400D01*
X82896995Y-80160945D01*
X82911521Y-80188121D01*
X82943027Y-80291985D01*
X82953666Y-80400000D01*
X82943027Y-80508015D01*
X82911521Y-80611879D01*
X82911519Y-80611882D01*
X82860357Y-80707600D01*
X82791501Y-80791501D01*
X82707600Y-80860357D01*
X82639055Y-80896995D01*
X82611879Y-80911521D01*
X82508015Y-80943027D01*
X82427067Y-80951000D01*
X81572933Y-80951000D01*
X81491985Y-80943027D01*
X81388121Y-80911521D01*
X81360945Y-80896995D01*
X81292400Y-80860357D01*
X81208499Y-80791501D01*
X81139643Y-80707600D01*
X81088481Y-80611882D01*
X81088479Y-80611879D01*
X81056973Y-80508015D01*
X81046334Y-80400000D01*
X81056973Y-80291985D01*
X81088479Y-80188121D01*
X81103005Y-80160945D01*
X81139643Y-80092400D01*
X81208499Y-80008499D01*
X81292400Y-79939643D01*
X81360945Y-79903005D01*
X81388121Y-79888479D01*
X81491985Y-79856973D01*
X81572933Y-79849000D01*
X82427067Y-79849000D01*
X82508015Y-79856973D01*
X82508015Y-79856973D01*
G37*
G36*
X129611000Y-80751000D02*
G01*
X127809000Y-80751000D01*
X127809000Y-78949000D01*
X129611000Y-78949000D01*
X129611000Y-80751000D01*
X129611000Y-80751000D01*
G37*
G36*
X131360442Y-78955518D02*
G01*
X131426627Y-78962037D01*
X131596466Y-79013557D01*
X131752991Y-79097222D01*
X131788729Y-79126552D01*
X131890186Y-79209814D01*
X131973448Y-79311271D01*
X132002778Y-79347009D01*
X132086443Y-79503534D01*
X132137963Y-79673373D01*
X132155359Y-79850000D01*
X132137963Y-80026627D01*
X132086443Y-80196466D01*
X132002778Y-80352991D01*
X131973448Y-80388729D01*
X131890186Y-80490186D01*
X131788729Y-80573448D01*
X131752991Y-80602778D01*
X131596466Y-80686443D01*
X131426627Y-80737963D01*
X131360442Y-80744482D01*
X131294260Y-80751000D01*
X131205740Y-80751000D01*
X131139558Y-80744482D01*
X131073373Y-80737963D01*
X130903534Y-80686443D01*
X130747009Y-80602778D01*
X130711271Y-80573448D01*
X130609814Y-80490186D01*
X130526552Y-80388729D01*
X130497222Y-80352991D01*
X130413557Y-80196466D01*
X130362037Y-80026627D01*
X130344641Y-79850000D01*
X130362037Y-79673373D01*
X130413557Y-79503534D01*
X130497222Y-79347009D01*
X130526552Y-79311271D01*
X130609814Y-79209814D01*
X130711271Y-79126552D01*
X130747009Y-79097222D01*
X130903534Y-79013557D01*
X131073373Y-78962037D01*
X131139558Y-78955518D01*
X131205740Y-78949000D01*
X131294260Y-78949000D01*
X131360442Y-78955518D01*
X131360442Y-78955518D01*
G37*
G36*
X155760443Y-77385519D02*
G01*
X155826627Y-77392037D01*
X155996466Y-77443557D01*
X156152991Y-77527222D01*
X156188729Y-77556552D01*
X156290186Y-77639814D01*
X156373448Y-77741271D01*
X156402778Y-77777009D01*
X156486443Y-77933534D01*
X156537963Y-78103373D01*
X156555359Y-78280000D01*
X156537963Y-78456627D01*
X156486443Y-78626466D01*
X156402778Y-78782991D01*
X156373448Y-78818729D01*
X156290186Y-78920186D01*
X156188729Y-79003448D01*
X156152991Y-79032778D01*
X155996466Y-79116443D01*
X155826627Y-79167963D01*
X155760442Y-79174482D01*
X155694260Y-79181000D01*
X155605740Y-79181000D01*
X155539558Y-79174482D01*
X155473373Y-79167963D01*
X155303534Y-79116443D01*
X155147009Y-79032778D01*
X155111271Y-79003448D01*
X155009814Y-78920186D01*
X154926552Y-78818729D01*
X154897222Y-78782991D01*
X154813557Y-78626466D01*
X154762037Y-78456627D01*
X154744641Y-78280000D01*
X154762037Y-78103373D01*
X154813557Y-77933534D01*
X154897222Y-77777009D01*
X154926552Y-77741271D01*
X155009814Y-77639814D01*
X155111271Y-77556552D01*
X155147009Y-77527222D01*
X155303534Y-77443557D01*
X155473373Y-77392037D01*
X155539557Y-77385519D01*
X155605740Y-77379000D01*
X155694260Y-77379000D01*
X155760443Y-77385519D01*
X155760443Y-77385519D01*
G37*
G36*
X158300443Y-77385519D02*
G01*
X158366627Y-77392037D01*
X158536466Y-77443557D01*
X158692991Y-77527222D01*
X158728729Y-77556552D01*
X158830186Y-77639814D01*
X158913448Y-77741271D01*
X158942778Y-77777009D01*
X159026443Y-77933534D01*
X159077963Y-78103373D01*
X159095359Y-78280000D01*
X159077963Y-78456627D01*
X159026443Y-78626466D01*
X158942778Y-78782991D01*
X158913448Y-78818729D01*
X158830186Y-78920186D01*
X158728729Y-79003448D01*
X158692991Y-79032778D01*
X158536466Y-79116443D01*
X158366627Y-79167963D01*
X158300442Y-79174482D01*
X158234260Y-79181000D01*
X158145740Y-79181000D01*
X158079558Y-79174482D01*
X158013373Y-79167963D01*
X157843534Y-79116443D01*
X157687009Y-79032778D01*
X157651271Y-79003448D01*
X157549814Y-78920186D01*
X157466552Y-78818729D01*
X157437222Y-78782991D01*
X157353557Y-78626466D01*
X157302037Y-78456627D01*
X157284641Y-78280000D01*
X157302037Y-78103373D01*
X157353557Y-77933534D01*
X157437222Y-77777009D01*
X157466552Y-77741271D01*
X157549814Y-77639814D01*
X157651271Y-77556552D01*
X157687009Y-77527222D01*
X157843534Y-77443557D01*
X158013373Y-77392037D01*
X158079557Y-77385519D01*
X158145740Y-77379000D01*
X158234260Y-77379000D01*
X158300443Y-77385519D01*
X158300443Y-77385519D01*
G37*
G36*
X155760443Y-74845519D02*
G01*
X155826627Y-74852037D01*
X155996466Y-74903557D01*
X156152991Y-74987222D01*
X156177395Y-75007250D01*
X156290186Y-75099814D01*
X156373448Y-75201271D01*
X156402778Y-75237009D01*
X156486443Y-75393534D01*
X156537963Y-75563373D01*
X156555359Y-75740000D01*
X156537963Y-75916627D01*
X156486443Y-76086466D01*
X156402778Y-76242991D01*
X156373448Y-76278729D01*
X156290186Y-76380186D01*
X156188729Y-76463448D01*
X156152991Y-76492778D01*
X155996466Y-76576443D01*
X155826627Y-76627963D01*
X155760443Y-76634481D01*
X155694260Y-76641000D01*
X155605740Y-76641000D01*
X155539557Y-76634481D01*
X155473373Y-76627963D01*
X155303534Y-76576443D01*
X155147009Y-76492778D01*
X155111271Y-76463448D01*
X155009814Y-76380186D01*
X154926552Y-76278729D01*
X154897222Y-76242991D01*
X154813557Y-76086466D01*
X154762037Y-75916627D01*
X154744641Y-75740000D01*
X154762037Y-75563373D01*
X154813557Y-75393534D01*
X154897222Y-75237009D01*
X154926552Y-75201271D01*
X155009814Y-75099814D01*
X155122605Y-75007250D01*
X155147009Y-74987222D01*
X155303534Y-74903557D01*
X155473373Y-74852037D01*
X155539557Y-74845519D01*
X155605740Y-74839000D01*
X155694260Y-74839000D01*
X155760443Y-74845519D01*
X155760443Y-74845519D01*
G37*
G36*
X158300443Y-74845519D02*
G01*
X158366627Y-74852037D01*
X158536466Y-74903557D01*
X158692991Y-74987222D01*
X158717395Y-75007250D01*
X158830186Y-75099814D01*
X158913448Y-75201271D01*
X158942778Y-75237009D01*
X159026443Y-75393534D01*
X159077963Y-75563373D01*
X159095359Y-75740000D01*
X159077963Y-75916627D01*
X159026443Y-76086466D01*
X158942778Y-76242991D01*
X158913448Y-76278729D01*
X158830186Y-76380186D01*
X158728729Y-76463448D01*
X158692991Y-76492778D01*
X158536466Y-76576443D01*
X158366627Y-76627963D01*
X158300443Y-76634481D01*
X158234260Y-76641000D01*
X158145740Y-76641000D01*
X158079557Y-76634481D01*
X158013373Y-76627963D01*
X157843534Y-76576443D01*
X157687009Y-76492778D01*
X157651271Y-76463448D01*
X157549814Y-76380186D01*
X157466552Y-76278729D01*
X157437222Y-76242991D01*
X157353557Y-76086466D01*
X157302037Y-75916627D01*
X157284641Y-75740000D01*
X157302037Y-75563373D01*
X157353557Y-75393534D01*
X157437222Y-75237009D01*
X157466552Y-75201271D01*
X157549814Y-75099814D01*
X157662605Y-75007250D01*
X157687009Y-74987222D01*
X157843534Y-74903557D01*
X158013373Y-74852037D01*
X158079557Y-74845519D01*
X158145740Y-74839000D01*
X158234260Y-74839000D01*
X158300443Y-74845519D01*
X158300443Y-74845519D01*
G37*
G36*
X149213500Y-76507250D02*
G01*
X148261500Y-76507250D01*
X148261500Y-75492750D01*
X149213500Y-75492750D01*
X149213500Y-76507250D01*
X149213500Y-76507250D01*
G37*
G36*
X131738500Y-76507250D02*
G01*
X130786500Y-76507250D01*
X130786500Y-75492750D01*
X131738500Y-75492750D01*
X131738500Y-76507250D01*
X131738500Y-76507250D01*
G37*
G36*
X131738500Y-75007250D02*
G01*
X130786500Y-75007250D01*
X130786500Y-73992750D01*
X131738500Y-73992750D01*
X131738500Y-75007250D01*
X131738500Y-75007250D01*
G37*
G36*
X149213500Y-75007250D02*
G01*
X148261500Y-75007250D01*
X148261500Y-73992750D01*
X149213500Y-73992750D01*
X149213500Y-75007250D01*
X149213500Y-75007250D01*
G37*
G36*
X158300442Y-72305518D02*
G01*
X158366627Y-72312037D01*
X158536466Y-72363557D01*
X158692991Y-72447222D01*
X158728729Y-72476552D01*
X158830186Y-72559814D01*
X158913448Y-72661271D01*
X158942778Y-72697009D01*
X159026443Y-72853534D01*
X159077963Y-73023373D01*
X159095359Y-73200000D01*
X159077963Y-73376627D01*
X159026443Y-73546466D01*
X158942778Y-73702991D01*
X158913448Y-73738729D01*
X158830186Y-73840186D01*
X158728729Y-73923448D01*
X158692991Y-73952778D01*
X158536466Y-74036443D01*
X158366627Y-74087963D01*
X158300442Y-74094482D01*
X158234260Y-74101000D01*
X158145740Y-74101000D01*
X158079558Y-74094482D01*
X158013373Y-74087963D01*
X157843534Y-74036443D01*
X157687009Y-73952778D01*
X157651271Y-73923448D01*
X157549814Y-73840186D01*
X157466552Y-73738729D01*
X157437222Y-73702991D01*
X157353557Y-73546466D01*
X157302037Y-73376627D01*
X157284641Y-73200000D01*
X157302037Y-73023373D01*
X157353557Y-72853534D01*
X157437222Y-72697009D01*
X157466552Y-72661271D01*
X157549814Y-72559814D01*
X157651271Y-72476552D01*
X157687009Y-72447222D01*
X157843534Y-72363557D01*
X158013373Y-72312037D01*
X158079558Y-72305518D01*
X158145740Y-72299000D01*
X158234260Y-72299000D01*
X158300442Y-72305518D01*
X158300442Y-72305518D01*
G37*
G36*
X156551000Y-74101000D02*
G01*
X154749000Y-74101000D01*
X154749000Y-72299000D01*
X156551000Y-72299000D01*
X156551000Y-74101000D01*
X156551000Y-74101000D01*
G37*
G36*
X131738500Y-73507250D02*
G01*
X130786500Y-73507250D01*
X130786500Y-72492750D01*
X131738500Y-72492750D01*
X131738500Y-73507250D01*
X131738500Y-73507250D01*
G37*
G36*
X149213500Y-73507250D02*
G01*
X148261500Y-73507250D01*
X148261500Y-72492750D01*
X149213500Y-72492750D01*
X149213500Y-73507250D01*
X149213500Y-73507250D01*
G37*
G36*
X143321000Y-72781000D02*
G01*
X138919000Y-72781000D01*
X138919000Y-68379000D01*
X143321000Y-68379000D01*
X143321000Y-72781000D01*
X143321000Y-72781000D01*
G37*
G36*
X149213500Y-72007250D02*
G01*
X148261500Y-72007250D01*
X148261500Y-70992750D01*
X149213500Y-70992750D01*
X149213500Y-72007250D01*
X149213500Y-72007250D01*
G37*
G36*
X131738500Y-72007250D02*
G01*
X130786500Y-72007250D01*
X130786500Y-70992750D01*
X131738500Y-70992750D01*
X131738500Y-72007250D01*
X131738500Y-72007250D01*
G37*
G36*
X112996468Y-69253565D02*
G01*
X113035138Y-69265296D01*
X113070777Y-69284346D01*
X113102017Y-69309983D01*
X113127654Y-69341223D01*
X113146704Y-69376862D01*
X113158435Y-69415532D01*
X113163000Y-69461888D01*
X113163000Y-70538112D01*
X113158435Y-70584468D01*
X113146704Y-70623138D01*
X113127654Y-70658777D01*
X113102017Y-70690017D01*
X113070777Y-70715654D01*
X113035138Y-70734704D01*
X112996468Y-70746435D01*
X112950112Y-70751000D01*
X112298888Y-70751000D01*
X112252532Y-70746435D01*
X112213862Y-70734704D01*
X112178223Y-70715654D01*
X112146983Y-70690017D01*
X112121346Y-70658777D01*
X112102296Y-70623138D01*
X112090565Y-70584468D01*
X112086000Y-70538112D01*
X112086000Y-69461888D01*
X112090565Y-69415532D01*
X112102296Y-69376862D01*
X112121346Y-69341223D01*
X112146983Y-69309983D01*
X112178223Y-69284346D01*
X112213862Y-69265296D01*
X112252532Y-69253565D01*
X112298888Y-69249000D01*
X112950112Y-69249000D01*
X112996468Y-69253565D01*
X112996468Y-69253565D01*
G37*
G36*
X118747468Y-69253565D02*
G01*
X118786138Y-69265296D01*
X118821777Y-69284346D01*
X118853017Y-69309983D01*
X118878654Y-69341223D01*
X118897704Y-69376862D01*
X118909435Y-69415532D01*
X118914000Y-69461888D01*
X118914000Y-70538112D01*
X118909435Y-70584468D01*
X118897704Y-70623138D01*
X118878654Y-70658777D01*
X118853017Y-70690017D01*
X118821777Y-70715654D01*
X118786138Y-70734704D01*
X118747468Y-70746435D01*
X118701112Y-70751000D01*
X118049888Y-70751000D01*
X118003532Y-70746435D01*
X117964862Y-70734704D01*
X117929223Y-70715654D01*
X117897983Y-70690017D01*
X117872346Y-70658777D01*
X117853296Y-70623138D01*
X117841565Y-70584468D01*
X117837000Y-70538112D01*
X117837000Y-69461888D01*
X117841565Y-69415532D01*
X117853296Y-69376862D01*
X117872346Y-69341223D01*
X117897983Y-69309983D01*
X117929223Y-69284346D01*
X117964862Y-69265296D01*
X118003532Y-69253565D01*
X118049888Y-69249000D01*
X118701112Y-69249000D01*
X118747468Y-69253565D01*
X118747468Y-69253565D01*
G37*
G36*
X114871468Y-69253565D02*
G01*
X114910138Y-69265296D01*
X114945777Y-69284346D01*
X114977017Y-69309983D01*
X115002654Y-69341223D01*
X115021704Y-69376862D01*
X115033435Y-69415532D01*
X115038000Y-69461888D01*
X115038000Y-70538112D01*
X115033435Y-70584468D01*
X115021704Y-70623138D01*
X115002654Y-70658777D01*
X114977017Y-70690017D01*
X114945777Y-70715654D01*
X114910138Y-70734704D01*
X114871468Y-70746435D01*
X114825112Y-70751000D01*
X114173888Y-70751000D01*
X114127532Y-70746435D01*
X114088862Y-70734704D01*
X114053223Y-70715654D01*
X114021983Y-70690017D01*
X113996346Y-70658777D01*
X113977296Y-70623138D01*
X113965565Y-70584468D01*
X113961000Y-70538112D01*
X113961000Y-69461888D01*
X113965565Y-69415532D01*
X113977296Y-69376862D01*
X113996346Y-69341223D01*
X114021983Y-69309983D01*
X114053223Y-69284346D01*
X114088862Y-69265296D01*
X114127532Y-69253565D01*
X114173888Y-69249000D01*
X114825112Y-69249000D01*
X114871468Y-69253565D01*
X114871468Y-69253565D01*
G37*
G36*
X116872468Y-69253565D02*
G01*
X116911138Y-69265296D01*
X116946777Y-69284346D01*
X116978017Y-69309983D01*
X117003654Y-69341223D01*
X117022704Y-69376862D01*
X117034435Y-69415532D01*
X117039000Y-69461888D01*
X117039000Y-70538112D01*
X117034435Y-70584468D01*
X117022704Y-70623138D01*
X117003654Y-70658777D01*
X116978017Y-70690017D01*
X116946777Y-70715654D01*
X116911138Y-70734704D01*
X116872468Y-70746435D01*
X116826112Y-70751000D01*
X116174888Y-70751000D01*
X116128532Y-70746435D01*
X116089862Y-70734704D01*
X116054223Y-70715654D01*
X116022983Y-70690017D01*
X115997346Y-70658777D01*
X115978296Y-70623138D01*
X115966565Y-70584468D01*
X115962000Y-70538112D01*
X115962000Y-69461888D01*
X115966565Y-69415532D01*
X115978296Y-69376862D01*
X115997346Y-69341223D01*
X116022983Y-69309983D01*
X116054223Y-69284346D01*
X116089862Y-69265296D01*
X116128532Y-69253565D01*
X116174888Y-69249000D01*
X116826112Y-69249000D01*
X116872468Y-69253565D01*
X116872468Y-69253565D01*
G37*
G36*
X157111968Y-69243565D02*
G01*
X157150638Y-69255296D01*
X157186277Y-69274346D01*
X157217517Y-69299983D01*
X157243154Y-69331223D01*
X157262204Y-69366862D01*
X157273935Y-69405532D01*
X157278500Y-69451888D01*
X157278500Y-70528112D01*
X157273935Y-70574468D01*
X157262204Y-70613138D01*
X157243154Y-70648777D01*
X157217517Y-70680017D01*
X157186277Y-70705654D01*
X157150638Y-70724704D01*
X157111968Y-70736435D01*
X157065612Y-70741000D01*
X156414388Y-70741000D01*
X156368032Y-70736435D01*
X156329362Y-70724704D01*
X156293723Y-70705654D01*
X156262483Y-70680017D01*
X156236846Y-70648777D01*
X156217796Y-70613138D01*
X156206065Y-70574468D01*
X156201500Y-70528112D01*
X156201500Y-69451888D01*
X156206065Y-69405532D01*
X156217796Y-69366862D01*
X156236846Y-69331223D01*
X156262483Y-69299983D01*
X156293723Y-69274346D01*
X156329362Y-69255296D01*
X156368032Y-69243565D01*
X156414388Y-69239000D01*
X157065612Y-69239000D01*
X157111968Y-69243565D01*
X157111968Y-69243565D01*
G37*
G36*
X155236968Y-69243565D02*
G01*
X155275638Y-69255296D01*
X155311277Y-69274346D01*
X155342517Y-69299983D01*
X155368154Y-69331223D01*
X155387204Y-69366862D01*
X155398935Y-69405532D01*
X155403500Y-69451888D01*
X155403500Y-70528112D01*
X155398935Y-70574468D01*
X155387204Y-70613138D01*
X155368154Y-70648777D01*
X155342517Y-70680017D01*
X155311277Y-70705654D01*
X155275638Y-70724704D01*
X155236968Y-70736435D01*
X155190612Y-70741000D01*
X154539388Y-70741000D01*
X154493032Y-70736435D01*
X154454362Y-70724704D01*
X154418723Y-70705654D01*
X154387483Y-70680017D01*
X154361846Y-70648777D01*
X154342796Y-70613138D01*
X154331065Y-70574468D01*
X154326500Y-70528112D01*
X154326500Y-69451888D01*
X154331065Y-69405532D01*
X154342796Y-69366862D01*
X154361846Y-69331223D01*
X154387483Y-69299983D01*
X154418723Y-69274346D01*
X154454362Y-69255296D01*
X154493032Y-69243565D01*
X154539388Y-69239000D01*
X155190612Y-69239000D01*
X155236968Y-69243565D01*
X155236968Y-69243565D01*
G37*
G36*
X160551968Y-69233565D02*
G01*
X160590638Y-69245296D01*
X160626277Y-69264346D01*
X160657517Y-69289983D01*
X160683154Y-69321223D01*
X160702204Y-69356862D01*
X160713935Y-69395532D01*
X160718500Y-69441888D01*
X160718500Y-70518112D01*
X160713935Y-70564468D01*
X160702204Y-70603138D01*
X160683154Y-70638777D01*
X160657517Y-70670017D01*
X160626277Y-70695654D01*
X160590638Y-70714704D01*
X160551968Y-70726435D01*
X160505612Y-70731000D01*
X159854388Y-70731000D01*
X159808032Y-70726435D01*
X159769362Y-70714704D01*
X159733723Y-70695654D01*
X159702483Y-70670017D01*
X159676846Y-70638777D01*
X159657796Y-70603138D01*
X159646065Y-70564468D01*
X159641500Y-70518112D01*
X159641500Y-69441888D01*
X159646065Y-69395532D01*
X159657796Y-69356862D01*
X159676846Y-69321223D01*
X159702483Y-69289983D01*
X159733723Y-69264346D01*
X159769362Y-69245296D01*
X159808032Y-69233565D01*
X159854388Y-69229000D01*
X160505612Y-69229000D01*
X160551968Y-69233565D01*
X160551968Y-69233565D01*
G37*
G36*
X158676968Y-69233565D02*
G01*
X158715638Y-69245296D01*
X158751277Y-69264346D01*
X158782517Y-69289983D01*
X158808154Y-69321223D01*
X158827204Y-69356862D01*
X158838935Y-69395532D01*
X158843500Y-69441888D01*
X158843500Y-70518112D01*
X158838935Y-70564468D01*
X158827204Y-70603138D01*
X158808154Y-70638777D01*
X158782517Y-70670017D01*
X158751277Y-70695654D01*
X158715638Y-70714704D01*
X158676968Y-70726435D01*
X158630612Y-70731000D01*
X157979388Y-70731000D01*
X157933032Y-70726435D01*
X157894362Y-70714704D01*
X157858723Y-70695654D01*
X157827483Y-70670017D01*
X157801846Y-70638777D01*
X157782796Y-70603138D01*
X157771065Y-70564468D01*
X157766500Y-70518112D01*
X157766500Y-69441888D01*
X157771065Y-69395532D01*
X157782796Y-69356862D01*
X157801846Y-69321223D01*
X157827483Y-69289983D01*
X157858723Y-69264346D01*
X157894362Y-69245296D01*
X157933032Y-69233565D01*
X157979388Y-69229000D01*
X158630612Y-69229000D01*
X158676968Y-69233565D01*
X158676968Y-69233565D01*
G37*
G36*
X131738500Y-70507250D02*
G01*
X130786500Y-70507250D01*
X130786500Y-69492750D01*
X131738500Y-69492750D01*
X131738500Y-70507250D01*
X131738500Y-70507250D01*
G37*
G36*
X149213500Y-70507250D02*
G01*
X148261500Y-70507250D01*
X148261500Y-69492750D01*
X149213500Y-69492750D01*
X149213500Y-70507250D01*
X149213500Y-70507250D01*
G37*
G36*
X127834468Y-68853565D02*
G01*
X127873138Y-68865296D01*
X127908777Y-68884346D01*
X127940017Y-68909983D01*
X127965654Y-68941223D01*
X127984704Y-68976862D01*
X127996435Y-69015532D01*
X128001000Y-69061888D01*
X128001000Y-70138112D01*
X127996435Y-70184468D01*
X127984704Y-70223138D01*
X127965654Y-70258777D01*
X127940017Y-70290017D01*
X127908777Y-70315654D01*
X127873138Y-70334704D01*
X127834468Y-70346435D01*
X127788112Y-70351000D01*
X127136888Y-70351000D01*
X127090532Y-70346435D01*
X127051862Y-70334704D01*
X127016223Y-70315654D01*
X126984983Y-70290017D01*
X126959346Y-70258777D01*
X126940296Y-70223138D01*
X126928565Y-70184468D01*
X126924000Y-70138112D01*
X126924000Y-69061888D01*
X126928565Y-69015532D01*
X126940296Y-68976862D01*
X126959346Y-68941223D01*
X126984983Y-68909983D01*
X127016223Y-68884346D01*
X127051862Y-68865296D01*
X127090532Y-68853565D01*
X127136888Y-68849000D01*
X127788112Y-68849000D01*
X127834468Y-68853565D01*
X127834468Y-68853565D01*
G37*
G36*
X129709468Y-68853565D02*
G01*
X129748138Y-68865296D01*
X129783777Y-68884346D01*
X129815017Y-68909983D01*
X129840654Y-68941223D01*
X129859704Y-68976862D01*
X129871435Y-69015532D01*
X129876000Y-69061888D01*
X129876000Y-70138112D01*
X129871435Y-70184468D01*
X129859704Y-70223138D01*
X129840654Y-70258777D01*
X129815017Y-70290017D01*
X129783777Y-70315654D01*
X129748138Y-70334704D01*
X129709468Y-70346435D01*
X129663112Y-70351000D01*
X129011888Y-70351000D01*
X128965532Y-70346435D01*
X128926862Y-70334704D01*
X128891223Y-70315654D01*
X128859983Y-70290017D01*
X128834346Y-70258777D01*
X128815296Y-70223138D01*
X128803565Y-70184468D01*
X128799000Y-70138112D01*
X128799000Y-69061888D01*
X128803565Y-69015532D01*
X128815296Y-68976862D01*
X128834346Y-68941223D01*
X128859983Y-68909983D01*
X128891223Y-68884346D01*
X128926862Y-68865296D01*
X128965532Y-68853565D01*
X129011888Y-68849000D01*
X129663112Y-68849000D01*
X129709468Y-68853565D01*
X129709468Y-68853565D01*
G37*
G36*
X131738500Y-69007250D02*
G01*
X130786500Y-69007250D01*
X130786500Y-67992750D01*
X131738500Y-67992750D01*
X131738500Y-69007250D01*
X131738500Y-69007250D01*
G37*
G36*
X149213500Y-69007250D02*
G01*
X148261500Y-69007250D01*
X148261500Y-67992750D01*
X149213500Y-67992750D01*
X149213500Y-69007250D01*
X149213500Y-69007250D01*
G37*
G36*
X116826000Y-68381000D02*
G01*
X116074000Y-68381000D01*
X116074000Y-67219000D01*
X116826000Y-67219000D01*
X116826000Y-68381000D01*
X116826000Y-68381000D01*
G37*
G36*
X114926000Y-68381000D02*
G01*
X114174000Y-68381000D01*
X114174000Y-67219000D01*
X114926000Y-67219000D01*
X114926000Y-68381000D01*
X114926000Y-68381000D01*
G37*
G36*
X131738500Y-67507250D02*
G01*
X130786500Y-67507250D01*
X130786500Y-66492750D01*
X131738500Y-66492750D01*
X131738500Y-67507250D01*
X131738500Y-67507250D01*
G37*
G36*
X149213500Y-67507250D02*
G01*
X148261500Y-67507250D01*
X148261500Y-66492750D01*
X149213500Y-66492750D01*
X149213500Y-67507250D01*
X149213500Y-67507250D01*
G37*
G36*
X127934468Y-65753565D02*
G01*
X127973138Y-65765296D01*
X128008777Y-65784346D01*
X128040017Y-65809983D01*
X128065654Y-65841223D01*
X128084704Y-65876862D01*
X128096435Y-65915532D01*
X128101000Y-65961888D01*
X128101000Y-67038112D01*
X128096435Y-67084468D01*
X128084704Y-67123138D01*
X128065654Y-67158777D01*
X128040017Y-67190017D01*
X128008777Y-67215654D01*
X127973138Y-67234704D01*
X127934468Y-67246435D01*
X127888112Y-67251000D01*
X127236888Y-67251000D01*
X127190532Y-67246435D01*
X127151862Y-67234704D01*
X127116223Y-67215654D01*
X127084983Y-67190017D01*
X127059346Y-67158777D01*
X127040296Y-67123138D01*
X127028565Y-67084468D01*
X127024000Y-67038112D01*
X127024000Y-65961888D01*
X127028565Y-65915532D01*
X127040296Y-65876862D01*
X127059346Y-65841223D01*
X127084983Y-65809983D01*
X127116223Y-65784346D01*
X127151862Y-65765296D01*
X127190532Y-65753565D01*
X127236888Y-65749000D01*
X127888112Y-65749000D01*
X127934468Y-65753565D01*
X127934468Y-65753565D01*
G37*
G36*
X129809468Y-65753565D02*
G01*
X129848138Y-65765296D01*
X129883777Y-65784346D01*
X129915017Y-65809983D01*
X129940654Y-65841223D01*
X129959704Y-65876862D01*
X129971435Y-65915532D01*
X129976000Y-65961888D01*
X129976000Y-67038112D01*
X129971435Y-67084468D01*
X129959704Y-67123138D01*
X129940654Y-67158777D01*
X129915017Y-67190017D01*
X129883777Y-67215654D01*
X129848138Y-67234704D01*
X129809468Y-67246435D01*
X129763112Y-67251000D01*
X129111888Y-67251000D01*
X129065532Y-67246435D01*
X129026862Y-67234704D01*
X128991223Y-67215654D01*
X128959983Y-67190017D01*
X128934346Y-67158777D01*
X128915296Y-67123138D01*
X128903565Y-67084468D01*
X128899000Y-67038112D01*
X128899000Y-65961888D01*
X128903565Y-65915532D01*
X128915296Y-65876862D01*
X128934346Y-65841223D01*
X128959983Y-65809983D01*
X128991223Y-65784346D01*
X129026862Y-65765296D01*
X129065532Y-65753565D01*
X129111888Y-65749000D01*
X129763112Y-65749000D01*
X129809468Y-65753565D01*
X129809468Y-65753565D01*
G37*
G36*
X116826000Y-66181000D02*
G01*
X114174000Y-66181000D01*
X114174000Y-65019000D01*
X116826000Y-65019000D01*
X116826000Y-66181000D01*
X116826000Y-66181000D01*
G37*
G36*
X149213500Y-66007250D02*
G01*
X148261500Y-66007250D01*
X148261500Y-64992750D01*
X149213500Y-64992750D01*
X149213500Y-66007250D01*
X149213500Y-66007250D01*
G37*
G36*
X131738500Y-66007250D02*
G01*
X130786500Y-66007250D01*
X130786500Y-64992750D01*
X131738500Y-64992750D01*
X131738500Y-66007250D01*
X131738500Y-66007250D01*
G37*
G36*
X127809468Y-63753565D02*
G01*
X127848138Y-63765296D01*
X127883777Y-63784346D01*
X127915017Y-63809983D01*
X127940654Y-63841223D01*
X127959704Y-63876862D01*
X127971435Y-63915532D01*
X127976000Y-63961888D01*
X127976000Y-65038112D01*
X127971435Y-65084468D01*
X127959704Y-65123138D01*
X127940654Y-65158777D01*
X127915017Y-65190017D01*
X127883777Y-65215654D01*
X127848138Y-65234704D01*
X127809468Y-65246435D01*
X127763112Y-65251000D01*
X127111888Y-65251000D01*
X127065532Y-65246435D01*
X127026862Y-65234704D01*
X126991223Y-65215654D01*
X126959983Y-65190017D01*
X126934346Y-65158777D01*
X126915296Y-65123138D01*
X126903565Y-65084468D01*
X126899000Y-65038112D01*
X126899000Y-63961888D01*
X126903565Y-63915532D01*
X126915296Y-63876862D01*
X126934346Y-63841223D01*
X126959983Y-63809983D01*
X126991223Y-63784346D01*
X127026862Y-63765296D01*
X127065532Y-63753565D01*
X127111888Y-63749000D01*
X127763112Y-63749000D01*
X127809468Y-63753565D01*
X127809468Y-63753565D01*
G37*
G36*
X125934468Y-63753565D02*
G01*
X125973138Y-63765296D01*
X126008777Y-63784346D01*
X126040017Y-63809983D01*
X126065654Y-63841223D01*
X126084704Y-63876862D01*
X126096435Y-63915532D01*
X126101000Y-63961888D01*
X126101000Y-65038112D01*
X126096435Y-65084468D01*
X126084704Y-65123138D01*
X126065654Y-65158777D01*
X126040017Y-65190017D01*
X126008777Y-65215654D01*
X125973138Y-65234704D01*
X125934468Y-65246435D01*
X125888112Y-65251000D01*
X125236888Y-65251000D01*
X125190532Y-65246435D01*
X125151862Y-65234704D01*
X125116223Y-65215654D01*
X125084983Y-65190017D01*
X125059346Y-65158777D01*
X125040296Y-65123138D01*
X125028565Y-65084468D01*
X125024000Y-65038112D01*
X125024000Y-63961888D01*
X125028565Y-63915532D01*
X125040296Y-63876862D01*
X125059346Y-63841223D01*
X125084983Y-63809983D01*
X125116223Y-63784346D01*
X125151862Y-63765296D01*
X125190532Y-63753565D01*
X125236888Y-63749000D01*
X125888112Y-63749000D01*
X125934468Y-63753565D01*
X125934468Y-63753565D01*
G37*
G36*
X131738500Y-64507250D02*
G01*
X130786500Y-64507250D01*
X130786500Y-63492750D01*
X131738500Y-63492750D01*
X131738500Y-64507250D01*
X131738500Y-64507250D01*
G37*
G36*
X149213500Y-64507250D02*
G01*
X148261500Y-64507250D01*
X148261500Y-63492750D01*
X149213500Y-63492750D01*
X149213500Y-64507250D01*
X149213500Y-64507250D01*
G37*
G36*
X116872468Y-62253565D02*
G01*
X116911138Y-62265296D01*
X116946777Y-62284346D01*
X116978017Y-62309983D01*
X117003654Y-62341223D01*
X117022704Y-62376862D01*
X117034435Y-62415532D01*
X117039000Y-62461888D01*
X117039000Y-63538112D01*
X117034435Y-63584468D01*
X117022704Y-63623138D01*
X117003654Y-63658777D01*
X116978017Y-63690017D01*
X116946777Y-63715654D01*
X116911138Y-63734704D01*
X116872468Y-63746435D01*
X116826112Y-63751000D01*
X116174888Y-63751000D01*
X116128532Y-63746435D01*
X116089862Y-63734704D01*
X116054223Y-63715654D01*
X116022983Y-63690017D01*
X115997346Y-63658777D01*
X115978296Y-63623138D01*
X115966565Y-63584468D01*
X115962000Y-63538112D01*
X115962000Y-62461888D01*
X115966565Y-62415532D01*
X115978296Y-62376862D01*
X115997346Y-62341223D01*
X116022983Y-62309983D01*
X116054223Y-62284346D01*
X116089862Y-62265296D01*
X116128532Y-62253565D01*
X116174888Y-62249000D01*
X116826112Y-62249000D01*
X116872468Y-62253565D01*
X116872468Y-62253565D01*
G37*
G36*
X118747468Y-62253565D02*
G01*
X118786138Y-62265296D01*
X118821777Y-62284346D01*
X118853017Y-62309983D01*
X118878654Y-62341223D01*
X118897704Y-62376862D01*
X118909435Y-62415532D01*
X118914000Y-62461888D01*
X118914000Y-63538112D01*
X118909435Y-63584468D01*
X118897704Y-63623138D01*
X118878654Y-63658777D01*
X118853017Y-63690017D01*
X118821777Y-63715654D01*
X118786138Y-63734704D01*
X118747468Y-63746435D01*
X118701112Y-63751000D01*
X118049888Y-63751000D01*
X118003532Y-63746435D01*
X117964862Y-63734704D01*
X117929223Y-63715654D01*
X117897983Y-63690017D01*
X117872346Y-63658777D01*
X117853296Y-63623138D01*
X117841565Y-63584468D01*
X117837000Y-63538112D01*
X117837000Y-62461888D01*
X117841565Y-62415532D01*
X117853296Y-62376862D01*
X117872346Y-62341223D01*
X117897983Y-62309983D01*
X117929223Y-62284346D01*
X117964862Y-62265296D01*
X118003532Y-62253565D01*
X118049888Y-62249000D01*
X118701112Y-62249000D01*
X118747468Y-62253565D01*
X118747468Y-62253565D01*
G37*
G36*
X160345680Y-58385415D02*
G01*
X160481579Y-58412447D01*
X160782042Y-58536903D01*
X161052451Y-58717585D01*
X161282415Y-58947549D01*
X161463097Y-59217958D01*
X161577543Y-59494254D01*
X161587553Y-59518422D01*
X161651000Y-59837389D01*
X161651000Y-60162611D01*
X161608702Y-60375256D01*
X161587553Y-60481579D01*
X161569787Y-60524469D01*
X161473824Y-60756146D01*
X161463097Y-60782042D01*
X161282415Y-61052451D01*
X161052451Y-61282415D01*
X160782042Y-61463097D01*
X160481579Y-61587553D01*
X160375256Y-61608702D01*
X160162611Y-61651000D01*
X159837389Y-61651000D01*
X159624744Y-61608702D01*
X159518421Y-61587553D01*
X159217958Y-61463097D01*
X158947549Y-61282415D01*
X158717585Y-61052451D01*
X158536903Y-60782042D01*
X158526177Y-60756146D01*
X158430213Y-60524469D01*
X158412447Y-60481579D01*
X158391298Y-60375256D01*
X158349000Y-60162611D01*
X158349000Y-59837389D01*
X158412447Y-59518422D01*
X158422458Y-59494254D01*
X158536903Y-59217958D01*
X158717585Y-58947549D01*
X158947549Y-58717585D01*
X159217958Y-58536903D01*
X159518421Y-58412447D01*
X159654320Y-58385415D01*
X159837389Y-58349000D01*
X160162611Y-58349000D01*
X160345680Y-58385415D01*
X160345680Y-58385415D01*
G37*
G36*
X70345680Y-58385415D02*
G01*
X70481579Y-58412447D01*
X70782042Y-58536903D01*
X71052451Y-58717585D01*
X71282415Y-58947549D01*
X71463097Y-59217958D01*
X71577543Y-59494254D01*
X71587553Y-59518422D01*
X71651000Y-59837389D01*
X71651000Y-60162611D01*
X71608702Y-60375256D01*
X71587553Y-60481579D01*
X71569787Y-60524469D01*
X71473824Y-60756146D01*
X71463097Y-60782042D01*
X71282415Y-61052451D01*
X71052451Y-61282415D01*
X70782042Y-61463097D01*
X70481579Y-61587553D01*
X70375256Y-61608702D01*
X70162611Y-61651000D01*
X69837389Y-61651000D01*
X69624744Y-61608702D01*
X69518421Y-61587553D01*
X69217958Y-61463097D01*
X68947549Y-61282415D01*
X68717585Y-61052451D01*
X68536903Y-60782042D01*
X68526177Y-60756146D01*
X68430213Y-60524469D01*
X68412447Y-60481579D01*
X68391298Y-60375256D01*
X68349000Y-60162611D01*
X68349000Y-59837389D01*
X68412447Y-59518422D01*
X68422458Y-59494254D01*
X68536903Y-59217958D01*
X68717585Y-58947549D01*
X68947549Y-58717585D01*
X69217958Y-58536903D01*
X69518421Y-58412447D01*
X69654320Y-58385415D01*
X69837389Y-58349000D01*
X70162611Y-58349000D01*
X70345680Y-58385415D01*
X70345680Y-58385415D01*
G37*
G36*
X103613928Y-59342764D02*
G01*
X103635009Y-59349160D01*
X103654445Y-59359548D01*
X103671476Y-59373524D01*
X103685452Y-59390555D01*
X103695840Y-59409991D01*
X103702236Y-59431072D01*
X103705000Y-59459140D01*
X103705000Y-60872860D01*
X103702236Y-60900928D01*
X103695840Y-60922009D01*
X103685452Y-60941445D01*
X103671476Y-60958476D01*
X103654445Y-60972452D01*
X103635009Y-60982840D01*
X103613928Y-60989236D01*
X103585860Y-60992000D01*
X103122140Y-60992000D01*
X103094072Y-60989236D01*
X103072991Y-60982840D01*
X103053555Y-60972452D01*
X103036524Y-60958476D01*
X103022548Y-60941445D01*
X103012160Y-60922009D01*
X103005764Y-60900928D01*
X103003000Y-60872860D01*
X103003000Y-59459140D01*
X103005764Y-59431072D01*
X103012160Y-59409991D01*
X103022548Y-59390555D01*
X103036524Y-59373524D01*
X103053555Y-59359548D01*
X103072991Y-59349160D01*
X103094072Y-59342764D01*
X103122140Y-59340000D01*
X103585860Y-59340000D01*
X103613928Y-59342764D01*
X103613928Y-59342764D01*
G37*
G36*
X104613928Y-59342764D02*
G01*
X104635009Y-59349160D01*
X104654445Y-59359548D01*
X104671476Y-59373524D01*
X104685452Y-59390555D01*
X104695840Y-59409991D01*
X104702236Y-59431072D01*
X104705000Y-59459140D01*
X104705000Y-60872860D01*
X104702236Y-60900928D01*
X104695840Y-60922009D01*
X104685452Y-60941445D01*
X104671476Y-60958476D01*
X104654445Y-60972452D01*
X104635009Y-60982840D01*
X104613928Y-60989236D01*
X104585860Y-60992000D01*
X104122140Y-60992000D01*
X104094072Y-60989236D01*
X104072991Y-60982840D01*
X104053555Y-60972452D01*
X104036524Y-60958476D01*
X104022548Y-60941445D01*
X104012160Y-60922009D01*
X104005764Y-60900928D01*
X104003000Y-60872860D01*
X104003000Y-59459140D01*
X104005764Y-59431072D01*
X104012160Y-59409991D01*
X104022548Y-59390555D01*
X104036524Y-59373524D01*
X104053555Y-59359548D01*
X104072991Y-59349160D01*
X104094072Y-59342764D01*
X104122140Y-59340000D01*
X104585860Y-59340000D01*
X104613928Y-59342764D01*
X104613928Y-59342764D01*
G37*
G36*
X102613928Y-59342764D02*
G01*
X102635009Y-59349160D01*
X102654445Y-59359548D01*
X102671476Y-59373524D01*
X102685452Y-59390555D01*
X102695840Y-59409991D01*
X102702236Y-59431072D01*
X102705000Y-59459140D01*
X102705000Y-60872860D01*
X102702236Y-60900928D01*
X102695840Y-60922009D01*
X102685452Y-60941445D01*
X102671476Y-60958476D01*
X102654445Y-60972452D01*
X102635009Y-60982840D01*
X102613928Y-60989236D01*
X102585860Y-60992000D01*
X102122140Y-60992000D01*
X102094072Y-60989236D01*
X102072991Y-60982840D01*
X102053555Y-60972452D01*
X102036524Y-60958476D01*
X102022548Y-60941445D01*
X102012160Y-60922009D01*
X102005764Y-60900928D01*
X102003000Y-60872860D01*
X102003000Y-59459140D01*
X102005764Y-59431072D01*
X102012160Y-59409991D01*
X102022548Y-59390555D01*
X102036524Y-59373524D01*
X102053555Y-59359548D01*
X102072991Y-59349160D01*
X102094072Y-59342764D01*
X102122140Y-59340000D01*
X102585860Y-59340000D01*
X102613928Y-59342764D01*
X102613928Y-59342764D01*
G37*
G36*
X101613928Y-59342764D02*
G01*
X101635009Y-59349160D01*
X101654445Y-59359548D01*
X101671476Y-59373524D01*
X101685452Y-59390555D01*
X101695840Y-59409991D01*
X101702236Y-59431072D01*
X101705000Y-59459140D01*
X101705000Y-60872860D01*
X101702236Y-60900928D01*
X101695840Y-60922009D01*
X101685452Y-60941445D01*
X101671476Y-60958476D01*
X101654445Y-60972452D01*
X101635009Y-60982840D01*
X101613928Y-60989236D01*
X101585860Y-60992000D01*
X101122140Y-60992000D01*
X101094072Y-60989236D01*
X101072991Y-60982840D01*
X101053555Y-60972452D01*
X101036524Y-60958476D01*
X101022548Y-60941445D01*
X101012160Y-60922009D01*
X101005764Y-60900928D01*
X101003000Y-60872860D01*
X101003000Y-59459140D01*
X101005764Y-59431072D01*
X101012160Y-59409991D01*
X101022548Y-59390555D01*
X101036524Y-59373524D01*
X101053555Y-59359548D01*
X101072991Y-59349160D01*
X101094072Y-59342764D01*
X101122140Y-59340000D01*
X101585860Y-59340000D01*
X101613928Y-59342764D01*
X101613928Y-59342764D01*
G37*
G36*
X100613928Y-59342764D02*
G01*
X100635009Y-59349160D01*
X100654445Y-59359548D01*
X100671476Y-59373524D01*
X100685452Y-59390555D01*
X100695840Y-59409991D01*
X100702236Y-59431072D01*
X100705000Y-59459140D01*
X100705000Y-60872860D01*
X100702236Y-60900928D01*
X100695840Y-60922009D01*
X100685452Y-60941445D01*
X100671476Y-60958476D01*
X100654445Y-60972452D01*
X100635009Y-60982840D01*
X100613928Y-60989236D01*
X100585860Y-60992000D01*
X100122140Y-60992000D01*
X100094072Y-60989236D01*
X100072991Y-60982840D01*
X100053555Y-60972452D01*
X100036524Y-60958476D01*
X100022548Y-60941445D01*
X100012160Y-60922009D01*
X100005764Y-60900928D01*
X100003000Y-60872860D01*
X100003000Y-59459140D01*
X100005764Y-59431072D01*
X100012160Y-59409991D01*
X100022548Y-59390555D01*
X100036524Y-59373524D01*
X100053555Y-59359548D01*
X100072991Y-59349160D01*
X100094072Y-59342764D01*
X100122140Y-59340000D01*
X100585860Y-59340000D01*
X100613928Y-59342764D01*
X100613928Y-59342764D01*
G37*
G36*
X99613928Y-59342764D02*
G01*
X99635009Y-59349160D01*
X99654445Y-59359548D01*
X99671476Y-59373524D01*
X99685452Y-59390555D01*
X99695840Y-59409991D01*
X99702236Y-59431072D01*
X99705000Y-59459140D01*
X99705000Y-60872860D01*
X99702236Y-60900928D01*
X99695840Y-60922009D01*
X99685452Y-60941445D01*
X99671476Y-60958476D01*
X99654445Y-60972452D01*
X99635009Y-60982840D01*
X99613928Y-60989236D01*
X99585860Y-60992000D01*
X99122140Y-60992000D01*
X99094072Y-60989236D01*
X99072991Y-60982840D01*
X99053555Y-60972452D01*
X99036524Y-60958476D01*
X99022548Y-60941445D01*
X99012160Y-60922009D01*
X99005764Y-60900928D01*
X99003000Y-60872860D01*
X99003000Y-59459140D01*
X99005764Y-59431072D01*
X99012160Y-59409991D01*
X99022548Y-59390555D01*
X99036524Y-59373524D01*
X99053555Y-59359548D01*
X99072991Y-59349160D01*
X99094072Y-59342764D01*
X99122140Y-59340000D01*
X99585860Y-59340000D01*
X99613928Y-59342764D01*
X99613928Y-59342764D01*
G37*
G36*
X118697715Y-58908058D02*
G01*
X118815722Y-58943855D01*
X118924468Y-59001981D01*
X119019790Y-59080210D01*
X119098019Y-59175532D01*
X119156145Y-59284278D01*
X119156145Y-59284279D01*
X119156146Y-59284281D01*
X119162809Y-59306247D01*
X119191942Y-59402285D01*
X119201000Y-59494254D01*
X119201000Y-60205746D01*
X119191942Y-60297715D01*
X119156145Y-60415722D01*
X119098019Y-60524468D01*
X119019790Y-60619790D01*
X118924468Y-60698019D01*
X118815721Y-60756145D01*
X118697714Y-60791942D01*
X118575000Y-60804028D01*
X118452285Y-60791942D01*
X118334278Y-60756145D01*
X118225532Y-60698019D01*
X118130210Y-60619790D01*
X118051981Y-60524468D01*
X117993855Y-60415721D01*
X117958058Y-60297714D01*
X117949000Y-60205745D01*
X117949000Y-59494254D01*
X117958058Y-59402285D01*
X117980634Y-59327861D01*
X117993854Y-59284281D01*
X118051983Y-59175531D01*
X118130211Y-59080210D01*
X118225532Y-59001982D01*
X118225531Y-59001982D01*
X118225533Y-59001981D01*
X118334279Y-58943855D01*
X118452286Y-58908058D01*
X118575000Y-58895972D01*
X118697715Y-58908058D01*
X118697715Y-58908058D01*
G37*
G36*
X111547715Y-58908058D02*
G01*
X111665722Y-58943855D01*
X111774468Y-59001981D01*
X111869790Y-59080210D01*
X111948019Y-59175532D01*
X112006145Y-59284278D01*
X112006145Y-59284279D01*
X112006146Y-59284281D01*
X112012809Y-59306247D01*
X112041942Y-59402285D01*
X112051000Y-59494254D01*
X112051000Y-60205746D01*
X112041942Y-60297715D01*
X112006145Y-60415722D01*
X111948019Y-60524468D01*
X111869790Y-60619790D01*
X111774468Y-60698019D01*
X111665721Y-60756145D01*
X111547714Y-60791942D01*
X111425000Y-60804028D01*
X111302285Y-60791942D01*
X111184278Y-60756145D01*
X111075532Y-60698019D01*
X110980210Y-60619790D01*
X110901981Y-60524468D01*
X110843855Y-60415721D01*
X110808058Y-60297714D01*
X110799000Y-60205745D01*
X110799000Y-59494254D01*
X110808058Y-59402285D01*
X110830634Y-59327861D01*
X110843854Y-59284281D01*
X110901983Y-59175531D01*
X110980211Y-59080210D01*
X111075532Y-59001982D01*
X111075531Y-59001982D01*
X111075533Y-59001981D01*
X111184279Y-58943855D01*
X111302286Y-58908058D01*
X111425000Y-58895972D01*
X111547715Y-58908058D01*
X111547715Y-58908058D01*
G37*
G36*
X122434468Y-59253565D02*
G01*
X122473138Y-59265296D01*
X122508777Y-59284346D01*
X122540017Y-59309983D01*
X122565654Y-59341223D01*
X122584704Y-59376862D01*
X122596435Y-59415532D01*
X122601000Y-59461888D01*
X122601000Y-60538112D01*
X122596435Y-60584468D01*
X122584704Y-60623138D01*
X122565654Y-60658777D01*
X122540017Y-60690017D01*
X122508777Y-60715654D01*
X122473138Y-60734704D01*
X122434468Y-60746435D01*
X122388112Y-60751000D01*
X121736888Y-60751000D01*
X121690532Y-60746435D01*
X121651862Y-60734704D01*
X121616223Y-60715654D01*
X121584983Y-60690017D01*
X121559346Y-60658777D01*
X121540296Y-60623138D01*
X121528565Y-60584468D01*
X121524000Y-60538112D01*
X121524000Y-59461888D01*
X121528565Y-59415532D01*
X121540296Y-59376862D01*
X121559346Y-59341223D01*
X121584983Y-59309983D01*
X121616223Y-59284346D01*
X121651862Y-59265296D01*
X121690532Y-59253565D01*
X121736888Y-59249000D01*
X122388112Y-59249000D01*
X122434468Y-59253565D01*
X122434468Y-59253565D01*
G37*
G36*
X124309468Y-59253565D02*
G01*
X124348138Y-59265296D01*
X124383777Y-59284346D01*
X124415017Y-59309983D01*
X124440654Y-59341223D01*
X124459704Y-59376862D01*
X124471435Y-59415532D01*
X124476000Y-59461888D01*
X124476000Y-60538112D01*
X124471435Y-60584468D01*
X124459704Y-60623138D01*
X124440654Y-60658777D01*
X124415017Y-60690017D01*
X124383777Y-60715654D01*
X124348138Y-60734704D01*
X124309468Y-60746435D01*
X124263112Y-60751000D01*
X123611888Y-60751000D01*
X123565532Y-60746435D01*
X123526862Y-60734704D01*
X123491223Y-60715654D01*
X123459983Y-60690017D01*
X123434346Y-60658777D01*
X123415296Y-60623138D01*
X123403565Y-60584468D01*
X123399000Y-60538112D01*
X123399000Y-59461888D01*
X123403565Y-59415532D01*
X123415296Y-59376862D01*
X123434346Y-59341223D01*
X123459983Y-59309983D01*
X123491223Y-59284346D01*
X123526862Y-59265296D01*
X123565532Y-59253565D01*
X123611888Y-59249000D01*
X124263112Y-59249000D01*
X124309468Y-59253565D01*
X124309468Y-59253565D01*
G37*
G36*
X113073710Y-58159440D02*
G01*
X113144585Y-58180940D01*
X113209904Y-58215854D01*
X113267159Y-58262841D01*
X113314146Y-58320096D01*
X113349060Y-58385415D01*
X113370560Y-58456290D01*
X113373511Y-58486254D01*
X113378292Y-58510287D01*
X113387669Y-58532926D01*
X113401283Y-58553300D01*
X113418610Y-58570627D01*
X113438985Y-58584241D01*
X113461624Y-58593618D01*
X113497908Y-58599000D01*
X116502092Y-58599000D01*
X116526478Y-58596598D01*
X116549927Y-58589485D01*
X116571538Y-58577934D01*
X116590480Y-58562389D01*
X116606025Y-58543447D01*
X116617576Y-58521836D01*
X116626489Y-58486254D01*
X116629440Y-58456290D01*
X116650940Y-58385415D01*
X116685854Y-58320096D01*
X116732841Y-58262841D01*
X116790096Y-58215854D01*
X116855415Y-58180940D01*
X116926290Y-58159440D01*
X116981528Y-58154000D01*
X117018472Y-58154000D01*
X117073710Y-58159440D01*
X117144585Y-58180940D01*
X117209904Y-58215854D01*
X117267159Y-58262841D01*
X117314146Y-58320096D01*
X117349060Y-58385415D01*
X117370560Y-58456290D01*
X117377819Y-58530000D01*
X117370560Y-58603710D01*
X117349060Y-58674585D01*
X117314146Y-58739904D01*
X117267159Y-58797159D01*
X117209904Y-58844146D01*
X117144585Y-58879060D01*
X117073710Y-58900560D01*
X117018472Y-58906000D01*
X116981528Y-58906000D01*
X116926290Y-58900560D01*
X116855415Y-58879060D01*
X116790096Y-58844146D01*
X116755297Y-58815588D01*
X116734922Y-58801974D01*
X116712283Y-58792597D01*
X116688250Y-58787817D01*
X116663746Y-58787817D01*
X116639713Y-58792598D01*
X116617074Y-58801975D01*
X116596700Y-58815589D01*
X116579373Y-58832916D01*
X116565759Y-58853291D01*
X116556382Y-58875930D01*
X116551000Y-58912214D01*
X116551000Y-60101000D01*
X113449000Y-60101000D01*
X113449000Y-58912214D01*
X113446598Y-58887828D01*
X113439485Y-58864379D01*
X113427934Y-58842768D01*
X113412389Y-58823826D01*
X113393447Y-58808281D01*
X113371836Y-58796730D01*
X113348387Y-58789617D01*
X113324001Y-58787215D01*
X113299615Y-58789617D01*
X113276166Y-58796730D01*
X113244703Y-58815588D01*
X113209904Y-58844146D01*
X113144585Y-58879060D01*
X113073710Y-58900560D01*
X113018472Y-58906000D01*
X112981528Y-58906000D01*
X112926290Y-58900560D01*
X112855415Y-58879060D01*
X112790096Y-58844146D01*
X112732841Y-58797159D01*
X112685854Y-58739904D01*
X112650940Y-58674585D01*
X112629440Y-58603710D01*
X112622181Y-58530000D01*
X112629440Y-58456290D01*
X112650940Y-58385415D01*
X112685854Y-58320096D01*
X112732841Y-58262841D01*
X112790096Y-58215854D01*
X112855415Y-58180940D01*
X112926290Y-58159440D01*
X112981528Y-58154000D01*
X113018472Y-58154000D01*
X113073710Y-58159440D01*
X113073710Y-58159440D01*
G37*
G36*
X111547715Y-55458058D02*
G01*
X111665722Y-55493855D01*
X111774468Y-55551981D01*
X111869790Y-55630210D01*
X111948019Y-55725532D01*
X112006145Y-55834278D01*
X112041942Y-55952285D01*
X112051000Y-56044254D01*
X112051000Y-56755746D01*
X112041942Y-56847715D01*
X112006145Y-56965722D01*
X111948019Y-57074468D01*
X111869790Y-57169790D01*
X111774468Y-57248019D01*
X111665721Y-57306145D01*
X111547714Y-57341942D01*
X111425000Y-57354028D01*
X111302285Y-57341942D01*
X111184278Y-57306145D01*
X111075532Y-57248019D01*
X110980210Y-57169790D01*
X110901981Y-57074468D01*
X110843855Y-56965721D01*
X110808058Y-56847714D01*
X110799000Y-56755745D01*
X110799000Y-56044254D01*
X110808058Y-55952285D01*
X110843855Y-55834279D01*
X110901982Y-55725532D01*
X110980211Y-55630210D01*
X111075533Y-55551981D01*
X111184279Y-55493855D01*
X111302286Y-55458058D01*
X111425000Y-55445972D01*
X111547715Y-55458058D01*
X111547715Y-55458058D01*
G37*
G36*
X118697715Y-55458058D02*
G01*
X118815722Y-55493855D01*
X118924468Y-55551981D01*
X119019790Y-55630210D01*
X119098019Y-55725532D01*
X119156145Y-55834278D01*
X119191942Y-55952285D01*
X119201000Y-56044254D01*
X119201000Y-56755746D01*
X119191942Y-56847715D01*
X119156145Y-56965722D01*
X119098019Y-57074468D01*
X119019790Y-57169790D01*
X118924468Y-57248019D01*
X118815721Y-57306145D01*
X118697714Y-57341942D01*
X118575000Y-57354028D01*
X118452285Y-57341942D01*
X118334278Y-57306145D01*
X118225532Y-57248019D01*
X118130210Y-57169790D01*
X118051981Y-57074468D01*
X117993855Y-56965721D01*
X117958058Y-56847714D01*
X117949000Y-56755745D01*
X117949000Y-56044254D01*
X117958058Y-55952285D01*
X117993855Y-55834279D01*
X118051982Y-55725532D01*
X118130211Y-55630210D01*
X118225533Y-55551981D01*
X118334279Y-55493855D01*
X118452286Y-55458058D01*
X118575000Y-55445972D01*
X118697715Y-55458058D01*
X118697715Y-55458058D01*
G37*
G36*
X106145656Y-55344394D02*
G01*
X106182656Y-55355618D01*
X106216748Y-55373840D01*
X106246634Y-55398366D01*
X106271160Y-55428252D01*
X106289382Y-55462344D01*
X106300606Y-55499344D01*
X106305000Y-55543956D01*
X106305000Y-57038044D01*
X106300606Y-57082656D01*
X106289382Y-57119656D01*
X106271160Y-57153748D01*
X106246634Y-57183634D01*
X106216748Y-57208160D01*
X106182656Y-57226382D01*
X106145656Y-57237606D01*
X106101044Y-57242000D01*
X105206956Y-57242000D01*
X105162344Y-57237606D01*
X105125344Y-57226382D01*
X105091252Y-57208160D01*
X105061366Y-57183634D01*
X105036840Y-57153748D01*
X105018618Y-57119656D01*
X105007394Y-57082656D01*
X105003000Y-57038044D01*
X105003000Y-55543956D01*
X105007394Y-55499344D01*
X105018618Y-55462344D01*
X105036840Y-55428252D01*
X105061366Y-55398366D01*
X105091252Y-55373840D01*
X105125344Y-55355618D01*
X105162344Y-55344394D01*
X105206956Y-55340000D01*
X106101044Y-55340000D01*
X106145656Y-55344394D01*
X106145656Y-55344394D01*
G37*
G36*
X98545656Y-55344394D02*
G01*
X98582656Y-55355618D01*
X98616748Y-55373840D01*
X98646634Y-55398366D01*
X98671160Y-55428252D01*
X98689382Y-55462344D01*
X98700606Y-55499344D01*
X98705000Y-55543956D01*
X98705000Y-57038044D01*
X98700606Y-57082656D01*
X98689382Y-57119656D01*
X98671160Y-57153748D01*
X98646634Y-57183634D01*
X98616748Y-57208160D01*
X98582656Y-57226382D01*
X98545656Y-57237606D01*
X98501044Y-57242000D01*
X97606956Y-57242000D01*
X97562344Y-57237606D01*
X97525344Y-57226382D01*
X97491252Y-57208160D01*
X97461366Y-57183634D01*
X97436840Y-57153748D01*
X97418618Y-57119656D01*
X97407394Y-57082656D01*
X97403000Y-57038044D01*
X97403000Y-55543956D01*
X97407394Y-55499344D01*
X97418618Y-55462344D01*
X97436840Y-55428252D01*
X97461366Y-55398366D01*
X97491252Y-55373840D01*
X97525344Y-55355618D01*
X97562344Y-55344394D01*
X97606956Y-55340000D01*
X98501044Y-55340000D01*
X98545656Y-55344394D01*
X98545656Y-55344394D01*
G37*
M02*
